<?xml version="1.0" encoding="utf-8" standalone="no"?>
<!DOCTYPE svg PUBLIC "-//W3C//DTD SVG 1.1//EN"
  "http://www.w3.org/Graphics/SVG/1.1/DTD/svg11.dtd">
<svg xmlns:xlink="http://www.w3.org/1999/xlink" width="460.8pt" height="345.6pt" viewBox="0 0 460.8 345.6" xmlns="http://www.w3.org/2000/svg" version="1.1">
 <metadata>
  <rdf:RDF xmlns:dc="http://purl.org/dc/elements/1.1/" xmlns:cc="http://creativecommons.org/ns#" xmlns:rdf="http://www.w3.org/1999/02/22-rdf-syntax-ns#">
   <cc:Work>
    <dc:type rdf:resource="http://purl.org/dc/dcmitype/StillImage"/>
    <dc:date>2024-01-11T23:35:12.848845</dc:date>
    <dc:format>image/svg+xml</dc:format>
    <dc:creator>
     <cc:Agent>
      <dc:title>Matplotlib v3.7.0, https://matplotlib.org/</dc:title>
     </cc:Agent>
    </dc:creator>
   </cc:Work>
  </rdf:RDF>
 </metadata>
 <defs>
  <style type="text/css">*{stroke-linejoin: round; stroke-linecap: butt}</style>
 </defs>
 <g id="figure_1">
  <g id="patch_1">
   <path d="M 0 345.6 
L 460.8 345.6 
L 460.8 0 
L 0 0 
z
" style="fill: #ffffff"/>
  </g>
  <g id="axes_1">
   <g id="patch_2">
    <path d="M 57.6 307.584 
L 414.72 307.584 
L 414.72 41.472 
L 57.6 41.472 
z
" style="fill: #ffffff"/>
   </g>
   <g id="PolyCollection_1">
    <path d="M 129.704336 295.488 
L 126.179301 295.488 
L 124.554226 295.032564 
L 122.170321 294.577127 
L 118.434384 294.121691 
L 111.752847 293.666254 
L 100.354813 293.210818 
L 85.60409 292.755381 
L 74.252659 292.299945 
L 73.832727 291.844508 
L 84.705895 291.389072 
L 99.662744 290.933635 
L 111.480398 290.478199 
L 118.121012 290.022762 
L 121.300166 289.567326 
L 123.045787 289.111889 
L 124.269107 288.656453 
L 125.149719 288.201016 
L 125.753352 287.74558 
L 126.20099 287.290143 
L 126.568036 286.834707 
L 126.833179 286.37927 
L 126.970473 285.923834 
L 127.037662 285.468397 
L 127.131939 285.012961 
L 127.290832 284.557524 
L 127.467728 284.102088 
L 127.593171 283.646651 
L 127.642202 283.191215 
L 127.643705 282.735778 
L 127.634747 282.280342 
L 127.617432 281.824905 
L 127.570057 281.369469 
L 127.487371 280.914033 
L 127.401641 280.458596 
L 127.36613 280.00316 
L 127.408979 279.547723 
L 127.508249 279.092287 
L 127.612166 278.63685 
L 127.674366 278.181414 
L 127.686292 277.725977 
L 127.681801 277.270541 
L 127.695644 276.815104 
L 127.720203 276.359668 
L 127.718575 275.904231 
L 127.682684 275.448795 
L 127.651901 274.993358 
L 127.660206 274.537922 
L 127.698511 274.082485 
L 127.741934 273.627049 
L 127.779255 273.171612 
L 127.806149 272.716176 
L 127.81766 272.260739 
L 127.819143 271.805303 
L 127.82839 271.349866 
L 127.852358 270.89443 
L 127.875191 270.438993 
L 127.884061 269.983557 
L 127.888468 269.52812 
L 127.900945 269.072684 
L 127.91685 268.617247 
L 127.922537 268.161811 
L 127.910581 267.706374 
L 127.884626 267.250938 
L 127.857086 266.795502 
L 127.840336 266.340065 
L 127.838524 265.884629 
L 127.849062 265.429192 
L 127.864715 264.973756 
L 127.871408 264.518319 
L 127.859221 264.062883 
L 127.842132 263.607446 
L 127.846924 263.15201 
L 127.877164 262.696573 
L 127.910059 262.241137 
L 127.926306 261.7857 
L 127.923113 261.330264 
L 127.907774 260.874827 
L 127.894162 260.419391 
L 127.89537 259.963954 
L 127.910555 259.508518 
L 127.927296 259.053081 
L 127.937162 258.597645 
L 127.940788 258.142208 
L 127.941661 257.686772 
L 127.941801 257.231335 
L 127.941809 256.775899 
L 127.94173 256.320462 
L 127.941177 255.865026 
L 127.938612 255.409589 
L 127.930757 254.954153 
L 127.915483 254.498716 
L 127.898548 254.04328 
L 127.892749 253.587843 
L 127.903362 253.132407 
L 127.920606 252.67697 
L 127.931554 252.221534 
L 127.930541 251.766098 
L 127.917985 251.310661 
L 127.900819 250.855225 
L 127.892514 250.399788 
L 127.991123 250.399788 
L 127.991123 250.399788 
L 127.982817 250.855225 
L 127.965651 251.310661 
L 127.953096 251.766098 
L 127.952082 252.221534 
L 127.963031 252.67697 
L 127.980274 253.132407 
L 127.990888 253.587843 
L 127.985088 254.04328 
L 127.968153 254.498716 
L 127.952879 254.954153 
L 127.945024 255.409589 
L 127.94246 255.865026 
L 127.941907 256.320462 
L 127.941828 256.775899 
L 127.941835 257.231335 
L 127.941975 257.686772 
L 127.942848 258.142208 
L 127.946474 258.597645 
L 127.956341 259.053081 
L 127.973081 259.508518 
L 127.988266 259.963954 
L 127.989474 260.419391 
L 127.975862 260.874827 
L 127.960524 261.330264 
L 127.957331 261.7857 
L 127.973578 262.241137 
L 128.006472 262.696573 
L 128.036712 263.15201 
L 128.041504 263.607446 
L 128.024416 264.062883 
L 128.012229 264.518319 
L 128.018922 264.973756 
L 128.034574 265.429192 
L 128.045112 265.884629 
L 128.043301 266.340065 
L 128.026551 266.795502 
L 127.999011 267.250938 
L 127.973055 267.706374 
L 127.961099 268.161811 
L 127.966786 268.617247 
L 127.982692 269.072684 
L 127.995169 269.52812 
L 127.999576 269.983557 
L 128.008446 270.438993 
L 128.031278 270.89443 
L 128.055246 271.349866 
L 128.064493 271.805303 
L 128.065976 272.260739 
L 128.077487 272.716176 
L 128.104381 273.171612 
L 128.141702 273.627049 
L 128.185125 274.082485 
L 128.22343 274.537922 
L 128.231735 274.993358 
L 128.200952 275.448795 
L 128.165061 275.904231 
L 128.163433 276.359668 
L 128.187993 276.815104 
L 128.201836 277.270541 
L 128.197345 277.725977 
L 128.20927 278.181414 
L 128.271471 278.63685 
L 128.375387 279.092287 
L 128.474657 279.547723 
L 128.517507 280.00316 
L 128.481995 280.458596 
L 128.396265 280.914033 
L 128.31358 281.369469 
L 128.266204 281.824905 
L 128.24889 282.280342 
L 128.239932 282.735778 
L 128.241434 283.191215 
L 128.290466 283.646651 
L 128.415908 284.102088 
L 128.592804 284.557524 
L 128.751697 285.012961 
L 128.845974 285.468397 
L 128.913164 285.923834 
L 129.050458 286.37927 
L 129.3156 286.834707 
L 129.682646 287.290143 
L 130.130284 287.74558 
L 130.733917 288.201016 
L 131.614529 288.656453 
L 132.837849 289.111889 
L 134.58347 289.567326 
L 137.762624 290.022762 
L 144.403238 290.478199 
L 156.220892 290.933635 
L 171.177741 291.389072 
L 182.050909 291.844508 
L 181.630977 292.299945 
L 170.279546 292.755381 
L 155.528823 293.210818 
L 144.13079 293.666254 
L 137.449253 294.121691 
L 133.713315 294.577127 
L 131.329411 295.032564 
L 129.704336 295.488 
z
" clip-path="url(#p8530ff788e)" style="fill: #1f77b4; fill-opacity: 0.3"/>
   </g>
   <g id="PolyCollection_2">
    <path d="M 347.037368 237.258596 
L 341.718996 237.258596 
L 332.7395 235.403135 
L 310.811653 233.547675 
L 290.269091 231.692214 
L 295.257875 229.836754 
L 318.082715 227.981293 
L 335.020434 226.125833 
L 341.377788 224.270372 
L 343.26742 222.414911 
L 343.863276 220.559451 
L 344.080804 218.70399 
L 344.169347 216.84853 
L 344.103432 214.993069 
L 344.084161 213.137609 
L 344.194015 211.282148 
L 344.312526 209.426688 
L 344.367397 207.571227 
L 344.377501 205.715766 
L 344.378166 203.860306 
L 344.378182 202.004845 
L 344.378182 200.149385 
L 344.378182 198.293924 
L 344.378182 196.438464 
L 344.378182 194.583003 
L 344.378182 192.727542 
L 344.378182 190.872082 
L 344.378182 189.016621 
L 344.378182 187.161161 
L 344.378182 185.3057 
L 344.378161 183.45024 
L 344.377331 181.594779 
L 344.366276 179.739318 
L 344.320526 177.883858 
L 344.281579 176.028397 
L 344.32218 174.172937 
L 344.366949 172.317476 
L 344.377402 170.462016 
L 344.378163 168.606555 
L 344.378182 166.751095 
L 344.378182 164.895634 
L 344.378182 163.040173 
L 344.378182 161.184713 
L 344.378182 159.329252 
L 344.378182 157.473792 
L 344.378182 155.618331 
L 344.378182 153.762871 
L 344.378182 151.90741 
L 344.378182 150.051949 
L 344.378182 148.196489 
L 344.378182 146.341028 
L 344.378182 144.485568 
L 344.378182 142.630107 
L 344.378182 140.774647 
L 344.378182 138.919186 
L 344.378182 137.063725 
L 344.378182 135.208265 
L 344.378182 133.352804 
L 344.378182 131.497344 
L 344.378182 129.641883 
L 344.378182 127.786423 
L 344.378182 125.930962 
L 344.378182 124.075502 
L 344.378182 122.220041 
L 344.378182 120.36458 
L 344.378182 118.50912 
L 344.378182 116.653659 
L 344.378182 114.798199 
L 344.378182 112.942738 
L 344.378182 111.087278 
L 344.378182 109.231817 
L 344.378182 107.376356 
L 344.378182 105.520896 
L 344.378182 103.665435 
L 344.378182 101.809975 
L 344.378182 99.954514 
L 344.378182 98.099054 
L 344.378182 96.243593 
L 344.378182 94.388132 
L 344.378182 92.532672 
L 344.378182 90.677211 
L 344.378182 88.821751 
L 344.378182 86.96629 
L 344.378182 85.11083 
L 344.378182 83.255369 
L 344.378182 81.399908 
L 344.378182 79.544448 
L 344.378182 77.688987 
L 344.378182 75.833527 
L 344.378182 73.978066 
L 344.378182 72.122606 
L 344.378182 70.267145 
L 344.378182 68.411685 
L 344.378182 66.556224 
L 344.378182 64.700763 
L 344.378182 62.845303 
L 344.378162 60.989842 
L 344.377367 59.134382 
L 344.366616 57.278921 
L 344.321353 55.423461 
L 344.281569 53.568 
L 344.474794 53.568 
L 344.474794 53.568 
L 344.43501 55.423461 
L 344.389747 57.278921 
L 344.378996 59.134382 
L 344.378202 60.989842 
L 344.378182 62.845303 
L 344.378182 64.700763 
L 344.378182 66.556224 
L 344.378182 68.411685 
L 344.378182 70.267145 
L 344.378182 72.122606 
L 344.378182 73.978066 
L 344.378182 75.833527 
L 344.378182 77.688987 
L 344.378182 79.544448 
L 344.378182 81.399908 
L 344.378182 83.255369 
L 344.378182 85.11083 
L 344.378182 86.96629 
L 344.378182 88.821751 
L 344.378182 90.677211 
L 344.378182 92.532672 
L 344.378182 94.388132 
L 344.378182 96.243593 
L 344.378182 98.099054 
L 344.378182 99.954514 
L 344.378182 101.809975 
L 344.378182 103.665435 
L 344.378182 105.520896 
L 344.378182 107.376356 
L 344.378182 109.231817 
L 344.378182 111.087278 
L 344.378182 112.942738 
L 344.378182 114.798199 
L 344.378182 116.653659 
L 344.378182 118.50912 
L 344.378182 120.36458 
L 344.378182 122.220041 
L 344.378182 124.075502 
L 344.378182 125.930962 
L 344.378182 127.786423 
L 344.378182 129.641883 
L 344.378182 131.497344 
L 344.378182 133.352804 
L 344.378182 135.208265 
L 344.378182 137.063725 
L 344.378182 138.919186 
L 344.378182 140.774647 
L 344.378182 142.630107 
L 344.378182 144.485568 
L 344.378182 146.341028 
L 344.378182 148.196489 
L 344.378182 150.051949 
L 344.378182 151.90741 
L 344.378182 153.762871 
L 344.378182 155.618331 
L 344.378182 157.473792 
L 344.378182 159.329252 
L 344.378182 161.184713 
L 344.378182 163.040173 
L 344.378182 164.895634 
L 344.378182 166.751095 
L 344.378201 168.606555 
L 344.378961 170.462016 
L 344.389415 172.317476 
L 344.434184 174.172937 
L 344.474785 176.028397 
L 344.435837 177.883858 
L 344.390088 179.739318 
L 344.379032 181.594779 
L 344.378203 183.45024 
L 344.378182 185.3057 
L 344.378182 187.161161 
L 344.378182 189.016621 
L 344.378182 190.872082 
L 344.378182 192.727542 
L 344.378182 194.583003 
L 344.378182 196.438464 
L 344.378182 198.293924 
L 344.378182 200.149385 
L 344.378182 202.004845 
L 344.378197 203.860306 
L 344.378863 205.715766 
L 344.388966 207.571227 
L 344.443838 209.426688 
L 344.562349 211.282148 
L 344.672203 213.137609 
L 344.652932 214.993069 
L 344.587017 216.84853 
L 344.675559 218.70399 
L 344.893088 220.559451 
L 345.488943 222.414911 
L 347.378576 224.270372 
L 353.735929 226.125833 
L 370.673649 227.981293 
L 393.498488 229.836754 
L 398.487273 231.692214 
L 377.944711 233.547675 
L 356.016864 235.403135 
L 347.037368 237.258596 
z
" clip-path="url(#p8530ff788e)" style="fill: #1f77b4; fill-opacity: 0.3"/>
   </g>
   <g id="matplotlib.axis_1">
    <g id="xtick_1">
     <g id="line2d_1">
      <defs>
       <path id="m802f359838" d="M 0 0 
L 0 3.5 
" style="stroke: #000000; stroke-width: 0.8"/>
      </defs>
      <g>
       <use xlink:href="#m802f359838" x="127.941818" y="307.584" style="stroke: #000000; stroke-width: 0.8"/>
      </g>
     </g>
     <g id="text_1">
      <!-- ls -->
      <g transform="translate(123.948068 322.182437) scale(0.1 -0.1)">
       <defs>
        <path id="DejaVuSans-6c" d="M 603 4863 
L 1178 4863 
L 1178 0 
L 603 0 
L 603 4863 
z
" transform="scale(0.015625)"/>
        <path id="DejaVuSans-73" d="M 2834 3397 
L 2834 2853 
Q 2591 2978 2328 3040 
Q 2066 3103 1784 3103 
Q 1356 3103 1142 2972 
Q 928 2841 928 2578 
Q 928 2378 1081 2264 
Q 1234 2150 1697 2047 
L 1894 2003 
Q 2506 1872 2764 1633 
Q 3022 1394 3022 966 
Q 3022 478 2636 193 
Q 2250 -91 1575 -91 
Q 1294 -91 989 -36 
Q 684 19 347 128 
L 347 722 
Q 666 556 975 473 
Q 1284 391 1588 391 
Q 1994 391 2212 530 
Q 2431 669 2431 922 
Q 2431 1156 2273 1281 
Q 2116 1406 1581 1522 
L 1381 1569 
Q 847 1681 609 1914 
Q 372 2147 372 2553 
Q 372 3047 722 3315 
Q 1072 3584 1716 3584 
Q 2034 3584 2315 3537 
Q 2597 3491 2834 3397 
z
" transform="scale(0.015625)"/>
       </defs>
       <use xlink:href="#DejaVuSans-6c"/>
       <use xlink:href="#DejaVuSans-73" x="27.783203"/>
      </g>
     </g>
    </g>
    <g id="xtick_2">
     <g id="line2d_2">
      <g>
       <use xlink:href="#m802f359838" x="344.378182" y="307.584" style="stroke: #000000; stroke-width: 0.8"/>
      </g>
     </g>
     <g id="text_2">
      <!-- exa -->
      <g transform="translate(335.365682 322.182437) scale(0.1 -0.1)">
       <defs>
        <path id="DejaVuSans-65" d="M 3597 1894 
L 3597 1613 
L 953 1613 
Q 991 1019 1311 708 
Q 1631 397 2203 397 
Q 2534 397 2845 478 
Q 3156 559 3463 722 
L 3463 178 
Q 3153 47 2828 -22 
Q 2503 -91 2169 -91 
Q 1331 -91 842 396 
Q 353 884 353 1716 
Q 353 2575 817 3079 
Q 1281 3584 2069 3584 
Q 2775 3584 3186 3129 
Q 3597 2675 3597 1894 
z
M 3022 2063 
Q 3016 2534 2758 2815 
Q 2500 3097 2075 3097 
Q 1594 3097 1305 2825 
Q 1016 2553 972 2059 
L 3022 2063 
z
" transform="scale(0.015625)"/>
        <path id="DejaVuSans-78" d="M 3513 3500 
L 2247 1797 
L 3578 0 
L 2900 0 
L 1881 1375 
L 863 0 
L 184 0 
L 1544 1831 
L 300 3500 
L 978 3500 
L 1906 2253 
L 2834 3500 
L 3513 3500 
z
" transform="scale(0.015625)"/>
        <path id="DejaVuSans-61" d="M 2194 1759 
Q 1497 1759 1228 1600 
Q 959 1441 959 1056 
Q 959 750 1161 570 
Q 1363 391 1709 391 
Q 2188 391 2477 730 
Q 2766 1069 2766 1631 
L 2766 1759 
L 2194 1759 
z
M 3341 1997 
L 3341 0 
L 2766 0 
L 2766 531 
Q 2569 213 2275 61 
Q 1981 -91 1556 -91 
Q 1019 -91 701 211 
Q 384 513 384 1019 
Q 384 1609 779 1909 
Q 1175 2209 1959 2209 
L 2766 2209 
L 2766 2266 
Q 2766 2663 2505 2880 
Q 2244 3097 1772 3097 
Q 1472 3097 1187 3025 
Q 903 2953 641 2809 
L 641 3341 
Q 956 3463 1253 3523 
Q 1550 3584 1831 3584 
Q 2591 3584 2966 3190 
Q 3341 2797 3341 1997 
z
" transform="scale(0.015625)"/>
       </defs>
       <use xlink:href="#DejaVuSans-65"/>
       <use xlink:href="#DejaVuSans-78" x="59.773438"/>
       <use xlink:href="#DejaVuSans-61" x="118.953125"/>
      </g>
     </g>
    </g>
    <g id="text_3">
     <!-- command -->
     <g transform="translate(211.20375 335.860562) scale(0.1 -0.1)">
      <defs>
       <path id="DejaVuSans-63" d="M 3122 3366 
L 3122 2828 
Q 2878 2963 2633 3030 
Q 2388 3097 2138 3097 
Q 1578 3097 1268 2742 
Q 959 2388 959 1747 
Q 959 1106 1268 751 
Q 1578 397 2138 397 
Q 2388 397 2633 464 
Q 2878 531 3122 666 
L 3122 134 
Q 2881 22 2623 -34 
Q 2366 -91 2075 -91 
Q 1284 -91 818 406 
Q 353 903 353 1747 
Q 353 2603 823 3093 
Q 1294 3584 2113 3584 
Q 2378 3584 2631 3529 
Q 2884 3475 3122 3366 
z
" transform="scale(0.015625)"/>
       <path id="DejaVuSans-6f" d="M 1959 3097 
Q 1497 3097 1228 2736 
Q 959 2375 959 1747 
Q 959 1119 1226 758 
Q 1494 397 1959 397 
Q 2419 397 2687 759 
Q 2956 1122 2956 1747 
Q 2956 2369 2687 2733 
Q 2419 3097 1959 3097 
z
M 1959 3584 
Q 2709 3584 3137 3096 
Q 3566 2609 3566 1747 
Q 3566 888 3137 398 
Q 2709 -91 1959 -91 
Q 1206 -91 779 398 
Q 353 888 353 1747 
Q 353 2609 779 3096 
Q 1206 3584 1959 3584 
z
" transform="scale(0.015625)"/>
       <path id="DejaVuSans-6d" d="M 3328 2828 
Q 3544 3216 3844 3400 
Q 4144 3584 4550 3584 
Q 5097 3584 5394 3201 
Q 5691 2819 5691 2113 
L 5691 0 
L 5113 0 
L 5113 2094 
Q 5113 2597 4934 2840 
Q 4756 3084 4391 3084 
Q 3944 3084 3684 2787 
Q 3425 2491 3425 1978 
L 3425 0 
L 2847 0 
L 2847 2094 
Q 2847 2600 2669 2842 
Q 2491 3084 2119 3084 
Q 1678 3084 1418 2786 
Q 1159 2488 1159 1978 
L 1159 0 
L 581 0 
L 581 3500 
L 1159 3500 
L 1159 2956 
Q 1356 3278 1631 3431 
Q 1906 3584 2284 3584 
Q 2666 3584 2933 3390 
Q 3200 3197 3328 2828 
z
" transform="scale(0.015625)"/>
       <path id="DejaVuSans-6e" d="M 3513 2113 
L 3513 0 
L 2938 0 
L 2938 2094 
Q 2938 2591 2744 2837 
Q 2550 3084 2163 3084 
Q 1697 3084 1428 2787 
Q 1159 2491 1159 1978 
L 1159 0 
L 581 0 
L 581 3500 
L 1159 3500 
L 1159 2956 
Q 1366 3272 1645 3428 
Q 1925 3584 2291 3584 
Q 2894 3584 3203 3211 
Q 3513 2838 3513 2113 
z
" transform="scale(0.015625)"/>
       <path id="DejaVuSans-64" d="M 2906 2969 
L 2906 4863 
L 3481 4863 
L 3481 0 
L 2906 0 
L 2906 525 
Q 2725 213 2448 61 
Q 2172 -91 1784 -91 
Q 1150 -91 751 415 
Q 353 922 353 1747 
Q 353 2572 751 3078 
Q 1150 3584 1784 3584 
Q 2172 3584 2448 3432 
Q 2725 3281 2906 2969 
z
M 947 1747 
Q 947 1113 1208 752 
Q 1469 391 1925 391 
Q 2381 391 2643 752 
Q 2906 1113 2906 1747 
Q 2906 2381 2643 2742 
Q 2381 3103 1925 3103 
Q 1469 3103 1208 2742 
Q 947 2381 947 1747 
z
" transform="scale(0.015625)"/>
      </defs>
      <use xlink:href="#DejaVuSans-63"/>
      <use xlink:href="#DejaVuSans-6f" x="54.980469"/>
      <use xlink:href="#DejaVuSans-6d" x="116.162109"/>
      <use xlink:href="#DejaVuSans-6d" x="213.574219"/>
      <use xlink:href="#DejaVuSans-61" x="310.986328"/>
      <use xlink:href="#DejaVuSans-6e" x="372.265625"/>
      <use xlink:href="#DejaVuSans-64" x="435.644531"/>
     </g>
    </g>
   </g>
   <g id="matplotlib.axis_2">
    <g id="ytick_1">
     <g id="line2d_3">
      <defs>
       <path id="m386a8584c2" d="M 0 0 
L -3.5 0 
" style="stroke: #000000; stroke-width: 0.8"/>
      </defs>
      <g>
       <use xlink:href="#m386a8584c2" x="57.6" y="269.96853" style="stroke: #000000; stroke-width: 0.8"/>
      </g>
     </g>
     <g id="text_4">
      <!-- 0.004 -->
      <g transform="translate(21.971875 273.767749) scale(0.1 -0.1)">
       <defs>
        <path id="DejaVuSans-30" d="M 2034 4250 
Q 1547 4250 1301 3770 
Q 1056 3291 1056 2328 
Q 1056 1369 1301 889 
Q 1547 409 2034 409 
Q 2525 409 2770 889 
Q 3016 1369 3016 2328 
Q 3016 3291 2770 3770 
Q 2525 4250 2034 4250 
z
M 2034 4750 
Q 2819 4750 3233 4129 
Q 3647 3509 3647 2328 
Q 3647 1150 3233 529 
Q 2819 -91 2034 -91 
Q 1250 -91 836 529 
Q 422 1150 422 2328 
Q 422 3509 836 4129 
Q 1250 4750 2034 4750 
z
" transform="scale(0.015625)"/>
        <path id="DejaVuSans-2e" d="M 684 794 
L 1344 794 
L 1344 0 
L 684 0 
L 684 794 
z
" transform="scale(0.015625)"/>
        <path id="DejaVuSans-34" d="M 2419 4116 
L 825 1625 
L 2419 1625 
L 2419 4116 
z
M 2253 4666 
L 3047 4666 
L 3047 1625 
L 3713 1625 
L 3713 1100 
L 3047 1100 
L 3047 0 
L 2419 0 
L 2419 1100 
L 313 1100 
L 313 1709 
L 2253 4666 
z
" transform="scale(0.015625)"/>
       </defs>
       <use xlink:href="#DejaVuSans-30"/>
       <use xlink:href="#DejaVuSans-2e" x="63.623047"/>
       <use xlink:href="#DejaVuSans-30" x="95.410156"/>
       <use xlink:href="#DejaVuSans-30" x="159.033203"/>
       <use xlink:href="#DejaVuSans-34" x="222.65625"/>
      </g>
     </g>
    </g>
    <g id="ytick_2">
     <g id="line2d_4">
      <g>
       <use xlink:href="#m386a8584c2" x="57.6" y="231.822834" style="stroke: #000000; stroke-width: 0.8"/>
      </g>
     </g>
     <g id="text_5">
      <!-- 0.006 -->
      <g transform="translate(21.971875 235.622053) scale(0.1 -0.1)">
       <defs>
        <path id="DejaVuSans-36" d="M 2113 2584 
Q 1688 2584 1439 2293 
Q 1191 2003 1191 1497 
Q 1191 994 1439 701 
Q 1688 409 2113 409 
Q 2538 409 2786 701 
Q 3034 994 3034 1497 
Q 3034 2003 2786 2293 
Q 2538 2584 2113 2584 
z
M 3366 4563 
L 3366 3988 
Q 3128 4100 2886 4159 
Q 2644 4219 2406 4219 
Q 1781 4219 1451 3797 
Q 1122 3375 1075 2522 
Q 1259 2794 1537 2939 
Q 1816 3084 2150 3084 
Q 2853 3084 3261 2657 
Q 3669 2231 3669 1497 
Q 3669 778 3244 343 
Q 2819 -91 2113 -91 
Q 1303 -91 875 529 
Q 447 1150 447 2328 
Q 447 3434 972 4092 
Q 1497 4750 2381 4750 
Q 2619 4750 2861 4703 
Q 3103 4656 3366 4563 
z
" transform="scale(0.015625)"/>
       </defs>
       <use xlink:href="#DejaVuSans-30"/>
       <use xlink:href="#DejaVuSans-2e" x="63.623047"/>
       <use xlink:href="#DejaVuSans-30" x="95.410156"/>
       <use xlink:href="#DejaVuSans-30" x="159.033203"/>
       <use xlink:href="#DejaVuSans-36" x="222.65625"/>
      </g>
     </g>
    </g>
    <g id="ytick_3">
     <g id="line2d_5">
      <g>
       <use xlink:href="#m386a8584c2" x="57.6" y="193.677139" style="stroke: #000000; stroke-width: 0.8"/>
      </g>
     </g>
     <g id="text_6">
      <!-- 0.008 -->
      <g transform="translate(21.971875 197.476358) scale(0.1 -0.1)">
       <defs>
        <path id="DejaVuSans-38" d="M 2034 2216 
Q 1584 2216 1326 1975 
Q 1069 1734 1069 1313 
Q 1069 891 1326 650 
Q 1584 409 2034 409 
Q 2484 409 2743 651 
Q 3003 894 3003 1313 
Q 3003 1734 2745 1975 
Q 2488 2216 2034 2216 
z
M 1403 2484 
Q 997 2584 770 2862 
Q 544 3141 544 3541 
Q 544 4100 942 4425 
Q 1341 4750 2034 4750 
Q 2731 4750 3128 4425 
Q 3525 4100 3525 3541 
Q 3525 3141 3298 2862 
Q 3072 2584 2669 2484 
Q 3125 2378 3379 2068 
Q 3634 1759 3634 1313 
Q 3634 634 3220 271 
Q 2806 -91 2034 -91 
Q 1263 -91 848 271 
Q 434 634 434 1313 
Q 434 1759 690 2068 
Q 947 2378 1403 2484 
z
M 1172 3481 
Q 1172 3119 1398 2916 
Q 1625 2713 2034 2713 
Q 2441 2713 2670 2916 
Q 2900 3119 2900 3481 
Q 2900 3844 2670 4047 
Q 2441 4250 2034 4250 
Q 1625 4250 1398 4047 
Q 1172 3844 1172 3481 
z
" transform="scale(0.015625)"/>
       </defs>
       <use xlink:href="#DejaVuSans-30"/>
       <use xlink:href="#DejaVuSans-2e" x="63.623047"/>
       <use xlink:href="#DejaVuSans-30" x="95.410156"/>
       <use xlink:href="#DejaVuSans-30" x="159.033203"/>
       <use xlink:href="#DejaVuSans-38" x="222.65625"/>
      </g>
     </g>
    </g>
    <g id="ytick_4">
     <g id="line2d_6">
      <g>
       <use xlink:href="#m386a8584c2" x="57.6" y="155.531444" style="stroke: #000000; stroke-width: 0.8"/>
      </g>
     </g>
     <g id="text_7">
      <!-- 0.010 -->
      <g transform="translate(21.971875 159.330662) scale(0.1 -0.1)">
       <defs>
        <path id="DejaVuSans-31" d="M 794 531 
L 1825 531 
L 1825 4091 
L 703 3866 
L 703 4441 
L 1819 4666 
L 2450 4666 
L 2450 531 
L 3481 531 
L 3481 0 
L 794 0 
L 794 531 
z
" transform="scale(0.015625)"/>
       </defs>
       <use xlink:href="#DejaVuSans-30"/>
       <use xlink:href="#DejaVuSans-2e" x="63.623047"/>
       <use xlink:href="#DejaVuSans-30" x="95.410156"/>
       <use xlink:href="#DejaVuSans-31" x="159.033203"/>
       <use xlink:href="#DejaVuSans-30" x="222.65625"/>
      </g>
     </g>
    </g>
    <g id="ytick_5">
     <g id="line2d_7">
      <g>
       <use xlink:href="#m386a8584c2" x="57.6" y="117.385748" style="stroke: #000000; stroke-width: 0.8"/>
      </g>
     </g>
     <g id="text_8">
      <!-- 0.012 -->
      <g transform="translate(21.971875 121.184967) scale(0.1 -0.1)">
       <defs>
        <path id="DejaVuSans-32" d="M 1228 531 
L 3431 531 
L 3431 0 
L 469 0 
L 469 531 
Q 828 903 1448 1529 
Q 2069 2156 2228 2338 
Q 2531 2678 2651 2914 
Q 2772 3150 2772 3378 
Q 2772 3750 2511 3984 
Q 2250 4219 1831 4219 
Q 1534 4219 1204 4116 
Q 875 4013 500 3803 
L 500 4441 
Q 881 4594 1212 4672 
Q 1544 4750 1819 4750 
Q 2544 4750 2975 4387 
Q 3406 4025 3406 3419 
Q 3406 3131 3298 2873 
Q 3191 2616 2906 2266 
Q 2828 2175 2409 1742 
Q 1991 1309 1228 531 
z
" transform="scale(0.015625)"/>
       </defs>
       <use xlink:href="#DejaVuSans-30"/>
       <use xlink:href="#DejaVuSans-2e" x="63.623047"/>
       <use xlink:href="#DejaVuSans-30" x="95.410156"/>
       <use xlink:href="#DejaVuSans-31" x="159.033203"/>
       <use xlink:href="#DejaVuSans-32" x="222.65625"/>
      </g>
     </g>
    </g>
    <g id="ytick_6">
     <g id="line2d_8">
      <g>
       <use xlink:href="#m386a8584c2" x="57.6" y="79.240053" style="stroke: #000000; stroke-width: 0.8"/>
      </g>
     </g>
     <g id="text_9">
      <!-- 0.014 -->
      <g transform="translate(21.971875 83.039272) scale(0.1 -0.1)">
       <use xlink:href="#DejaVuSans-30"/>
       <use xlink:href="#DejaVuSans-2e" x="63.623047"/>
       <use xlink:href="#DejaVuSans-30" x="95.410156"/>
       <use xlink:href="#DejaVuSans-31" x="159.033203"/>
       <use xlink:href="#DejaVuSans-34" x="222.65625"/>
      </g>
     </g>
    </g>
    <g id="text_10">
     <!-- time [s] -->
     <g transform="translate(15.892187 193.919406) rotate(-90) scale(0.1 -0.1)">
      <defs>
       <path id="DejaVuSans-74" d="M 1172 4494 
L 1172 3500 
L 2356 3500 
L 2356 3053 
L 1172 3053 
L 1172 1153 
Q 1172 725 1289 603 
Q 1406 481 1766 481 
L 2356 481 
L 2356 0 
L 1766 0 
Q 1100 0 847 248 
Q 594 497 594 1153 
L 594 3053 
L 172 3053 
L 172 3500 
L 594 3500 
L 594 4494 
L 1172 4494 
z
" transform="scale(0.015625)"/>
       <path id="DejaVuSans-69" d="M 603 3500 
L 1178 3500 
L 1178 0 
L 603 0 
L 603 3500 
z
M 603 4863 
L 1178 4863 
L 1178 4134 
L 603 4134 
L 603 4863 
z
" transform="scale(0.015625)"/>
       <path id="DejaVuSans-20" transform="scale(0.015625)"/>
       <path id="DejaVuSans-5b" d="M 550 4863 
L 1875 4863 
L 1875 4416 
L 1125 4416 
L 1125 -397 
L 1875 -397 
L 1875 -844 
L 550 -844 
L 550 4863 
z
" transform="scale(0.015625)"/>
       <path id="DejaVuSans-5d" d="M 1947 4863 
L 1947 -844 
L 622 -844 
L 622 -397 
L 1369 -397 
L 1369 4416 
L 622 4416 
L 622 4863 
L 1947 4863 
z
" transform="scale(0.015625)"/>
      </defs>
      <use xlink:href="#DejaVuSans-74"/>
      <use xlink:href="#DejaVuSans-69" x="39.208984"/>
      <use xlink:href="#DejaVuSans-6d" x="66.992188"/>
      <use xlink:href="#DejaVuSans-65" x="164.404297"/>
      <use xlink:href="#DejaVuSans-20" x="225.927734"/>
      <use xlink:href="#DejaVuSans-5b" x="257.714844"/>
      <use xlink:href="#DejaVuSans-73" x="296.728516"/>
      <use xlink:href="#DejaVuSans-5d" x="348.828125"/>
     </g>
    </g>
   </g>
   <g id="LineCollection_1">
    <path d="M 100.887273 250.399788 
L 154.996364 250.399788 
" clip-path="url(#p8530ff788e)" style="fill: none; stroke: #1f77b4; stroke-width: 1.5"/>
    <path d="M 317.323636 53.568 
L 371.432727 53.568 
" clip-path="url(#p8530ff788e)" style="fill: none; stroke: #1f77b4; stroke-width: 1.5"/>
   </g>
   <g id="LineCollection_2">
    <path d="M 100.887273 295.488 
L 154.996364 295.488 
" clip-path="url(#p8530ff788e)" style="fill: none; stroke: #1f77b4; stroke-width: 1.5"/>
    <path d="M 317.323636 237.258596 
L 371.432727 237.258596 
" clip-path="url(#p8530ff788e)" style="fill: none; stroke: #1f77b4; stroke-width: 1.5"/>
   </g>
   <g id="LineCollection_3">
    <path d="M 127.941818 295.488 
L 127.941818 250.399788 
" clip-path="url(#p8530ff788e)" style="fill: none; stroke: #1f77b4; stroke-width: 1.5"/>
    <path d="M 344.378182 237.258596 
L 344.378182 53.568 
" clip-path="url(#p8530ff788e)" style="fill: none; stroke: #1f77b4; stroke-width: 1.5"/>
   </g>
   <g id="patch_3">
    <path d="M 57.6 307.584 
L 57.6 41.472 
" style="fill: none; stroke: #000000; stroke-width: 0.8; stroke-linejoin: miter; stroke-linecap: square"/>
   </g>
   <g id="patch_4">
    <path d="M 414.72 307.584 
L 414.72 41.472 
" style="fill: none; stroke: #000000; stroke-width: 0.8; stroke-linejoin: miter; stroke-linecap: square"/>
   </g>
   <g id="patch_5">
    <path d="M 57.6 307.584 
L 414.72 307.584 
" style="fill: none; stroke: #000000; stroke-width: 0.8; stroke-linejoin: miter; stroke-linecap: square"/>
   </g>
   <g id="patch_6">
    <path d="M 57.6 41.472 
L 414.72 41.472 
" style="fill: none; stroke: #000000; stroke-width: 0.8; stroke-linejoin: miter; stroke-linecap: square"/>
   </g>
  </g>
 </g>
 <defs>
  <clipPath id="p8530ff788e">
   <rect x="57.6" y="41.472" width="357.12" height="266.112"/>
  </clipPath>
 </defs>
</svg>
