<?xml version="1.0" encoding="utf-8" standalone="no"?>
<!DOCTYPE svg PUBLIC "-//W3C//DTD SVG 1.1//EN"
  "http://www.w3.org/Graphics/SVG/1.1/DTD/svg11.dtd">
<svg xmlns:xlink="http://www.w3.org/1999/xlink" width="460.8pt" height="345.6pt" viewBox="0 0 460.8 345.6" xmlns="http://www.w3.org/2000/svg" version="1.1">
 <metadata>
  <rdf:RDF xmlns:dc="http://purl.org/dc/elements/1.1/" xmlns:cc="http://creativecommons.org/ns#" xmlns:rdf="http://www.w3.org/1999/02/22-rdf-syntax-ns#">
   <cc:Work>
    <dc:type rdf:resource="http://purl.org/dc/dcmitype/StillImage"/>
    <dc:date>2024-01-08T18:12:24.906646</dc:date>
    <dc:format>image/svg+xml</dc:format>
    <dc:creator>
     <cc:Agent>
      <dc:title>Matplotlib v3.7.0, https://matplotlib.org/</dc:title>
     </cc:Agent>
    </dc:creator>
   </cc:Work>
  </rdf:RDF>
 </metadata>
 <defs>
  <style type="text/css">*{stroke-linejoin: round; stroke-linecap: butt}</style>
 </defs>
 <g id="figure_1">
  <g id="patch_1">
   <path d="M 0 345.6 
L 460.8 345.6 
L 460.8 0 
L 0 0 
z
" style="fill: #ffffff"/>
  </g>
  <g id="axes_1">
   <g id="patch_2">
    <path d="M 57.6 307.584 
L 414.72 307.584 
L 414.72 41.472 
L 57.6 41.472 
z
" style="fill: #ffffff"/>
   </g>
   <g id="PolyCollection_1">
    <path d="M 73.832727 279.677116 
L 73.832727 279.677116 
L 75.496201 274.889507 
L 77.159674 268.993591 
L 78.823147 261.767097 
L 80.486621 252.970909 
L 82.150094 242.383821 
L 83.813567 229.852065 
L 85.199795 215.345059 
L 86.863268 199.003714 
L 88.526742 181.166156 
L 90.190215 162.359688 
L 91.853688 143.256784 
L 93.517162 124.603757 
L 95.180635 107.138889 
L 96.844108 91.518465 
L 98.230336 78.263879 
L 99.893809 67.733701 
L 101.557283 60.116466 
L 103.220756 55.43661 
L 104.884229 53.568 
L 106.547703 54.254019 
L 108.211176 57.136362 
L 109.874649 61.794048 
L 111.538123 67.790246 
L 112.924351 74.719745 
L 114.587824 82.247384 
L 116.251297 90.12887 
L 117.914771 98.209922 
L 119.578244 106.405785 
L 121.241717 114.668705 
L 122.905191 122.95428 
L 124.568664 131.197501 
L 125.954892 139.305922 
L 127.618365 147.171408 
L 129.281838 154.695348 
L 130.945312 161.817301 
L 132.608785 168.535761 
L 134.272258 174.912719 
L 135.935732 181.059714 
L 137.599205 187.109595 
L 139.262678 193.182537 
L 140.648906 199.355578 
L 142.312379 205.642467 
L 143.975853 211.986767 
L 145.639326 218.267983 
L 147.302799 224.318885 
L 148.966273 229.951692 
L 150.629746 234.990219 
L 152.293219 239.303571 
L 153.679447 242.834948 
L 155.342921 245.617946 
L 157.006394 247.774047 
L 158.669867 249.489313 
L 160.333341 250.974527 
L 161.996814 252.418804 
L 163.660287 253.9495 
L 165.323761 255.609586 
L 166.987234 257.358065 
L 168.373462 259.091718 
L 170.036935 260.680152 
L 171.700408 262.003186 
L 173.363882 262.980546 
L 175.027355 263.587684 
L 176.690828 263.856447 
L 178.354302 263.863345 
L 180.017775 263.710381 
L 181.404003 263.503692 
L 183.067476 263.334398 
L 184.730949 263.264803 
L 186.394423 263.321838 
L 188.057896 263.498489 
L 189.721369 263.762457 
L 191.384843 264.069713 
L 193.048316 264.379104 
L 194.434544 264.663734 
L 196.098017 264.915895 
L 197.761491 265.144812 
L 199.424964 265.36941 
L 201.088437 265.610284 
L 202.751911 265.885002 
L 204.415384 266.20876 
L 206.078857 266.599269 
L 207.742331 267.08234 
L 209.128558 267.694034 
L 210.792032 268.476831 
L 212.455505 269.470016 
L 214.118978 270.69711 
L 215.782452 272.154496 
L 217.445925 273.805085 
L 219.109398 275.579379 
L 220.772872 277.384249 
L 222.159099 279.1178 
L 223.822573 280.687281 
L 225.486046 282.026096 
L 227.149519 283.105931 
L 228.812993 283.94089 
L 230.476466 284.582297 
L 232.139939 285.105297 
L 233.803413 285.590702 
L 235.466886 286.106967 
L 236.853114 286.697071 
L 238.516587 287.37333 
L 240.180061 288.120483 
L 241.843534 288.904715 
L 243.507007 289.68479 
L 245.170481 290.421506 
L 246.833954 291.08322 
L 248.497427 291.647248 
L 249.883655 292.098602 
L 251.547128 292.428134 
L 253.210602 292.631556 
L 254.874075 292.709632 
L 256.537548 292.66882 
L 258.201022 292.521253 
L 259.864495 292.283455 
L 261.527968 291.974038 
L 263.191442 291.611343 
L 264.577669 291.212026 
L 266.241143 290.790997 
L 267.904616 290.362204 
L 269.568089 289.93915 
L 271.231563 289.534166 
L 272.895036 289.15623 
L 274.558509 288.808218 
L 276.221983 288.485091 
L 277.608211 288.174405 
L 279.271684 287.859585 
L 280.935157 287.525164 
L 282.598631 287.162233 
L 284.262104 286.772215 
L 285.925577 286.367742 
L 287.589051 285.970585 
L 289.252524 285.607627 
L 290.915997 285.306387 
L 292.302225 285.091358 
L 293.965698 284.981759 
L 295.629172 284.990581 
L 297.292645 285.124331 
L 298.956118 285.382916 
L 300.619592 285.759435 
L 302.283065 286.240054 
L 303.946538 286.804448 
L 305.332766 287.427248 
L 306.996239 288.080644 
L 308.659713 288.737704 
L 310.323186 289.375512 
L 311.986659 289.976971 
L 313.650133 290.53048 
L 315.313606 291.027462 
L 316.977079 291.458813 
L 318.640553 291.811996 
L 320.026781 292.070529 
L 321.690254 292.216711 
L 323.353727 292.237036 
L 325.017201 292.128405 
L 326.680674 291.902687 
L 328.344147 291.587592 
L 330.007621 291.223175 
L 331.671094 290.854904 
L 333.057322 290.525462 
L 334.720795 290.267804 
L 336.384268 290.101417 
L 338.047742 290.032466 
L 339.711215 290.057205 
L 341.374688 290.166985 
L 343.038162 290.35291 
L 344.701635 290.608487 
L 346.087863 290.929522 
L 347.751336 291.311615 
L 349.414809 291.746552 
L 351.078283 292.21935 
L 352.741756 292.707473 
L 354.405229 293.182862 
L 356.068703 293.616349 
L 357.732176 293.983118 
L 359.395649 294.267528 
L 360.781877 294.465916 
L 362.445351 294.586677 
L 364.108824 294.64774 
L 365.772297 294.672199 
L 367.435771 294.683251 
L 369.099244 294.699584 
L 370.762717 294.732219 
L 372.426191 294.783346 
L 373.812418 294.84723 
L 375.475892 294.91278 
L 377.139365 294.967047 
L 378.802838 294.998794 
L 380.466312 295.001397 
L 382.129785 294.974536 
L 383.793258 294.924427 
L 385.456732 294.862594 
L 387.120205 294.803468 
L 388.506433 294.761309 
L 390.169906 294.747186 
L 391.833379 294.76673 
L 393.496853 294.81925 
L 395.160326 294.898388 
L 396.823799 294.994021 
L 398.487273 295.094782 
L 398.487273 295.094782 
L 398.487273 295.488 
L 396.823799 295.488 
L 395.160326 295.488 
L 393.496853 295.488 
L 391.833379 295.488 
L 390.169906 295.488 
L 388.506433 295.488 
L 387.120205 295.488 
L 385.456732 295.488 
L 383.793258 295.488 
L 382.129785 295.488 
L 380.466312 295.488 
L 378.802838 295.488 
L 377.139365 295.488 
L 375.475892 295.488 
L 373.812418 295.488 
L 372.426191 295.488 
L 370.762717 295.488 
L 369.099244 295.488 
L 367.435771 295.488 
L 365.772297 295.488 
L 364.108824 295.488 
L 362.445351 295.488 
L 360.781877 295.488 
L 359.395649 295.488 
L 357.732176 295.488 
L 356.068703 295.488 
L 354.405229 295.488 
L 352.741756 295.488 
L 351.078283 295.488 
L 349.414809 295.488 
L 347.751336 295.488 
L 346.087863 295.488 
L 344.701635 295.488 
L 343.038162 295.488 
L 341.374688 295.488 
L 339.711215 295.488 
L 338.047742 295.488 
L 336.384268 295.488 
L 334.720795 295.488 
L 333.057322 295.488 
L 331.671094 295.488 
L 330.007621 295.488 
L 328.344147 295.488 
L 326.680674 295.488 
L 325.017201 295.488 
L 323.353727 295.488 
L 321.690254 295.488 
L 320.026781 295.488 
L 318.640553 295.488 
L 316.977079 295.488 
L 315.313606 295.488 
L 313.650133 295.488 
L 311.986659 295.488 
L 310.323186 295.488 
L 308.659713 295.488 
L 306.996239 295.488 
L 305.332766 295.488 
L 303.946538 295.488 
L 302.283065 295.488 
L 300.619592 295.488 
L 298.956118 295.488 
L 297.292645 295.488 
L 295.629172 295.488 
L 293.965698 295.488 
L 292.302225 295.488 
L 290.915997 295.488 
L 289.252524 295.488 
L 287.589051 295.488 
L 285.925577 295.488 
L 284.262104 295.488 
L 282.598631 295.488 
L 280.935157 295.488 
L 279.271684 295.488 
L 277.608211 295.488 
L 276.221983 295.488 
L 274.558509 295.488 
L 272.895036 295.488 
L 271.231563 295.488 
L 269.568089 295.488 
L 267.904616 295.488 
L 266.241143 295.488 
L 264.577669 295.488 
L 263.191442 295.488 
L 261.527968 295.488 
L 259.864495 295.488 
L 258.201022 295.488 
L 256.537548 295.488 
L 254.874075 295.488 
L 253.210602 295.488 
L 251.547128 295.488 
L 249.883655 295.488 
L 248.497427 295.488 
L 246.833954 295.488 
L 245.170481 295.488 
L 243.507007 295.488 
L 241.843534 295.488 
L 240.180061 295.488 
L 238.516587 295.488 
L 236.853114 295.488 
L 235.466886 295.488 
L 233.803413 295.488 
L 232.139939 295.488 
L 230.476466 295.488 
L 228.812993 295.488 
L 227.149519 295.488 
L 225.486046 295.488 
L 223.822573 295.488 
L 222.159099 295.488 
L 220.772872 295.488 
L 219.109398 295.488 
L 217.445925 295.488 
L 215.782452 295.488 
L 214.118978 295.488 
L 212.455505 295.488 
L 210.792032 295.488 
L 209.128558 295.488 
L 207.742331 295.488 
L 206.078857 295.488 
L 204.415384 295.488 
L 202.751911 295.488 
L 201.088437 295.488 
L 199.424964 295.488 
L 197.761491 295.488 
L 196.098017 295.488 
L 194.434544 295.488 
L 193.048316 295.488 
L 191.384843 295.488 
L 189.721369 295.488 
L 188.057896 295.488 
L 186.394423 295.488 
L 184.730949 295.488 
L 183.067476 295.488 
L 181.404003 295.488 
L 180.017775 295.488 
L 178.354302 295.488 
L 176.690828 295.488 
L 175.027355 295.488 
L 173.363882 295.488 
L 171.700408 295.488 
L 170.036935 295.488 
L 168.373462 295.488 
L 166.987234 295.488 
L 165.323761 295.488 
L 163.660287 295.488 
L 161.996814 295.488 
L 160.333341 295.488 
L 158.669867 295.488 
L 157.006394 295.488 
L 155.342921 295.488 
L 153.679447 295.488 
L 152.293219 295.488 
L 150.629746 295.488 
L 148.966273 295.488 
L 147.302799 295.488 
L 145.639326 295.488 
L 143.975853 295.488 
L 142.312379 295.488 
L 140.648906 295.488 
L 139.262678 295.488 
L 137.599205 295.488 
L 135.935732 295.488 
L 134.272258 295.488 
L 132.608785 295.488 
L 130.945312 295.488 
L 129.281838 295.488 
L 127.618365 295.488 
L 125.954892 295.488 
L 124.568664 295.488 
L 122.905191 295.488 
L 121.241717 295.488 
L 119.578244 295.488 
L 117.914771 295.488 
L 116.251297 295.488 
L 114.587824 295.488 
L 112.924351 295.488 
L 111.538123 295.488 
L 109.874649 295.488 
L 108.211176 295.488 
L 106.547703 295.488 
L 104.884229 295.488 
L 103.220756 295.488 
L 101.557283 295.488 
L 99.893809 295.488 
L 98.230336 295.488 
L 96.844108 295.488 
L 95.180635 295.488 
L 93.517162 295.488 
L 91.853688 295.488 
L 90.190215 295.488 
L 88.526742 295.488 
L 86.863268 295.488 
L 85.199795 295.488 
L 83.813567 295.488 
L 82.150094 295.488 
L 80.486621 295.488 
L 78.823147 295.488 
L 77.159674 295.488 
L 75.496201 295.488 
L 73.832727 295.488 
z
" clip-path="url(#p33aebac2f7)" style="fill: #1f77b4; fill-opacity: 0.25"/>
   </g>
   <g id="matplotlib.axis_1">
    <g id="xtick_1">
     <g id="line2d_1">
      <defs>
       <path id="me4a680d168" d="M 0 0 
L 0 3.5 
" style="stroke: #000000; stroke-width: 0.8"/>
      </defs>
      <g>
       <use xlink:href="#me4a680d168" x="98.784827" y="307.584" style="stroke: #000000; stroke-width: 0.8"/>
      </g>
     </g>
     <g id="text_1">
      <!-- 0.0044 -->
      <g transform="translate(81.289515 322.182437) scale(0.1 -0.1)">
       <defs>
        <path id="DejaVuSans-30" d="M 2034 4250 
Q 1547 4250 1301 3770 
Q 1056 3291 1056 2328 
Q 1056 1369 1301 889 
Q 1547 409 2034 409 
Q 2525 409 2770 889 
Q 3016 1369 3016 2328 
Q 3016 3291 2770 3770 
Q 2525 4250 2034 4250 
z
M 2034 4750 
Q 2819 4750 3233 4129 
Q 3647 3509 3647 2328 
Q 3647 1150 3233 529 
Q 2819 -91 2034 -91 
Q 1250 -91 836 529 
Q 422 1150 422 2328 
Q 422 3509 836 4129 
Q 1250 4750 2034 4750 
z
" transform="scale(0.015625)"/>
        <path id="DejaVuSans-2e" d="M 684 794 
L 1344 794 
L 1344 0 
L 684 0 
L 684 794 
z
" transform="scale(0.015625)"/>
        <path id="DejaVuSans-34" d="M 2419 4116 
L 825 1625 
L 2419 1625 
L 2419 4116 
z
M 2253 4666 
L 3047 4666 
L 3047 1625 
L 3713 1625 
L 3713 1100 
L 3047 1100 
L 3047 0 
L 2419 0 
L 2419 1100 
L 313 1100 
L 313 1709 
L 2253 4666 
z
" transform="scale(0.015625)"/>
       </defs>
       <use xlink:href="#DejaVuSans-30"/>
       <use xlink:href="#DejaVuSans-2e" x="63.623047"/>
       <use xlink:href="#DejaVuSans-30" x="95.410156"/>
       <use xlink:href="#DejaVuSans-30" x="159.033203"/>
       <use xlink:href="#DejaVuSans-34" x="222.65625"/>
       <use xlink:href="#DejaVuSans-34" x="286.279297"/>
      </g>
     </g>
    </g>
    <g id="xtick_2">
     <g id="line2d_2">
      <g>
       <use xlink:href="#me4a680d168" x="154.233938" y="307.584" style="stroke: #000000; stroke-width: 0.8"/>
      </g>
     </g>
     <g id="text_2">
      <!-- 0.0046 -->
      <g transform="translate(136.738626 322.182437) scale(0.1 -0.1)">
       <defs>
        <path id="DejaVuSans-36" d="M 2113 2584 
Q 1688 2584 1439 2293 
Q 1191 2003 1191 1497 
Q 1191 994 1439 701 
Q 1688 409 2113 409 
Q 2538 409 2786 701 
Q 3034 994 3034 1497 
Q 3034 2003 2786 2293 
Q 2538 2584 2113 2584 
z
M 3366 4563 
L 3366 3988 
Q 3128 4100 2886 4159 
Q 2644 4219 2406 4219 
Q 1781 4219 1451 3797 
Q 1122 3375 1075 2522 
Q 1259 2794 1537 2939 
Q 1816 3084 2150 3084 
Q 2853 3084 3261 2657 
Q 3669 2231 3669 1497 
Q 3669 778 3244 343 
Q 2819 -91 2113 -91 
Q 1303 -91 875 529 
Q 447 1150 447 2328 
Q 447 3434 972 4092 
Q 1497 4750 2381 4750 
Q 2619 4750 2861 4703 
Q 3103 4656 3366 4563 
z
" transform="scale(0.015625)"/>
       </defs>
       <use xlink:href="#DejaVuSans-30"/>
       <use xlink:href="#DejaVuSans-2e" x="63.623047"/>
       <use xlink:href="#DejaVuSans-30" x="95.410156"/>
       <use xlink:href="#DejaVuSans-30" x="159.033203"/>
       <use xlink:href="#DejaVuSans-34" x="222.65625"/>
       <use xlink:href="#DejaVuSans-36" x="286.279297"/>
      </g>
     </g>
    </g>
    <g id="xtick_3">
     <g id="line2d_3">
      <g>
       <use xlink:href="#me4a680d168" x="209.683049" y="307.584" style="stroke: #000000; stroke-width: 0.8"/>
      </g>
     </g>
     <g id="text_3">
      <!-- 0.0048 -->
      <g transform="translate(192.187737 322.182437) scale(0.1 -0.1)">
       <defs>
        <path id="DejaVuSans-38" d="M 2034 2216 
Q 1584 2216 1326 1975 
Q 1069 1734 1069 1313 
Q 1069 891 1326 650 
Q 1584 409 2034 409 
Q 2484 409 2743 651 
Q 3003 894 3003 1313 
Q 3003 1734 2745 1975 
Q 2488 2216 2034 2216 
z
M 1403 2484 
Q 997 2584 770 2862 
Q 544 3141 544 3541 
Q 544 4100 942 4425 
Q 1341 4750 2034 4750 
Q 2731 4750 3128 4425 
Q 3525 4100 3525 3541 
Q 3525 3141 3298 2862 
Q 3072 2584 2669 2484 
Q 3125 2378 3379 2068 
Q 3634 1759 3634 1313 
Q 3634 634 3220 271 
Q 2806 -91 2034 -91 
Q 1263 -91 848 271 
Q 434 634 434 1313 
Q 434 1759 690 2068 
Q 947 2378 1403 2484 
z
M 1172 3481 
Q 1172 3119 1398 2916 
Q 1625 2713 2034 2713 
Q 2441 2713 2670 2916 
Q 2900 3119 2900 3481 
Q 2900 3844 2670 4047 
Q 2441 4250 2034 4250 
Q 1625 4250 1398 4047 
Q 1172 3844 1172 3481 
z
" transform="scale(0.015625)"/>
       </defs>
       <use xlink:href="#DejaVuSans-30"/>
       <use xlink:href="#DejaVuSans-2e" x="63.623047"/>
       <use xlink:href="#DejaVuSans-30" x="95.410156"/>
       <use xlink:href="#DejaVuSans-30" x="159.033203"/>
       <use xlink:href="#DejaVuSans-34" x="222.65625"/>
       <use xlink:href="#DejaVuSans-38" x="286.279297"/>
      </g>
     </g>
    </g>
    <g id="xtick_4">
     <g id="line2d_4">
      <g>
       <use xlink:href="#me4a680d168" x="265.132161" y="307.584" style="stroke: #000000; stroke-width: 0.8"/>
      </g>
     </g>
     <g id="text_4">
      <!-- 0.0050 -->
      <g transform="translate(247.636848 322.182437) scale(0.1 -0.1)">
       <defs>
        <path id="DejaVuSans-35" d="M 691 4666 
L 3169 4666 
L 3169 4134 
L 1269 4134 
L 1269 2991 
Q 1406 3038 1543 3061 
Q 1681 3084 1819 3084 
Q 2600 3084 3056 2656 
Q 3513 2228 3513 1497 
Q 3513 744 3044 326 
Q 2575 -91 1722 -91 
Q 1428 -91 1123 -41 
Q 819 9 494 109 
L 494 744 
Q 775 591 1075 516 
Q 1375 441 1709 441 
Q 2250 441 2565 725 
Q 2881 1009 2881 1497 
Q 2881 1984 2565 2268 
Q 2250 2553 1709 2553 
Q 1456 2553 1204 2497 
Q 953 2441 691 2322 
L 691 4666 
z
" transform="scale(0.015625)"/>
       </defs>
       <use xlink:href="#DejaVuSans-30"/>
       <use xlink:href="#DejaVuSans-2e" x="63.623047"/>
       <use xlink:href="#DejaVuSans-30" x="95.410156"/>
       <use xlink:href="#DejaVuSans-30" x="159.033203"/>
       <use xlink:href="#DejaVuSans-35" x="222.65625"/>
       <use xlink:href="#DejaVuSans-30" x="286.279297"/>
      </g>
     </g>
    </g>
    <g id="xtick_5">
     <g id="line2d_5">
      <g>
       <use xlink:href="#me4a680d168" x="320.581272" y="307.584" style="stroke: #000000; stroke-width: 0.8"/>
      </g>
     </g>
     <g id="text_5">
      <!-- 0.0052 -->
      <g transform="translate(303.085959 322.182437) scale(0.1 -0.1)">
       <defs>
        <path id="DejaVuSans-32" d="M 1228 531 
L 3431 531 
L 3431 0 
L 469 0 
L 469 531 
Q 828 903 1448 1529 
Q 2069 2156 2228 2338 
Q 2531 2678 2651 2914 
Q 2772 3150 2772 3378 
Q 2772 3750 2511 3984 
Q 2250 4219 1831 4219 
Q 1534 4219 1204 4116 
Q 875 4013 500 3803 
L 500 4441 
Q 881 4594 1212 4672 
Q 1544 4750 1819 4750 
Q 2544 4750 2975 4387 
Q 3406 4025 3406 3419 
Q 3406 3131 3298 2873 
Q 3191 2616 2906 2266 
Q 2828 2175 2409 1742 
Q 1991 1309 1228 531 
z
" transform="scale(0.015625)"/>
       </defs>
       <use xlink:href="#DejaVuSans-30"/>
       <use xlink:href="#DejaVuSans-2e" x="63.623047"/>
       <use xlink:href="#DejaVuSans-30" x="95.410156"/>
       <use xlink:href="#DejaVuSans-30" x="159.033203"/>
       <use xlink:href="#DejaVuSans-35" x="222.65625"/>
       <use xlink:href="#DejaVuSans-32" x="286.279297"/>
      </g>
     </g>
    </g>
    <g id="xtick_6">
     <g id="line2d_6">
      <g>
       <use xlink:href="#me4a680d168" x="376.030383" y="307.584" style="stroke: #000000; stroke-width: 0.8"/>
      </g>
     </g>
     <g id="text_6">
      <!-- 0.0054 -->
      <g transform="translate(358.53507 322.182437) scale(0.1 -0.1)">
       <use xlink:href="#DejaVuSans-30"/>
       <use xlink:href="#DejaVuSans-2e" x="63.623047"/>
       <use xlink:href="#DejaVuSans-30" x="95.410156"/>
       <use xlink:href="#DejaVuSans-30" x="159.033203"/>
       <use xlink:href="#DejaVuSans-35" x="222.65625"/>
       <use xlink:href="#DejaVuSans-34" x="286.279297"/>
      </g>
     </g>
    </g>
    <g id="text_7">
     <!-- time [s] -->
     <g transform="translate(216.768594 335.860562) scale(0.1 -0.1)">
      <defs>
       <path id="DejaVuSans-74" d="M 1172 4494 
L 1172 3500 
L 2356 3500 
L 2356 3053 
L 1172 3053 
L 1172 1153 
Q 1172 725 1289 603 
Q 1406 481 1766 481 
L 2356 481 
L 2356 0 
L 1766 0 
Q 1100 0 847 248 
Q 594 497 594 1153 
L 594 3053 
L 172 3053 
L 172 3500 
L 594 3500 
L 594 4494 
L 1172 4494 
z
" transform="scale(0.015625)"/>
       <path id="DejaVuSans-69" d="M 603 3500 
L 1178 3500 
L 1178 0 
L 603 0 
L 603 3500 
z
M 603 4863 
L 1178 4863 
L 1178 4134 
L 603 4134 
L 603 4863 
z
" transform="scale(0.015625)"/>
       <path id="DejaVuSans-6d" d="M 3328 2828 
Q 3544 3216 3844 3400 
Q 4144 3584 4550 3584 
Q 5097 3584 5394 3201 
Q 5691 2819 5691 2113 
L 5691 0 
L 5113 0 
L 5113 2094 
Q 5113 2597 4934 2840 
Q 4756 3084 4391 3084 
Q 3944 3084 3684 2787 
Q 3425 2491 3425 1978 
L 3425 0 
L 2847 0 
L 2847 2094 
Q 2847 2600 2669 2842 
Q 2491 3084 2119 3084 
Q 1678 3084 1418 2786 
Q 1159 2488 1159 1978 
L 1159 0 
L 581 0 
L 581 3500 
L 1159 3500 
L 1159 2956 
Q 1356 3278 1631 3431 
Q 1906 3584 2284 3584 
Q 2666 3584 2933 3390 
Q 3200 3197 3328 2828 
z
" transform="scale(0.015625)"/>
       <path id="DejaVuSans-65" d="M 3597 1894 
L 3597 1613 
L 953 1613 
Q 991 1019 1311 708 
Q 1631 397 2203 397 
Q 2534 397 2845 478 
Q 3156 559 3463 722 
L 3463 178 
Q 3153 47 2828 -22 
Q 2503 -91 2169 -91 
Q 1331 -91 842 396 
Q 353 884 353 1716 
Q 353 2575 817 3079 
Q 1281 3584 2069 3584 
Q 2775 3584 3186 3129 
Q 3597 2675 3597 1894 
z
M 3022 2063 
Q 3016 2534 2758 2815 
Q 2500 3097 2075 3097 
Q 1594 3097 1305 2825 
Q 1016 2553 972 2059 
L 3022 2063 
z
" transform="scale(0.015625)"/>
       <path id="DejaVuSans-20" transform="scale(0.015625)"/>
       <path id="DejaVuSans-5b" d="M 550 4863 
L 1875 4863 
L 1875 4416 
L 1125 4416 
L 1125 -397 
L 1875 -397 
L 1875 -844 
L 550 -844 
L 550 4863 
z
" transform="scale(0.015625)"/>
       <path id="DejaVuSans-73" d="M 2834 3397 
L 2834 2853 
Q 2591 2978 2328 3040 
Q 2066 3103 1784 3103 
Q 1356 3103 1142 2972 
Q 928 2841 928 2578 
Q 928 2378 1081 2264 
Q 1234 2150 1697 2047 
L 1894 2003 
Q 2506 1872 2764 1633 
Q 3022 1394 3022 966 
Q 3022 478 2636 193 
Q 2250 -91 1575 -91 
Q 1294 -91 989 -36 
Q 684 19 347 128 
L 347 722 
Q 666 556 975 473 
Q 1284 391 1588 391 
Q 1994 391 2212 530 
Q 2431 669 2431 922 
Q 2431 1156 2273 1281 
Q 2116 1406 1581 1522 
L 1381 1569 
Q 847 1681 609 1914 
Q 372 2147 372 2553 
Q 372 3047 722 3315 
Q 1072 3584 1716 3584 
Q 2034 3584 2315 3537 
Q 2597 3491 2834 3397 
z
" transform="scale(0.015625)"/>
       <path id="DejaVuSans-5d" d="M 1947 4863 
L 1947 -844 
L 622 -844 
L 622 -397 
L 1369 -397 
L 1369 4416 
L 622 4416 
L 622 4863 
L 1947 4863 
z
" transform="scale(0.015625)"/>
      </defs>
      <use xlink:href="#DejaVuSans-74"/>
      <use xlink:href="#DejaVuSans-69" x="39.208984"/>
      <use xlink:href="#DejaVuSans-6d" x="66.992188"/>
      <use xlink:href="#DejaVuSans-65" x="164.404297"/>
      <use xlink:href="#DejaVuSans-20" x="225.927734"/>
      <use xlink:href="#DejaVuSans-5b" x="257.714844"/>
      <use xlink:href="#DejaVuSans-73" x="296.728516"/>
      <use xlink:href="#DejaVuSans-5d" x="348.828125"/>
     </g>
    </g>
   </g>
   <g id="matplotlib.axis_2">
    <g id="ytick_1"/>
    <g id="ytick_2"/>
    <g id="ytick_3"/>
    <g id="ytick_4"/>
    <g id="ytick_5"/>
    <g id="text_8">
     <!-- probability density -->
     <g transform="translate(51.520312 221.125656) rotate(-90) scale(0.1 -0.1)">
      <defs>
       <path id="DejaVuSans-70" d="M 1159 525 
L 1159 -1331 
L 581 -1331 
L 581 3500 
L 1159 3500 
L 1159 2969 
Q 1341 3281 1617 3432 
Q 1894 3584 2278 3584 
Q 2916 3584 3314 3078 
Q 3713 2572 3713 1747 
Q 3713 922 3314 415 
Q 2916 -91 2278 -91 
Q 1894 -91 1617 61 
Q 1341 213 1159 525 
z
M 3116 1747 
Q 3116 2381 2855 2742 
Q 2594 3103 2138 3103 
Q 1681 3103 1420 2742 
Q 1159 2381 1159 1747 
Q 1159 1113 1420 752 
Q 1681 391 2138 391 
Q 2594 391 2855 752 
Q 3116 1113 3116 1747 
z
" transform="scale(0.015625)"/>
       <path id="DejaVuSans-72" d="M 2631 2963 
Q 2534 3019 2420 3045 
Q 2306 3072 2169 3072 
Q 1681 3072 1420 2755 
Q 1159 2438 1159 1844 
L 1159 0 
L 581 0 
L 581 3500 
L 1159 3500 
L 1159 2956 
Q 1341 3275 1631 3429 
Q 1922 3584 2338 3584 
Q 2397 3584 2469 3576 
Q 2541 3569 2628 3553 
L 2631 2963 
z
" transform="scale(0.015625)"/>
       <path id="DejaVuSans-6f" d="M 1959 3097 
Q 1497 3097 1228 2736 
Q 959 2375 959 1747 
Q 959 1119 1226 758 
Q 1494 397 1959 397 
Q 2419 397 2687 759 
Q 2956 1122 2956 1747 
Q 2956 2369 2687 2733 
Q 2419 3097 1959 3097 
z
M 1959 3584 
Q 2709 3584 3137 3096 
Q 3566 2609 3566 1747 
Q 3566 888 3137 398 
Q 2709 -91 1959 -91 
Q 1206 -91 779 398 
Q 353 888 353 1747 
Q 353 2609 779 3096 
Q 1206 3584 1959 3584 
z
" transform="scale(0.015625)"/>
       <path id="DejaVuSans-62" d="M 3116 1747 
Q 3116 2381 2855 2742 
Q 2594 3103 2138 3103 
Q 1681 3103 1420 2742 
Q 1159 2381 1159 1747 
Q 1159 1113 1420 752 
Q 1681 391 2138 391 
Q 2594 391 2855 752 
Q 3116 1113 3116 1747 
z
M 1159 2969 
Q 1341 3281 1617 3432 
Q 1894 3584 2278 3584 
Q 2916 3584 3314 3078 
Q 3713 2572 3713 1747 
Q 3713 922 3314 415 
Q 2916 -91 2278 -91 
Q 1894 -91 1617 61 
Q 1341 213 1159 525 
L 1159 0 
L 581 0 
L 581 4863 
L 1159 4863 
L 1159 2969 
z
" transform="scale(0.015625)"/>
       <path id="DejaVuSans-61" d="M 2194 1759 
Q 1497 1759 1228 1600 
Q 959 1441 959 1056 
Q 959 750 1161 570 
Q 1363 391 1709 391 
Q 2188 391 2477 730 
Q 2766 1069 2766 1631 
L 2766 1759 
L 2194 1759 
z
M 3341 1997 
L 3341 0 
L 2766 0 
L 2766 531 
Q 2569 213 2275 61 
Q 1981 -91 1556 -91 
Q 1019 -91 701 211 
Q 384 513 384 1019 
Q 384 1609 779 1909 
Q 1175 2209 1959 2209 
L 2766 2209 
L 2766 2266 
Q 2766 2663 2505 2880 
Q 2244 3097 1772 3097 
Q 1472 3097 1187 3025 
Q 903 2953 641 2809 
L 641 3341 
Q 956 3463 1253 3523 
Q 1550 3584 1831 3584 
Q 2591 3584 2966 3190 
Q 3341 2797 3341 1997 
z
" transform="scale(0.015625)"/>
       <path id="DejaVuSans-6c" d="M 603 4863 
L 1178 4863 
L 1178 0 
L 603 0 
L 603 4863 
z
" transform="scale(0.015625)"/>
       <path id="DejaVuSans-79" d="M 2059 -325 
Q 1816 -950 1584 -1140 
Q 1353 -1331 966 -1331 
L 506 -1331 
L 506 -850 
L 844 -850 
Q 1081 -850 1212 -737 
Q 1344 -625 1503 -206 
L 1606 56 
L 191 3500 
L 800 3500 
L 1894 763 
L 2988 3500 
L 3597 3500 
L 2059 -325 
z
" transform="scale(0.015625)"/>
       <path id="DejaVuSans-64" d="M 2906 2969 
L 2906 4863 
L 3481 4863 
L 3481 0 
L 2906 0 
L 2906 525 
Q 2725 213 2448 61 
Q 2172 -91 1784 -91 
Q 1150 -91 751 415 
Q 353 922 353 1747 
Q 353 2572 751 3078 
Q 1150 3584 1784 3584 
Q 2172 3584 2448 3432 
Q 2725 3281 2906 2969 
z
M 947 1747 
Q 947 1113 1208 752 
Q 1469 391 1925 391 
Q 2381 391 2643 752 
Q 2906 1113 2906 1747 
Q 2906 2381 2643 2742 
Q 2381 3103 1925 3103 
Q 1469 3103 1208 2742 
Q 947 2381 947 1747 
z
" transform="scale(0.015625)"/>
       <path id="DejaVuSans-6e" d="M 3513 2113 
L 3513 0 
L 2938 0 
L 2938 2094 
Q 2938 2591 2744 2837 
Q 2550 3084 2163 3084 
Q 1697 3084 1428 2787 
Q 1159 2491 1159 1978 
L 1159 0 
L 581 0 
L 581 3500 
L 1159 3500 
L 1159 2956 
Q 1366 3272 1645 3428 
Q 1925 3584 2291 3584 
Q 2894 3584 3203 3211 
Q 3513 2838 3513 2113 
z
" transform="scale(0.015625)"/>
      </defs>
      <use xlink:href="#DejaVuSans-70"/>
      <use xlink:href="#DejaVuSans-72" x="63.476562"/>
      <use xlink:href="#DejaVuSans-6f" x="102.339844"/>
      <use xlink:href="#DejaVuSans-62" x="163.521484"/>
      <use xlink:href="#DejaVuSans-61" x="226.998047"/>
      <use xlink:href="#DejaVuSans-62" x="288.277344"/>
      <use xlink:href="#DejaVuSans-69" x="351.753906"/>
      <use xlink:href="#DejaVuSans-6c" x="379.537109"/>
      <use xlink:href="#DejaVuSans-69" x="407.320312"/>
      <use xlink:href="#DejaVuSans-74" x="435.103516"/>
      <use xlink:href="#DejaVuSans-79" x="474.3125"/>
      <use xlink:href="#DejaVuSans-20" x="533.492188"/>
      <use xlink:href="#DejaVuSans-64" x="565.279297"/>
      <use xlink:href="#DejaVuSans-65" x="628.755859"/>
      <use xlink:href="#DejaVuSans-6e" x="690.279297"/>
      <use xlink:href="#DejaVuSans-73" x="753.658203"/>
      <use xlink:href="#DejaVuSans-69" x="805.757812"/>
      <use xlink:href="#DejaVuSans-74" x="833.541016"/>
      <use xlink:href="#DejaVuSans-79" x="872.75"/>
     </g>
    </g>
   </g>
   <g id="LineCollection_1">
    <path d="M 139.817169 295.488 
L 139.817169 195.853107 
" clip-path="url(#p33aebac2f7)" style="fill: none; stroke: #1f77b4; stroke-width: 1.5"/>
   </g>
   <g id="patch_3">
    <path d="M 57.6 307.584 
L 57.6 41.472 
" style="fill: none; stroke: #000000; stroke-width: 0.8; stroke-linejoin: miter; stroke-linecap: square"/>
   </g>
   <g id="patch_4">
    <path d="M 414.72 307.584 
L 414.72 41.472 
" style="fill: none; stroke: #000000; stroke-width: 0.8; stroke-linejoin: miter; stroke-linecap: square"/>
   </g>
   <g id="patch_5">
    <path d="M 57.6 307.584 
L 414.72 307.584 
" style="fill: none; stroke: #000000; stroke-width: 0.8; stroke-linejoin: miter; stroke-linecap: square"/>
   </g>
   <g id="patch_6">
    <path d="M 57.6 41.472 
L 414.72 41.472 
" style="fill: none; stroke: #000000; stroke-width: 0.8; stroke-linejoin: miter; stroke-linecap: square"/>
   </g>
   <g id="text_9">
    <!-- exa -->
    <g transform="translate(225.345 35.472) scale(0.12 -0.12)">
     <defs>
      <path id="DejaVuSans-78" d="M 3513 3500 
L 2247 1797 
L 3578 0 
L 2900 0 
L 1881 1375 
L 863 0 
L 184 0 
L 1544 1831 
L 300 3500 
L 978 3500 
L 1906 2253 
L 2834 3500 
L 3513 3500 
z
" transform="scale(0.015625)"/>
     </defs>
     <use xlink:href="#DejaVuSans-65"/>
     <use xlink:href="#DejaVuSans-78" x="59.773438"/>
     <use xlink:href="#DejaVuSans-61" x="118.953125"/>
    </g>
   </g>
  </g>
 </g>
 <defs>
  <clipPath id="p33aebac2f7">
   <rect x="57.6" y="41.472" width="357.12" height="266.112"/>
  </clipPath>
 </defs>
</svg>
