<?xml version="1.0" encoding="utf-8" standalone="no"?>
<!DOCTYPE svg PUBLIC "-//W3C//DTD SVG 1.1//EN"
  "http://www.w3.org/Graphics/SVG/1.1/DTD/svg11.dtd">
<svg xmlns:xlink="http://www.w3.org/1999/xlink" width="460.8pt" height="345.6pt" viewBox="0 0 460.8 345.6" xmlns="http://www.w3.org/2000/svg" version="1.1">
 <metadata>
  <rdf:RDF xmlns:dc="http://purl.org/dc/elements/1.1/" xmlns:cc="http://creativecommons.org/ns#" xmlns:rdf="http://www.w3.org/1999/02/22-rdf-syntax-ns#">
   <cc:Work>
    <dc:type rdf:resource="http://purl.org/dc/dcmitype/StillImage"/>
    <dc:date>2024-01-08T18:12:24.554623</dc:date>
    <dc:format>image/svg+xml</dc:format>
    <dc:creator>
     <cc:Agent>
      <dc:title>Matplotlib v3.7.0, https://matplotlib.org/</dc:title>
     </cc:Agent>
    </dc:creator>
   </cc:Work>
  </rdf:RDF>
 </metadata>
 <defs>
  <style type="text/css">*{stroke-linejoin: round; stroke-linecap: butt}</style>
 </defs>
 <g id="figure_1">
  <g id="patch_1">
   <path d="M 0 345.6 
L 460.8 345.6 
L 460.8 0 
L 0 0 
z
" style="fill: #ffffff"/>
  </g>
  <g id="axes_1">
   <g id="patch_2">
    <path d="M 57.6 307.584 
L 414.72 307.584 
L 414.72 41.472 
L 57.6 41.472 
z
" style="fill: #ffffff"/>
   </g>
   <g id="PolyCollection_1">
    <path d="M 73.832727 295.069337 
L 73.832727 295.069337 
L 75.96161 295.112472 
L 77.026051 295.216993 
L 79.154933 295.330614 
L 80.219374 295.414233 
L 82.348256 295.458952 
L 83.412697 295.473494 
L 85.54158 295.464572 
L 86.606021 295.427718 
L 88.734903 295.352941 
L 89.799344 295.24236 
L 91.928227 295.124973 
L 94.057109 295.044118 
L 95.12155 295.015629 
L 97.250432 294.998055 
L 98.314873 294.915968 
L 100.443756 294.719628 
L 101.508197 294.426182 
L 103.637079 294.112082 
L 104.70152 293.862182 
L 106.830402 293.700048 
L 107.894844 293.554228 
L 110.023726 293.313769 
L 111.088167 292.926976 
L 113.217049 292.412315 
L 114.28149 291.752367 
L 116.410373 290.830482 
L 118.539255 289.555453 
L 119.603696 288.066904 
L 121.732578 286.743145 
L 122.797019 285.915379 
L 124.925902 285.560941 
L 125.990343 285.320061 
L 128.119225 284.800309 
L 129.183666 283.808432 
L 131.312548 282.328876 
L 132.37699 280.423584 
L 134.505872 278.224898 
L 135.570313 275.929661 
L 137.699195 273.640016 
L 138.763636 271.143204 
L 140.892519 267.924787 
L 143.021401 263.512144 
L 144.085842 257.815336 
L 146.214724 251.080257 
L 147.279165 243.540548 
L 149.408048 235.176098 
L 150.472489 225.750692 
L 152.601371 214.992684 
L 153.665812 202.759633 
L 155.794694 189.077453 
L 156.859136 174.058358 
L 158.988018 157.918999 
L 160.052459 141.226085 
L 162.181341 125.070743 
L 163.245782 110.772879 
L 165.374665 99.152435 
L 167.503547 89.915619 
L 168.567988 81.823342 
L 170.69687 73.750588 
L 171.761311 65.777385 
L 173.890194 59.156913 
L 174.954635 55.084017 
L 177.083517 53.568 
L 178.147958 53.586676 
L 180.276841 54.176582 
L 181.341282 55.25187 
L 183.470164 57.591728 
L 184.534605 62.306927 
L 186.663487 70.229716 
L 187.727928 81.426386 
L 189.856811 94.954445 
L 191.985693 109.138833 
L 193.050134 122.511243 
L 195.179016 134.834061 
L 196.243458 147.177397 
L 198.37234 160.769443 
L 199.436781 175.659765 
L 201.565663 190.532178 
L 202.630104 203.785581 
L 204.758987 214.695831 
L 205.823428 223.63404 
L 207.95231 231.484712 
L 209.016751 238.975828 
L 211.145633 246.276327 
L 212.210075 252.912918 
L 214.338957 258.101882 
L 216.467839 261.358059 
L 217.53228 262.87026 
L 219.661162 263.379743 
L 220.725604 263.824411 
L 222.854486 264.980913 
L 223.918927 267.12391 
L 226.047809 269.922893 
L 227.11225 272.818565 
L 229.241133 275.542929 
L 230.305574 278.176565 
L 232.434456 280.759374 
L 233.498897 283.050983 
L 235.627779 284.723517 
L 236.692221 285.667654 
L 238.821103 286.063278 
L 240.949985 286.230016 
L 242.014426 286.451948 
L 244.143308 286.885647 
L 245.20775 287.546309 
L 247.336632 288.338703 
L 248.401073 289.119747 
L 250.529955 289.778626 
L 251.594396 290.292589 
L 253.723279 290.719523 
L 254.78772 291.137082 
L 256.916602 291.578811 
L 257.981043 292.014809 
L 260.109925 292.383178 
L 261.174367 292.630717 
L 263.303249 292.72839 
L 265.432131 292.683448 
L 266.496572 292.564777 
L 268.625455 292.486735 
L 269.689896 292.524857 
L 271.818778 292.658943 
L 272.883219 292.817528 
L 275.012101 292.941434 
L 276.076542 292.980595 
L 278.205425 292.880123 
L 279.269866 292.622005 
L 281.398748 292.277347 
L 282.463189 292.001961 
L 284.592072 291.967903 
L 285.656513 292.262122 
L 287.785395 292.818864 
L 288.849836 293.458626 
L 290.978718 294.009504 
L 293.107601 294.395801 
L 294.172042 294.635411 
L 296.300924 294.791256 
L 297.365365 294.92556 
L 299.494247 295.064773 
L 300.558689 295.184135 
L 302.687571 295.223017 
L 303.752012 295.118411 
L 305.880894 294.841024 
L 306.945335 294.429919 
L 309.074218 293.999609 
L 310.138659 293.678912 
L 312.267541 293.511267 
L 313.331982 293.432014 
L 315.460864 293.372806 
L 317.589747 293.366383 
L 318.654188 293.507232 
L 320.78307 293.824173 
L 321.847511 294.233479 
L 323.976393 294.607453 
L 325.040835 294.856786 
L 327.169717 294.961879 
L 328.234158 294.96163 
L 330.36304 294.912775 
L 331.427481 294.840827 
L 333.556364 294.728261 
L 334.620805 294.551416 
L 336.749687 294.315464 
L 337.814128 294.05292 
L 339.94301 293.815021 
L 342.071893 293.675073 
L 343.136334 293.705044 
L 345.265216 293.912215 
L 346.329657 294.203976 
L 348.458539 294.441115 
L 349.522981 294.542798 
L 351.651863 294.545222 
L 352.716304 294.554238 
L 354.845186 294.636856 
L 355.909627 294.766651 
L 358.03851 294.877451 
L 359.102951 294.948439 
L 361.231833 295.016023 
L 362.296274 295.114508 
L 364.425156 295.23035 
L 366.554039 295.313152 
L 367.61848 295.30865 
L 369.747362 295.178168 
L 370.811803 294.916911 
L 372.940686 294.582631 
L 374.005127 294.295811 
L 376.134009 294.173134 
L 377.19845 294.242513 
L 379.327332 294.435565 
L 380.391773 294.664012 
L 382.520656 294.882444 
L 383.585097 295.078386 
L 385.713979 295.235817 
L 386.77842 295.328315 
L 388.907303 295.334966 
L 391.036185 295.252552 
L 392.100626 295.101785 
L 394.229508 294.929037 
L 395.293949 294.792937 
L 397.422832 294.735498 
L 398.487273 294.757873 
L 398.487273 294.757873 
L 398.487273 295.488 
L 397.422832 295.488 
L 395.293949 295.488 
L 394.229508 295.488 
L 392.100626 295.488 
L 391.036185 295.488 
L 388.907303 295.488 
L 386.77842 295.488 
L 385.713979 295.488 
L 383.585097 295.488 
L 382.520656 295.488 
L 380.391773 295.488 
L 379.327332 295.488 
L 377.19845 295.488 
L 376.134009 295.488 
L 374.005127 295.488 
L 372.940686 295.488 
L 370.811803 295.488 
L 369.747362 295.488 
L 367.61848 295.488 
L 366.554039 295.488 
L 364.425156 295.488 
L 362.296274 295.488 
L 361.231833 295.488 
L 359.102951 295.488 
L 358.03851 295.488 
L 355.909627 295.488 
L 354.845186 295.488 
L 352.716304 295.488 
L 351.651863 295.488 
L 349.522981 295.488 
L 348.458539 295.488 
L 346.329657 295.488 
L 345.265216 295.488 
L 343.136334 295.488 
L 342.071893 295.488 
L 339.94301 295.488 
L 337.814128 295.488 
L 336.749687 295.488 
L 334.620805 295.488 
L 333.556364 295.488 
L 331.427481 295.488 
L 330.36304 295.488 
L 328.234158 295.488 
L 327.169717 295.488 
L 325.040835 295.488 
L 323.976393 295.488 
L 321.847511 295.488 
L 320.78307 295.488 
L 318.654188 295.488 
L 317.589747 295.488 
L 315.460864 295.488 
L 313.331982 295.488 
L 312.267541 295.488 
L 310.138659 295.488 
L 309.074218 295.488 
L 306.945335 295.488 
L 305.880894 295.488 
L 303.752012 295.488 
L 302.687571 295.488 
L 300.558689 295.488 
L 299.494247 295.488 
L 297.365365 295.488 
L 296.300924 295.488 
L 294.172042 295.488 
L 293.107601 295.488 
L 290.978718 295.488 
L 288.849836 295.488 
L 287.785395 295.488 
L 285.656513 295.488 
L 284.592072 295.488 
L 282.463189 295.488 
L 281.398748 295.488 
L 279.269866 295.488 
L 278.205425 295.488 
L 276.076542 295.488 
L 275.012101 295.488 
L 272.883219 295.488 
L 271.818778 295.488 
L 269.689896 295.488 
L 268.625455 295.488 
L 266.496572 295.488 
L 265.432131 295.488 
L 263.303249 295.488 
L 261.174367 295.488 
L 260.109925 295.488 
L 257.981043 295.488 
L 256.916602 295.488 
L 254.78772 295.488 
L 253.723279 295.488 
L 251.594396 295.488 
L 250.529955 295.488 
L 248.401073 295.488 
L 247.336632 295.488 
L 245.20775 295.488 
L 244.143308 295.488 
L 242.014426 295.488 
L 240.949985 295.488 
L 238.821103 295.488 
L 236.692221 295.488 
L 235.627779 295.488 
L 233.498897 295.488 
L 232.434456 295.488 
L 230.305574 295.488 
L 229.241133 295.488 
L 227.11225 295.488 
L 226.047809 295.488 
L 223.918927 295.488 
L 222.854486 295.488 
L 220.725604 295.488 
L 219.661162 295.488 
L 217.53228 295.488 
L 216.467839 295.488 
L 214.338957 295.488 
L 212.210075 295.488 
L 211.145633 295.488 
L 209.016751 295.488 
L 207.95231 295.488 
L 205.823428 295.488 
L 204.758987 295.488 
L 202.630104 295.488 
L 201.565663 295.488 
L 199.436781 295.488 
L 198.37234 295.488 
L 196.243458 295.488 
L 195.179016 295.488 
L 193.050134 295.488 
L 191.985693 295.488 
L 189.856811 295.488 
L 187.727928 295.488 
L 186.663487 295.488 
L 184.534605 295.488 
L 183.470164 295.488 
L 181.341282 295.488 
L 180.276841 295.488 
L 178.147958 295.488 
L 177.083517 295.488 
L 174.954635 295.488 
L 173.890194 295.488 
L 171.761311 295.488 
L 170.69687 295.488 
L 168.567988 295.488 
L 167.503547 295.488 
L 165.374665 295.488 
L 163.245782 295.488 
L 162.181341 295.488 
L 160.052459 295.488 
L 158.988018 295.488 
L 156.859136 295.488 
L 155.794694 295.488 
L 153.665812 295.488 
L 152.601371 295.488 
L 150.472489 295.488 
L 149.408048 295.488 
L 147.279165 295.488 
L 146.214724 295.488 
L 144.085842 295.488 
L 143.021401 295.488 
L 140.892519 295.488 
L 138.763636 295.488 
L 137.699195 295.488 
L 135.570313 295.488 
L 134.505872 295.488 
L 132.37699 295.488 
L 131.312548 295.488 
L 129.183666 295.488 
L 128.119225 295.488 
L 125.990343 295.488 
L 124.925902 295.488 
L 122.797019 295.488 
L 121.732578 295.488 
L 119.603696 295.488 
L 118.539255 295.488 
L 116.410373 295.488 
L 114.28149 295.488 
L 113.217049 295.488 
L 111.088167 295.488 
L 110.023726 295.488 
L 107.894844 295.488 
L 106.830402 295.488 
L 104.70152 295.488 
L 103.637079 295.488 
L 101.508197 295.488 
L 100.443756 295.488 
L 98.314873 295.488 
L 97.250432 295.488 
L 95.12155 295.488 
L 94.057109 295.488 
L 91.928227 295.488 
L 89.799344 295.488 
L 88.734903 295.488 
L 86.606021 295.488 
L 85.54158 295.488 
L 83.412697 295.488 
L 82.348256 295.488 
L 80.219374 295.488 
L 79.154933 295.488 
L 77.026051 295.488 
L 75.96161 295.488 
L 73.832727 295.488 
z
" clip-path="url(#pf8fc133751)" style="fill: #1f77b4; fill-opacity: 0.25"/>
   </g>
   <g id="matplotlib.axis_1">
    <g id="xtick_1">
     <g id="line2d_1">
      <defs>
       <path id="m8c5b5cf9d4" d="M 0 0 
L 0 3.5 
" style="stroke: #000000; stroke-width: 0.8"/>
      </defs>
      <g>
       <use xlink:href="#m8c5b5cf9d4" x="102.572638" y="307.584" style="stroke: #000000; stroke-width: 0.8"/>
      </g>
     </g>
     <g id="text_1">
      <!-- 0.00145 -->
      <g transform="translate(81.896075 322.182437) scale(0.1 -0.1)">
       <defs>
        <path id="DejaVuSans-30" d="M 2034 4250 
Q 1547 4250 1301 3770 
Q 1056 3291 1056 2328 
Q 1056 1369 1301 889 
Q 1547 409 2034 409 
Q 2525 409 2770 889 
Q 3016 1369 3016 2328 
Q 3016 3291 2770 3770 
Q 2525 4250 2034 4250 
z
M 2034 4750 
Q 2819 4750 3233 4129 
Q 3647 3509 3647 2328 
Q 3647 1150 3233 529 
Q 2819 -91 2034 -91 
Q 1250 -91 836 529 
Q 422 1150 422 2328 
Q 422 3509 836 4129 
Q 1250 4750 2034 4750 
z
" transform="scale(0.015625)"/>
        <path id="DejaVuSans-2e" d="M 684 794 
L 1344 794 
L 1344 0 
L 684 0 
L 684 794 
z
" transform="scale(0.015625)"/>
        <path id="DejaVuSans-31" d="M 794 531 
L 1825 531 
L 1825 4091 
L 703 3866 
L 703 4441 
L 1819 4666 
L 2450 4666 
L 2450 531 
L 3481 531 
L 3481 0 
L 794 0 
L 794 531 
z
" transform="scale(0.015625)"/>
        <path id="DejaVuSans-34" d="M 2419 4116 
L 825 1625 
L 2419 1625 
L 2419 4116 
z
M 2253 4666 
L 3047 4666 
L 3047 1625 
L 3713 1625 
L 3713 1100 
L 3047 1100 
L 3047 0 
L 2419 0 
L 2419 1100 
L 313 1100 
L 313 1709 
L 2253 4666 
z
" transform="scale(0.015625)"/>
        <path id="DejaVuSans-35" d="M 691 4666 
L 3169 4666 
L 3169 4134 
L 1269 4134 
L 1269 2991 
Q 1406 3038 1543 3061 
Q 1681 3084 1819 3084 
Q 2600 3084 3056 2656 
Q 3513 2228 3513 1497 
Q 3513 744 3044 326 
Q 2575 -91 1722 -91 
Q 1428 -91 1123 -41 
Q 819 9 494 109 
L 494 744 
Q 775 591 1075 516 
Q 1375 441 1709 441 
Q 2250 441 2565 725 
Q 2881 1009 2881 1497 
Q 2881 1984 2565 2268 
Q 2250 2553 1709 2553 
Q 1456 2553 1204 2497 
Q 953 2441 691 2322 
L 691 4666 
z
" transform="scale(0.015625)"/>
       </defs>
       <use xlink:href="#DejaVuSans-30"/>
       <use xlink:href="#DejaVuSans-2e" x="63.623047"/>
       <use xlink:href="#DejaVuSans-30" x="95.410156"/>
       <use xlink:href="#DejaVuSans-30" x="159.033203"/>
       <use xlink:href="#DejaVuSans-31" x="222.65625"/>
       <use xlink:href="#DejaVuSans-34" x="286.279297"/>
       <use xlink:href="#DejaVuSans-35" x="349.902344"/>
      </g>
     </g>
    </g>
    <g id="xtick_2">
     <g id="line2d_2">
      <g>
       <use xlink:href="#m8c5b5cf9d4" x="155.794694" y="307.584" style="stroke: #000000; stroke-width: 0.8"/>
      </g>
     </g>
     <g id="text_2">
      <!-- 0.00150 -->
      <g transform="translate(135.118132 322.182437) scale(0.1 -0.1)">
       <use xlink:href="#DejaVuSans-30"/>
       <use xlink:href="#DejaVuSans-2e" x="63.623047"/>
       <use xlink:href="#DejaVuSans-30" x="95.410156"/>
       <use xlink:href="#DejaVuSans-30" x="159.033203"/>
       <use xlink:href="#DejaVuSans-31" x="222.65625"/>
       <use xlink:href="#DejaVuSans-35" x="286.279297"/>
       <use xlink:href="#DejaVuSans-30" x="349.902344"/>
      </g>
     </g>
    </g>
    <g id="xtick_3">
     <g id="line2d_3">
      <g>
       <use xlink:href="#m8c5b5cf9d4" x="209.016751" y="307.584" style="stroke: #000000; stroke-width: 0.8"/>
      </g>
     </g>
     <g id="text_3">
      <!-- 0.00155 -->
      <g transform="translate(188.340189 322.182437) scale(0.1 -0.1)">
       <use xlink:href="#DejaVuSans-30"/>
       <use xlink:href="#DejaVuSans-2e" x="63.623047"/>
       <use xlink:href="#DejaVuSans-30" x="95.410156"/>
       <use xlink:href="#DejaVuSans-30" x="159.033203"/>
       <use xlink:href="#DejaVuSans-31" x="222.65625"/>
       <use xlink:href="#DejaVuSans-35" x="286.279297"/>
       <use xlink:href="#DejaVuSans-35" x="349.902344"/>
      </g>
     </g>
    </g>
    <g id="xtick_4">
     <g id="line2d_4">
      <g>
       <use xlink:href="#m8c5b5cf9d4" x="262.238808" y="307.584" style="stroke: #000000; stroke-width: 0.8"/>
      </g>
     </g>
     <g id="text_4">
      <!-- 0.00160 -->
      <g transform="translate(241.562245 322.182437) scale(0.1 -0.1)">
       <defs>
        <path id="DejaVuSans-36" d="M 2113 2584 
Q 1688 2584 1439 2293 
Q 1191 2003 1191 1497 
Q 1191 994 1439 701 
Q 1688 409 2113 409 
Q 2538 409 2786 701 
Q 3034 994 3034 1497 
Q 3034 2003 2786 2293 
Q 2538 2584 2113 2584 
z
M 3366 4563 
L 3366 3988 
Q 3128 4100 2886 4159 
Q 2644 4219 2406 4219 
Q 1781 4219 1451 3797 
Q 1122 3375 1075 2522 
Q 1259 2794 1537 2939 
Q 1816 3084 2150 3084 
Q 2853 3084 3261 2657 
Q 3669 2231 3669 1497 
Q 3669 778 3244 343 
Q 2819 -91 2113 -91 
Q 1303 -91 875 529 
Q 447 1150 447 2328 
Q 447 3434 972 4092 
Q 1497 4750 2381 4750 
Q 2619 4750 2861 4703 
Q 3103 4656 3366 4563 
z
" transform="scale(0.015625)"/>
       </defs>
       <use xlink:href="#DejaVuSans-30"/>
       <use xlink:href="#DejaVuSans-2e" x="63.623047"/>
       <use xlink:href="#DejaVuSans-30" x="95.410156"/>
       <use xlink:href="#DejaVuSans-30" x="159.033203"/>
       <use xlink:href="#DejaVuSans-31" x="222.65625"/>
       <use xlink:href="#DejaVuSans-36" x="286.279297"/>
       <use xlink:href="#DejaVuSans-30" x="349.902344"/>
      </g>
     </g>
    </g>
    <g id="xtick_5">
     <g id="line2d_5">
      <g>
       <use xlink:href="#m8c5b5cf9d4" x="315.460864" y="307.584" style="stroke: #000000; stroke-width: 0.8"/>
      </g>
     </g>
     <g id="text_5">
      <!-- 0.00165 -->
      <g transform="translate(294.784302 322.182437) scale(0.1 -0.1)">
       <use xlink:href="#DejaVuSans-30"/>
       <use xlink:href="#DejaVuSans-2e" x="63.623047"/>
       <use xlink:href="#DejaVuSans-30" x="95.410156"/>
       <use xlink:href="#DejaVuSans-30" x="159.033203"/>
       <use xlink:href="#DejaVuSans-31" x="222.65625"/>
       <use xlink:href="#DejaVuSans-36" x="286.279297"/>
       <use xlink:href="#DejaVuSans-35" x="349.902344"/>
      </g>
     </g>
    </g>
    <g id="xtick_6">
     <g id="line2d_6">
      <g>
       <use xlink:href="#m8c5b5cf9d4" x="368.682921" y="307.584" style="stroke: #000000; stroke-width: 0.8"/>
      </g>
     </g>
     <g id="text_6">
      <!-- 0.00170 -->
      <g transform="translate(348.006359 322.182437) scale(0.1 -0.1)">
       <defs>
        <path id="DejaVuSans-37" d="M 525 4666 
L 3525 4666 
L 3525 4397 
L 1831 0 
L 1172 0 
L 2766 4134 
L 525 4134 
L 525 4666 
z
" transform="scale(0.015625)"/>
       </defs>
       <use xlink:href="#DejaVuSans-30"/>
       <use xlink:href="#DejaVuSans-2e" x="63.623047"/>
       <use xlink:href="#DejaVuSans-30" x="95.410156"/>
       <use xlink:href="#DejaVuSans-30" x="159.033203"/>
       <use xlink:href="#DejaVuSans-31" x="222.65625"/>
       <use xlink:href="#DejaVuSans-37" x="286.279297"/>
       <use xlink:href="#DejaVuSans-30" x="349.902344"/>
      </g>
     </g>
    </g>
    <g id="text_7">
     <!-- time [s] -->
     <g transform="translate(216.768594 335.860562) scale(0.1 -0.1)">
      <defs>
       <path id="DejaVuSans-74" d="M 1172 4494 
L 1172 3500 
L 2356 3500 
L 2356 3053 
L 1172 3053 
L 1172 1153 
Q 1172 725 1289 603 
Q 1406 481 1766 481 
L 2356 481 
L 2356 0 
L 1766 0 
Q 1100 0 847 248 
Q 594 497 594 1153 
L 594 3053 
L 172 3053 
L 172 3500 
L 594 3500 
L 594 4494 
L 1172 4494 
z
" transform="scale(0.015625)"/>
       <path id="DejaVuSans-69" d="M 603 3500 
L 1178 3500 
L 1178 0 
L 603 0 
L 603 3500 
z
M 603 4863 
L 1178 4863 
L 1178 4134 
L 603 4134 
L 603 4863 
z
" transform="scale(0.015625)"/>
       <path id="DejaVuSans-6d" d="M 3328 2828 
Q 3544 3216 3844 3400 
Q 4144 3584 4550 3584 
Q 5097 3584 5394 3201 
Q 5691 2819 5691 2113 
L 5691 0 
L 5113 0 
L 5113 2094 
Q 5113 2597 4934 2840 
Q 4756 3084 4391 3084 
Q 3944 3084 3684 2787 
Q 3425 2491 3425 1978 
L 3425 0 
L 2847 0 
L 2847 2094 
Q 2847 2600 2669 2842 
Q 2491 3084 2119 3084 
Q 1678 3084 1418 2786 
Q 1159 2488 1159 1978 
L 1159 0 
L 581 0 
L 581 3500 
L 1159 3500 
L 1159 2956 
Q 1356 3278 1631 3431 
Q 1906 3584 2284 3584 
Q 2666 3584 2933 3390 
Q 3200 3197 3328 2828 
z
" transform="scale(0.015625)"/>
       <path id="DejaVuSans-65" d="M 3597 1894 
L 3597 1613 
L 953 1613 
Q 991 1019 1311 708 
Q 1631 397 2203 397 
Q 2534 397 2845 478 
Q 3156 559 3463 722 
L 3463 178 
Q 3153 47 2828 -22 
Q 2503 -91 2169 -91 
Q 1331 -91 842 396 
Q 353 884 353 1716 
Q 353 2575 817 3079 
Q 1281 3584 2069 3584 
Q 2775 3584 3186 3129 
Q 3597 2675 3597 1894 
z
M 3022 2063 
Q 3016 2534 2758 2815 
Q 2500 3097 2075 3097 
Q 1594 3097 1305 2825 
Q 1016 2553 972 2059 
L 3022 2063 
z
" transform="scale(0.015625)"/>
       <path id="DejaVuSans-20" transform="scale(0.015625)"/>
       <path id="DejaVuSans-5b" d="M 550 4863 
L 1875 4863 
L 1875 4416 
L 1125 4416 
L 1125 -397 
L 1875 -397 
L 1875 -844 
L 550 -844 
L 550 4863 
z
" transform="scale(0.015625)"/>
       <path id="DejaVuSans-73" d="M 2834 3397 
L 2834 2853 
Q 2591 2978 2328 3040 
Q 2066 3103 1784 3103 
Q 1356 3103 1142 2972 
Q 928 2841 928 2578 
Q 928 2378 1081 2264 
Q 1234 2150 1697 2047 
L 1894 2003 
Q 2506 1872 2764 1633 
Q 3022 1394 3022 966 
Q 3022 478 2636 193 
Q 2250 -91 1575 -91 
Q 1294 -91 989 -36 
Q 684 19 347 128 
L 347 722 
Q 666 556 975 473 
Q 1284 391 1588 391 
Q 1994 391 2212 530 
Q 2431 669 2431 922 
Q 2431 1156 2273 1281 
Q 2116 1406 1581 1522 
L 1381 1569 
Q 847 1681 609 1914 
Q 372 2147 372 2553 
Q 372 3047 722 3315 
Q 1072 3584 1716 3584 
Q 2034 3584 2315 3537 
Q 2597 3491 2834 3397 
z
" transform="scale(0.015625)"/>
       <path id="DejaVuSans-5d" d="M 1947 4863 
L 1947 -844 
L 622 -844 
L 622 -397 
L 1369 -397 
L 1369 4416 
L 622 4416 
L 622 4863 
L 1947 4863 
z
" transform="scale(0.015625)"/>
      </defs>
      <use xlink:href="#DejaVuSans-74"/>
      <use xlink:href="#DejaVuSans-69" x="39.208984"/>
      <use xlink:href="#DejaVuSans-6d" x="66.992188"/>
      <use xlink:href="#DejaVuSans-65" x="164.404297"/>
      <use xlink:href="#DejaVuSans-20" x="225.927734"/>
      <use xlink:href="#DejaVuSans-5b" x="257.714844"/>
      <use xlink:href="#DejaVuSans-73" x="296.728516"/>
      <use xlink:href="#DejaVuSans-5d" x="348.828125"/>
     </g>
    </g>
   </g>
   <g id="matplotlib.axis_2">
    <g id="ytick_1"/>
    <g id="ytick_2"/>
    <g id="ytick_3"/>
    <g id="ytick_4"/>
    <g id="ytick_5"/>
    <g id="text_8">
     <!-- probability density -->
     <g transform="translate(51.520312 221.125656) rotate(-90) scale(0.1 -0.1)">
      <defs>
       <path id="DejaVuSans-70" d="M 1159 525 
L 1159 -1331 
L 581 -1331 
L 581 3500 
L 1159 3500 
L 1159 2969 
Q 1341 3281 1617 3432 
Q 1894 3584 2278 3584 
Q 2916 3584 3314 3078 
Q 3713 2572 3713 1747 
Q 3713 922 3314 415 
Q 2916 -91 2278 -91 
Q 1894 -91 1617 61 
Q 1341 213 1159 525 
z
M 3116 1747 
Q 3116 2381 2855 2742 
Q 2594 3103 2138 3103 
Q 1681 3103 1420 2742 
Q 1159 2381 1159 1747 
Q 1159 1113 1420 752 
Q 1681 391 2138 391 
Q 2594 391 2855 752 
Q 3116 1113 3116 1747 
z
" transform="scale(0.015625)"/>
       <path id="DejaVuSans-72" d="M 2631 2963 
Q 2534 3019 2420 3045 
Q 2306 3072 2169 3072 
Q 1681 3072 1420 2755 
Q 1159 2438 1159 1844 
L 1159 0 
L 581 0 
L 581 3500 
L 1159 3500 
L 1159 2956 
Q 1341 3275 1631 3429 
Q 1922 3584 2338 3584 
Q 2397 3584 2469 3576 
Q 2541 3569 2628 3553 
L 2631 2963 
z
" transform="scale(0.015625)"/>
       <path id="DejaVuSans-6f" d="M 1959 3097 
Q 1497 3097 1228 2736 
Q 959 2375 959 1747 
Q 959 1119 1226 758 
Q 1494 397 1959 397 
Q 2419 397 2687 759 
Q 2956 1122 2956 1747 
Q 2956 2369 2687 2733 
Q 2419 3097 1959 3097 
z
M 1959 3584 
Q 2709 3584 3137 3096 
Q 3566 2609 3566 1747 
Q 3566 888 3137 398 
Q 2709 -91 1959 -91 
Q 1206 -91 779 398 
Q 353 888 353 1747 
Q 353 2609 779 3096 
Q 1206 3584 1959 3584 
z
" transform="scale(0.015625)"/>
       <path id="DejaVuSans-62" d="M 3116 1747 
Q 3116 2381 2855 2742 
Q 2594 3103 2138 3103 
Q 1681 3103 1420 2742 
Q 1159 2381 1159 1747 
Q 1159 1113 1420 752 
Q 1681 391 2138 391 
Q 2594 391 2855 752 
Q 3116 1113 3116 1747 
z
M 1159 2969 
Q 1341 3281 1617 3432 
Q 1894 3584 2278 3584 
Q 2916 3584 3314 3078 
Q 3713 2572 3713 1747 
Q 3713 922 3314 415 
Q 2916 -91 2278 -91 
Q 1894 -91 1617 61 
Q 1341 213 1159 525 
L 1159 0 
L 581 0 
L 581 4863 
L 1159 4863 
L 1159 2969 
z
" transform="scale(0.015625)"/>
       <path id="DejaVuSans-61" d="M 2194 1759 
Q 1497 1759 1228 1600 
Q 959 1441 959 1056 
Q 959 750 1161 570 
Q 1363 391 1709 391 
Q 2188 391 2477 730 
Q 2766 1069 2766 1631 
L 2766 1759 
L 2194 1759 
z
M 3341 1997 
L 3341 0 
L 2766 0 
L 2766 531 
Q 2569 213 2275 61 
Q 1981 -91 1556 -91 
Q 1019 -91 701 211 
Q 384 513 384 1019 
Q 384 1609 779 1909 
Q 1175 2209 1959 2209 
L 2766 2209 
L 2766 2266 
Q 2766 2663 2505 2880 
Q 2244 3097 1772 3097 
Q 1472 3097 1187 3025 
Q 903 2953 641 2809 
L 641 3341 
Q 956 3463 1253 3523 
Q 1550 3584 1831 3584 
Q 2591 3584 2966 3190 
Q 3341 2797 3341 1997 
z
" transform="scale(0.015625)"/>
       <path id="DejaVuSans-6c" d="M 603 4863 
L 1178 4863 
L 1178 0 
L 603 0 
L 603 4863 
z
" transform="scale(0.015625)"/>
       <path id="DejaVuSans-79" d="M 2059 -325 
Q 1816 -950 1584 -1140 
Q 1353 -1331 966 -1331 
L 506 -1331 
L 506 -850 
L 844 -850 
Q 1081 -850 1212 -737 
Q 1344 -625 1503 -206 
L 1606 56 
L 191 3500 
L 800 3500 
L 1894 763 
L 2988 3500 
L 3597 3500 
L 2059 -325 
z
" transform="scale(0.015625)"/>
       <path id="DejaVuSans-64" d="M 2906 2969 
L 2906 4863 
L 3481 4863 
L 3481 0 
L 2906 0 
L 2906 525 
Q 2725 213 2448 61 
Q 2172 -91 1784 -91 
Q 1150 -91 751 415 
Q 353 922 353 1747 
Q 353 2572 751 3078 
Q 1150 3584 1784 3584 
Q 2172 3584 2448 3432 
Q 2725 3281 2906 2969 
z
M 947 1747 
Q 947 1113 1208 752 
Q 1469 391 1925 391 
Q 2381 391 2643 752 
Q 2906 1113 2906 1747 
Q 2906 2381 2643 2742 
Q 2381 3103 1925 3103 
Q 1469 3103 1208 2742 
Q 947 2381 947 1747 
z
" transform="scale(0.015625)"/>
       <path id="DejaVuSans-6e" d="M 3513 2113 
L 3513 0 
L 2938 0 
L 2938 2094 
Q 2938 2591 2744 2837 
Q 2550 3084 2163 3084 
Q 1697 3084 1428 2787 
Q 1159 2491 1159 1978 
L 1159 0 
L 581 0 
L 581 3500 
L 1159 3500 
L 1159 2956 
Q 1366 3272 1645 3428 
Q 1925 3584 2291 3584 
Q 2894 3584 3203 3211 
Q 3513 2838 3513 2113 
z
" transform="scale(0.015625)"/>
      </defs>
      <use xlink:href="#DejaVuSans-70"/>
      <use xlink:href="#DejaVuSans-72" x="63.476562"/>
      <use xlink:href="#DejaVuSans-6f" x="102.339844"/>
      <use xlink:href="#DejaVuSans-62" x="163.521484"/>
      <use xlink:href="#DejaVuSans-61" x="226.998047"/>
      <use xlink:href="#DejaVuSans-62" x="288.277344"/>
      <use xlink:href="#DejaVuSans-69" x="351.753906"/>
      <use xlink:href="#DejaVuSans-6c" x="379.537109"/>
      <use xlink:href="#DejaVuSans-69" x="407.320312"/>
      <use xlink:href="#DejaVuSans-74" x="435.103516"/>
      <use xlink:href="#DejaVuSans-79" x="474.3125"/>
      <use xlink:href="#DejaVuSans-20" x="533.492188"/>
      <use xlink:href="#DejaVuSans-64" x="565.279297"/>
      <use xlink:href="#DejaVuSans-65" x="628.755859"/>
      <use xlink:href="#DejaVuSans-6e" x="690.279297"/>
      <use xlink:href="#DejaVuSans-73" x="753.658203"/>
      <use xlink:href="#DejaVuSans-69" x="805.757812"/>
      <use xlink:href="#DejaVuSans-74" x="833.541016"/>
      <use xlink:href="#DejaVuSans-79" x="872.75"/>
     </g>
    </g>
   </g>
   <g id="LineCollection_1">
    <path d="M 185.599046 295.488 
L 185.599046 67.83834 
" clip-path="url(#pf8fc133751)" style="fill: none; stroke: #1f77b4; stroke-width: 1.5"/>
   </g>
   <g id="patch_3">
    <path d="M 57.6 307.584 
L 57.6 41.472 
" style="fill: none; stroke: #000000; stroke-width: 0.8; stroke-linejoin: miter; stroke-linecap: square"/>
   </g>
   <g id="patch_4">
    <path d="M 414.72 307.584 
L 414.72 41.472 
" style="fill: none; stroke: #000000; stroke-width: 0.8; stroke-linejoin: miter; stroke-linecap: square"/>
   </g>
   <g id="patch_5">
    <path d="M 57.6 307.584 
L 414.72 307.584 
" style="fill: none; stroke: #000000; stroke-width: 0.8; stroke-linejoin: miter; stroke-linecap: square"/>
   </g>
   <g id="patch_6">
    <path d="M 57.6 41.472 
L 414.72 41.472 
" style="fill: none; stroke: #000000; stroke-width: 0.8; stroke-linejoin: miter; stroke-linecap: square"/>
   </g>
   <g id="text_9">
    <!-- ls -->
    <g transform="translate(231.3675 35.472) scale(0.12 -0.12)">
     <use xlink:href="#DejaVuSans-6c"/>
     <use xlink:href="#DejaVuSans-73" x="27.783203"/>
    </g>
   </g>
  </g>
 </g>
 <defs>
  <clipPath id="pf8fc133751">
   <rect x="57.6" y="41.472" width="357.12" height="266.112"/>
  </clipPath>
 </defs>
</svg>
