<?xml version="1.0" encoding="utf-8" standalone="no"?>
<!DOCTYPE svg PUBLIC "-//W3C//DTD SVG 1.1//EN"
  "http://www.w3.org/Graphics/SVG/1.1/DTD/svg11.dtd">
<svg xmlns:xlink="http://www.w3.org/1999/xlink" width="460.8pt" height="345.6pt" viewBox="0 0 460.8 345.6" xmlns="http://www.w3.org/2000/svg" version="1.1">
 <metadata>
  <rdf:RDF xmlns:dc="http://purl.org/dc/elements/1.1/" xmlns:cc="http://creativecommons.org/ns#" xmlns:rdf="http://www.w3.org/1999/02/22-rdf-syntax-ns#">
   <cc:Work>
    <dc:type rdf:resource="http://purl.org/dc/dcmitype/StillImage"/>
    <dc:date>2024-01-11T22:51:42.138411</dc:date>
    <dc:format>image/svg+xml</dc:format>
    <dc:creator>
     <cc:Agent>
      <dc:title>Matplotlib v3.7.0, https://matplotlib.org/</dc:title>
     </cc:Agent>
    </dc:creator>
   </cc:Work>
  </rdf:RDF>
 </metadata>
 <defs>
  <style type="text/css">*{stroke-linejoin: round; stroke-linecap: butt}</style>
 </defs>
 <g id="figure_1">
  <g id="patch_1">
   <path d="M 0 345.6 
L 460.8 345.6 
L 460.8 0 
L 0 0 
z
" style="fill: #ffffff"/>
  </g>
  <g id="axes_1">
   <g id="patch_2">
    <path d="M 57.6 307.584 
L 414.72 307.584 
L 414.72 41.472 
L 57.6 41.472 
z
" style="fill: #ffffff"/>
   </g>
   <g id="PolyCollection_1">
    <path d="M 73.832727 283.932938 
L 73.832727 283.932938 
L 75.731292 283.892961 
L 77.629856 283.835527 
L 79.528421 283.747836 
L 81.426986 283.619045 
L 83.32555 283.44102 
L 85.224115 283.208785 
L 85.224115 282.92067 
L 87.122679 282.578208 
L 89.021244 282.185814 
L 90.919809 281.75029 
L 92.818373 281.280198 
L 94.716938 280.785127 
L 94.716938 280.274853 
L 96.615502 279.758435 
L 98.514067 279.243284 
L 100.412632 278.734275 
L 102.311196 278.233008 
L 104.209761 277.737311 
L 106.108325 277.241085 
L 106.108325 276.734526 
L 108.00689 276.204709 
L 109.905455 275.636478 
L 111.804019 275.013511 
L 113.702584 274.319436 
L 115.601148 273.538861 
L 117.499713 272.658232 
L 117.499713 271.666438 
L 119.398278 270.555118 
L 121.296842 269.318655 
L 123.195407 267.953823 
L 125.093971 266.459103 
L 126.992536 264.833681 
L 128.8911 263.076234 
L 128.8911 261.183653 
L 130.789665 259.149925 
L 132.68823 256.965461 
L 134.586794 254.617085 
L 136.485359 252.088865 
L 138.383923 249.36378 
L 140.282488 246.426029 
L 140.282488 243.263613 
L 142.181053 239.870691 
L 144.079617 236.249181 
L 145.978182 232.409176 
L 147.876746 228.367968 
L 149.775311 224.147739 
L 151.673876 219.7723 
L 151.673876 215.263488 
L 153.57244 210.637949 
L 155.471005 205.905 
L 157.369569 201.066069 
L 159.268134 196.115891 
L 161.166699 191.045266 
L 163.065263 185.844888 
L 163.065263 180.509486 
L 164.963828 175.041486 
L 166.862392 169.453487 
L 168.760957 163.76905 
L 170.659522 158.021644 
L 172.558086 152.251856 
L 174.456651 146.503287 
L 174.456651 140.817718 
L 176.355215 135.230258 
L 178.25378 129.765187 
L 180.152344 124.433157 
L 182.050909 119.230297 
L 183.949474 114.13954 
L 185.848038 109.134259 
L 185.848038 104.183915 
L 187.746603 99.261116 
L 189.645167 94.349114 
L 191.543732 89.448607 
L 193.442297 84.582623 
L 195.340861 79.798488 
L 197.239426 75.166263 
L 197.239426 70.773604 
L 199.13799 66.717621 
L 201.036555 63.094846 
L 202.93512 59.990832 
L 204.833684 57.470959 
L 206.732249 55.573855 
L 208.630813 54.30839 
L 208.630813 53.654566 
L 210.529378 53.568 
L 212.427943 53.987092 
L 214.326507 54.841636 
L 216.225072 56.061464 
L 218.123636 57.583869 
L 218.123636 59.358844 
L 220.022201 61.35164 
L 221.920766 63.542606 
L 223.81933 65.924693 
L 225.717895 68.499304 
L 227.616459 71.271342 
L 229.515024 74.244302 
L 229.515024 77.416181 
L 231.413589 80.776732 
L 233.312153 84.306385 
L 235.210718 87.976859 
L 237.109282 91.753254 
L 239.007847 95.597226 
L 240.906411 99.470713 
L 240.906411 103.339649 
L 242.804976 107.177184 
L 244.703541 110.96599 
L 246.602105 114.699455 
L 248.50067 118.381672 
L 250.399234 122.026292 
L 252.297799 125.654394 
L 252.297799 129.291582 
L 254.196364 132.964595 
L 256.094928 136.697723 
L 257.993493 140.509436 
L 259.892057 144.409646 
L 261.790622 148.398053 
L 263.689187 152.463919 
L 263.689187 156.587455 
L 265.587751 160.742691 
L 267.486316 164.901394 
L 269.38488 169.037301 
L 271.283445 173.129819 
L 273.18201 177.166367 
L 275.080574 181.14284 
L 275.080574 185.062046 
L 276.979139 188.930502 
L 278.877703 192.7543 
L 280.776268 196.535032 
L 282.674833 200.266721 
L 284.573397 203.934482 
L 286.471962 207.515235 
L 286.471962 210.980352 
L 288.370526 214.299722 
L 290.269091 217.446444 
L 292.167656 220.401296 
L 294.06622 223.156167 
L 295.964785 225.715922 
L 297.863349 228.098394 
L 297.863349 230.332589 
L 299.761914 232.455387 
L 301.660478 234.507286 
L 303.559043 236.527815 
L 305.457608 238.551237 
L 307.356172 240.603103 
L 309.254737 242.698043 
L 309.254737 244.838981 
L 311.153301 247.017736 
L 313.051866 249.216793 
L 314.950431 251.411871 
L 316.848995 253.574868 
L 318.74756 255.676765 
L 320.646124 257.690155 
L 320.646124 259.591206 
L 322.544689 261.360963 
L 324.443254 262.986052 
L 326.341818 264.458864 
L 328.240383 265.777375 
L 330.138947 266.944696 
L 330.138947 267.968451 
L 332.037512 268.860039 
L 333.936077 269.633824 
L 335.834641 270.306299 
L 337.733206 270.895272 
L 339.63177 271.419146 
L 341.530335 271.896317 
L 341.530335 272.344722 
L 343.4289 272.781507 
L 345.327464 273.222767 
L 347.226029 273.683275 
L 349.124593 274.176138 
L 351.023158 274.712332 
L 352.921722 275.300143 
L 352.921722 275.944553 
L 354.820287 276.646699 
L 356.718852 277.403503 
L 358.617416 278.207604 
L 360.515981 279.047664 
L 362.414545 279.90906 
L 364.31311 280.774947 
L 364.31311 281.627571 
L 366.211675 282.44971 
L 368.110239 283.226073 
L 370.008804 283.94449 
L 371.907368 284.596759 
L 373.805933 285.179059 
L 375.704498 285.69189 
L 375.704498 286.139576 
L 377.603062 286.529427 
L 379.501627 286.870691 
L 381.400191 287.173457 
L 383.298756 287.447654 
L 385.197321 287.702247 
L 387.095885 287.944703 
L 387.095885 288.180701 
L 388.99445 288.414054 
L 390.893014 288.646748 
L 392.791579 288.87902 
L 394.690144 289.109426 
L 396.588708 289.334877 
L 398.487273 289.550679 
L 398.487273 289.550679 
L 398.487273 295.488 
L 396.588708 295.488 
L 394.690144 295.488 
L 392.791579 295.488 
L 390.893014 295.488 
L 388.99445 295.488 
L 387.095885 295.488 
L 387.095885 295.488 
L 385.197321 295.488 
L 383.298756 295.488 
L 381.400191 295.488 
L 379.501627 295.488 
L 377.603062 295.488 
L 375.704498 295.488 
L 375.704498 295.488 
L 373.805933 295.488 
L 371.907368 295.488 
L 370.008804 295.488 
L 368.110239 295.488 
L 366.211675 295.488 
L 364.31311 295.488 
L 364.31311 295.488 
L 362.414545 295.488 
L 360.515981 295.488 
L 358.617416 295.488 
L 356.718852 295.488 
L 354.820287 295.488 
L 352.921722 295.488 
L 352.921722 295.488 
L 351.023158 295.488 
L 349.124593 295.488 
L 347.226029 295.488 
L 345.327464 295.488 
L 343.4289 295.488 
L 341.530335 295.488 
L 341.530335 295.488 
L 339.63177 295.488 
L 337.733206 295.488 
L 335.834641 295.488 
L 333.936077 295.488 
L 332.037512 295.488 
L 330.138947 295.488 
L 330.138947 295.488 
L 328.240383 295.488 
L 326.341818 295.488 
L 324.443254 295.488 
L 322.544689 295.488 
L 320.646124 295.488 
L 320.646124 295.488 
L 318.74756 295.488 
L 316.848995 295.488 
L 314.950431 295.488 
L 313.051866 295.488 
L 311.153301 295.488 
L 309.254737 295.488 
L 309.254737 295.488 
L 307.356172 295.488 
L 305.457608 295.488 
L 303.559043 295.488 
L 301.660478 295.488 
L 299.761914 295.488 
L 297.863349 295.488 
L 297.863349 295.488 
L 295.964785 295.488 
L 294.06622 295.488 
L 292.167656 295.488 
L 290.269091 295.488 
L 288.370526 295.488 
L 286.471962 295.488 
L 286.471962 295.488 
L 284.573397 295.488 
L 282.674833 295.488 
L 280.776268 295.488 
L 278.877703 295.488 
L 276.979139 295.488 
L 275.080574 295.488 
L 275.080574 295.488 
L 273.18201 295.488 
L 271.283445 295.488 
L 269.38488 295.488 
L 267.486316 295.488 
L 265.587751 295.488 
L 263.689187 295.488 
L 263.689187 295.488 
L 261.790622 295.488 
L 259.892057 295.488 
L 257.993493 295.488 
L 256.094928 295.488 
L 254.196364 295.488 
L 252.297799 295.488 
L 252.297799 295.488 
L 250.399234 295.488 
L 248.50067 295.488 
L 246.602105 295.488 
L 244.703541 295.488 
L 242.804976 295.488 
L 240.906411 295.488 
L 240.906411 295.488 
L 239.007847 295.488 
L 237.109282 295.488 
L 235.210718 295.488 
L 233.312153 295.488 
L 231.413589 295.488 
L 229.515024 295.488 
L 229.515024 295.488 
L 227.616459 295.488 
L 225.717895 295.488 
L 223.81933 295.488 
L 221.920766 295.488 
L 220.022201 295.488 
L 218.123636 295.488 
L 218.123636 295.488 
L 216.225072 295.488 
L 214.326507 295.488 
L 212.427943 295.488 
L 210.529378 295.488 
L 208.630813 295.488 
L 208.630813 295.488 
L 206.732249 295.488 
L 204.833684 295.488 
L 202.93512 295.488 
L 201.036555 295.488 
L 199.13799 295.488 
L 197.239426 295.488 
L 197.239426 295.488 
L 195.340861 295.488 
L 193.442297 295.488 
L 191.543732 295.488 
L 189.645167 295.488 
L 187.746603 295.488 
L 185.848038 295.488 
L 185.848038 295.488 
L 183.949474 295.488 
L 182.050909 295.488 
L 180.152344 295.488 
L 178.25378 295.488 
L 176.355215 295.488 
L 174.456651 295.488 
L 174.456651 295.488 
L 172.558086 295.488 
L 170.659522 295.488 
L 168.760957 295.488 
L 166.862392 295.488 
L 164.963828 295.488 
L 163.065263 295.488 
L 163.065263 295.488 
L 161.166699 295.488 
L 159.268134 295.488 
L 157.369569 295.488 
L 155.471005 295.488 
L 153.57244 295.488 
L 151.673876 295.488 
L 151.673876 295.488 
L 149.775311 295.488 
L 147.876746 295.488 
L 145.978182 295.488 
L 144.079617 295.488 
L 142.181053 295.488 
L 140.282488 295.488 
L 140.282488 295.488 
L 138.383923 295.488 
L 136.485359 295.488 
L 134.586794 295.488 
L 132.68823 295.488 
L 130.789665 295.488 
L 128.8911 295.488 
L 128.8911 295.488 
L 126.992536 295.488 
L 125.093971 295.488 
L 123.195407 295.488 
L 121.296842 295.488 
L 119.398278 295.488 
L 117.499713 295.488 
L 117.499713 295.488 
L 115.601148 295.488 
L 113.702584 295.488 
L 111.804019 295.488 
L 109.905455 295.488 
L 108.00689 295.488 
L 106.108325 295.488 
L 106.108325 295.488 
L 104.209761 295.488 
L 102.311196 295.488 
L 100.412632 295.488 
L 98.514067 295.488 
L 96.615502 295.488 
L 94.716938 295.488 
L 94.716938 295.488 
L 92.818373 295.488 
L 90.919809 295.488 
L 89.021244 295.488 
L 87.122679 295.488 
L 85.224115 295.488 
L 85.224115 295.488 
L 83.32555 295.488 
L 81.426986 295.488 
L 79.528421 295.488 
L 77.629856 295.488 
L 75.731292 295.488 
L 73.832727 295.488 
z
" clip-path="url(#p8876b634d0)" style="fill: #1f77b4; fill-opacity: 0.25"/>
   </g>
   <g id="matplotlib.axis_1">
    <g id="xtick_1">
     <g id="line2d_1">
      <defs>
       <path id="mba684b6a20" d="M 0 0 
L 0 3.5 
" style="stroke: #000000; stroke-width: 0.8"/>
      </defs>
      <g>
       <use xlink:href="#mba684b6a20" x="70.035598" y="307.584" style="stroke: #000000; stroke-width: 0.8"/>
      </g>
     </g>
     <g id="text_1">
      <!-- 0.002775 -->
      <g transform="translate(46.177786 322.182437) scale(0.1 -0.1)">
       <defs>
        <path id="DejaVuSans-30" d="M 2034 4250 
Q 1547 4250 1301 3770 
Q 1056 3291 1056 2328 
Q 1056 1369 1301 889 
Q 1547 409 2034 409 
Q 2525 409 2770 889 
Q 3016 1369 3016 2328 
Q 3016 3291 2770 3770 
Q 2525 4250 2034 4250 
z
M 2034 4750 
Q 2819 4750 3233 4129 
Q 3647 3509 3647 2328 
Q 3647 1150 3233 529 
Q 2819 -91 2034 -91 
Q 1250 -91 836 529 
Q 422 1150 422 2328 
Q 422 3509 836 4129 
Q 1250 4750 2034 4750 
z
" transform="scale(0.015625)"/>
        <path id="DejaVuSans-2e" d="M 684 794 
L 1344 794 
L 1344 0 
L 684 0 
L 684 794 
z
" transform="scale(0.015625)"/>
        <path id="DejaVuSans-32" d="M 1228 531 
L 3431 531 
L 3431 0 
L 469 0 
L 469 531 
Q 828 903 1448 1529 
Q 2069 2156 2228 2338 
Q 2531 2678 2651 2914 
Q 2772 3150 2772 3378 
Q 2772 3750 2511 3984 
Q 2250 4219 1831 4219 
Q 1534 4219 1204 4116 
Q 875 4013 500 3803 
L 500 4441 
Q 881 4594 1212 4672 
Q 1544 4750 1819 4750 
Q 2544 4750 2975 4387 
Q 3406 4025 3406 3419 
Q 3406 3131 3298 2873 
Q 3191 2616 2906 2266 
Q 2828 2175 2409 1742 
Q 1991 1309 1228 531 
z
" transform="scale(0.015625)"/>
        <path id="DejaVuSans-37" d="M 525 4666 
L 3525 4666 
L 3525 4397 
L 1831 0 
L 1172 0 
L 2766 4134 
L 525 4134 
L 525 4666 
z
" transform="scale(0.015625)"/>
        <path id="DejaVuSans-35" d="M 691 4666 
L 3169 4666 
L 3169 4134 
L 1269 4134 
L 1269 2991 
Q 1406 3038 1543 3061 
Q 1681 3084 1819 3084 
Q 2600 3084 3056 2656 
Q 3513 2228 3513 1497 
Q 3513 744 3044 326 
Q 2575 -91 1722 -91 
Q 1428 -91 1123 -41 
Q 819 9 494 109 
L 494 744 
Q 775 591 1075 516 
Q 1375 441 1709 441 
Q 2250 441 2565 725 
Q 2881 1009 2881 1497 
Q 2881 1984 2565 2268 
Q 2250 2553 1709 2553 
Q 1456 2553 1204 2497 
Q 953 2441 691 2322 
L 691 4666 
z
" transform="scale(0.015625)"/>
       </defs>
       <use xlink:href="#DejaVuSans-30"/>
       <use xlink:href="#DejaVuSans-2e" x="63.623047"/>
       <use xlink:href="#DejaVuSans-30" x="95.410156"/>
       <use xlink:href="#DejaVuSans-30" x="159.033203"/>
       <use xlink:href="#DejaVuSans-32" x="222.65625"/>
       <use xlink:href="#DejaVuSans-37" x="286.279297"/>
       <use xlink:href="#DejaVuSans-37" x="349.902344"/>
       <use xlink:href="#DejaVuSans-35" x="413.525391"/>
      </g>
     </g>
    </g>
    <g id="xtick_2">
     <g id="line2d_2">
      <g>
       <use xlink:href="#mba684b6a20" x="117.499713" y="307.584" style="stroke: #000000; stroke-width: 0.8"/>
      </g>
     </g>
     <g id="text_2">
      <!-- 0.002800 -->
      <g transform="translate(93.6419 322.182437) scale(0.1 -0.1)">
       <defs>
        <path id="DejaVuSans-38" d="M 2034 2216 
Q 1584 2216 1326 1975 
Q 1069 1734 1069 1313 
Q 1069 891 1326 650 
Q 1584 409 2034 409 
Q 2484 409 2743 651 
Q 3003 894 3003 1313 
Q 3003 1734 2745 1975 
Q 2488 2216 2034 2216 
z
M 1403 2484 
Q 997 2584 770 2862 
Q 544 3141 544 3541 
Q 544 4100 942 4425 
Q 1341 4750 2034 4750 
Q 2731 4750 3128 4425 
Q 3525 4100 3525 3541 
Q 3525 3141 3298 2862 
Q 3072 2584 2669 2484 
Q 3125 2378 3379 2068 
Q 3634 1759 3634 1313 
Q 3634 634 3220 271 
Q 2806 -91 2034 -91 
Q 1263 -91 848 271 
Q 434 634 434 1313 
Q 434 1759 690 2068 
Q 947 2378 1403 2484 
z
M 1172 3481 
Q 1172 3119 1398 2916 
Q 1625 2713 2034 2713 
Q 2441 2713 2670 2916 
Q 2900 3119 2900 3481 
Q 2900 3844 2670 4047 
Q 2441 4250 2034 4250 
Q 1625 4250 1398 4047 
Q 1172 3844 1172 3481 
z
" transform="scale(0.015625)"/>
       </defs>
       <use xlink:href="#DejaVuSans-30"/>
       <use xlink:href="#DejaVuSans-2e" x="63.623047"/>
       <use xlink:href="#DejaVuSans-30" x="95.410156"/>
       <use xlink:href="#DejaVuSans-30" x="159.033203"/>
       <use xlink:href="#DejaVuSans-32" x="222.65625"/>
       <use xlink:href="#DejaVuSans-38" x="286.279297"/>
       <use xlink:href="#DejaVuSans-30" x="349.902344"/>
       <use xlink:href="#DejaVuSans-30" x="413.525391"/>
      </g>
     </g>
    </g>
    <g id="xtick_3">
     <g id="line2d_3">
      <g>
       <use xlink:href="#mba684b6a20" x="164.963828" y="307.584" style="stroke: #000000; stroke-width: 0.8"/>
      </g>
     </g>
     <g id="text_3">
      <!-- 0.002825 -->
      <g transform="translate(141.106015 322.182437) scale(0.1 -0.1)">
       <use xlink:href="#DejaVuSans-30"/>
       <use xlink:href="#DejaVuSans-2e" x="63.623047"/>
       <use xlink:href="#DejaVuSans-30" x="95.410156"/>
       <use xlink:href="#DejaVuSans-30" x="159.033203"/>
       <use xlink:href="#DejaVuSans-32" x="222.65625"/>
       <use xlink:href="#DejaVuSans-38" x="286.279297"/>
       <use xlink:href="#DejaVuSans-32" x="349.902344"/>
       <use xlink:href="#DejaVuSans-35" x="413.525391"/>
      </g>
     </g>
    </g>
    <g id="xtick_4">
     <g id="line2d_4">
      <g>
       <use xlink:href="#mba684b6a20" x="212.427943" y="307.584" style="stroke: #000000; stroke-width: 0.8"/>
      </g>
     </g>
     <g id="text_4">
      <!-- 0.002850 -->
      <g transform="translate(188.57013 322.182437) scale(0.1 -0.1)">
       <use xlink:href="#DejaVuSans-30"/>
       <use xlink:href="#DejaVuSans-2e" x="63.623047"/>
       <use xlink:href="#DejaVuSans-30" x="95.410156"/>
       <use xlink:href="#DejaVuSans-30" x="159.033203"/>
       <use xlink:href="#DejaVuSans-32" x="222.65625"/>
       <use xlink:href="#DejaVuSans-38" x="286.279297"/>
       <use xlink:href="#DejaVuSans-35" x="349.902344"/>
       <use xlink:href="#DejaVuSans-30" x="413.525391"/>
      </g>
     </g>
    </g>
    <g id="xtick_5">
     <g id="line2d_5">
      <g>
       <use xlink:href="#mba684b6a20" x="259.892057" y="307.584" style="stroke: #000000; stroke-width: 0.8"/>
      </g>
     </g>
     <g id="text_5">
      <!-- 0.002875 -->
      <g transform="translate(236.034245 322.182437) scale(0.1 -0.1)">
       <use xlink:href="#DejaVuSans-30"/>
       <use xlink:href="#DejaVuSans-2e" x="63.623047"/>
       <use xlink:href="#DejaVuSans-30" x="95.410156"/>
       <use xlink:href="#DejaVuSans-30" x="159.033203"/>
       <use xlink:href="#DejaVuSans-32" x="222.65625"/>
       <use xlink:href="#DejaVuSans-38" x="286.279297"/>
       <use xlink:href="#DejaVuSans-37" x="349.902344"/>
       <use xlink:href="#DejaVuSans-35" x="413.525391"/>
      </g>
     </g>
    </g>
    <g id="xtick_6">
     <g id="line2d_6">
      <g>
       <use xlink:href="#mba684b6a20" x="307.356172" y="307.584" style="stroke: #000000; stroke-width: 0.8"/>
      </g>
     </g>
     <g id="text_6">
      <!-- 0.002900 -->
      <g transform="translate(283.49836 322.182437) scale(0.1 -0.1)">
       <defs>
        <path id="DejaVuSans-39" d="M 703 97 
L 703 672 
Q 941 559 1184 500 
Q 1428 441 1663 441 
Q 2288 441 2617 861 
Q 2947 1281 2994 2138 
Q 2813 1869 2534 1725 
Q 2256 1581 1919 1581 
Q 1219 1581 811 2004 
Q 403 2428 403 3163 
Q 403 3881 828 4315 
Q 1253 4750 1959 4750 
Q 2769 4750 3195 4129 
Q 3622 3509 3622 2328 
Q 3622 1225 3098 567 
Q 2575 -91 1691 -91 
Q 1453 -91 1209 -44 
Q 966 3 703 97 
z
M 1959 2075 
Q 2384 2075 2632 2365 
Q 2881 2656 2881 3163 
Q 2881 3666 2632 3958 
Q 2384 4250 1959 4250 
Q 1534 4250 1286 3958 
Q 1038 3666 1038 3163 
Q 1038 2656 1286 2365 
Q 1534 2075 1959 2075 
z
" transform="scale(0.015625)"/>
       </defs>
       <use xlink:href="#DejaVuSans-30"/>
       <use xlink:href="#DejaVuSans-2e" x="63.623047"/>
       <use xlink:href="#DejaVuSans-30" x="95.410156"/>
       <use xlink:href="#DejaVuSans-30" x="159.033203"/>
       <use xlink:href="#DejaVuSans-32" x="222.65625"/>
       <use xlink:href="#DejaVuSans-39" x="286.279297"/>
       <use xlink:href="#DejaVuSans-30" x="349.902344"/>
       <use xlink:href="#DejaVuSans-30" x="413.525391"/>
      </g>
     </g>
    </g>
    <g id="xtick_7">
     <g id="line2d_7">
      <g>
       <use xlink:href="#mba684b6a20" x="354.820287" y="307.584" style="stroke: #000000; stroke-width: 0.8"/>
      </g>
     </g>
     <g id="text_7">
      <!-- 0.002925 -->
      <g transform="translate(330.962475 322.182437) scale(0.1 -0.1)">
       <use xlink:href="#DejaVuSans-30"/>
       <use xlink:href="#DejaVuSans-2e" x="63.623047"/>
       <use xlink:href="#DejaVuSans-30" x="95.410156"/>
       <use xlink:href="#DejaVuSans-30" x="159.033203"/>
       <use xlink:href="#DejaVuSans-32" x="222.65625"/>
       <use xlink:href="#DejaVuSans-39" x="286.279297"/>
       <use xlink:href="#DejaVuSans-32" x="349.902344"/>
       <use xlink:href="#DejaVuSans-35" x="413.525391"/>
      </g>
     </g>
    </g>
    <g id="xtick_8">
     <g id="line2d_8">
      <g>
       <use xlink:href="#mba684b6a20" x="402.284402" y="307.584" style="stroke: #000000; stroke-width: 0.8"/>
      </g>
     </g>
     <g id="text_8">
      <!-- 0.002950 -->
      <g transform="translate(378.426589 322.182437) scale(0.1 -0.1)">
       <use xlink:href="#DejaVuSans-30"/>
       <use xlink:href="#DejaVuSans-2e" x="63.623047"/>
       <use xlink:href="#DejaVuSans-30" x="95.410156"/>
       <use xlink:href="#DejaVuSans-30" x="159.033203"/>
       <use xlink:href="#DejaVuSans-32" x="222.65625"/>
       <use xlink:href="#DejaVuSans-39" x="286.279297"/>
       <use xlink:href="#DejaVuSans-35" x="349.902344"/>
       <use xlink:href="#DejaVuSans-30" x="413.525391"/>
      </g>
     </g>
    </g>
    <g id="text_9">
     <!-- time [s] -->
     <g transform="translate(216.768594 335.860562) scale(0.1 -0.1)">
      <defs>
       <path id="DejaVuSans-74" d="M 1172 4494 
L 1172 3500 
L 2356 3500 
L 2356 3053 
L 1172 3053 
L 1172 1153 
Q 1172 725 1289 603 
Q 1406 481 1766 481 
L 2356 481 
L 2356 0 
L 1766 0 
Q 1100 0 847 248 
Q 594 497 594 1153 
L 594 3053 
L 172 3053 
L 172 3500 
L 594 3500 
L 594 4494 
L 1172 4494 
z
" transform="scale(0.015625)"/>
       <path id="DejaVuSans-69" d="M 603 3500 
L 1178 3500 
L 1178 0 
L 603 0 
L 603 3500 
z
M 603 4863 
L 1178 4863 
L 1178 4134 
L 603 4134 
L 603 4863 
z
" transform="scale(0.015625)"/>
       <path id="DejaVuSans-6d" d="M 3328 2828 
Q 3544 3216 3844 3400 
Q 4144 3584 4550 3584 
Q 5097 3584 5394 3201 
Q 5691 2819 5691 2113 
L 5691 0 
L 5113 0 
L 5113 2094 
Q 5113 2597 4934 2840 
Q 4756 3084 4391 3084 
Q 3944 3084 3684 2787 
Q 3425 2491 3425 1978 
L 3425 0 
L 2847 0 
L 2847 2094 
Q 2847 2600 2669 2842 
Q 2491 3084 2119 3084 
Q 1678 3084 1418 2786 
Q 1159 2488 1159 1978 
L 1159 0 
L 581 0 
L 581 3500 
L 1159 3500 
L 1159 2956 
Q 1356 3278 1631 3431 
Q 1906 3584 2284 3584 
Q 2666 3584 2933 3390 
Q 3200 3197 3328 2828 
z
" transform="scale(0.015625)"/>
       <path id="DejaVuSans-65" d="M 3597 1894 
L 3597 1613 
L 953 1613 
Q 991 1019 1311 708 
Q 1631 397 2203 397 
Q 2534 397 2845 478 
Q 3156 559 3463 722 
L 3463 178 
Q 3153 47 2828 -22 
Q 2503 -91 2169 -91 
Q 1331 -91 842 396 
Q 353 884 353 1716 
Q 353 2575 817 3079 
Q 1281 3584 2069 3584 
Q 2775 3584 3186 3129 
Q 3597 2675 3597 1894 
z
M 3022 2063 
Q 3016 2534 2758 2815 
Q 2500 3097 2075 3097 
Q 1594 3097 1305 2825 
Q 1016 2553 972 2059 
L 3022 2063 
z
" transform="scale(0.015625)"/>
       <path id="DejaVuSans-20" transform="scale(0.015625)"/>
       <path id="DejaVuSans-5b" d="M 550 4863 
L 1875 4863 
L 1875 4416 
L 1125 4416 
L 1125 -397 
L 1875 -397 
L 1875 -844 
L 550 -844 
L 550 4863 
z
" transform="scale(0.015625)"/>
       <path id="DejaVuSans-73" d="M 2834 3397 
L 2834 2853 
Q 2591 2978 2328 3040 
Q 2066 3103 1784 3103 
Q 1356 3103 1142 2972 
Q 928 2841 928 2578 
Q 928 2378 1081 2264 
Q 1234 2150 1697 2047 
L 1894 2003 
Q 2506 1872 2764 1633 
Q 3022 1394 3022 966 
Q 3022 478 2636 193 
Q 2250 -91 1575 -91 
Q 1294 -91 989 -36 
Q 684 19 347 128 
L 347 722 
Q 666 556 975 473 
Q 1284 391 1588 391 
Q 1994 391 2212 530 
Q 2431 669 2431 922 
Q 2431 1156 2273 1281 
Q 2116 1406 1581 1522 
L 1381 1569 
Q 847 1681 609 1914 
Q 372 2147 372 2553 
Q 372 3047 722 3315 
Q 1072 3584 1716 3584 
Q 2034 3584 2315 3537 
Q 2597 3491 2834 3397 
z
" transform="scale(0.015625)"/>
       <path id="DejaVuSans-5d" d="M 1947 4863 
L 1947 -844 
L 622 -844 
L 622 -397 
L 1369 -397 
L 1369 4416 
L 622 4416 
L 622 4863 
L 1947 4863 
z
" transform="scale(0.015625)"/>
      </defs>
      <use xlink:href="#DejaVuSans-74"/>
      <use xlink:href="#DejaVuSans-69" x="39.208984"/>
      <use xlink:href="#DejaVuSans-6d" x="66.992188"/>
      <use xlink:href="#DejaVuSans-65" x="164.404297"/>
      <use xlink:href="#DejaVuSans-20" x="225.927734"/>
      <use xlink:href="#DejaVuSans-5b" x="257.714844"/>
      <use xlink:href="#DejaVuSans-73" x="296.728516"/>
      <use xlink:href="#DejaVuSans-5d" x="348.828125"/>
     </g>
    </g>
   </g>
   <g id="matplotlib.axis_2">
    <g id="ytick_1"/>
    <g id="ytick_2"/>
    <g id="ytick_3"/>
    <g id="ytick_4"/>
    <g id="ytick_5"/>
    <g id="ytick_6"/>
    <g id="ytick_7"/>
    <g id="ytick_8"/>
    <g id="text_10">
     <!-- probability density -->
     <g transform="translate(51.520312 221.125656) rotate(-90) scale(0.1 -0.1)">
      <defs>
       <path id="DejaVuSans-70" d="M 1159 525 
L 1159 -1331 
L 581 -1331 
L 581 3500 
L 1159 3500 
L 1159 2969 
Q 1341 3281 1617 3432 
Q 1894 3584 2278 3584 
Q 2916 3584 3314 3078 
Q 3713 2572 3713 1747 
Q 3713 922 3314 415 
Q 2916 -91 2278 -91 
Q 1894 -91 1617 61 
Q 1341 213 1159 525 
z
M 3116 1747 
Q 3116 2381 2855 2742 
Q 2594 3103 2138 3103 
Q 1681 3103 1420 2742 
Q 1159 2381 1159 1747 
Q 1159 1113 1420 752 
Q 1681 391 2138 391 
Q 2594 391 2855 752 
Q 3116 1113 3116 1747 
z
" transform="scale(0.015625)"/>
       <path id="DejaVuSans-72" d="M 2631 2963 
Q 2534 3019 2420 3045 
Q 2306 3072 2169 3072 
Q 1681 3072 1420 2755 
Q 1159 2438 1159 1844 
L 1159 0 
L 581 0 
L 581 3500 
L 1159 3500 
L 1159 2956 
Q 1341 3275 1631 3429 
Q 1922 3584 2338 3584 
Q 2397 3584 2469 3576 
Q 2541 3569 2628 3553 
L 2631 2963 
z
" transform="scale(0.015625)"/>
       <path id="DejaVuSans-6f" d="M 1959 3097 
Q 1497 3097 1228 2736 
Q 959 2375 959 1747 
Q 959 1119 1226 758 
Q 1494 397 1959 397 
Q 2419 397 2687 759 
Q 2956 1122 2956 1747 
Q 2956 2369 2687 2733 
Q 2419 3097 1959 3097 
z
M 1959 3584 
Q 2709 3584 3137 3096 
Q 3566 2609 3566 1747 
Q 3566 888 3137 398 
Q 2709 -91 1959 -91 
Q 1206 -91 779 398 
Q 353 888 353 1747 
Q 353 2609 779 3096 
Q 1206 3584 1959 3584 
z
" transform="scale(0.015625)"/>
       <path id="DejaVuSans-62" d="M 3116 1747 
Q 3116 2381 2855 2742 
Q 2594 3103 2138 3103 
Q 1681 3103 1420 2742 
Q 1159 2381 1159 1747 
Q 1159 1113 1420 752 
Q 1681 391 2138 391 
Q 2594 391 2855 752 
Q 3116 1113 3116 1747 
z
M 1159 2969 
Q 1341 3281 1617 3432 
Q 1894 3584 2278 3584 
Q 2916 3584 3314 3078 
Q 3713 2572 3713 1747 
Q 3713 922 3314 415 
Q 2916 -91 2278 -91 
Q 1894 -91 1617 61 
Q 1341 213 1159 525 
L 1159 0 
L 581 0 
L 581 4863 
L 1159 4863 
L 1159 2969 
z
" transform="scale(0.015625)"/>
       <path id="DejaVuSans-61" d="M 2194 1759 
Q 1497 1759 1228 1600 
Q 959 1441 959 1056 
Q 959 750 1161 570 
Q 1363 391 1709 391 
Q 2188 391 2477 730 
Q 2766 1069 2766 1631 
L 2766 1759 
L 2194 1759 
z
M 3341 1997 
L 3341 0 
L 2766 0 
L 2766 531 
Q 2569 213 2275 61 
Q 1981 -91 1556 -91 
Q 1019 -91 701 211 
Q 384 513 384 1019 
Q 384 1609 779 1909 
Q 1175 2209 1959 2209 
L 2766 2209 
L 2766 2266 
Q 2766 2663 2505 2880 
Q 2244 3097 1772 3097 
Q 1472 3097 1187 3025 
Q 903 2953 641 2809 
L 641 3341 
Q 956 3463 1253 3523 
Q 1550 3584 1831 3584 
Q 2591 3584 2966 3190 
Q 3341 2797 3341 1997 
z
" transform="scale(0.015625)"/>
       <path id="DejaVuSans-6c" d="M 603 4863 
L 1178 4863 
L 1178 0 
L 603 0 
L 603 4863 
z
" transform="scale(0.015625)"/>
       <path id="DejaVuSans-79" d="M 2059 -325 
Q 1816 -950 1584 -1140 
Q 1353 -1331 966 -1331 
L 506 -1331 
L 506 -850 
L 844 -850 
Q 1081 -850 1212 -737 
Q 1344 -625 1503 -206 
L 1606 56 
L 191 3500 
L 800 3500 
L 1894 763 
L 2988 3500 
L 3597 3500 
L 2059 -325 
z
" transform="scale(0.015625)"/>
       <path id="DejaVuSans-64" d="M 2906 2969 
L 2906 4863 
L 3481 4863 
L 3481 0 
L 2906 0 
L 2906 525 
Q 2725 213 2448 61 
Q 2172 -91 1784 -91 
Q 1150 -91 751 415 
Q 353 922 353 1747 
Q 353 2572 751 3078 
Q 1150 3584 1784 3584 
Q 2172 3584 2448 3432 
Q 2725 3281 2906 2969 
z
M 947 1747 
Q 947 1113 1208 752 
Q 1469 391 1925 391 
Q 2381 391 2643 752 
Q 2906 1113 2906 1747 
Q 2906 2381 2643 2742 
Q 2381 3103 1925 3103 
Q 1469 3103 1208 2742 
Q 947 2381 947 1747 
z
" transform="scale(0.015625)"/>
       <path id="DejaVuSans-6e" d="M 3513 2113 
L 3513 0 
L 2938 0 
L 2938 2094 
Q 2938 2591 2744 2837 
Q 2550 3084 2163 3084 
Q 1697 3084 1428 2787 
Q 1159 2491 1159 1978 
L 1159 0 
L 581 0 
L 581 3500 
L 1159 3500 
L 1159 2956 
Q 1366 3272 1645 3428 
Q 1925 3584 2291 3584 
Q 2894 3584 3203 3211 
Q 3513 2838 3513 2113 
z
" transform="scale(0.015625)"/>
      </defs>
      <use xlink:href="#DejaVuSans-70"/>
      <use xlink:href="#DejaVuSans-72" x="63.476562"/>
      <use xlink:href="#DejaVuSans-6f" x="102.339844"/>
      <use xlink:href="#DejaVuSans-62" x="163.521484"/>
      <use xlink:href="#DejaVuSans-61" x="226.998047"/>
      <use xlink:href="#DejaVuSans-62" x="288.277344"/>
      <use xlink:href="#DejaVuSans-69" x="351.753906"/>
      <use xlink:href="#DejaVuSans-6c" x="379.537109"/>
      <use xlink:href="#DejaVuSans-69" x="407.320312"/>
      <use xlink:href="#DejaVuSans-74" x="435.103516"/>
      <use xlink:href="#DejaVuSans-79" x="474.3125"/>
      <use xlink:href="#DejaVuSans-20" x="533.492188"/>
      <use xlink:href="#DejaVuSans-64" x="565.279297"/>
      <use xlink:href="#DejaVuSans-65" x="628.755859"/>
      <use xlink:href="#DejaVuSans-6e" x="690.279297"/>
      <use xlink:href="#DejaVuSans-73" x="753.658203"/>
      <use xlink:href="#DejaVuSans-69" x="805.757812"/>
      <use xlink:href="#DejaVuSans-74" x="833.541016"/>
      <use xlink:href="#DejaVuSans-79" x="872.75"/>
     </g>
    </g>
   </g>
   <g id="LineCollection_1">
    <path d="M 244.703541 295.488 
L 244.703541 110.914956 
" clip-path="url(#p8876b634d0)" style="fill: none; stroke: #1f77b4; stroke-width: 1.5"/>
   </g>
   <g id="patch_3">
    <path d="M 57.6 307.584 
L 57.6 41.472 
" style="fill: none; stroke: #000000; stroke-width: 0.8; stroke-linejoin: miter; stroke-linecap: square"/>
   </g>
   <g id="patch_4">
    <path d="M 414.72 307.584 
L 414.72 41.472 
" style="fill: none; stroke: #000000; stroke-width: 0.8; stroke-linejoin: miter; stroke-linecap: square"/>
   </g>
   <g id="patch_5">
    <path d="M 57.6 307.584 
L 414.72 307.584 
" style="fill: none; stroke: #000000; stroke-width: 0.8; stroke-linejoin: miter; stroke-linecap: square"/>
   </g>
   <g id="patch_6">
    <path d="M 57.6 41.472 
L 414.72 41.472 
" style="fill: none; stroke: #000000; stroke-width: 0.8; stroke-linejoin: miter; stroke-linecap: square"/>
   </g>
   <g id="text_11">
    <!-- ls -->
    <g transform="translate(231.3675 35.472) scale(0.12 -0.12)">
     <use xlink:href="#DejaVuSans-6c"/>
     <use xlink:href="#DejaVuSans-73" x="27.783203"/>
    </g>
   </g>
  </g>
 </g>
 <defs>
  <clipPath id="p8876b634d0">
   <rect x="57.6" y="41.472" width="357.12" height="266.112"/>
  </clipPath>
 </defs>
</svg>
