<?xml version="1.0" encoding="utf-8" standalone="no"?>
<!DOCTYPE svg PUBLIC "-//W3C//DTD SVG 1.1//EN"
  "http://www.w3.org/Graphics/SVG/1.1/DTD/svg11.dtd">
<svg xmlns:xlink="http://www.w3.org/1999/xlink" width="460.8pt" height="345.6pt" viewBox="0 0 460.8 345.6" xmlns="http://www.w3.org/2000/svg" version="1.1">
 <metadata>
  <rdf:RDF xmlns:dc="http://purl.org/dc/elements/1.1/" xmlns:cc="http://creativecommons.org/ns#" xmlns:rdf="http://www.w3.org/1999/02/22-rdf-syntax-ns#">
   <cc:Work>
    <dc:type rdf:resource="http://purl.org/dc/dcmitype/StillImage"/>
    <dc:date>2024-01-11T22:51:42.905153</dc:date>
    <dc:format>image/svg+xml</dc:format>
    <dc:creator>
     <cc:Agent>
      <dc:title>Matplotlib v3.7.0, https://matplotlib.org/</dc:title>
     </cc:Agent>
    </dc:creator>
   </cc:Work>
  </rdf:RDF>
 </metadata>
 <defs>
  <style type="text/css">*{stroke-linejoin: round; stroke-linecap: butt}</style>
 </defs>
 <g id="figure_1">
  <g id="patch_1">
   <path d="M 0 345.6 
L 460.8 345.6 
L 460.8 0 
L 0 0 
z
" style="fill: #ffffff"/>
  </g>
  <g id="axes_1">
   <g id="patch_2">
    <path d="M 57.6 307.584 
L 414.72 307.584 
L 414.72 41.472 
L 57.6 41.472 
z
" style="fill: #ffffff"/>
   </g>
   <g id="PolyCollection_1">
    <path d="M 73.832727 142.875536 
L 73.832727 142.875536 
L 75.542857 136.091645 
L 77.162979 129.382262 
L 78.783102 122.777878 
L 80.403224 116.309263 
L 82.023347 110.007239 
L 83.643469 103.90245 
L 85.263592 98.025127 
L 86.883714 92.404851 
L 88.593843 87.070312 
L 90.213966 82.049073 
L 91.834088 77.36733 
L 93.454211 73.049681 
L 95.074333 69.118898 
L 96.694456 65.595709 
L 98.314578 62.498587 
L 99.934701 59.843554 
L 101.554823 57.644004 
L 103.264952 55.910539 
L 104.885075 54.650826 
L 106.505197 53.869487 
L 108.12532 53.568 
L 109.745442 53.744647 
L 111.365565 54.394481 
L 112.985687 55.509325 
L 114.60581 57.07782 
L 116.315939 59.085486 
L 117.936062 61.514843 
L 119.556184 64.345545 
L 121.176307 67.554561 
L 122.796429 71.116383 
L 124.416552 75.00327 
L 126.036674 79.185507 
L 127.656797 83.6317 
L 129.366926 88.309081 
L 130.987048 93.183833 
L 132.607171 98.221422 
L 134.227293 103.386937 
L 135.847416 108.645421 
L 137.467538 113.962212 
L 139.087661 119.303255 
L 140.707783 124.635412 
L 142.417913 129.926744 
L 144.038035 135.146774 
L 145.658158 140.266718 
L 147.27828 145.259689 
L 148.898403 150.100861 
L 150.518525 154.76761 
L 152.138648 159.239611 
L 153.75877 163.498906 
L 155.468899 167.529935 
L 157.089022 171.31954 
L 158.709144 174.856935 
L 160.329267 178.133658 
L 161.949389 181.143492 
L 163.569512 183.882377 
L 165.189634 186.348303 
L 166.809757 188.541194 
L 168.429879 190.462789 
L 170.140009 192.116521 
L 171.760131 193.507391 
L 173.380254 194.641858 
L 175.000376 195.527725 
L 176.620499 196.174036 
L 178.240621 196.590983 
L 179.860744 196.789817 
L 181.480866 196.782768 
L 183.190995 196.582972 
L 184.811118 196.204397 
L 186.43124 195.661775 
L 188.051363 194.970526 
L 189.671485 194.146689 
L 191.291608 193.206833 
L 192.91173 192.167971 
L 194.531853 191.047456 
L 196.241982 189.862871 
L 197.862104 188.631909 
L 199.482227 187.372233 
L 201.102349 186.101336 
L 202.722472 184.836391 
L 204.342594 183.594092 
L 205.962717 182.390493 
L 207.582839 181.240856 
L 209.292969 180.159493 
L 210.913091 179.159622 
L 212.533214 178.253239 
L 214.153336 177.450998 
L 215.773459 176.762115 
L 217.393581 176.194295 
L 219.013704 175.753673 
L 220.633826 175.444792 
L 222.343955 175.270595 
L 223.964078 175.232447 
L 225.5842 175.330177 
L 227.204323 175.562143 
L 228.824445 175.925313 
L 230.444568 176.415368 
L 232.06469 177.026809 
L 233.684813 177.753084 
L 235.304935 178.586715 
L 237.015065 179.519429 
L 238.635187 180.542297 
L 240.25531 181.645866 
L 241.875432 182.820286 
L 243.495555 184.055441 
L 245.115677 185.341062 
L 246.7358 186.666849 
L 248.355922 188.02257 
L 250.066051 189.398169 
L 251.686174 190.78385 
L 253.306296 192.170173 
L 254.926419 193.548128 
L 256.546541 194.909217 
L 258.166664 196.245517 
L 259.786786 197.549746 
L 261.406909 198.815323 
L 263.117038 200.036418 
L 264.737161 201.207996 
L 266.357283 202.325853 
L 267.977406 203.386646 
L 269.597528 204.387907 
L 271.217651 205.328054 
L 272.837773 206.206382 
L 274.457896 207.023047 
L 276.168025 207.779035 
L 277.788147 208.47612 
L 279.40827 209.116804 
L 281.028392 209.704252 
L 282.648515 210.242208 
L 284.268637 210.734913 
L 285.88876 211.187004 
L 287.508882 211.603416 
L 289.219012 211.989278 
L 290.839134 212.349812 
L 292.459256 212.69023 
L 294.079379 213.015646 
L 295.699501 213.330985 
L 297.319624 213.640909 
L 298.939746 213.949759 
L 300.559869 214.261495 
L 302.179991 214.579672 
L 303.890121 214.907409 
L 305.510243 215.24739 
L 307.130366 215.601864 
L 308.750488 215.972668 
L 310.370611 216.361257 
L 311.990733 216.768737 
L 313.610856 217.195914 
L 315.230978 217.643344 
L 316.941107 218.111376 
L 318.56123 218.600213 
L 320.181352 219.109946 
L 321.801475 219.64061 
L 323.421597 220.192211 
L 325.04172 220.764761 
L 326.661842 221.358296 
L 328.281965 221.972887 
L 329.992094 222.608647 
L 331.612217 223.265723 
L 333.232339 223.944284 
L 334.852462 224.644502 
L 336.472584 225.366521 
L 338.092707 226.110435 
L 339.712829 226.876247 
L 341.332952 227.663843 
L 343.043081 228.472957 
L 344.663203 229.303136 
L 346.283326 230.153723 
L 347.903448 231.023827 
L 349.523571 231.912313 
L 351.143693 232.817795 
L 352.763816 233.738633 
L 354.383938 234.672948 
L 356.094068 235.618628 
L 357.71419 236.573363 
L 359.334313 237.534664 
L 360.954435 238.499912 
L 362.574558 239.466389 
L 364.19468 240.431329 
L 365.814803 241.391964 
L 367.434925 242.345571 
L 369.055048 243.289521 
L 370.765177 244.221327 
L 372.385299 245.138679 
L 374.005422 246.039496 
L 375.625544 246.921947 
L 377.245667 247.784488 
L 378.865789 248.625877 
L 380.485912 249.445197 
L 382.106034 250.241857 
L 383.816164 251.015603 
L 385.436286 251.766504 
L 387.056408 252.494948 
L 388.676531 253.201626 
L 390.296653 253.887509 
L 391.916776 254.553819 
L 393.536898 255.20201 
L 395.157021 255.833723 
L 396.86715 256.450758 
L 398.487273 257.055035 
L 398.487273 257.055035 
L 398.487273 295.488 
L 396.86715 295.488 
L 395.157021 295.488 
L 393.536898 295.488 
L 391.916776 295.488 
L 390.296653 295.488 
L 388.676531 295.488 
L 387.056408 295.488 
L 385.436286 295.488 
L 383.816164 295.488 
L 382.106034 295.488 
L 380.485912 295.488 
L 378.865789 295.488 
L 377.245667 295.488 
L 375.625544 295.488 
L 374.005422 295.488 
L 372.385299 295.488 
L 370.765177 295.488 
L 369.055048 295.488 
L 367.434925 295.488 
L 365.814803 295.488 
L 364.19468 295.488 
L 362.574558 295.488 
L 360.954435 295.488 
L 359.334313 295.488 
L 357.71419 295.488 
L 356.094068 295.488 
L 354.383938 295.488 
L 352.763816 295.488 
L 351.143693 295.488 
L 349.523571 295.488 
L 347.903448 295.488 
L 346.283326 295.488 
L 344.663203 295.488 
L 343.043081 295.488 
L 341.332952 295.488 
L 339.712829 295.488 
L 338.092707 295.488 
L 336.472584 295.488 
L 334.852462 295.488 
L 333.232339 295.488 
L 331.612217 295.488 
L 329.992094 295.488 
L 328.281965 295.488 
L 326.661842 295.488 
L 325.04172 295.488 
L 323.421597 295.488 
L 321.801475 295.488 
L 320.181352 295.488 
L 318.56123 295.488 
L 316.941107 295.488 
L 315.230978 295.488 
L 313.610856 295.488 
L 311.990733 295.488 
L 310.370611 295.488 
L 308.750488 295.488 
L 307.130366 295.488 
L 305.510243 295.488 
L 303.890121 295.488 
L 302.179991 295.488 
L 300.559869 295.488 
L 298.939746 295.488 
L 297.319624 295.488 
L 295.699501 295.488 
L 294.079379 295.488 
L 292.459256 295.488 
L 290.839134 295.488 
L 289.219012 295.488 
L 287.508882 295.488 
L 285.88876 295.488 
L 284.268637 295.488 
L 282.648515 295.488 
L 281.028392 295.488 
L 279.40827 295.488 
L 277.788147 295.488 
L 276.168025 295.488 
L 274.457896 295.488 
L 272.837773 295.488 
L 271.217651 295.488 
L 269.597528 295.488 
L 267.977406 295.488 
L 266.357283 295.488 
L 264.737161 295.488 
L 263.117038 295.488 
L 261.406909 295.488 
L 259.786786 295.488 
L 258.166664 295.488 
L 256.546541 295.488 
L 254.926419 295.488 
L 253.306296 295.488 
L 251.686174 295.488 
L 250.066051 295.488 
L 248.355922 295.488 
L 246.7358 295.488 
L 245.115677 295.488 
L 243.495555 295.488 
L 241.875432 295.488 
L 240.25531 295.488 
L 238.635187 295.488 
L 237.015065 295.488 
L 235.304935 295.488 
L 233.684813 295.488 
L 232.06469 295.488 
L 230.444568 295.488 
L 228.824445 295.488 
L 227.204323 295.488 
L 225.5842 295.488 
L 223.964078 295.488 
L 222.343955 295.488 
L 220.633826 295.488 
L 219.013704 295.488 
L 217.393581 295.488 
L 215.773459 295.488 
L 214.153336 295.488 
L 212.533214 295.488 
L 210.913091 295.488 
L 209.292969 295.488 
L 207.582839 295.488 
L 205.962717 295.488 
L 204.342594 295.488 
L 202.722472 295.488 
L 201.102349 295.488 
L 199.482227 295.488 
L 197.862104 295.488 
L 196.241982 295.488 
L 194.531853 295.488 
L 192.91173 295.488 
L 191.291608 295.488 
L 189.671485 295.488 
L 188.051363 295.488 
L 186.43124 295.488 
L 184.811118 295.488 
L 183.190995 295.488 
L 181.480866 295.488 
L 179.860744 295.488 
L 178.240621 295.488 
L 176.620499 295.488 
L 175.000376 295.488 
L 173.380254 295.488 
L 171.760131 295.488 
L 170.140009 295.488 
L 168.429879 295.488 
L 166.809757 295.488 
L 165.189634 295.488 
L 163.569512 295.488 
L 161.949389 295.488 
L 160.329267 295.488 
L 158.709144 295.488 
L 157.089022 295.488 
L 155.468899 295.488 
L 153.75877 295.488 
L 152.138648 295.488 
L 150.518525 295.488 
L 148.898403 295.488 
L 147.27828 295.488 
L 145.658158 295.488 
L 144.038035 295.488 
L 142.417913 295.488 
L 140.707783 295.488 
L 139.087661 295.488 
L 137.467538 295.488 
L 135.847416 295.488 
L 134.227293 295.488 
L 132.607171 295.488 
L 130.987048 295.488 
L 129.366926 295.488 
L 127.656797 295.488 
L 126.036674 295.488 
L 124.416552 295.488 
L 122.796429 295.488 
L 121.176307 295.488 
L 119.556184 295.488 
L 117.936062 295.488 
L 116.315939 295.488 
L 114.60581 295.488 
L 112.985687 295.488 
L 111.365565 295.488 
L 109.745442 295.488 
L 108.12532 295.488 
L 106.505197 295.488 
L 104.885075 295.488 
L 103.264952 295.488 
L 101.554823 295.488 
L 99.934701 295.488 
L 98.314578 295.488 
L 96.694456 295.488 
L 95.074333 295.488 
L 93.454211 295.488 
L 91.834088 295.488 
L 90.213966 295.488 
L 88.593843 295.488 
L 86.883714 295.488 
L 85.263592 295.488 
L 83.643469 295.488 
L 82.023347 295.488 
L 80.403224 295.488 
L 78.783102 295.488 
L 77.162979 295.488 
L 75.542857 295.488 
L 73.832727 295.488 
z
" clip-path="url(#pb78b763f28)" style="fill: #1f77b4; fill-opacity: 0.25"/>
   </g>
   <g id="matplotlib.axis_1">
    <g id="xtick_1">
     <g id="line2d_1">
      <defs>
       <path id="mfbbbdbb089" d="M 0 0 
L 0 3.5 
" style="stroke: #000000; stroke-width: 0.8"/>
      </defs>
      <g>
       <use xlink:href="#mfbbbdbb089" x="80.043197" y="307.584" style="stroke: #000000; stroke-width: 0.8"/>
      </g>
     </g>
     <g id="text_1">
      <!-- 0.0065 -->
      <g transform="translate(62.547884 322.182437) scale(0.1 -0.1)">
       <defs>
        <path id="DejaVuSans-30" d="M 2034 4250 
Q 1547 4250 1301 3770 
Q 1056 3291 1056 2328 
Q 1056 1369 1301 889 
Q 1547 409 2034 409 
Q 2525 409 2770 889 
Q 3016 1369 3016 2328 
Q 3016 3291 2770 3770 
Q 2525 4250 2034 4250 
z
M 2034 4750 
Q 2819 4750 3233 4129 
Q 3647 3509 3647 2328 
Q 3647 1150 3233 529 
Q 2819 -91 2034 -91 
Q 1250 -91 836 529 
Q 422 1150 422 2328 
Q 422 3509 836 4129 
Q 1250 4750 2034 4750 
z
" transform="scale(0.015625)"/>
        <path id="DejaVuSans-2e" d="M 684 794 
L 1344 794 
L 1344 0 
L 684 0 
L 684 794 
z
" transform="scale(0.015625)"/>
        <path id="DejaVuSans-36" d="M 2113 2584 
Q 1688 2584 1439 2293 
Q 1191 2003 1191 1497 
Q 1191 994 1439 701 
Q 1688 409 2113 409 
Q 2538 409 2786 701 
Q 3034 994 3034 1497 
Q 3034 2003 2786 2293 
Q 2538 2584 2113 2584 
z
M 3366 4563 
L 3366 3988 
Q 3128 4100 2886 4159 
Q 2644 4219 2406 4219 
Q 1781 4219 1451 3797 
Q 1122 3375 1075 2522 
Q 1259 2794 1537 2939 
Q 1816 3084 2150 3084 
Q 2853 3084 3261 2657 
Q 3669 2231 3669 1497 
Q 3669 778 3244 343 
Q 2819 -91 2113 -91 
Q 1303 -91 875 529 
Q 447 1150 447 2328 
Q 447 3434 972 4092 
Q 1497 4750 2381 4750 
Q 2619 4750 2861 4703 
Q 3103 4656 3366 4563 
z
" transform="scale(0.015625)"/>
        <path id="DejaVuSans-35" d="M 691 4666 
L 3169 4666 
L 3169 4134 
L 1269 4134 
L 1269 2991 
Q 1406 3038 1543 3061 
Q 1681 3084 1819 3084 
Q 2600 3084 3056 2656 
Q 3513 2228 3513 1497 
Q 3513 744 3044 326 
Q 2575 -91 1722 -91 
Q 1428 -91 1123 -41 
Q 819 9 494 109 
L 494 744 
Q 775 591 1075 516 
Q 1375 441 1709 441 
Q 2250 441 2565 725 
Q 2881 1009 2881 1497 
Q 2881 1984 2565 2268 
Q 2250 2553 1709 2553 
Q 1456 2553 1204 2497 
Q 953 2441 691 2322 
L 691 4666 
z
" transform="scale(0.015625)"/>
       </defs>
       <use xlink:href="#DejaVuSans-30"/>
       <use xlink:href="#DejaVuSans-2e" x="63.623047"/>
       <use xlink:href="#DejaVuSans-30" x="95.410156"/>
       <use xlink:href="#DejaVuSans-30" x="159.033203"/>
       <use xlink:href="#DejaVuSans-36" x="222.65625"/>
       <use xlink:href="#DejaVuSans-35" x="286.279297"/>
      </g>
     </g>
    </g>
    <g id="xtick_2">
     <g id="line2d_2">
      <g>
       <use xlink:href="#mfbbbdbb089" x="125.046599" y="307.584" style="stroke: #000000; stroke-width: 0.8"/>
      </g>
     </g>
     <g id="text_2">
      <!-- 0.0070 -->
      <g transform="translate(107.551287 322.182437) scale(0.1 -0.1)">
       <defs>
        <path id="DejaVuSans-37" d="M 525 4666 
L 3525 4666 
L 3525 4397 
L 1831 0 
L 1172 0 
L 2766 4134 
L 525 4134 
L 525 4666 
z
" transform="scale(0.015625)"/>
       </defs>
       <use xlink:href="#DejaVuSans-30"/>
       <use xlink:href="#DejaVuSans-2e" x="63.623047"/>
       <use xlink:href="#DejaVuSans-30" x="95.410156"/>
       <use xlink:href="#DejaVuSans-30" x="159.033203"/>
       <use xlink:href="#DejaVuSans-37" x="222.65625"/>
       <use xlink:href="#DejaVuSans-30" x="286.279297"/>
      </g>
     </g>
    </g>
    <g id="xtick_3">
     <g id="line2d_3">
      <g>
       <use xlink:href="#mfbbbdbb089" x="170.050002" y="307.584" style="stroke: #000000; stroke-width: 0.8"/>
      </g>
     </g>
     <g id="text_3">
      <!-- 0.0075 -->
      <g transform="translate(152.554689 322.182437) scale(0.1 -0.1)">
       <use xlink:href="#DejaVuSans-30"/>
       <use xlink:href="#DejaVuSans-2e" x="63.623047"/>
       <use xlink:href="#DejaVuSans-30" x="95.410156"/>
       <use xlink:href="#DejaVuSans-30" x="159.033203"/>
       <use xlink:href="#DejaVuSans-37" x="222.65625"/>
       <use xlink:href="#DejaVuSans-35" x="286.279297"/>
      </g>
     </g>
    </g>
    <g id="xtick_4">
     <g id="line2d_4">
      <g>
       <use xlink:href="#mfbbbdbb089" x="215.053404" y="307.584" style="stroke: #000000; stroke-width: 0.8"/>
      </g>
     </g>
     <g id="text_4">
      <!-- 0.0080 -->
      <g transform="translate(197.558092 322.182437) scale(0.1 -0.1)">
       <defs>
        <path id="DejaVuSans-38" d="M 2034 2216 
Q 1584 2216 1326 1975 
Q 1069 1734 1069 1313 
Q 1069 891 1326 650 
Q 1584 409 2034 409 
Q 2484 409 2743 651 
Q 3003 894 3003 1313 
Q 3003 1734 2745 1975 
Q 2488 2216 2034 2216 
z
M 1403 2484 
Q 997 2584 770 2862 
Q 544 3141 544 3541 
Q 544 4100 942 4425 
Q 1341 4750 2034 4750 
Q 2731 4750 3128 4425 
Q 3525 4100 3525 3541 
Q 3525 3141 3298 2862 
Q 3072 2584 2669 2484 
Q 3125 2378 3379 2068 
Q 3634 1759 3634 1313 
Q 3634 634 3220 271 
Q 2806 -91 2034 -91 
Q 1263 -91 848 271 
Q 434 634 434 1313 
Q 434 1759 690 2068 
Q 947 2378 1403 2484 
z
M 1172 3481 
Q 1172 3119 1398 2916 
Q 1625 2713 2034 2713 
Q 2441 2713 2670 2916 
Q 2900 3119 2900 3481 
Q 2900 3844 2670 4047 
Q 2441 4250 2034 4250 
Q 1625 4250 1398 4047 
Q 1172 3844 1172 3481 
z
" transform="scale(0.015625)"/>
       </defs>
       <use xlink:href="#DejaVuSans-30"/>
       <use xlink:href="#DejaVuSans-2e" x="63.623047"/>
       <use xlink:href="#DejaVuSans-30" x="95.410156"/>
       <use xlink:href="#DejaVuSans-30" x="159.033203"/>
       <use xlink:href="#DejaVuSans-38" x="222.65625"/>
       <use xlink:href="#DejaVuSans-30" x="286.279297"/>
      </g>
     </g>
    </g>
    <g id="xtick_5">
     <g id="line2d_5">
      <g>
       <use xlink:href="#mfbbbdbb089" x="260.056807" y="307.584" style="stroke: #000000; stroke-width: 0.8"/>
      </g>
     </g>
     <g id="text_5">
      <!-- 0.0085 -->
      <g transform="translate(242.561494 322.182437) scale(0.1 -0.1)">
       <use xlink:href="#DejaVuSans-30"/>
       <use xlink:href="#DejaVuSans-2e" x="63.623047"/>
       <use xlink:href="#DejaVuSans-30" x="95.410156"/>
       <use xlink:href="#DejaVuSans-30" x="159.033203"/>
       <use xlink:href="#DejaVuSans-38" x="222.65625"/>
       <use xlink:href="#DejaVuSans-35" x="286.279297"/>
      </g>
     </g>
    </g>
    <g id="xtick_6">
     <g id="line2d_6">
      <g>
       <use xlink:href="#mfbbbdbb089" x="305.060209" y="307.584" style="stroke: #000000; stroke-width: 0.8"/>
      </g>
     </g>
     <g id="text_6">
      <!-- 0.0090 -->
      <g transform="translate(287.564897 322.182437) scale(0.1 -0.1)">
       <defs>
        <path id="DejaVuSans-39" d="M 703 97 
L 703 672 
Q 941 559 1184 500 
Q 1428 441 1663 441 
Q 2288 441 2617 861 
Q 2947 1281 2994 2138 
Q 2813 1869 2534 1725 
Q 2256 1581 1919 1581 
Q 1219 1581 811 2004 
Q 403 2428 403 3163 
Q 403 3881 828 4315 
Q 1253 4750 1959 4750 
Q 2769 4750 3195 4129 
Q 3622 3509 3622 2328 
Q 3622 1225 3098 567 
Q 2575 -91 1691 -91 
Q 1453 -91 1209 -44 
Q 966 3 703 97 
z
M 1959 2075 
Q 2384 2075 2632 2365 
Q 2881 2656 2881 3163 
Q 2881 3666 2632 3958 
Q 2384 4250 1959 4250 
Q 1534 4250 1286 3958 
Q 1038 3666 1038 3163 
Q 1038 2656 1286 2365 
Q 1534 2075 1959 2075 
z
" transform="scale(0.015625)"/>
       </defs>
       <use xlink:href="#DejaVuSans-30"/>
       <use xlink:href="#DejaVuSans-2e" x="63.623047"/>
       <use xlink:href="#DejaVuSans-30" x="95.410156"/>
       <use xlink:href="#DejaVuSans-30" x="159.033203"/>
       <use xlink:href="#DejaVuSans-39" x="222.65625"/>
       <use xlink:href="#DejaVuSans-30" x="286.279297"/>
      </g>
     </g>
    </g>
    <g id="xtick_7">
     <g id="line2d_7">
      <g>
       <use xlink:href="#mfbbbdbb089" x="350.063612" y="307.584" style="stroke: #000000; stroke-width: 0.8"/>
      </g>
     </g>
     <g id="text_7">
      <!-- 0.0095 -->
      <g transform="translate(332.568299 322.182437) scale(0.1 -0.1)">
       <use xlink:href="#DejaVuSans-30"/>
       <use xlink:href="#DejaVuSans-2e" x="63.623047"/>
       <use xlink:href="#DejaVuSans-30" x="95.410156"/>
       <use xlink:href="#DejaVuSans-30" x="159.033203"/>
       <use xlink:href="#DejaVuSans-39" x="222.65625"/>
       <use xlink:href="#DejaVuSans-35" x="286.279297"/>
      </g>
     </g>
    </g>
    <g id="xtick_8">
     <g id="line2d_8">
      <g>
       <use xlink:href="#mfbbbdbb089" x="395.067014" y="307.584" style="stroke: #000000; stroke-width: 0.8"/>
      </g>
     </g>
     <g id="text_8">
      <!-- 0.0100 -->
      <g transform="translate(377.571702 322.182437) scale(0.1 -0.1)">
       <defs>
        <path id="DejaVuSans-31" d="M 794 531 
L 1825 531 
L 1825 4091 
L 703 3866 
L 703 4441 
L 1819 4666 
L 2450 4666 
L 2450 531 
L 3481 531 
L 3481 0 
L 794 0 
L 794 531 
z
" transform="scale(0.015625)"/>
       </defs>
       <use xlink:href="#DejaVuSans-30"/>
       <use xlink:href="#DejaVuSans-2e" x="63.623047"/>
       <use xlink:href="#DejaVuSans-30" x="95.410156"/>
       <use xlink:href="#DejaVuSans-31" x="159.033203"/>
       <use xlink:href="#DejaVuSans-30" x="222.65625"/>
       <use xlink:href="#DejaVuSans-30" x="286.279297"/>
      </g>
     </g>
    </g>
    <g id="text_9">
     <!-- time [s] -->
     <g transform="translate(216.768594 335.860562) scale(0.1 -0.1)">
      <defs>
       <path id="DejaVuSans-74" d="M 1172 4494 
L 1172 3500 
L 2356 3500 
L 2356 3053 
L 1172 3053 
L 1172 1153 
Q 1172 725 1289 603 
Q 1406 481 1766 481 
L 2356 481 
L 2356 0 
L 1766 0 
Q 1100 0 847 248 
Q 594 497 594 1153 
L 594 3053 
L 172 3053 
L 172 3500 
L 594 3500 
L 594 4494 
L 1172 4494 
z
" transform="scale(0.015625)"/>
       <path id="DejaVuSans-69" d="M 603 3500 
L 1178 3500 
L 1178 0 
L 603 0 
L 603 3500 
z
M 603 4863 
L 1178 4863 
L 1178 4134 
L 603 4134 
L 603 4863 
z
" transform="scale(0.015625)"/>
       <path id="DejaVuSans-6d" d="M 3328 2828 
Q 3544 3216 3844 3400 
Q 4144 3584 4550 3584 
Q 5097 3584 5394 3201 
Q 5691 2819 5691 2113 
L 5691 0 
L 5113 0 
L 5113 2094 
Q 5113 2597 4934 2840 
Q 4756 3084 4391 3084 
Q 3944 3084 3684 2787 
Q 3425 2491 3425 1978 
L 3425 0 
L 2847 0 
L 2847 2094 
Q 2847 2600 2669 2842 
Q 2491 3084 2119 3084 
Q 1678 3084 1418 2786 
Q 1159 2488 1159 1978 
L 1159 0 
L 581 0 
L 581 3500 
L 1159 3500 
L 1159 2956 
Q 1356 3278 1631 3431 
Q 1906 3584 2284 3584 
Q 2666 3584 2933 3390 
Q 3200 3197 3328 2828 
z
" transform="scale(0.015625)"/>
       <path id="DejaVuSans-65" d="M 3597 1894 
L 3597 1613 
L 953 1613 
Q 991 1019 1311 708 
Q 1631 397 2203 397 
Q 2534 397 2845 478 
Q 3156 559 3463 722 
L 3463 178 
Q 3153 47 2828 -22 
Q 2503 -91 2169 -91 
Q 1331 -91 842 396 
Q 353 884 353 1716 
Q 353 2575 817 3079 
Q 1281 3584 2069 3584 
Q 2775 3584 3186 3129 
Q 3597 2675 3597 1894 
z
M 3022 2063 
Q 3016 2534 2758 2815 
Q 2500 3097 2075 3097 
Q 1594 3097 1305 2825 
Q 1016 2553 972 2059 
L 3022 2063 
z
" transform="scale(0.015625)"/>
       <path id="DejaVuSans-20" transform="scale(0.015625)"/>
       <path id="DejaVuSans-5b" d="M 550 4863 
L 1875 4863 
L 1875 4416 
L 1125 4416 
L 1125 -397 
L 1875 -397 
L 1875 -844 
L 550 -844 
L 550 4863 
z
" transform="scale(0.015625)"/>
       <path id="DejaVuSans-73" d="M 2834 3397 
L 2834 2853 
Q 2591 2978 2328 3040 
Q 2066 3103 1784 3103 
Q 1356 3103 1142 2972 
Q 928 2841 928 2578 
Q 928 2378 1081 2264 
Q 1234 2150 1697 2047 
L 1894 2003 
Q 2506 1872 2764 1633 
Q 3022 1394 3022 966 
Q 3022 478 2636 193 
Q 2250 -91 1575 -91 
Q 1294 -91 989 -36 
Q 684 19 347 128 
L 347 722 
Q 666 556 975 473 
Q 1284 391 1588 391 
Q 1994 391 2212 530 
Q 2431 669 2431 922 
Q 2431 1156 2273 1281 
Q 2116 1406 1581 1522 
L 1381 1569 
Q 847 1681 609 1914 
Q 372 2147 372 2553 
Q 372 3047 722 3315 
Q 1072 3584 1716 3584 
Q 2034 3584 2315 3537 
Q 2597 3491 2834 3397 
z
" transform="scale(0.015625)"/>
       <path id="DejaVuSans-5d" d="M 1947 4863 
L 1947 -844 
L 622 -844 
L 622 -397 
L 1369 -397 
L 1369 4416 
L 622 4416 
L 622 4863 
L 1947 4863 
z
" transform="scale(0.015625)"/>
      </defs>
      <use xlink:href="#DejaVuSans-74"/>
      <use xlink:href="#DejaVuSans-69" x="39.208984"/>
      <use xlink:href="#DejaVuSans-6d" x="66.992188"/>
      <use xlink:href="#DejaVuSans-65" x="164.404297"/>
      <use xlink:href="#DejaVuSans-20" x="225.927734"/>
      <use xlink:href="#DejaVuSans-5b" x="257.714844"/>
      <use xlink:href="#DejaVuSans-73" x="296.728516"/>
      <use xlink:href="#DejaVuSans-5d" x="348.828125"/>
     </g>
    </g>
   </g>
   <g id="matplotlib.axis_2">
    <g id="ytick_1"/>
    <g id="ytick_2"/>
    <g id="ytick_3"/>
    <g id="ytick_4"/>
    <g id="ytick_5"/>
    <g id="ytick_6"/>
    <g id="text_10">
     <!-- probability density -->
     <g transform="translate(51.520312 221.125656) rotate(-90) scale(0.1 -0.1)">
      <defs>
       <path id="DejaVuSans-70" d="M 1159 525 
L 1159 -1331 
L 581 -1331 
L 581 3500 
L 1159 3500 
L 1159 2969 
Q 1341 3281 1617 3432 
Q 1894 3584 2278 3584 
Q 2916 3584 3314 3078 
Q 3713 2572 3713 1747 
Q 3713 922 3314 415 
Q 2916 -91 2278 -91 
Q 1894 -91 1617 61 
Q 1341 213 1159 525 
z
M 3116 1747 
Q 3116 2381 2855 2742 
Q 2594 3103 2138 3103 
Q 1681 3103 1420 2742 
Q 1159 2381 1159 1747 
Q 1159 1113 1420 752 
Q 1681 391 2138 391 
Q 2594 391 2855 752 
Q 3116 1113 3116 1747 
z
" transform="scale(0.015625)"/>
       <path id="DejaVuSans-72" d="M 2631 2963 
Q 2534 3019 2420 3045 
Q 2306 3072 2169 3072 
Q 1681 3072 1420 2755 
Q 1159 2438 1159 1844 
L 1159 0 
L 581 0 
L 581 3500 
L 1159 3500 
L 1159 2956 
Q 1341 3275 1631 3429 
Q 1922 3584 2338 3584 
Q 2397 3584 2469 3576 
Q 2541 3569 2628 3553 
L 2631 2963 
z
" transform="scale(0.015625)"/>
       <path id="DejaVuSans-6f" d="M 1959 3097 
Q 1497 3097 1228 2736 
Q 959 2375 959 1747 
Q 959 1119 1226 758 
Q 1494 397 1959 397 
Q 2419 397 2687 759 
Q 2956 1122 2956 1747 
Q 2956 2369 2687 2733 
Q 2419 3097 1959 3097 
z
M 1959 3584 
Q 2709 3584 3137 3096 
Q 3566 2609 3566 1747 
Q 3566 888 3137 398 
Q 2709 -91 1959 -91 
Q 1206 -91 779 398 
Q 353 888 353 1747 
Q 353 2609 779 3096 
Q 1206 3584 1959 3584 
z
" transform="scale(0.015625)"/>
       <path id="DejaVuSans-62" d="M 3116 1747 
Q 3116 2381 2855 2742 
Q 2594 3103 2138 3103 
Q 1681 3103 1420 2742 
Q 1159 2381 1159 1747 
Q 1159 1113 1420 752 
Q 1681 391 2138 391 
Q 2594 391 2855 752 
Q 3116 1113 3116 1747 
z
M 1159 2969 
Q 1341 3281 1617 3432 
Q 1894 3584 2278 3584 
Q 2916 3584 3314 3078 
Q 3713 2572 3713 1747 
Q 3713 922 3314 415 
Q 2916 -91 2278 -91 
Q 1894 -91 1617 61 
Q 1341 213 1159 525 
L 1159 0 
L 581 0 
L 581 4863 
L 1159 4863 
L 1159 2969 
z
" transform="scale(0.015625)"/>
       <path id="DejaVuSans-61" d="M 2194 1759 
Q 1497 1759 1228 1600 
Q 959 1441 959 1056 
Q 959 750 1161 570 
Q 1363 391 1709 391 
Q 2188 391 2477 730 
Q 2766 1069 2766 1631 
L 2766 1759 
L 2194 1759 
z
M 3341 1997 
L 3341 0 
L 2766 0 
L 2766 531 
Q 2569 213 2275 61 
Q 1981 -91 1556 -91 
Q 1019 -91 701 211 
Q 384 513 384 1019 
Q 384 1609 779 1909 
Q 1175 2209 1959 2209 
L 2766 2209 
L 2766 2266 
Q 2766 2663 2505 2880 
Q 2244 3097 1772 3097 
Q 1472 3097 1187 3025 
Q 903 2953 641 2809 
L 641 3341 
Q 956 3463 1253 3523 
Q 1550 3584 1831 3584 
Q 2591 3584 2966 3190 
Q 3341 2797 3341 1997 
z
" transform="scale(0.015625)"/>
       <path id="DejaVuSans-6c" d="M 603 4863 
L 1178 4863 
L 1178 0 
L 603 0 
L 603 4863 
z
" transform="scale(0.015625)"/>
       <path id="DejaVuSans-79" d="M 2059 -325 
Q 1816 -950 1584 -1140 
Q 1353 -1331 966 -1331 
L 506 -1331 
L 506 -850 
L 844 -850 
Q 1081 -850 1212 -737 
Q 1344 -625 1503 -206 
L 1606 56 
L 191 3500 
L 800 3500 
L 1894 763 
L 2988 3500 
L 3597 3500 
L 2059 -325 
z
" transform="scale(0.015625)"/>
       <path id="DejaVuSans-64" d="M 2906 2969 
L 2906 4863 
L 3481 4863 
L 3481 0 
L 2906 0 
L 2906 525 
Q 2725 213 2448 61 
Q 2172 -91 1784 -91 
Q 1150 -91 751 415 
Q 353 922 353 1747 
Q 353 2572 751 3078 
Q 1150 3584 1784 3584 
Q 2172 3584 2448 3432 
Q 2725 3281 2906 2969 
z
M 947 1747 
Q 947 1113 1208 752 
Q 1469 391 1925 391 
Q 2381 391 2643 752 
Q 2906 1113 2906 1747 
Q 2906 2381 2643 2742 
Q 2381 3103 1925 3103 
Q 1469 3103 1208 2742 
Q 947 2381 947 1747 
z
" transform="scale(0.015625)"/>
       <path id="DejaVuSans-6e" d="M 3513 2113 
L 3513 0 
L 2938 0 
L 2938 2094 
Q 2938 2591 2744 2837 
Q 2550 3084 2163 3084 
Q 1697 3084 1428 2787 
Q 1159 2491 1159 1978 
L 1159 0 
L 581 0 
L 581 3500 
L 1159 3500 
L 1159 2956 
Q 1366 3272 1645 3428 
Q 1925 3584 2291 3584 
Q 2894 3584 3203 3211 
Q 3513 2838 3513 2113 
z
" transform="scale(0.015625)"/>
      </defs>
      <use xlink:href="#DejaVuSans-70"/>
      <use xlink:href="#DejaVuSans-72" x="63.476562"/>
      <use xlink:href="#DejaVuSans-6f" x="102.339844"/>
      <use xlink:href="#DejaVuSans-62" x="163.521484"/>
      <use xlink:href="#DejaVuSans-61" x="226.998047"/>
      <use xlink:href="#DejaVuSans-62" x="288.277344"/>
      <use xlink:href="#DejaVuSans-69" x="351.753906"/>
      <use xlink:href="#DejaVuSans-6c" x="379.537109"/>
      <use xlink:href="#DejaVuSans-69" x="407.320312"/>
      <use xlink:href="#DejaVuSans-74" x="435.103516"/>
      <use xlink:href="#DejaVuSans-79" x="474.3125"/>
      <use xlink:href="#DejaVuSans-20" x="533.492188"/>
      <use xlink:href="#DejaVuSans-64" x="565.279297"/>
      <use xlink:href="#DejaVuSans-65" x="628.755859"/>
      <use xlink:href="#DejaVuSans-6e" x="690.279297"/>
      <use xlink:href="#DejaVuSans-73" x="753.658203"/>
      <use xlink:href="#DejaVuSans-69" x="805.757812"/>
      <use xlink:href="#DejaVuSans-74" x="833.541016"/>
      <use xlink:href="#DejaVuSans-79" x="872.75"/>
     </g>
    </g>
   </g>
   <g id="LineCollection_1">
    <path d="M 197.322064 295.488 
L 197.322064 189.004531 
" clip-path="url(#pb78b763f28)" style="fill: none; stroke: #1f77b4; stroke-width: 1.5"/>
   </g>
   <g id="patch_3">
    <path d="M 57.6 307.584 
L 57.6 41.472 
" style="fill: none; stroke: #000000; stroke-width: 0.8; stroke-linejoin: miter; stroke-linecap: square"/>
   </g>
   <g id="patch_4">
    <path d="M 414.72 307.584 
L 414.72 41.472 
" style="fill: none; stroke: #000000; stroke-width: 0.8; stroke-linejoin: miter; stroke-linecap: square"/>
   </g>
   <g id="patch_5">
    <path d="M 57.6 307.584 
L 414.72 307.584 
" style="fill: none; stroke: #000000; stroke-width: 0.8; stroke-linejoin: miter; stroke-linecap: square"/>
   </g>
   <g id="patch_6">
    <path d="M 57.6 41.472 
L 414.72 41.472 
" style="fill: none; stroke: #000000; stroke-width: 0.8; stroke-linejoin: miter; stroke-linecap: square"/>
   </g>
   <g id="text_11">
    <!-- exa -->
    <g transform="translate(225.345 35.472) scale(0.12 -0.12)">
     <defs>
      <path id="DejaVuSans-78" d="M 3513 3500 
L 2247 1797 
L 3578 0 
L 2900 0 
L 1881 1375 
L 863 0 
L 184 0 
L 1544 1831 
L 300 3500 
L 978 3500 
L 1906 2253 
L 2834 3500 
L 3513 3500 
z
" transform="scale(0.015625)"/>
     </defs>
     <use xlink:href="#DejaVuSans-65"/>
     <use xlink:href="#DejaVuSans-78" x="59.773438"/>
     <use xlink:href="#DejaVuSans-61" x="118.953125"/>
    </g>
   </g>
  </g>
 </g>
 <defs>
  <clipPath id="pb78b763f28">
   <rect x="57.6" y="41.472" width="357.12" height="266.112"/>
  </clipPath>
 </defs>
</svg>
