<?xml version="1.0" encoding="utf-8" standalone="no"?>
<!DOCTYPE svg PUBLIC "-//W3C//DTD SVG 1.1//EN"
  "http://www.w3.org/Graphics/SVG/1.1/DTD/svg11.dtd">
<svg xmlns:xlink="http://www.w3.org/1999/xlink" width="460.8pt" height="345.6pt" viewBox="0 0 460.8 345.6" xmlns="http://www.w3.org/2000/svg" version="1.1">
 <metadata>
  <rdf:RDF xmlns:dc="http://purl.org/dc/elements/1.1/" xmlns:cc="http://creativecommons.org/ns#" xmlns:rdf="http://www.w3.org/1999/02/22-rdf-syntax-ns#">
   <cc:Work>
    <dc:type rdf:resource="http://purl.org/dc/dcmitype/StillImage"/>
    <dc:date>2024-01-11T22:51:41.785182</dc:date>
    <dc:format>image/svg+xml</dc:format>
    <dc:creator>
     <cc:Agent>
      <dc:title>Matplotlib v3.7.0, https://matplotlib.org/</dc:title>
     </cc:Agent>
    </dc:creator>
   </cc:Work>
  </rdf:RDF>
 </metadata>
 <defs>
  <style type="text/css">*{stroke-linejoin: round; stroke-linecap: butt}</style>
 </defs>
 <g id="figure_1">
  <g id="patch_1">
   <path d="M 0 345.6 
L 460.8 345.6 
L 460.8 0 
L 0 0 
z
" style="fill: #ffffff"/>
  </g>
  <g id="axes_1">
   <g id="patch_2">
    <path d="M 57.6 307.584 
L 414.72 307.584 
L 414.72 41.472 
L 57.6 41.472 
z
" style="fill: #ffffff"/>
   </g>
   <g id="PolyCollection_1">
    <path d="M 128.988213 295.488 
L 126.895424 295.488 
L 124.98342 294.618995 
L 123.554821 293.749989 
L 116.929422 292.880984 
L 92.991654 292.011979 
L 73.832727 291.142974 
L 91.222815 290.273968 
L 114.763102 289.404963 
L 124.027096 288.535958 
L 126.173995 287.666952 
L 126.866004 286.797947 
L 127.06728 285.928942 
L 127.339967 285.059937 
L 127.592975 284.190931 
L 127.645938 283.321926 
L 127.659902 282.452921 
L 127.780538 281.583915 
L 127.841787 280.71491 
L 127.82861 279.845905 
L 127.7715 278.976899 
L 127.76828 278.107894 
L 127.848425 277.238889 
L 127.872903 276.369884 
L 127.775366 275.500878 
L 127.784723 274.631873 
L 127.857683 273.762868 
L 127.84804 272.893862 
L 127.861138 272.024857 
L 127.87552 271.155852 
L 127.861536 270.286847 
L 127.90076 269.417841 
L 127.919987 268.548836 
L 127.915147 267.679831 
L 127.915945 266.810825 
L 127.919014 265.94182 
L 127.92244 265.072815 
L 127.916362 264.20381 
L 127.919106 263.334804 
L 127.89677 262.465799 
L 127.907087 261.596794 
L 127.916799 260.727788 
L 127.920646 259.858783 
L 127.937564 258.989778 
L 127.940103 258.120773 
L 127.927654 257.251767 
L 127.917269 256.382762 
L 127.933623 255.513757 
L 127.938082 254.644751 
L 127.922662 253.775746 
L 127.920221 252.906741 
L 127.937186 252.037735 
L 127.941629 251.16873 
L 127.941817 250.299725 
L 127.941818 249.43072 
L 127.941818 248.561714 
L 127.941818 247.692709 
L 127.941818 246.823704 
L 127.941815 245.954698 
L 127.941495 245.085693 
L 127.935506 244.216688 
L 127.918213 243.347683 
L 127.920927 242.478677 
L 127.918424 241.609672 
L 127.922117 240.740667 
L 127.937894 239.871661 
L 127.934031 239.002656 
L 127.917469 238.133651 
L 127.927123 237.264646 
L 127.940132 236.39564 
L 127.941781 235.526635 
L 127.941818 234.65763 
L 127.941818 233.788624 
L 127.941818 232.919619 
L 127.941818 232.050614 
L 127.941818 231.181608 
L 127.941818 230.312603 
L 127.941818 229.443598 
L 127.941818 228.574593 
L 127.941818 227.705587 
L 127.941818 226.836582 
L 127.941818 225.967577 
L 127.941818 225.098571 
L 127.941818 224.229566 
L 127.941818 223.360561 
L 127.941818 222.491556 
L 127.941818 221.62255 
L 127.941818 220.753545 
L 127.941818 219.88454 
L 127.941818 219.015534 
L 127.941818 218.146529 
L 127.941818 217.277524 
L 127.941818 216.408519 
L 127.941818 215.539513 
L 127.941796 214.670508 
L 127.940594 213.801503 
L 127.929142 212.932497 
L 127.916844 212.063492 
L 127.931563 211.194487 
L 127.930192 210.325482 
L 127.916674 209.456476 
L 127.966963 209.456476 
L 127.966963 209.456476 
L 127.953444 210.325482 
L 127.952073 211.194487 
L 127.966793 212.063492 
L 127.954495 212.932497 
L 127.943042 213.801503 
L 127.941841 214.670508 
L 127.941818 215.539513 
L 127.941818 216.408519 
L 127.941818 217.277524 
L 127.941818 218.146529 
L 127.941818 219.015534 
L 127.941818 219.88454 
L 127.941818 220.753545 
L 127.941818 221.62255 
L 127.941818 222.491556 
L 127.941818 223.360561 
L 127.941818 224.229566 
L 127.941818 225.098571 
L 127.941818 225.967577 
L 127.941818 226.836582 
L 127.941818 227.705587 
L 127.941818 228.574593 
L 127.941818 229.443598 
L 127.941818 230.312603 
L 127.941818 231.181608 
L 127.941818 232.050614 
L 127.941818 232.919619 
L 127.941818 233.788624 
L 127.941818 234.65763 
L 127.941855 235.526635 
L 127.943505 236.39564 
L 127.956514 237.264646 
L 127.966167 238.133651 
L 127.949606 239.002656 
L 127.945742 239.871661 
L 127.961519 240.740667 
L 127.965213 241.609672 
L 127.962709 242.478677 
L 127.965423 243.347683 
L 127.94813 244.216688 
L 127.942141 245.085693 
L 127.941821 245.954698 
L 127.941818 246.823704 
L 127.941818 247.692709 
L 127.941818 248.561714 
L 127.941818 249.43072 
L 127.94182 250.299725 
L 127.942007 251.16873 
L 127.94645 252.037735 
L 127.963415 252.906741 
L 127.960974 253.775746 
L 127.945554 254.644751 
L 127.950013 255.513757 
L 127.966368 256.382762 
L 127.955983 257.251767 
L 127.943533 258.120773 
L 127.946072 258.989778 
L 127.96299 259.858783 
L 127.966838 260.727788 
L 127.976549 261.596794 
L 127.986867 262.465799 
L 127.964531 263.334804 
L 127.967274 264.20381 
L 127.961196 265.072815 
L 127.964622 265.94182 
L 127.967691 266.810825 
L 127.968489 267.679831 
L 127.963649 268.548836 
L 127.982876 269.417841 
L 128.022101 270.286847 
L 128.008116 271.155852 
L 128.022498 272.024857 
L 128.035596 272.893862 
L 128.025954 273.762868 
L 128.098913 274.631873 
L 128.108271 275.500878 
L 128.010733 276.369884 
L 128.035211 277.238889 
L 128.115357 278.107894 
L 128.112136 278.976899 
L 128.055027 279.845905 
L 128.041849 280.71491 
L 128.103098 281.583915 
L 128.223734 282.452921 
L 128.237698 283.321926 
L 128.290661 284.190931 
L 128.543669 285.059937 
L 128.816357 285.928942 
L 129.017632 286.797947 
L 129.709641 287.666952 
L 131.85654 288.535958 
L 141.120534 289.404963 
L 164.660821 290.273968 
L 182.050909 291.142974 
L 162.891983 292.011979 
L 138.954215 292.880984 
L 132.328816 293.749989 
L 130.900216 294.618995 
L 128.988213 295.488 
z
" clip-path="url(#p91e84ad44a)" style="fill: #1f77b4; fill-opacity: 0.3"/>
   </g>
   <g id="PolyCollection_2">
    <path d="M 357.77436 203.061878 
L 330.982004 203.061878 
L 327.5482 201.551839 
L 323.696126 200.0418 
L 319.502186 198.531761 
L 315.076293 197.021722 
L 310.558311 195.511682 
L 306.111369 194.001643 
L 301.912397 192.491604 
L 298.140549 190.981565 
L 294.964364 189.471526 
L 292.528692 187.961487 
L 290.942546 186.451447 
L 290.269091 184.941408 
L 290.518953 183.431369 
L 291.647841 181.92133 
L 293.559082 180.411291 
L 296.111086 178.901251 
L 299.129107 177.391212 
L 302.419982 175.881173 
L 305.788082 174.371134 
L 309.050525 172.861095 
L 312.049909 171.351056 
L 314.663331 169.841016 
L 316.807203 168.330977 
L 318.438094 166.820938 
L 319.550427 165.310899 
L 320.172052 163.80086 
L 320.358675 162.290821 
L 320.18774 160.780781 
L 319.751994 159.270742 
L 319.152685 157.760703 
L 318.492345 156.250664 
L 317.867333 154.740625 
L 317.360676 153.230586 
L 317.035987 151.720546 
L 316.933342 150.210507 
L 317.067709 148.700468 
L 317.430131 147.190429 
L 317.991343 145.68039 
L 318.707152 144.17035 
L 319.524732 142.660311 
L 320.389008 141.150272 
L 321.248484 139.640233 
L 322.060033 138.130194 
L 322.792327 136.620155 
L 323.427661 135.110115 
L 323.962074 133.600076 
L 324.403793 132.090037 
L 324.770304 130.579998 
L 325.084577 129.069959 
L 325.371157 127.55992 
L 325.652822 126.04988 
L 325.948365 124.539841 
L 326.27167 123.029802 
L 326.631934 121.519763 
L 327.034578 120.009724 
L 327.482292 118.499685 
L 327.97576 116.989645 
L 328.513848 115.479606 
L 329.093317 113.969567 
L 329.708353 112.459528 
L 330.350287 110.949489 
L 331.007835 109.439449 
L 331.667966 107.92941 
L 332.317325 106.419371 
L 332.943926 104.909332 
L 333.538745 103.399293 
L 334.096855 101.889254 
L 334.617874 100.379214 
L 335.105658 98.869175 
L 335.567305 97.359136 
L 336.011722 95.849097 
L 336.448012 94.339058 
L 336.883994 92.829019 
L 337.325105 91.318979 
L 337.773821 89.80894 
L 338.229635 88.298901 
L 338.689494 86.788862 
L 339.148536 85.278823 
L 339.600909 83.768783 
L 340.040531 82.258744 
L 340.461668 80.748705 
L 340.859348 79.238666 
L 341.229615 77.728627 
L 341.56969 76.218588 
L 341.878057 74.708548 
L 342.154467 73.198509 
L 342.399827 71.68847 
L 342.615984 70.178431 
L 342.80541 68.668392 
L 342.970884 67.158353 
L 343.115234 65.648313 
L 343.241208 64.138274 
L 343.351475 62.628235 
L 343.448707 61.118196 
L 343.535644 59.608157 
L 343.615062 58.098118 
L 343.689602 56.588078 
L 343.761499 55.078039 
L 343.832278 53.568 
L 344.924085 53.568 
L 344.924085 53.568 
L 344.994864 55.078039 
L 345.066761 56.588078 
L 345.141302 58.098118 
L 345.22072 59.608157 
L 345.307657 61.118196 
L 345.404889 62.628235 
L 345.515156 64.138274 
L 345.641129 65.648313 
L 345.785479 67.158353 
L 345.950954 68.668392 
L 346.14038 70.178431 
L 346.356536 71.68847 
L 346.601897 73.198509 
L 346.878307 74.708548 
L 347.186674 76.218588 
L 347.526749 77.728627 
L 347.897015 79.238666 
L 348.294696 80.748705 
L 348.715833 82.258744 
L 349.155454 83.768783 
L 349.607828 85.278823 
L 350.06687 86.788862 
L 350.526729 88.298901 
L 350.982543 89.80894 
L 351.431259 91.318979 
L 351.87237 92.829019 
L 352.308352 94.339058 
L 352.744641 95.849097 
L 353.189059 97.359136 
L 353.650706 98.869175 
L 354.138489 100.379214 
L 354.659509 101.889254 
L 355.217618 103.399293 
L 355.812437 104.909332 
L 356.439039 106.419371 
L 357.088398 107.92941 
L 357.748528 109.439449 
L 358.406076 110.949489 
L 359.048011 112.459528 
L 359.663046 113.969567 
L 360.242516 115.479606 
L 360.780604 116.989645 
L 361.274072 118.499685 
L 361.721785 120.009724 
L 362.12443 121.519763 
L 362.484694 123.029802 
L 362.807999 124.539841 
L 363.103541 126.04988 
L 363.385207 127.55992 
L 363.671786 129.069959 
L 363.98606 130.579998 
L 364.352571 132.090037 
L 364.79429 133.600076 
L 365.328703 135.110115 
L 365.964037 136.620155 
L 366.696331 138.130194 
L 367.50788 139.640233 
L 368.367355 141.150272 
L 369.231631 142.660311 
L 370.049212 144.17035 
L 370.765021 145.68039 
L 371.326233 147.190429 
L 371.688655 148.700468 
L 371.823022 150.210507 
L 371.720377 151.720546 
L 371.395688 153.230586 
L 370.88903 154.740625 
L 370.264019 156.250664 
L 369.603678 157.760703 
L 369.004369 159.270742 
L 368.568623 160.780781 
L 368.397689 162.290821 
L 368.584312 163.80086 
L 369.205937 165.310899 
L 370.318269 166.820938 
L 371.949161 168.330977 
L 374.093032 169.841016 
L 376.706455 171.351056 
L 379.705839 172.861095 
L 382.968282 174.371134 
L 386.336381 175.881173 
L 389.627256 177.391212 
L 392.645278 178.901251 
L 395.197282 180.411291 
L 397.108522 181.92133 
L 398.237411 183.431369 
L 398.487273 184.941408 
L 397.813818 186.451447 
L 396.227672 187.961487 
L 393.791999 189.471526 
L 390.615814 190.981565 
L 386.843967 192.491604 
L 382.644995 194.001643 
L 378.198052 195.511682 
L 373.680071 197.021722 
L 369.254177 198.531761 
L 365.060238 200.0418 
L 361.208164 201.551839 
L 357.77436 203.061878 
z
" clip-path="url(#p91e84ad44a)" style="fill: #1f77b4; fill-opacity: 0.3"/>
   </g>
   <g id="matplotlib.axis_1">
    <g id="xtick_1">
     <g id="line2d_1">
      <defs>
       <path id="md27af95532" d="M 0 0 
L 0 3.5 
" style="stroke: #000000; stroke-width: 0.8"/>
      </defs>
      <g>
       <use xlink:href="#md27af95532" x="127.941818" y="307.584" style="stroke: #000000; stroke-width: 0.8"/>
      </g>
     </g>
     <g id="text_1">
      <!-- ls -->
      <g transform="translate(123.948068 322.182437) scale(0.1 -0.1)">
       <defs>
        <path id="DejaVuSans-6c" d="M 603 4863 
L 1178 4863 
L 1178 0 
L 603 0 
L 603 4863 
z
" transform="scale(0.015625)"/>
        <path id="DejaVuSans-73" d="M 2834 3397 
L 2834 2853 
Q 2591 2978 2328 3040 
Q 2066 3103 1784 3103 
Q 1356 3103 1142 2972 
Q 928 2841 928 2578 
Q 928 2378 1081 2264 
Q 1234 2150 1697 2047 
L 1894 2003 
Q 2506 1872 2764 1633 
Q 3022 1394 3022 966 
Q 3022 478 2636 193 
Q 2250 -91 1575 -91 
Q 1294 -91 989 -36 
Q 684 19 347 128 
L 347 722 
Q 666 556 975 473 
Q 1284 391 1588 391 
Q 1994 391 2212 530 
Q 2431 669 2431 922 
Q 2431 1156 2273 1281 
Q 2116 1406 1581 1522 
L 1381 1569 
Q 847 1681 609 1914 
Q 372 2147 372 2553 
Q 372 3047 722 3315 
Q 1072 3584 1716 3584 
Q 2034 3584 2315 3537 
Q 2597 3491 2834 3397 
z
" transform="scale(0.015625)"/>
       </defs>
       <use xlink:href="#DejaVuSans-6c"/>
       <use xlink:href="#DejaVuSans-73" x="27.783203"/>
      </g>
     </g>
    </g>
    <g id="xtick_2">
     <g id="line2d_2">
      <g>
       <use xlink:href="#md27af95532" x="344.378182" y="307.584" style="stroke: #000000; stroke-width: 0.8"/>
      </g>
     </g>
     <g id="text_2">
      <!-- exa -->
      <g transform="translate(335.365682 322.182437) scale(0.1 -0.1)">
       <defs>
        <path id="DejaVuSans-65" d="M 3597 1894 
L 3597 1613 
L 953 1613 
Q 991 1019 1311 708 
Q 1631 397 2203 397 
Q 2534 397 2845 478 
Q 3156 559 3463 722 
L 3463 178 
Q 3153 47 2828 -22 
Q 2503 -91 2169 -91 
Q 1331 -91 842 396 
Q 353 884 353 1716 
Q 353 2575 817 3079 
Q 1281 3584 2069 3584 
Q 2775 3584 3186 3129 
Q 3597 2675 3597 1894 
z
M 3022 2063 
Q 3016 2534 2758 2815 
Q 2500 3097 2075 3097 
Q 1594 3097 1305 2825 
Q 1016 2553 972 2059 
L 3022 2063 
z
" transform="scale(0.015625)"/>
        <path id="DejaVuSans-78" d="M 3513 3500 
L 2247 1797 
L 3578 0 
L 2900 0 
L 1881 1375 
L 863 0 
L 184 0 
L 1544 1831 
L 300 3500 
L 978 3500 
L 1906 2253 
L 2834 3500 
L 3513 3500 
z
" transform="scale(0.015625)"/>
        <path id="DejaVuSans-61" d="M 2194 1759 
Q 1497 1759 1228 1600 
Q 959 1441 959 1056 
Q 959 750 1161 570 
Q 1363 391 1709 391 
Q 2188 391 2477 730 
Q 2766 1069 2766 1631 
L 2766 1759 
L 2194 1759 
z
M 3341 1997 
L 3341 0 
L 2766 0 
L 2766 531 
Q 2569 213 2275 61 
Q 1981 -91 1556 -91 
Q 1019 -91 701 211 
Q 384 513 384 1019 
Q 384 1609 779 1909 
Q 1175 2209 1959 2209 
L 2766 2209 
L 2766 2266 
Q 2766 2663 2505 2880 
Q 2244 3097 1772 3097 
Q 1472 3097 1187 3025 
Q 903 2953 641 2809 
L 641 3341 
Q 956 3463 1253 3523 
Q 1550 3584 1831 3584 
Q 2591 3584 2966 3190 
Q 3341 2797 3341 1997 
z
" transform="scale(0.015625)"/>
       </defs>
       <use xlink:href="#DejaVuSans-65"/>
       <use xlink:href="#DejaVuSans-78" x="59.773438"/>
       <use xlink:href="#DejaVuSans-61" x="118.953125"/>
      </g>
     </g>
    </g>
    <g id="text_3">
     <!-- command -->
     <g transform="translate(211.20375 335.860562) scale(0.1 -0.1)">
      <defs>
       <path id="DejaVuSans-63" d="M 3122 3366 
L 3122 2828 
Q 2878 2963 2633 3030 
Q 2388 3097 2138 3097 
Q 1578 3097 1268 2742 
Q 959 2388 959 1747 
Q 959 1106 1268 751 
Q 1578 397 2138 397 
Q 2388 397 2633 464 
Q 2878 531 3122 666 
L 3122 134 
Q 2881 22 2623 -34 
Q 2366 -91 2075 -91 
Q 1284 -91 818 406 
Q 353 903 353 1747 
Q 353 2603 823 3093 
Q 1294 3584 2113 3584 
Q 2378 3584 2631 3529 
Q 2884 3475 3122 3366 
z
" transform="scale(0.015625)"/>
       <path id="DejaVuSans-6f" d="M 1959 3097 
Q 1497 3097 1228 2736 
Q 959 2375 959 1747 
Q 959 1119 1226 758 
Q 1494 397 1959 397 
Q 2419 397 2687 759 
Q 2956 1122 2956 1747 
Q 2956 2369 2687 2733 
Q 2419 3097 1959 3097 
z
M 1959 3584 
Q 2709 3584 3137 3096 
Q 3566 2609 3566 1747 
Q 3566 888 3137 398 
Q 2709 -91 1959 -91 
Q 1206 -91 779 398 
Q 353 888 353 1747 
Q 353 2609 779 3096 
Q 1206 3584 1959 3584 
z
" transform="scale(0.015625)"/>
       <path id="DejaVuSans-6d" d="M 3328 2828 
Q 3544 3216 3844 3400 
Q 4144 3584 4550 3584 
Q 5097 3584 5394 3201 
Q 5691 2819 5691 2113 
L 5691 0 
L 5113 0 
L 5113 2094 
Q 5113 2597 4934 2840 
Q 4756 3084 4391 3084 
Q 3944 3084 3684 2787 
Q 3425 2491 3425 1978 
L 3425 0 
L 2847 0 
L 2847 2094 
Q 2847 2600 2669 2842 
Q 2491 3084 2119 3084 
Q 1678 3084 1418 2786 
Q 1159 2488 1159 1978 
L 1159 0 
L 581 0 
L 581 3500 
L 1159 3500 
L 1159 2956 
Q 1356 3278 1631 3431 
Q 1906 3584 2284 3584 
Q 2666 3584 2933 3390 
Q 3200 3197 3328 2828 
z
" transform="scale(0.015625)"/>
       <path id="DejaVuSans-6e" d="M 3513 2113 
L 3513 0 
L 2938 0 
L 2938 2094 
Q 2938 2591 2744 2837 
Q 2550 3084 2163 3084 
Q 1697 3084 1428 2787 
Q 1159 2491 1159 1978 
L 1159 0 
L 581 0 
L 581 3500 
L 1159 3500 
L 1159 2956 
Q 1366 3272 1645 3428 
Q 1925 3584 2291 3584 
Q 2894 3584 3203 3211 
Q 3513 2838 3513 2113 
z
" transform="scale(0.015625)"/>
       <path id="DejaVuSans-64" d="M 2906 2969 
L 2906 4863 
L 3481 4863 
L 3481 0 
L 2906 0 
L 2906 525 
Q 2725 213 2448 61 
Q 2172 -91 1784 -91 
Q 1150 -91 751 415 
Q 353 922 353 1747 
Q 353 2572 751 3078 
Q 1150 3584 1784 3584 
Q 2172 3584 2448 3432 
Q 2725 3281 2906 2969 
z
M 947 1747 
Q 947 1113 1208 752 
Q 1469 391 1925 391 
Q 2381 391 2643 752 
Q 2906 1113 2906 1747 
Q 2906 2381 2643 2742 
Q 2381 3103 1925 3103 
Q 1469 3103 1208 2742 
Q 947 2381 947 1747 
z
" transform="scale(0.015625)"/>
      </defs>
      <use xlink:href="#DejaVuSans-63"/>
      <use xlink:href="#DejaVuSans-6f" x="54.980469"/>
      <use xlink:href="#DejaVuSans-6d" x="116.162109"/>
      <use xlink:href="#DejaVuSans-6d" x="213.574219"/>
      <use xlink:href="#DejaVuSans-61" x="310.986328"/>
      <use xlink:href="#DejaVuSans-6e" x="372.265625"/>
      <use xlink:href="#DejaVuSans-64" x="435.644531"/>
     </g>
    </g>
   </g>
   <g id="matplotlib.axis_2">
    <g id="ytick_1">
     <g id="line2d_3">
      <defs>
       <path id="m28dc5c5bcb" d="M 0 0 
L -3.5 0 
" style="stroke: #000000; stroke-width: 0.8"/>
      </defs>
      <g>
       <use xlink:href="#m28dc5c5bcb" x="57.6" y="260.317711" style="stroke: #000000; stroke-width: 0.8"/>
      </g>
     </g>
     <g id="text_4">
      <!-- 0.004 -->
      <g transform="translate(21.971875 264.11693) scale(0.1 -0.1)">
       <defs>
        <path id="DejaVuSans-30" d="M 2034 4250 
Q 1547 4250 1301 3770 
Q 1056 3291 1056 2328 
Q 1056 1369 1301 889 
Q 1547 409 2034 409 
Q 2525 409 2770 889 
Q 3016 1369 3016 2328 
Q 3016 3291 2770 3770 
Q 2525 4250 2034 4250 
z
M 2034 4750 
Q 2819 4750 3233 4129 
Q 3647 3509 3647 2328 
Q 3647 1150 3233 529 
Q 2819 -91 2034 -91 
Q 1250 -91 836 529 
Q 422 1150 422 2328 
Q 422 3509 836 4129 
Q 1250 4750 2034 4750 
z
" transform="scale(0.015625)"/>
        <path id="DejaVuSans-2e" d="M 684 794 
L 1344 794 
L 1344 0 
L 684 0 
L 684 794 
z
" transform="scale(0.015625)"/>
        <path id="DejaVuSans-34" d="M 2419 4116 
L 825 1625 
L 2419 1625 
L 2419 4116 
z
M 2253 4666 
L 3047 4666 
L 3047 1625 
L 3713 1625 
L 3713 1100 
L 3047 1100 
L 3047 0 
L 2419 0 
L 2419 1100 
L 313 1100 
L 313 1709 
L 2253 4666 
z
" transform="scale(0.015625)"/>
       </defs>
       <use xlink:href="#DejaVuSans-30"/>
       <use xlink:href="#DejaVuSans-2e" x="63.623047"/>
       <use xlink:href="#DejaVuSans-30" x="95.410156"/>
       <use xlink:href="#DejaVuSans-30" x="159.033203"/>
       <use xlink:href="#DejaVuSans-34" x="222.65625"/>
      </g>
     </g>
    </g>
    <g id="ytick_2">
     <g id="line2d_4">
      <g>
       <use xlink:href="#m28dc5c5bcb" x="57.6" y="206.581594" style="stroke: #000000; stroke-width: 0.8"/>
      </g>
     </g>
     <g id="text_5">
      <!-- 0.006 -->
      <g transform="translate(21.971875 210.380813) scale(0.1 -0.1)">
       <defs>
        <path id="DejaVuSans-36" d="M 2113 2584 
Q 1688 2584 1439 2293 
Q 1191 2003 1191 1497 
Q 1191 994 1439 701 
Q 1688 409 2113 409 
Q 2538 409 2786 701 
Q 3034 994 3034 1497 
Q 3034 2003 2786 2293 
Q 2538 2584 2113 2584 
z
M 3366 4563 
L 3366 3988 
Q 3128 4100 2886 4159 
Q 2644 4219 2406 4219 
Q 1781 4219 1451 3797 
Q 1122 3375 1075 2522 
Q 1259 2794 1537 2939 
Q 1816 3084 2150 3084 
Q 2853 3084 3261 2657 
Q 3669 2231 3669 1497 
Q 3669 778 3244 343 
Q 2819 -91 2113 -91 
Q 1303 -91 875 529 
Q 447 1150 447 2328 
Q 447 3434 972 4092 
Q 1497 4750 2381 4750 
Q 2619 4750 2861 4703 
Q 3103 4656 3366 4563 
z
" transform="scale(0.015625)"/>
       </defs>
       <use xlink:href="#DejaVuSans-30"/>
       <use xlink:href="#DejaVuSans-2e" x="63.623047"/>
       <use xlink:href="#DejaVuSans-30" x="95.410156"/>
       <use xlink:href="#DejaVuSans-30" x="159.033203"/>
       <use xlink:href="#DejaVuSans-36" x="222.65625"/>
      </g>
     </g>
    </g>
    <g id="ytick_3">
     <g id="line2d_5">
      <g>
       <use xlink:href="#m28dc5c5bcb" x="57.6" y="152.845477" style="stroke: #000000; stroke-width: 0.8"/>
      </g>
     </g>
     <g id="text_6">
      <!-- 0.008 -->
      <g transform="translate(21.971875 156.644695) scale(0.1 -0.1)">
       <defs>
        <path id="DejaVuSans-38" d="M 2034 2216 
Q 1584 2216 1326 1975 
Q 1069 1734 1069 1313 
Q 1069 891 1326 650 
Q 1584 409 2034 409 
Q 2484 409 2743 651 
Q 3003 894 3003 1313 
Q 3003 1734 2745 1975 
Q 2488 2216 2034 2216 
z
M 1403 2484 
Q 997 2584 770 2862 
Q 544 3141 544 3541 
Q 544 4100 942 4425 
Q 1341 4750 2034 4750 
Q 2731 4750 3128 4425 
Q 3525 4100 3525 3541 
Q 3525 3141 3298 2862 
Q 3072 2584 2669 2484 
Q 3125 2378 3379 2068 
Q 3634 1759 3634 1313 
Q 3634 634 3220 271 
Q 2806 -91 2034 -91 
Q 1263 -91 848 271 
Q 434 634 434 1313 
Q 434 1759 690 2068 
Q 947 2378 1403 2484 
z
M 1172 3481 
Q 1172 3119 1398 2916 
Q 1625 2713 2034 2713 
Q 2441 2713 2670 2916 
Q 2900 3119 2900 3481 
Q 2900 3844 2670 4047 
Q 2441 4250 2034 4250 
Q 1625 4250 1398 4047 
Q 1172 3844 1172 3481 
z
" transform="scale(0.015625)"/>
       </defs>
       <use xlink:href="#DejaVuSans-30"/>
       <use xlink:href="#DejaVuSans-2e" x="63.623047"/>
       <use xlink:href="#DejaVuSans-30" x="95.410156"/>
       <use xlink:href="#DejaVuSans-30" x="159.033203"/>
       <use xlink:href="#DejaVuSans-38" x="222.65625"/>
      </g>
     </g>
    </g>
    <g id="ytick_4">
     <g id="line2d_6">
      <g>
       <use xlink:href="#m28dc5c5bcb" x="57.6" y="99.109359" style="stroke: #000000; stroke-width: 0.8"/>
      </g>
     </g>
     <g id="text_7">
      <!-- 0.010 -->
      <g transform="translate(21.971875 102.908578) scale(0.1 -0.1)">
       <defs>
        <path id="DejaVuSans-31" d="M 794 531 
L 1825 531 
L 1825 4091 
L 703 3866 
L 703 4441 
L 1819 4666 
L 2450 4666 
L 2450 531 
L 3481 531 
L 3481 0 
L 794 0 
L 794 531 
z
" transform="scale(0.015625)"/>
       </defs>
       <use xlink:href="#DejaVuSans-30"/>
       <use xlink:href="#DejaVuSans-2e" x="63.623047"/>
       <use xlink:href="#DejaVuSans-30" x="95.410156"/>
       <use xlink:href="#DejaVuSans-31" x="159.033203"/>
       <use xlink:href="#DejaVuSans-30" x="222.65625"/>
      </g>
     </g>
    </g>
    <g id="ytick_5">
     <g id="line2d_7">
      <g>
       <use xlink:href="#m28dc5c5bcb" x="57.6" y="45.373242" style="stroke: #000000; stroke-width: 0.8"/>
      </g>
     </g>
     <g id="text_8">
      <!-- 0.012 -->
      <g transform="translate(21.971875 49.172461) scale(0.1 -0.1)">
       <defs>
        <path id="DejaVuSans-32" d="M 1228 531 
L 3431 531 
L 3431 0 
L 469 0 
L 469 531 
Q 828 903 1448 1529 
Q 2069 2156 2228 2338 
Q 2531 2678 2651 2914 
Q 2772 3150 2772 3378 
Q 2772 3750 2511 3984 
Q 2250 4219 1831 4219 
Q 1534 4219 1204 4116 
Q 875 4013 500 3803 
L 500 4441 
Q 881 4594 1212 4672 
Q 1544 4750 1819 4750 
Q 2544 4750 2975 4387 
Q 3406 4025 3406 3419 
Q 3406 3131 3298 2873 
Q 3191 2616 2906 2266 
Q 2828 2175 2409 1742 
Q 1991 1309 1228 531 
z
" transform="scale(0.015625)"/>
       </defs>
       <use xlink:href="#DejaVuSans-30"/>
       <use xlink:href="#DejaVuSans-2e" x="63.623047"/>
       <use xlink:href="#DejaVuSans-30" x="95.410156"/>
       <use xlink:href="#DejaVuSans-31" x="159.033203"/>
       <use xlink:href="#DejaVuSans-32" x="222.65625"/>
      </g>
     </g>
    </g>
    <g id="text_9">
     <!-- time [s] -->
     <g transform="translate(15.892187 193.919406) rotate(-90) scale(0.1 -0.1)">
      <defs>
       <path id="DejaVuSans-74" d="M 1172 4494 
L 1172 3500 
L 2356 3500 
L 2356 3053 
L 1172 3053 
L 1172 1153 
Q 1172 725 1289 603 
Q 1406 481 1766 481 
L 2356 481 
L 2356 0 
L 1766 0 
Q 1100 0 847 248 
Q 594 497 594 1153 
L 594 3053 
L 172 3053 
L 172 3500 
L 594 3500 
L 594 4494 
L 1172 4494 
z
" transform="scale(0.015625)"/>
       <path id="DejaVuSans-69" d="M 603 3500 
L 1178 3500 
L 1178 0 
L 603 0 
L 603 3500 
z
M 603 4863 
L 1178 4863 
L 1178 4134 
L 603 4134 
L 603 4863 
z
" transform="scale(0.015625)"/>
       <path id="DejaVuSans-20" transform="scale(0.015625)"/>
       <path id="DejaVuSans-5b" d="M 550 4863 
L 1875 4863 
L 1875 4416 
L 1125 4416 
L 1125 -397 
L 1875 -397 
L 1875 -844 
L 550 -844 
L 550 4863 
z
" transform="scale(0.015625)"/>
       <path id="DejaVuSans-5d" d="M 1947 4863 
L 1947 -844 
L 622 -844 
L 622 -397 
L 1369 -397 
L 1369 4416 
L 622 4416 
L 622 4863 
L 1947 4863 
z
" transform="scale(0.015625)"/>
      </defs>
      <use xlink:href="#DejaVuSans-74"/>
      <use xlink:href="#DejaVuSans-69" x="39.208984"/>
      <use xlink:href="#DejaVuSans-6d" x="66.992188"/>
      <use xlink:href="#DejaVuSans-65" x="164.404297"/>
      <use xlink:href="#DejaVuSans-20" x="225.927734"/>
      <use xlink:href="#DejaVuSans-5b" x="257.714844"/>
      <use xlink:href="#DejaVuSans-73" x="296.728516"/>
      <use xlink:href="#DejaVuSans-5d" x="348.828125"/>
     </g>
    </g>
   </g>
   <g id="LineCollection_1">
    <path d="M 100.887273 209.456476 
L 154.996364 209.456476 
" clip-path="url(#p91e84ad44a)" style="fill: none; stroke: #1f77b4; stroke-width: 1.5"/>
    <path d="M 317.323636 53.568 
L 371.432727 53.568 
" clip-path="url(#p91e84ad44a)" style="fill: none; stroke: #1f77b4; stroke-width: 1.5"/>
   </g>
   <g id="LineCollection_2">
    <path d="M 100.887273 295.488 
L 154.996364 295.488 
" clip-path="url(#p91e84ad44a)" style="fill: none; stroke: #1f77b4; stroke-width: 1.5"/>
    <path d="M 317.323636 203.061878 
L 371.432727 203.061878 
" clip-path="url(#p91e84ad44a)" style="fill: none; stroke: #1f77b4; stroke-width: 1.5"/>
   </g>
   <g id="LineCollection_3">
    <path d="M 127.941818 295.488 
L 127.941818 209.456476 
" clip-path="url(#p91e84ad44a)" style="fill: none; stroke: #1f77b4; stroke-width: 1.5"/>
    <path d="M 344.378182 203.061878 
L 344.378182 53.568 
" clip-path="url(#p91e84ad44a)" style="fill: none; stroke: #1f77b4; stroke-width: 1.5"/>
   </g>
   <g id="patch_3">
    <path d="M 57.6 307.584 
L 57.6 41.472 
" style="fill: none; stroke: #000000; stroke-width: 0.8; stroke-linejoin: miter; stroke-linecap: square"/>
   </g>
   <g id="patch_4">
    <path d="M 414.72 307.584 
L 414.72 41.472 
" style="fill: none; stroke: #000000; stroke-width: 0.8; stroke-linejoin: miter; stroke-linecap: square"/>
   </g>
   <g id="patch_5">
    <path d="M 57.6 307.584 
L 414.72 307.584 
" style="fill: none; stroke: #000000; stroke-width: 0.8; stroke-linejoin: miter; stroke-linecap: square"/>
   </g>
   <g id="patch_6">
    <path d="M 57.6 41.472 
L 414.72 41.472 
" style="fill: none; stroke: #000000; stroke-width: 0.8; stroke-linejoin: miter; stroke-linecap: square"/>
   </g>
  </g>
 </g>
 <defs>
  <clipPath id="p91e84ad44a">
   <rect x="57.6" y="41.472" width="357.12" height="266.112"/>
  </clipPath>
 </defs>
</svg>
