<?xml version="1.0" encoding="utf-8" standalone="no"?>
<!DOCTYPE svg PUBLIC "-//W3C//DTD SVG 1.1//EN"
  "http://www.w3.org/Graphics/SVG/1.1/DTD/svg11.dtd">
<svg xmlns:xlink="http://www.w3.org/1999/xlink" width="460.8pt" height="345.6pt" viewBox="0 0 460.8 345.6" xmlns="http://www.w3.org/2000/svg" version="1.1">
 <metadata>
  <rdf:RDF xmlns:dc="http://purl.org/dc/elements/1.1/" xmlns:cc="http://creativecommons.org/ns#" xmlns:rdf="http://www.w3.org/1999/02/22-rdf-syntax-ns#">
   <cc:Work>
    <dc:type rdf:resource="http://purl.org/dc/dcmitype/StillImage"/>
    <dc:date>2024-01-08T18:12:24.200077</dc:date>
    <dc:format>image/svg+xml</dc:format>
    <dc:creator>
     <cc:Agent>
      <dc:title>Matplotlib v3.7.0, https://matplotlib.org/</dc:title>
     </cc:Agent>
    </dc:creator>
   </cc:Work>
  </rdf:RDF>
 </metadata>
 <defs>
  <style type="text/css">*{stroke-linejoin: round; stroke-linecap: butt}</style>
 </defs>
 <g id="figure_1">
  <g id="patch_1">
   <path d="M 0 345.6 
L 460.8 345.6 
L 460.8 0 
L 0 0 
z
" style="fill: #ffffff"/>
  </g>
  <g id="axes_1">
   <g id="patch_2">
    <path d="M 57.6 307.584 
L 414.72 307.584 
L 414.72 41.472 
L 57.6 41.472 
z
" style="fill: #ffffff"/>
   </g>
   <g id="PolyCollection_1">
    <path d="M 127.99744 295.488 
L 127.886196 295.488 
L 127.354177 294.886504 
L 122.837222 294.285009 
L 97.917415 293.683513 
L 73.832727 293.082018 
L 102.617684 292.480522 
L 122.441205 291.879027 
L 126.612835 291.277531 
L 127.350842 290.676036 
L 127.588601 290.07454 
L 127.641138 289.473045 
L 127.745665 288.871549 
L 127.795735 288.270054 
L 127.843691 287.668558 
L 127.708279 287.067062 
L 127.755133 286.465567 
L 127.875151 285.864071 
L 127.916577 285.262576 
L 127.913199 284.66108 
L 127.937732 284.059585 
L 127.92292 283.458089 
L 127.902239 282.856594 
L 127.922632 282.255098 
L 127.91449 281.653603 
L 127.932719 281.052107 
L 127.935046 280.450612 
L 127.913226 279.849116 
L 127.923978 279.24762 
L 127.919266 278.646125 
L 127.940772 278.044629 
L 127.940646 277.443134 
L 127.918588 276.841638 
L 127.92809 276.240143 
L 127.929664 275.638647 
L 127.917134 275.037152 
L 127.940315 274.435656 
L 127.941815 273.834161 
L 127.941818 273.232665 
L 127.941818 272.631169 
L 127.941818 272.029674 
L 127.941818 271.428178 
L 127.941818 270.826683 
L 127.941809 270.225187 
L 127.938938 269.623692 
L 127.914088 269.022196 
L 127.933967 268.420701 
L 127.941753 267.819205 
L 127.941818 267.21771 
L 127.941818 266.616214 
L 127.941818 266.014719 
L 127.941818 265.413223 
L 127.941818 264.811727 
L 127.941818 264.210232 
L 127.941818 263.608736 
L 127.941818 263.007241 
L 127.941818 262.405745 
L 127.941818 261.80425 
L 127.941818 261.202754 
L 127.941818 260.601259 
L 127.941818 259.999763 
L 127.941818 259.398268 
L 127.941818 258.796772 
L 127.941818 258.195277 
L 127.941818 257.593781 
L 127.941818 256.992285 
L 127.941816 256.39079 
L 127.940565 255.789294 
L 127.91818 255.187799 
L 127.92871 254.586303 
L 127.941604 253.984808 
L 127.941818 253.383312 
L 127.941818 252.781817 
L 127.941818 252.180321 
L 127.941818 251.578826 
L 127.941818 250.97733 
L 127.941818 250.375835 
L 127.941818 249.774339 
L 127.941818 249.172843 
L 127.941818 248.571348 
L 127.941818 247.969852 
L 127.941818 247.368357 
L 127.941818 246.766861 
L 127.941818 246.165366 
L 127.941818 245.56387 
L 127.941818 244.962375 
L 127.941818 244.360879 
L 127.941818 243.759384 
L 127.941818 243.157888 
L 127.941818 242.556392 
L 127.941818 241.954897 
L 127.941818 241.353401 
L 127.941818 240.751906 
L 127.941818 240.15041 
L 127.941818 239.548915 
L 127.941818 238.947419 
L 127.941818 238.345924 
L 127.941818 237.744428 
L 127.941793 237.142933 
L 127.93689 236.541437 
L 127.913082 235.939942 
L 127.970555 235.939942 
L 127.970555 235.939942 
L 127.946746 236.541437 
L 127.941843 237.142933 
L 127.941818 237.744428 
L 127.941818 238.345924 
L 127.941818 238.947419 
L 127.941818 239.548915 
L 127.941818 240.15041 
L 127.941818 240.751906 
L 127.941818 241.353401 
L 127.941818 241.954897 
L 127.941818 242.556392 
L 127.941818 243.157888 
L 127.941818 243.759384 
L 127.941818 244.360879 
L 127.941818 244.962375 
L 127.941818 245.56387 
L 127.941818 246.165366 
L 127.941818 246.766861 
L 127.941818 247.368357 
L 127.941818 247.969852 
L 127.941818 248.571348 
L 127.941818 249.172843 
L 127.941818 249.774339 
L 127.941818 250.375835 
L 127.941818 250.97733 
L 127.941818 251.578826 
L 127.941818 252.180321 
L 127.941818 252.781817 
L 127.941818 253.383312 
L 127.942032 253.984808 
L 127.954926 254.586303 
L 127.965457 255.187799 
L 127.943072 255.789294 
L 127.94182 256.39079 
L 127.941818 256.992285 
L 127.941818 257.593781 
L 127.941818 258.195277 
L 127.941818 258.796772 
L 127.941818 259.398268 
L 127.941818 259.999763 
L 127.941818 260.601259 
L 127.941818 261.202754 
L 127.941818 261.80425 
L 127.941818 262.405745 
L 127.941818 263.007241 
L 127.941818 263.608736 
L 127.941818 264.210232 
L 127.941818 264.811727 
L 127.941818 265.413223 
L 127.941818 266.014719 
L 127.941818 266.616214 
L 127.941818 267.21771 
L 127.941884 267.819205 
L 127.949669 268.420701 
L 127.969549 269.022196 
L 127.944699 269.623692 
L 127.941827 270.225187 
L 127.941818 270.826683 
L 127.941818 271.428178 
L 127.941818 272.029674 
L 127.941818 272.631169 
L 127.941818 273.232665 
L 127.941821 273.834161 
L 127.943321 274.435656 
L 127.966502 275.037152 
L 127.953972 275.638647 
L 127.955547 276.240143 
L 127.965048 276.841638 
L 127.94299 277.443134 
L 127.942864 278.044629 
L 127.96437 278.646125 
L 127.959658 279.24762 
L 127.97041 279.849116 
L 127.94859 280.450612 
L 127.950918 281.052107 
L 127.969147 281.653603 
L 127.961004 282.255098 
L 127.981397 282.856594 
L 127.960717 283.458089 
L 127.945905 284.059585 
L 127.970437 284.66108 
L 127.96706 285.262576 
L 128.008485 285.864071 
L 128.128503 286.465567 
L 128.175358 287.067062 
L 128.039946 287.668558 
L 128.087901 288.270054 
L 128.137971 288.871549 
L 128.242498 289.473045 
L 128.295035 290.07454 
L 128.532794 290.676036 
L 129.270801 291.277531 
L 133.442432 291.879027 
L 153.265953 292.480522 
L 182.050909 293.082018 
L 157.966222 293.683513 
L 133.046414 294.285009 
L 128.529459 294.886504 
L 127.99744 295.488 
z
" clip-path="url(#pbe39970bf5)" style="fill: #1f77b4; fill-opacity: 0.3"/>
   </g>
   <g id="PolyCollection_2">
    <path d="M 364.314083 226.055349 
L 324.44228 226.055349 
L 300.351714 224.313052 
L 290.269091 222.570756 
L 302.654851 220.828459 
L 320.012568 219.086163 
L 330.138404 217.343866 
L 334.316807 215.60157 
L 337.249791 213.859273 
L 340.262 212.116977 
L 342.011283 210.374681 
L 342.127406 208.632384 
L 341.945753 206.890088 
L 342.365383 205.147791 
L 342.953234 203.405495 
L 343.506768 201.663198 
L 343.9716 199.920902 
L 344.181481 198.178605 
L 344.213534 196.436309 
L 344.210987 194.694013 
L 344.257741 192.951716 
L 344.284702 191.20942 
L 344.297041 189.467123 
L 344.340198 187.724827 
L 344.36832 185.98253 
L 344.358359 184.240234 
L 344.306024 182.497937 
L 344.239647 180.755641 
L 344.210622 179.013344 
L 344.232777 177.271048 
L 344.29759 175.528752 
L 344.35498 173.786455 
L 344.374974 172.044159 
L 344.374827 170.301862 
L 344.352478 168.559566 
L 344.285955 166.817269 
L 344.226879 165.074973 
L 344.263028 163.332676 
L 344.337865 161.59038 
L 344.371853 159.848084 
L 344.377749 158.105787 
L 344.378169 156.363491 
L 344.378182 154.621194 
L 344.378182 152.878898 
L 344.378182 151.136601 
L 344.378182 149.394305 
L 344.378182 147.652008 
L 344.378182 145.909712 
L 344.378182 144.167415 
L 344.378182 142.425119 
L 344.378182 140.682823 
L 344.378182 138.940526 
L 344.378182 137.19823 
L 344.378182 135.455933 
L 344.378182 133.713637 
L 344.378182 131.97134 
L 344.378182 130.229044 
L 344.378182 128.486747 
L 344.378182 126.744451 
L 344.378182 125.002154 
L 344.378182 123.259858 
L 344.378182 121.517562 
L 344.378182 119.775265 
L 344.378182 118.032969 
L 344.378182 116.290672 
L 344.378182 114.548376 
L 344.378182 112.806079 
L 344.378182 111.063783 
L 344.378182 109.321486 
L 344.378182 107.57919 
L 344.378182 105.836894 
L 344.378182 104.094597 
L 344.378182 102.352301 
L 344.378182 100.610004 
L 344.378182 98.867708 
L 344.378182 97.125411 
L 344.378182 95.383115 
L 344.378182 93.640818 
L 344.378182 91.898522 
L 344.378182 90.156225 
L 344.378182 88.413929 
L 344.378182 86.671633 
L 344.378182 84.929336 
L 344.378182 83.18704 
L 344.378182 81.444743 
L 344.378182 79.702447 
L 344.378182 77.96015 
L 344.378182 76.217854 
L 344.378182 74.475557 
L 344.378182 72.733261 
L 344.378182 70.990965 
L 344.378182 69.248668 
L 344.378182 67.506372 
L 344.378182 65.764075 
L 344.378182 64.021779 
L 344.37818 62.279482 
L 344.378111 60.537186 
L 344.376641 58.794889 
L 344.364218 57.052593 
L 344.325773 55.310296 
L 344.296735 53.568 
L 344.459629 53.568 
L 344.459629 53.568 
L 344.430591 55.310296 
L 344.392146 57.052593 
L 344.379722 58.794889 
L 344.378252 60.537186 
L 344.378183 62.279482 
L 344.378182 64.021779 
L 344.378182 65.764075 
L 344.378182 67.506372 
L 344.378182 69.248668 
L 344.378182 70.990965 
L 344.378182 72.733261 
L 344.378182 74.475557 
L 344.378182 76.217854 
L 344.378182 77.96015 
L 344.378182 79.702447 
L 344.378182 81.444743 
L 344.378182 83.18704 
L 344.378182 84.929336 
L 344.378182 86.671633 
L 344.378182 88.413929 
L 344.378182 90.156225 
L 344.378182 91.898522 
L 344.378182 93.640818 
L 344.378182 95.383115 
L 344.378182 97.125411 
L 344.378182 98.867708 
L 344.378182 100.610004 
L 344.378182 102.352301 
L 344.378182 104.094597 
L 344.378182 105.836894 
L 344.378182 107.57919 
L 344.378182 109.321486 
L 344.378182 111.063783 
L 344.378182 112.806079 
L 344.378182 114.548376 
L 344.378182 116.290672 
L 344.378182 118.032969 
L 344.378182 119.775265 
L 344.378182 121.517562 
L 344.378182 123.259858 
L 344.378182 125.002154 
L 344.378182 126.744451 
L 344.378182 128.486747 
L 344.378182 130.229044 
L 344.378182 131.97134 
L 344.378182 133.713637 
L 344.378182 135.455933 
L 344.378182 137.19823 
L 344.378182 138.940526 
L 344.378182 140.682823 
L 344.378182 142.425119 
L 344.378182 144.167415 
L 344.378182 145.909712 
L 344.378182 147.652008 
L 344.378182 149.394305 
L 344.378182 151.136601 
L 344.378182 152.878898 
L 344.378182 154.621194 
L 344.378194 156.363491 
L 344.378615 158.105787 
L 344.384511 159.848084 
L 344.418499 161.59038 
L 344.493336 163.332676 
L 344.529485 165.074973 
L 344.470409 166.817269 
L 344.403886 168.559566 
L 344.381536 170.301862 
L 344.38139 172.044159 
L 344.401384 173.786455 
L 344.458774 175.528752 
L 344.523587 177.271048 
L 344.545741 179.013344 
L 344.516717 180.755641 
L 344.45034 182.497937 
L 344.398005 184.240234 
L 344.388044 185.98253 
L 344.416166 187.724827 
L 344.459323 189.467123 
L 344.471662 191.20942 
L 344.498622 192.951716 
L 344.545377 194.694013 
L 344.542829 196.436309 
L 344.574882 198.178605 
L 344.784763 199.920902 
L 345.249596 201.663198 
L 345.80313 203.405495 
L 346.39098 205.147791 
L 346.810611 206.890088 
L 346.628957 208.632384 
L 346.745081 210.374681 
L 348.494364 212.116977 
L 351.506573 213.859273 
L 354.439557 215.60157 
L 358.617959 217.343866 
L 368.743795 219.086163 
L 386.101513 220.828459 
L 398.487273 222.570756 
L 388.40465 224.313052 
L 364.314083 226.055349 
z
" clip-path="url(#pbe39970bf5)" style="fill: #1f77b4; fill-opacity: 0.3"/>
   </g>
   <g id="matplotlib.axis_1">
    <g id="xtick_1">
     <g id="line2d_1">
      <defs>
       <path id="meebb1124fd" d="M 0 0 
L 0 3.5 
" style="stroke: #000000; stroke-width: 0.8"/>
      </defs>
      <g>
       <use xlink:href="#meebb1124fd" x="127.941818" y="307.584" style="stroke: #000000; stroke-width: 0.8"/>
      </g>
     </g>
     <g id="text_1">
      <!-- ls -->
      <g transform="translate(123.948068 322.182437) scale(0.1 -0.1)">
       <defs>
        <path id="DejaVuSans-6c" d="M 603 4863 
L 1178 4863 
L 1178 0 
L 603 0 
L 603 4863 
z
" transform="scale(0.015625)"/>
        <path id="DejaVuSans-73" d="M 2834 3397 
L 2834 2853 
Q 2591 2978 2328 3040 
Q 2066 3103 1784 3103 
Q 1356 3103 1142 2972 
Q 928 2841 928 2578 
Q 928 2378 1081 2264 
Q 1234 2150 1697 2047 
L 1894 2003 
Q 2506 1872 2764 1633 
Q 3022 1394 3022 966 
Q 3022 478 2636 193 
Q 2250 -91 1575 -91 
Q 1294 -91 989 -36 
Q 684 19 347 128 
L 347 722 
Q 666 556 975 473 
Q 1284 391 1588 391 
Q 1994 391 2212 530 
Q 2431 669 2431 922 
Q 2431 1156 2273 1281 
Q 2116 1406 1581 1522 
L 1381 1569 
Q 847 1681 609 1914 
Q 372 2147 372 2553 
Q 372 3047 722 3315 
Q 1072 3584 1716 3584 
Q 2034 3584 2315 3537 
Q 2597 3491 2834 3397 
z
" transform="scale(0.015625)"/>
       </defs>
       <use xlink:href="#DejaVuSans-6c"/>
       <use xlink:href="#DejaVuSans-73" x="27.783203"/>
      </g>
     </g>
    </g>
    <g id="xtick_2">
     <g id="line2d_2">
      <g>
       <use xlink:href="#meebb1124fd" x="344.378182" y="307.584" style="stroke: #000000; stroke-width: 0.8"/>
      </g>
     </g>
     <g id="text_2">
      <!-- exa -->
      <g transform="translate(335.365682 322.182437) scale(0.1 -0.1)">
       <defs>
        <path id="DejaVuSans-65" d="M 3597 1894 
L 3597 1613 
L 953 1613 
Q 991 1019 1311 708 
Q 1631 397 2203 397 
Q 2534 397 2845 478 
Q 3156 559 3463 722 
L 3463 178 
Q 3153 47 2828 -22 
Q 2503 -91 2169 -91 
Q 1331 -91 842 396 
Q 353 884 353 1716 
Q 353 2575 817 3079 
Q 1281 3584 2069 3584 
Q 2775 3584 3186 3129 
Q 3597 2675 3597 1894 
z
M 3022 2063 
Q 3016 2534 2758 2815 
Q 2500 3097 2075 3097 
Q 1594 3097 1305 2825 
Q 1016 2553 972 2059 
L 3022 2063 
z
" transform="scale(0.015625)"/>
        <path id="DejaVuSans-78" d="M 3513 3500 
L 2247 1797 
L 3578 0 
L 2900 0 
L 1881 1375 
L 863 0 
L 184 0 
L 1544 1831 
L 300 3500 
L 978 3500 
L 1906 2253 
L 2834 3500 
L 3513 3500 
z
" transform="scale(0.015625)"/>
        <path id="DejaVuSans-61" d="M 2194 1759 
Q 1497 1759 1228 1600 
Q 959 1441 959 1056 
Q 959 750 1161 570 
Q 1363 391 1709 391 
Q 2188 391 2477 730 
Q 2766 1069 2766 1631 
L 2766 1759 
L 2194 1759 
z
M 3341 1997 
L 3341 0 
L 2766 0 
L 2766 531 
Q 2569 213 2275 61 
Q 1981 -91 1556 -91 
Q 1019 -91 701 211 
Q 384 513 384 1019 
Q 384 1609 779 1909 
Q 1175 2209 1959 2209 
L 2766 2209 
L 2766 2266 
Q 2766 2663 2505 2880 
Q 2244 3097 1772 3097 
Q 1472 3097 1187 3025 
Q 903 2953 641 2809 
L 641 3341 
Q 956 3463 1253 3523 
Q 1550 3584 1831 3584 
Q 2591 3584 2966 3190 
Q 3341 2797 3341 1997 
z
" transform="scale(0.015625)"/>
       </defs>
       <use xlink:href="#DejaVuSans-65"/>
       <use xlink:href="#DejaVuSans-78" x="59.773438"/>
       <use xlink:href="#DejaVuSans-61" x="118.953125"/>
      </g>
     </g>
    </g>
    <g id="text_3">
     <!-- command -->
     <g transform="translate(211.20375 335.860562) scale(0.1 -0.1)">
      <defs>
       <path id="DejaVuSans-63" d="M 3122 3366 
L 3122 2828 
Q 2878 2963 2633 3030 
Q 2388 3097 2138 3097 
Q 1578 3097 1268 2742 
Q 959 2388 959 1747 
Q 959 1106 1268 751 
Q 1578 397 2138 397 
Q 2388 397 2633 464 
Q 2878 531 3122 666 
L 3122 134 
Q 2881 22 2623 -34 
Q 2366 -91 2075 -91 
Q 1284 -91 818 406 
Q 353 903 353 1747 
Q 353 2603 823 3093 
Q 1294 3584 2113 3584 
Q 2378 3584 2631 3529 
Q 2884 3475 3122 3366 
z
" transform="scale(0.015625)"/>
       <path id="DejaVuSans-6f" d="M 1959 3097 
Q 1497 3097 1228 2736 
Q 959 2375 959 1747 
Q 959 1119 1226 758 
Q 1494 397 1959 397 
Q 2419 397 2687 759 
Q 2956 1122 2956 1747 
Q 2956 2369 2687 2733 
Q 2419 3097 1959 3097 
z
M 1959 3584 
Q 2709 3584 3137 3096 
Q 3566 2609 3566 1747 
Q 3566 888 3137 398 
Q 2709 -91 1959 -91 
Q 1206 -91 779 398 
Q 353 888 353 1747 
Q 353 2609 779 3096 
Q 1206 3584 1959 3584 
z
" transform="scale(0.015625)"/>
       <path id="DejaVuSans-6d" d="M 3328 2828 
Q 3544 3216 3844 3400 
Q 4144 3584 4550 3584 
Q 5097 3584 5394 3201 
Q 5691 2819 5691 2113 
L 5691 0 
L 5113 0 
L 5113 2094 
Q 5113 2597 4934 2840 
Q 4756 3084 4391 3084 
Q 3944 3084 3684 2787 
Q 3425 2491 3425 1978 
L 3425 0 
L 2847 0 
L 2847 2094 
Q 2847 2600 2669 2842 
Q 2491 3084 2119 3084 
Q 1678 3084 1418 2786 
Q 1159 2488 1159 1978 
L 1159 0 
L 581 0 
L 581 3500 
L 1159 3500 
L 1159 2956 
Q 1356 3278 1631 3431 
Q 1906 3584 2284 3584 
Q 2666 3584 2933 3390 
Q 3200 3197 3328 2828 
z
" transform="scale(0.015625)"/>
       <path id="DejaVuSans-6e" d="M 3513 2113 
L 3513 0 
L 2938 0 
L 2938 2094 
Q 2938 2591 2744 2837 
Q 2550 3084 2163 3084 
Q 1697 3084 1428 2787 
Q 1159 2491 1159 1978 
L 1159 0 
L 581 0 
L 581 3500 
L 1159 3500 
L 1159 2956 
Q 1366 3272 1645 3428 
Q 1925 3584 2291 3584 
Q 2894 3584 3203 3211 
Q 3513 2838 3513 2113 
z
" transform="scale(0.015625)"/>
       <path id="DejaVuSans-64" d="M 2906 2969 
L 2906 4863 
L 3481 4863 
L 3481 0 
L 2906 0 
L 2906 525 
Q 2725 213 2448 61 
Q 2172 -91 1784 -91 
Q 1150 -91 751 415 
Q 353 922 353 1747 
Q 353 2572 751 3078 
Q 1150 3584 1784 3584 
Q 2172 3584 2448 3432 
Q 2725 3281 2906 2969 
z
M 947 1747 
Q 947 1113 1208 752 
Q 1469 391 1925 391 
Q 2381 391 2643 752 
Q 2906 1113 2906 1747 
Q 2906 2381 2643 2742 
Q 2381 3103 1925 3103 
Q 1469 3103 1208 2742 
Q 947 2381 947 1747 
z
" transform="scale(0.015625)"/>
      </defs>
      <use xlink:href="#DejaVuSans-63"/>
      <use xlink:href="#DejaVuSans-6f" x="54.980469"/>
      <use xlink:href="#DejaVuSans-6d" x="116.162109"/>
      <use xlink:href="#DejaVuSans-6d" x="213.574219"/>
      <use xlink:href="#DejaVuSans-61" x="310.986328"/>
      <use xlink:href="#DejaVuSans-6e" x="372.265625"/>
      <use xlink:href="#DejaVuSans-64" x="435.644531"/>
     </g>
    </g>
   </g>
   <g id="matplotlib.axis_2">
    <g id="ytick_1">
     <g id="line2d_3">
      <defs>
       <path id="m4fe73805b5" d="M 0 0 
L -3.5 0 
" style="stroke: #000000; stroke-width: 0.8"/>
      </defs>
      <g>
       <use xlink:href="#m4fe73805b5" x="57.6" y="281.61109" style="stroke: #000000; stroke-width: 0.8"/>
      </g>
     </g>
     <g id="text_4">
      <!-- 0.002 -->
      <g transform="translate(21.971875 285.410309) scale(0.1 -0.1)">
       <defs>
        <path id="DejaVuSans-30" d="M 2034 4250 
Q 1547 4250 1301 3770 
Q 1056 3291 1056 2328 
Q 1056 1369 1301 889 
Q 1547 409 2034 409 
Q 2525 409 2770 889 
Q 3016 1369 3016 2328 
Q 3016 3291 2770 3770 
Q 2525 4250 2034 4250 
z
M 2034 4750 
Q 2819 4750 3233 4129 
Q 3647 3509 3647 2328 
Q 3647 1150 3233 529 
Q 2819 -91 2034 -91 
Q 1250 -91 836 529 
Q 422 1150 422 2328 
Q 422 3509 836 4129 
Q 1250 4750 2034 4750 
z
" transform="scale(0.015625)"/>
        <path id="DejaVuSans-2e" d="M 684 794 
L 1344 794 
L 1344 0 
L 684 0 
L 684 794 
z
" transform="scale(0.015625)"/>
        <path id="DejaVuSans-32" d="M 1228 531 
L 3431 531 
L 3431 0 
L 469 0 
L 469 531 
Q 828 903 1448 1529 
Q 2069 2156 2228 2338 
Q 2531 2678 2651 2914 
Q 2772 3150 2772 3378 
Q 2772 3750 2511 3984 
Q 2250 4219 1831 4219 
Q 1534 4219 1204 4116 
Q 875 4013 500 3803 
L 500 4441 
Q 881 4594 1212 4672 
Q 1544 4750 1819 4750 
Q 2544 4750 2975 4387 
Q 3406 4025 3406 3419 
Q 3406 3131 3298 2873 
Q 3191 2616 2906 2266 
Q 2828 2175 2409 1742 
Q 1991 1309 1228 531 
z
" transform="scale(0.015625)"/>
       </defs>
       <use xlink:href="#DejaVuSans-30"/>
       <use xlink:href="#DejaVuSans-2e" x="63.623047"/>
       <use xlink:href="#DejaVuSans-30" x="95.410156"/>
       <use xlink:href="#DejaVuSans-30" x="159.033203"/>
       <use xlink:href="#DejaVuSans-32" x="222.65625"/>
      </g>
     </g>
    </g>
    <g id="ytick_2">
     <g id="line2d_4">
      <g>
       <use xlink:href="#m4fe73805b5" x="57.6" y="233.510881" style="stroke: #000000; stroke-width: 0.8"/>
      </g>
     </g>
     <g id="text_5">
      <!-- 0.004 -->
      <g transform="translate(21.971875 237.3101) scale(0.1 -0.1)">
       <defs>
        <path id="DejaVuSans-34" d="M 2419 4116 
L 825 1625 
L 2419 1625 
L 2419 4116 
z
M 2253 4666 
L 3047 4666 
L 3047 1625 
L 3713 1625 
L 3713 1100 
L 3047 1100 
L 3047 0 
L 2419 0 
L 2419 1100 
L 313 1100 
L 313 1709 
L 2253 4666 
z
" transform="scale(0.015625)"/>
       </defs>
       <use xlink:href="#DejaVuSans-30"/>
       <use xlink:href="#DejaVuSans-2e" x="63.623047"/>
       <use xlink:href="#DejaVuSans-30" x="95.410156"/>
       <use xlink:href="#DejaVuSans-30" x="159.033203"/>
       <use xlink:href="#DejaVuSans-34" x="222.65625"/>
      </g>
     </g>
    </g>
    <g id="ytick_3">
     <g id="line2d_5">
      <g>
       <use xlink:href="#m4fe73805b5" x="57.6" y="185.410672" style="stroke: #000000; stroke-width: 0.8"/>
      </g>
     </g>
     <g id="text_6">
      <!-- 0.006 -->
      <g transform="translate(21.971875 189.209891) scale(0.1 -0.1)">
       <defs>
        <path id="DejaVuSans-36" d="M 2113 2584 
Q 1688 2584 1439 2293 
Q 1191 2003 1191 1497 
Q 1191 994 1439 701 
Q 1688 409 2113 409 
Q 2538 409 2786 701 
Q 3034 994 3034 1497 
Q 3034 2003 2786 2293 
Q 2538 2584 2113 2584 
z
M 3366 4563 
L 3366 3988 
Q 3128 4100 2886 4159 
Q 2644 4219 2406 4219 
Q 1781 4219 1451 3797 
Q 1122 3375 1075 2522 
Q 1259 2794 1537 2939 
Q 1816 3084 2150 3084 
Q 2853 3084 3261 2657 
Q 3669 2231 3669 1497 
Q 3669 778 3244 343 
Q 2819 -91 2113 -91 
Q 1303 -91 875 529 
Q 447 1150 447 2328 
Q 447 3434 972 4092 
Q 1497 4750 2381 4750 
Q 2619 4750 2861 4703 
Q 3103 4656 3366 4563 
z
" transform="scale(0.015625)"/>
       </defs>
       <use xlink:href="#DejaVuSans-30"/>
       <use xlink:href="#DejaVuSans-2e" x="63.623047"/>
       <use xlink:href="#DejaVuSans-30" x="95.410156"/>
       <use xlink:href="#DejaVuSans-30" x="159.033203"/>
       <use xlink:href="#DejaVuSans-36" x="222.65625"/>
      </g>
     </g>
    </g>
    <g id="ytick_4">
     <g id="line2d_6">
      <g>
       <use xlink:href="#m4fe73805b5" x="57.6" y="137.310463" style="stroke: #000000; stroke-width: 0.8"/>
      </g>
     </g>
     <g id="text_7">
      <!-- 0.008 -->
      <g transform="translate(21.971875 141.109682) scale(0.1 -0.1)">
       <defs>
        <path id="DejaVuSans-38" d="M 2034 2216 
Q 1584 2216 1326 1975 
Q 1069 1734 1069 1313 
Q 1069 891 1326 650 
Q 1584 409 2034 409 
Q 2484 409 2743 651 
Q 3003 894 3003 1313 
Q 3003 1734 2745 1975 
Q 2488 2216 2034 2216 
z
M 1403 2484 
Q 997 2584 770 2862 
Q 544 3141 544 3541 
Q 544 4100 942 4425 
Q 1341 4750 2034 4750 
Q 2731 4750 3128 4425 
Q 3525 4100 3525 3541 
Q 3525 3141 3298 2862 
Q 3072 2584 2669 2484 
Q 3125 2378 3379 2068 
Q 3634 1759 3634 1313 
Q 3634 634 3220 271 
Q 2806 -91 2034 -91 
Q 1263 -91 848 271 
Q 434 634 434 1313 
Q 434 1759 690 2068 
Q 947 2378 1403 2484 
z
M 1172 3481 
Q 1172 3119 1398 2916 
Q 1625 2713 2034 2713 
Q 2441 2713 2670 2916 
Q 2900 3119 2900 3481 
Q 2900 3844 2670 4047 
Q 2441 4250 2034 4250 
Q 1625 4250 1398 4047 
Q 1172 3844 1172 3481 
z
" transform="scale(0.015625)"/>
       </defs>
       <use xlink:href="#DejaVuSans-30"/>
       <use xlink:href="#DejaVuSans-2e" x="63.623047"/>
       <use xlink:href="#DejaVuSans-30" x="95.410156"/>
       <use xlink:href="#DejaVuSans-30" x="159.033203"/>
       <use xlink:href="#DejaVuSans-38" x="222.65625"/>
      </g>
     </g>
    </g>
    <g id="ytick_5">
     <g id="line2d_7">
      <g>
       <use xlink:href="#m4fe73805b5" x="57.6" y="89.210255" style="stroke: #000000; stroke-width: 0.8"/>
      </g>
     </g>
     <g id="text_8">
      <!-- 0.010 -->
      <g transform="translate(21.971875 93.009473) scale(0.1 -0.1)">
       <defs>
        <path id="DejaVuSans-31" d="M 794 531 
L 1825 531 
L 1825 4091 
L 703 3866 
L 703 4441 
L 1819 4666 
L 2450 4666 
L 2450 531 
L 3481 531 
L 3481 0 
L 794 0 
L 794 531 
z
" transform="scale(0.015625)"/>
       </defs>
       <use xlink:href="#DejaVuSans-30"/>
       <use xlink:href="#DejaVuSans-2e" x="63.623047"/>
       <use xlink:href="#DejaVuSans-30" x="95.410156"/>
       <use xlink:href="#DejaVuSans-31" x="159.033203"/>
       <use xlink:href="#DejaVuSans-30" x="222.65625"/>
      </g>
     </g>
    </g>
    <g id="text_9">
     <!-- time [s] -->
     <g transform="translate(15.892187 193.919406) rotate(-90) scale(0.1 -0.1)">
      <defs>
       <path id="DejaVuSans-74" d="M 1172 4494 
L 1172 3500 
L 2356 3500 
L 2356 3053 
L 1172 3053 
L 1172 1153 
Q 1172 725 1289 603 
Q 1406 481 1766 481 
L 2356 481 
L 2356 0 
L 1766 0 
Q 1100 0 847 248 
Q 594 497 594 1153 
L 594 3053 
L 172 3053 
L 172 3500 
L 594 3500 
L 594 4494 
L 1172 4494 
z
" transform="scale(0.015625)"/>
       <path id="DejaVuSans-69" d="M 603 3500 
L 1178 3500 
L 1178 0 
L 603 0 
L 603 3500 
z
M 603 4863 
L 1178 4863 
L 1178 4134 
L 603 4134 
L 603 4863 
z
" transform="scale(0.015625)"/>
       <path id="DejaVuSans-20" transform="scale(0.015625)"/>
       <path id="DejaVuSans-5b" d="M 550 4863 
L 1875 4863 
L 1875 4416 
L 1125 4416 
L 1125 -397 
L 1875 -397 
L 1875 -844 
L 550 -844 
L 550 4863 
z
" transform="scale(0.015625)"/>
       <path id="DejaVuSans-5d" d="M 1947 4863 
L 1947 -844 
L 622 -844 
L 622 -397 
L 1369 -397 
L 1369 4416 
L 622 4416 
L 622 4863 
L 1947 4863 
z
" transform="scale(0.015625)"/>
      </defs>
      <use xlink:href="#DejaVuSans-74"/>
      <use xlink:href="#DejaVuSans-69" x="39.208984"/>
      <use xlink:href="#DejaVuSans-6d" x="66.992188"/>
      <use xlink:href="#DejaVuSans-65" x="164.404297"/>
      <use xlink:href="#DejaVuSans-20" x="225.927734"/>
      <use xlink:href="#DejaVuSans-5b" x="257.714844"/>
      <use xlink:href="#DejaVuSans-73" x="296.728516"/>
      <use xlink:href="#DejaVuSans-5d" x="348.828125"/>
     </g>
    </g>
   </g>
   <g id="LineCollection_1">
    <path d="M 100.887273 235.939942 
L 154.996364 235.939942 
" clip-path="url(#pbe39970bf5)" style="fill: none; stroke: #1f77b4; stroke-width: 1.5"/>
    <path d="M 317.323636 53.568 
L 371.432727 53.568 
" clip-path="url(#pbe39970bf5)" style="fill: none; stroke: #1f77b4; stroke-width: 1.5"/>
   </g>
   <g id="LineCollection_2">
    <path d="M 100.887273 295.488 
L 154.996364 295.488 
" clip-path="url(#pbe39970bf5)" style="fill: none; stroke: #1f77b4; stroke-width: 1.5"/>
    <path d="M 317.323636 226.055349 
L 371.432727 226.055349 
" clip-path="url(#pbe39970bf5)" style="fill: none; stroke: #1f77b4; stroke-width: 1.5"/>
   </g>
   <g id="LineCollection_3">
    <path d="M 127.941818 295.488 
L 127.941818 235.939942 
" clip-path="url(#pbe39970bf5)" style="fill: none; stroke: #1f77b4; stroke-width: 1.5"/>
    <path d="M 344.378182 226.055349 
L 344.378182 53.568 
" clip-path="url(#pbe39970bf5)" style="fill: none; stroke: #1f77b4; stroke-width: 1.5"/>
   </g>
   <g id="patch_3">
    <path d="M 57.6 307.584 
L 57.6 41.472 
" style="fill: none; stroke: #000000; stroke-width: 0.8; stroke-linejoin: miter; stroke-linecap: square"/>
   </g>
   <g id="patch_4">
    <path d="M 414.72 307.584 
L 414.72 41.472 
" style="fill: none; stroke: #000000; stroke-width: 0.8; stroke-linejoin: miter; stroke-linecap: square"/>
   </g>
   <g id="patch_5">
    <path d="M 57.6 307.584 
L 414.72 307.584 
" style="fill: none; stroke: #000000; stroke-width: 0.8; stroke-linejoin: miter; stroke-linecap: square"/>
   </g>
   <g id="patch_6">
    <path d="M 57.6 41.472 
L 414.72 41.472 
" style="fill: none; stroke: #000000; stroke-width: 0.8; stroke-linejoin: miter; stroke-linecap: square"/>
   </g>
  </g>
 </g>
 <defs>
  <clipPath id="pbe39970bf5">
   <rect x="57.6" y="41.472" width="357.12" height="266.112"/>
  </clipPath>
 </defs>
</svg>
