<?xml version="1.0" encoding="utf-8" standalone="no"?>
<!DOCTYPE svg PUBLIC "-//W3C//DTD SVG 1.1//EN"
  "http://www.w3.org/Graphics/SVG/1.1/DTD/svg11.dtd">
<svg xmlns:xlink="http://www.w3.org/1999/xlink" width="460.8pt" height="345.6pt" viewBox="0 0 460.8 345.6" xmlns="http://www.w3.org/2000/svg" version="1.1">
 <metadata>
  <rdf:RDF xmlns:dc="http://purl.org/dc/elements/1.1/" xmlns:cc="http://creativecommons.org/ns#" xmlns:rdf="http://www.w3.org/1999/02/22-rdf-syntax-ns#">
   <cc:Work>
    <dc:type rdf:resource="http://purl.org/dc/dcmitype/StillImage"/>
    <dc:date>2024-01-14T13:49:56.076521</dc:date>
    <dc:format>image/svg+xml</dc:format>
    <dc:creator>
     <cc:Agent>
      <dc:title>Matplotlib v3.7.0, https://matplotlib.org/</dc:title>
     </cc:Agent>
    </dc:creator>
   </cc:Work>
  </rdf:RDF>
 </metadata>
 <defs>
  <style type="text/css">*{stroke-linejoin: round; stroke-linecap: butt}</style>
 </defs>
 <g id="figure_1">
  <g id="patch_1">
   <path d="M 0 345.6 
L 460.8 345.6 
L 460.8 0 
L 0 0 
z
" style="fill: #ffffff"/>
  </g>
  <g id="axes_1">
   <g id="patch_2">
    <path d="M 57.6 307.584 
L 414.72 307.584 
L 414.72 41.472 
L 57.6 41.472 
z
" style="fill: #ffffff"/>
   </g>
   <g id="PolyCollection_1">
    <path d="M 73.832727 214.605583 
L 73.832727 214.605583 
L 75.467764 211.692834 
L 77.102801 208.698691 
L 78.737838 205.621905 
L 80.359582 202.461229 
L 81.994619 199.214793 
L 83.629656 195.882596 
L 85.264693 192.464326 
L 86.886437 188.959672 
L 88.521474 185.369257 
L 90.156511 181.694952 
L 91.778256 177.938317 
L 93.413293 174.101535 
L 95.04833 170.188036 
L 96.683367 166.201562 
L 98.305111 162.146791 
L 99.940148 158.028713 
L 101.575185 153.853877 
L 103.210222 149.629144 
L 104.831966 145.361686 
L 106.467003 141.059924 
L 108.10204 136.733214 
L 109.723784 132.391222 
L 111.358821 128.044553 
L 112.993858 123.703809 
L 114.628895 119.381153 
L 116.250639 115.088434 
L 117.885676 110.838129 
L 119.520713 106.643646 
L 121.15575 102.518084 
L 122.777494 98.47454 
L 124.412531 94.52736 
L 126.047568 90.689642 
L 127.669312 86.975107 
L 129.304349 83.397167 
L 130.939386 79.968918 
L 132.574423 76.703146 
L 134.196167 73.612327 
L 135.831204 70.707998 
L 137.466241 68.001699 
L 139.101278 65.503409 
L 140.723022 63.222483 
L 142.358059 61.168278 
L 143.993096 59.347966 
L 145.61484 57.768096 
L 147.249877 56.434282 
L 148.884914 55.351201 
L 150.519951 54.52166 
L 152.141695 53.947531 
L 153.776732 53.629748 
L 155.411769 53.568 
L 157.046806 53.759792 
L 158.66855 54.202942 
L 160.303587 54.892771 
L 161.938624 55.823977 
L 163.560369 56.9897 
L 165.195406 58.383079 
L 166.830443 59.994759 
L 168.46548 61.815383 
L 170.087224 63.834348 
L 171.722261 66.040739 
L 173.357298 68.422083 
L 174.992335 70.966528 
L 176.614079 73.660353 
L 178.249116 76.490459 
L 179.884153 79.442814 
L 181.51919 82.503695 
L 183.140934 85.658757 
L 184.775971 88.894278 
L 186.411008 92.196225 
L 188.032752 95.551188 
L 189.667789 98.945445 
L 191.302826 102.366209 
L 192.937863 105.801319 
L 194.559607 109.238612 
L 196.194644 112.666861 
L 197.829681 116.075775 
L 199.464718 119.455998 
L 201.086462 122.798175 
L 202.721499 126.094508 
L 204.356536 129.338138 
L 205.97828 132.522826 
L 207.613317 135.643272 
L 209.248354 138.695109 
L 210.883391 141.675531 
L 212.505135 144.581731 
L 214.140172 147.412461 
L 215.775209 150.166786 
L 217.410246 152.84533 
L 219.03199 155.449028 
L 220.667027 157.979439 
L 222.302064 160.439059 
L 223.923808 162.831006 
L 225.558845 165.15871 
L 227.193882 167.426538 
L 228.828919 169.638855 
L 230.450663 171.800651 
L 232.0857 173.916603 
L 233.720737 175.992327 
L 235.355774 178.033122 
L 236.977519 180.044603 
L 238.612556 182.03207 
L 240.247593 184.000515 
L 241.869337 185.955549 
L 243.504374 187.902163 
L 245.139411 189.844724 
L 246.774448 191.787596 
L 248.396192 193.735145 
L 250.031229 195.690492 
L 251.666266 197.657065 
L 253.301303 199.63736 
L 254.923047 201.633871 
L 256.558084 203.648159 
L 258.193121 205.681158 
L 259.828158 207.733803 
L 261.449902 209.806096 
L 263.084939 211.897724 
L 264.719976 214.008376 
L 266.34172 216.135867 
L 267.976757 218.278952 
L 269.611794 220.435758 
L 271.246831 222.602856 
L 272.868575 224.778062 
L 274.503612 226.957945 
L 276.138649 229.138764 
L 277.773686 231.317089 
L 279.39543 233.488241 
L 281.030467 235.648477 
L 282.665504 237.793745 
L 284.287248 239.918742 
L 285.922285 242.019725 
L 287.557322 244.092018 
L 289.192359 246.130942 
L 290.814103 248.13182 
L 292.44914 250.090597 
L 294.084177 252.002907 
L 295.719214 253.864696 
L 297.340958 255.67191 
L 298.975995 257.420183 
L 300.611032 259.106708 
L 302.232776 260.727743 
L 303.867813 262.279858 
L 305.50285 263.760245 
L 307.137887 265.166597 
L 308.759631 266.496108 
L 310.394669 267.74675 
L 312.029706 268.916683 
L 313.664743 270.004318 
L 315.286487 271.008343 
L 316.921524 271.92773 
L 318.556561 272.761761 
L 320.178305 273.50997 
L 321.813342 274.172168 
L 323.448379 274.748418 
L 325.083416 275.239126 
L 326.70516 275.644884 
L 328.340197 275.966565 
L 329.975234 276.205354 
L 331.610271 276.362624 
L 333.232015 276.440027 
L 334.867052 276.439403 
L 336.502089 276.362873 
L 338.137126 276.212807 
L 339.75887 275.991794 
L 341.393907 275.702546 
L 343.028944 275.34812 
L 344.650688 274.931728 
L 346.285725 274.456738 
L 347.920762 273.926767 
L 349.555799 273.345558 
L 351.177543 272.717041 
L 352.81258 272.045393 
L 354.447617 271.334795 
L 356.082654 270.589674 
L 357.704398 269.814552 
L 359.339435 269.014014 
L 360.974472 268.1928 
L 362.596216 267.355712 
L 364.231253 266.507585 
L 365.86629 265.653313 
L 367.501327 264.797826 
L 369.123071 263.946112 
L 370.758108 263.102849 
L 372.393145 262.272685 
L 374.028182 261.46092 
L 375.649926 260.672232 
L 377.284963 259.910365 
L 378.92 259.180618 
L 380.541744 258.486735 
L 382.176781 257.83277 
L 383.811819 257.222777 
L 385.446856 256.660186 
L 387.0686 256.148428 
L 388.703637 255.690621 
L 390.338674 255.289261 
L 391.973711 254.946841 
L 393.595455 254.665858 
L 395.230492 254.447557 
L 396.865529 254.293812 
L 398.487273 254.205556 
L 398.487273 254.205556 
L 398.487273 295.488 
L 396.865529 295.488 
L 395.230492 295.488 
L 393.595455 295.488 
L 391.973711 295.488 
L 390.338674 295.488 
L 388.703637 295.488 
L 387.0686 295.488 
L 385.446856 295.488 
L 383.811819 295.488 
L 382.176781 295.488 
L 380.541744 295.488 
L 378.92 295.488 
L 377.284963 295.488 
L 375.649926 295.488 
L 374.028182 295.488 
L 372.393145 295.488 
L 370.758108 295.488 
L 369.123071 295.488 
L 367.501327 295.488 
L 365.86629 295.488 
L 364.231253 295.488 
L 362.596216 295.488 
L 360.974472 295.488 
L 359.339435 295.488 
L 357.704398 295.488 
L 356.082654 295.488 
L 354.447617 295.488 
L 352.81258 295.488 
L 351.177543 295.488 
L 349.555799 295.488 
L 347.920762 295.488 
L 346.285725 295.488 
L 344.650688 295.488 
L 343.028944 295.488 
L 341.393907 295.488 
L 339.75887 295.488 
L 338.137126 295.488 
L 336.502089 295.488 
L 334.867052 295.488 
L 333.232015 295.488 
L 331.610271 295.488 
L 329.975234 295.488 
L 328.340197 295.488 
L 326.70516 295.488 
L 325.083416 295.488 
L 323.448379 295.488 
L 321.813342 295.488 
L 320.178305 295.488 
L 318.556561 295.488 
L 316.921524 295.488 
L 315.286487 295.488 
L 313.664743 295.488 
L 312.029706 295.488 
L 310.394669 295.488 
L 308.759631 295.488 
L 307.137887 295.488 
L 305.50285 295.488 
L 303.867813 295.488 
L 302.232776 295.488 
L 300.611032 295.488 
L 298.975995 295.488 
L 297.340958 295.488 
L 295.719214 295.488 
L 294.084177 295.488 
L 292.44914 295.488 
L 290.814103 295.488 
L 289.192359 295.488 
L 287.557322 295.488 
L 285.922285 295.488 
L 284.287248 295.488 
L 282.665504 295.488 
L 281.030467 295.488 
L 279.39543 295.488 
L 277.773686 295.488 
L 276.138649 295.488 
L 274.503612 295.488 
L 272.868575 295.488 
L 271.246831 295.488 
L 269.611794 295.488 
L 267.976757 295.488 
L 266.34172 295.488 
L 264.719976 295.488 
L 263.084939 295.488 
L 261.449902 295.488 
L 259.828158 295.488 
L 258.193121 295.488 
L 256.558084 295.488 
L 254.923047 295.488 
L 253.301303 295.488 
L 251.666266 295.488 
L 250.031229 295.488 
L 248.396192 295.488 
L 246.774448 295.488 
L 245.139411 295.488 
L 243.504374 295.488 
L 241.869337 295.488 
L 240.247593 295.488 
L 238.612556 295.488 
L 236.977519 295.488 
L 235.355774 295.488 
L 233.720737 295.488 
L 232.0857 295.488 
L 230.450663 295.488 
L 228.828919 295.488 
L 227.193882 295.488 
L 225.558845 295.488 
L 223.923808 295.488 
L 222.302064 295.488 
L 220.667027 295.488 
L 219.03199 295.488 
L 217.410246 295.488 
L 215.775209 295.488 
L 214.140172 295.488 
L 212.505135 295.488 
L 210.883391 295.488 
L 209.248354 295.488 
L 207.613317 295.488 
L 205.97828 295.488 
L 204.356536 295.488 
L 202.721499 295.488 
L 201.086462 295.488 
L 199.464718 295.488 
L 197.829681 295.488 
L 196.194644 295.488 
L 194.559607 295.488 
L 192.937863 295.488 
L 191.302826 295.488 
L 189.667789 295.488 
L 188.032752 295.488 
L 186.411008 295.488 
L 184.775971 295.488 
L 183.140934 295.488 
L 181.51919 295.488 
L 179.884153 295.488 
L 178.249116 295.488 
L 176.614079 295.488 
L 174.992335 295.488 
L 173.357298 295.488 
L 171.722261 295.488 
L 170.087224 295.488 
L 168.46548 295.488 
L 166.830443 295.488 
L 165.195406 295.488 
L 163.560369 295.488 
L 161.938624 295.488 
L 160.303587 295.488 
L 158.66855 295.488 
L 157.046806 295.488 
L 155.411769 295.488 
L 153.776732 295.488 
L 152.141695 295.488 
L 150.519951 295.488 
L 148.884914 295.488 
L 147.249877 295.488 
L 145.61484 295.488 
L 143.993096 295.488 
L 142.358059 295.488 
L 140.723022 295.488 
L 139.101278 295.488 
L 137.466241 295.488 
L 135.831204 295.488 
L 134.196167 295.488 
L 132.574423 295.488 
L 130.939386 295.488 
L 129.304349 295.488 
L 127.669312 295.488 
L 126.047568 295.488 
L 124.412531 295.488 
L 122.777494 295.488 
L 121.15575 295.488 
L 119.520713 295.488 
L 117.885676 295.488 
L 116.250639 295.488 
L 114.628895 295.488 
L 112.993858 295.488 
L 111.358821 295.488 
L 109.723784 295.488 
L 108.10204 295.488 
L 106.467003 295.488 
L 104.831966 295.488 
L 103.210222 295.488 
L 101.575185 295.488 
L 99.940148 295.488 
L 98.305111 295.488 
L 96.683367 295.488 
L 95.04833 295.488 
L 93.413293 295.488 
L 91.778256 295.488 
L 90.156511 295.488 
L 88.521474 295.488 
L 86.886437 295.488 
L 85.264693 295.488 
L 83.629656 295.488 
L 81.994619 295.488 
L 80.359582 295.488 
L 78.737838 295.488 
L 77.102801 295.488 
L 75.467764 295.488 
L 73.832727 295.488 
z
" clip-path="url(#p1e3d071231)" style="fill: #1f77b4; fill-opacity: 0.25"/>
   </g>
   <g id="matplotlib.axis_1">
    <g id="xtick_1">
     <g id="line2d_1">
      <defs>
       <path id="md245508c47" d="M 0 0 
L 0 3.5 
" style="stroke: #000000; stroke-width: 0.8"/>
      </defs>
      <g>
       <use xlink:href="#md245508c47" x="101.64165" y="307.584" style="stroke: #000000; stroke-width: 0.8"/>
      </g>
     </g>
     <g id="text_1">
      <!-- 0.00405 -->
      <g transform="translate(80.965087 322.182437) scale(0.1 -0.1)">
       <defs>
        <path id="DejaVuSans-30" d="M 2034 4250 
Q 1547 4250 1301 3770 
Q 1056 3291 1056 2328 
Q 1056 1369 1301 889 
Q 1547 409 2034 409 
Q 2525 409 2770 889 
Q 3016 1369 3016 2328 
Q 3016 3291 2770 3770 
Q 2525 4250 2034 4250 
z
M 2034 4750 
Q 2819 4750 3233 4129 
Q 3647 3509 3647 2328 
Q 3647 1150 3233 529 
Q 2819 -91 2034 -91 
Q 1250 -91 836 529 
Q 422 1150 422 2328 
Q 422 3509 836 4129 
Q 1250 4750 2034 4750 
z
" transform="scale(0.015625)"/>
        <path id="DejaVuSans-2e" d="M 684 794 
L 1344 794 
L 1344 0 
L 684 0 
L 684 794 
z
" transform="scale(0.015625)"/>
        <path id="DejaVuSans-34" d="M 2419 4116 
L 825 1625 
L 2419 1625 
L 2419 4116 
z
M 2253 4666 
L 3047 4666 
L 3047 1625 
L 3713 1625 
L 3713 1100 
L 3047 1100 
L 3047 0 
L 2419 0 
L 2419 1100 
L 313 1100 
L 313 1709 
L 2253 4666 
z
" transform="scale(0.015625)"/>
        <path id="DejaVuSans-35" d="M 691 4666 
L 3169 4666 
L 3169 4134 
L 1269 4134 
L 1269 2991 
Q 1406 3038 1543 3061 
Q 1681 3084 1819 3084 
Q 2600 3084 3056 2656 
Q 3513 2228 3513 1497 
Q 3513 744 3044 326 
Q 2575 -91 1722 -91 
Q 1428 -91 1123 -41 
Q 819 9 494 109 
L 494 744 
Q 775 591 1075 516 
Q 1375 441 1709 441 
Q 2250 441 2565 725 
Q 2881 1009 2881 1497 
Q 2881 1984 2565 2268 
Q 2250 2553 1709 2553 
Q 1456 2553 1204 2497 
Q 953 2441 691 2322 
L 691 4666 
z
" transform="scale(0.015625)"/>
       </defs>
       <use xlink:href="#DejaVuSans-30"/>
       <use xlink:href="#DejaVuSans-2e" x="63.623047"/>
       <use xlink:href="#DejaVuSans-30" x="95.410156"/>
       <use xlink:href="#DejaVuSans-30" x="159.033203"/>
       <use xlink:href="#DejaVuSans-34" x="222.65625"/>
       <use xlink:href="#DejaVuSans-30" x="286.279297"/>
       <use xlink:href="#DejaVuSans-35" x="349.902344"/>
      </g>
     </g>
    </g>
    <g id="xtick_2">
     <g id="line2d_2">
      <g>
       <use xlink:href="#md245508c47" x="168.106569" y="307.584" style="stroke: #000000; stroke-width: 0.8"/>
      </g>
     </g>
     <g id="text_2">
      <!-- 0.00410 -->
      <g transform="translate(147.430006 322.182437) scale(0.1 -0.1)">
       <defs>
        <path id="DejaVuSans-31" d="M 794 531 
L 1825 531 
L 1825 4091 
L 703 3866 
L 703 4441 
L 1819 4666 
L 2450 4666 
L 2450 531 
L 3481 531 
L 3481 0 
L 794 0 
L 794 531 
z
" transform="scale(0.015625)"/>
       </defs>
       <use xlink:href="#DejaVuSans-30"/>
       <use xlink:href="#DejaVuSans-2e" x="63.623047"/>
       <use xlink:href="#DejaVuSans-30" x="95.410156"/>
       <use xlink:href="#DejaVuSans-30" x="159.033203"/>
       <use xlink:href="#DejaVuSans-34" x="222.65625"/>
       <use xlink:href="#DejaVuSans-31" x="286.279297"/>
       <use xlink:href="#DejaVuSans-30" x="349.902344"/>
      </g>
     </g>
    </g>
    <g id="xtick_3">
     <g id="line2d_3">
      <g>
       <use xlink:href="#md245508c47" x="234.571488" y="307.584" style="stroke: #000000; stroke-width: 0.8"/>
      </g>
     </g>
     <g id="text_3">
      <!-- 0.00415 -->
      <g transform="translate(213.894926 322.182437) scale(0.1 -0.1)">
       <use xlink:href="#DejaVuSans-30"/>
       <use xlink:href="#DejaVuSans-2e" x="63.623047"/>
       <use xlink:href="#DejaVuSans-30" x="95.410156"/>
       <use xlink:href="#DejaVuSans-30" x="159.033203"/>
       <use xlink:href="#DejaVuSans-34" x="222.65625"/>
       <use xlink:href="#DejaVuSans-31" x="286.279297"/>
       <use xlink:href="#DejaVuSans-35" x="349.902344"/>
      </g>
     </g>
    </g>
    <g id="xtick_4">
     <g id="line2d_4">
      <g>
       <use xlink:href="#md245508c47" x="301.036408" y="307.584" style="stroke: #000000; stroke-width: 0.8"/>
      </g>
     </g>
     <g id="text_4">
      <!-- 0.00420 -->
      <g transform="translate(280.359845 322.182437) scale(0.1 -0.1)">
       <defs>
        <path id="DejaVuSans-32" d="M 1228 531 
L 3431 531 
L 3431 0 
L 469 0 
L 469 531 
Q 828 903 1448 1529 
Q 2069 2156 2228 2338 
Q 2531 2678 2651 2914 
Q 2772 3150 2772 3378 
Q 2772 3750 2511 3984 
Q 2250 4219 1831 4219 
Q 1534 4219 1204 4116 
Q 875 4013 500 3803 
L 500 4441 
Q 881 4594 1212 4672 
Q 1544 4750 1819 4750 
Q 2544 4750 2975 4387 
Q 3406 4025 3406 3419 
Q 3406 3131 3298 2873 
Q 3191 2616 2906 2266 
Q 2828 2175 2409 1742 
Q 1991 1309 1228 531 
z
" transform="scale(0.015625)"/>
       </defs>
       <use xlink:href="#DejaVuSans-30"/>
       <use xlink:href="#DejaVuSans-2e" x="63.623047"/>
       <use xlink:href="#DejaVuSans-30" x="95.410156"/>
       <use xlink:href="#DejaVuSans-30" x="159.033203"/>
       <use xlink:href="#DejaVuSans-34" x="222.65625"/>
       <use xlink:href="#DejaVuSans-32" x="286.279297"/>
       <use xlink:href="#DejaVuSans-30" x="349.902344"/>
      </g>
     </g>
    </g>
    <g id="xtick_5">
     <g id="line2d_5">
      <g>
       <use xlink:href="#md245508c47" x="367.501327" y="307.584" style="stroke: #000000; stroke-width: 0.8"/>
      </g>
     </g>
     <g id="text_5">
      <!-- 0.00425 -->
      <g transform="translate(346.824765 322.182437) scale(0.1 -0.1)">
       <use xlink:href="#DejaVuSans-30"/>
       <use xlink:href="#DejaVuSans-2e" x="63.623047"/>
       <use xlink:href="#DejaVuSans-30" x="95.410156"/>
       <use xlink:href="#DejaVuSans-30" x="159.033203"/>
       <use xlink:href="#DejaVuSans-34" x="222.65625"/>
       <use xlink:href="#DejaVuSans-32" x="286.279297"/>
       <use xlink:href="#DejaVuSans-35" x="349.902344"/>
      </g>
     </g>
    </g>
    <g id="text_6">
     <!-- t [s] -->
     <g transform="translate(226.104531 335.860562) scale(0.1 -0.1)">
      <defs>
       <path id="DejaVuSans-74" d="M 1172 4494 
L 1172 3500 
L 2356 3500 
L 2356 3053 
L 1172 3053 
L 1172 1153 
Q 1172 725 1289 603 
Q 1406 481 1766 481 
L 2356 481 
L 2356 0 
L 1766 0 
Q 1100 0 847 248 
Q 594 497 594 1153 
L 594 3053 
L 172 3053 
L 172 3500 
L 594 3500 
L 594 4494 
L 1172 4494 
z
" transform="scale(0.015625)"/>
       <path id="DejaVuSans-20" transform="scale(0.015625)"/>
       <path id="DejaVuSans-5b" d="M 550 4863 
L 1875 4863 
L 1875 4416 
L 1125 4416 
L 1125 -397 
L 1875 -397 
L 1875 -844 
L 550 -844 
L 550 4863 
z
" transform="scale(0.015625)"/>
       <path id="DejaVuSans-73" d="M 2834 3397 
L 2834 2853 
Q 2591 2978 2328 3040 
Q 2066 3103 1784 3103 
Q 1356 3103 1142 2972 
Q 928 2841 928 2578 
Q 928 2378 1081 2264 
Q 1234 2150 1697 2047 
L 1894 2003 
Q 2506 1872 2764 1633 
Q 3022 1394 3022 966 
Q 3022 478 2636 193 
Q 2250 -91 1575 -91 
Q 1294 -91 989 -36 
Q 684 19 347 128 
L 347 722 
Q 666 556 975 473 
Q 1284 391 1588 391 
Q 1994 391 2212 530 
Q 2431 669 2431 922 
Q 2431 1156 2273 1281 
Q 2116 1406 1581 1522 
L 1381 1569 
Q 847 1681 609 1914 
Q 372 2147 372 2553 
Q 372 3047 722 3315 
Q 1072 3584 1716 3584 
Q 2034 3584 2315 3537 
Q 2597 3491 2834 3397 
z
" transform="scale(0.015625)"/>
       <path id="DejaVuSans-5d" d="M 1947 4863 
L 1947 -844 
L 622 -844 
L 622 -397 
L 1369 -397 
L 1369 4416 
L 622 4416 
L 622 4863 
L 1947 4863 
z
" transform="scale(0.015625)"/>
      </defs>
      <use xlink:href="#DejaVuSans-74"/>
      <use xlink:href="#DejaVuSans-20" x="39.208984"/>
      <use xlink:href="#DejaVuSans-5b" x="70.996094"/>
      <use xlink:href="#DejaVuSans-73" x="110.009766"/>
      <use xlink:href="#DejaVuSans-5d" x="162.109375"/>
     </g>
    </g>
   </g>
   <g id="matplotlib.axis_2">
    <g id="ytick_1"/>
    <g id="ytick_2"/>
    <g id="ytick_3"/>
    <g id="ytick_4"/>
    <g id="ytick_5"/>
    <g id="ytick_6"/>
    <g id="ytick_7"/>
    <g id="ytick_8"/>
    <g id="ytick_9"/>
    <g id="text_7">
     <!-- probability density -->
     <g transform="translate(51.520312 221.125656) rotate(-90) scale(0.1 -0.1)">
      <defs>
       <path id="DejaVuSans-70" d="M 1159 525 
L 1159 -1331 
L 581 -1331 
L 581 3500 
L 1159 3500 
L 1159 2969 
Q 1341 3281 1617 3432 
Q 1894 3584 2278 3584 
Q 2916 3584 3314 3078 
Q 3713 2572 3713 1747 
Q 3713 922 3314 415 
Q 2916 -91 2278 -91 
Q 1894 -91 1617 61 
Q 1341 213 1159 525 
z
M 3116 1747 
Q 3116 2381 2855 2742 
Q 2594 3103 2138 3103 
Q 1681 3103 1420 2742 
Q 1159 2381 1159 1747 
Q 1159 1113 1420 752 
Q 1681 391 2138 391 
Q 2594 391 2855 752 
Q 3116 1113 3116 1747 
z
" transform="scale(0.015625)"/>
       <path id="DejaVuSans-72" d="M 2631 2963 
Q 2534 3019 2420 3045 
Q 2306 3072 2169 3072 
Q 1681 3072 1420 2755 
Q 1159 2438 1159 1844 
L 1159 0 
L 581 0 
L 581 3500 
L 1159 3500 
L 1159 2956 
Q 1341 3275 1631 3429 
Q 1922 3584 2338 3584 
Q 2397 3584 2469 3576 
Q 2541 3569 2628 3553 
L 2631 2963 
z
" transform="scale(0.015625)"/>
       <path id="DejaVuSans-6f" d="M 1959 3097 
Q 1497 3097 1228 2736 
Q 959 2375 959 1747 
Q 959 1119 1226 758 
Q 1494 397 1959 397 
Q 2419 397 2687 759 
Q 2956 1122 2956 1747 
Q 2956 2369 2687 2733 
Q 2419 3097 1959 3097 
z
M 1959 3584 
Q 2709 3584 3137 3096 
Q 3566 2609 3566 1747 
Q 3566 888 3137 398 
Q 2709 -91 1959 -91 
Q 1206 -91 779 398 
Q 353 888 353 1747 
Q 353 2609 779 3096 
Q 1206 3584 1959 3584 
z
" transform="scale(0.015625)"/>
       <path id="DejaVuSans-62" d="M 3116 1747 
Q 3116 2381 2855 2742 
Q 2594 3103 2138 3103 
Q 1681 3103 1420 2742 
Q 1159 2381 1159 1747 
Q 1159 1113 1420 752 
Q 1681 391 2138 391 
Q 2594 391 2855 752 
Q 3116 1113 3116 1747 
z
M 1159 2969 
Q 1341 3281 1617 3432 
Q 1894 3584 2278 3584 
Q 2916 3584 3314 3078 
Q 3713 2572 3713 1747 
Q 3713 922 3314 415 
Q 2916 -91 2278 -91 
Q 1894 -91 1617 61 
Q 1341 213 1159 525 
L 1159 0 
L 581 0 
L 581 4863 
L 1159 4863 
L 1159 2969 
z
" transform="scale(0.015625)"/>
       <path id="DejaVuSans-61" d="M 2194 1759 
Q 1497 1759 1228 1600 
Q 959 1441 959 1056 
Q 959 750 1161 570 
Q 1363 391 1709 391 
Q 2188 391 2477 730 
Q 2766 1069 2766 1631 
L 2766 1759 
L 2194 1759 
z
M 3341 1997 
L 3341 0 
L 2766 0 
L 2766 531 
Q 2569 213 2275 61 
Q 1981 -91 1556 -91 
Q 1019 -91 701 211 
Q 384 513 384 1019 
Q 384 1609 779 1909 
Q 1175 2209 1959 2209 
L 2766 2209 
L 2766 2266 
Q 2766 2663 2505 2880 
Q 2244 3097 1772 3097 
Q 1472 3097 1187 3025 
Q 903 2953 641 2809 
L 641 3341 
Q 956 3463 1253 3523 
Q 1550 3584 1831 3584 
Q 2591 3584 2966 3190 
Q 3341 2797 3341 1997 
z
" transform="scale(0.015625)"/>
       <path id="DejaVuSans-69" d="M 603 3500 
L 1178 3500 
L 1178 0 
L 603 0 
L 603 3500 
z
M 603 4863 
L 1178 4863 
L 1178 4134 
L 603 4134 
L 603 4863 
z
" transform="scale(0.015625)"/>
       <path id="DejaVuSans-6c" d="M 603 4863 
L 1178 4863 
L 1178 0 
L 603 0 
L 603 4863 
z
" transform="scale(0.015625)"/>
       <path id="DejaVuSans-79" d="M 2059 -325 
Q 1816 -950 1584 -1140 
Q 1353 -1331 966 -1331 
L 506 -1331 
L 506 -850 
L 844 -850 
Q 1081 -850 1212 -737 
Q 1344 -625 1503 -206 
L 1606 56 
L 191 3500 
L 800 3500 
L 1894 763 
L 2988 3500 
L 3597 3500 
L 2059 -325 
z
" transform="scale(0.015625)"/>
       <path id="DejaVuSans-64" d="M 2906 2969 
L 2906 4863 
L 3481 4863 
L 3481 0 
L 2906 0 
L 2906 525 
Q 2725 213 2448 61 
Q 2172 -91 1784 -91 
Q 1150 -91 751 415 
Q 353 922 353 1747 
Q 353 2572 751 3078 
Q 1150 3584 1784 3584 
Q 2172 3584 2448 3432 
Q 2725 3281 2906 2969 
z
M 947 1747 
Q 947 1113 1208 752 
Q 1469 391 1925 391 
Q 2381 391 2643 752 
Q 2906 1113 2906 1747 
Q 2906 2381 2643 2742 
Q 2381 3103 1925 3103 
Q 1469 3103 1208 2742 
Q 947 2381 947 1747 
z
" transform="scale(0.015625)"/>
       <path id="DejaVuSans-65" d="M 3597 1894 
L 3597 1613 
L 953 1613 
Q 991 1019 1311 708 
Q 1631 397 2203 397 
Q 2534 397 2845 478 
Q 3156 559 3463 722 
L 3463 178 
Q 3153 47 2828 -22 
Q 2503 -91 2169 -91 
Q 1331 -91 842 396 
Q 353 884 353 1716 
Q 353 2575 817 3079 
Q 1281 3584 2069 3584 
Q 2775 3584 3186 3129 
Q 3597 2675 3597 1894 
z
M 3022 2063 
Q 3016 2534 2758 2815 
Q 2500 3097 2075 3097 
Q 1594 3097 1305 2825 
Q 1016 2553 972 2059 
L 3022 2063 
z
" transform="scale(0.015625)"/>
       <path id="DejaVuSans-6e" d="M 3513 2113 
L 3513 0 
L 2938 0 
L 2938 2094 
Q 2938 2591 2744 2837 
Q 2550 3084 2163 3084 
Q 1697 3084 1428 2787 
Q 1159 2491 1159 1978 
L 1159 0 
L 581 0 
L 581 3500 
L 1159 3500 
L 1159 2956 
Q 1366 3272 1645 3428 
Q 1925 3584 2291 3584 
Q 2894 3584 3203 3211 
Q 3513 2838 3513 2113 
z
" transform="scale(0.015625)"/>
      </defs>
      <use xlink:href="#DejaVuSans-70"/>
      <use xlink:href="#DejaVuSans-72" x="63.476562"/>
      <use xlink:href="#DejaVuSans-6f" x="102.339844"/>
      <use xlink:href="#DejaVuSans-62" x="163.521484"/>
      <use xlink:href="#DejaVuSans-61" x="226.998047"/>
      <use xlink:href="#DejaVuSans-62" x="288.277344"/>
      <use xlink:href="#DejaVuSans-69" x="351.753906"/>
      <use xlink:href="#DejaVuSans-6c" x="379.537109"/>
      <use xlink:href="#DejaVuSans-69" x="407.320312"/>
      <use xlink:href="#DejaVuSans-74" x="435.103516"/>
      <use xlink:href="#DejaVuSans-79" x="474.3125"/>
      <use xlink:href="#DejaVuSans-20" x="533.492188"/>
      <use xlink:href="#DejaVuSans-64" x="565.279297"/>
      <use xlink:href="#DejaVuSans-65" x="628.755859"/>
      <use xlink:href="#DejaVuSans-6e" x="690.279297"/>
      <use xlink:href="#DejaVuSans-73" x="753.658203"/>
      <use xlink:href="#DejaVuSans-69" x="805.757812"/>
      <use xlink:href="#DejaVuSans-74" x="833.541016"/>
      <use xlink:href="#DejaVuSans-79" x="872.75"/>
     </g>
    </g>
   </g>
   <g id="LineCollection_1">
    <path d="M 189.428515 295.488 
L 189.428515 98.436493 
" clip-path="url(#p1e3d071231)" style="fill: none; stroke: #1f77b4; stroke-width: 1.5"/>
   </g>
   <g id="patch_3">
    <path d="M 57.6 307.584 
L 57.6 41.472 
" style="fill: none; stroke: #000000; stroke-width: 0.8; stroke-linejoin: miter; stroke-linecap: square"/>
   </g>
   <g id="patch_4">
    <path d="M 414.72 307.584 
L 414.72 41.472 
" style="fill: none; stroke: #000000; stroke-width: 0.8; stroke-linejoin: miter; stroke-linecap: square"/>
   </g>
   <g id="patch_5">
    <path d="M 57.6 307.584 
L 414.72 307.584 
" style="fill: none; stroke: #000000; stroke-width: 0.8; stroke-linejoin: miter; stroke-linecap: square"/>
   </g>
   <g id="patch_6">
    <path d="M 57.6 41.472 
L 414.72 41.472 
" style="fill: none; stroke: #000000; stroke-width: 0.8; stroke-linejoin: miter; stroke-linecap: square"/>
   </g>
   <g id="text_8">
    <!-- echo 3100 | python3 quicksort.py -->
    <g transform="translate(135.035625 35.472) scale(0.12 -0.12)">
     <defs>
      <path id="DejaVuSans-63" d="M 3122 3366 
L 3122 2828 
Q 2878 2963 2633 3030 
Q 2388 3097 2138 3097 
Q 1578 3097 1268 2742 
Q 959 2388 959 1747 
Q 959 1106 1268 751 
Q 1578 397 2138 397 
Q 2388 397 2633 464 
Q 2878 531 3122 666 
L 3122 134 
Q 2881 22 2623 -34 
Q 2366 -91 2075 -91 
Q 1284 -91 818 406 
Q 353 903 353 1747 
Q 353 2603 823 3093 
Q 1294 3584 2113 3584 
Q 2378 3584 2631 3529 
Q 2884 3475 3122 3366 
z
" transform="scale(0.015625)"/>
      <path id="DejaVuSans-68" d="M 3513 2113 
L 3513 0 
L 2938 0 
L 2938 2094 
Q 2938 2591 2744 2837 
Q 2550 3084 2163 3084 
Q 1697 3084 1428 2787 
Q 1159 2491 1159 1978 
L 1159 0 
L 581 0 
L 581 4863 
L 1159 4863 
L 1159 2956 
Q 1366 3272 1645 3428 
Q 1925 3584 2291 3584 
Q 2894 3584 3203 3211 
Q 3513 2838 3513 2113 
z
" transform="scale(0.015625)"/>
      <path id="DejaVuSans-33" d="M 2597 2516 
Q 3050 2419 3304 2112 
Q 3559 1806 3559 1356 
Q 3559 666 3084 287 
Q 2609 -91 1734 -91 
Q 1441 -91 1130 -33 
Q 819 25 488 141 
L 488 750 
Q 750 597 1062 519 
Q 1375 441 1716 441 
Q 2309 441 2620 675 
Q 2931 909 2931 1356 
Q 2931 1769 2642 2001 
Q 2353 2234 1838 2234 
L 1294 2234 
L 1294 2753 
L 1863 2753 
Q 2328 2753 2575 2939 
Q 2822 3125 2822 3475 
Q 2822 3834 2567 4026 
Q 2313 4219 1838 4219 
Q 1578 4219 1281 4162 
Q 984 4106 628 3988 
L 628 4550 
Q 988 4650 1302 4700 
Q 1616 4750 1894 4750 
Q 2613 4750 3031 4423 
Q 3450 4097 3450 3541 
Q 3450 3153 3228 2886 
Q 3006 2619 2597 2516 
z
" transform="scale(0.015625)"/>
      <path id="DejaVuSans-7c" d="M 1344 4891 
L 1344 -1509 
L 813 -1509 
L 813 4891 
L 1344 4891 
z
" transform="scale(0.015625)"/>
      <path id="DejaVuSans-71" d="M 947 1747 
Q 947 1113 1208 752 
Q 1469 391 1925 391 
Q 2381 391 2643 752 
Q 2906 1113 2906 1747 
Q 2906 2381 2643 2742 
Q 2381 3103 1925 3103 
Q 1469 3103 1208 2742 
Q 947 2381 947 1747 
z
M 2906 525 
Q 2725 213 2448 61 
Q 2172 -91 1784 -91 
Q 1150 -91 751 415 
Q 353 922 353 1747 
Q 353 2572 751 3078 
Q 1150 3584 1784 3584 
Q 2172 3584 2448 3432 
Q 2725 3281 2906 2969 
L 2906 3500 
L 3481 3500 
L 3481 -1331 
L 2906 -1331 
L 2906 525 
z
" transform="scale(0.015625)"/>
      <path id="DejaVuSans-75" d="M 544 1381 
L 544 3500 
L 1119 3500 
L 1119 1403 
Q 1119 906 1312 657 
Q 1506 409 1894 409 
Q 2359 409 2629 706 
Q 2900 1003 2900 1516 
L 2900 3500 
L 3475 3500 
L 3475 0 
L 2900 0 
L 2900 538 
Q 2691 219 2414 64 
Q 2138 -91 1772 -91 
Q 1169 -91 856 284 
Q 544 659 544 1381 
z
M 1991 3584 
L 1991 3584 
z
" transform="scale(0.015625)"/>
      <path id="DejaVuSans-6b" d="M 581 4863 
L 1159 4863 
L 1159 1991 
L 2875 3500 
L 3609 3500 
L 1753 1863 
L 3688 0 
L 2938 0 
L 1159 1709 
L 1159 0 
L 581 0 
L 581 4863 
z
" transform="scale(0.015625)"/>
     </defs>
     <use xlink:href="#DejaVuSans-65"/>
     <use xlink:href="#DejaVuSans-63" x="61.523438"/>
     <use xlink:href="#DejaVuSans-68" x="116.503906"/>
     <use xlink:href="#DejaVuSans-6f" x="179.882812"/>
     <use xlink:href="#DejaVuSans-20" x="241.064453"/>
     <use xlink:href="#DejaVuSans-33" x="272.851562"/>
     <use xlink:href="#DejaVuSans-31" x="336.474609"/>
     <use xlink:href="#DejaVuSans-30" x="400.097656"/>
     <use xlink:href="#DejaVuSans-30" x="463.720703"/>
     <use xlink:href="#DejaVuSans-20" x="527.34375"/>
     <use xlink:href="#DejaVuSans-7c" x="559.130859"/>
     <use xlink:href="#DejaVuSans-20" x="592.822266"/>
     <use xlink:href="#DejaVuSans-70" x="624.609375"/>
     <use xlink:href="#DejaVuSans-79" x="688.085938"/>
     <use xlink:href="#DejaVuSans-74" x="747.265625"/>
     <use xlink:href="#DejaVuSans-68" x="786.474609"/>
     <use xlink:href="#DejaVuSans-6f" x="849.853516"/>
     <use xlink:href="#DejaVuSans-6e" x="911.035156"/>
     <use xlink:href="#DejaVuSans-33" x="974.414062"/>
     <use xlink:href="#DejaVuSans-20" x="1038.037109"/>
     <use xlink:href="#DejaVuSans-71" x="1069.824219"/>
     <use xlink:href="#DejaVuSans-75" x="1133.300781"/>
     <use xlink:href="#DejaVuSans-69" x="1196.679688"/>
     <use xlink:href="#DejaVuSans-63" x="1224.462891"/>
     <use xlink:href="#DejaVuSans-6b" x="1279.443359"/>
     <use xlink:href="#DejaVuSans-73" x="1337.353516"/>
     <use xlink:href="#DejaVuSans-6f" x="1389.453125"/>
     <use xlink:href="#DejaVuSans-72" x="1450.634766"/>
     <use xlink:href="#DejaVuSans-74" x="1491.748047"/>
     <use xlink:href="#DejaVuSans-2e" x="1530.957031"/>
     <use xlink:href="#DejaVuSans-70" x="1562.744141"/>
     <use xlink:href="#DejaVuSans-79" x="1626.220703"/>
    </g>
   </g>
  </g>
 </g>
 <defs>
  <clipPath id="p1e3d071231">
   <rect x="57.6" y="41.472" width="357.12" height="266.112"/>
  </clipPath>
 </defs>
</svg>
