<?xml version="1.0" encoding="utf-8" standalone="no"?>
<!DOCTYPE svg PUBLIC "-//W3C//DTD SVG 1.1//EN"
  "http://www.w3.org/Graphics/SVG/1.1/DTD/svg11.dtd">
<svg xmlns:xlink="http://www.w3.org/1999/xlink" width="460.8pt" height="345.6pt" viewBox="0 0 460.8 345.6" xmlns="http://www.w3.org/2000/svg" version="1.1">
 <metadata>
  <rdf:RDF xmlns:dc="http://purl.org/dc/elements/1.1/" xmlns:cc="http://creativecommons.org/ns#" xmlns:rdf="http://www.w3.org/1999/02/22-rdf-syntax-ns#">
   <cc:Work>
    <dc:type rdf:resource="http://purl.org/dc/dcmitype/StillImage"/>
    <dc:date>2024-01-14T13:49:56.123685</dc:date>
    <dc:format>image/svg+xml</dc:format>
    <dc:creator>
     <cc:Agent>
      <dc:title>Matplotlib v3.7.0, https://matplotlib.org/</dc:title>
     </cc:Agent>
    </dc:creator>
   </cc:Work>
  </rdf:RDF>
 </metadata>
 <defs>
  <style type="text/css">*{stroke-linejoin: round; stroke-linecap: butt}</style>
 </defs>
 <g id="figure_1">
  <g id="patch_1">
   <path d="M 0 345.6 
L 460.8 345.6 
L 460.8 0 
L 0 0 
z
" style="fill: #ffffff"/>
  </g>
  <g id="axes_1">
   <g id="patch_2">
    <path d="M 57.6 307.584 
L 414.72 307.584 
L 414.72 41.472 
L 57.6 41.472 
z
" style="fill: #ffffff"/>
   </g>
   <g id="PolyCollection_1">
    <path d="M 73.832727 193.144746 
L 73.832727 193.144746 
L 75.466961 190.095849 
L 77.094552 187.003029 
L 78.728786 183.867043 
L 80.356377 180.687891 
L 81.990611 177.468602 
L 83.624845 174.209176 
L 85.252436 170.912642 
L 86.88667 167.579758 
L 88.514261 164.212795 
L 90.148495 160.814025 
L 91.776086 157.386478 
L 93.41032 153.933183 
L 95.044554 150.455654 
L 96.672145 146.959192 
L 98.306379 143.44607 
L 99.93397 139.920831 
L 101.568204 136.387262 
L 103.202438 132.849906 
L 104.830028 129.313307 
L 106.464263 125.782767 
L 108.091853 122.262829 
L 109.726087 118.760309 
L 111.353678 115.279751 
L 112.987912 111.82797 
L 114.622146 108.410268 
L 116.282953 105.03346 
L 117.877328 101.70512 
L 119.538135 98.430548 
L 121.13251 95.217317 
L 122.793317 92.072243 
L 124.387691 89.002142 
L 126.048498 86.014588 
L 127.642873 83.117152 
L 129.30368 80.315893 
L 130.964487 77.618385 
L 132.558862 75.0322 
L 134.219669 72.563396 
L 135.814043 70.219548 
L 137.47485 68.005955 
L 139.069225 65.930192 
L 140.730032 63.997558 
L 142.324406 62.214113 
L 143.985213 60.585157 
L 145.64602 59.115992 
L 147.240395 57.810404 
L 148.901202 56.674451 
L 150.495577 55.709649 
L 152.156384 54.920541 
L 153.750758 54.310156 
L 155.411565 53.880008 
L 157.00594 53.632371 
L 158.666747 53.568 
L 160.327554 53.687654 
L 161.921929 53.992089 
L 163.582736 54.479034 
L 165.17711 55.148488 
L 166.837917 55.998938 
L 168.432292 57.028111 
L 170.093099 58.232221 
L 171.753906 59.608238 
L 173.348281 61.152376 
L 175.009088 62.860091 
L 176.603462 64.726839 
L 178.264269 66.74732 
L 179.858644 68.914717 
L 181.519451 71.222972 
L 183.113826 73.666027 
L 184.774633 76.237066 
L 186.435439 78.927759 
L 188.029814 81.73129 
L 189.690621 84.640085 
L 191.284996 87.645815 
L 192.945803 90.74015 
L 194.540177 93.914758 
L 196.200984 97.162067 
L 197.795359 100.473747 
L 199.456166 103.84071 
L 201.116973 107.255383 
L 202.711348 110.709436 
L 204.372155 114.195295 
L 205.966529 117.703874 
L 207.627336 121.229113 
L 209.221711 124.762682 
L 210.882518 128.297008 
L 212.476893 131.826791 
L 214.1377 135.3437 
L 215.798507 138.842433 
L 217.392881 142.316933 
L 219.053688 145.761898 
L 220.648063 149.172027 
L 222.30887 152.54202 
L 223.903245 155.867331 
L 225.564052 159.14569 
L 227.158426 162.371037 
L 228.819233 165.542616 
L 230.48004 168.655126 
L 232.074415 171.707809 
L 233.735222 174.697636 
L 235.329597 177.623849 
L 236.990403 180.48342 
L 238.584778 183.276348 
L 240.245585 186.001119 
L 241.906392 188.656976 
L 243.500767 191.244676 
L 245.161574 193.763461 
L 246.755948 196.213332 
L 248.416755 198.595045 
L 250.01113 200.907844 
L 251.671937 203.154001 
L 253.266312 205.332758 
L 254.927119 207.444872 
L 256.587926 209.492615 
L 258.1823 211.475231 
L 259.843107 213.394991 
L 261.437482 215.251894 
L 263.098289 217.046699 
L 264.692664 218.78092 
L 266.353471 220.455162 
L 267.947845 222.069729 
L 269.608652 223.625378 
L 271.269459 225.122715 
L 272.863834 226.56227 
L 274.524641 227.944269 
L 276.119016 229.268941 
L 277.779823 230.536361 
L 279.374197 231.746681 
L 281.035004 232.899672 
L 282.629379 233.995109 
L 284.290186 235.032764 
L 285.950993 236.012106 
L 287.545367 236.932758 
L 289.206174 237.794037 
L 290.800549 238.595413 
L 292.461356 239.336054 
L 294.055731 240.01543 
L 295.716538 240.632706 
L 297.310912 241.187051 
L 298.971719 241.677858 
L 300.632526 242.104446 
L 302.226901 242.465982 
L 303.887708 242.762087 
L 305.482083 242.992155 
L 307.14289 243.155808 
L 308.737264 243.252667 
L 310.398071 243.282732 
L 312.058878 243.246003 
L 313.653253 243.142555 
L 315.31406 242.972768 
L 316.908435 242.737247 
L 318.569242 242.436674 
L 320.163616 242.072109 
L 321.824423 241.644688 
L 323.418798 241.155926 
L 325.079605 240.607412 
L 326.740412 240.001117 
L 328.334787 239.339235 
L 329.995594 238.624115 
L 331.589968 237.858559 
L 333.250775 237.045293 
L 334.84515 236.187649 
L 336.505957 235.288883 
L 338.100331 234.352631 
L 339.761138 233.382679 
L 341.421945 232.383193 
L 343.01632 231.358185 
L 344.677127 230.312124 
L 346.271502 229.249554 
L 347.932309 228.175095 
L 349.526683 227.093517 
L 351.18749 226.009818 
L 352.781865 224.92877 
L 354.442672 223.855522 
L 356.103479 222.794997 
L 357.697854 221.752268 
L 359.358661 220.732334 
L 360.953035 219.740421 
L 362.613842 218.78092 
L 364.208217 217.858526 
L 365.869024 216.979299 
L 367.529831 216.146267 
L 369.124206 215.363975 
L 370.785013 214.636965 
L 372.379387 213.969783 
L 374.040194 213.365456 
L 375.634569 212.827772 
L 377.295376 212.359759 
L 378.889751 211.965205 
L 380.550558 211.645624 
L 382.211364 211.404045 
L 383.805739 211.241982 
L 385.466546 211.161708 
L 387.060921 211.164737 
L 388.721728 211.251827 
L 390.316102 211.423735 
L 391.976909 211.681217 
L 393.571284 212.023517 
L 395.232091 212.451393 
L 396.892898 212.963329 
L 398.487273 213.558568 
L 398.487273 213.558568 
L 398.487273 295.488 
L 396.892898 295.488 
L 395.232091 295.488 
L 393.571284 295.488 
L 391.976909 295.488 
L 390.316102 295.488 
L 388.721728 295.488 
L 387.060921 295.488 
L 385.466546 295.488 
L 383.805739 295.488 
L 382.211364 295.488 
L 380.550558 295.488 
L 378.889751 295.488 
L 377.295376 295.488 
L 375.634569 295.488 
L 374.040194 295.488 
L 372.379387 295.488 
L 370.785013 295.488 
L 369.124206 295.488 
L 367.529831 295.488 
L 365.869024 295.488 
L 364.208217 295.488 
L 362.613842 295.488 
L 360.953035 295.488 
L 359.358661 295.488 
L 357.697854 295.488 
L 356.103479 295.488 
L 354.442672 295.488 
L 352.781865 295.488 
L 351.18749 295.488 
L 349.526683 295.488 
L 347.932309 295.488 
L 346.271502 295.488 
L 344.677127 295.488 
L 343.01632 295.488 
L 341.421945 295.488 
L 339.761138 295.488 
L 338.100331 295.488 
L 336.505957 295.488 
L 334.84515 295.488 
L 333.250775 295.488 
L 331.589968 295.488 
L 329.995594 295.488 
L 328.334787 295.488 
L 326.740412 295.488 
L 325.079605 295.488 
L 323.418798 295.488 
L 321.824423 295.488 
L 320.163616 295.488 
L 318.569242 295.488 
L 316.908435 295.488 
L 315.31406 295.488 
L 313.653253 295.488 
L 312.058878 295.488 
L 310.398071 295.488 
L 308.737264 295.488 
L 307.14289 295.488 
L 305.482083 295.488 
L 303.887708 295.488 
L 302.226901 295.488 
L 300.632526 295.488 
L 298.971719 295.488 
L 297.310912 295.488 
L 295.716538 295.488 
L 294.055731 295.488 
L 292.461356 295.488 
L 290.800549 295.488 
L 289.206174 295.488 
L 287.545367 295.488 
L 285.950993 295.488 
L 284.290186 295.488 
L 282.629379 295.488 
L 281.035004 295.488 
L 279.374197 295.488 
L 277.779823 295.488 
L 276.119016 295.488 
L 274.524641 295.488 
L 272.863834 295.488 
L 271.269459 295.488 
L 269.608652 295.488 
L 267.947845 295.488 
L 266.353471 295.488 
L 264.692664 295.488 
L 263.098289 295.488 
L 261.437482 295.488 
L 259.843107 295.488 
L 258.1823 295.488 
L 256.587926 295.488 
L 254.927119 295.488 
L 253.266312 295.488 
L 251.671937 295.488 
L 250.01113 295.488 
L 248.416755 295.488 
L 246.755948 295.488 
L 245.161574 295.488 
L 243.500767 295.488 
L 241.906392 295.488 
L 240.245585 295.488 
L 238.584778 295.488 
L 236.990403 295.488 
L 235.329597 295.488 
L 233.735222 295.488 
L 232.074415 295.488 
L 230.48004 295.488 
L 228.819233 295.488 
L 227.158426 295.488 
L 225.564052 295.488 
L 223.903245 295.488 
L 222.30887 295.488 
L 220.648063 295.488 
L 219.053688 295.488 
L 217.392881 295.488 
L 215.798507 295.488 
L 214.1377 295.488 
L 212.476893 295.488 
L 210.882518 295.488 
L 209.221711 295.488 
L 207.627336 295.488 
L 205.966529 295.488 
L 204.372155 295.488 
L 202.711348 295.488 
L 201.116973 295.488 
L 199.456166 295.488 
L 197.795359 295.488 
L 196.200984 295.488 
L 194.540177 295.488 
L 192.945803 295.488 
L 191.284996 295.488 
L 189.690621 295.488 
L 188.029814 295.488 
L 186.435439 295.488 
L 184.774633 295.488 
L 183.113826 295.488 
L 181.519451 295.488 
L 179.858644 295.488 
L 178.264269 295.488 
L 176.603462 295.488 
L 175.009088 295.488 
L 173.348281 295.488 
L 171.753906 295.488 
L 170.093099 295.488 
L 168.432292 295.488 
L 166.837917 295.488 
L 165.17711 295.488 
L 163.582736 295.488 
L 161.921929 295.488 
L 160.327554 295.488 
L 158.666747 295.488 
L 157.00594 295.488 
L 155.411565 295.488 
L 153.750758 295.488 
L 152.156384 295.488 
L 150.495577 295.488 
L 148.901202 295.488 
L 147.240395 295.488 
L 145.64602 295.488 
L 143.985213 295.488 
L 142.324406 295.488 
L 140.730032 295.488 
L 139.069225 295.488 
L 137.47485 295.488 
L 135.814043 295.488 
L 134.219669 295.488 
L 132.558862 295.488 
L 130.964487 295.488 
L 129.30368 295.488 
L 127.642873 295.488 
L 126.048498 295.488 
L 124.387691 295.488 
L 122.793317 295.488 
L 121.13251 295.488 
L 119.538135 295.488 
L 117.877328 295.488 
L 116.282953 295.488 
L 114.622146 295.488 
L 112.987912 295.488 
L 111.353678 295.488 
L 109.726087 295.488 
L 108.091853 295.488 
L 106.464263 295.488 
L 104.830028 295.488 
L 103.202438 295.488 
L 101.568204 295.488 
L 99.93397 295.488 
L 98.306379 295.488 
L 96.672145 295.488 
L 95.044554 295.488 
L 93.41032 295.488 
L 91.776086 295.488 
L 90.148495 295.488 
L 88.514261 295.488 
L 86.88667 295.488 
L 85.252436 295.488 
L 83.624845 295.488 
L 81.990611 295.488 
L 80.356377 295.488 
L 78.728786 295.488 
L 77.094552 295.488 
L 75.466961 295.488 
L 73.832727 295.488 
z
" clip-path="url(#p0310148a12)" style="fill: #1f77b4; fill-opacity: 0.25"/>
   </g>
   <g id="matplotlib.axis_1">
    <g id="xtick_1">
     <g id="line2d_1">
      <defs>
       <path id="m273c0febef" d="M 0 0 
L 0 3.5 
" style="stroke: #000000; stroke-width: 0.8"/>
      </defs>
      <g>
       <use xlink:href="#m273c0febef" x="113.692094" y="307.584" style="stroke: #000000; stroke-width: 0.8"/>
      </g>
     </g>
     <g id="text_1">
      <!-- 0.0100 -->
      <g transform="translate(96.196782 322.182437) scale(0.1 -0.1)">
       <defs>
        <path id="DejaVuSans-30" d="M 2034 4250 
Q 1547 4250 1301 3770 
Q 1056 3291 1056 2328 
Q 1056 1369 1301 889 
Q 1547 409 2034 409 
Q 2525 409 2770 889 
Q 3016 1369 3016 2328 
Q 3016 3291 2770 3770 
Q 2525 4250 2034 4250 
z
M 2034 4750 
Q 2819 4750 3233 4129 
Q 3647 3509 3647 2328 
Q 3647 1150 3233 529 
Q 2819 -91 2034 -91 
Q 1250 -91 836 529 
Q 422 1150 422 2328 
Q 422 3509 836 4129 
Q 1250 4750 2034 4750 
z
" transform="scale(0.015625)"/>
        <path id="DejaVuSans-2e" d="M 684 794 
L 1344 794 
L 1344 0 
L 684 0 
L 684 794 
z
" transform="scale(0.015625)"/>
        <path id="DejaVuSans-31" d="M 794 531 
L 1825 531 
L 1825 4091 
L 703 3866 
L 703 4441 
L 1819 4666 
L 2450 4666 
L 2450 531 
L 3481 531 
L 3481 0 
L 794 0 
L 794 531 
z
" transform="scale(0.015625)"/>
       </defs>
       <use xlink:href="#DejaVuSans-30"/>
       <use xlink:href="#DejaVuSans-2e" x="63.623047"/>
       <use xlink:href="#DejaVuSans-30" x="95.410156"/>
       <use xlink:href="#DejaVuSans-31" x="159.033203"/>
       <use xlink:href="#DejaVuSans-30" x="222.65625"/>
       <use xlink:href="#DejaVuSans-30" x="286.279297"/>
      </g>
     </g>
    </g>
    <g id="xtick_2">
     <g id="line2d_2">
      <g>
       <use xlink:href="#m273c0febef" x="180.124373" y="307.584" style="stroke: #000000; stroke-width: 0.8"/>
      </g>
     </g>
     <g id="text_2">
      <!-- 0.0101 -->
      <g transform="translate(162.629061 322.182437) scale(0.1 -0.1)">
       <use xlink:href="#DejaVuSans-30"/>
       <use xlink:href="#DejaVuSans-2e" x="63.623047"/>
       <use xlink:href="#DejaVuSans-30" x="95.410156"/>
       <use xlink:href="#DejaVuSans-31" x="159.033203"/>
       <use xlink:href="#DejaVuSans-30" x="222.65625"/>
       <use xlink:href="#DejaVuSans-31" x="286.279297"/>
      </g>
     </g>
    </g>
    <g id="xtick_3">
     <g id="line2d_3">
      <g>
       <use xlink:href="#m273c0febef" x="246.556652" y="307.584" style="stroke: #000000; stroke-width: 0.8"/>
      </g>
     </g>
     <g id="text_3">
      <!-- 0.0102 -->
      <g transform="translate(229.061339 322.182437) scale(0.1 -0.1)">
       <defs>
        <path id="DejaVuSans-32" d="M 1228 531 
L 3431 531 
L 3431 0 
L 469 0 
L 469 531 
Q 828 903 1448 1529 
Q 2069 2156 2228 2338 
Q 2531 2678 2651 2914 
Q 2772 3150 2772 3378 
Q 2772 3750 2511 3984 
Q 2250 4219 1831 4219 
Q 1534 4219 1204 4116 
Q 875 4013 500 3803 
L 500 4441 
Q 881 4594 1212 4672 
Q 1544 4750 1819 4750 
Q 2544 4750 2975 4387 
Q 3406 4025 3406 3419 
Q 3406 3131 3298 2873 
Q 3191 2616 2906 2266 
Q 2828 2175 2409 1742 
Q 1991 1309 1228 531 
z
" transform="scale(0.015625)"/>
       </defs>
       <use xlink:href="#DejaVuSans-30"/>
       <use xlink:href="#DejaVuSans-2e" x="63.623047"/>
       <use xlink:href="#DejaVuSans-30" x="95.410156"/>
       <use xlink:href="#DejaVuSans-31" x="159.033203"/>
       <use xlink:href="#DejaVuSans-30" x="222.65625"/>
       <use xlink:href="#DejaVuSans-32" x="286.279297"/>
      </g>
     </g>
    </g>
    <g id="xtick_4">
     <g id="line2d_4">
      <g>
       <use xlink:href="#m273c0febef" x="312.98893" y="307.584" style="stroke: #000000; stroke-width: 0.8"/>
      </g>
     </g>
     <g id="text_4">
      <!-- 0.0103 -->
      <g transform="translate(295.493618 322.182437) scale(0.1 -0.1)">
       <defs>
        <path id="DejaVuSans-33" d="M 2597 2516 
Q 3050 2419 3304 2112 
Q 3559 1806 3559 1356 
Q 3559 666 3084 287 
Q 2609 -91 1734 -91 
Q 1441 -91 1130 -33 
Q 819 25 488 141 
L 488 750 
Q 750 597 1062 519 
Q 1375 441 1716 441 
Q 2309 441 2620 675 
Q 2931 909 2931 1356 
Q 2931 1769 2642 2001 
Q 2353 2234 1838 2234 
L 1294 2234 
L 1294 2753 
L 1863 2753 
Q 2328 2753 2575 2939 
Q 2822 3125 2822 3475 
Q 2822 3834 2567 4026 
Q 2313 4219 1838 4219 
Q 1578 4219 1281 4162 
Q 984 4106 628 3988 
L 628 4550 
Q 988 4650 1302 4700 
Q 1616 4750 1894 4750 
Q 2613 4750 3031 4423 
Q 3450 4097 3450 3541 
Q 3450 3153 3228 2886 
Q 3006 2619 2597 2516 
z
" transform="scale(0.015625)"/>
       </defs>
       <use xlink:href="#DejaVuSans-30"/>
       <use xlink:href="#DejaVuSans-2e" x="63.623047"/>
       <use xlink:href="#DejaVuSans-30" x="95.410156"/>
       <use xlink:href="#DejaVuSans-31" x="159.033203"/>
       <use xlink:href="#DejaVuSans-30" x="222.65625"/>
       <use xlink:href="#DejaVuSans-33" x="286.279297"/>
      </g>
     </g>
    </g>
    <g id="xtick_5">
     <g id="line2d_5">
      <g>
       <use xlink:href="#m273c0febef" x="379.421209" y="307.584" style="stroke: #000000; stroke-width: 0.8"/>
      </g>
     </g>
     <g id="text_5">
      <!-- 0.0104 -->
      <g transform="translate(361.925896 322.182437) scale(0.1 -0.1)">
       <defs>
        <path id="DejaVuSans-34" d="M 2419 4116 
L 825 1625 
L 2419 1625 
L 2419 4116 
z
M 2253 4666 
L 3047 4666 
L 3047 1625 
L 3713 1625 
L 3713 1100 
L 3047 1100 
L 3047 0 
L 2419 0 
L 2419 1100 
L 313 1100 
L 313 1709 
L 2253 4666 
z
" transform="scale(0.015625)"/>
       </defs>
       <use xlink:href="#DejaVuSans-30"/>
       <use xlink:href="#DejaVuSans-2e" x="63.623047"/>
       <use xlink:href="#DejaVuSans-30" x="95.410156"/>
       <use xlink:href="#DejaVuSans-31" x="159.033203"/>
       <use xlink:href="#DejaVuSans-30" x="222.65625"/>
       <use xlink:href="#DejaVuSans-34" x="286.279297"/>
      </g>
     </g>
    </g>
    <g id="text_6">
     <!-- t [s] -->
     <g transform="translate(226.104531 335.860562) scale(0.1 -0.1)">
      <defs>
       <path id="DejaVuSans-74" d="M 1172 4494 
L 1172 3500 
L 2356 3500 
L 2356 3053 
L 1172 3053 
L 1172 1153 
Q 1172 725 1289 603 
Q 1406 481 1766 481 
L 2356 481 
L 2356 0 
L 1766 0 
Q 1100 0 847 248 
Q 594 497 594 1153 
L 594 3053 
L 172 3053 
L 172 3500 
L 594 3500 
L 594 4494 
L 1172 4494 
z
" transform="scale(0.015625)"/>
       <path id="DejaVuSans-20" transform="scale(0.015625)"/>
       <path id="DejaVuSans-5b" d="M 550 4863 
L 1875 4863 
L 1875 4416 
L 1125 4416 
L 1125 -397 
L 1875 -397 
L 1875 -844 
L 550 -844 
L 550 4863 
z
" transform="scale(0.015625)"/>
       <path id="DejaVuSans-73" d="M 2834 3397 
L 2834 2853 
Q 2591 2978 2328 3040 
Q 2066 3103 1784 3103 
Q 1356 3103 1142 2972 
Q 928 2841 928 2578 
Q 928 2378 1081 2264 
Q 1234 2150 1697 2047 
L 1894 2003 
Q 2506 1872 2764 1633 
Q 3022 1394 3022 966 
Q 3022 478 2636 193 
Q 2250 -91 1575 -91 
Q 1294 -91 989 -36 
Q 684 19 347 128 
L 347 722 
Q 666 556 975 473 
Q 1284 391 1588 391 
Q 1994 391 2212 530 
Q 2431 669 2431 922 
Q 2431 1156 2273 1281 
Q 2116 1406 1581 1522 
L 1381 1569 
Q 847 1681 609 1914 
Q 372 2147 372 2553 
Q 372 3047 722 3315 
Q 1072 3584 1716 3584 
Q 2034 3584 2315 3537 
Q 2597 3491 2834 3397 
z
" transform="scale(0.015625)"/>
       <path id="DejaVuSans-5d" d="M 1947 4863 
L 1947 -844 
L 622 -844 
L 622 -397 
L 1369 -397 
L 1369 4416 
L 622 4416 
L 622 4863 
L 1947 4863 
z
" transform="scale(0.015625)"/>
      </defs>
      <use xlink:href="#DejaVuSans-74"/>
      <use xlink:href="#DejaVuSans-20" x="39.208984"/>
      <use xlink:href="#DejaVuSans-5b" x="70.996094"/>
      <use xlink:href="#DejaVuSans-73" x="110.009766"/>
      <use xlink:href="#DejaVuSans-5d" x="162.109375"/>
     </g>
    </g>
   </g>
   <g id="matplotlib.axis_2">
    <g id="ytick_1"/>
    <g id="ytick_2"/>
    <g id="ytick_3"/>
    <g id="ytick_4"/>
    <g id="ytick_5"/>
    <g id="ytick_6"/>
    <g id="ytick_7"/>
    <g id="text_7">
     <!-- probability density -->
     <g transform="translate(51.520312 221.125656) rotate(-90) scale(0.1 -0.1)">
      <defs>
       <path id="DejaVuSans-70" d="M 1159 525 
L 1159 -1331 
L 581 -1331 
L 581 3500 
L 1159 3500 
L 1159 2969 
Q 1341 3281 1617 3432 
Q 1894 3584 2278 3584 
Q 2916 3584 3314 3078 
Q 3713 2572 3713 1747 
Q 3713 922 3314 415 
Q 2916 -91 2278 -91 
Q 1894 -91 1617 61 
Q 1341 213 1159 525 
z
M 3116 1747 
Q 3116 2381 2855 2742 
Q 2594 3103 2138 3103 
Q 1681 3103 1420 2742 
Q 1159 2381 1159 1747 
Q 1159 1113 1420 752 
Q 1681 391 2138 391 
Q 2594 391 2855 752 
Q 3116 1113 3116 1747 
z
" transform="scale(0.015625)"/>
       <path id="DejaVuSans-72" d="M 2631 2963 
Q 2534 3019 2420 3045 
Q 2306 3072 2169 3072 
Q 1681 3072 1420 2755 
Q 1159 2438 1159 1844 
L 1159 0 
L 581 0 
L 581 3500 
L 1159 3500 
L 1159 2956 
Q 1341 3275 1631 3429 
Q 1922 3584 2338 3584 
Q 2397 3584 2469 3576 
Q 2541 3569 2628 3553 
L 2631 2963 
z
" transform="scale(0.015625)"/>
       <path id="DejaVuSans-6f" d="M 1959 3097 
Q 1497 3097 1228 2736 
Q 959 2375 959 1747 
Q 959 1119 1226 758 
Q 1494 397 1959 397 
Q 2419 397 2687 759 
Q 2956 1122 2956 1747 
Q 2956 2369 2687 2733 
Q 2419 3097 1959 3097 
z
M 1959 3584 
Q 2709 3584 3137 3096 
Q 3566 2609 3566 1747 
Q 3566 888 3137 398 
Q 2709 -91 1959 -91 
Q 1206 -91 779 398 
Q 353 888 353 1747 
Q 353 2609 779 3096 
Q 1206 3584 1959 3584 
z
" transform="scale(0.015625)"/>
       <path id="DejaVuSans-62" d="M 3116 1747 
Q 3116 2381 2855 2742 
Q 2594 3103 2138 3103 
Q 1681 3103 1420 2742 
Q 1159 2381 1159 1747 
Q 1159 1113 1420 752 
Q 1681 391 2138 391 
Q 2594 391 2855 752 
Q 3116 1113 3116 1747 
z
M 1159 2969 
Q 1341 3281 1617 3432 
Q 1894 3584 2278 3584 
Q 2916 3584 3314 3078 
Q 3713 2572 3713 1747 
Q 3713 922 3314 415 
Q 2916 -91 2278 -91 
Q 1894 -91 1617 61 
Q 1341 213 1159 525 
L 1159 0 
L 581 0 
L 581 4863 
L 1159 4863 
L 1159 2969 
z
" transform="scale(0.015625)"/>
       <path id="DejaVuSans-61" d="M 2194 1759 
Q 1497 1759 1228 1600 
Q 959 1441 959 1056 
Q 959 750 1161 570 
Q 1363 391 1709 391 
Q 2188 391 2477 730 
Q 2766 1069 2766 1631 
L 2766 1759 
L 2194 1759 
z
M 3341 1997 
L 3341 0 
L 2766 0 
L 2766 531 
Q 2569 213 2275 61 
Q 1981 -91 1556 -91 
Q 1019 -91 701 211 
Q 384 513 384 1019 
Q 384 1609 779 1909 
Q 1175 2209 1959 2209 
L 2766 2209 
L 2766 2266 
Q 2766 2663 2505 2880 
Q 2244 3097 1772 3097 
Q 1472 3097 1187 3025 
Q 903 2953 641 2809 
L 641 3341 
Q 956 3463 1253 3523 
Q 1550 3584 1831 3584 
Q 2591 3584 2966 3190 
Q 3341 2797 3341 1997 
z
" transform="scale(0.015625)"/>
       <path id="DejaVuSans-69" d="M 603 3500 
L 1178 3500 
L 1178 0 
L 603 0 
L 603 3500 
z
M 603 4863 
L 1178 4863 
L 1178 4134 
L 603 4134 
L 603 4863 
z
" transform="scale(0.015625)"/>
       <path id="DejaVuSans-6c" d="M 603 4863 
L 1178 4863 
L 1178 0 
L 603 0 
L 603 4863 
z
" transform="scale(0.015625)"/>
       <path id="DejaVuSans-79" d="M 2059 -325 
Q 1816 -950 1584 -1140 
Q 1353 -1331 966 -1331 
L 506 -1331 
L 506 -850 
L 844 -850 
Q 1081 -850 1212 -737 
Q 1344 -625 1503 -206 
L 1606 56 
L 191 3500 
L 800 3500 
L 1894 763 
L 2988 3500 
L 3597 3500 
L 2059 -325 
z
" transform="scale(0.015625)"/>
       <path id="DejaVuSans-64" d="M 2906 2969 
L 2906 4863 
L 3481 4863 
L 3481 0 
L 2906 0 
L 2906 525 
Q 2725 213 2448 61 
Q 2172 -91 1784 -91 
Q 1150 -91 751 415 
Q 353 922 353 1747 
Q 353 2572 751 3078 
Q 1150 3584 1784 3584 
Q 2172 3584 2448 3432 
Q 2725 3281 2906 2969 
z
M 947 1747 
Q 947 1113 1208 752 
Q 1469 391 1925 391 
Q 2381 391 2643 752 
Q 2906 1113 2906 1747 
Q 2906 2381 2643 2742 
Q 2381 3103 1925 3103 
Q 1469 3103 1208 2742 
Q 947 2381 947 1747 
z
" transform="scale(0.015625)"/>
       <path id="DejaVuSans-65" d="M 3597 1894 
L 3597 1613 
L 953 1613 
Q 991 1019 1311 708 
Q 1631 397 2203 397 
Q 2534 397 2845 478 
Q 3156 559 3463 722 
L 3463 178 
Q 3153 47 2828 -22 
Q 2503 -91 2169 -91 
Q 1331 -91 842 396 
Q 353 884 353 1716 
Q 353 2575 817 3079 
Q 1281 3584 2069 3584 
Q 2775 3584 3186 3129 
Q 3597 2675 3597 1894 
z
M 3022 2063 
Q 3016 2534 2758 2815 
Q 2500 3097 2075 3097 
Q 1594 3097 1305 2825 
Q 1016 2553 972 2059 
L 3022 2063 
z
" transform="scale(0.015625)"/>
       <path id="DejaVuSans-6e" d="M 3513 2113 
L 3513 0 
L 2938 0 
L 2938 2094 
Q 2938 2591 2744 2837 
Q 2550 3084 2163 3084 
Q 1697 3084 1428 2787 
Q 1159 2491 1159 1978 
L 1159 0 
L 581 0 
L 581 3500 
L 1159 3500 
L 1159 2956 
Q 1366 3272 1645 3428 
Q 1925 3584 2291 3584 
Q 2894 3584 3203 3211 
Q 3513 2838 3513 2113 
z
" transform="scale(0.015625)"/>
      </defs>
      <use xlink:href="#DejaVuSans-70"/>
      <use xlink:href="#DejaVuSans-72" x="63.476562"/>
      <use xlink:href="#DejaVuSans-6f" x="102.339844"/>
      <use xlink:href="#DejaVuSans-62" x="163.521484"/>
      <use xlink:href="#DejaVuSans-61" x="226.998047"/>
      <use xlink:href="#DejaVuSans-62" x="288.277344"/>
      <use xlink:href="#DejaVuSans-69" x="351.753906"/>
      <use xlink:href="#DejaVuSans-6c" x="379.537109"/>
      <use xlink:href="#DejaVuSans-69" x="407.320312"/>
      <use xlink:href="#DejaVuSans-74" x="435.103516"/>
      <use xlink:href="#DejaVuSans-79" x="474.3125"/>
      <use xlink:href="#DejaVuSans-20" x="533.492188"/>
      <use xlink:href="#DejaVuSans-64" x="565.279297"/>
      <use xlink:href="#DejaVuSans-65" x="628.755859"/>
      <use xlink:href="#DejaVuSans-6e" x="690.279297"/>
      <use xlink:href="#DejaVuSans-73" x="753.658203"/>
      <use xlink:href="#DejaVuSans-69" x="805.757812"/>
      <use xlink:href="#DejaVuSans-74" x="833.541016"/>
      <use xlink:href="#DejaVuSans-79" x="872.75"/>
     </g>
    </g>
   </g>
   <g id="LineCollection_1">
    <path d="M 207.42804 295.488 
L 207.42804 120.763372 
" clip-path="url(#p0310148a12)" style="fill: none; stroke: #1f77b4; stroke-width: 1.5"/>
   </g>
   <g id="patch_3">
    <path d="M 57.6 307.584 
L 57.6 41.472 
" style="fill: none; stroke: #000000; stroke-width: 0.8; stroke-linejoin: miter; stroke-linecap: square"/>
   </g>
   <g id="patch_4">
    <path d="M 414.72 307.584 
L 414.72 41.472 
" style="fill: none; stroke: #000000; stroke-width: 0.8; stroke-linejoin: miter; stroke-linecap: square"/>
   </g>
   <g id="patch_5">
    <path d="M 57.6 307.584 
L 414.72 307.584 
" style="fill: none; stroke: #000000; stroke-width: 0.8; stroke-linejoin: miter; stroke-linecap: square"/>
   </g>
   <g id="patch_6">
    <path d="M 57.6 41.472 
L 414.72 41.472 
" style="fill: none; stroke: #000000; stroke-width: 0.8; stroke-linejoin: miter; stroke-linecap: square"/>
   </g>
   <g id="text_8">
    <!-- echo 7100 | python3 quicksort.py -->
    <g transform="translate(135.035625 35.472) scale(0.12 -0.12)">
     <defs>
      <path id="DejaVuSans-63" d="M 3122 3366 
L 3122 2828 
Q 2878 2963 2633 3030 
Q 2388 3097 2138 3097 
Q 1578 3097 1268 2742 
Q 959 2388 959 1747 
Q 959 1106 1268 751 
Q 1578 397 2138 397 
Q 2388 397 2633 464 
Q 2878 531 3122 666 
L 3122 134 
Q 2881 22 2623 -34 
Q 2366 -91 2075 -91 
Q 1284 -91 818 406 
Q 353 903 353 1747 
Q 353 2603 823 3093 
Q 1294 3584 2113 3584 
Q 2378 3584 2631 3529 
Q 2884 3475 3122 3366 
z
" transform="scale(0.015625)"/>
      <path id="DejaVuSans-68" d="M 3513 2113 
L 3513 0 
L 2938 0 
L 2938 2094 
Q 2938 2591 2744 2837 
Q 2550 3084 2163 3084 
Q 1697 3084 1428 2787 
Q 1159 2491 1159 1978 
L 1159 0 
L 581 0 
L 581 4863 
L 1159 4863 
L 1159 2956 
Q 1366 3272 1645 3428 
Q 1925 3584 2291 3584 
Q 2894 3584 3203 3211 
Q 3513 2838 3513 2113 
z
" transform="scale(0.015625)"/>
      <path id="DejaVuSans-37" d="M 525 4666 
L 3525 4666 
L 3525 4397 
L 1831 0 
L 1172 0 
L 2766 4134 
L 525 4134 
L 525 4666 
z
" transform="scale(0.015625)"/>
      <path id="DejaVuSans-7c" d="M 1344 4891 
L 1344 -1509 
L 813 -1509 
L 813 4891 
L 1344 4891 
z
" transform="scale(0.015625)"/>
      <path id="DejaVuSans-71" d="M 947 1747 
Q 947 1113 1208 752 
Q 1469 391 1925 391 
Q 2381 391 2643 752 
Q 2906 1113 2906 1747 
Q 2906 2381 2643 2742 
Q 2381 3103 1925 3103 
Q 1469 3103 1208 2742 
Q 947 2381 947 1747 
z
M 2906 525 
Q 2725 213 2448 61 
Q 2172 -91 1784 -91 
Q 1150 -91 751 415 
Q 353 922 353 1747 
Q 353 2572 751 3078 
Q 1150 3584 1784 3584 
Q 2172 3584 2448 3432 
Q 2725 3281 2906 2969 
L 2906 3500 
L 3481 3500 
L 3481 -1331 
L 2906 -1331 
L 2906 525 
z
" transform="scale(0.015625)"/>
      <path id="DejaVuSans-75" d="M 544 1381 
L 544 3500 
L 1119 3500 
L 1119 1403 
Q 1119 906 1312 657 
Q 1506 409 1894 409 
Q 2359 409 2629 706 
Q 2900 1003 2900 1516 
L 2900 3500 
L 3475 3500 
L 3475 0 
L 2900 0 
L 2900 538 
Q 2691 219 2414 64 
Q 2138 -91 1772 -91 
Q 1169 -91 856 284 
Q 544 659 544 1381 
z
M 1991 3584 
L 1991 3584 
z
" transform="scale(0.015625)"/>
      <path id="DejaVuSans-6b" d="M 581 4863 
L 1159 4863 
L 1159 1991 
L 2875 3500 
L 3609 3500 
L 1753 1863 
L 3688 0 
L 2938 0 
L 1159 1709 
L 1159 0 
L 581 0 
L 581 4863 
z
" transform="scale(0.015625)"/>
     </defs>
     <use xlink:href="#DejaVuSans-65"/>
     <use xlink:href="#DejaVuSans-63" x="61.523438"/>
     <use xlink:href="#DejaVuSans-68" x="116.503906"/>
     <use xlink:href="#DejaVuSans-6f" x="179.882812"/>
     <use xlink:href="#DejaVuSans-20" x="241.064453"/>
     <use xlink:href="#DejaVuSans-37" x="272.851562"/>
     <use xlink:href="#DejaVuSans-31" x="336.474609"/>
     <use xlink:href="#DejaVuSans-30" x="400.097656"/>
     <use xlink:href="#DejaVuSans-30" x="463.720703"/>
     <use xlink:href="#DejaVuSans-20" x="527.34375"/>
     <use xlink:href="#DejaVuSans-7c" x="559.130859"/>
     <use xlink:href="#DejaVuSans-20" x="592.822266"/>
     <use xlink:href="#DejaVuSans-70" x="624.609375"/>
     <use xlink:href="#DejaVuSans-79" x="688.085938"/>
     <use xlink:href="#DejaVuSans-74" x="747.265625"/>
     <use xlink:href="#DejaVuSans-68" x="786.474609"/>
     <use xlink:href="#DejaVuSans-6f" x="849.853516"/>
     <use xlink:href="#DejaVuSans-6e" x="911.035156"/>
     <use xlink:href="#DejaVuSans-33" x="974.414062"/>
     <use xlink:href="#DejaVuSans-20" x="1038.037109"/>
     <use xlink:href="#DejaVuSans-71" x="1069.824219"/>
     <use xlink:href="#DejaVuSans-75" x="1133.300781"/>
     <use xlink:href="#DejaVuSans-69" x="1196.679688"/>
     <use xlink:href="#DejaVuSans-63" x="1224.462891"/>
     <use xlink:href="#DejaVuSans-6b" x="1279.443359"/>
     <use xlink:href="#DejaVuSans-73" x="1337.353516"/>
     <use xlink:href="#DejaVuSans-6f" x="1389.453125"/>
     <use xlink:href="#DejaVuSans-72" x="1450.634766"/>
     <use xlink:href="#DejaVuSans-74" x="1491.748047"/>
     <use xlink:href="#DejaVuSans-2e" x="1530.957031"/>
     <use xlink:href="#DejaVuSans-70" x="1562.744141"/>
     <use xlink:href="#DejaVuSans-79" x="1626.220703"/>
    </g>
   </g>
  </g>
 </g>
 <defs>
  <clipPath id="p0310148a12">
   <rect x="57.6" y="41.472" width="357.12" height="266.112"/>
  </clipPath>
 </defs>
</svg>
