<?xml version="1.0" encoding="utf-8" standalone="no"?>
<!DOCTYPE svg PUBLIC "-//W3C//DTD SVG 1.1//EN"
  "http://www.w3.org/Graphics/SVG/1.1/DTD/svg11.dtd">
<svg xmlns:xlink="http://www.w3.org/1999/xlink" width="753.478125pt" height="558.886875pt" viewBox="0 0 753.478125 558.886875" xmlns="http://www.w3.org/2000/svg" version="1.1">
 <metadata>
  <rdf:RDF xmlns:dc="http://purl.org/dc/elements/1.1/" xmlns:cc="http://creativecommons.org/ns#" xmlns:rdf="http://www.w3.org/1999/02/22-rdf-syntax-ns#">
   <cc:Work>
    <dc:type rdf:resource="http://purl.org/dc/dcmitype/StillImage"/>
    <dc:date>2024-01-14T13:49:56.308015</dc:date>
    <dc:format>image/svg+xml</dc:format>
    <dc:creator>
     <cc:Agent>
      <dc:title>Matplotlib v3.7.0, https://matplotlib.org/</dc:title>
     </cc:Agent>
    </dc:creator>
   </cc:Work>
  </rdf:RDF>
 </metadata>
 <defs>
  <style type="text/css">*{stroke-linejoin: round; stroke-linecap: butt}</style>
 </defs>
 <g id="figure_1">
  <g id="patch_1">
   <path d="M 0 558.886875 
L 753.478125 558.886875 
L 753.478125 0 
L 0 0 
z
" style="fill: #ffffff"/>
  </g>
  <g id="axes_1">
   <g id="patch_2">
    <path d="M 20.878125 521.330625 
L 746.278125 521.330625 
L 746.278125 22.370625 
L 20.878125 22.370625 
z
" style="fill: #ffffff"/>
   </g>
   <g id="PolyCollection_1">
    <path d="M 53.850852 346.996093 
L 53.850852 346.996093 
L 57.155379 341.534689 
L 60.459905 335.92067 
L 63.764432 330.151696 
L 67.042092 324.22543 
L 70.346619 318.138362 
L 73.651146 311.890493 
L 76.955672 305.481237 
L 80.233333 298.91001 
L 83.537859 292.177982 
L 86.842386 285.288661 
L 90.120046 278.24497 
L 93.424573 271.051003 
L 96.729099 263.713192 
L 100.033626 256.238553 
L 103.311286 248.635858 
L 106.615813 240.914462 
L 109.92034 233.086644 
L 113.224866 225.16527 
L 116.502527 217.163787 
L 119.807053 209.097983 
L 123.11158 200.985401 
L 126.38924 192.844167 
L 129.693767 184.694162 
L 132.998293 176.555267 
L 136.30282 168.450286 
L 139.580481 160.40144 
L 142.885007 152.432117 
L 146.189534 144.567461 
L 149.49406 136.832032 
L 152.771721 129.250387 
L 156.076247 121.849425 
L 159.380774 114.653703 
L 162.658434 107.688952 
L 165.962961 100.980313 
L 169.267487 94.552346 
L 172.572014 88.429024 
L 175.849675 82.633738 
L 179.154201 77.188122 
L 182.458728 72.113811 
L 185.763254 67.429517 
L 189.040915 63.152782 
L 192.345441 59.301147 
L 195.649968 55.888062 
L 198.927628 52.925806 
L 202.232155 50.424904 
L 205.536681 48.394127 
L 208.841208 46.838738 
L 212.118869 45.762245 
L 215.423395 45.166402 
L 218.727922 45.050625 
L 222.032448 45.410236 
L 225.310109 46.241141 
L 228.614635 47.53457 
L 231.919162 49.280582 
L 235.196822 51.466313 
L 238.501349 54.078899 
L 241.805875 57.100798 
L 245.110402 60.514467 
L 248.388063 64.300027 
L 251.692589 68.437011 
L 254.997116 72.902031 
L 258.301642 77.672865 
L 261.579303 82.723787 
L 264.883829 88.030236 
L 268.188356 93.565901 
L 271.492882 99.305053 
L 274.770543 105.220795 
L 278.07507 111.287397 
L 281.379596 117.478547 
L 284.657257 123.769102 
L 287.961783 130.133333 
L 291.26631 136.547267 
L 294.570836 142.988098 
L 297.848497 149.433023 
L 301.153023 155.86099 
L 304.45755 162.252704 
L 307.762076 168.590622 
L 311.039737 174.857203 
L 314.344264 181.037828 
L 317.64879 187.119633 
L 320.926451 193.090924 
L 324.230977 198.94176 
L 327.535504 204.663955 
L 330.84003 210.252246 
L 334.117691 215.70137 
L 337.422217 221.008989 
L 340.726744 226.173349 
L 344.03127 231.195619 
L 347.308931 236.077552 
L 350.613458 240.822074 
L 353.917984 245.433861 
L 357.195645 249.918761 
L 360.500171 254.283207 
L 363.804698 258.535383 
L 367.109224 262.683477 
L 370.386885 266.736845 
L 373.691411 270.704256 
L 376.995938 274.596238 
L 380.300465 278.422729 
L 383.578125 282.194255 
L 386.882652 285.920757 
L 390.187178 289.61159 
L 393.464839 293.27728 
L 396.769365 296.927181 
L 400.073892 300.569482 
L 403.378418 304.212367 
L 406.656079 307.864023 
L 409.960605 311.530297 
L 413.265132 315.217622 
L 416.569659 318.930675 
L 419.847319 322.674134 
L 423.151846 326.450923 
L 426.456372 330.262796 
L 429.760899 334.111507 
L 433.038559 337.997056 
L 436.343086 341.918858 
L 439.647612 345.87633 
L 442.925273 349.865376 
L 446.229799 353.88366 
L 449.534326 357.927672 
L 452.838853 361.990979 
L 456.116513 366.06949 
L 459.42104 370.156772 
L 462.725566 374.245808 
L 466.030093 378.330167 
L 469.307753 382.401076 
L 472.61228 386.45152 
L 475.916806 390.473896 
L 479.194467 394.458265 
L 482.498993 398.39761 
L 485.80352 402.283159 
L 489.108047 406.106142 
L 492.385707 409.857787 
L 495.690234 413.530494 
L 498.99476 417.116075 
L 502.299287 420.606929 
L 505.576947 423.995456 
L 508.881474 427.273467 
L 512.186 430.435702 
L 515.463661 433.475143 
L 518.768187 436.385358 
L 522.072714 439.161084 
L 525.377241 441.797995 
L 528.654901 444.290828 
L 531.959428 446.635782 
L 535.263954 448.829406 
L 538.568481 450.86872 
L 541.846141 452.751268 
L 545.150668 454.475118 
L 548.455194 456.038927 
L 551.732855 457.441818 
L 555.037381 458.68344 
L 558.341908 459.763909 
L 561.646435 460.683986 
L 564.924095 461.444782 
L 568.228622 462.047934 
L 571.533148 462.495663 
L 574.837675 462.790544 
L 578.115335 462.935675 
L 581.419862 462.934505 
L 584.724388 462.791012 
L 588.028915 462.509639 
L 591.306575 462.095238 
L 594.611102 461.552899 
L 597.915629 460.88835 
L 601.193289 460.107615 
L 604.497816 459.217008 
L 607.802342 458.223314 
L 611.106869 457.133547 
L 614.384529 455.955077 
L 617.689056 454.695738 
L 620.993582 453.363366 
L 624.298109 451.966264 
L 627.575769 450.512911 
L 630.880296 449.011902 
L 634.184823 447.472125 
L 637.462483 445.902585 
L 640.76701 444.312346 
L 644.071536 442.710588 
L 647.376063 441.106549 
L 650.653723 439.509585 
L 653.95825 437.928468 
L 657.262776 436.371909 
L 660.567303 434.84985 
L 663.844964 433.371061 
L 667.14949 431.942558 
L 670.454017 430.574284 
L 673.731677 429.273253 
L 677.036204 428.047069 
L 680.34073 426.903332 
L 683.645257 425.848474 
L 686.922917 424.888927 
L 690.227444 424.03054 
L 693.53197 423.277989 
L 696.836497 422.635952 
L 700.114158 422.109108 
L 703.418684 421.699795 
L 706.723211 421.411522 
L 710.000871 421.246042 
L 710.000871 421.246042 
L 710.000871 498.650625 
L 706.723211 498.650625 
L 703.418684 498.650625 
L 700.114158 498.650625 
L 696.836497 498.650625 
L 693.53197 498.650625 
L 690.227444 498.650625 
L 686.922917 498.650625 
L 683.645257 498.650625 
L 680.34073 498.650625 
L 677.036204 498.650625 
L 673.731677 498.650625 
L 670.454017 498.650625 
L 667.14949 498.650625 
L 663.844964 498.650625 
L 660.567303 498.650625 
L 657.262776 498.650625 
L 653.95825 498.650625 
L 650.653723 498.650625 
L 647.376063 498.650625 
L 644.071536 498.650625 
L 640.76701 498.650625 
L 637.462483 498.650625 
L 634.184823 498.650625 
L 630.880296 498.650625 
L 627.575769 498.650625 
L 624.298109 498.650625 
L 620.993582 498.650625 
L 617.689056 498.650625 
L 614.384529 498.650625 
L 611.106869 498.650625 
L 607.802342 498.650625 
L 604.497816 498.650625 
L 601.193289 498.650625 
L 597.915629 498.650625 
L 594.611102 498.650625 
L 591.306575 498.650625 
L 588.028915 498.650625 
L 584.724388 498.650625 
L 581.419862 498.650625 
L 578.115335 498.650625 
L 574.837675 498.650625 
L 571.533148 498.650625 
L 568.228622 498.650625 
L 564.924095 498.650625 
L 561.646435 498.650625 
L 558.341908 498.650625 
L 555.037381 498.650625 
L 551.732855 498.650625 
L 548.455194 498.650625 
L 545.150668 498.650625 
L 541.846141 498.650625 
L 538.568481 498.650625 
L 535.263954 498.650625 
L 531.959428 498.650625 
L 528.654901 498.650625 
L 525.377241 498.650625 
L 522.072714 498.650625 
L 518.768187 498.650625 
L 515.463661 498.650625 
L 512.186 498.650625 
L 508.881474 498.650625 
L 505.576947 498.650625 
L 502.299287 498.650625 
L 498.99476 498.650625 
L 495.690234 498.650625 
L 492.385707 498.650625 
L 489.108047 498.650625 
L 485.80352 498.650625 
L 482.498993 498.650625 
L 479.194467 498.650625 
L 475.916806 498.650625 
L 472.61228 498.650625 
L 469.307753 498.650625 
L 466.030093 498.650625 
L 462.725566 498.650625 
L 459.42104 498.650625 
L 456.116513 498.650625 
L 452.838853 498.650625 
L 449.534326 498.650625 
L 446.229799 498.650625 
L 442.925273 498.650625 
L 439.647612 498.650625 
L 436.343086 498.650625 
L 433.038559 498.650625 
L 429.760899 498.650625 
L 426.456372 498.650625 
L 423.151846 498.650625 
L 419.847319 498.650625 
L 416.569659 498.650625 
L 413.265132 498.650625 
L 409.960605 498.650625 
L 406.656079 498.650625 
L 403.378418 498.650625 
L 400.073892 498.650625 
L 396.769365 498.650625 
L 393.464839 498.650625 
L 390.187178 498.650625 
L 386.882652 498.650625 
L 383.578125 498.650625 
L 380.300465 498.650625 
L 376.995938 498.650625 
L 373.691411 498.650625 
L 370.386885 498.650625 
L 367.109224 498.650625 
L 363.804698 498.650625 
L 360.500171 498.650625 
L 357.195645 498.650625 
L 353.917984 498.650625 
L 350.613458 498.650625 
L 347.308931 498.650625 
L 344.03127 498.650625 
L 340.726744 498.650625 
L 337.422217 498.650625 
L 334.117691 498.650625 
L 330.84003 498.650625 
L 327.535504 498.650625 
L 324.230977 498.650625 
L 320.926451 498.650625 
L 317.64879 498.650625 
L 314.344264 498.650625 
L 311.039737 498.650625 
L 307.762076 498.650625 
L 304.45755 498.650625 
L 301.153023 498.650625 
L 297.848497 498.650625 
L 294.570836 498.650625 
L 291.26631 498.650625 
L 287.961783 498.650625 
L 284.657257 498.650625 
L 281.379596 498.650625 
L 278.07507 498.650625 
L 274.770543 498.650625 
L 271.492882 498.650625 
L 268.188356 498.650625 
L 264.883829 498.650625 
L 261.579303 498.650625 
L 258.301642 498.650625 
L 254.997116 498.650625 
L 251.692589 498.650625 
L 248.388063 498.650625 
L 245.110402 498.650625 
L 241.805875 498.650625 
L 238.501349 498.650625 
L 235.196822 498.650625 
L 231.919162 498.650625 
L 228.614635 498.650625 
L 225.310109 498.650625 
L 222.032448 498.650625 
L 218.727922 498.650625 
L 215.423395 498.650625 
L 212.118869 498.650625 
L 208.841208 498.650625 
L 205.536681 498.650625 
L 202.232155 498.650625 
L 198.927628 498.650625 
L 195.649968 498.650625 
L 192.345441 498.650625 
L 189.040915 498.650625 
L 185.763254 498.650625 
L 182.458728 498.650625 
L 179.154201 498.650625 
L 175.849675 498.650625 
L 172.572014 498.650625 
L 169.267487 498.650625 
L 165.962961 498.650625 
L 162.658434 498.650625 
L 159.380774 498.650625 
L 156.076247 498.650625 
L 152.771721 498.650625 
L 149.49406 498.650625 
L 146.189534 498.650625 
L 142.885007 498.650625 
L 139.580481 498.650625 
L 136.30282 498.650625 
L 132.998293 498.650625 
L 129.693767 498.650625 
L 126.38924 498.650625 
L 123.11158 498.650625 
L 119.807053 498.650625 
L 116.502527 498.650625 
L 113.224866 498.650625 
L 109.92034 498.650625 
L 106.615813 498.650625 
L 103.311286 498.650625 
L 100.033626 498.650625 
L 96.729099 498.650625 
L 93.424573 498.650625 
L 90.120046 498.650625 
L 86.842386 498.650625 
L 83.537859 498.650625 
L 80.233333 498.650625 
L 76.955672 498.650625 
L 73.651146 498.650625 
L 70.346619 498.650625 
L 67.042092 498.650625 
L 63.764432 498.650625 
L 60.459905 498.650625 
L 57.155379 498.650625 
L 53.850852 498.650625 
z
" clip-path="url(#pb3de828762)" style="fill: #1f77b4; fill-opacity: 0.25"/>
   </g>
   <g id="matplotlib.axis_1">
    <g id="xtick_1">
     <g id="line2d_1">
      <defs>
       <path id="m3c452d0e9c" d="M 0 0 
L 0 3.5 
" style="stroke: #000000; stroke-width: 0.8"/>
      </defs>
      <g>
       <use xlink:href="#m3c452d0e9c" x="110.05467" y="521.330625" style="stroke: #000000; stroke-width: 0.8"/>
      </g>
     </g>
     <g id="text_1">
      <!-- 0.00405 -->
      <g transform="translate(89.378107 535.929062) scale(0.1 -0.1)">
       <defs>
        <path id="DejaVuSans-30" d="M 2034 4250 
Q 1547 4250 1301 3770 
Q 1056 3291 1056 2328 
Q 1056 1369 1301 889 
Q 1547 409 2034 409 
Q 2525 409 2770 889 
Q 3016 1369 3016 2328 
Q 3016 3291 2770 3770 
Q 2525 4250 2034 4250 
z
M 2034 4750 
Q 2819 4750 3233 4129 
Q 3647 3509 3647 2328 
Q 3647 1150 3233 529 
Q 2819 -91 2034 -91 
Q 1250 -91 836 529 
Q 422 1150 422 2328 
Q 422 3509 836 4129 
Q 1250 4750 2034 4750 
z
" transform="scale(0.015625)"/>
        <path id="DejaVuSans-2e" d="M 684 794 
L 1344 794 
L 1344 0 
L 684 0 
L 684 794 
z
" transform="scale(0.015625)"/>
        <path id="DejaVuSans-34" d="M 2419 4116 
L 825 1625 
L 2419 1625 
L 2419 4116 
z
M 2253 4666 
L 3047 4666 
L 3047 1625 
L 3713 1625 
L 3713 1100 
L 3047 1100 
L 3047 0 
L 2419 0 
L 2419 1100 
L 313 1100 
L 313 1709 
L 2253 4666 
z
" transform="scale(0.015625)"/>
        <path id="DejaVuSans-35" d="M 691 4666 
L 3169 4666 
L 3169 4134 
L 1269 4134 
L 1269 2991 
Q 1406 3038 1543 3061 
Q 1681 3084 1819 3084 
Q 2600 3084 3056 2656 
Q 3513 2228 3513 1497 
Q 3513 744 3044 326 
Q 2575 -91 1722 -91 
Q 1428 -91 1123 -41 
Q 819 9 494 109 
L 494 744 
Q 775 591 1075 516 
Q 1375 441 1709 441 
Q 2250 441 2565 725 
Q 2881 1009 2881 1497 
Q 2881 1984 2565 2268 
Q 2250 2553 1709 2553 
Q 1456 2553 1204 2497 
Q 953 2441 691 2322 
L 691 4666 
z
" transform="scale(0.015625)"/>
       </defs>
       <use xlink:href="#DejaVuSans-30"/>
       <use xlink:href="#DejaVuSans-2e" x="63.623047"/>
       <use xlink:href="#DejaVuSans-30" x="95.410156"/>
       <use xlink:href="#DejaVuSans-30" x="159.033203"/>
       <use xlink:href="#DejaVuSans-34" x="222.65625"/>
       <use xlink:href="#DejaVuSans-30" x="286.279297"/>
       <use xlink:href="#DejaVuSans-35" x="349.902344"/>
      </g>
     </g>
    </g>
    <g id="xtick_2">
     <g id="line2d_2">
      <g>
       <use xlink:href="#m3c452d0e9c" x="244.385018" y="521.330625" style="stroke: #000000; stroke-width: 0.8"/>
      </g>
     </g>
     <g id="text_2">
      <!-- 0.00410 -->
      <g transform="translate(223.708456 535.929062) scale(0.1 -0.1)">
       <defs>
        <path id="DejaVuSans-31" d="M 794 531 
L 1825 531 
L 1825 4091 
L 703 3866 
L 703 4441 
L 1819 4666 
L 2450 4666 
L 2450 531 
L 3481 531 
L 3481 0 
L 794 0 
L 794 531 
z
" transform="scale(0.015625)"/>
       </defs>
       <use xlink:href="#DejaVuSans-30"/>
       <use xlink:href="#DejaVuSans-2e" x="63.623047"/>
       <use xlink:href="#DejaVuSans-30" x="95.410156"/>
       <use xlink:href="#DejaVuSans-30" x="159.033203"/>
       <use xlink:href="#DejaVuSans-34" x="222.65625"/>
       <use xlink:href="#DejaVuSans-31" x="286.279297"/>
       <use xlink:href="#DejaVuSans-30" x="349.902344"/>
      </g>
     </g>
    </g>
    <g id="xtick_3">
     <g id="line2d_3">
      <g>
       <use xlink:href="#m3c452d0e9c" x="378.715366" y="521.330625" style="stroke: #000000; stroke-width: 0.8"/>
      </g>
     </g>
     <g id="text_3">
      <!-- 0.00415 -->
      <g transform="translate(358.038804 535.929062) scale(0.1 -0.1)">
       <use xlink:href="#DejaVuSans-30"/>
       <use xlink:href="#DejaVuSans-2e" x="63.623047"/>
       <use xlink:href="#DejaVuSans-30" x="95.410156"/>
       <use xlink:href="#DejaVuSans-30" x="159.033203"/>
       <use xlink:href="#DejaVuSans-34" x="222.65625"/>
       <use xlink:href="#DejaVuSans-31" x="286.279297"/>
       <use xlink:href="#DejaVuSans-35" x="349.902344"/>
      </g>
     </g>
    </g>
    <g id="xtick_4">
     <g id="line2d_4">
      <g>
       <use xlink:href="#m3c452d0e9c" x="513.045715" y="521.330625" style="stroke: #000000; stroke-width: 0.8"/>
      </g>
     </g>
     <g id="text_4">
      <!-- 0.00420 -->
      <g transform="translate(492.369152 535.929062) scale(0.1 -0.1)">
       <defs>
        <path id="DejaVuSans-32" d="M 1228 531 
L 3431 531 
L 3431 0 
L 469 0 
L 469 531 
Q 828 903 1448 1529 
Q 2069 2156 2228 2338 
Q 2531 2678 2651 2914 
Q 2772 3150 2772 3378 
Q 2772 3750 2511 3984 
Q 2250 4219 1831 4219 
Q 1534 4219 1204 4116 
Q 875 4013 500 3803 
L 500 4441 
Q 881 4594 1212 4672 
Q 1544 4750 1819 4750 
Q 2544 4750 2975 4387 
Q 3406 4025 3406 3419 
Q 3406 3131 3298 2873 
Q 3191 2616 2906 2266 
Q 2828 2175 2409 1742 
Q 1991 1309 1228 531 
z
" transform="scale(0.015625)"/>
       </defs>
       <use xlink:href="#DejaVuSans-30"/>
       <use xlink:href="#DejaVuSans-2e" x="63.623047"/>
       <use xlink:href="#DejaVuSans-30" x="95.410156"/>
       <use xlink:href="#DejaVuSans-30" x="159.033203"/>
       <use xlink:href="#DejaVuSans-34" x="222.65625"/>
       <use xlink:href="#DejaVuSans-32" x="286.279297"/>
       <use xlink:href="#DejaVuSans-30" x="349.902344"/>
      </g>
     </g>
    </g>
    <g id="xtick_5">
     <g id="line2d_5">
      <g>
       <use xlink:href="#m3c452d0e9c" x="647.376063" y="521.330625" style="stroke: #000000; stroke-width: 0.8"/>
      </g>
     </g>
     <g id="text_5">
      <!-- 0.00425 -->
      <g transform="translate(626.6995 535.929062) scale(0.1 -0.1)">
       <use xlink:href="#DejaVuSans-30"/>
       <use xlink:href="#DejaVuSans-2e" x="63.623047"/>
       <use xlink:href="#DejaVuSans-30" x="95.410156"/>
       <use xlink:href="#DejaVuSans-30" x="159.033203"/>
       <use xlink:href="#DejaVuSans-34" x="222.65625"/>
       <use xlink:href="#DejaVuSans-32" x="286.279297"/>
       <use xlink:href="#DejaVuSans-35" x="349.902344"/>
      </g>
     </g>
    </g>
    <g id="text_6">
     <!-- t [s] -->
     <g transform="translate(373.522656 549.607188) scale(0.1 -0.1)">
      <defs>
       <path id="DejaVuSans-74" d="M 1172 4494 
L 1172 3500 
L 2356 3500 
L 2356 3053 
L 1172 3053 
L 1172 1153 
Q 1172 725 1289 603 
Q 1406 481 1766 481 
L 2356 481 
L 2356 0 
L 1766 0 
Q 1100 0 847 248 
Q 594 497 594 1153 
L 594 3053 
L 172 3053 
L 172 3500 
L 594 3500 
L 594 4494 
L 1172 4494 
z
" transform="scale(0.015625)"/>
       <path id="DejaVuSans-20" transform="scale(0.015625)"/>
       <path id="DejaVuSans-5b" d="M 550 4863 
L 1875 4863 
L 1875 4416 
L 1125 4416 
L 1125 -397 
L 1875 -397 
L 1875 -844 
L 550 -844 
L 550 4863 
z
" transform="scale(0.015625)"/>
       <path id="DejaVuSans-73" d="M 2834 3397 
L 2834 2853 
Q 2591 2978 2328 3040 
Q 2066 3103 1784 3103 
Q 1356 3103 1142 2972 
Q 928 2841 928 2578 
Q 928 2378 1081 2264 
Q 1234 2150 1697 2047 
L 1894 2003 
Q 2506 1872 2764 1633 
Q 3022 1394 3022 966 
Q 3022 478 2636 193 
Q 2250 -91 1575 -91 
Q 1294 -91 989 -36 
Q 684 19 347 128 
L 347 722 
Q 666 556 975 473 
Q 1284 391 1588 391 
Q 1994 391 2212 530 
Q 2431 669 2431 922 
Q 2431 1156 2273 1281 
Q 2116 1406 1581 1522 
L 1381 1569 
Q 847 1681 609 1914 
Q 372 2147 372 2553 
Q 372 3047 722 3315 
Q 1072 3584 1716 3584 
Q 2034 3584 2315 3537 
Q 2597 3491 2834 3397 
z
" transform="scale(0.015625)"/>
       <path id="DejaVuSans-5d" d="M 1947 4863 
L 1947 -844 
L 622 -844 
L 622 -397 
L 1369 -397 
L 1369 4416 
L 622 4416 
L 622 4863 
L 1947 4863 
z
" transform="scale(0.015625)"/>
      </defs>
      <use xlink:href="#DejaVuSans-74"/>
      <use xlink:href="#DejaVuSans-20" x="39.208984"/>
      <use xlink:href="#DejaVuSans-5b" x="70.996094"/>
      <use xlink:href="#DejaVuSans-73" x="110.009766"/>
      <use xlink:href="#DejaVuSans-5d" x="162.109375"/>
     </g>
    </g>
   </g>
   <g id="matplotlib.axis_2">
    <g id="ytick_1"/>
    <g id="ytick_2"/>
    <g id="ytick_3"/>
    <g id="ytick_4"/>
    <g id="ytick_5"/>
    <g id="ytick_6"/>
    <g id="ytick_7"/>
    <g id="ytick_8"/>
    <g id="ytick_9"/>
    <g id="text_7">
     <!-- runs -->
     <g transform="translate(14.798438 282.848281) rotate(-90) scale(0.1 -0.1)">
      <defs>
       <path id="DejaVuSans-72" d="M 2631 2963 
Q 2534 3019 2420 3045 
Q 2306 3072 2169 3072 
Q 1681 3072 1420 2755 
Q 1159 2438 1159 1844 
L 1159 0 
L 581 0 
L 581 3500 
L 1159 3500 
L 1159 2956 
Q 1341 3275 1631 3429 
Q 1922 3584 2338 3584 
Q 2397 3584 2469 3576 
Q 2541 3569 2628 3553 
L 2631 2963 
z
" transform="scale(0.015625)"/>
       <path id="DejaVuSans-75" d="M 544 1381 
L 544 3500 
L 1119 3500 
L 1119 1403 
Q 1119 906 1312 657 
Q 1506 409 1894 409 
Q 2359 409 2629 706 
Q 2900 1003 2900 1516 
L 2900 3500 
L 3475 3500 
L 3475 0 
L 2900 0 
L 2900 538 
Q 2691 219 2414 64 
Q 2138 -91 1772 -91 
Q 1169 -91 856 284 
Q 544 659 544 1381 
z
M 1991 3584 
L 1991 3584 
z
" transform="scale(0.015625)"/>
       <path id="DejaVuSans-6e" d="M 3513 2113 
L 3513 0 
L 2938 0 
L 2938 2094 
Q 2938 2591 2744 2837 
Q 2550 3084 2163 3084 
Q 1697 3084 1428 2787 
Q 1159 2491 1159 1978 
L 1159 0 
L 581 0 
L 581 3500 
L 1159 3500 
L 1159 2956 
Q 1366 3272 1645 3428 
Q 1925 3584 2291 3584 
Q 2894 3584 3203 3211 
Q 3513 2838 3513 2113 
z
" transform="scale(0.015625)"/>
      </defs>
      <use xlink:href="#DejaVuSans-72"/>
      <use xlink:href="#DejaVuSans-75" x="41.113281"/>
      <use xlink:href="#DejaVuSans-6e" x="104.492188"/>
      <use xlink:href="#DejaVuSans-73" x="167.871094"/>
     </g>
    </g>
   </g>
   <g id="line2d_6">
    <defs>
     <path id="mf41b72e7a6" d="M 0 1 
C 0.265203 1 0.51958 0.894634 0.707107 0.707107 
C 0.894634 0.51958 1 0.265203 1 0 
C 1 -0.265203 0.894634 -0.51958 0.707107 -0.707107 
C 0.51958 -0.894634 0.265203 -1 0 -1 
C -0.265203 -1 -0.51958 -0.894634 -0.707107 -0.707107 
C -0.894634 -0.51958 -1 -0.265203 -1 0 
C -1 0.265203 -0.894634 0.51958 -0.707107 0.707107 
C -0.51958 0.894634 -0.265203 1 0 1 
z
" style="stroke: #ffa500"/>
    </defs>
    <g clip-path="url(#pb3de828762)">
     <use xlink:href="#mf41b72e7a6" x="713.305398" y="45.050625" style="fill: #ffa500; stroke: #ffa500"/>
    </g>
   </g>
   <g id="line2d_7">
    <defs>
     <path id="m7bb68736be" d="M 0 1 
C 0.265203 1 0.51958 0.894634 0.707107 0.707107 
C 0.894634 0.51958 1 0.265203 1 0 
C 1 -0.265203 0.894634 -0.51958 0.707107 -0.707107 
C 0.51958 -0.894634 0.265203 -1 0 -1 
C -0.265203 -1 -0.51958 -0.894634 -0.707107 -0.707107 
C -0.894634 -0.51958 -1 -0.265203 -1 0 
C -1 0.265203 -0.894634 0.51958 -0.707107 0.707107 
C -0.51958 0.894634 -0.265203 1 0 1 
z
" style="stroke: #1f77b4"/>
    </defs>
    <g clip-path="url(#pb3de828762)">
     <use xlink:href="#m7bb68736be" x="422.37273" y="453.290625" style="fill: #1f77b4; stroke: #1f77b4"/>
     <use xlink:href="#m7bb68736be" x="180.013915" y="407.930508" style="fill: #1f77b4; stroke: #1f77b4"/>
     <use xlink:href="#m7bb68736be" x="53.850852" y="362.57045" style="fill: #1f77b4; stroke: #1f77b4"/>
     <use xlink:href="#m7bb68736be" x="253.573214" y="317.210391" style="fill: #1f77b4; stroke: #1f77b4"/>
     <use xlink:href="#m7bb68736be" x="218.1906" y="271.850333" style="fill: #1f77b4; stroke: #1f77b4"/>
     <use xlink:href="#m7bb68736be" x="263.64799" y="226.490274" style="fill: #1f77b4; stroke: #1f77b4"/>
     <use xlink:href="#m7bb68736be" x="191.002138" y="181.130216" style="fill: #1f77b4; stroke: #1f77b4"/>
     <use xlink:href="#m7bb68736be" x="382.288554" y="135.770157" style="fill: #1f77b4; stroke: #1f77b4"/>
     <use xlink:href="#m7bb68736be" x="196.482816" y="90.410683" style="fill: #1f77b4; stroke: #1f77b4"/>
    </g>
   </g>
   <g id="line2d_8">
    <path d="M 287.37073 521.330625 
L 287.37073 22.370625 
" clip-path="url(#pb3de828762)" style="fill: none; stroke: #1f77b4; stroke-width: 1.5; stroke-linecap: square"/>
   </g>
   <g id="line2d_9">
    <path d="M 669.245044 521.330625 
L 669.245044 22.370625 
" clip-path="url(#pb3de828762)" style="fill: none; stroke: #ffa500; stroke-width: 1.5; stroke-linecap: square"/>
   </g>
   <g id="patch_3">
    <path d="M 20.878125 521.330625 
L 20.878125 22.370625 
" style="fill: none; stroke: #000000; stroke-width: 0.8; stroke-linejoin: miter; stroke-linecap: square"/>
   </g>
   <g id="patch_4">
    <path d="M 746.278125 521.330625 
L 746.278125 22.370625 
" style="fill: none; stroke: #000000; stroke-width: 0.8; stroke-linejoin: miter; stroke-linecap: square"/>
   </g>
   <g id="patch_5">
    <path d="M 20.878125 521.330625 
L 746.278125 521.330625 
" style="fill: none; stroke: #000000; stroke-width: 0.8; stroke-linejoin: miter; stroke-linecap: square"/>
   </g>
   <g id="patch_6">
    <path d="M 20.878125 22.370625 
L 746.278125 22.370625 
" style="fill: none; stroke: #000000; stroke-width: 0.8; stroke-linejoin: miter; stroke-linecap: square"/>
   </g>
   <g id="text_8">
    <!-- echo 3100 | python3 quicksort.py -->
    <g transform="translate(282.45375 16.370625) scale(0.12 -0.12)">
     <defs>
      <path id="DejaVuSans-65" d="M 3597 1894 
L 3597 1613 
L 953 1613 
Q 991 1019 1311 708 
Q 1631 397 2203 397 
Q 2534 397 2845 478 
Q 3156 559 3463 722 
L 3463 178 
Q 3153 47 2828 -22 
Q 2503 -91 2169 -91 
Q 1331 -91 842 396 
Q 353 884 353 1716 
Q 353 2575 817 3079 
Q 1281 3584 2069 3584 
Q 2775 3584 3186 3129 
Q 3597 2675 3597 1894 
z
M 3022 2063 
Q 3016 2534 2758 2815 
Q 2500 3097 2075 3097 
Q 1594 3097 1305 2825 
Q 1016 2553 972 2059 
L 3022 2063 
z
" transform="scale(0.015625)"/>
      <path id="DejaVuSans-63" d="M 3122 3366 
L 3122 2828 
Q 2878 2963 2633 3030 
Q 2388 3097 2138 3097 
Q 1578 3097 1268 2742 
Q 959 2388 959 1747 
Q 959 1106 1268 751 
Q 1578 397 2138 397 
Q 2388 397 2633 464 
Q 2878 531 3122 666 
L 3122 134 
Q 2881 22 2623 -34 
Q 2366 -91 2075 -91 
Q 1284 -91 818 406 
Q 353 903 353 1747 
Q 353 2603 823 3093 
Q 1294 3584 2113 3584 
Q 2378 3584 2631 3529 
Q 2884 3475 3122 3366 
z
" transform="scale(0.015625)"/>
      <path id="DejaVuSans-68" d="M 3513 2113 
L 3513 0 
L 2938 0 
L 2938 2094 
Q 2938 2591 2744 2837 
Q 2550 3084 2163 3084 
Q 1697 3084 1428 2787 
Q 1159 2491 1159 1978 
L 1159 0 
L 581 0 
L 581 4863 
L 1159 4863 
L 1159 2956 
Q 1366 3272 1645 3428 
Q 1925 3584 2291 3584 
Q 2894 3584 3203 3211 
Q 3513 2838 3513 2113 
z
" transform="scale(0.015625)"/>
      <path id="DejaVuSans-6f" d="M 1959 3097 
Q 1497 3097 1228 2736 
Q 959 2375 959 1747 
Q 959 1119 1226 758 
Q 1494 397 1959 397 
Q 2419 397 2687 759 
Q 2956 1122 2956 1747 
Q 2956 2369 2687 2733 
Q 2419 3097 1959 3097 
z
M 1959 3584 
Q 2709 3584 3137 3096 
Q 3566 2609 3566 1747 
Q 3566 888 3137 398 
Q 2709 -91 1959 -91 
Q 1206 -91 779 398 
Q 353 888 353 1747 
Q 353 2609 779 3096 
Q 1206 3584 1959 3584 
z
" transform="scale(0.015625)"/>
      <path id="DejaVuSans-33" d="M 2597 2516 
Q 3050 2419 3304 2112 
Q 3559 1806 3559 1356 
Q 3559 666 3084 287 
Q 2609 -91 1734 -91 
Q 1441 -91 1130 -33 
Q 819 25 488 141 
L 488 750 
Q 750 597 1062 519 
Q 1375 441 1716 441 
Q 2309 441 2620 675 
Q 2931 909 2931 1356 
Q 2931 1769 2642 2001 
Q 2353 2234 1838 2234 
L 1294 2234 
L 1294 2753 
L 1863 2753 
Q 2328 2753 2575 2939 
Q 2822 3125 2822 3475 
Q 2822 3834 2567 4026 
Q 2313 4219 1838 4219 
Q 1578 4219 1281 4162 
Q 984 4106 628 3988 
L 628 4550 
Q 988 4650 1302 4700 
Q 1616 4750 1894 4750 
Q 2613 4750 3031 4423 
Q 3450 4097 3450 3541 
Q 3450 3153 3228 2886 
Q 3006 2619 2597 2516 
z
" transform="scale(0.015625)"/>
      <path id="DejaVuSans-7c" d="M 1344 4891 
L 1344 -1509 
L 813 -1509 
L 813 4891 
L 1344 4891 
z
" transform="scale(0.015625)"/>
      <path id="DejaVuSans-70" d="M 1159 525 
L 1159 -1331 
L 581 -1331 
L 581 3500 
L 1159 3500 
L 1159 2969 
Q 1341 3281 1617 3432 
Q 1894 3584 2278 3584 
Q 2916 3584 3314 3078 
Q 3713 2572 3713 1747 
Q 3713 922 3314 415 
Q 2916 -91 2278 -91 
Q 1894 -91 1617 61 
Q 1341 213 1159 525 
z
M 3116 1747 
Q 3116 2381 2855 2742 
Q 2594 3103 2138 3103 
Q 1681 3103 1420 2742 
Q 1159 2381 1159 1747 
Q 1159 1113 1420 752 
Q 1681 391 2138 391 
Q 2594 391 2855 752 
Q 3116 1113 3116 1747 
z
" transform="scale(0.015625)"/>
      <path id="DejaVuSans-79" d="M 2059 -325 
Q 1816 -950 1584 -1140 
Q 1353 -1331 966 -1331 
L 506 -1331 
L 506 -850 
L 844 -850 
Q 1081 -850 1212 -737 
Q 1344 -625 1503 -206 
L 1606 56 
L 191 3500 
L 800 3500 
L 1894 763 
L 2988 3500 
L 3597 3500 
L 2059 -325 
z
" transform="scale(0.015625)"/>
      <path id="DejaVuSans-71" d="M 947 1747 
Q 947 1113 1208 752 
Q 1469 391 1925 391 
Q 2381 391 2643 752 
Q 2906 1113 2906 1747 
Q 2906 2381 2643 2742 
Q 2381 3103 1925 3103 
Q 1469 3103 1208 2742 
Q 947 2381 947 1747 
z
M 2906 525 
Q 2725 213 2448 61 
Q 2172 -91 1784 -91 
Q 1150 -91 751 415 
Q 353 922 353 1747 
Q 353 2572 751 3078 
Q 1150 3584 1784 3584 
Q 2172 3584 2448 3432 
Q 2725 3281 2906 2969 
L 2906 3500 
L 3481 3500 
L 3481 -1331 
L 2906 -1331 
L 2906 525 
z
" transform="scale(0.015625)"/>
      <path id="DejaVuSans-69" d="M 603 3500 
L 1178 3500 
L 1178 0 
L 603 0 
L 603 3500 
z
M 603 4863 
L 1178 4863 
L 1178 4134 
L 603 4134 
L 603 4863 
z
" transform="scale(0.015625)"/>
      <path id="DejaVuSans-6b" d="M 581 4863 
L 1159 4863 
L 1159 1991 
L 2875 3500 
L 3609 3500 
L 1753 1863 
L 3688 0 
L 2938 0 
L 1159 1709 
L 1159 0 
L 581 0 
L 581 4863 
z
" transform="scale(0.015625)"/>
     </defs>
     <use xlink:href="#DejaVuSans-65"/>
     <use xlink:href="#DejaVuSans-63" x="61.523438"/>
     <use xlink:href="#DejaVuSans-68" x="116.503906"/>
     <use xlink:href="#DejaVuSans-6f" x="179.882812"/>
     <use xlink:href="#DejaVuSans-20" x="241.064453"/>
     <use xlink:href="#DejaVuSans-33" x="272.851562"/>
     <use xlink:href="#DejaVuSans-31" x="336.474609"/>
     <use xlink:href="#DejaVuSans-30" x="400.097656"/>
     <use xlink:href="#DejaVuSans-30" x="463.720703"/>
     <use xlink:href="#DejaVuSans-20" x="527.34375"/>
     <use xlink:href="#DejaVuSans-7c" x="559.130859"/>
     <use xlink:href="#DejaVuSans-20" x="592.822266"/>
     <use xlink:href="#DejaVuSans-70" x="624.609375"/>
     <use xlink:href="#DejaVuSans-79" x="688.085938"/>
     <use xlink:href="#DejaVuSans-74" x="747.265625"/>
     <use xlink:href="#DejaVuSans-68" x="786.474609"/>
     <use xlink:href="#DejaVuSans-6f" x="849.853516"/>
     <use xlink:href="#DejaVuSans-6e" x="911.035156"/>
     <use xlink:href="#DejaVuSans-33" x="974.414062"/>
     <use xlink:href="#DejaVuSans-20" x="1038.037109"/>
     <use xlink:href="#DejaVuSans-71" x="1069.824219"/>
     <use xlink:href="#DejaVuSans-75" x="1133.300781"/>
     <use xlink:href="#DejaVuSans-69" x="1196.679688"/>
     <use xlink:href="#DejaVuSans-63" x="1224.462891"/>
     <use xlink:href="#DejaVuSans-6b" x="1279.443359"/>
     <use xlink:href="#DejaVuSans-73" x="1337.353516"/>
     <use xlink:href="#DejaVuSans-6f" x="1389.453125"/>
     <use xlink:href="#DejaVuSans-72" x="1450.634766"/>
     <use xlink:href="#DejaVuSans-74" x="1491.748047"/>
     <use xlink:href="#DejaVuSans-2e" x="1530.957031"/>
     <use xlink:href="#DejaVuSans-70" x="1562.744141"/>
     <use xlink:href="#DejaVuSans-79" x="1626.220703"/>
    </g>
   </g>
  </g>
 </g>
 <defs>
  <clipPath id="pb3de828762">
   <rect x="20.878125" y="22.370625" width="725.4" height="498.96"/>
  </clipPath>
 </defs>
</svg>
