<?xml version="1.0" encoding="utf-8" standalone="no"?>
<!DOCTYPE svg PUBLIC "-//W3C//DTD SVG 1.1//EN"
  "http://www.w3.org/Graphics/SVG/1.1/DTD/svg11.dtd">
<svg xmlns:xlink="http://www.w3.org/1999/xlink" width="753.478125pt" height="558.886875pt" viewBox="0 0 753.478125 558.886875" xmlns="http://www.w3.org/2000/svg" version="1.1">
 <metadata>
  <rdf:RDF xmlns:dc="http://purl.org/dc/elements/1.1/" xmlns:cc="http://creativecommons.org/ns#" xmlns:rdf="http://www.w3.org/1999/02/22-rdf-syntax-ns#">
   <cc:Work>
    <dc:type rdf:resource="http://purl.org/dc/dcmitype/StillImage"/>
    <dc:date>2024-01-14T13:49:56.398218</dc:date>
    <dc:format>image/svg+xml</dc:format>
    <dc:creator>
     <cc:Agent>
      <dc:title>Matplotlib v3.7.0, https://matplotlib.org/</dc:title>
     </cc:Agent>
    </dc:creator>
   </cc:Work>
  </rdf:RDF>
 </metadata>
 <defs>
  <style type="text/css">*{stroke-linejoin: round; stroke-linecap: butt}</style>
 </defs>
 <g id="figure_1">
  <g id="patch_1">
   <path d="M 0 558.886875 
L 753.478125 558.886875 
L 753.478125 0 
L 0 0 
z
" style="fill: #ffffff"/>
  </g>
  <g id="axes_1">
   <g id="patch_2">
    <path d="M 20.878125 521.330625 
L 746.278125 521.330625 
L 746.278125 22.370625 
L 20.878125 22.370625 
z
" style="fill: #ffffff"/>
   </g>
   <g id="PolyCollection_1">
    <path d="M 53.850852 120.48474 
L 53.850852 120.48474 
L 57.171299 115.885805 
L 60.491746 111.429057 
L 63.743016 107.119546 
L 67.063463 102.954942 
L 70.38391 98.941848 
L 73.63518 95.080265 
L 76.955627 91.374078 
L 80.276074 87.819402 
L 83.527344 84.420121 
L 86.847791 81.180121 
L 90.168238 78.091632 
L 93.419509 75.158539 
L 96.739955 72.380841 
L 100.060402 69.750769 
L 103.311673 67.276093 
L 106.632119 64.952927 
L 109.952566 62.773503 
L 113.203837 60.737819 
L 116.524283 58.845877 
L 119.84473 57.09379 
L 123.096001 55.477675 
L 126.416447 53.993647 
L 129.736894 52.641704 
L 132.988165 51.414078 
L 136.308611 50.306884 
L 139.629058 49.320121 
L 142.880329 48.442136 
L 146.200776 47.680697 
L 149.521222 47.020265 
L 152.772493 46.464726 
L 156.09294 46.006308 
L 159.413386 45.645013 
L 162.664657 45.369186 
L 165.985104 45.182711 
L 169.30555 45.077819 
L 172.556821 45.050625 
L 175.877268 45.101129 
L 179.197714 45.225445 
L 182.448985 45.415805 
L 185.769432 45.672208 
L 189.089878 45.994654 
L 192.341149 46.375373 
L 195.661596 46.814366 
L 198.982042 47.311632 
L 202.233313 47.863287 
L 205.55376 48.46933 
L 208.874207 49.125877 
L 212.125477 49.832927 
L 215.445924 50.590481 
L 218.766371 51.394654 
L 222.017641 52.24933 
L 225.338088 53.150625 
L 228.658535 54.098539 
L 231.909805 55.096956 
L 235.230252 56.141992 
L 238.550699 57.237531 
L 241.801969 58.37969 
L 245.122416 59.576237 
L 248.442863 60.819402 
L 251.694134 62.116956 
L 255.01458 63.468898 
L 258.335027 64.875229 
L 261.586298 66.335949 
L 264.906744 67.851057 
L 268.227191 69.428323 
L 271.478462 71.063862 
L 274.798908 72.76156 
L 278.119355 74.521416 
L 281.370626 76.339546 
L 284.691072 78.227603 
L 288.011519 80.177819 
L 291.26279 82.197963 
L 294.583236 84.28415 
L 297.903683 86.43638 
L 301.154954 88.658539 
L 304.4754 90.94674 
L 307.795847 93.308754 
L 311.047118 95.736812 
L 314.367565 98.234798 
L 317.688011 100.798826 
L 320.939282 103.436668 
L 324.259729 106.136668 
L 327.580175 108.906596 
L 330.831446 111.740625 
L 334.151893 114.639143 
L 337.472339 117.600208 
L 340.72361 120.621877 
L 344.044057 123.702596 
L 347.364503 126.840035 
L 350.615774 130.031474 
L 353.936221 133.27497 
L 357.256667 136.567416 
L 360.507938 139.906481 
L 363.828385 143.28828 
L 367.148832 146.710093 
L 370.400102 150.168424 
L 373.720549 153.659776 
L 377.040996 157.181042 
L 380.292266 160.727949 
L 383.612713 164.297388 
L 386.93316 167.884697 
L 390.18443 171.486769 
L 393.504877 175.098942 
L 396.825324 178.718107 
L 400.076594 182.339603 
L 403.397041 185.959546 
L 406.717488 189.574438 
L 409.968758 193.180006 
L 413.289205 196.772366 
L 416.609652 200.347632 
L 419.860923 203.902308 
L 423.181369 207.43251 
L 426.501816 210.93474 
L 429.753087 214.405503 
L 433.073533 217.841301 
L 436.39398 221.239416 
L 439.645251 224.596352 
L 442.965697 227.908999 
L 446.286144 231.175028 
L 449.537415 234.391719 
L 452.857861 237.55674 
L 456.178308 240.667373 
L 459.429579 243.721675 
L 462.750025 246.718093 
L 466.001296 249.654294 
L 469.321743 252.529114 
L 472.64219 255.341388 
L 475.89346 258.089949 
L 479.213907 260.773244 
L 482.534354 263.391272 
L 485.785624 265.94287 
L 489.106071 268.427647 
L 492.426518 270.845992 
L 495.677788 273.197129 
L 498.998235 275.481834 
L 502.318682 277.700107 
L 505.569952 279.852337 
L 508.890399 281.93969 
L 512.210846 283.962165 
L 515.462116 285.921316 
L 518.782563 287.818308 
L 522.10301 289.654308 
L 525.354281 291.430481 
L 528.674727 293.14838 
L 531.995174 294.80956 
L 535.246445 296.416352 
L 538.566891 297.96992 
L 541.887338 299.472596 
L 545.138609 300.925934 
L 548.459055 302.332654 
L 551.779502 303.694697 
L 555.030773 305.014395 
L 558.351219 306.29369 
L 561.671666 307.535301 
L 564.922937 308.74156 
L 568.243383 309.914798 
L 571.56383 311.057344 
L 574.815101 312.172308 
L 578.135548 313.261632 
L 581.455994 314.328035 
L 584.707265 315.374237 
L 588.027712 316.402567 
L 591.348158 317.415359 
L 594.599429 318.414942 
L 597.919876 319.404812 
L 601.240322 320.386136 
L 604.491593 321.362409 
L 607.81204 322.335575 
L 611.132486 323.307575 
L 614.383757 324.281517 
L 617.704204 325.258956 
L 621.02465 326.242611 
L 624.275921 327.234424 
L 627.596368 328.236337 
L 630.916815 329.250683 
L 634.168085 330.279402 
L 637.488532 331.323661 
L 640.808979 332.386179 
L 644.060249 333.468121 
L 647.380696 334.571042 
L 650.701143 335.697272 
L 653.952413 336.847201 
L 657.27286 338.022769 
L 660.593307 339.225531 
L 663.844577 340.455877 
L 667.165024 341.715359 
L 670.485471 343.005143 
L 673.736741 344.325618 
L 677.057188 345.677949 
L 680.377635 347.062524 
L 683.628906 348.479733 
L 686.949352 349.93074 
L 690.269799 351.415157 
L 693.52107 352.933373 
L 696.841516 354.485776 
L 700.161963 356.072366 
L 703.413234 357.692754 
L 706.73368 359.346942 
L 710.054127 361.034539 
L 710.054127 361.034539 
L 710.054127 498.650625 
L 706.73368 498.650625 
L 703.413234 498.650625 
L 700.161963 498.650625 
L 696.841516 498.650625 
L 693.52107 498.650625 
L 690.269799 498.650625 
L 686.949352 498.650625 
L 683.628906 498.650625 
L 680.377635 498.650625 
L 677.057188 498.650625 
L 673.736741 498.650625 
L 670.485471 498.650625 
L 667.165024 498.650625 
L 663.844577 498.650625 
L 660.593307 498.650625 
L 657.27286 498.650625 
L 653.952413 498.650625 
L 650.701143 498.650625 
L 647.380696 498.650625 
L 644.060249 498.650625 
L 640.808979 498.650625 
L 637.488532 498.650625 
L 634.168085 498.650625 
L 630.916815 498.650625 
L 627.596368 498.650625 
L 624.275921 498.650625 
L 621.02465 498.650625 
L 617.704204 498.650625 
L 614.383757 498.650625 
L 611.132486 498.650625 
L 607.81204 498.650625 
L 604.491593 498.650625 
L 601.240322 498.650625 
L 597.919876 498.650625 
L 594.599429 498.650625 
L 591.348158 498.650625 
L 588.027712 498.650625 
L 584.707265 498.650625 
L 581.455994 498.650625 
L 578.135548 498.650625 
L 574.815101 498.650625 
L 571.56383 498.650625 
L 568.243383 498.650625 
L 564.922937 498.650625 
L 561.671666 498.650625 
L 558.351219 498.650625 
L 555.030773 498.650625 
L 551.779502 498.650625 
L 548.459055 498.650625 
L 545.138609 498.650625 
L 541.887338 498.650625 
L 538.566891 498.650625 
L 535.246445 498.650625 
L 531.995174 498.650625 
L 528.674727 498.650625 
L 525.354281 498.650625 
L 522.10301 498.650625 
L 518.782563 498.650625 
L 515.462116 498.650625 
L 512.210846 498.650625 
L 508.890399 498.650625 
L 505.569952 498.650625 
L 502.318682 498.650625 
L 498.998235 498.650625 
L 495.677788 498.650625 
L 492.426518 498.650625 
L 489.106071 498.650625 
L 485.785624 498.650625 
L 482.534354 498.650625 
L 479.213907 498.650625 
L 475.89346 498.650625 
L 472.64219 498.650625 
L 469.321743 498.650625 
L 466.001296 498.650625 
L 462.750025 498.650625 
L 459.429579 498.650625 
L 456.178308 498.650625 
L 452.857861 498.650625 
L 449.537415 498.650625 
L 446.286144 498.650625 
L 442.965697 498.650625 
L 439.645251 498.650625 
L 436.39398 498.650625 
L 433.073533 498.650625 
L 429.753087 498.650625 
L 426.501816 498.650625 
L 423.181369 498.650625 
L 419.860923 498.650625 
L 416.609652 498.650625 
L 413.289205 498.650625 
L 409.968758 498.650625 
L 406.717488 498.650625 
L 403.397041 498.650625 
L 400.076594 498.650625 
L 396.825324 498.650625 
L 393.504877 498.650625 
L 390.18443 498.650625 
L 386.93316 498.650625 
L 383.612713 498.650625 
L 380.292266 498.650625 
L 377.040996 498.650625 
L 373.720549 498.650625 
L 370.400102 498.650625 
L 367.148832 498.650625 
L 363.828385 498.650625 
L 360.507938 498.650625 
L 357.256667 498.650625 
L 353.936221 498.650625 
L 350.615774 498.650625 
L 347.364503 498.650625 
L 344.044057 498.650625 
L 340.72361 498.650625 
L 337.472339 498.650625 
L 334.151893 498.650625 
L 330.831446 498.650625 
L 327.580175 498.650625 
L 324.259729 498.650625 
L 320.939282 498.650625 
L 317.688011 498.650625 
L 314.367565 498.650625 
L 311.047118 498.650625 
L 307.795847 498.650625 
L 304.4754 498.650625 
L 301.154954 498.650625 
L 297.903683 498.650625 
L 294.583236 498.650625 
L 291.26279 498.650625 
L 288.011519 498.650625 
L 284.691072 498.650625 
L 281.370626 498.650625 
L 278.119355 498.650625 
L 274.798908 498.650625 
L 271.478462 498.650625 
L 268.227191 498.650625 
L 264.906744 498.650625 
L 261.586298 498.650625 
L 258.335027 498.650625 
L 255.01458 498.650625 
L 251.694134 498.650625 
L 248.442863 498.650625 
L 245.122416 498.650625 
L 241.801969 498.650625 
L 238.550699 498.650625 
L 235.230252 498.650625 
L 231.909805 498.650625 
L 228.658535 498.650625 
L 225.338088 498.650625 
L 222.017641 498.650625 
L 218.766371 498.650625 
L 215.445924 498.650625 
L 212.125477 498.650625 
L 208.874207 498.650625 
L 205.55376 498.650625 
L 202.233313 498.650625 
L 198.982042 498.650625 
L 195.661596 498.650625 
L 192.341149 498.650625 
L 189.089878 498.650625 
L 185.769432 498.650625 
L 182.448985 498.650625 
L 179.197714 498.650625 
L 175.877268 498.650625 
L 172.556821 498.650625 
L 169.30555 498.650625 
L 165.985104 498.650625 
L 162.664657 498.650625 
L 159.413386 498.650625 
L 156.09294 498.650625 
L 152.772493 498.650625 
L 149.521222 498.650625 
L 146.200776 498.650625 
L 142.880329 498.650625 
L 139.629058 498.650625 
L 136.308611 498.650625 
L 132.988165 498.650625 
L 129.736894 498.650625 
L 126.416447 498.650625 
L 123.096001 498.650625 
L 119.84473 498.650625 
L 116.524283 498.650625 
L 113.203837 498.650625 
L 109.952566 498.650625 
L 106.632119 498.650625 
L 103.311673 498.650625 
L 100.060402 498.650625 
L 96.739955 498.650625 
L 93.419509 498.650625 
L 90.168238 498.650625 
L 86.847791 498.650625 
L 83.527344 498.650625 
L 80.276074 498.650625 
L 76.955627 498.650625 
L 73.63518 498.650625 
L 70.38391 498.650625 
L 67.063463 498.650625 
L 63.743016 498.650625 
L 60.491746 498.650625 
L 57.171299 498.650625 
L 53.850852 498.650625 
z
" clip-path="url(#p4d0a7a81e6)" style="fill: #1f77b4; fill-opacity: 0.25"/>
   </g>
   <g id="matplotlib.axis_1">
    <g id="xtick_1">
     <g id="line2d_1">
      <defs>
       <path id="m5dbc0d1e59" d="M 0 0 
L 0 3.5 
" style="stroke: #000000; stroke-width: 0.8"/>
      </defs>
      <g>
       <use xlink:href="#m5dbc0d1e59" x="65.610768" y="521.330625" style="stroke: #000000; stroke-width: 0.8"/>
      </g>
     </g>
     <g id="text_1">
      <!-- 0.0114 -->
      <g transform="translate(48.115455 535.929062) scale(0.1 -0.1)">
       <defs>
        <path id="DejaVuSans-30" d="M 2034 4250 
Q 1547 4250 1301 3770 
Q 1056 3291 1056 2328 
Q 1056 1369 1301 889 
Q 1547 409 2034 409 
Q 2525 409 2770 889 
Q 3016 1369 3016 2328 
Q 3016 3291 2770 3770 
Q 2525 4250 2034 4250 
z
M 2034 4750 
Q 2819 4750 3233 4129 
Q 3647 3509 3647 2328 
Q 3647 1150 3233 529 
Q 2819 -91 2034 -91 
Q 1250 -91 836 529 
Q 422 1150 422 2328 
Q 422 3509 836 4129 
Q 1250 4750 2034 4750 
z
" transform="scale(0.015625)"/>
        <path id="DejaVuSans-2e" d="M 684 794 
L 1344 794 
L 1344 0 
L 684 0 
L 684 794 
z
" transform="scale(0.015625)"/>
        <path id="DejaVuSans-31" d="M 794 531 
L 1825 531 
L 1825 4091 
L 703 3866 
L 703 4441 
L 1819 4666 
L 2450 4666 
L 2450 531 
L 3481 531 
L 3481 0 
L 794 0 
L 794 531 
z
" transform="scale(0.015625)"/>
        <path id="DejaVuSans-34" d="M 2419 4116 
L 825 1625 
L 2419 1625 
L 2419 4116 
z
M 2253 4666 
L 3047 4666 
L 3047 1625 
L 3713 1625 
L 3713 1100 
L 3047 1100 
L 3047 0 
L 2419 0 
L 2419 1100 
L 313 1100 
L 313 1709 
L 2253 4666 
z
" transform="scale(0.015625)"/>
       </defs>
       <use xlink:href="#DejaVuSans-30"/>
       <use xlink:href="#DejaVuSans-2e" x="63.623047"/>
       <use xlink:href="#DejaVuSans-30" x="95.410156"/>
       <use xlink:href="#DejaVuSans-31" x="159.033203"/>
       <use xlink:href="#DejaVuSans-31" x="222.65625"/>
       <use xlink:href="#DejaVuSans-34" x="286.279297"/>
      </g>
     </g>
    </g>
    <g id="xtick_2">
     <g id="line2d_2">
      <g>
       <use xlink:href="#m5dbc0d1e59" x="203.962713" y="521.330625" style="stroke: #000000; stroke-width: 0.8"/>
      </g>
     </g>
     <g id="text_2">
      <!-- 0.0116 -->
      <g transform="translate(186.4674 535.929062) scale(0.1 -0.1)">
       <defs>
        <path id="DejaVuSans-36" d="M 2113 2584 
Q 1688 2584 1439 2293 
Q 1191 2003 1191 1497 
Q 1191 994 1439 701 
Q 1688 409 2113 409 
Q 2538 409 2786 701 
Q 3034 994 3034 1497 
Q 3034 2003 2786 2293 
Q 2538 2584 2113 2584 
z
M 3366 4563 
L 3366 3988 
Q 3128 4100 2886 4159 
Q 2644 4219 2406 4219 
Q 1781 4219 1451 3797 
Q 1122 3375 1075 2522 
Q 1259 2794 1537 2939 
Q 1816 3084 2150 3084 
Q 2853 3084 3261 2657 
Q 3669 2231 3669 1497 
Q 3669 778 3244 343 
Q 2819 -91 2113 -91 
Q 1303 -91 875 529 
Q 447 1150 447 2328 
Q 447 3434 972 4092 
Q 1497 4750 2381 4750 
Q 2619 4750 2861 4703 
Q 3103 4656 3366 4563 
z
" transform="scale(0.015625)"/>
       </defs>
       <use xlink:href="#DejaVuSans-30"/>
       <use xlink:href="#DejaVuSans-2e" x="63.623047"/>
       <use xlink:href="#DejaVuSans-30" x="95.410156"/>
       <use xlink:href="#DejaVuSans-31" x="159.033203"/>
       <use xlink:href="#DejaVuSans-31" x="222.65625"/>
       <use xlink:href="#DejaVuSans-36" x="286.279297"/>
      </g>
     </g>
    </g>
    <g id="xtick_3">
     <g id="line2d_3">
      <g>
       <use xlink:href="#m5dbc0d1e59" x="342.314657" y="521.330625" style="stroke: #000000; stroke-width: 0.8"/>
      </g>
     </g>
     <g id="text_3">
      <!-- 0.0118 -->
      <g transform="translate(324.819345 535.929062) scale(0.1 -0.1)">
       <defs>
        <path id="DejaVuSans-38" d="M 2034 2216 
Q 1584 2216 1326 1975 
Q 1069 1734 1069 1313 
Q 1069 891 1326 650 
Q 1584 409 2034 409 
Q 2484 409 2743 651 
Q 3003 894 3003 1313 
Q 3003 1734 2745 1975 
Q 2488 2216 2034 2216 
z
M 1403 2484 
Q 997 2584 770 2862 
Q 544 3141 544 3541 
Q 544 4100 942 4425 
Q 1341 4750 2034 4750 
Q 2731 4750 3128 4425 
Q 3525 4100 3525 3541 
Q 3525 3141 3298 2862 
Q 3072 2584 2669 2484 
Q 3125 2378 3379 2068 
Q 3634 1759 3634 1313 
Q 3634 634 3220 271 
Q 2806 -91 2034 -91 
Q 1263 -91 848 271 
Q 434 634 434 1313 
Q 434 1759 690 2068 
Q 947 2378 1403 2484 
z
M 1172 3481 
Q 1172 3119 1398 2916 
Q 1625 2713 2034 2713 
Q 2441 2713 2670 2916 
Q 2900 3119 2900 3481 
Q 2900 3844 2670 4047 
Q 2441 4250 2034 4250 
Q 1625 4250 1398 4047 
Q 1172 3844 1172 3481 
z
" transform="scale(0.015625)"/>
       </defs>
       <use xlink:href="#DejaVuSans-30"/>
       <use xlink:href="#DejaVuSans-2e" x="63.623047"/>
       <use xlink:href="#DejaVuSans-30" x="95.410156"/>
       <use xlink:href="#DejaVuSans-31" x="159.033203"/>
       <use xlink:href="#DejaVuSans-31" x="222.65625"/>
       <use xlink:href="#DejaVuSans-38" x="286.279297"/>
      </g>
     </g>
    </g>
    <g id="xtick_4">
     <g id="line2d_4">
      <g>
       <use xlink:href="#m5dbc0d1e59" x="480.666602" y="521.330625" style="stroke: #000000; stroke-width: 0.8"/>
      </g>
     </g>
     <g id="text_4">
      <!-- 0.0120 -->
      <g transform="translate(463.17129 535.929062) scale(0.1 -0.1)">
       <defs>
        <path id="DejaVuSans-32" d="M 1228 531 
L 3431 531 
L 3431 0 
L 469 0 
L 469 531 
Q 828 903 1448 1529 
Q 2069 2156 2228 2338 
Q 2531 2678 2651 2914 
Q 2772 3150 2772 3378 
Q 2772 3750 2511 3984 
Q 2250 4219 1831 4219 
Q 1534 4219 1204 4116 
Q 875 4013 500 3803 
L 500 4441 
Q 881 4594 1212 4672 
Q 1544 4750 1819 4750 
Q 2544 4750 2975 4387 
Q 3406 4025 3406 3419 
Q 3406 3131 3298 2873 
Q 3191 2616 2906 2266 
Q 2828 2175 2409 1742 
Q 1991 1309 1228 531 
z
" transform="scale(0.015625)"/>
       </defs>
       <use xlink:href="#DejaVuSans-30"/>
       <use xlink:href="#DejaVuSans-2e" x="63.623047"/>
       <use xlink:href="#DejaVuSans-30" x="95.410156"/>
       <use xlink:href="#DejaVuSans-31" x="159.033203"/>
       <use xlink:href="#DejaVuSans-32" x="222.65625"/>
       <use xlink:href="#DejaVuSans-30" x="286.279297"/>
      </g>
     </g>
    </g>
    <g id="xtick_5">
     <g id="line2d_5">
      <g>
       <use xlink:href="#m5dbc0d1e59" x="619.018547" y="521.330625" style="stroke: #000000; stroke-width: 0.8"/>
      </g>
     </g>
     <g id="text_5">
      <!-- 0.0122 -->
      <g transform="translate(601.523235 535.929062) scale(0.1 -0.1)">
       <use xlink:href="#DejaVuSans-30"/>
       <use xlink:href="#DejaVuSans-2e" x="63.623047"/>
       <use xlink:href="#DejaVuSans-30" x="95.410156"/>
       <use xlink:href="#DejaVuSans-31" x="159.033203"/>
       <use xlink:href="#DejaVuSans-32" x="222.65625"/>
       <use xlink:href="#DejaVuSans-32" x="286.279297"/>
      </g>
     </g>
    </g>
    <g id="text_6">
     <!-- t [s] -->
     <g transform="translate(373.522656 549.607188) scale(0.1 -0.1)">
      <defs>
       <path id="DejaVuSans-74" d="M 1172 4494 
L 1172 3500 
L 2356 3500 
L 2356 3053 
L 1172 3053 
L 1172 1153 
Q 1172 725 1289 603 
Q 1406 481 1766 481 
L 2356 481 
L 2356 0 
L 1766 0 
Q 1100 0 847 248 
Q 594 497 594 1153 
L 594 3053 
L 172 3053 
L 172 3500 
L 594 3500 
L 594 4494 
L 1172 4494 
z
" transform="scale(0.015625)"/>
       <path id="DejaVuSans-20" transform="scale(0.015625)"/>
       <path id="DejaVuSans-5b" d="M 550 4863 
L 1875 4863 
L 1875 4416 
L 1125 4416 
L 1125 -397 
L 1875 -397 
L 1875 -844 
L 550 -844 
L 550 4863 
z
" transform="scale(0.015625)"/>
       <path id="DejaVuSans-73" d="M 2834 3397 
L 2834 2853 
Q 2591 2978 2328 3040 
Q 2066 3103 1784 3103 
Q 1356 3103 1142 2972 
Q 928 2841 928 2578 
Q 928 2378 1081 2264 
Q 1234 2150 1697 2047 
L 1894 2003 
Q 2506 1872 2764 1633 
Q 3022 1394 3022 966 
Q 3022 478 2636 193 
Q 2250 -91 1575 -91 
Q 1294 -91 989 -36 
Q 684 19 347 128 
L 347 722 
Q 666 556 975 473 
Q 1284 391 1588 391 
Q 1994 391 2212 530 
Q 2431 669 2431 922 
Q 2431 1156 2273 1281 
Q 2116 1406 1581 1522 
L 1381 1569 
Q 847 1681 609 1914 
Q 372 2147 372 2553 
Q 372 3047 722 3315 
Q 1072 3584 1716 3584 
Q 2034 3584 2315 3537 
Q 2597 3491 2834 3397 
z
" transform="scale(0.015625)"/>
       <path id="DejaVuSans-5d" d="M 1947 4863 
L 1947 -844 
L 622 -844 
L 622 -397 
L 1369 -397 
L 1369 4416 
L 622 4416 
L 622 4863 
L 1947 4863 
z
" transform="scale(0.015625)"/>
      </defs>
      <use xlink:href="#DejaVuSans-74"/>
      <use xlink:href="#DejaVuSans-20" x="39.208984"/>
      <use xlink:href="#DejaVuSans-5b" x="70.996094"/>
      <use xlink:href="#DejaVuSans-73" x="110.009766"/>
      <use xlink:href="#DejaVuSans-5d" x="162.109375"/>
     </g>
    </g>
   </g>
   <g id="matplotlib.axis_2">
    <g id="ytick_1"/>
    <g id="ytick_2"/>
    <g id="ytick_3"/>
    <g id="ytick_4"/>
    <g id="ytick_5"/>
    <g id="ytick_6"/>
    <g id="ytick_7"/>
    <g id="text_7">
     <!-- runs -->
     <g transform="translate(14.798438 282.848281) rotate(-90) scale(0.1 -0.1)">
      <defs>
       <path id="DejaVuSans-72" d="M 2631 2963 
Q 2534 3019 2420 3045 
Q 2306 3072 2169 3072 
Q 1681 3072 1420 2755 
Q 1159 2438 1159 1844 
L 1159 0 
L 581 0 
L 581 3500 
L 1159 3500 
L 1159 2956 
Q 1341 3275 1631 3429 
Q 1922 3584 2338 3584 
Q 2397 3584 2469 3576 
Q 2541 3569 2628 3553 
L 2631 2963 
z
" transform="scale(0.015625)"/>
       <path id="DejaVuSans-75" d="M 544 1381 
L 544 3500 
L 1119 3500 
L 1119 1403 
Q 1119 906 1312 657 
Q 1506 409 1894 409 
Q 2359 409 2629 706 
Q 2900 1003 2900 1516 
L 2900 3500 
L 3475 3500 
L 3475 0 
L 2900 0 
L 2900 538 
Q 2691 219 2414 64 
Q 2138 -91 1772 -91 
Q 1169 -91 856 284 
Q 544 659 544 1381 
z
M 1991 3584 
L 1991 3584 
z
" transform="scale(0.015625)"/>
       <path id="DejaVuSans-6e" d="M 3513 2113 
L 3513 0 
L 2938 0 
L 2938 2094 
Q 2938 2591 2744 2837 
Q 2550 3084 2163 3084 
Q 1697 3084 1428 2787 
Q 1159 2491 1159 1978 
L 1159 0 
L 581 0 
L 581 3500 
L 1159 3500 
L 1159 2956 
Q 1366 3272 1645 3428 
Q 1925 3584 2291 3584 
Q 2894 3584 3203 3211 
Q 3513 2838 3513 2113 
z
" transform="scale(0.015625)"/>
      </defs>
      <use xlink:href="#DejaVuSans-72"/>
      <use xlink:href="#DejaVuSans-75" x="41.113281"/>
      <use xlink:href="#DejaVuSans-6e" x="104.492188"/>
      <use xlink:href="#DejaVuSans-73" x="167.871094"/>
     </g>
    </g>
   </g>
   <g id="line2d_6">
    <defs>
     <path id="m3ec8556e1e" d="M 0 1 
C 0.265203 1 0.51958 0.894634 0.707107 0.707107 
C 0.894634 0.51958 1 0.265203 1 0 
C 1 -0.265203 0.894634 -0.51958 0.707107 -0.707107 
C 0.51958 -0.894634 0.265203 -1 0 -1 
C -0.265203 -1 -0.51958 -0.894634 -0.707107 -0.707107 
C -0.894634 -0.51958 -1 -0.265203 -1 0 
C -1 0.265203 -0.894634 0.51958 -0.707107 0.707107 
C -0.51958 0.894634 -0.265203 1 0 1 
z
" style="stroke: #1f77b4"/>
    </defs>
    <g clip-path="url(#p4d0a7a81e6)">
     <use xlink:href="#m3ec8556e1e" x="277.081715" y="453.290625" style="fill: #1f77b4; stroke: #1f77b4"/>
     <use xlink:href="#m3ec8556e1e" x="53.850852" y="407.931013" style="fill: #1f77b4; stroke: #1f77b4"/>
     <use xlink:href="#m3ec8556e1e" x="286.489648" y="362.571013" style="fill: #1f77b4; stroke: #1f77b4"/>
     <use xlink:href="#m3ec8556e1e" x="68.723686" y="317.211013" style="fill: #1f77b4; stroke: #1f77b4"/>
     <use xlink:href="#m3ec8556e1e" x="117.146867" y="271.851402" style="fill: #1f77b4; stroke: #1f77b4"/>
     <use xlink:href="#m3ec8556e1e" x="410.937222" y="226.491402" style="fill: #1f77b4; stroke: #1f77b4"/>
     <use xlink:href="#m3ec8556e1e" x="713.305398" y="181.131402" style="fill: #1f77b4; stroke: #1f77b4"/>
     <use xlink:href="#m3ec8556e1e" x="307.380791" y="135.77179" style="fill: #1f77b4; stroke: #1f77b4"/>
     <use xlink:href="#m3ec8556e1e" x="108.84575" y="90.410625" style="fill: #1f77b4; stroke: #1f77b4"/>
     <use xlink:href="#m3ec8556e1e" x="565.476345" y="45.050625" style="fill: #1f77b4; stroke: #1f77b4"/>
    </g>
   </g>
   <g id="line2d_7">
    <path d="M 291.124438 521.330625 
L 291.124438 22.370625 
" clip-path="url(#p4d0a7a81e6)" style="fill: none; stroke: #1f77b4; stroke-width: 1.5; stroke-linecap: square"/>
   </g>
   <g id="patch_3">
    <path d="M 20.878125 521.330625 
L 20.878125 22.370625 
" style="fill: none; stroke: #000000; stroke-width: 0.8; stroke-linejoin: miter; stroke-linecap: square"/>
   </g>
   <g id="patch_4">
    <path d="M 746.278125 521.330625 
L 746.278125 22.370625 
" style="fill: none; stroke: #000000; stroke-width: 0.8; stroke-linejoin: miter; stroke-linecap: square"/>
   </g>
   <g id="patch_5">
    <path d="M 20.878125 521.330625 
L 746.278125 521.330625 
" style="fill: none; stroke: #000000; stroke-width: 0.8; stroke-linejoin: miter; stroke-linecap: square"/>
   </g>
   <g id="patch_6">
    <path d="M 20.878125 22.370625 
L 746.278125 22.370625 
" style="fill: none; stroke: #000000; stroke-width: 0.8; stroke-linejoin: miter; stroke-linecap: square"/>
   </g>
   <g id="text_8">
    <!-- echo 8100 | python3 quicksort.py -->
    <g transform="translate(282.45375 16.370625) scale(0.12 -0.12)">
     <defs>
      <path id="DejaVuSans-65" d="M 3597 1894 
L 3597 1613 
L 953 1613 
Q 991 1019 1311 708 
Q 1631 397 2203 397 
Q 2534 397 2845 478 
Q 3156 559 3463 722 
L 3463 178 
Q 3153 47 2828 -22 
Q 2503 -91 2169 -91 
Q 1331 -91 842 396 
Q 353 884 353 1716 
Q 353 2575 817 3079 
Q 1281 3584 2069 3584 
Q 2775 3584 3186 3129 
Q 3597 2675 3597 1894 
z
M 3022 2063 
Q 3016 2534 2758 2815 
Q 2500 3097 2075 3097 
Q 1594 3097 1305 2825 
Q 1016 2553 972 2059 
L 3022 2063 
z
" transform="scale(0.015625)"/>
      <path id="DejaVuSans-63" d="M 3122 3366 
L 3122 2828 
Q 2878 2963 2633 3030 
Q 2388 3097 2138 3097 
Q 1578 3097 1268 2742 
Q 959 2388 959 1747 
Q 959 1106 1268 751 
Q 1578 397 2138 397 
Q 2388 397 2633 464 
Q 2878 531 3122 666 
L 3122 134 
Q 2881 22 2623 -34 
Q 2366 -91 2075 -91 
Q 1284 -91 818 406 
Q 353 903 353 1747 
Q 353 2603 823 3093 
Q 1294 3584 2113 3584 
Q 2378 3584 2631 3529 
Q 2884 3475 3122 3366 
z
" transform="scale(0.015625)"/>
      <path id="DejaVuSans-68" d="M 3513 2113 
L 3513 0 
L 2938 0 
L 2938 2094 
Q 2938 2591 2744 2837 
Q 2550 3084 2163 3084 
Q 1697 3084 1428 2787 
Q 1159 2491 1159 1978 
L 1159 0 
L 581 0 
L 581 4863 
L 1159 4863 
L 1159 2956 
Q 1366 3272 1645 3428 
Q 1925 3584 2291 3584 
Q 2894 3584 3203 3211 
Q 3513 2838 3513 2113 
z
" transform="scale(0.015625)"/>
      <path id="DejaVuSans-6f" d="M 1959 3097 
Q 1497 3097 1228 2736 
Q 959 2375 959 1747 
Q 959 1119 1226 758 
Q 1494 397 1959 397 
Q 2419 397 2687 759 
Q 2956 1122 2956 1747 
Q 2956 2369 2687 2733 
Q 2419 3097 1959 3097 
z
M 1959 3584 
Q 2709 3584 3137 3096 
Q 3566 2609 3566 1747 
Q 3566 888 3137 398 
Q 2709 -91 1959 -91 
Q 1206 -91 779 398 
Q 353 888 353 1747 
Q 353 2609 779 3096 
Q 1206 3584 1959 3584 
z
" transform="scale(0.015625)"/>
      <path id="DejaVuSans-7c" d="M 1344 4891 
L 1344 -1509 
L 813 -1509 
L 813 4891 
L 1344 4891 
z
" transform="scale(0.015625)"/>
      <path id="DejaVuSans-70" d="M 1159 525 
L 1159 -1331 
L 581 -1331 
L 581 3500 
L 1159 3500 
L 1159 2969 
Q 1341 3281 1617 3432 
Q 1894 3584 2278 3584 
Q 2916 3584 3314 3078 
Q 3713 2572 3713 1747 
Q 3713 922 3314 415 
Q 2916 -91 2278 -91 
Q 1894 -91 1617 61 
Q 1341 213 1159 525 
z
M 3116 1747 
Q 3116 2381 2855 2742 
Q 2594 3103 2138 3103 
Q 1681 3103 1420 2742 
Q 1159 2381 1159 1747 
Q 1159 1113 1420 752 
Q 1681 391 2138 391 
Q 2594 391 2855 752 
Q 3116 1113 3116 1747 
z
" transform="scale(0.015625)"/>
      <path id="DejaVuSans-79" d="M 2059 -325 
Q 1816 -950 1584 -1140 
Q 1353 -1331 966 -1331 
L 506 -1331 
L 506 -850 
L 844 -850 
Q 1081 -850 1212 -737 
Q 1344 -625 1503 -206 
L 1606 56 
L 191 3500 
L 800 3500 
L 1894 763 
L 2988 3500 
L 3597 3500 
L 2059 -325 
z
" transform="scale(0.015625)"/>
      <path id="DejaVuSans-33" d="M 2597 2516 
Q 3050 2419 3304 2112 
Q 3559 1806 3559 1356 
Q 3559 666 3084 287 
Q 2609 -91 1734 -91 
Q 1441 -91 1130 -33 
Q 819 25 488 141 
L 488 750 
Q 750 597 1062 519 
Q 1375 441 1716 441 
Q 2309 441 2620 675 
Q 2931 909 2931 1356 
Q 2931 1769 2642 2001 
Q 2353 2234 1838 2234 
L 1294 2234 
L 1294 2753 
L 1863 2753 
Q 2328 2753 2575 2939 
Q 2822 3125 2822 3475 
Q 2822 3834 2567 4026 
Q 2313 4219 1838 4219 
Q 1578 4219 1281 4162 
Q 984 4106 628 3988 
L 628 4550 
Q 988 4650 1302 4700 
Q 1616 4750 1894 4750 
Q 2613 4750 3031 4423 
Q 3450 4097 3450 3541 
Q 3450 3153 3228 2886 
Q 3006 2619 2597 2516 
z
" transform="scale(0.015625)"/>
      <path id="DejaVuSans-71" d="M 947 1747 
Q 947 1113 1208 752 
Q 1469 391 1925 391 
Q 2381 391 2643 752 
Q 2906 1113 2906 1747 
Q 2906 2381 2643 2742 
Q 2381 3103 1925 3103 
Q 1469 3103 1208 2742 
Q 947 2381 947 1747 
z
M 2906 525 
Q 2725 213 2448 61 
Q 2172 -91 1784 -91 
Q 1150 -91 751 415 
Q 353 922 353 1747 
Q 353 2572 751 3078 
Q 1150 3584 1784 3584 
Q 2172 3584 2448 3432 
Q 2725 3281 2906 2969 
L 2906 3500 
L 3481 3500 
L 3481 -1331 
L 2906 -1331 
L 2906 525 
z
" transform="scale(0.015625)"/>
      <path id="DejaVuSans-69" d="M 603 3500 
L 1178 3500 
L 1178 0 
L 603 0 
L 603 3500 
z
M 603 4863 
L 1178 4863 
L 1178 4134 
L 603 4134 
L 603 4863 
z
" transform="scale(0.015625)"/>
      <path id="DejaVuSans-6b" d="M 581 4863 
L 1159 4863 
L 1159 1991 
L 2875 3500 
L 3609 3500 
L 1753 1863 
L 3688 0 
L 2938 0 
L 1159 1709 
L 1159 0 
L 581 0 
L 581 4863 
z
" transform="scale(0.015625)"/>
     </defs>
     <use xlink:href="#DejaVuSans-65"/>
     <use xlink:href="#DejaVuSans-63" x="61.523438"/>
     <use xlink:href="#DejaVuSans-68" x="116.503906"/>
     <use xlink:href="#DejaVuSans-6f" x="179.882812"/>
     <use xlink:href="#DejaVuSans-20" x="241.064453"/>
     <use xlink:href="#DejaVuSans-38" x="272.851562"/>
     <use xlink:href="#DejaVuSans-31" x="336.474609"/>
     <use xlink:href="#DejaVuSans-30" x="400.097656"/>
     <use xlink:href="#DejaVuSans-30" x="463.720703"/>
     <use xlink:href="#DejaVuSans-20" x="527.34375"/>
     <use xlink:href="#DejaVuSans-7c" x="559.130859"/>
     <use xlink:href="#DejaVuSans-20" x="592.822266"/>
     <use xlink:href="#DejaVuSans-70" x="624.609375"/>
     <use xlink:href="#DejaVuSans-79" x="688.085938"/>
     <use xlink:href="#DejaVuSans-74" x="747.265625"/>
     <use xlink:href="#DejaVuSans-68" x="786.474609"/>
     <use xlink:href="#DejaVuSans-6f" x="849.853516"/>
     <use xlink:href="#DejaVuSans-6e" x="911.035156"/>
     <use xlink:href="#DejaVuSans-33" x="974.414062"/>
     <use xlink:href="#DejaVuSans-20" x="1038.037109"/>
     <use xlink:href="#DejaVuSans-71" x="1069.824219"/>
     <use xlink:href="#DejaVuSans-75" x="1133.300781"/>
     <use xlink:href="#DejaVuSans-69" x="1196.679688"/>
     <use xlink:href="#DejaVuSans-63" x="1224.462891"/>
     <use xlink:href="#DejaVuSans-6b" x="1279.443359"/>
     <use xlink:href="#DejaVuSans-73" x="1337.353516"/>
     <use xlink:href="#DejaVuSans-6f" x="1389.453125"/>
     <use xlink:href="#DejaVuSans-72" x="1450.634766"/>
     <use xlink:href="#DejaVuSans-74" x="1491.748047"/>
     <use xlink:href="#DejaVuSans-2e" x="1530.957031"/>
     <use xlink:href="#DejaVuSans-70" x="1562.744141"/>
     <use xlink:href="#DejaVuSans-79" x="1626.220703"/>
    </g>
   </g>
  </g>
 </g>
 <defs>
  <clipPath id="p4d0a7a81e6">
   <rect x="20.878125" y="22.370625" width="725.4" height="498.96"/>
  </clipPath>
 </defs>
</svg>
