<?xml version="1.0" encoding="utf-8" standalone="no"?>
<!DOCTYPE svg PUBLIC "-//W3C//DTD SVG 1.1//EN"
  "http://www.w3.org/Graphics/SVG/1.1/DTD/svg11.dtd">
<svg xmlns:xlink="http://www.w3.org/1999/xlink" width="757.300126pt" height="558.886875pt" viewBox="0 0 757.300126 558.886875" xmlns="http://www.w3.org/2000/svg" version="1.1">
 <metadata>
  <rdf:RDF xmlns:dc="http://purl.org/dc/elements/1.1/" xmlns:cc="http://creativecommons.org/ns#" xmlns:rdf="http://www.w3.org/1999/02/22-rdf-syntax-ns#">
   <cc:Work>
    <dc:type rdf:resource="http://purl.org/dc/dcmitype/StillImage"/>
    <dc:date>2024-01-14T13:49:56.293348</dc:date>
    <dc:format>image/svg+xml</dc:format>
    <dc:creator>
     <cc:Agent>
      <dc:title>Matplotlib v3.7.0, https://matplotlib.org/</dc:title>
     </cc:Agent>
    </dc:creator>
   </cc:Work>
  </rdf:RDF>
 </metadata>
 <defs>
  <style type="text/css">*{stroke-linejoin: round; stroke-linecap: butt}</style>
 </defs>
 <g id="figure_1">
  <g id="patch_1">
   <path d="M 0 558.886875 
L 757.300126 558.886875 
L 757.300126 0 
L 0 0 
z
" style="fill: #ffffff"/>
  </g>
  <g id="axes_1">
   <g id="patch_2">
    <path d="M 20.878125 521.330625 
L 746.278125 521.330625 
L 746.278125 22.370625 
L 20.878125 22.370625 
z
" style="fill: #ffffff"/>
   </g>
   <g id="PolyCollection_1">
    <path d="M 53.850852 244.229852 
L 53.850852 244.229852 
L 57.152687 236.724044 
L 60.454521 229.211764 
L 63.756356 221.705031 
L 67.05819 214.214479 
L 70.316579 206.753054 
L 73.618414 199.332776 
L 76.920248 191.966127 
L 80.222083 184.66559 
L 83.523917 177.443648 
L 86.825752 170.313246 
L 90.127586 163.286867 
L 93.429421 156.37653 
L 96.731255 149.595182 
L 100.03309 142.954841 
L 103.291479 136.467068 
L 106.593313 130.143419 
L 109.895148 123.994528 
L 113.196982 118.03149 
L 116.498817 112.264015 
L 119.800651 106.701812 
L 123.102486 101.353201 
L 126.40432 96.226505 
L 129.706155 91.329584 
L 132.964544 86.667985 
L 136.266379 82.24818 
L 139.568213 78.074331 
L 142.870047 74.151061 
L 146.171882 70.481144 
L 149.473716 67.066892 
L 152.775551 63.908766 
L 156.077385 61.007229 
L 159.37922 58.361818 
L 162.681054 55.970686 
L 165.939444 53.831057 
L 169.241278 51.939232 
L 172.543113 50.291514 
L 175.844947 48.881893 
L 179.146781 47.704819 
L 182.448616 46.753359 
L 185.75045 46.020578 
L 189.052285 45.498153 
L 192.354119 45.177764 
L 195.655954 45.050625 
L 198.914343 45.107028 
L 202.216178 45.337727 
L 205.518012 45.732551 
L 208.819847 46.28179 
L 212.121681 46.974812 
L 215.423515 47.802832 
L 218.72535 48.754754 
L 222.027184 49.821332 
L 225.329019 50.99332 
L 228.587408 52.261471 
L 231.889243 53.617001 
L 235.191077 55.052051 
L 238.492912 56.558298 
L 241.794746 58.128808 
L 245.096581 59.757571 
L 248.398415 61.438113 
L 251.700249 63.165813 
L 255.002084 64.936046 
L 258.303918 66.745115 
L 261.562308 68.589782 
L 264.864142 70.468661 
L 268.165977 72.379441 
L 271.467811 74.322121 
L 274.769646 76.296701 
L 278.07148 78.303643 
L 281.373315 80.343873 
L 284.675149 82.420164 
L 287.976983 84.534828 
L 291.235373 86.691101 
L 294.537207 88.892219 
L 297.839042 91.141881 
L 301.140876 93.445634 
L 304.442711 95.806716 
L 307.744545 98.231136 
L 311.04638 100.723517 
L 314.348214 103.288946 
L 317.650049 105.932969 
L 320.951883 108.660673 
L 324.210272 111.47668 
L 327.512107 114.387001 
L 330.813941 117.395797 
L 334.115776 120.50769 
L 337.41761 123.726843 
L 340.719445 127.057877 
L 344.021279 130.503568 
L 347.323114 134.067613 
L 350.624948 137.752325 
L 353.883337 141.560014 
L 357.185172 145.49253 
L 360.487006 149.550799 
L 363.788841 153.735281 
L 367.090675 158.046439 
L 370.39251 162.48335 
L 373.694344 167.045087 
L 376.996179 171.729803 
L 380.298013 176.535184 
L 383.599848 181.458458 
L 386.858237 186.49685 
L 390.160071 191.645275 
L 393.461906 196.900497 
L 396.76374 202.256967 
L 400.065575 207.709138 
L 403.367409 213.251924 
L 406.669244 218.87839 
L 409.971078 224.581602 
L 413.272913 230.35555 
L 416.574747 236.192373 
L 419.833136 242.084213 
L 423.134971 248.02321 
L 426.436805 254.001966 
L 429.73864 260.011236 
L 433.040474 266.042697 
L 436.342309 272.088028 
L 439.644143 278.138444 
L 442.945978 284.1847 
L 446.247812 290.21801 
L 449.506201 296.230054 
L 452.808036 302.211584 
L 456.10987 308.153355 
L 459.411705 314.047506 
L 462.713539 319.884792 
L 466.015374 325.65689 
L 469.317208 331.355479 
L 472.619043 336.972236 
L 475.920877 342.499304 
L 479.222712 347.928821 
L 482.481101 353.252928 
L 485.782935 358.465154 
L 489.08477 363.557638 
L 492.386604 368.523907 
L 495.688439 373.357953 
L 498.990273 378.053764 
L 502.292108 382.604868 
L 505.593942 387.00618 
L 508.895777 391.252613 
L 512.154166 395.340008 
L 515.456001 399.26374 
L 518.757835 403.019649 
L 522.059669 406.604499 
L 525.361504 410.015053 
L 528.663338 413.249 
L 531.965173 416.304028 
L 535.267007 419.178288 
L 538.568842 421.870392 
L 541.870676 424.379417 
L 545.129066 426.704438 
L 548.4309 428.846379 
L 551.732735 430.804777 
L 555.034569 432.580559 
L 558.336403 434.175572 
L 561.638238 435.591204 
L 564.940072 436.829766 
L 568.241907 437.894033 
L 571.543741 438.786315 
L 574.802131 439.511237 
L 578.103965 440.072035 
L 581.4058 440.472868 
L 584.707634 440.719286 
L 588.009469 440.81545 
L 591.311303 440.76783 
L 594.613137 440.581977 
L 597.914972 440.264361 
L 601.216806 439.821456 
L 604.518641 439.260196 
L 607.77703 438.587979 
L 611.078865 437.812664 
L 614.380699 436.941648 
L 617.682534 435.983253 
L 620.984368 434.945339 
L 624.286203 433.837614 
L 627.588037 432.667475 
L 630.889871 431.444632 
L 634.191706 430.177406 
L 637.49354 428.875043 
L 640.75193 427.54679 
L 644.053764 426.201431 
L 647.355599 424.848212 
L 650.657433 423.495919 
L 653.959268 422.153334 
L 657.261102 420.829242 
L 660.562937 419.531964 
L 663.864771 418.269824 
L 667.166605 417.051603 
L 670.424995 415.884239 
L 673.726829 414.775127 
L 677.028664 413.732127 
L 680.330498 412.761712 
L 683.632333 411.869429 
L 686.934167 411.062214 
L 690.236002 410.344689 
L 693.537836 409.72194 
L 696.839671 409.199053 
L 700.141505 408.778802 
L 703.399894 408.465347 
L 706.701729 408.261001 
L 710.003563 408.168074 
L 710.003563 408.168074 
L 710.003563 498.650625 
L 706.701729 498.650625 
L 703.399894 498.650625 
L 700.141505 498.650625 
L 696.839671 498.650625 
L 693.537836 498.650625 
L 690.236002 498.650625 
L 686.934167 498.650625 
L 683.632333 498.650625 
L 680.330498 498.650625 
L 677.028664 498.650625 
L 673.726829 498.650625 
L 670.424995 498.650625 
L 667.166605 498.650625 
L 663.864771 498.650625 
L 660.562937 498.650625 
L 657.261102 498.650625 
L 653.959268 498.650625 
L 650.657433 498.650625 
L 647.355599 498.650625 
L 644.053764 498.650625 
L 640.75193 498.650625 
L 637.49354 498.650625 
L 634.191706 498.650625 
L 630.889871 498.650625 
L 627.588037 498.650625 
L 624.286203 498.650625 
L 620.984368 498.650625 
L 617.682534 498.650625 
L 614.380699 498.650625 
L 611.078865 498.650625 
L 607.77703 498.650625 
L 604.518641 498.650625 
L 601.216806 498.650625 
L 597.914972 498.650625 
L 594.613137 498.650625 
L 591.311303 498.650625 
L 588.009469 498.650625 
L 584.707634 498.650625 
L 581.4058 498.650625 
L 578.103965 498.650625 
L 574.802131 498.650625 
L 571.543741 498.650625 
L 568.241907 498.650625 
L 564.940072 498.650625 
L 561.638238 498.650625 
L 558.336403 498.650625 
L 555.034569 498.650625 
L 551.732735 498.650625 
L 548.4309 498.650625 
L 545.129066 498.650625 
L 541.870676 498.650625 
L 538.568842 498.650625 
L 535.267007 498.650625 
L 531.965173 498.650625 
L 528.663338 498.650625 
L 525.361504 498.650625 
L 522.059669 498.650625 
L 518.757835 498.650625 
L 515.456001 498.650625 
L 512.154166 498.650625 
L 508.895777 498.650625 
L 505.593942 498.650625 
L 502.292108 498.650625 
L 498.990273 498.650625 
L 495.688439 498.650625 
L 492.386604 498.650625 
L 489.08477 498.650625 
L 485.782935 498.650625 
L 482.481101 498.650625 
L 479.222712 498.650625 
L 475.920877 498.650625 
L 472.619043 498.650625 
L 469.317208 498.650625 
L 466.015374 498.650625 
L 462.713539 498.650625 
L 459.411705 498.650625 
L 456.10987 498.650625 
L 452.808036 498.650625 
L 449.506201 498.650625 
L 446.247812 498.650625 
L 442.945978 498.650625 
L 439.644143 498.650625 
L 436.342309 498.650625 
L 433.040474 498.650625 
L 429.73864 498.650625 
L 426.436805 498.650625 
L 423.134971 498.650625 
L 419.833136 498.650625 
L 416.574747 498.650625 
L 413.272913 498.650625 
L 409.971078 498.650625 
L 406.669244 498.650625 
L 403.367409 498.650625 
L 400.065575 498.650625 
L 396.76374 498.650625 
L 393.461906 498.650625 
L 390.160071 498.650625 
L 386.858237 498.650625 
L 383.599848 498.650625 
L 380.298013 498.650625 
L 376.996179 498.650625 
L 373.694344 498.650625 
L 370.39251 498.650625 
L 367.090675 498.650625 
L 363.788841 498.650625 
L 360.487006 498.650625 
L 357.185172 498.650625 
L 353.883337 498.650625 
L 350.624948 498.650625 
L 347.323114 498.650625 
L 344.021279 498.650625 
L 340.719445 498.650625 
L 337.41761 498.650625 
L 334.115776 498.650625 
L 330.813941 498.650625 
L 327.512107 498.650625 
L 324.210272 498.650625 
L 320.951883 498.650625 
L 317.650049 498.650625 
L 314.348214 498.650625 
L 311.04638 498.650625 
L 307.744545 498.650625 
L 304.442711 498.650625 
L 301.140876 498.650625 
L 297.839042 498.650625 
L 294.537207 498.650625 
L 291.235373 498.650625 
L 287.976983 498.650625 
L 284.675149 498.650625 
L 281.373315 498.650625 
L 278.07148 498.650625 
L 274.769646 498.650625 
L 271.467811 498.650625 
L 268.165977 498.650625 
L 264.864142 498.650625 
L 261.562308 498.650625 
L 258.303918 498.650625 
L 255.002084 498.650625 
L 251.700249 498.650625 
L 248.398415 498.650625 
L 245.096581 498.650625 
L 241.794746 498.650625 
L 238.492912 498.650625 
L 235.191077 498.650625 
L 231.889243 498.650625 
L 228.587408 498.650625 
L 225.329019 498.650625 
L 222.027184 498.650625 
L 218.72535 498.650625 
L 215.423515 498.650625 
L 212.121681 498.650625 
L 208.819847 498.650625 
L 205.518012 498.650625 
L 202.216178 498.650625 
L 198.914343 498.650625 
L 195.655954 498.650625 
L 192.354119 498.650625 
L 189.052285 498.650625 
L 185.75045 498.650625 
L 182.448616 498.650625 
L 179.146781 498.650625 
L 175.844947 498.650625 
L 172.543113 498.650625 
L 169.241278 498.650625 
L 165.939444 498.650625 
L 162.681054 498.650625 
L 159.37922 498.650625 
L 156.077385 498.650625 
L 152.775551 498.650625 
L 149.473716 498.650625 
L 146.171882 498.650625 
L 142.870047 498.650625 
L 139.568213 498.650625 
L 136.266379 498.650625 
L 132.964544 498.650625 
L 129.706155 498.650625 
L 126.40432 498.650625 
L 123.102486 498.650625 
L 119.800651 498.650625 
L 116.498817 498.650625 
L 113.196982 498.650625 
L 109.895148 498.650625 
L 106.593313 498.650625 
L 103.291479 498.650625 
L 100.03309 498.650625 
L 96.731255 498.650625 
L 93.429421 498.650625 
L 90.127586 498.650625 
L 86.825752 498.650625 
L 83.523917 498.650625 
L 80.222083 498.650625 
L 76.920248 498.650625 
L 73.618414 498.650625 
L 70.316579 498.650625 
L 67.05819 498.650625 
L 63.756356 498.650625 
L 60.454521 498.650625 
L 57.152687 498.650625 
L 53.850852 498.650625 
z
" clip-path="url(#p1fb32cb7b2)" style="fill: #1f77b4; fill-opacity: 0.25"/>
   </g>
   <g id="matplotlib.axis_1">
    <g id="xtick_1">
     <g id="line2d_1">
      <defs>
       <path id="m4f3b358fc5" d="M 0 0 
L 0 3.5 
" style="stroke: #000000; stroke-width: 0.8"/>
      </defs>
      <g>
       <use xlink:href="#m4f3b358fc5" x="34.300517" y="521.330625" style="stroke: #000000; stroke-width: 0.8"/>
      </g>
     </g>
     <g id="text_1">
      <!-- 0.00130 -->
      <g transform="translate(13.623954 535.929062) scale(0.1 -0.1)">
       <defs>
        <path id="DejaVuSans-30" d="M 2034 4250 
Q 1547 4250 1301 3770 
Q 1056 3291 1056 2328 
Q 1056 1369 1301 889 
Q 1547 409 2034 409 
Q 2525 409 2770 889 
Q 3016 1369 3016 2328 
Q 3016 3291 2770 3770 
Q 2525 4250 2034 4250 
z
M 2034 4750 
Q 2819 4750 3233 4129 
Q 3647 3509 3647 2328 
Q 3647 1150 3233 529 
Q 2819 -91 2034 -91 
Q 1250 -91 836 529 
Q 422 1150 422 2328 
Q 422 3509 836 4129 
Q 1250 4750 2034 4750 
z
" transform="scale(0.015625)"/>
        <path id="DejaVuSans-2e" d="M 684 794 
L 1344 794 
L 1344 0 
L 684 0 
L 684 794 
z
" transform="scale(0.015625)"/>
        <path id="DejaVuSans-31" d="M 794 531 
L 1825 531 
L 1825 4091 
L 703 3866 
L 703 4441 
L 1819 4666 
L 2450 4666 
L 2450 531 
L 3481 531 
L 3481 0 
L 794 0 
L 794 531 
z
" transform="scale(0.015625)"/>
        <path id="DejaVuSans-33" d="M 2597 2516 
Q 3050 2419 3304 2112 
Q 3559 1806 3559 1356 
Q 3559 666 3084 287 
Q 2609 -91 1734 -91 
Q 1441 -91 1130 -33 
Q 819 25 488 141 
L 488 750 
Q 750 597 1062 519 
Q 1375 441 1716 441 
Q 2309 441 2620 675 
Q 2931 909 2931 1356 
Q 2931 1769 2642 2001 
Q 2353 2234 1838 2234 
L 1294 2234 
L 1294 2753 
L 1863 2753 
Q 2328 2753 2575 2939 
Q 2822 3125 2822 3475 
Q 2822 3834 2567 4026 
Q 2313 4219 1838 4219 
Q 1578 4219 1281 4162 
Q 984 4106 628 3988 
L 628 4550 
Q 988 4650 1302 4700 
Q 1616 4750 1894 4750 
Q 2613 4750 3031 4423 
Q 3450 4097 3450 3541 
Q 3450 3153 3228 2886 
Q 3006 2619 2597 2516 
z
" transform="scale(0.015625)"/>
       </defs>
       <use xlink:href="#DejaVuSans-30"/>
       <use xlink:href="#DejaVuSans-2e" x="63.623047"/>
       <use xlink:href="#DejaVuSans-30" x="95.410156"/>
       <use xlink:href="#DejaVuSans-30" x="159.033203"/>
       <use xlink:href="#DejaVuSans-31" x="222.65625"/>
       <use xlink:href="#DejaVuSans-33" x="286.279297"/>
       <use xlink:href="#DejaVuSans-30" x="349.902344"/>
      </g>
     </g>
    </g>
    <g id="xtick_2">
     <g id="line2d_2">
      <g>
       <use xlink:href="#m4f3b358fc5" x="121.190897" y="521.330625" style="stroke: #000000; stroke-width: 0.8"/>
      </g>
     </g>
     <g id="text_2">
      <!-- 0.00132 -->
      <g transform="translate(100.514335 535.929062) scale(0.1 -0.1)">
       <defs>
        <path id="DejaVuSans-32" d="M 1228 531 
L 3431 531 
L 3431 0 
L 469 0 
L 469 531 
Q 828 903 1448 1529 
Q 2069 2156 2228 2338 
Q 2531 2678 2651 2914 
Q 2772 3150 2772 3378 
Q 2772 3750 2511 3984 
Q 2250 4219 1831 4219 
Q 1534 4219 1204 4116 
Q 875 4013 500 3803 
L 500 4441 
Q 881 4594 1212 4672 
Q 1544 4750 1819 4750 
Q 2544 4750 2975 4387 
Q 3406 4025 3406 3419 
Q 3406 3131 3298 2873 
Q 3191 2616 2906 2266 
Q 2828 2175 2409 1742 
Q 1991 1309 1228 531 
z
" transform="scale(0.015625)"/>
       </defs>
       <use xlink:href="#DejaVuSans-30"/>
       <use xlink:href="#DejaVuSans-2e" x="63.623047"/>
       <use xlink:href="#DejaVuSans-30" x="95.410156"/>
       <use xlink:href="#DejaVuSans-30" x="159.033203"/>
       <use xlink:href="#DejaVuSans-31" x="222.65625"/>
       <use xlink:href="#DejaVuSans-33" x="286.279297"/>
       <use xlink:href="#DejaVuSans-32" x="349.902344"/>
      </g>
     </g>
    </g>
    <g id="xtick_3">
     <g id="line2d_3">
      <g>
       <use xlink:href="#m4f3b358fc5" x="208.081278" y="521.330625" style="stroke: #000000; stroke-width: 0.8"/>
      </g>
     </g>
     <g id="text_3">
      <!-- 0.00134 -->
      <g transform="translate(187.404716 535.929062) scale(0.1 -0.1)">
       <defs>
        <path id="DejaVuSans-34" d="M 2419 4116 
L 825 1625 
L 2419 1625 
L 2419 4116 
z
M 2253 4666 
L 3047 4666 
L 3047 1625 
L 3713 1625 
L 3713 1100 
L 3047 1100 
L 3047 0 
L 2419 0 
L 2419 1100 
L 313 1100 
L 313 1709 
L 2253 4666 
z
" transform="scale(0.015625)"/>
       </defs>
       <use xlink:href="#DejaVuSans-30"/>
       <use xlink:href="#DejaVuSans-2e" x="63.623047"/>
       <use xlink:href="#DejaVuSans-30" x="95.410156"/>
       <use xlink:href="#DejaVuSans-30" x="159.033203"/>
       <use xlink:href="#DejaVuSans-31" x="222.65625"/>
       <use xlink:href="#DejaVuSans-33" x="286.279297"/>
       <use xlink:href="#DejaVuSans-34" x="349.902344"/>
      </g>
     </g>
    </g>
    <g id="xtick_4">
     <g id="line2d_4">
      <g>
       <use xlink:href="#m4f3b358fc5" x="294.971659" y="521.330625" style="stroke: #000000; stroke-width: 0.8"/>
      </g>
     </g>
     <g id="text_4">
      <!-- 0.00136 -->
      <g transform="translate(274.295097 535.929062) scale(0.1 -0.1)">
       <defs>
        <path id="DejaVuSans-36" d="M 2113 2584 
Q 1688 2584 1439 2293 
Q 1191 2003 1191 1497 
Q 1191 994 1439 701 
Q 1688 409 2113 409 
Q 2538 409 2786 701 
Q 3034 994 3034 1497 
Q 3034 2003 2786 2293 
Q 2538 2584 2113 2584 
z
M 3366 4563 
L 3366 3988 
Q 3128 4100 2886 4159 
Q 2644 4219 2406 4219 
Q 1781 4219 1451 3797 
Q 1122 3375 1075 2522 
Q 1259 2794 1537 2939 
Q 1816 3084 2150 3084 
Q 2853 3084 3261 2657 
Q 3669 2231 3669 1497 
Q 3669 778 3244 343 
Q 2819 -91 2113 -91 
Q 1303 -91 875 529 
Q 447 1150 447 2328 
Q 447 3434 972 4092 
Q 1497 4750 2381 4750 
Q 2619 4750 2861 4703 
Q 3103 4656 3366 4563 
z
" transform="scale(0.015625)"/>
       </defs>
       <use xlink:href="#DejaVuSans-30"/>
       <use xlink:href="#DejaVuSans-2e" x="63.623047"/>
       <use xlink:href="#DejaVuSans-30" x="95.410156"/>
       <use xlink:href="#DejaVuSans-30" x="159.033203"/>
       <use xlink:href="#DejaVuSans-31" x="222.65625"/>
       <use xlink:href="#DejaVuSans-33" x="286.279297"/>
       <use xlink:href="#DejaVuSans-36" x="349.902344"/>
      </g>
     </g>
    </g>
    <g id="xtick_5">
     <g id="line2d_5">
      <g>
       <use xlink:href="#m4f3b358fc5" x="381.86204" y="521.330625" style="stroke: #000000; stroke-width: 0.8"/>
      </g>
     </g>
     <g id="text_5">
      <!-- 0.00138 -->
      <g transform="translate(361.185477 535.929062) scale(0.1 -0.1)">
       <defs>
        <path id="DejaVuSans-38" d="M 2034 2216 
Q 1584 2216 1326 1975 
Q 1069 1734 1069 1313 
Q 1069 891 1326 650 
Q 1584 409 2034 409 
Q 2484 409 2743 651 
Q 3003 894 3003 1313 
Q 3003 1734 2745 1975 
Q 2488 2216 2034 2216 
z
M 1403 2484 
Q 997 2584 770 2862 
Q 544 3141 544 3541 
Q 544 4100 942 4425 
Q 1341 4750 2034 4750 
Q 2731 4750 3128 4425 
Q 3525 4100 3525 3541 
Q 3525 3141 3298 2862 
Q 3072 2584 2669 2484 
Q 3125 2378 3379 2068 
Q 3634 1759 3634 1313 
Q 3634 634 3220 271 
Q 2806 -91 2034 -91 
Q 1263 -91 848 271 
Q 434 634 434 1313 
Q 434 1759 690 2068 
Q 947 2378 1403 2484 
z
M 1172 3481 
Q 1172 3119 1398 2916 
Q 1625 2713 2034 2713 
Q 2441 2713 2670 2916 
Q 2900 3119 2900 3481 
Q 2900 3844 2670 4047 
Q 2441 4250 2034 4250 
Q 1625 4250 1398 4047 
Q 1172 3844 1172 3481 
z
" transform="scale(0.015625)"/>
       </defs>
       <use xlink:href="#DejaVuSans-30"/>
       <use xlink:href="#DejaVuSans-2e" x="63.623047"/>
       <use xlink:href="#DejaVuSans-30" x="95.410156"/>
       <use xlink:href="#DejaVuSans-30" x="159.033203"/>
       <use xlink:href="#DejaVuSans-31" x="222.65625"/>
       <use xlink:href="#DejaVuSans-33" x="286.279297"/>
       <use xlink:href="#DejaVuSans-38" x="349.902344"/>
      </g>
     </g>
    </g>
    <g id="xtick_6">
     <g id="line2d_6">
      <g>
       <use xlink:href="#m4f3b358fc5" x="468.752421" y="521.330625" style="stroke: #000000; stroke-width: 0.8"/>
      </g>
     </g>
     <g id="text_6">
      <!-- 0.00140 -->
      <g transform="translate(448.075858 535.929062) scale(0.1 -0.1)">
       <use xlink:href="#DejaVuSans-30"/>
       <use xlink:href="#DejaVuSans-2e" x="63.623047"/>
       <use xlink:href="#DejaVuSans-30" x="95.410156"/>
       <use xlink:href="#DejaVuSans-30" x="159.033203"/>
       <use xlink:href="#DejaVuSans-31" x="222.65625"/>
       <use xlink:href="#DejaVuSans-34" x="286.279297"/>
       <use xlink:href="#DejaVuSans-30" x="349.902344"/>
      </g>
     </g>
    </g>
    <g id="xtick_7">
     <g id="line2d_7">
      <g>
       <use xlink:href="#m4f3b358fc5" x="555.642802" y="521.330625" style="stroke: #000000; stroke-width: 0.8"/>
      </g>
     </g>
     <g id="text_7">
      <!-- 0.00142 -->
      <g transform="translate(534.966239 535.929062) scale(0.1 -0.1)">
       <use xlink:href="#DejaVuSans-30"/>
       <use xlink:href="#DejaVuSans-2e" x="63.623047"/>
       <use xlink:href="#DejaVuSans-30" x="95.410156"/>
       <use xlink:href="#DejaVuSans-30" x="159.033203"/>
       <use xlink:href="#DejaVuSans-31" x="222.65625"/>
       <use xlink:href="#DejaVuSans-34" x="286.279297"/>
       <use xlink:href="#DejaVuSans-32" x="349.902344"/>
      </g>
     </g>
    </g>
    <g id="xtick_8">
     <g id="line2d_8">
      <g>
       <use xlink:href="#m4f3b358fc5" x="642.533183" y="521.330625" style="stroke: #000000; stroke-width: 0.8"/>
      </g>
     </g>
     <g id="text_8">
      <!-- 0.00144 -->
      <g transform="translate(621.85662 535.929062) scale(0.1 -0.1)">
       <use xlink:href="#DejaVuSans-30"/>
       <use xlink:href="#DejaVuSans-2e" x="63.623047"/>
       <use xlink:href="#DejaVuSans-30" x="95.410156"/>
       <use xlink:href="#DejaVuSans-30" x="159.033203"/>
       <use xlink:href="#DejaVuSans-31" x="222.65625"/>
       <use xlink:href="#DejaVuSans-34" x="286.279297"/>
       <use xlink:href="#DejaVuSans-34" x="349.902344"/>
      </g>
     </g>
    </g>
    <g id="xtick_9">
     <g id="line2d_9">
      <g>
       <use xlink:href="#m4f3b358fc5" x="729.423563" y="521.330625" style="stroke: #000000; stroke-width: 0.8"/>
      </g>
     </g>
     <g id="text_9">
      <!-- 0.00146 -->
      <g transform="translate(708.747001 535.929062) scale(0.1 -0.1)">
       <use xlink:href="#DejaVuSans-30"/>
       <use xlink:href="#DejaVuSans-2e" x="63.623047"/>
       <use xlink:href="#DejaVuSans-30" x="95.410156"/>
       <use xlink:href="#DejaVuSans-30" x="159.033203"/>
       <use xlink:href="#DejaVuSans-31" x="222.65625"/>
       <use xlink:href="#DejaVuSans-34" x="286.279297"/>
       <use xlink:href="#DejaVuSans-36" x="349.902344"/>
      </g>
     </g>
    </g>
    <g id="text_10">
     <!-- t [s] -->
     <g transform="translate(373.522656 549.607188) scale(0.1 -0.1)">
      <defs>
       <path id="DejaVuSans-74" d="M 1172 4494 
L 1172 3500 
L 2356 3500 
L 2356 3053 
L 1172 3053 
L 1172 1153 
Q 1172 725 1289 603 
Q 1406 481 1766 481 
L 2356 481 
L 2356 0 
L 1766 0 
Q 1100 0 847 248 
Q 594 497 594 1153 
L 594 3053 
L 172 3053 
L 172 3500 
L 594 3500 
L 594 4494 
L 1172 4494 
z
" transform="scale(0.015625)"/>
       <path id="DejaVuSans-20" transform="scale(0.015625)"/>
       <path id="DejaVuSans-5b" d="M 550 4863 
L 1875 4863 
L 1875 4416 
L 1125 4416 
L 1125 -397 
L 1875 -397 
L 1875 -844 
L 550 -844 
L 550 4863 
z
" transform="scale(0.015625)"/>
       <path id="DejaVuSans-73" d="M 2834 3397 
L 2834 2853 
Q 2591 2978 2328 3040 
Q 2066 3103 1784 3103 
Q 1356 3103 1142 2972 
Q 928 2841 928 2578 
Q 928 2378 1081 2264 
Q 1234 2150 1697 2047 
L 1894 2003 
Q 2506 1872 2764 1633 
Q 3022 1394 3022 966 
Q 3022 478 2636 193 
Q 2250 -91 1575 -91 
Q 1294 -91 989 -36 
Q 684 19 347 128 
L 347 722 
Q 666 556 975 473 
Q 1284 391 1588 391 
Q 1994 391 2212 530 
Q 2431 669 2431 922 
Q 2431 1156 2273 1281 
Q 2116 1406 1581 1522 
L 1381 1569 
Q 847 1681 609 1914 
Q 372 2147 372 2553 
Q 372 3047 722 3315 
Q 1072 3584 1716 3584 
Q 2034 3584 2315 3537 
Q 2597 3491 2834 3397 
z
" transform="scale(0.015625)"/>
       <path id="DejaVuSans-5d" d="M 1947 4863 
L 1947 -844 
L 622 -844 
L 622 -397 
L 1369 -397 
L 1369 4416 
L 622 4416 
L 622 4863 
L 1947 4863 
z
" transform="scale(0.015625)"/>
      </defs>
      <use xlink:href="#DejaVuSans-74"/>
      <use xlink:href="#DejaVuSans-20" x="39.208984"/>
      <use xlink:href="#DejaVuSans-5b" x="70.996094"/>
      <use xlink:href="#DejaVuSans-73" x="110.009766"/>
      <use xlink:href="#DejaVuSans-5d" x="162.109375"/>
     </g>
    </g>
   </g>
   <g id="matplotlib.axis_2">
    <g id="ytick_1"/>
    <g id="ytick_2"/>
    <g id="ytick_3"/>
    <g id="ytick_4"/>
    <g id="ytick_5"/>
    <g id="ytick_6"/>
    <g id="text_11">
     <!-- runs -->
     <g transform="translate(14.798438 282.848281) rotate(-90) scale(0.1 -0.1)">
      <defs>
       <path id="DejaVuSans-72" d="M 2631 2963 
Q 2534 3019 2420 3045 
Q 2306 3072 2169 3072 
Q 1681 3072 1420 2755 
Q 1159 2438 1159 1844 
L 1159 0 
L 581 0 
L 581 3500 
L 1159 3500 
L 1159 2956 
Q 1341 3275 1631 3429 
Q 1922 3584 2338 3584 
Q 2397 3584 2469 3576 
Q 2541 3569 2628 3553 
L 2631 2963 
z
" transform="scale(0.015625)"/>
       <path id="DejaVuSans-75" d="M 544 1381 
L 544 3500 
L 1119 3500 
L 1119 1403 
Q 1119 906 1312 657 
Q 1506 409 1894 409 
Q 2359 409 2629 706 
Q 2900 1003 2900 1516 
L 2900 3500 
L 3475 3500 
L 3475 0 
L 2900 0 
L 2900 538 
Q 2691 219 2414 64 
Q 2138 -91 1772 -91 
Q 1169 -91 856 284 
Q 544 659 544 1381 
z
M 1991 3584 
L 1991 3584 
z
" transform="scale(0.015625)"/>
       <path id="DejaVuSans-6e" d="M 3513 2113 
L 3513 0 
L 2938 0 
L 2938 2094 
Q 2938 2591 2744 2837 
Q 2550 3084 2163 3084 
Q 1697 3084 1428 2787 
Q 1159 2491 1159 1978 
L 1159 0 
L 581 0 
L 581 3500 
L 1159 3500 
L 1159 2956 
Q 1366 3272 1645 3428 
Q 1925 3584 2291 3584 
Q 2894 3584 3203 3211 
Q 3513 2838 3513 2113 
z
" transform="scale(0.015625)"/>
      </defs>
      <use xlink:href="#DejaVuSans-72"/>
      <use xlink:href="#DejaVuSans-75" x="41.113281"/>
      <use xlink:href="#DejaVuSans-6e" x="104.492188"/>
      <use xlink:href="#DejaVuSans-73" x="167.871094"/>
     </g>
    </g>
   </g>
   <g id="line2d_10">
    <defs>
     <path id="m74c9408025" d="M 0 1 
C 0.265203 1 0.51958 0.894634 0.707107 0.707107 
C 0.894634 0.51958 1 0.265203 1 0 
C 1 -0.265203 0.894634 -0.51958 0.707107 -0.707107 
C 0.51958 -0.894634 0.265203 -1 0 -1 
C -0.265203 -1 -0.51958 -0.894634 -0.707107 -0.707107 
C -0.894634 -0.51958 -1 -0.265203 -1 0 
C -1 0.265203 -0.894634 0.51958 -0.707107 0.707107 
C -0.51958 0.894634 -0.265203 1 0 1 
z
" style="stroke: #ffa500"/>
    </defs>
    <g clip-path="url(#p1fb32cb7b2)">
     <use xlink:href="#m74c9408025" x="713.305398" y="271.850856" style="fill: #ffa500; stroke: #ffa500"/>
    </g>
   </g>
   <g id="line2d_11">
    <defs>
     <path id="m94a576e139" d="M 0 1 
C 0.265203 1 0.51958 0.894634 0.707107 0.707107 
C 0.894634 0.51958 1 0.265203 1 0 
C 1 -0.265203 0.894634 -0.51958 0.707107 -0.707107 
C 0.51958 -0.894634 0.265203 -1 0 -1 
C -0.265203 -1 -0.51958 -0.894634 -0.707107 -0.707107 
C -0.894634 -0.51958 -1 -0.265203 -1 0 
C -1 0.265203 -0.894634 0.51958 -0.707107 0.707107 
C -0.51958 0.894634 -0.265203 1 0 1 
z
" style="stroke: #1f77b4"/>
    </defs>
    <g clip-path="url(#p1fb32cb7b2)">
     <use xlink:href="#m94a576e139" x="301.140876" y="453.290625" style="fill: #1f77b4; stroke: #1f77b4"/>
     <use xlink:href="#m94a576e139" x="144.520965" y="407.93044" style="fill: #1f77b4; stroke: #1f77b4"/>
     <use xlink:href="#m94a576e139" x="153.036222" y="362.570579" style="fill: #1f77b4; stroke: #1f77b4"/>
     <use xlink:href="#m94a576e139" x="430.91166" y="317.210717" style="fill: #1f77b4; stroke: #1f77b4"/>
     <use xlink:href="#m94a576e139" x="208.42884" y="226.490533" style="fill: #1f77b4; stroke: #1f77b4"/>
     <use xlink:href="#m94a576e139" x="363.571615" y="181.130671" style="fill: #1f77b4; stroke: #1f77b4"/>
     <use xlink:href="#m94a576e139" x="168.415819" y="135.77081" style="fill: #1f77b4; stroke: #1f77b4"/>
     <use xlink:href="#m94a576e139" x="319.040295" y="90.410486" style="fill: #1f77b4; stroke: #1f77b4"/>
     <use xlink:href="#m94a576e139" x="53.850852" y="45.050625" style="fill: #1f77b4; stroke: #1f77b4"/>
    </g>
   </g>
   <g id="line2d_12">
    <path d="M 286.282621 521.330625 
L 286.282621 22.370625 
" clip-path="url(#p1fb32cb7b2)" style="fill: none; stroke: #1f77b4; stroke-width: 1.5; stroke-linecap: square"/>
   </g>
   <g id="line2d_13">
    <path d="M 679.374704 521.330625 
L 679.374704 22.370625 
" clip-path="url(#p1fb32cb7b2)" style="fill: none; stroke: #ffa500; stroke-width: 1.5; stroke-linecap: square"/>
   </g>
   <g id="patch_3">
    <path d="M 20.878125 521.330625 
L 20.878125 22.370625 
" style="fill: none; stroke: #000000; stroke-width: 0.8; stroke-linejoin: miter; stroke-linecap: square"/>
   </g>
   <g id="patch_4">
    <path d="M 746.278125 521.330625 
L 746.278125 22.370625 
" style="fill: none; stroke: #000000; stroke-width: 0.8; stroke-linejoin: miter; stroke-linecap: square"/>
   </g>
   <g id="patch_5">
    <path d="M 20.878125 521.330625 
L 746.278125 521.330625 
" style="fill: none; stroke: #000000; stroke-width: 0.8; stroke-linejoin: miter; stroke-linecap: square"/>
   </g>
   <g id="patch_6">
    <path d="M 20.878125 22.370625 
L 746.278125 22.370625 
" style="fill: none; stroke: #000000; stroke-width: 0.8; stroke-linejoin: miter; stroke-linecap: square"/>
   </g>
   <g id="text_12">
    <!-- echo 1100 | python3 quicksort.py -->
    <g transform="translate(282.45375 16.370625) scale(0.12 -0.12)">
     <defs>
      <path id="DejaVuSans-65" d="M 3597 1894 
L 3597 1613 
L 953 1613 
Q 991 1019 1311 708 
Q 1631 397 2203 397 
Q 2534 397 2845 478 
Q 3156 559 3463 722 
L 3463 178 
Q 3153 47 2828 -22 
Q 2503 -91 2169 -91 
Q 1331 -91 842 396 
Q 353 884 353 1716 
Q 353 2575 817 3079 
Q 1281 3584 2069 3584 
Q 2775 3584 3186 3129 
Q 3597 2675 3597 1894 
z
M 3022 2063 
Q 3016 2534 2758 2815 
Q 2500 3097 2075 3097 
Q 1594 3097 1305 2825 
Q 1016 2553 972 2059 
L 3022 2063 
z
" transform="scale(0.015625)"/>
      <path id="DejaVuSans-63" d="M 3122 3366 
L 3122 2828 
Q 2878 2963 2633 3030 
Q 2388 3097 2138 3097 
Q 1578 3097 1268 2742 
Q 959 2388 959 1747 
Q 959 1106 1268 751 
Q 1578 397 2138 397 
Q 2388 397 2633 464 
Q 2878 531 3122 666 
L 3122 134 
Q 2881 22 2623 -34 
Q 2366 -91 2075 -91 
Q 1284 -91 818 406 
Q 353 903 353 1747 
Q 353 2603 823 3093 
Q 1294 3584 2113 3584 
Q 2378 3584 2631 3529 
Q 2884 3475 3122 3366 
z
" transform="scale(0.015625)"/>
      <path id="DejaVuSans-68" d="M 3513 2113 
L 3513 0 
L 2938 0 
L 2938 2094 
Q 2938 2591 2744 2837 
Q 2550 3084 2163 3084 
Q 1697 3084 1428 2787 
Q 1159 2491 1159 1978 
L 1159 0 
L 581 0 
L 581 4863 
L 1159 4863 
L 1159 2956 
Q 1366 3272 1645 3428 
Q 1925 3584 2291 3584 
Q 2894 3584 3203 3211 
Q 3513 2838 3513 2113 
z
" transform="scale(0.015625)"/>
      <path id="DejaVuSans-6f" d="M 1959 3097 
Q 1497 3097 1228 2736 
Q 959 2375 959 1747 
Q 959 1119 1226 758 
Q 1494 397 1959 397 
Q 2419 397 2687 759 
Q 2956 1122 2956 1747 
Q 2956 2369 2687 2733 
Q 2419 3097 1959 3097 
z
M 1959 3584 
Q 2709 3584 3137 3096 
Q 3566 2609 3566 1747 
Q 3566 888 3137 398 
Q 2709 -91 1959 -91 
Q 1206 -91 779 398 
Q 353 888 353 1747 
Q 353 2609 779 3096 
Q 1206 3584 1959 3584 
z
" transform="scale(0.015625)"/>
      <path id="DejaVuSans-7c" d="M 1344 4891 
L 1344 -1509 
L 813 -1509 
L 813 4891 
L 1344 4891 
z
" transform="scale(0.015625)"/>
      <path id="DejaVuSans-70" d="M 1159 525 
L 1159 -1331 
L 581 -1331 
L 581 3500 
L 1159 3500 
L 1159 2969 
Q 1341 3281 1617 3432 
Q 1894 3584 2278 3584 
Q 2916 3584 3314 3078 
Q 3713 2572 3713 1747 
Q 3713 922 3314 415 
Q 2916 -91 2278 -91 
Q 1894 -91 1617 61 
Q 1341 213 1159 525 
z
M 3116 1747 
Q 3116 2381 2855 2742 
Q 2594 3103 2138 3103 
Q 1681 3103 1420 2742 
Q 1159 2381 1159 1747 
Q 1159 1113 1420 752 
Q 1681 391 2138 391 
Q 2594 391 2855 752 
Q 3116 1113 3116 1747 
z
" transform="scale(0.015625)"/>
      <path id="DejaVuSans-79" d="M 2059 -325 
Q 1816 -950 1584 -1140 
Q 1353 -1331 966 -1331 
L 506 -1331 
L 506 -850 
L 844 -850 
Q 1081 -850 1212 -737 
Q 1344 -625 1503 -206 
L 1606 56 
L 191 3500 
L 800 3500 
L 1894 763 
L 2988 3500 
L 3597 3500 
L 2059 -325 
z
" transform="scale(0.015625)"/>
      <path id="DejaVuSans-71" d="M 947 1747 
Q 947 1113 1208 752 
Q 1469 391 1925 391 
Q 2381 391 2643 752 
Q 2906 1113 2906 1747 
Q 2906 2381 2643 2742 
Q 2381 3103 1925 3103 
Q 1469 3103 1208 2742 
Q 947 2381 947 1747 
z
M 2906 525 
Q 2725 213 2448 61 
Q 2172 -91 1784 -91 
Q 1150 -91 751 415 
Q 353 922 353 1747 
Q 353 2572 751 3078 
Q 1150 3584 1784 3584 
Q 2172 3584 2448 3432 
Q 2725 3281 2906 2969 
L 2906 3500 
L 3481 3500 
L 3481 -1331 
L 2906 -1331 
L 2906 525 
z
" transform="scale(0.015625)"/>
      <path id="DejaVuSans-69" d="M 603 3500 
L 1178 3500 
L 1178 0 
L 603 0 
L 603 3500 
z
M 603 4863 
L 1178 4863 
L 1178 4134 
L 603 4134 
L 603 4863 
z
" transform="scale(0.015625)"/>
      <path id="DejaVuSans-6b" d="M 581 4863 
L 1159 4863 
L 1159 1991 
L 2875 3500 
L 3609 3500 
L 1753 1863 
L 3688 0 
L 2938 0 
L 1159 1709 
L 1159 0 
L 581 0 
L 581 4863 
z
" transform="scale(0.015625)"/>
     </defs>
     <use xlink:href="#DejaVuSans-65"/>
     <use xlink:href="#DejaVuSans-63" x="61.523438"/>
     <use xlink:href="#DejaVuSans-68" x="116.503906"/>
     <use xlink:href="#DejaVuSans-6f" x="179.882812"/>
     <use xlink:href="#DejaVuSans-20" x="241.064453"/>
     <use xlink:href="#DejaVuSans-31" x="272.851562"/>
     <use xlink:href="#DejaVuSans-31" x="336.474609"/>
     <use xlink:href="#DejaVuSans-30" x="400.097656"/>
     <use xlink:href="#DejaVuSans-30" x="463.720703"/>
     <use xlink:href="#DejaVuSans-20" x="527.34375"/>
     <use xlink:href="#DejaVuSans-7c" x="559.130859"/>
     <use xlink:href="#DejaVuSans-20" x="592.822266"/>
     <use xlink:href="#DejaVuSans-70" x="624.609375"/>
     <use xlink:href="#DejaVuSans-79" x="688.085938"/>
     <use xlink:href="#DejaVuSans-74" x="747.265625"/>
     <use xlink:href="#DejaVuSans-68" x="786.474609"/>
     <use xlink:href="#DejaVuSans-6f" x="849.853516"/>
     <use xlink:href="#DejaVuSans-6e" x="911.035156"/>
     <use xlink:href="#DejaVuSans-33" x="974.414062"/>
     <use xlink:href="#DejaVuSans-20" x="1038.037109"/>
     <use xlink:href="#DejaVuSans-71" x="1069.824219"/>
     <use xlink:href="#DejaVuSans-75" x="1133.300781"/>
     <use xlink:href="#DejaVuSans-69" x="1196.679688"/>
     <use xlink:href="#DejaVuSans-63" x="1224.462891"/>
     <use xlink:href="#DejaVuSans-6b" x="1279.443359"/>
     <use xlink:href="#DejaVuSans-73" x="1337.353516"/>
     <use xlink:href="#DejaVuSans-6f" x="1389.453125"/>
     <use xlink:href="#DejaVuSans-72" x="1450.634766"/>
     <use xlink:href="#DejaVuSans-74" x="1491.748047"/>
     <use xlink:href="#DejaVuSans-2e" x="1530.957031"/>
     <use xlink:href="#DejaVuSans-70" x="1562.744141"/>
     <use xlink:href="#DejaVuSans-79" x="1626.220703"/>
    </g>
   </g>
  </g>
 </g>
 <defs>
  <clipPath id="p1fb32cb7b2">
   <rect x="20.878125" y="22.370625" width="725.4" height="498.96"/>
  </clipPath>
 </defs>
</svg>
