<?xml version="1.0" encoding="utf-8" standalone="no"?>
<!DOCTYPE svg PUBLIC "-//W3C//DTD SVG 1.1//EN"
  "http://www.w3.org/Graphics/SVG/1.1/DTD/svg11.dtd">
<svg xmlns:xlink="http://www.w3.org/1999/xlink" width="753.478125pt" height="558.886875pt" viewBox="0 0 753.478125 558.886875" xmlns="http://www.w3.org/2000/svg" version="1.1">
 <metadata>
  <rdf:RDF xmlns:dc="http://purl.org/dc/elements/1.1/" xmlns:cc="http://creativecommons.org/ns#" xmlns:rdf="http://www.w3.org/1999/02/22-rdf-syntax-ns#">
   <cc:Work>
    <dc:type rdf:resource="http://purl.org/dc/dcmitype/StillImage"/>
    <dc:date>2024-01-14T13:49:56.436299</dc:date>
    <dc:format>image/svg+xml</dc:format>
    <dc:creator>
     <cc:Agent>
      <dc:title>Matplotlib v3.7.0, https://matplotlib.org/</dc:title>
     </cc:Agent>
    </dc:creator>
   </cc:Work>
  </rdf:RDF>
 </metadata>
 <defs>
  <style type="text/css">*{stroke-linejoin: round; stroke-linecap: butt}</style>
 </defs>
 <g id="figure_1">
  <g id="patch_1">
   <path d="M 0 558.886875 
L 753.478125 558.886875 
L 753.478125 0 
L 0 0 
z
" style="fill: #ffffff"/>
  </g>
  <g id="axes_1">
   <g id="patch_2">
    <path d="M 20.878125 521.330625 
L 746.278125 521.330625 
L 746.278125 22.370625 
L 20.878125 22.370625 
z
" style="fill: #ffffff"/>
   </g>
   <g id="PolyCollection_1">
    <path d="M 53.850852 341.278325 
L 53.850852 341.278325 
L 57.148125 337.207596 
L 60.445398 333.055048 
L 63.74267 328.817126 
L 67.039943 324.492642 
L 70.337216 320.078041 
L 73.634489 315.569764 
L 76.931761 310.96544 
L 80.229034 306.263884 
L 83.526307 301.462723 
L 86.82358 296.560772 
L 90.120852 291.556846 
L 93.418125 286.449758 
L 96.715398 281.240694 
L 100.01267 275.928469 
L 103.309943 270.515454 
L 106.607216 265.00402 
L 109.904489 259.395354 
L 113.201761 253.691827 
L 116.499034 247.898181 
L 119.796307 242.01916 
L 123.09358 236.058322 
L 126.390852 230.02278 
L 129.688125 223.91965 
L 132.985398 217.753675 
L 136.28267 211.535525 
L 139.579943 205.273503 
L 142.877216 198.974721 
L 146.174489 192.652225 
L 149.471761 186.314313 
L 152.769034 179.972844 
L 156.066307 173.639676 
L 159.36358 167.32548 
L 162.660852 161.044485 
L 165.958125 154.809735 
L 169.255398 148.631902 
L 172.55267 142.5264 
L 175.849943 136.505088 
L 179.147216 130.582194 
L 182.444489 124.770762 
L 185.741761 119.083835 
L 189.039034 113.534457 
L 192.336307 108.135671 
L 195.63358 102.90052 
L 198.930852 97.838491 
L 202.228125 92.962627 
L 205.525398 88.284786 
L 208.82267 83.812082 
L 212.119943 79.556373 
L 215.417216 75.52596 
L 218.714489 71.727956 
L 222.011761 68.169476 
L 225.309034 64.85645 
L 228.606307 61.794806 
L 231.90358 58.986916 
L 235.200852 56.437522 
L 238.498125 54.146625 
L 241.795398 52.117782 
L 245.09267 50.348621 
L 248.389943 48.839143 
L 251.687216 47.586975 
L 254.984489 46.589747 
L 258.281761 45.842716 
L 261.579034 45.341137 
L 264.876307 45.079083 
L 268.17358 45.050625 
L 271.470852 45.247462 
L 274.768125 45.66248 
L 278.065398 46.287377 
L 281.36267 47.11267 
L 284.659943 48.127684 
L 287.957216 49.32412 
L 291.254489 50.690121 
L 294.551761 52.2162 
L 297.849034 53.891685 
L 301.146307 55.704719 
L 304.44358 57.64463 
L 307.740852 59.701932 
L 311.038125 61.864766 
L 314.335398 64.122462 
L 317.63267 66.466719 
L 320.929943 68.885678 
L 324.227216 71.369855 
L 327.524489 73.912134 
L 330.821761 76.50303 
L 334.119034 79.134241 
L 337.416307 81.798654 
L 340.71358 84.489154 
L 344.010852 87.199812 
L 347.308125 89.924699 
L 350.605398 92.659072 
L 353.90267 95.399374 
L 357.199943 98.140861 
L 360.497216 100.881163 
L 363.794489 103.616722 
L 367.091761 106.346352 
L 370.389034 109.070053 
L 373.686307 111.784268 
L 376.98358 114.491369 
L 380.280852 117.190169 
L 383.578125 119.881854 
L 386.875398 122.566425 
L 390.17267 125.246253 
L 393.469943 127.921338 
L 396.767216 130.596423 
L 400.064489 133.270322 
L 403.361761 135.946592 
L 406.659034 138.628792 
L 409.956307 141.31692 
L 413.25358 144.013349 
L 416.550852 146.721635 
L 419.848125 149.44415 
L 423.145398 152.180895 
L 426.44267 154.935426 
L 429.739943 157.708929 
L 433.037216 160.502591 
L 436.334489 163.317596 
L 439.631761 166.15513 
L 442.929034 169.015194 
L 446.226307 171.898974 
L 449.52358 174.806468 
L 452.820852 177.735307 
L 456.118125 180.687861 
L 459.415398 183.660572 
L 462.71267 186.653442 
L 466.009943 189.665284 
L 469.307216 192.693727 
L 472.604489 195.736398 
L 475.901761 198.789742 
L 479.199034 201.853758 
L 482.496307 204.923702 
L 485.79358 207.99839 
L 489.090852 211.071891 
L 492.388125 214.143022 
L 495.685398 217.207037 
L 498.98267 220.262752 
L 502.279943 223.303053 
L 505.577216 226.327938 
L 508.874489 229.33148 
L 512.171761 232.311306 
L 515.469034 235.26386 
L 518.766307 238.185584 
L 522.06358 241.07292 
L 525.360852 243.923498 
L 528.658125 246.734946 
L 531.955398 249.50252 
L 535.25267 252.226222 
L 538.549943 254.902492 
L 541.847216 257.530147 
L 545.144489 260.106813 
L 548.441761 262.631306 
L 551.739034 265.102439 
L 555.036307 267.519027 
L 558.33358 269.88107 
L 561.630852 272.188568 
L 564.928125 274.440335 
L 568.225398 276.636371 
L 571.52267 278.779047 
L 574.819943 280.868364 
L 578.117216 282.905508 
L 581.414489 284.891664 
L 584.711761 286.829203 
L 588.009034 288.719312 
L 591.306307 290.564361 
L 594.60358 292.366723 
L 597.900852 294.128769 
L 601.198125 295.852871 
L 604.495398 297.542586 
L 607.79267 299.20147 
L 611.089943 300.831896 
L 614.387216 302.438607 
L 617.684489 304.022789 
L 620.981761 305.589184 
L 624.279034 307.14135 
L 627.576307 308.684029 
L 630.87358 310.218409 
L 634.170852 311.750416 
L 637.468125 313.282424 
L 640.765398 314.817989 
L 644.06267 316.361855 
L 647.359943 317.916392 
L 650.657216 319.486344 
L 653.954489 321.072897 
L 657.251761 322.68198 
L 660.549034 324.314778 
L 663.846307 325.974848 
L 667.14358 327.664562 
L 670.440852 329.387478 
L 673.738125 331.145967 
L 677.035398 332.941215 
L 680.33267 334.775592 
L 683.629943 336.651472 
L 686.927216 338.571225 
L 690.224489 340.533665 
L 693.521761 342.54235 
L 696.819034 344.596094 
L 700.116307 346.697269 
L 703.41358 348.845875 
L 706.710852 351.041911 
L 710.008125 353.284191 
L 710.008125 353.284191 
L 710.008125 498.650625 
L 706.710852 498.650625 
L 703.41358 498.650625 
L 700.116307 498.650625 
L 696.819034 498.650625 
L 693.521761 498.650625 
L 690.224489 498.650625 
L 686.927216 498.650625 
L 683.629943 498.650625 
L 680.33267 498.650625 
L 677.035398 498.650625 
L 673.738125 498.650625 
L 670.440852 498.650625 
L 667.14358 498.650625 
L 663.846307 498.650625 
L 660.549034 498.650625 
L 657.251761 498.650625 
L 653.954489 498.650625 
L 650.657216 498.650625 
L 647.359943 498.650625 
L 644.06267 498.650625 
L 640.765398 498.650625 
L 637.468125 498.650625 
L 634.170852 498.650625 
L 630.87358 498.650625 
L 627.576307 498.650625 
L 624.279034 498.650625 
L 620.981761 498.650625 
L 617.684489 498.650625 
L 614.387216 498.650625 
L 611.089943 498.650625 
L 607.79267 498.650625 
L 604.495398 498.650625 
L 601.198125 498.650625 
L 597.900852 498.650625 
L 594.60358 498.650625 
L 591.306307 498.650625 
L 588.009034 498.650625 
L 584.711761 498.650625 
L 581.414489 498.650625 
L 578.117216 498.650625 
L 574.819943 498.650625 
L 571.52267 498.650625 
L 568.225398 498.650625 
L 564.928125 498.650625 
L 561.630852 498.650625 
L 558.33358 498.650625 
L 555.036307 498.650625 
L 551.739034 498.650625 
L 548.441761 498.650625 
L 545.144489 498.650625 
L 541.847216 498.650625 
L 538.549943 498.650625 
L 535.25267 498.650625 
L 531.955398 498.650625 
L 528.658125 498.650625 
L 525.360852 498.650625 
L 522.06358 498.650625 
L 518.766307 498.650625 
L 515.469034 498.650625 
L 512.171761 498.650625 
L 508.874489 498.650625 
L 505.577216 498.650625 
L 502.279943 498.650625 
L 498.98267 498.650625 
L 495.685398 498.650625 
L 492.388125 498.650625 
L 489.090852 498.650625 
L 485.79358 498.650625 
L 482.496307 498.650625 
L 479.199034 498.650625 
L 475.901761 498.650625 
L 472.604489 498.650625 
L 469.307216 498.650625 
L 466.009943 498.650625 
L 462.71267 498.650625 
L 459.415398 498.650625 
L 456.118125 498.650625 
L 452.820852 498.650625 
L 449.52358 498.650625 
L 446.226307 498.650625 
L 442.929034 498.650625 
L 439.631761 498.650625 
L 436.334489 498.650625 
L 433.037216 498.650625 
L 429.739943 498.650625 
L 426.44267 498.650625 
L 423.145398 498.650625 
L 419.848125 498.650625 
L 416.550852 498.650625 
L 413.25358 498.650625 
L 409.956307 498.650625 
L 406.659034 498.650625 
L 403.361761 498.650625 
L 400.064489 498.650625 
L 396.767216 498.650625 
L 393.469943 498.650625 
L 390.17267 498.650625 
L 386.875398 498.650625 
L 383.578125 498.650625 
L 380.280852 498.650625 
L 376.98358 498.650625 
L 373.686307 498.650625 
L 370.389034 498.650625 
L 367.091761 498.650625 
L 363.794489 498.650625 
L 360.497216 498.650625 
L 357.199943 498.650625 
L 353.90267 498.650625 
L 350.605398 498.650625 
L 347.308125 498.650625 
L 344.010852 498.650625 
L 340.71358 498.650625 
L 337.416307 498.650625 
L 334.119034 498.650625 
L 330.821761 498.650625 
L 327.524489 498.650625 
L 324.227216 498.650625 
L 320.929943 498.650625 
L 317.63267 498.650625 
L 314.335398 498.650625 
L 311.038125 498.650625 
L 307.740852 498.650625 
L 304.44358 498.650625 
L 301.146307 498.650625 
L 297.849034 498.650625 
L 294.551761 498.650625 
L 291.254489 498.650625 
L 287.957216 498.650625 
L 284.659943 498.650625 
L 281.36267 498.650625 
L 278.065398 498.650625 
L 274.768125 498.650625 
L 271.470852 498.650625 
L 268.17358 498.650625 
L 264.876307 498.650625 
L 261.579034 498.650625 
L 258.281761 498.650625 
L 254.984489 498.650625 
L 251.687216 498.650625 
L 248.389943 498.650625 
L 245.09267 498.650625 
L 241.795398 498.650625 
L 238.498125 498.650625 
L 235.200852 498.650625 
L 231.90358 498.650625 
L 228.606307 498.650625 
L 225.309034 498.650625 
L 222.011761 498.650625 
L 218.714489 498.650625 
L 215.417216 498.650625 
L 212.119943 498.650625 
L 208.82267 498.650625 
L 205.525398 498.650625 
L 202.228125 498.650625 
L 198.930852 498.650625 
L 195.63358 498.650625 
L 192.336307 498.650625 
L 189.039034 498.650625 
L 185.741761 498.650625 
L 182.444489 498.650625 
L 179.147216 498.650625 
L 175.849943 498.650625 
L 172.55267 498.650625 
L 169.255398 498.650625 
L 165.958125 498.650625 
L 162.660852 498.650625 
L 159.36358 498.650625 
L 156.066307 498.650625 
L 152.769034 498.650625 
L 149.471761 498.650625 
L 146.174489 498.650625 
L 142.877216 498.650625 
L 139.579943 498.650625 
L 136.28267 498.650625 
L 132.985398 498.650625 
L 129.688125 498.650625 
L 126.390852 498.650625 
L 123.09358 498.650625 
L 119.796307 498.650625 
L 116.499034 498.650625 
L 113.201761 498.650625 
L 109.904489 498.650625 
L 106.607216 498.650625 
L 103.309943 498.650625 
L 100.01267 498.650625 
L 96.715398 498.650625 
L 93.418125 498.650625 
L 90.120852 498.650625 
L 86.82358 498.650625 
L 83.526307 498.650625 
L 80.229034 498.650625 
L 76.931761 498.650625 
L 73.634489 498.650625 
L 70.337216 498.650625 
L 67.039943 498.650625 
L 63.74267 498.650625 
L 60.445398 498.650625 
L 57.148125 498.650625 
L 53.850852 498.650625 
z
" clip-path="url(#p48722e7519)" style="fill: #1f77b4; fill-opacity: 0.25"/>
   </g>
   <g id="matplotlib.axis_1">
    <g id="xtick_1">
     <g id="line2d_1">
      <defs>
       <path id="md319b188c3" d="M 0 0 
L 0 3.5 
" style="stroke: #000000; stroke-width: 0.8"/>
      </defs>
      <g>
       <use xlink:href="#md319b188c3" x="31.907599" y="521.330625" style="stroke: #000000; stroke-width: 0.8"/>
      </g>
     </g>
     <g id="text_1">
      <!-- 0.00540 -->
      <g transform="translate(11.231036 535.929062) scale(0.1 -0.1)">
       <defs>
        <path id="DejaVuSans-30" d="M 2034 4250 
Q 1547 4250 1301 3770 
Q 1056 3291 1056 2328 
Q 1056 1369 1301 889 
Q 1547 409 2034 409 
Q 2525 409 2770 889 
Q 3016 1369 3016 2328 
Q 3016 3291 2770 3770 
Q 2525 4250 2034 4250 
z
M 2034 4750 
Q 2819 4750 3233 4129 
Q 3647 3509 3647 2328 
Q 3647 1150 3233 529 
Q 2819 -91 2034 -91 
Q 1250 -91 836 529 
Q 422 1150 422 2328 
Q 422 3509 836 4129 
Q 1250 4750 2034 4750 
z
" transform="scale(0.015625)"/>
        <path id="DejaVuSans-2e" d="M 684 794 
L 1344 794 
L 1344 0 
L 684 0 
L 684 794 
z
" transform="scale(0.015625)"/>
        <path id="DejaVuSans-35" d="M 691 4666 
L 3169 4666 
L 3169 4134 
L 1269 4134 
L 1269 2991 
Q 1406 3038 1543 3061 
Q 1681 3084 1819 3084 
Q 2600 3084 3056 2656 
Q 3513 2228 3513 1497 
Q 3513 744 3044 326 
Q 2575 -91 1722 -91 
Q 1428 -91 1123 -41 
Q 819 9 494 109 
L 494 744 
Q 775 591 1075 516 
Q 1375 441 1709 441 
Q 2250 441 2565 725 
Q 2881 1009 2881 1497 
Q 2881 1984 2565 2268 
Q 2250 2553 1709 2553 
Q 1456 2553 1204 2497 
Q 953 2441 691 2322 
L 691 4666 
z
" transform="scale(0.015625)"/>
        <path id="DejaVuSans-34" d="M 2419 4116 
L 825 1625 
L 2419 1625 
L 2419 4116 
z
M 2253 4666 
L 3047 4666 
L 3047 1625 
L 3713 1625 
L 3713 1100 
L 3047 1100 
L 3047 0 
L 2419 0 
L 2419 1100 
L 313 1100 
L 313 1709 
L 2253 4666 
z
" transform="scale(0.015625)"/>
       </defs>
       <use xlink:href="#DejaVuSans-30"/>
       <use xlink:href="#DejaVuSans-2e" x="63.623047"/>
       <use xlink:href="#DejaVuSans-30" x="95.410156"/>
       <use xlink:href="#DejaVuSans-30" x="159.033203"/>
       <use xlink:href="#DejaVuSans-35" x="222.65625"/>
       <use xlink:href="#DejaVuSans-34" x="286.279297"/>
       <use xlink:href="#DejaVuSans-30" x="349.902344"/>
      </g>
     </g>
    </g>
    <g id="xtick_2">
     <g id="line2d_2">
      <g>
       <use xlink:href="#md319b188c3" x="128.319082" y="521.330625" style="stroke: #000000; stroke-width: 0.8"/>
      </g>
     </g>
     <g id="text_2">
      <!-- 0.00545 -->
      <g transform="translate(107.642519 535.929062) scale(0.1 -0.1)">
       <use xlink:href="#DejaVuSans-30"/>
       <use xlink:href="#DejaVuSans-2e" x="63.623047"/>
       <use xlink:href="#DejaVuSans-30" x="95.410156"/>
       <use xlink:href="#DejaVuSans-30" x="159.033203"/>
       <use xlink:href="#DejaVuSans-35" x="222.65625"/>
       <use xlink:href="#DejaVuSans-34" x="286.279297"/>
       <use xlink:href="#DejaVuSans-35" x="349.902344"/>
      </g>
     </g>
    </g>
    <g id="xtick_3">
     <g id="line2d_3">
      <g>
       <use xlink:href="#md319b188c3" x="224.730565" y="521.330625" style="stroke: #000000; stroke-width: 0.8"/>
      </g>
     </g>
     <g id="text_3">
      <!-- 0.00550 -->
      <g transform="translate(204.054003 535.929062) scale(0.1 -0.1)">
       <use xlink:href="#DejaVuSans-30"/>
       <use xlink:href="#DejaVuSans-2e" x="63.623047"/>
       <use xlink:href="#DejaVuSans-30" x="95.410156"/>
       <use xlink:href="#DejaVuSans-30" x="159.033203"/>
       <use xlink:href="#DejaVuSans-35" x="222.65625"/>
       <use xlink:href="#DejaVuSans-35" x="286.279297"/>
       <use xlink:href="#DejaVuSans-30" x="349.902344"/>
      </g>
     </g>
    </g>
    <g id="xtick_4">
     <g id="line2d_4">
      <g>
       <use xlink:href="#md319b188c3" x="321.142048" y="521.330625" style="stroke: #000000; stroke-width: 0.8"/>
      </g>
     </g>
     <g id="text_4">
      <!-- 0.00555 -->
      <g transform="translate(300.465486 535.929062) scale(0.1 -0.1)">
       <use xlink:href="#DejaVuSans-30"/>
       <use xlink:href="#DejaVuSans-2e" x="63.623047"/>
       <use xlink:href="#DejaVuSans-30" x="95.410156"/>
       <use xlink:href="#DejaVuSans-30" x="159.033203"/>
       <use xlink:href="#DejaVuSans-35" x="222.65625"/>
       <use xlink:href="#DejaVuSans-35" x="286.279297"/>
       <use xlink:href="#DejaVuSans-35" x="349.902344"/>
      </g>
     </g>
    </g>
    <g id="xtick_5">
     <g id="line2d_5">
      <g>
       <use xlink:href="#md319b188c3" x="417.553532" y="521.330625" style="stroke: #000000; stroke-width: 0.8"/>
      </g>
     </g>
     <g id="text_5">
      <!-- 0.00560 -->
      <g transform="translate(396.876969 535.929062) scale(0.1 -0.1)">
       <defs>
        <path id="DejaVuSans-36" d="M 2113 2584 
Q 1688 2584 1439 2293 
Q 1191 2003 1191 1497 
Q 1191 994 1439 701 
Q 1688 409 2113 409 
Q 2538 409 2786 701 
Q 3034 994 3034 1497 
Q 3034 2003 2786 2293 
Q 2538 2584 2113 2584 
z
M 3366 4563 
L 3366 3988 
Q 3128 4100 2886 4159 
Q 2644 4219 2406 4219 
Q 1781 4219 1451 3797 
Q 1122 3375 1075 2522 
Q 1259 2794 1537 2939 
Q 1816 3084 2150 3084 
Q 2853 3084 3261 2657 
Q 3669 2231 3669 1497 
Q 3669 778 3244 343 
Q 2819 -91 2113 -91 
Q 1303 -91 875 529 
Q 447 1150 447 2328 
Q 447 3434 972 4092 
Q 1497 4750 2381 4750 
Q 2619 4750 2861 4703 
Q 3103 4656 3366 4563 
z
" transform="scale(0.015625)"/>
       </defs>
       <use xlink:href="#DejaVuSans-30"/>
       <use xlink:href="#DejaVuSans-2e" x="63.623047"/>
       <use xlink:href="#DejaVuSans-30" x="95.410156"/>
       <use xlink:href="#DejaVuSans-30" x="159.033203"/>
       <use xlink:href="#DejaVuSans-35" x="222.65625"/>
       <use xlink:href="#DejaVuSans-36" x="286.279297"/>
       <use xlink:href="#DejaVuSans-30" x="349.902344"/>
      </g>
     </g>
    </g>
    <g id="xtick_6">
     <g id="line2d_6">
      <g>
       <use xlink:href="#md319b188c3" x="513.965015" y="521.330625" style="stroke: #000000; stroke-width: 0.8"/>
      </g>
     </g>
     <g id="text_6">
      <!-- 0.00565 -->
      <g transform="translate(493.288452 535.929062) scale(0.1 -0.1)">
       <use xlink:href="#DejaVuSans-30"/>
       <use xlink:href="#DejaVuSans-2e" x="63.623047"/>
       <use xlink:href="#DejaVuSans-30" x="95.410156"/>
       <use xlink:href="#DejaVuSans-30" x="159.033203"/>
       <use xlink:href="#DejaVuSans-35" x="222.65625"/>
       <use xlink:href="#DejaVuSans-36" x="286.279297"/>
       <use xlink:href="#DejaVuSans-35" x="349.902344"/>
      </g>
     </g>
    </g>
    <g id="xtick_7">
     <g id="line2d_7">
      <g>
       <use xlink:href="#md319b188c3" x="610.376498" y="521.330625" style="stroke: #000000; stroke-width: 0.8"/>
      </g>
     </g>
     <g id="text_7">
      <!-- 0.00570 -->
      <g transform="translate(589.699936 535.929062) scale(0.1 -0.1)">
       <defs>
        <path id="DejaVuSans-37" d="M 525 4666 
L 3525 4666 
L 3525 4397 
L 1831 0 
L 1172 0 
L 2766 4134 
L 525 4134 
L 525 4666 
z
" transform="scale(0.015625)"/>
       </defs>
       <use xlink:href="#DejaVuSans-30"/>
       <use xlink:href="#DejaVuSans-2e" x="63.623047"/>
       <use xlink:href="#DejaVuSans-30" x="95.410156"/>
       <use xlink:href="#DejaVuSans-30" x="159.033203"/>
       <use xlink:href="#DejaVuSans-35" x="222.65625"/>
       <use xlink:href="#DejaVuSans-37" x="286.279297"/>
       <use xlink:href="#DejaVuSans-30" x="349.902344"/>
      </g>
     </g>
    </g>
    <g id="xtick_8">
     <g id="line2d_8">
      <g>
       <use xlink:href="#md319b188c3" x="706.787981" y="521.330625" style="stroke: #000000; stroke-width: 0.8"/>
      </g>
     </g>
     <g id="text_8">
      <!-- 0.00575 -->
      <g transform="translate(686.111419 535.929062) scale(0.1 -0.1)">
       <use xlink:href="#DejaVuSans-30"/>
       <use xlink:href="#DejaVuSans-2e" x="63.623047"/>
       <use xlink:href="#DejaVuSans-30" x="95.410156"/>
       <use xlink:href="#DejaVuSans-30" x="159.033203"/>
       <use xlink:href="#DejaVuSans-35" x="222.65625"/>
       <use xlink:href="#DejaVuSans-37" x="286.279297"/>
       <use xlink:href="#DejaVuSans-35" x="349.902344"/>
      </g>
     </g>
    </g>
    <g id="text_9">
     <!-- t [s] -->
     <g transform="translate(373.522656 549.607188) scale(0.1 -0.1)">
      <defs>
       <path id="DejaVuSans-74" d="M 1172 4494 
L 1172 3500 
L 2356 3500 
L 2356 3053 
L 1172 3053 
L 1172 1153 
Q 1172 725 1289 603 
Q 1406 481 1766 481 
L 2356 481 
L 2356 0 
L 1766 0 
Q 1100 0 847 248 
Q 594 497 594 1153 
L 594 3053 
L 172 3053 
L 172 3500 
L 594 3500 
L 594 4494 
L 1172 4494 
z
" transform="scale(0.015625)"/>
       <path id="DejaVuSans-20" transform="scale(0.015625)"/>
       <path id="DejaVuSans-5b" d="M 550 4863 
L 1875 4863 
L 1875 4416 
L 1125 4416 
L 1125 -397 
L 1875 -397 
L 1875 -844 
L 550 -844 
L 550 4863 
z
" transform="scale(0.015625)"/>
       <path id="DejaVuSans-73" d="M 2834 3397 
L 2834 2853 
Q 2591 2978 2328 3040 
Q 2066 3103 1784 3103 
Q 1356 3103 1142 2972 
Q 928 2841 928 2578 
Q 928 2378 1081 2264 
Q 1234 2150 1697 2047 
L 1894 2003 
Q 2506 1872 2764 1633 
Q 3022 1394 3022 966 
Q 3022 478 2636 193 
Q 2250 -91 1575 -91 
Q 1294 -91 989 -36 
Q 684 19 347 128 
L 347 722 
Q 666 556 975 473 
Q 1284 391 1588 391 
Q 1994 391 2212 530 
Q 2431 669 2431 922 
Q 2431 1156 2273 1281 
Q 2116 1406 1581 1522 
L 1381 1569 
Q 847 1681 609 1914 
Q 372 2147 372 2553 
Q 372 3047 722 3315 
Q 1072 3584 1716 3584 
Q 2034 3584 2315 3537 
Q 2597 3491 2834 3397 
z
" transform="scale(0.015625)"/>
       <path id="DejaVuSans-5d" d="M 1947 4863 
L 1947 -844 
L 622 -844 
L 622 -397 
L 1369 -397 
L 1369 4416 
L 622 4416 
L 622 4863 
L 1947 4863 
z
" transform="scale(0.015625)"/>
      </defs>
      <use xlink:href="#DejaVuSans-74"/>
      <use xlink:href="#DejaVuSans-20" x="39.208984"/>
      <use xlink:href="#DejaVuSans-5b" x="70.996094"/>
      <use xlink:href="#DejaVuSans-73" x="110.009766"/>
      <use xlink:href="#DejaVuSans-5d" x="162.109375"/>
     </g>
    </g>
   </g>
   <g id="matplotlib.axis_2">
    <g id="ytick_1"/>
    <g id="ytick_2"/>
    <g id="ytick_3"/>
    <g id="ytick_4"/>
    <g id="ytick_5"/>
    <g id="ytick_6"/>
    <g id="ytick_7"/>
    <g id="ytick_8"/>
    <g id="ytick_9"/>
    <g id="text_10">
     <!-- runs -->
     <g transform="translate(14.798438 282.848281) rotate(-90) scale(0.1 -0.1)">
      <defs>
       <path id="DejaVuSans-72" d="M 2631 2963 
Q 2534 3019 2420 3045 
Q 2306 3072 2169 3072 
Q 1681 3072 1420 2755 
Q 1159 2438 1159 1844 
L 1159 0 
L 581 0 
L 581 3500 
L 1159 3500 
L 1159 2956 
Q 1341 3275 1631 3429 
Q 1922 3584 2338 3584 
Q 2397 3584 2469 3576 
Q 2541 3569 2628 3553 
L 2631 2963 
z
" transform="scale(0.015625)"/>
       <path id="DejaVuSans-75" d="M 544 1381 
L 544 3500 
L 1119 3500 
L 1119 1403 
Q 1119 906 1312 657 
Q 1506 409 1894 409 
Q 2359 409 2629 706 
Q 2900 1003 2900 1516 
L 2900 3500 
L 3475 3500 
L 3475 0 
L 2900 0 
L 2900 538 
Q 2691 219 2414 64 
Q 2138 -91 1772 -91 
Q 1169 -91 856 284 
Q 544 659 544 1381 
z
M 1991 3584 
L 1991 3584 
z
" transform="scale(0.015625)"/>
       <path id="DejaVuSans-6e" d="M 3513 2113 
L 3513 0 
L 2938 0 
L 2938 2094 
Q 2938 2591 2744 2837 
Q 2550 3084 2163 3084 
Q 1697 3084 1428 2787 
Q 1159 2491 1159 1978 
L 1159 0 
L 581 0 
L 581 3500 
L 1159 3500 
L 1159 2956 
Q 1366 3272 1645 3428 
Q 1925 3584 2291 3584 
Q 2894 3584 3203 3211 
Q 3513 2838 3513 2113 
z
" transform="scale(0.015625)"/>
      </defs>
      <use xlink:href="#DejaVuSans-72"/>
      <use xlink:href="#DejaVuSans-75" x="41.113281"/>
      <use xlink:href="#DejaVuSans-6e" x="104.492188"/>
      <use xlink:href="#DejaVuSans-73" x="167.871094"/>
     </g>
    </g>
   </g>
   <g id="line2d_9">
    <defs>
     <path id="ma36566ec8a" d="M 0 1 
C 0.265203 1 0.51958 0.894634 0.707107 0.707107 
C 0.894634 0.51958 1 0.265203 1 0 
C 1 -0.265203 0.894634 -0.51958 0.707107 -0.707107 
C 0.51958 -0.894634 0.265203 -1 0 -1 
C -0.265203 -1 -0.51958 -0.894634 -0.707107 -0.707107 
C -0.894634 -0.51958 -1 -0.265203 -1 0 
C -1 0.265203 -0.894634 0.51958 -0.707107 0.707107 
C -0.51958 0.894634 -0.265203 1 0 1 
z
" style="stroke: #1f77b4"/>
    </defs>
    <g clip-path="url(#p48722e7519)">
     <use xlink:href="#ma36566ec8a" x="422.451235" y="453.290625" style="fill: #1f77b4; stroke: #1f77b4"/>
     <use xlink:href="#ma36566ec8a" x="252.612766" y="407.930625" style="fill: #1f77b4; stroke: #1f77b4"/>
     <use xlink:href="#ma36566ec8a" x="592.945302" y="362.571099" style="fill: #1f77b4; stroke: #1f77b4"/>
     <use xlink:href="#ma36566ec8a" x="53.850852" y="317.210862" style="fill: #1f77b4; stroke: #1f77b4"/>
     <use xlink:href="#ma36566ec8a" x="241.679704" y="271.850625" style="fill: #1f77b4; stroke: #1f77b4"/>
     <use xlink:href="#ma36566ec8a" x="245.941092" y="226.490388" style="fill: #1f77b4; stroke: #1f77b4"/>
     <use xlink:href="#ma36566ec8a" x="213.720374" y="181.130151" style="fill: #1f77b4; stroke: #1f77b4"/>
     <use xlink:href="#ma36566ec8a" x="468.979417" y="135.769914" style="fill: #1f77b4; stroke: #1f77b4"/>
     <use xlink:href="#ma36566ec8a" x="713.305398" y="90.410862" style="fill: #1f77b4; stroke: #1f77b4"/>
     <use xlink:href="#ma36566ec8a" x="375.865206" y="45.050625" style="fill: #1f77b4; stroke: #1f77b4"/>
    </g>
   </g>
   <g id="line2d_10">
    <path d="M 357.778412 521.330625 
L 357.778412 22.370625 
" clip-path="url(#p48722e7519)" style="fill: none; stroke: #1f77b4; stroke-width: 1.5; stroke-linecap: square"/>
   </g>
   <g id="patch_3">
    <path d="M 20.878125 521.330625 
L 20.878125 22.370625 
" style="fill: none; stroke: #000000; stroke-width: 0.8; stroke-linejoin: miter; stroke-linecap: square"/>
   </g>
   <g id="patch_4">
    <path d="M 746.278125 521.330625 
L 746.278125 22.370625 
" style="fill: none; stroke: #000000; stroke-width: 0.8; stroke-linejoin: miter; stroke-linecap: square"/>
   </g>
   <g id="patch_5">
    <path d="M 20.878125 521.330625 
L 746.278125 521.330625 
" style="fill: none; stroke: #000000; stroke-width: 0.8; stroke-linejoin: miter; stroke-linecap: square"/>
   </g>
   <g id="patch_6">
    <path d="M 20.878125 22.370625 
L 746.278125 22.370625 
" style="fill: none; stroke: #000000; stroke-width: 0.8; stroke-linejoin: miter; stroke-linecap: square"/>
   </g>
   <g id="text_11">
    <!-- echo 4100 | python3 quicksort.py -->
    <g transform="translate(282.45375 16.370625) scale(0.12 -0.12)">
     <defs>
      <path id="DejaVuSans-65" d="M 3597 1894 
L 3597 1613 
L 953 1613 
Q 991 1019 1311 708 
Q 1631 397 2203 397 
Q 2534 397 2845 478 
Q 3156 559 3463 722 
L 3463 178 
Q 3153 47 2828 -22 
Q 2503 -91 2169 -91 
Q 1331 -91 842 396 
Q 353 884 353 1716 
Q 353 2575 817 3079 
Q 1281 3584 2069 3584 
Q 2775 3584 3186 3129 
Q 3597 2675 3597 1894 
z
M 3022 2063 
Q 3016 2534 2758 2815 
Q 2500 3097 2075 3097 
Q 1594 3097 1305 2825 
Q 1016 2553 972 2059 
L 3022 2063 
z
" transform="scale(0.015625)"/>
      <path id="DejaVuSans-63" d="M 3122 3366 
L 3122 2828 
Q 2878 2963 2633 3030 
Q 2388 3097 2138 3097 
Q 1578 3097 1268 2742 
Q 959 2388 959 1747 
Q 959 1106 1268 751 
Q 1578 397 2138 397 
Q 2388 397 2633 464 
Q 2878 531 3122 666 
L 3122 134 
Q 2881 22 2623 -34 
Q 2366 -91 2075 -91 
Q 1284 -91 818 406 
Q 353 903 353 1747 
Q 353 2603 823 3093 
Q 1294 3584 2113 3584 
Q 2378 3584 2631 3529 
Q 2884 3475 3122 3366 
z
" transform="scale(0.015625)"/>
      <path id="DejaVuSans-68" d="M 3513 2113 
L 3513 0 
L 2938 0 
L 2938 2094 
Q 2938 2591 2744 2837 
Q 2550 3084 2163 3084 
Q 1697 3084 1428 2787 
Q 1159 2491 1159 1978 
L 1159 0 
L 581 0 
L 581 4863 
L 1159 4863 
L 1159 2956 
Q 1366 3272 1645 3428 
Q 1925 3584 2291 3584 
Q 2894 3584 3203 3211 
Q 3513 2838 3513 2113 
z
" transform="scale(0.015625)"/>
      <path id="DejaVuSans-6f" d="M 1959 3097 
Q 1497 3097 1228 2736 
Q 959 2375 959 1747 
Q 959 1119 1226 758 
Q 1494 397 1959 397 
Q 2419 397 2687 759 
Q 2956 1122 2956 1747 
Q 2956 2369 2687 2733 
Q 2419 3097 1959 3097 
z
M 1959 3584 
Q 2709 3584 3137 3096 
Q 3566 2609 3566 1747 
Q 3566 888 3137 398 
Q 2709 -91 1959 -91 
Q 1206 -91 779 398 
Q 353 888 353 1747 
Q 353 2609 779 3096 
Q 1206 3584 1959 3584 
z
" transform="scale(0.015625)"/>
      <path id="DejaVuSans-31" d="M 794 531 
L 1825 531 
L 1825 4091 
L 703 3866 
L 703 4441 
L 1819 4666 
L 2450 4666 
L 2450 531 
L 3481 531 
L 3481 0 
L 794 0 
L 794 531 
z
" transform="scale(0.015625)"/>
      <path id="DejaVuSans-7c" d="M 1344 4891 
L 1344 -1509 
L 813 -1509 
L 813 4891 
L 1344 4891 
z
" transform="scale(0.015625)"/>
      <path id="DejaVuSans-70" d="M 1159 525 
L 1159 -1331 
L 581 -1331 
L 581 3500 
L 1159 3500 
L 1159 2969 
Q 1341 3281 1617 3432 
Q 1894 3584 2278 3584 
Q 2916 3584 3314 3078 
Q 3713 2572 3713 1747 
Q 3713 922 3314 415 
Q 2916 -91 2278 -91 
Q 1894 -91 1617 61 
Q 1341 213 1159 525 
z
M 3116 1747 
Q 3116 2381 2855 2742 
Q 2594 3103 2138 3103 
Q 1681 3103 1420 2742 
Q 1159 2381 1159 1747 
Q 1159 1113 1420 752 
Q 1681 391 2138 391 
Q 2594 391 2855 752 
Q 3116 1113 3116 1747 
z
" transform="scale(0.015625)"/>
      <path id="DejaVuSans-79" d="M 2059 -325 
Q 1816 -950 1584 -1140 
Q 1353 -1331 966 -1331 
L 506 -1331 
L 506 -850 
L 844 -850 
Q 1081 -850 1212 -737 
Q 1344 -625 1503 -206 
L 1606 56 
L 191 3500 
L 800 3500 
L 1894 763 
L 2988 3500 
L 3597 3500 
L 2059 -325 
z
" transform="scale(0.015625)"/>
      <path id="DejaVuSans-33" d="M 2597 2516 
Q 3050 2419 3304 2112 
Q 3559 1806 3559 1356 
Q 3559 666 3084 287 
Q 2609 -91 1734 -91 
Q 1441 -91 1130 -33 
Q 819 25 488 141 
L 488 750 
Q 750 597 1062 519 
Q 1375 441 1716 441 
Q 2309 441 2620 675 
Q 2931 909 2931 1356 
Q 2931 1769 2642 2001 
Q 2353 2234 1838 2234 
L 1294 2234 
L 1294 2753 
L 1863 2753 
Q 2328 2753 2575 2939 
Q 2822 3125 2822 3475 
Q 2822 3834 2567 4026 
Q 2313 4219 1838 4219 
Q 1578 4219 1281 4162 
Q 984 4106 628 3988 
L 628 4550 
Q 988 4650 1302 4700 
Q 1616 4750 1894 4750 
Q 2613 4750 3031 4423 
Q 3450 4097 3450 3541 
Q 3450 3153 3228 2886 
Q 3006 2619 2597 2516 
z
" transform="scale(0.015625)"/>
      <path id="DejaVuSans-71" d="M 947 1747 
Q 947 1113 1208 752 
Q 1469 391 1925 391 
Q 2381 391 2643 752 
Q 2906 1113 2906 1747 
Q 2906 2381 2643 2742 
Q 2381 3103 1925 3103 
Q 1469 3103 1208 2742 
Q 947 2381 947 1747 
z
M 2906 525 
Q 2725 213 2448 61 
Q 2172 -91 1784 -91 
Q 1150 -91 751 415 
Q 353 922 353 1747 
Q 353 2572 751 3078 
Q 1150 3584 1784 3584 
Q 2172 3584 2448 3432 
Q 2725 3281 2906 2969 
L 2906 3500 
L 3481 3500 
L 3481 -1331 
L 2906 -1331 
L 2906 525 
z
" transform="scale(0.015625)"/>
      <path id="DejaVuSans-69" d="M 603 3500 
L 1178 3500 
L 1178 0 
L 603 0 
L 603 3500 
z
M 603 4863 
L 1178 4863 
L 1178 4134 
L 603 4134 
L 603 4863 
z
" transform="scale(0.015625)"/>
      <path id="DejaVuSans-6b" d="M 581 4863 
L 1159 4863 
L 1159 1991 
L 2875 3500 
L 3609 3500 
L 1753 1863 
L 3688 0 
L 2938 0 
L 1159 1709 
L 1159 0 
L 581 0 
L 581 4863 
z
" transform="scale(0.015625)"/>
     </defs>
     <use xlink:href="#DejaVuSans-65"/>
     <use xlink:href="#DejaVuSans-63" x="61.523438"/>
     <use xlink:href="#DejaVuSans-68" x="116.503906"/>
     <use xlink:href="#DejaVuSans-6f" x="179.882812"/>
     <use xlink:href="#DejaVuSans-20" x="241.064453"/>
     <use xlink:href="#DejaVuSans-34" x="272.851562"/>
     <use xlink:href="#DejaVuSans-31" x="336.474609"/>
     <use xlink:href="#DejaVuSans-30" x="400.097656"/>
     <use xlink:href="#DejaVuSans-30" x="463.720703"/>
     <use xlink:href="#DejaVuSans-20" x="527.34375"/>
     <use xlink:href="#DejaVuSans-7c" x="559.130859"/>
     <use xlink:href="#DejaVuSans-20" x="592.822266"/>
     <use xlink:href="#DejaVuSans-70" x="624.609375"/>
     <use xlink:href="#DejaVuSans-79" x="688.085938"/>
     <use xlink:href="#DejaVuSans-74" x="747.265625"/>
     <use xlink:href="#DejaVuSans-68" x="786.474609"/>
     <use xlink:href="#DejaVuSans-6f" x="849.853516"/>
     <use xlink:href="#DejaVuSans-6e" x="911.035156"/>
     <use xlink:href="#DejaVuSans-33" x="974.414062"/>
     <use xlink:href="#DejaVuSans-20" x="1038.037109"/>
     <use xlink:href="#DejaVuSans-71" x="1069.824219"/>
     <use xlink:href="#DejaVuSans-75" x="1133.300781"/>
     <use xlink:href="#DejaVuSans-69" x="1196.679688"/>
     <use xlink:href="#DejaVuSans-63" x="1224.462891"/>
     <use xlink:href="#DejaVuSans-6b" x="1279.443359"/>
     <use xlink:href="#DejaVuSans-73" x="1337.353516"/>
     <use xlink:href="#DejaVuSans-6f" x="1389.453125"/>
     <use xlink:href="#DejaVuSans-72" x="1450.634766"/>
     <use xlink:href="#DejaVuSans-74" x="1491.748047"/>
     <use xlink:href="#DejaVuSans-2e" x="1530.957031"/>
     <use xlink:href="#DejaVuSans-70" x="1562.744141"/>
     <use xlink:href="#DejaVuSans-79" x="1626.220703"/>
    </g>
   </g>
  </g>
 </g>
 <defs>
  <clipPath id="p48722e7519">
   <rect x="20.878125" y="22.370625" width="725.4" height="498.96"/>
  </clipPath>
 </defs>
</svg>
