<?xml version="1.0" encoding="utf-8" standalone="no"?>
<!DOCTYPE svg PUBLIC "-//W3C//DTD SVG 1.1//EN"
  "http://www.w3.org/Graphics/SVG/1.1/DTD/svg11.dtd">
<svg xmlns:xlink="http://www.w3.org/1999/xlink" width="460.8pt" height="345.6pt" viewBox="0 0 460.8 345.6" xmlns="http://www.w3.org/2000/svg" version="1.1">
 <metadata>
  <rdf:RDF xmlns:dc="http://purl.org/dc/elements/1.1/" xmlns:cc="http://creativecommons.org/ns#" xmlns:rdf="http://www.w3.org/1999/02/22-rdf-syntax-ns#">
   <cc:Work>
    <dc:type rdf:resource="http://purl.org/dc/dcmitype/StillImage"/>
    <dc:date>2024-01-14T13:49:56.157868</dc:date>
    <dc:format>image/svg+xml</dc:format>
    <dc:creator>
     <cc:Agent>
      <dc:title>Matplotlib v3.7.0, https://matplotlib.org/</dc:title>
     </cc:Agent>
    </dc:creator>
   </cc:Work>
  </rdf:RDF>
 </metadata>
 <defs>
  <style type="text/css">*{stroke-linejoin: round; stroke-linecap: butt}</style>
 </defs>
 <g id="figure_1">
  <g id="patch_1">
   <path d="M 0 345.6 
L 460.8 345.6 
L 460.8 0 
L 0 0 
z
" style="fill: #ffffff"/>
  </g>
  <g id="axes_1">
   <g id="patch_2">
    <path d="M 57.6 307.584 
L 414.72 307.584 
L 414.72 41.472 
L 57.6 41.472 
z
" style="fill: #ffffff"/>
   </g>
   <g id="PolyCollection_1">
    <path d="M 73.832727 93.799528 
L 73.832727 93.799528 
L 75.475508 91.346763 
L 77.118289 88.96983 
L 78.726845 86.671424 
L 80.369626 84.450302 
L 82.012406 82.309986 
L 83.620963 80.250475 
L 85.263743 78.273842 
L 86.906524 76.378014 
L 88.51508 74.565065 
L 90.157861 72.837065 
L 91.800642 71.189871 
L 93.409198 69.625554 
L 95.051979 68.144115 
L 96.694759 66.74141 
L 98.303316 65.421583 
L 99.946096 64.182561 
L 101.588877 63.020201 
L 103.197433 61.934504 
L 104.840214 60.925468 
L 106.482995 59.991022 
L 108.091551 59.129094 
L 109.734332 58.337612 
L 111.377112 57.616576 
L 112.985668 56.961842 
L 114.628449 56.371338 
L 116.27123 55.845065 
L 117.879786 55.376806 
L 119.522567 54.970705 
L 121.165348 54.618475 
L 122.773904 54.322187 
L 124.416684 54.077698 
L 126.059465 53.885007 
L 127.668021 53.737899 
L 129.310802 53.638446 
L 130.953583 53.582504 
L 132.562139 53.568 
L 134.20492 53.594935 
L 135.847701 53.661237 
L 137.456257 53.762763 
L 139.099037 53.899511 
L 140.741818 54.071482 
L 142.350374 54.274532 
L 143.993155 54.508662 
L 145.635936 54.773871 
L 147.244492 55.068086 
L 148.887273 55.391309 
L 150.530053 55.741468 
L 152.13861 56.118561 
L 153.78139 56.52259 
L 155.424171 56.951482 
L 157.032727 57.407309 
L 158.675508 57.888 
L 160.318289 58.393554 
L 161.926845 58.926043 
L 163.569626 59.483396 
L 165.212406 60.067683 
L 166.820963 60.676835 
L 168.463743 61.314993 
L 170.106524 61.978014 
L 171.71508 62.670043 
L 173.357861 63.391079 
L 175.000642 64.141122 
L 176.609198 64.920173 
L 178.251979 65.72823 
L 179.894759 66.569439 
L 181.503316 67.441727 
L 183.146096 68.347165 
L 184.788877 69.285755 
L 186.397433 70.255424 
L 188.040214 71.262388 
L 189.682995 72.302504 
L 191.291551 73.379914 
L 192.934332 74.492547 
L 194.577112 75.640403 
L 196.185668 76.825554 
L 197.828449 78.045928 
L 199.47123 79.305669 
L 201.079786 80.600633 
L 202.722567 81.932892 
L 204.365348 83.300374 
L 205.973904 84.707223 
L 207.616684 86.147223 
L 209.259465 87.624518 
L 210.868021 89.136 
L 212.510802 90.681876 
L 214.153583 92.261111 
L 215.762139 93.872668 
L 217.40492 95.515718 
L 219.047701 97.189019 
L 220.656257 98.891119 
L 222.299037 100.620984 
L 223.941818 102.376955 
L 225.550374 104.15779 
L 227.193155 105.961416 
L 228.835936 107.786383 
L 230.444492 109.630826 
L 232.087273 111.492881 
L 233.730053 113.370889 
L 235.33861 115.262573 
L 236.98139 117.166273 
L 238.624171 119.079505 
L 240.232727 121.00061 
L 241.875508 122.927102 
L 243.518289 124.857324 
L 245.126845 126.788788 
L 246.769626 128.719424 
L 248.412406 130.647367 
L 250.020963 132.570337 
L 251.663743 134.486262 
L 253.306524 136.393071 
L 254.91508 138.288898 
L 256.557861 140.171672 
L 258.200642 142.039528 
L 259.809198 143.890601 
L 261.451979 145.723027 
L 263.094759 147.535355 
L 264.703316 149.325721 
L 266.346096 151.092466 
L 267.988877 152.834348 
L 269.597433 154.549917 
L 271.240214 156.237928 
L 272.882995 157.896932 
L 274.491551 159.525894 
L 276.134332 161.123983 
L 277.742888 162.689957 
L 279.385668 164.223194 
L 281.028449 165.723073 
L 282.637005 167.188973 
L 284.279786 168.620063 
L 285.922567 170.016345 
L 287.531123 171.377197 
L 289.173904 172.702412 
L 290.816684 173.992196 
L 292.425241 175.246135 
L 294.068021 176.464645 
L 295.710802 177.647724 
L 297.319358 178.79558 
L 298.962139 179.908835 
L 300.60492 180.987488 
L 302.213476 182.032368 
L 303.856257 183.044098 
L 305.499037 184.023298 
L 307.107594 184.97059 
L 308.750374 185.886803 
L 310.393155 186.772765 
L 312.001711 187.629721 
L 313.644492 188.458291 
L 315.287273 189.259718 
L 316.895829 190.034832 
L 318.53861 190.785082 
L 320.18139 191.511505 
L 321.789947 192.215344 
L 323.432727 192.897635 
L 325.075508 193.559827 
L 326.684064 194.203165 
L 328.326845 194.828892 
L 329.969626 195.43825 
L 331.578182 196.032898 
L 333.220963 196.613871 
L 334.863743 197.182619 
L 336.472299 197.740593 
L 338.11508 198.289036 
L 339.757861 198.829191 
L 341.366417 199.362302 
L 343.009198 199.890233 
L 344.651979 200.413606 
L 346.260535 200.934285 
L 347.903316 201.453306 
L 349.546096 201.971706 
L 351.154652 202.491142 
L 352.797433 203.012443 
L 354.440214 203.537059 
L 356.04877 204.066026 
L 357.691551 204.60038 
L 359.334332 205.141364 
L 360.942888 205.690014 
L 362.585668 206.246953 
L 364.228449 206.813629 
L 365.837005 207.390665 
L 367.479786 207.978889 
L 369.122567 208.579545 
L 370.731123 209.19284 
L 372.373904 209.81981 
L 374.016684 210.461283 
L 375.625241 211.117468 
L 377.268021 211.789191 
L 378.910802 212.477076 
L 380.519358 213.181329 
L 382.162139 213.902573 
L 383.80492 214.641013 
L 385.413476 215.396858 
L 387.056257 216.170728 
L 388.699037 216.962417 
L 390.307594 217.772132 
L 391.950374 218.600081 
L 393.593155 219.446262 
L 395.201711 220.310469 
L 396.844492 221.192702 
L 398.487273 222.092754 
L 398.487273 222.092754 
L 398.487273 295.488 
L 396.844492 295.488 
L 395.201711 295.488 
L 393.593155 295.488 
L 391.950374 295.488 
L 390.307594 295.488 
L 388.699037 295.488 
L 387.056257 295.488 
L 385.413476 295.488 
L 383.80492 295.488 
L 382.162139 295.488 
L 380.519358 295.488 
L 378.910802 295.488 
L 377.268021 295.488 
L 375.625241 295.488 
L 374.016684 295.488 
L 372.373904 295.488 
L 370.731123 295.488 
L 369.122567 295.488 
L 367.479786 295.488 
L 365.837005 295.488 
L 364.228449 295.488 
L 362.585668 295.488 
L 360.942888 295.488 
L 359.334332 295.488 
L 357.691551 295.488 
L 356.04877 295.488 
L 354.440214 295.488 
L 352.797433 295.488 
L 351.154652 295.488 
L 349.546096 295.488 
L 347.903316 295.488 
L 346.260535 295.488 
L 344.651979 295.488 
L 343.009198 295.488 
L 341.366417 295.488 
L 339.757861 295.488 
L 338.11508 295.488 
L 336.472299 295.488 
L 334.863743 295.488 
L 333.220963 295.488 
L 331.578182 295.488 
L 329.969626 295.488 
L 328.326845 295.488 
L 326.684064 295.488 
L 325.075508 295.488 
L 323.432727 295.488 
L 321.789947 295.488 
L 320.18139 295.488 
L 318.53861 295.488 
L 316.895829 295.488 
L 315.287273 295.488 
L 313.644492 295.488 
L 312.001711 295.488 
L 310.393155 295.488 
L 308.750374 295.488 
L 307.107594 295.488 
L 305.499037 295.488 
L 303.856257 295.488 
L 302.213476 295.488 
L 300.60492 295.488 
L 298.962139 295.488 
L 297.319358 295.488 
L 295.710802 295.488 
L 294.068021 295.488 
L 292.425241 295.488 
L 290.816684 295.488 
L 289.173904 295.488 
L 287.531123 295.488 
L 285.922567 295.488 
L 284.279786 295.488 
L 282.637005 295.488 
L 281.028449 295.488 
L 279.385668 295.488 
L 277.742888 295.488 
L 276.134332 295.488 
L 274.491551 295.488 
L 272.882995 295.488 
L 271.240214 295.488 
L 269.597433 295.488 
L 267.988877 295.488 
L 266.346096 295.488 
L 264.703316 295.488 
L 263.094759 295.488 
L 261.451979 295.488 
L 259.809198 295.488 
L 258.200642 295.488 
L 256.557861 295.488 
L 254.91508 295.488 
L 253.306524 295.488 
L 251.663743 295.488 
L 250.020963 295.488 
L 248.412406 295.488 
L 246.769626 295.488 
L 245.126845 295.488 
L 243.518289 295.488 
L 241.875508 295.488 
L 240.232727 295.488 
L 238.624171 295.488 
L 236.98139 295.488 
L 235.33861 295.488 
L 233.730053 295.488 
L 232.087273 295.488 
L 230.444492 295.488 
L 228.835936 295.488 
L 227.193155 295.488 
L 225.550374 295.488 
L 223.941818 295.488 
L 222.299037 295.488 
L 220.656257 295.488 
L 219.047701 295.488 
L 217.40492 295.488 
L 215.762139 295.488 
L 214.153583 295.488 
L 212.510802 295.488 
L 210.868021 295.488 
L 209.259465 295.488 
L 207.616684 295.488 
L 205.973904 295.488 
L 204.365348 295.488 
L 202.722567 295.488 
L 201.079786 295.488 
L 199.47123 295.488 
L 197.828449 295.488 
L 196.185668 295.488 
L 194.577112 295.488 
L 192.934332 295.488 
L 191.291551 295.488 
L 189.682995 295.488 
L 188.040214 295.488 
L 186.397433 295.488 
L 184.788877 295.488 
L 183.146096 295.488 
L 181.503316 295.488 
L 179.894759 295.488 
L 178.251979 295.488 
L 176.609198 295.488 
L 175.000642 295.488 
L 173.357861 295.488 
L 171.71508 295.488 
L 170.106524 295.488 
L 168.463743 295.488 
L 166.820963 295.488 
L 165.212406 295.488 
L 163.569626 295.488 
L 161.926845 295.488 
L 160.318289 295.488 
L 158.675508 295.488 
L 157.032727 295.488 
L 155.424171 295.488 
L 153.78139 295.488 
L 152.13861 295.488 
L 150.530053 295.488 
L 148.887273 295.488 
L 147.244492 295.488 
L 145.635936 295.488 
L 143.993155 295.488 
L 142.350374 295.488 
L 140.741818 295.488 
L 139.099037 295.488 
L 137.456257 295.488 
L 135.847701 295.488 
L 134.20492 295.488 
L 132.562139 295.488 
L 130.953583 295.488 
L 129.310802 295.488 
L 127.668021 295.488 
L 126.059465 295.488 
L 124.416684 295.488 
L 122.773904 295.488 
L 121.165348 295.488 
L 119.522567 295.488 
L 117.879786 295.488 
L 116.27123 295.488 
L 114.628449 295.488 
L 112.985668 295.488 
L 111.377112 295.488 
L 109.734332 295.488 
L 108.091551 295.488 
L 106.482995 295.488 
L 104.840214 295.488 
L 103.197433 295.488 
L 101.588877 295.488 
L 99.946096 295.488 
L 98.303316 295.488 
L 96.694759 295.488 
L 95.051979 295.488 
L 93.409198 295.488 
L 91.800642 295.488 
L 90.157861 295.488 
L 88.51508 295.488 
L 86.906524 295.488 
L 85.263743 295.488 
L 83.620963 295.488 
L 82.012406 295.488 
L 80.369626 295.488 
L 78.726845 295.488 
L 77.118289 295.488 
L 75.475508 295.488 
L 73.832727 295.488 
z
" clip-path="url(#p0a5a6f00c8)" style="fill: #1f77b4; fill-opacity: 0.25"/>
   </g>
   <g id="matplotlib.axis_1">
    <g id="xtick_1">
     <g id="line2d_1">
      <defs>
       <path id="mbe87d5f561" d="M 0 0 
L 0 3.5 
" style="stroke: #000000; stroke-width: 0.8"/>
      </defs>
      <g>
       <use xlink:href="#mbe87d5f561" x="79.650909" y="307.584" style="stroke: #000000; stroke-width: 0.8"/>
      </g>
     </g>
     <g id="text_1">
      <!-- 0.0114 -->
      <g transform="translate(62.155597 322.182437) scale(0.1 -0.1)">
       <defs>
        <path id="DejaVuSans-30" d="M 2034 4250 
Q 1547 4250 1301 3770 
Q 1056 3291 1056 2328 
Q 1056 1369 1301 889 
Q 1547 409 2034 409 
Q 2525 409 2770 889 
Q 3016 1369 3016 2328 
Q 3016 3291 2770 3770 
Q 2525 4250 2034 4250 
z
M 2034 4750 
Q 2819 4750 3233 4129 
Q 3647 3509 3647 2328 
Q 3647 1150 3233 529 
Q 2819 -91 2034 -91 
Q 1250 -91 836 529 
Q 422 1150 422 2328 
Q 422 3509 836 4129 
Q 1250 4750 2034 4750 
z
" transform="scale(0.015625)"/>
        <path id="DejaVuSans-2e" d="M 684 794 
L 1344 794 
L 1344 0 
L 684 0 
L 684 794 
z
" transform="scale(0.015625)"/>
        <path id="DejaVuSans-31" d="M 794 531 
L 1825 531 
L 1825 4091 
L 703 3866 
L 703 4441 
L 1819 4666 
L 2450 4666 
L 2450 531 
L 3481 531 
L 3481 0 
L 794 0 
L 794 531 
z
" transform="scale(0.015625)"/>
        <path id="DejaVuSans-34" d="M 2419 4116 
L 825 1625 
L 2419 1625 
L 2419 4116 
z
M 2253 4666 
L 3047 4666 
L 3047 1625 
L 3713 1625 
L 3713 1100 
L 3047 1100 
L 3047 0 
L 2419 0 
L 2419 1100 
L 313 1100 
L 313 1709 
L 2253 4666 
z
" transform="scale(0.015625)"/>
       </defs>
       <use xlink:href="#DejaVuSans-30"/>
       <use xlink:href="#DejaVuSans-2e" x="63.623047"/>
       <use xlink:href="#DejaVuSans-30" x="95.410156"/>
       <use xlink:href="#DejaVuSans-31" x="159.033203"/>
       <use xlink:href="#DejaVuSans-31" x="222.65625"/>
       <use xlink:href="#DejaVuSans-34" x="286.279297"/>
      </g>
     </g>
    </g>
    <g id="xtick_2">
     <g id="line2d_2">
      <g>
       <use xlink:href="#mbe87d5f561" x="148.100107" y="307.584" style="stroke: #000000; stroke-width: 0.8"/>
      </g>
     </g>
     <g id="text_2">
      <!-- 0.0116 -->
      <g transform="translate(130.604794 322.182437) scale(0.1 -0.1)">
       <defs>
        <path id="DejaVuSans-36" d="M 2113 2584 
Q 1688 2584 1439 2293 
Q 1191 2003 1191 1497 
Q 1191 994 1439 701 
Q 1688 409 2113 409 
Q 2538 409 2786 701 
Q 3034 994 3034 1497 
Q 3034 2003 2786 2293 
Q 2538 2584 2113 2584 
z
M 3366 4563 
L 3366 3988 
Q 3128 4100 2886 4159 
Q 2644 4219 2406 4219 
Q 1781 4219 1451 3797 
Q 1122 3375 1075 2522 
Q 1259 2794 1537 2939 
Q 1816 3084 2150 3084 
Q 2853 3084 3261 2657 
Q 3669 2231 3669 1497 
Q 3669 778 3244 343 
Q 2819 -91 2113 -91 
Q 1303 -91 875 529 
Q 447 1150 447 2328 
Q 447 3434 972 4092 
Q 1497 4750 2381 4750 
Q 2619 4750 2861 4703 
Q 3103 4656 3366 4563 
z
" transform="scale(0.015625)"/>
       </defs>
       <use xlink:href="#DejaVuSans-30"/>
       <use xlink:href="#DejaVuSans-2e" x="63.623047"/>
       <use xlink:href="#DejaVuSans-30" x="95.410156"/>
       <use xlink:href="#DejaVuSans-31" x="159.033203"/>
       <use xlink:href="#DejaVuSans-31" x="222.65625"/>
       <use xlink:href="#DejaVuSans-36" x="286.279297"/>
      </g>
     </g>
    </g>
    <g id="xtick_3">
     <g id="line2d_3">
      <g>
       <use xlink:href="#mbe87d5f561" x="216.549305" y="307.584" style="stroke: #000000; stroke-width: 0.8"/>
      </g>
     </g>
     <g id="text_3">
      <!-- 0.0118 -->
      <g transform="translate(199.053992 322.182437) scale(0.1 -0.1)">
       <defs>
        <path id="DejaVuSans-38" d="M 2034 2216 
Q 1584 2216 1326 1975 
Q 1069 1734 1069 1313 
Q 1069 891 1326 650 
Q 1584 409 2034 409 
Q 2484 409 2743 651 
Q 3003 894 3003 1313 
Q 3003 1734 2745 1975 
Q 2488 2216 2034 2216 
z
M 1403 2484 
Q 997 2584 770 2862 
Q 544 3141 544 3541 
Q 544 4100 942 4425 
Q 1341 4750 2034 4750 
Q 2731 4750 3128 4425 
Q 3525 4100 3525 3541 
Q 3525 3141 3298 2862 
Q 3072 2584 2669 2484 
Q 3125 2378 3379 2068 
Q 3634 1759 3634 1313 
Q 3634 634 3220 271 
Q 2806 -91 2034 -91 
Q 1263 -91 848 271 
Q 434 634 434 1313 
Q 434 1759 690 2068 
Q 947 2378 1403 2484 
z
M 1172 3481 
Q 1172 3119 1398 2916 
Q 1625 2713 2034 2713 
Q 2441 2713 2670 2916 
Q 2900 3119 2900 3481 
Q 2900 3844 2670 4047 
Q 2441 4250 2034 4250 
Q 1625 4250 1398 4047 
Q 1172 3844 1172 3481 
z
" transform="scale(0.015625)"/>
       </defs>
       <use xlink:href="#DejaVuSans-30"/>
       <use xlink:href="#DejaVuSans-2e" x="63.623047"/>
       <use xlink:href="#DejaVuSans-30" x="95.410156"/>
       <use xlink:href="#DejaVuSans-31" x="159.033203"/>
       <use xlink:href="#DejaVuSans-31" x="222.65625"/>
       <use xlink:href="#DejaVuSans-38" x="286.279297"/>
      </g>
     </g>
    </g>
    <g id="xtick_4">
     <g id="line2d_4">
      <g>
       <use xlink:href="#mbe87d5f561" x="284.998503" y="307.584" style="stroke: #000000; stroke-width: 0.8"/>
      </g>
     </g>
     <g id="text_4">
      <!-- 0.0120 -->
      <g transform="translate(267.50319 322.182437) scale(0.1 -0.1)">
       <defs>
        <path id="DejaVuSans-32" d="M 1228 531 
L 3431 531 
L 3431 0 
L 469 0 
L 469 531 
Q 828 903 1448 1529 
Q 2069 2156 2228 2338 
Q 2531 2678 2651 2914 
Q 2772 3150 2772 3378 
Q 2772 3750 2511 3984 
Q 2250 4219 1831 4219 
Q 1534 4219 1204 4116 
Q 875 4013 500 3803 
L 500 4441 
Q 881 4594 1212 4672 
Q 1544 4750 1819 4750 
Q 2544 4750 2975 4387 
Q 3406 4025 3406 3419 
Q 3406 3131 3298 2873 
Q 3191 2616 2906 2266 
Q 2828 2175 2409 1742 
Q 1991 1309 1228 531 
z
" transform="scale(0.015625)"/>
       </defs>
       <use xlink:href="#DejaVuSans-30"/>
       <use xlink:href="#DejaVuSans-2e" x="63.623047"/>
       <use xlink:href="#DejaVuSans-30" x="95.410156"/>
       <use xlink:href="#DejaVuSans-31" x="159.033203"/>
       <use xlink:href="#DejaVuSans-32" x="222.65625"/>
       <use xlink:href="#DejaVuSans-30" x="286.279297"/>
      </g>
     </g>
    </g>
    <g id="xtick_5">
     <g id="line2d_5">
      <g>
       <use xlink:href="#mbe87d5f561" x="353.447701" y="307.584" style="stroke: #000000; stroke-width: 0.8"/>
      </g>
     </g>
     <g id="text_5">
      <!-- 0.0122 -->
      <g transform="translate(335.952388 322.182437) scale(0.1 -0.1)">
       <use xlink:href="#DejaVuSans-30"/>
       <use xlink:href="#DejaVuSans-2e" x="63.623047"/>
       <use xlink:href="#DejaVuSans-30" x="95.410156"/>
       <use xlink:href="#DejaVuSans-31" x="159.033203"/>
       <use xlink:href="#DejaVuSans-32" x="222.65625"/>
       <use xlink:href="#DejaVuSans-32" x="286.279297"/>
      </g>
     </g>
    </g>
    <g id="text_6">
     <!-- t [s] -->
     <g transform="translate(226.104531 335.860562) scale(0.1 -0.1)">
      <defs>
       <path id="DejaVuSans-74" d="M 1172 4494 
L 1172 3500 
L 2356 3500 
L 2356 3053 
L 1172 3053 
L 1172 1153 
Q 1172 725 1289 603 
Q 1406 481 1766 481 
L 2356 481 
L 2356 0 
L 1766 0 
Q 1100 0 847 248 
Q 594 497 594 1153 
L 594 3053 
L 172 3053 
L 172 3500 
L 594 3500 
L 594 4494 
L 1172 4494 
z
" transform="scale(0.015625)"/>
       <path id="DejaVuSans-20" transform="scale(0.015625)"/>
       <path id="DejaVuSans-5b" d="M 550 4863 
L 1875 4863 
L 1875 4416 
L 1125 4416 
L 1125 -397 
L 1875 -397 
L 1875 -844 
L 550 -844 
L 550 4863 
z
" transform="scale(0.015625)"/>
       <path id="DejaVuSans-73" d="M 2834 3397 
L 2834 2853 
Q 2591 2978 2328 3040 
Q 2066 3103 1784 3103 
Q 1356 3103 1142 2972 
Q 928 2841 928 2578 
Q 928 2378 1081 2264 
Q 1234 2150 1697 2047 
L 1894 2003 
Q 2506 1872 2764 1633 
Q 3022 1394 3022 966 
Q 3022 478 2636 193 
Q 2250 -91 1575 -91 
Q 1294 -91 989 -36 
Q 684 19 347 128 
L 347 722 
Q 666 556 975 473 
Q 1284 391 1588 391 
Q 1994 391 2212 530 
Q 2431 669 2431 922 
Q 2431 1156 2273 1281 
Q 2116 1406 1581 1522 
L 1381 1569 
Q 847 1681 609 1914 
Q 372 2147 372 2553 
Q 372 3047 722 3315 
Q 1072 3584 1716 3584 
Q 2034 3584 2315 3537 
Q 2597 3491 2834 3397 
z
" transform="scale(0.015625)"/>
       <path id="DejaVuSans-5d" d="M 1947 4863 
L 1947 -844 
L 622 -844 
L 622 -397 
L 1369 -397 
L 1369 4416 
L 622 4416 
L 622 4863 
L 1947 4863 
z
" transform="scale(0.015625)"/>
      </defs>
      <use xlink:href="#DejaVuSans-74"/>
      <use xlink:href="#DejaVuSans-20" x="39.208984"/>
      <use xlink:href="#DejaVuSans-5b" x="70.996094"/>
      <use xlink:href="#DejaVuSans-73" x="110.009766"/>
      <use xlink:href="#DejaVuSans-5d" x="162.109375"/>
     </g>
    </g>
   </g>
   <g id="matplotlib.axis_2">
    <g id="ytick_1"/>
    <g id="ytick_2"/>
    <g id="ytick_3"/>
    <g id="ytick_4"/>
    <g id="ytick_5"/>
    <g id="ytick_6"/>
    <g id="ytick_7"/>
    <g id="text_7">
     <!-- probability density -->
     <g transform="translate(51.520312 221.125656) rotate(-90) scale(0.1 -0.1)">
      <defs>
       <path id="DejaVuSans-70" d="M 1159 525 
L 1159 -1331 
L 581 -1331 
L 581 3500 
L 1159 3500 
L 1159 2969 
Q 1341 3281 1617 3432 
Q 1894 3584 2278 3584 
Q 2916 3584 3314 3078 
Q 3713 2572 3713 1747 
Q 3713 922 3314 415 
Q 2916 -91 2278 -91 
Q 1894 -91 1617 61 
Q 1341 213 1159 525 
z
M 3116 1747 
Q 3116 2381 2855 2742 
Q 2594 3103 2138 3103 
Q 1681 3103 1420 2742 
Q 1159 2381 1159 1747 
Q 1159 1113 1420 752 
Q 1681 391 2138 391 
Q 2594 391 2855 752 
Q 3116 1113 3116 1747 
z
" transform="scale(0.015625)"/>
       <path id="DejaVuSans-72" d="M 2631 2963 
Q 2534 3019 2420 3045 
Q 2306 3072 2169 3072 
Q 1681 3072 1420 2755 
Q 1159 2438 1159 1844 
L 1159 0 
L 581 0 
L 581 3500 
L 1159 3500 
L 1159 2956 
Q 1341 3275 1631 3429 
Q 1922 3584 2338 3584 
Q 2397 3584 2469 3576 
Q 2541 3569 2628 3553 
L 2631 2963 
z
" transform="scale(0.015625)"/>
       <path id="DejaVuSans-6f" d="M 1959 3097 
Q 1497 3097 1228 2736 
Q 959 2375 959 1747 
Q 959 1119 1226 758 
Q 1494 397 1959 397 
Q 2419 397 2687 759 
Q 2956 1122 2956 1747 
Q 2956 2369 2687 2733 
Q 2419 3097 1959 3097 
z
M 1959 3584 
Q 2709 3584 3137 3096 
Q 3566 2609 3566 1747 
Q 3566 888 3137 398 
Q 2709 -91 1959 -91 
Q 1206 -91 779 398 
Q 353 888 353 1747 
Q 353 2609 779 3096 
Q 1206 3584 1959 3584 
z
" transform="scale(0.015625)"/>
       <path id="DejaVuSans-62" d="M 3116 1747 
Q 3116 2381 2855 2742 
Q 2594 3103 2138 3103 
Q 1681 3103 1420 2742 
Q 1159 2381 1159 1747 
Q 1159 1113 1420 752 
Q 1681 391 2138 391 
Q 2594 391 2855 752 
Q 3116 1113 3116 1747 
z
M 1159 2969 
Q 1341 3281 1617 3432 
Q 1894 3584 2278 3584 
Q 2916 3584 3314 3078 
Q 3713 2572 3713 1747 
Q 3713 922 3314 415 
Q 2916 -91 2278 -91 
Q 1894 -91 1617 61 
Q 1341 213 1159 525 
L 1159 0 
L 581 0 
L 581 4863 
L 1159 4863 
L 1159 2969 
z
" transform="scale(0.015625)"/>
       <path id="DejaVuSans-61" d="M 2194 1759 
Q 1497 1759 1228 1600 
Q 959 1441 959 1056 
Q 959 750 1161 570 
Q 1363 391 1709 391 
Q 2188 391 2477 730 
Q 2766 1069 2766 1631 
L 2766 1759 
L 2194 1759 
z
M 3341 1997 
L 3341 0 
L 2766 0 
L 2766 531 
Q 2569 213 2275 61 
Q 1981 -91 1556 -91 
Q 1019 -91 701 211 
Q 384 513 384 1019 
Q 384 1609 779 1909 
Q 1175 2209 1959 2209 
L 2766 2209 
L 2766 2266 
Q 2766 2663 2505 2880 
Q 2244 3097 1772 3097 
Q 1472 3097 1187 3025 
Q 903 2953 641 2809 
L 641 3341 
Q 956 3463 1253 3523 
Q 1550 3584 1831 3584 
Q 2591 3584 2966 3190 
Q 3341 2797 3341 1997 
z
" transform="scale(0.015625)"/>
       <path id="DejaVuSans-69" d="M 603 3500 
L 1178 3500 
L 1178 0 
L 603 0 
L 603 3500 
z
M 603 4863 
L 1178 4863 
L 1178 4134 
L 603 4134 
L 603 4863 
z
" transform="scale(0.015625)"/>
       <path id="DejaVuSans-6c" d="M 603 4863 
L 1178 4863 
L 1178 0 
L 603 0 
L 603 4863 
z
" transform="scale(0.015625)"/>
       <path id="DejaVuSans-79" d="M 2059 -325 
Q 1816 -950 1584 -1140 
Q 1353 -1331 966 -1331 
L 506 -1331 
L 506 -850 
L 844 -850 
Q 1081 -850 1212 -737 
Q 1344 -625 1503 -206 
L 1606 56 
L 191 3500 
L 800 3500 
L 1894 763 
L 2988 3500 
L 3597 3500 
L 2059 -325 
z
" transform="scale(0.015625)"/>
       <path id="DejaVuSans-64" d="M 2906 2969 
L 2906 4863 
L 3481 4863 
L 3481 0 
L 2906 0 
L 2906 525 
Q 2725 213 2448 61 
Q 2172 -91 1784 -91 
Q 1150 -91 751 415 
Q 353 922 353 1747 
Q 353 2572 751 3078 
Q 1150 3584 1784 3584 
Q 2172 3584 2448 3432 
Q 2725 3281 2906 2969 
z
M 947 1747 
Q 947 1113 1208 752 
Q 1469 391 1925 391 
Q 2381 391 2643 752 
Q 2906 1113 2906 1747 
Q 2906 2381 2643 2742 
Q 2381 3103 1925 3103 
Q 1469 3103 1208 2742 
Q 947 2381 947 1747 
z
" transform="scale(0.015625)"/>
       <path id="DejaVuSans-65" d="M 3597 1894 
L 3597 1613 
L 953 1613 
Q 991 1019 1311 708 
Q 1631 397 2203 397 
Q 2534 397 2845 478 
Q 3156 559 3463 722 
L 3463 178 
Q 3153 47 2828 -22 
Q 2503 -91 2169 -91 
Q 1331 -91 842 396 
Q 353 884 353 1716 
Q 353 2575 817 3079 
Q 1281 3584 2069 3584 
Q 2775 3584 3186 3129 
Q 3597 2675 3597 1894 
z
M 3022 2063 
Q 3016 2534 2758 2815 
Q 2500 3097 2075 3097 
Q 1594 3097 1305 2825 
Q 1016 2553 972 2059 
L 3022 2063 
z
" transform="scale(0.015625)"/>
       <path id="DejaVuSans-6e" d="M 3513 2113 
L 3513 0 
L 2938 0 
L 2938 2094 
Q 2938 2591 2744 2837 
Q 2550 3084 2163 3084 
Q 1697 3084 1428 2787 
Q 1159 2491 1159 1978 
L 1159 0 
L 581 0 
L 581 3500 
L 1159 3500 
L 1159 2956 
Q 1366 3272 1645 3428 
Q 1925 3584 2291 3584 
Q 2894 3584 3203 3211 
Q 3513 2838 3513 2113 
z
" transform="scale(0.015625)"/>
      </defs>
      <use xlink:href="#DejaVuSans-70"/>
      <use xlink:href="#DejaVuSans-72" x="63.476562"/>
      <use xlink:href="#DejaVuSans-6f" x="102.339844"/>
      <use xlink:href="#DejaVuSans-62" x="163.521484"/>
      <use xlink:href="#DejaVuSans-61" x="226.998047"/>
      <use xlink:href="#DejaVuSans-62" x="288.277344"/>
      <use xlink:href="#DejaVuSans-69" x="351.753906"/>
      <use xlink:href="#DejaVuSans-6c" x="379.537109"/>
      <use xlink:href="#DejaVuSans-69" x="407.320312"/>
      <use xlink:href="#DejaVuSans-74" x="435.103516"/>
      <use xlink:href="#DejaVuSans-79" x="474.3125"/>
      <use xlink:href="#DejaVuSans-20" x="533.492188"/>
      <use xlink:href="#DejaVuSans-64" x="565.279297"/>
      <use xlink:href="#DejaVuSans-65" x="628.755859"/>
      <use xlink:href="#DejaVuSans-6e" x="690.279297"/>
      <use xlink:href="#DejaVuSans-73" x="753.658203"/>
      <use xlink:href="#DejaVuSans-69" x="805.757812"/>
      <use xlink:href="#DejaVuSans-74" x="833.541016"/>
      <use xlink:href="#DejaVuSans-79" x="872.75"/>
     </g>
    </g>
   </g>
   <g id="LineCollection_1">
    <path d="M 191.120428 295.488 
L 191.120428 73.268029 
" clip-path="url(#p0a5a6f00c8)" style="fill: none; stroke: #1f77b4; stroke-width: 1.5"/>
   </g>
   <g id="patch_3">
    <path d="M 57.6 307.584 
L 57.6 41.472 
" style="fill: none; stroke: #000000; stroke-width: 0.8; stroke-linejoin: miter; stroke-linecap: square"/>
   </g>
   <g id="patch_4">
    <path d="M 414.72 307.584 
L 414.72 41.472 
" style="fill: none; stroke: #000000; stroke-width: 0.8; stroke-linejoin: miter; stroke-linecap: square"/>
   </g>
   <g id="patch_5">
    <path d="M 57.6 307.584 
L 414.72 307.584 
" style="fill: none; stroke: #000000; stroke-width: 0.8; stroke-linejoin: miter; stroke-linecap: square"/>
   </g>
   <g id="patch_6">
    <path d="M 57.6 41.472 
L 414.72 41.472 
" style="fill: none; stroke: #000000; stroke-width: 0.8; stroke-linejoin: miter; stroke-linecap: square"/>
   </g>
   <g id="text_8">
    <!-- echo 8100 | python3 quicksort.py -->
    <g transform="translate(135.035625 35.472) scale(0.12 -0.12)">
     <defs>
      <path id="DejaVuSans-63" d="M 3122 3366 
L 3122 2828 
Q 2878 2963 2633 3030 
Q 2388 3097 2138 3097 
Q 1578 3097 1268 2742 
Q 959 2388 959 1747 
Q 959 1106 1268 751 
Q 1578 397 2138 397 
Q 2388 397 2633 464 
Q 2878 531 3122 666 
L 3122 134 
Q 2881 22 2623 -34 
Q 2366 -91 2075 -91 
Q 1284 -91 818 406 
Q 353 903 353 1747 
Q 353 2603 823 3093 
Q 1294 3584 2113 3584 
Q 2378 3584 2631 3529 
Q 2884 3475 3122 3366 
z
" transform="scale(0.015625)"/>
      <path id="DejaVuSans-68" d="M 3513 2113 
L 3513 0 
L 2938 0 
L 2938 2094 
Q 2938 2591 2744 2837 
Q 2550 3084 2163 3084 
Q 1697 3084 1428 2787 
Q 1159 2491 1159 1978 
L 1159 0 
L 581 0 
L 581 4863 
L 1159 4863 
L 1159 2956 
Q 1366 3272 1645 3428 
Q 1925 3584 2291 3584 
Q 2894 3584 3203 3211 
Q 3513 2838 3513 2113 
z
" transform="scale(0.015625)"/>
      <path id="DejaVuSans-7c" d="M 1344 4891 
L 1344 -1509 
L 813 -1509 
L 813 4891 
L 1344 4891 
z
" transform="scale(0.015625)"/>
      <path id="DejaVuSans-33" d="M 2597 2516 
Q 3050 2419 3304 2112 
Q 3559 1806 3559 1356 
Q 3559 666 3084 287 
Q 2609 -91 1734 -91 
Q 1441 -91 1130 -33 
Q 819 25 488 141 
L 488 750 
Q 750 597 1062 519 
Q 1375 441 1716 441 
Q 2309 441 2620 675 
Q 2931 909 2931 1356 
Q 2931 1769 2642 2001 
Q 2353 2234 1838 2234 
L 1294 2234 
L 1294 2753 
L 1863 2753 
Q 2328 2753 2575 2939 
Q 2822 3125 2822 3475 
Q 2822 3834 2567 4026 
Q 2313 4219 1838 4219 
Q 1578 4219 1281 4162 
Q 984 4106 628 3988 
L 628 4550 
Q 988 4650 1302 4700 
Q 1616 4750 1894 4750 
Q 2613 4750 3031 4423 
Q 3450 4097 3450 3541 
Q 3450 3153 3228 2886 
Q 3006 2619 2597 2516 
z
" transform="scale(0.015625)"/>
      <path id="DejaVuSans-71" d="M 947 1747 
Q 947 1113 1208 752 
Q 1469 391 1925 391 
Q 2381 391 2643 752 
Q 2906 1113 2906 1747 
Q 2906 2381 2643 2742 
Q 2381 3103 1925 3103 
Q 1469 3103 1208 2742 
Q 947 2381 947 1747 
z
M 2906 525 
Q 2725 213 2448 61 
Q 2172 -91 1784 -91 
Q 1150 -91 751 415 
Q 353 922 353 1747 
Q 353 2572 751 3078 
Q 1150 3584 1784 3584 
Q 2172 3584 2448 3432 
Q 2725 3281 2906 2969 
L 2906 3500 
L 3481 3500 
L 3481 -1331 
L 2906 -1331 
L 2906 525 
z
" transform="scale(0.015625)"/>
      <path id="DejaVuSans-75" d="M 544 1381 
L 544 3500 
L 1119 3500 
L 1119 1403 
Q 1119 906 1312 657 
Q 1506 409 1894 409 
Q 2359 409 2629 706 
Q 2900 1003 2900 1516 
L 2900 3500 
L 3475 3500 
L 3475 0 
L 2900 0 
L 2900 538 
Q 2691 219 2414 64 
Q 2138 -91 1772 -91 
Q 1169 -91 856 284 
Q 544 659 544 1381 
z
M 1991 3584 
L 1991 3584 
z
" transform="scale(0.015625)"/>
      <path id="DejaVuSans-6b" d="M 581 4863 
L 1159 4863 
L 1159 1991 
L 2875 3500 
L 3609 3500 
L 1753 1863 
L 3688 0 
L 2938 0 
L 1159 1709 
L 1159 0 
L 581 0 
L 581 4863 
z
" transform="scale(0.015625)"/>
     </defs>
     <use xlink:href="#DejaVuSans-65"/>
     <use xlink:href="#DejaVuSans-63" x="61.523438"/>
     <use xlink:href="#DejaVuSans-68" x="116.503906"/>
     <use xlink:href="#DejaVuSans-6f" x="179.882812"/>
     <use xlink:href="#DejaVuSans-20" x="241.064453"/>
     <use xlink:href="#DejaVuSans-38" x="272.851562"/>
     <use xlink:href="#DejaVuSans-31" x="336.474609"/>
     <use xlink:href="#DejaVuSans-30" x="400.097656"/>
     <use xlink:href="#DejaVuSans-30" x="463.720703"/>
     <use xlink:href="#DejaVuSans-20" x="527.34375"/>
     <use xlink:href="#DejaVuSans-7c" x="559.130859"/>
     <use xlink:href="#DejaVuSans-20" x="592.822266"/>
     <use xlink:href="#DejaVuSans-70" x="624.609375"/>
     <use xlink:href="#DejaVuSans-79" x="688.085938"/>
     <use xlink:href="#DejaVuSans-74" x="747.265625"/>
     <use xlink:href="#DejaVuSans-68" x="786.474609"/>
     <use xlink:href="#DejaVuSans-6f" x="849.853516"/>
     <use xlink:href="#DejaVuSans-6e" x="911.035156"/>
     <use xlink:href="#DejaVuSans-33" x="974.414062"/>
     <use xlink:href="#DejaVuSans-20" x="1038.037109"/>
     <use xlink:href="#DejaVuSans-71" x="1069.824219"/>
     <use xlink:href="#DejaVuSans-75" x="1133.300781"/>
     <use xlink:href="#DejaVuSans-69" x="1196.679688"/>
     <use xlink:href="#DejaVuSans-63" x="1224.462891"/>
     <use xlink:href="#DejaVuSans-6b" x="1279.443359"/>
     <use xlink:href="#DejaVuSans-73" x="1337.353516"/>
     <use xlink:href="#DejaVuSans-6f" x="1389.453125"/>
     <use xlink:href="#DejaVuSans-72" x="1450.634766"/>
     <use xlink:href="#DejaVuSans-74" x="1491.748047"/>
     <use xlink:href="#DejaVuSans-2e" x="1530.957031"/>
     <use xlink:href="#DejaVuSans-70" x="1562.744141"/>
     <use xlink:href="#DejaVuSans-79" x="1626.220703"/>
    </g>
   </g>
  </g>
 </g>
 <defs>
  <clipPath id="p0a5a6f00c8">
   <rect x="57.6" y="41.472" width="357.12" height="266.112"/>
  </clipPath>
 </defs>
</svg>
