<?xml version="1.0" encoding="utf-8" standalone="no"?>
<!DOCTYPE svg PUBLIC "-//W3C//DTD SVG 1.1//EN"
  "http://www.w3.org/Graphics/SVG/1.1/DTD/svg11.dtd">
<svg xmlns:xlink="http://www.w3.org/1999/xlink" width="757.372187pt" height="558.886875pt" viewBox="0 0 757.372187 558.886875" xmlns="http://www.w3.org/2000/svg" version="1.1">
 <metadata>
  <rdf:RDF xmlns:dc="http://purl.org/dc/elements/1.1/" xmlns:cc="http://creativecommons.org/ns#" xmlns:rdf="http://www.w3.org/1999/02/22-rdf-syntax-ns#">
   <cc:Work>
    <dc:type rdf:resource="http://purl.org/dc/dcmitype/StillImage"/>
    <dc:date>2024-01-14T13:49:56.396993</dc:date>
    <dc:format>image/svg+xml</dc:format>
    <dc:creator>
     <cc:Agent>
      <dc:title>Matplotlib v3.7.0, https://matplotlib.org/</dc:title>
     </cc:Agent>
    </dc:creator>
   </cc:Work>
  </rdf:RDF>
 </metadata>
 <defs>
  <style type="text/css">*{stroke-linejoin: round; stroke-linecap: butt}</style>
 </defs>
 <g id="figure_1">
  <g id="patch_1">
   <path d="M 0 558.886875 
L 757.372187 558.886875 
L 757.372187 0 
L 0 0 
z
" style="fill: #ffffff"/>
  </g>
  <g id="axes_1">
   <g id="patch_2">
    <path d="M 20.878125 521.330625 
L 746.278125 521.330625 
L 746.278125 22.370625 
L 20.878125 22.370625 
z
" style="fill: #ffffff"/>
   </g>
   <g id="PolyCollection_1">
    <path d="M 53.850852 277.292887 
L 53.850852 277.292887 
L 57.148125 272.546903 
L 60.445398 267.773416 
L 63.74267 262.973872 
L 67.039943 258.150589 
L 70.337216 253.304723 
L 73.634489 248.438592 
L 76.931761 243.554221 
L 80.229034 238.653638 
L 83.526307 233.739157 
L 86.82358 228.813386 
L 90.120852 223.87864 
L 93.418125 218.937525 
L 96.715398 213.993225 
L 100.01267 209.048057 
L 103.309943 204.106073 
L 106.607216 199.169879 
L 109.904489 194.242371 
L 113.201761 189.329339 
L 116.499034 184.433677 
L 119.796307 179.558281 
L 123.09358 174.706046 
L 126.390852 169.885658 
L 129.688125 165.097116 
L 132.985398 160.34621 
L 136.28267 155.641627 
L 139.579943 150.98047 
L 142.877216 146.374322 
L 146.174489 141.826075 
L 149.471761 137.338626 
L 152.769034 132.920661 
L 156.066307 128.575073 
L 159.36358 124.307654 
L 162.660852 120.127089 
L 165.958125 116.033378 
L 169.255398 112.035206 
L 172.55267 108.138363 
L 175.849943 104.345746 
L 179.147216 100.666038 
L 182.444489 97.102135 
L 185.741761 93.656932 
L 189.039034 90.34201 
L 192.336307 87.154474 
L 195.63358 84.105904 
L 198.930852 81.1963 
L 202.228125 78.431453 
L 205.525398 75.814257 
L 208.82267 73.350503 
L 212.119943 71.040191 
L 215.417216 68.889111 
L 218.714489 66.900157 
L 222.011761 65.073332 
L 225.309034 63.414423 
L 228.606307 61.920537 
L 231.90358 60.594568 
L 235.200852 59.439412 
L 238.498125 58.452173 
L 241.795398 57.635747 
L 245.09267 56.987239 
L 248.389943 56.503752 
L 251.687216 56.188183 
L 254.984489 56.031846 
L 258.281761 56.040532 
L 261.579034 56.205554 
L 264.876307 56.524018 
L 268.17358 56.990134 
L 271.470852 57.603901 
L 274.768125 58.356634 
L 278.065398 59.245439 
L 281.36267 60.261629 
L 284.659943 61.399414 
L 287.957216 62.653004 
L 291.254489 64.013715 
L 294.551761 65.472859 
L 297.849034 67.027543 
L 301.146307 68.663291 
L 304.44358 70.377206 
L 307.740852 72.154815 
L 311.038125 73.990326 
L 314.335398 75.875055 
L 317.63267 77.79742 
L 320.929943 79.751632 
L 324.227216 81.723214 
L 327.524489 83.703482 
L 330.821761 85.686644 
L 334.119034 87.658227 
L 337.416307 89.609543 
L 340.71358 91.534803 
L 344.010852 93.419532 
L 347.308125 95.257938 
L 350.605398 97.041337 
L 353.90267 98.761043 
L 357.199943 100.405476 
L 360.497216 101.968845 
L 363.794489 103.442466 
L 367.091761 104.820547 
L 370.389034 106.094403 
L 373.686307 107.26114 
L 376.98358 108.312071 
L 380.280852 109.241407 
L 383.578125 110.043358 
L 386.875398 110.717923 
L 390.17267 111.259312 
L 393.469943 111.661734 
L 396.767216 111.925191 
L 400.064489 112.049682 
L 403.361761 112.029416 
L 406.659034 111.867289 
L 409.956307 111.5633 
L 413.25358 111.11745 
L 416.550852 110.529739 
L 419.848125 109.800167 
L 423.145398 108.937419 
L 426.44267 107.941495 
L 429.739943 106.81529 
L 433.037216 105.564595 
L 436.334489 104.195199 
L 439.631761 102.709998 
L 442.929034 101.117678 
L 446.226307 99.424028 
L 449.52358 97.634838 
L 452.820852 95.7559 
L 456.118125 93.801689 
L 459.415398 91.775099 
L 462.71267 89.684816 
L 466.009943 87.545317 
L 469.307216 85.359495 
L 472.604489 83.138932 
L 475.901761 80.892312 
L 479.199034 78.634112 
L 482.496307 76.370122 
L 485.79358 74.111922 
L 489.090852 71.868197 
L 492.388125 69.650529 
L 495.685398 67.470498 
L 498.98267 65.336788 
L 502.279943 63.260981 
L 505.577216 61.248867 
L 508.874489 59.314922 
L 512.171761 57.464935 
L 515.469034 55.710487 
L 518.766307 54.063159 
L 522.06358 52.525846 
L 525.360852 51.113023 
L 528.658125 49.827587 
L 531.955398 48.678221 
L 535.25267 47.676506 
L 538.549943 46.825339 
L 541.847216 46.130508 
L 545.144489 45.603594 
L 548.441761 45.241703 
L 551.739034 45.056415 
L 555.036307 45.050625 
L 558.33358 45.230123 
L 561.630852 45.592014 
L 564.928125 46.144983 
L 568.225398 46.891927 
L 571.52267 47.832843 
L 574.819943 48.967733 
L 578.117216 50.299492 
L 581.414489 51.82812 
L 584.711761 53.553617 
L 588.009034 55.473086 
L 591.306307 57.589425 
L 594.60358 59.899738 
L 597.900852 62.401128 
L 601.198125 65.090702 
L 604.495398 67.96846 
L 607.79267 71.02861 
L 611.089943 74.265364 
L 614.387216 77.681615 
L 617.684489 81.265784 
L 620.981761 85.01787 
L 624.279034 88.929188 
L 627.576307 92.999738 
L 630.87358 97.220835 
L 634.170852 101.583793 
L 637.468125 106.088613 
L 640.765398 110.726608 
L 644.06267 115.489094 
L 647.359943 120.37607 
L 650.657216 125.373062 
L 653.954489 130.480068 
L 657.251761 135.685508 
L 660.549034 140.986488 
L 663.846307 146.374322 
L 667.14358 151.843219 
L 670.440852 157.384494 
L 673.738125 162.995252 
L 677.035398 168.663913 
L 680.33267 174.387582 
L 683.629943 180.160468 
L 686.927216 185.97099 
L 690.224489 191.819149 
L 693.521761 197.693364 
L 696.819034 203.59074 
L 700.116307 209.505776 
L 703.41358 215.430077 
L 706.710852 221.35901 
L 710.008125 227.287364 
L 710.008125 227.287364 
L 710.008125 498.650625 
L 706.710852 498.650625 
L 703.41358 498.650625 
L 700.116307 498.650625 
L 696.819034 498.650625 
L 693.521761 498.650625 
L 690.224489 498.650625 
L 686.927216 498.650625 
L 683.629943 498.650625 
L 680.33267 498.650625 
L 677.035398 498.650625 
L 673.738125 498.650625 
L 670.440852 498.650625 
L 667.14358 498.650625 
L 663.846307 498.650625 
L 660.549034 498.650625 
L 657.251761 498.650625 
L 653.954489 498.650625 
L 650.657216 498.650625 
L 647.359943 498.650625 
L 644.06267 498.650625 
L 640.765398 498.650625 
L 637.468125 498.650625 
L 634.170852 498.650625 
L 630.87358 498.650625 
L 627.576307 498.650625 
L 624.279034 498.650625 
L 620.981761 498.650625 
L 617.684489 498.650625 
L 614.387216 498.650625 
L 611.089943 498.650625 
L 607.79267 498.650625 
L 604.495398 498.650625 
L 601.198125 498.650625 
L 597.900852 498.650625 
L 594.60358 498.650625 
L 591.306307 498.650625 
L 588.009034 498.650625 
L 584.711761 498.650625 
L 581.414489 498.650625 
L 578.117216 498.650625 
L 574.819943 498.650625 
L 571.52267 498.650625 
L 568.225398 498.650625 
L 564.928125 498.650625 
L 561.630852 498.650625 
L 558.33358 498.650625 
L 555.036307 498.650625 
L 551.739034 498.650625 
L 548.441761 498.650625 
L 545.144489 498.650625 
L 541.847216 498.650625 
L 538.549943 498.650625 
L 535.25267 498.650625 
L 531.955398 498.650625 
L 528.658125 498.650625 
L 525.360852 498.650625 
L 522.06358 498.650625 
L 518.766307 498.650625 
L 515.469034 498.650625 
L 512.171761 498.650625 
L 508.874489 498.650625 
L 505.577216 498.650625 
L 502.279943 498.650625 
L 498.98267 498.650625 
L 495.685398 498.650625 
L 492.388125 498.650625 
L 489.090852 498.650625 
L 485.79358 498.650625 
L 482.496307 498.650625 
L 479.199034 498.650625 
L 475.901761 498.650625 
L 472.604489 498.650625 
L 469.307216 498.650625 
L 466.009943 498.650625 
L 462.71267 498.650625 
L 459.415398 498.650625 
L 456.118125 498.650625 
L 452.820852 498.650625 
L 449.52358 498.650625 
L 446.226307 498.650625 
L 442.929034 498.650625 
L 439.631761 498.650625 
L 436.334489 498.650625 
L 433.037216 498.650625 
L 429.739943 498.650625 
L 426.44267 498.650625 
L 423.145398 498.650625 
L 419.848125 498.650625 
L 416.550852 498.650625 
L 413.25358 498.650625 
L 409.956307 498.650625 
L 406.659034 498.650625 
L 403.361761 498.650625 
L 400.064489 498.650625 
L 396.767216 498.650625 
L 393.469943 498.650625 
L 390.17267 498.650625 
L 386.875398 498.650625 
L 383.578125 498.650625 
L 380.280852 498.650625 
L 376.98358 498.650625 
L 373.686307 498.650625 
L 370.389034 498.650625 
L 367.091761 498.650625 
L 363.794489 498.650625 
L 360.497216 498.650625 
L 357.199943 498.650625 
L 353.90267 498.650625 
L 350.605398 498.650625 
L 347.308125 498.650625 
L 344.010852 498.650625 
L 340.71358 498.650625 
L 337.416307 498.650625 
L 334.119034 498.650625 
L 330.821761 498.650625 
L 327.524489 498.650625 
L 324.227216 498.650625 
L 320.929943 498.650625 
L 317.63267 498.650625 
L 314.335398 498.650625 
L 311.038125 498.650625 
L 307.740852 498.650625 
L 304.44358 498.650625 
L 301.146307 498.650625 
L 297.849034 498.650625 
L 294.551761 498.650625 
L 291.254489 498.650625 
L 287.957216 498.650625 
L 284.659943 498.650625 
L 281.36267 498.650625 
L 278.065398 498.650625 
L 274.768125 498.650625 
L 271.470852 498.650625 
L 268.17358 498.650625 
L 264.876307 498.650625 
L 261.579034 498.650625 
L 258.281761 498.650625 
L 254.984489 498.650625 
L 251.687216 498.650625 
L 248.389943 498.650625 
L 245.09267 498.650625 
L 241.795398 498.650625 
L 238.498125 498.650625 
L 235.200852 498.650625 
L 231.90358 498.650625 
L 228.606307 498.650625 
L 225.309034 498.650625 
L 222.011761 498.650625 
L 218.714489 498.650625 
L 215.417216 498.650625 
L 212.119943 498.650625 
L 208.82267 498.650625 
L 205.525398 498.650625 
L 202.228125 498.650625 
L 198.930852 498.650625 
L 195.63358 498.650625 
L 192.336307 498.650625 
L 189.039034 498.650625 
L 185.741761 498.650625 
L 182.444489 498.650625 
L 179.147216 498.650625 
L 175.849943 498.650625 
L 172.55267 498.650625 
L 169.255398 498.650625 
L 165.958125 498.650625 
L 162.660852 498.650625 
L 159.36358 498.650625 
L 156.066307 498.650625 
L 152.769034 498.650625 
L 149.471761 498.650625 
L 146.174489 498.650625 
L 142.877216 498.650625 
L 139.579943 498.650625 
L 136.28267 498.650625 
L 132.985398 498.650625 
L 129.688125 498.650625 
L 126.390852 498.650625 
L 123.09358 498.650625 
L 119.796307 498.650625 
L 116.499034 498.650625 
L 113.201761 498.650625 
L 109.904489 498.650625 
L 106.607216 498.650625 
L 103.309943 498.650625 
L 100.01267 498.650625 
L 96.715398 498.650625 
L 93.418125 498.650625 
L 90.120852 498.650625 
L 86.82358 498.650625 
L 83.526307 498.650625 
L 80.229034 498.650625 
L 76.931761 498.650625 
L 73.634489 498.650625 
L 70.337216 498.650625 
L 67.039943 498.650625 
L 63.74267 498.650625 
L 60.445398 498.650625 
L 57.148125 498.650625 
L 53.850852 498.650625 
z
" clip-path="url(#p7fe971c350)" style="fill: #1f77b4; fill-opacity: 0.25"/>
   </g>
   <g id="matplotlib.axis_1">
    <g id="xtick_1">
     <g id="line2d_1">
      <defs>
       <path id="m689d1d3e15" d="M 0 0 
L 0 3.5 
" style="stroke: #000000; stroke-width: 0.8"/>
      </defs>
      <g>
       <use xlink:href="#m689d1d3e15" x="98.585966" y="521.330625" style="stroke: #000000; stroke-width: 0.8"/>
      </g>
     </g>
     <g id="text_1">
      <!-- 0.0069 -->
      <g transform="translate(81.090653 535.929062) scale(0.1 -0.1)">
       <defs>
        <path id="DejaVuSans-30" d="M 2034 4250 
Q 1547 4250 1301 3770 
Q 1056 3291 1056 2328 
Q 1056 1369 1301 889 
Q 1547 409 2034 409 
Q 2525 409 2770 889 
Q 3016 1369 3016 2328 
Q 3016 3291 2770 3770 
Q 2525 4250 2034 4250 
z
M 2034 4750 
Q 2819 4750 3233 4129 
Q 3647 3509 3647 2328 
Q 3647 1150 3233 529 
Q 2819 -91 2034 -91 
Q 1250 -91 836 529 
Q 422 1150 422 2328 
Q 422 3509 836 4129 
Q 1250 4750 2034 4750 
z
" transform="scale(0.015625)"/>
        <path id="DejaVuSans-2e" d="M 684 794 
L 1344 794 
L 1344 0 
L 684 0 
L 684 794 
z
" transform="scale(0.015625)"/>
        <path id="DejaVuSans-36" d="M 2113 2584 
Q 1688 2584 1439 2293 
Q 1191 2003 1191 1497 
Q 1191 994 1439 701 
Q 1688 409 2113 409 
Q 2538 409 2786 701 
Q 3034 994 3034 1497 
Q 3034 2003 2786 2293 
Q 2538 2584 2113 2584 
z
M 3366 4563 
L 3366 3988 
Q 3128 4100 2886 4159 
Q 2644 4219 2406 4219 
Q 1781 4219 1451 3797 
Q 1122 3375 1075 2522 
Q 1259 2794 1537 2939 
Q 1816 3084 2150 3084 
Q 2853 3084 3261 2657 
Q 3669 2231 3669 1497 
Q 3669 778 3244 343 
Q 2819 -91 2113 -91 
Q 1303 -91 875 529 
Q 447 1150 447 2328 
Q 447 3434 972 4092 
Q 1497 4750 2381 4750 
Q 2619 4750 2861 4703 
Q 3103 4656 3366 4563 
z
" transform="scale(0.015625)"/>
        <path id="DejaVuSans-39" d="M 703 97 
L 703 672 
Q 941 559 1184 500 
Q 1428 441 1663 441 
Q 2288 441 2617 861 
Q 2947 1281 2994 2138 
Q 2813 1869 2534 1725 
Q 2256 1581 1919 1581 
Q 1219 1581 811 2004 
Q 403 2428 403 3163 
Q 403 3881 828 4315 
Q 1253 4750 1959 4750 
Q 2769 4750 3195 4129 
Q 3622 3509 3622 2328 
Q 3622 1225 3098 567 
Q 2575 -91 1691 -91 
Q 1453 -91 1209 -44 
Q 966 3 703 97 
z
M 1959 2075 
Q 2384 2075 2632 2365 
Q 2881 2656 2881 3163 
Q 2881 3666 2632 3958 
Q 2384 4250 1959 4250 
Q 1534 4250 1286 3958 
Q 1038 3666 1038 3163 
Q 1038 2656 1286 2365 
Q 1534 2075 1959 2075 
z
" transform="scale(0.015625)"/>
       </defs>
       <use xlink:href="#DejaVuSans-30"/>
       <use xlink:href="#DejaVuSans-2e" x="63.623047"/>
       <use xlink:href="#DejaVuSans-30" x="95.410156"/>
       <use xlink:href="#DejaVuSans-30" x="159.033203"/>
       <use xlink:href="#DejaVuSans-36" x="222.65625"/>
       <use xlink:href="#DejaVuSans-39" x="286.279297"/>
      </g>
     </g>
    </g>
    <g id="xtick_2">
     <g id="line2d_2">
      <g>
       <use xlink:href="#m689d1d3e15" x="204.267784" y="521.330625" style="stroke: #000000; stroke-width: 0.8"/>
      </g>
     </g>
     <g id="text_2">
      <!-- 0.0070 -->
      <g transform="translate(186.772472 535.929062) scale(0.1 -0.1)">
       <defs>
        <path id="DejaVuSans-37" d="M 525 4666 
L 3525 4666 
L 3525 4397 
L 1831 0 
L 1172 0 
L 2766 4134 
L 525 4134 
L 525 4666 
z
" transform="scale(0.015625)"/>
       </defs>
       <use xlink:href="#DejaVuSans-30"/>
       <use xlink:href="#DejaVuSans-2e" x="63.623047"/>
       <use xlink:href="#DejaVuSans-30" x="95.410156"/>
       <use xlink:href="#DejaVuSans-30" x="159.033203"/>
       <use xlink:href="#DejaVuSans-37" x="222.65625"/>
       <use xlink:href="#DejaVuSans-30" x="286.279297"/>
      </g>
     </g>
    </g>
    <g id="xtick_3">
     <g id="line2d_3">
      <g>
       <use xlink:href="#m689d1d3e15" x="309.949602" y="521.330625" style="stroke: #000000; stroke-width: 0.8"/>
      </g>
     </g>
     <g id="text_3">
      <!-- 0.0071 -->
      <g transform="translate(292.45429 535.929062) scale(0.1 -0.1)">
       <defs>
        <path id="DejaVuSans-31" d="M 794 531 
L 1825 531 
L 1825 4091 
L 703 3866 
L 703 4441 
L 1819 4666 
L 2450 4666 
L 2450 531 
L 3481 531 
L 3481 0 
L 794 0 
L 794 531 
z
" transform="scale(0.015625)"/>
       </defs>
       <use xlink:href="#DejaVuSans-30"/>
       <use xlink:href="#DejaVuSans-2e" x="63.623047"/>
       <use xlink:href="#DejaVuSans-30" x="95.410156"/>
       <use xlink:href="#DejaVuSans-30" x="159.033203"/>
       <use xlink:href="#DejaVuSans-37" x="222.65625"/>
       <use xlink:href="#DejaVuSans-31" x="286.279297"/>
      </g>
     </g>
    </g>
    <g id="xtick_4">
     <g id="line2d_4">
      <g>
       <use xlink:href="#m689d1d3e15" x="415.63142" y="521.330625" style="stroke: #000000; stroke-width: 0.8"/>
      </g>
     </g>
     <g id="text_4">
      <!-- 0.0072 -->
      <g transform="translate(398.136108 535.929062) scale(0.1 -0.1)">
       <defs>
        <path id="DejaVuSans-32" d="M 1228 531 
L 3431 531 
L 3431 0 
L 469 0 
L 469 531 
Q 828 903 1448 1529 
Q 2069 2156 2228 2338 
Q 2531 2678 2651 2914 
Q 2772 3150 2772 3378 
Q 2772 3750 2511 3984 
Q 2250 4219 1831 4219 
Q 1534 4219 1204 4116 
Q 875 4013 500 3803 
L 500 4441 
Q 881 4594 1212 4672 
Q 1544 4750 1819 4750 
Q 2544 4750 2975 4387 
Q 3406 4025 3406 3419 
Q 3406 3131 3298 2873 
Q 3191 2616 2906 2266 
Q 2828 2175 2409 1742 
Q 1991 1309 1228 531 
z
" transform="scale(0.015625)"/>
       </defs>
       <use xlink:href="#DejaVuSans-30"/>
       <use xlink:href="#DejaVuSans-2e" x="63.623047"/>
       <use xlink:href="#DejaVuSans-30" x="95.410156"/>
       <use xlink:href="#DejaVuSans-30" x="159.033203"/>
       <use xlink:href="#DejaVuSans-37" x="222.65625"/>
       <use xlink:href="#DejaVuSans-32" x="286.279297"/>
      </g>
     </g>
    </g>
    <g id="xtick_5">
     <g id="line2d_5">
      <g>
       <use xlink:href="#m689d1d3e15" x="521.313239" y="521.330625" style="stroke: #000000; stroke-width: 0.8"/>
      </g>
     </g>
     <g id="text_5">
      <!-- 0.0073 -->
      <g transform="translate(503.817926 535.929062) scale(0.1 -0.1)">
       <defs>
        <path id="DejaVuSans-33" d="M 2597 2516 
Q 3050 2419 3304 2112 
Q 3559 1806 3559 1356 
Q 3559 666 3084 287 
Q 2609 -91 1734 -91 
Q 1441 -91 1130 -33 
Q 819 25 488 141 
L 488 750 
Q 750 597 1062 519 
Q 1375 441 1716 441 
Q 2309 441 2620 675 
Q 2931 909 2931 1356 
Q 2931 1769 2642 2001 
Q 2353 2234 1838 2234 
L 1294 2234 
L 1294 2753 
L 1863 2753 
Q 2328 2753 2575 2939 
Q 2822 3125 2822 3475 
Q 2822 3834 2567 4026 
Q 2313 4219 1838 4219 
Q 1578 4219 1281 4162 
Q 984 4106 628 3988 
L 628 4550 
Q 988 4650 1302 4700 
Q 1616 4750 1894 4750 
Q 2613 4750 3031 4423 
Q 3450 4097 3450 3541 
Q 3450 3153 3228 2886 
Q 3006 2619 2597 2516 
z
" transform="scale(0.015625)"/>
       </defs>
       <use xlink:href="#DejaVuSans-30"/>
       <use xlink:href="#DejaVuSans-2e" x="63.623047"/>
       <use xlink:href="#DejaVuSans-30" x="95.410156"/>
       <use xlink:href="#DejaVuSans-30" x="159.033203"/>
       <use xlink:href="#DejaVuSans-37" x="222.65625"/>
       <use xlink:href="#DejaVuSans-33" x="286.279297"/>
      </g>
     </g>
    </g>
    <g id="xtick_6">
     <g id="line2d_6">
      <g>
       <use xlink:href="#m689d1d3e15" x="626.995057" y="521.330625" style="stroke: #000000; stroke-width: 0.8"/>
      </g>
     </g>
     <g id="text_6">
      <!-- 0.0074 -->
      <g transform="translate(609.499744 535.929062) scale(0.1 -0.1)">
       <defs>
        <path id="DejaVuSans-34" d="M 2419 4116 
L 825 1625 
L 2419 1625 
L 2419 4116 
z
M 2253 4666 
L 3047 4666 
L 3047 1625 
L 3713 1625 
L 3713 1100 
L 3047 1100 
L 3047 0 
L 2419 0 
L 2419 1100 
L 313 1100 
L 313 1709 
L 2253 4666 
z
" transform="scale(0.015625)"/>
       </defs>
       <use xlink:href="#DejaVuSans-30"/>
       <use xlink:href="#DejaVuSans-2e" x="63.623047"/>
       <use xlink:href="#DejaVuSans-30" x="95.410156"/>
       <use xlink:href="#DejaVuSans-30" x="159.033203"/>
       <use xlink:href="#DejaVuSans-37" x="222.65625"/>
       <use xlink:href="#DejaVuSans-34" x="286.279297"/>
      </g>
     </g>
    </g>
    <g id="xtick_7">
     <g id="line2d_7">
      <g>
       <use xlink:href="#m689d1d3e15" x="732.676875" y="521.330625" style="stroke: #000000; stroke-width: 0.8"/>
      </g>
     </g>
     <g id="text_7">
      <!-- 0.0075 -->
      <g transform="translate(715.181563 535.929062) scale(0.1 -0.1)">
       <defs>
        <path id="DejaVuSans-35" d="M 691 4666 
L 3169 4666 
L 3169 4134 
L 1269 4134 
L 1269 2991 
Q 1406 3038 1543 3061 
Q 1681 3084 1819 3084 
Q 2600 3084 3056 2656 
Q 3513 2228 3513 1497 
Q 3513 744 3044 326 
Q 2575 -91 1722 -91 
Q 1428 -91 1123 -41 
Q 819 9 494 109 
L 494 744 
Q 775 591 1075 516 
Q 1375 441 1709 441 
Q 2250 441 2565 725 
Q 2881 1009 2881 1497 
Q 2881 1984 2565 2268 
Q 2250 2553 1709 2553 
Q 1456 2553 1204 2497 
Q 953 2441 691 2322 
L 691 4666 
z
" transform="scale(0.015625)"/>
       </defs>
       <use xlink:href="#DejaVuSans-30"/>
       <use xlink:href="#DejaVuSans-2e" x="63.623047"/>
       <use xlink:href="#DejaVuSans-30" x="95.410156"/>
       <use xlink:href="#DejaVuSans-30" x="159.033203"/>
       <use xlink:href="#DejaVuSans-37" x="222.65625"/>
       <use xlink:href="#DejaVuSans-35" x="286.279297"/>
      </g>
     </g>
    </g>
    <g id="text_8">
     <!-- t [s] -->
     <g transform="translate(373.522656 549.607188) scale(0.1 -0.1)">
      <defs>
       <path id="DejaVuSans-74" d="M 1172 4494 
L 1172 3500 
L 2356 3500 
L 2356 3053 
L 1172 3053 
L 1172 1153 
Q 1172 725 1289 603 
Q 1406 481 1766 481 
L 2356 481 
L 2356 0 
L 1766 0 
Q 1100 0 847 248 
Q 594 497 594 1153 
L 594 3053 
L 172 3053 
L 172 3500 
L 594 3500 
L 594 4494 
L 1172 4494 
z
" transform="scale(0.015625)"/>
       <path id="DejaVuSans-20" transform="scale(0.015625)"/>
       <path id="DejaVuSans-5b" d="M 550 4863 
L 1875 4863 
L 1875 4416 
L 1125 4416 
L 1125 -397 
L 1875 -397 
L 1875 -844 
L 550 -844 
L 550 4863 
z
" transform="scale(0.015625)"/>
       <path id="DejaVuSans-73" d="M 2834 3397 
L 2834 2853 
Q 2591 2978 2328 3040 
Q 2066 3103 1784 3103 
Q 1356 3103 1142 2972 
Q 928 2841 928 2578 
Q 928 2378 1081 2264 
Q 1234 2150 1697 2047 
L 1894 2003 
Q 2506 1872 2764 1633 
Q 3022 1394 3022 966 
Q 3022 478 2636 193 
Q 2250 -91 1575 -91 
Q 1294 -91 989 -36 
Q 684 19 347 128 
L 347 722 
Q 666 556 975 473 
Q 1284 391 1588 391 
Q 1994 391 2212 530 
Q 2431 669 2431 922 
Q 2431 1156 2273 1281 
Q 2116 1406 1581 1522 
L 1381 1569 
Q 847 1681 609 1914 
Q 372 2147 372 2553 
Q 372 3047 722 3315 
Q 1072 3584 1716 3584 
Q 2034 3584 2315 3537 
Q 2597 3491 2834 3397 
z
" transform="scale(0.015625)"/>
       <path id="DejaVuSans-5d" d="M 1947 4863 
L 1947 -844 
L 622 -844 
L 622 -397 
L 1369 -397 
L 1369 4416 
L 622 4416 
L 622 4863 
L 1947 4863 
z
" transform="scale(0.015625)"/>
      </defs>
      <use xlink:href="#DejaVuSans-74"/>
      <use xlink:href="#DejaVuSans-20" x="39.208984"/>
      <use xlink:href="#DejaVuSans-5b" x="70.996094"/>
      <use xlink:href="#DejaVuSans-73" x="110.009766"/>
      <use xlink:href="#DejaVuSans-5d" x="162.109375"/>
     </g>
    </g>
   </g>
   <g id="matplotlib.axis_2">
    <g id="ytick_1"/>
    <g id="ytick_2"/>
    <g id="ytick_3"/>
    <g id="ytick_4"/>
    <g id="ytick_5"/>
    <g id="ytick_6"/>
    <g id="ytick_7"/>
    <g id="ytick_8"/>
    <g id="ytick_9"/>
    <g id="text_9">
     <!-- runs -->
     <g transform="translate(14.798438 282.848281) rotate(-90) scale(0.1 -0.1)">
      <defs>
       <path id="DejaVuSans-72" d="M 2631 2963 
Q 2534 3019 2420 3045 
Q 2306 3072 2169 3072 
Q 1681 3072 1420 2755 
Q 1159 2438 1159 1844 
L 1159 0 
L 581 0 
L 581 3500 
L 1159 3500 
L 1159 2956 
Q 1341 3275 1631 3429 
Q 1922 3584 2338 3584 
Q 2397 3584 2469 3576 
Q 2541 3569 2628 3553 
L 2631 2963 
z
" transform="scale(0.015625)"/>
       <path id="DejaVuSans-75" d="M 544 1381 
L 544 3500 
L 1119 3500 
L 1119 1403 
Q 1119 906 1312 657 
Q 1506 409 1894 409 
Q 2359 409 2629 706 
Q 2900 1003 2900 1516 
L 2900 3500 
L 3475 3500 
L 3475 0 
L 2900 0 
L 2900 538 
Q 2691 219 2414 64 
Q 2138 -91 1772 -91 
Q 1169 -91 856 284 
Q 544 659 544 1381 
z
M 1991 3584 
L 1991 3584 
z
" transform="scale(0.015625)"/>
       <path id="DejaVuSans-6e" d="M 3513 2113 
L 3513 0 
L 2938 0 
L 2938 2094 
Q 2938 2591 2744 2837 
Q 2550 3084 2163 3084 
Q 1697 3084 1428 2787 
Q 1159 2491 1159 1978 
L 1159 0 
L 581 0 
L 581 3500 
L 1159 3500 
L 1159 2956 
Q 1366 3272 1645 3428 
Q 1925 3584 2291 3584 
Q 2894 3584 3203 3211 
Q 3513 2838 3513 2113 
z
" transform="scale(0.015625)"/>
      </defs>
      <use xlink:href="#DejaVuSans-72"/>
      <use xlink:href="#DejaVuSans-75" x="41.113281"/>
      <use xlink:href="#DejaVuSans-6e" x="104.492188"/>
      <use xlink:href="#DejaVuSans-73" x="167.871094"/>
     </g>
    </g>
   </g>
   <g id="line2d_8">
    <defs>
     <path id="ma0b0a2571a" d="M 0 1 
C 0.265203 1 0.51958 0.894634 0.707107 0.707107 
C 0.894634 0.51958 1 0.265203 1 0 
C 1 -0.265203 0.894634 -0.51958 0.707107 -0.707107 
C 0.51958 -0.894634 0.265203 -1 0 -1 
C -0.265203 -1 -0.51958 -0.894634 -0.707107 -0.707107 
C -0.894634 -0.51958 -1 -0.265203 -1 0 
C -1 0.265203 -0.894634 0.51958 -0.707107 0.707107 
C -0.51958 0.894634 -0.265203 1 0 1 
z
" style="stroke: #1f77b4"/>
    </defs>
    <g clip-path="url(#p7fe971c350)">
     <use xlink:href="#ma0b0a2571a" x="53.850852" y="453.290625" style="fill: #1f77b4; stroke: #1f77b4"/>
     <use xlink:href="#ma0b0a2571a" x="292.025966" y="407.930915" style="fill: #1f77b4; stroke: #1f77b4"/>
     <use xlink:href="#ma0b0a2571a" x="246.360852" y="362.570915" style="fill: #1f77b4; stroke: #1f77b4"/>
     <use xlink:href="#ma0b0a2571a" x="175.469489" y="317.210915" style="fill: #1f77b4; stroke: #1f77b4"/>
     <use xlink:href="#ma0b0a2571a" x="554.909489" y="271.851204" style="fill: #1f77b4; stroke: #1f77b4"/>
     <use xlink:href="#ma0b0a2571a" x="568.426193" y="226.491204" style="fill: #1f77b4; stroke: #1f77b4"/>
     <use xlink:href="#ma0b0a2571a" x="472.30858" y="181.130335" style="fill: #1f77b4; stroke: #1f77b4"/>
     <use xlink:href="#ma0b0a2571a" x="587.10017" y="135.772362" style="fill: #1f77b4; stroke: #1f77b4"/>
     <use xlink:href="#ma0b0a2571a" x="278.329602" y="90.411494" style="fill: #1f77b4; stroke: #1f77b4"/>
     <use xlink:href="#ma0b0a2571a" x="713.305398" y="45.050625" style="fill: #1f77b4; stroke: #1f77b4"/>
    </g>
   </g>
   <g id="line2d_9">
    <path d="M 394.495057 521.330625 
L 394.495057 22.370625 
" clip-path="url(#p7fe971c350)" style="fill: none; stroke: #1f77b4; stroke-width: 1.5; stroke-linecap: square"/>
   </g>
   <g id="patch_3">
    <path d="M 20.878125 521.330625 
L 20.878125 22.370625 
" style="fill: none; stroke: #000000; stroke-width: 0.8; stroke-linejoin: miter; stroke-linecap: square"/>
   </g>
   <g id="patch_4">
    <path d="M 746.278125 521.330625 
L 746.278125 22.370625 
" style="fill: none; stroke: #000000; stroke-width: 0.8; stroke-linejoin: miter; stroke-linecap: square"/>
   </g>
   <g id="patch_5">
    <path d="M 20.878125 521.330625 
L 746.278125 521.330625 
" style="fill: none; stroke: #000000; stroke-width: 0.8; stroke-linejoin: miter; stroke-linecap: square"/>
   </g>
   <g id="patch_6">
    <path d="M 20.878125 22.370625 
L 746.278125 22.370625 
" style="fill: none; stroke: #000000; stroke-width: 0.8; stroke-linejoin: miter; stroke-linecap: square"/>
   </g>
   <g id="text_10">
    <!-- echo 5100 | python3 quicksort.py -->
    <g transform="translate(282.45375 16.370625) scale(0.12 -0.12)">
     <defs>
      <path id="DejaVuSans-65" d="M 3597 1894 
L 3597 1613 
L 953 1613 
Q 991 1019 1311 708 
Q 1631 397 2203 397 
Q 2534 397 2845 478 
Q 3156 559 3463 722 
L 3463 178 
Q 3153 47 2828 -22 
Q 2503 -91 2169 -91 
Q 1331 -91 842 396 
Q 353 884 353 1716 
Q 353 2575 817 3079 
Q 1281 3584 2069 3584 
Q 2775 3584 3186 3129 
Q 3597 2675 3597 1894 
z
M 3022 2063 
Q 3016 2534 2758 2815 
Q 2500 3097 2075 3097 
Q 1594 3097 1305 2825 
Q 1016 2553 972 2059 
L 3022 2063 
z
" transform="scale(0.015625)"/>
      <path id="DejaVuSans-63" d="M 3122 3366 
L 3122 2828 
Q 2878 2963 2633 3030 
Q 2388 3097 2138 3097 
Q 1578 3097 1268 2742 
Q 959 2388 959 1747 
Q 959 1106 1268 751 
Q 1578 397 2138 397 
Q 2388 397 2633 464 
Q 2878 531 3122 666 
L 3122 134 
Q 2881 22 2623 -34 
Q 2366 -91 2075 -91 
Q 1284 -91 818 406 
Q 353 903 353 1747 
Q 353 2603 823 3093 
Q 1294 3584 2113 3584 
Q 2378 3584 2631 3529 
Q 2884 3475 3122 3366 
z
" transform="scale(0.015625)"/>
      <path id="DejaVuSans-68" d="M 3513 2113 
L 3513 0 
L 2938 0 
L 2938 2094 
Q 2938 2591 2744 2837 
Q 2550 3084 2163 3084 
Q 1697 3084 1428 2787 
Q 1159 2491 1159 1978 
L 1159 0 
L 581 0 
L 581 4863 
L 1159 4863 
L 1159 2956 
Q 1366 3272 1645 3428 
Q 1925 3584 2291 3584 
Q 2894 3584 3203 3211 
Q 3513 2838 3513 2113 
z
" transform="scale(0.015625)"/>
      <path id="DejaVuSans-6f" d="M 1959 3097 
Q 1497 3097 1228 2736 
Q 959 2375 959 1747 
Q 959 1119 1226 758 
Q 1494 397 1959 397 
Q 2419 397 2687 759 
Q 2956 1122 2956 1747 
Q 2956 2369 2687 2733 
Q 2419 3097 1959 3097 
z
M 1959 3584 
Q 2709 3584 3137 3096 
Q 3566 2609 3566 1747 
Q 3566 888 3137 398 
Q 2709 -91 1959 -91 
Q 1206 -91 779 398 
Q 353 888 353 1747 
Q 353 2609 779 3096 
Q 1206 3584 1959 3584 
z
" transform="scale(0.015625)"/>
      <path id="DejaVuSans-7c" d="M 1344 4891 
L 1344 -1509 
L 813 -1509 
L 813 4891 
L 1344 4891 
z
" transform="scale(0.015625)"/>
      <path id="DejaVuSans-70" d="M 1159 525 
L 1159 -1331 
L 581 -1331 
L 581 3500 
L 1159 3500 
L 1159 2969 
Q 1341 3281 1617 3432 
Q 1894 3584 2278 3584 
Q 2916 3584 3314 3078 
Q 3713 2572 3713 1747 
Q 3713 922 3314 415 
Q 2916 -91 2278 -91 
Q 1894 -91 1617 61 
Q 1341 213 1159 525 
z
M 3116 1747 
Q 3116 2381 2855 2742 
Q 2594 3103 2138 3103 
Q 1681 3103 1420 2742 
Q 1159 2381 1159 1747 
Q 1159 1113 1420 752 
Q 1681 391 2138 391 
Q 2594 391 2855 752 
Q 3116 1113 3116 1747 
z
" transform="scale(0.015625)"/>
      <path id="DejaVuSans-79" d="M 2059 -325 
Q 1816 -950 1584 -1140 
Q 1353 -1331 966 -1331 
L 506 -1331 
L 506 -850 
L 844 -850 
Q 1081 -850 1212 -737 
Q 1344 -625 1503 -206 
L 1606 56 
L 191 3500 
L 800 3500 
L 1894 763 
L 2988 3500 
L 3597 3500 
L 2059 -325 
z
" transform="scale(0.015625)"/>
      <path id="DejaVuSans-71" d="M 947 1747 
Q 947 1113 1208 752 
Q 1469 391 1925 391 
Q 2381 391 2643 752 
Q 2906 1113 2906 1747 
Q 2906 2381 2643 2742 
Q 2381 3103 1925 3103 
Q 1469 3103 1208 2742 
Q 947 2381 947 1747 
z
M 2906 525 
Q 2725 213 2448 61 
Q 2172 -91 1784 -91 
Q 1150 -91 751 415 
Q 353 922 353 1747 
Q 353 2572 751 3078 
Q 1150 3584 1784 3584 
Q 2172 3584 2448 3432 
Q 2725 3281 2906 2969 
L 2906 3500 
L 3481 3500 
L 3481 -1331 
L 2906 -1331 
L 2906 525 
z
" transform="scale(0.015625)"/>
      <path id="DejaVuSans-69" d="M 603 3500 
L 1178 3500 
L 1178 0 
L 603 0 
L 603 3500 
z
M 603 4863 
L 1178 4863 
L 1178 4134 
L 603 4134 
L 603 4863 
z
" transform="scale(0.015625)"/>
      <path id="DejaVuSans-6b" d="M 581 4863 
L 1159 4863 
L 1159 1991 
L 2875 3500 
L 3609 3500 
L 1753 1863 
L 3688 0 
L 2938 0 
L 1159 1709 
L 1159 0 
L 581 0 
L 581 4863 
z
" transform="scale(0.015625)"/>
     </defs>
     <use xlink:href="#DejaVuSans-65"/>
     <use xlink:href="#DejaVuSans-63" x="61.523438"/>
     <use xlink:href="#DejaVuSans-68" x="116.503906"/>
     <use xlink:href="#DejaVuSans-6f" x="179.882812"/>
     <use xlink:href="#DejaVuSans-20" x="241.064453"/>
     <use xlink:href="#DejaVuSans-35" x="272.851562"/>
     <use xlink:href="#DejaVuSans-31" x="336.474609"/>
     <use xlink:href="#DejaVuSans-30" x="400.097656"/>
     <use xlink:href="#DejaVuSans-30" x="463.720703"/>
     <use xlink:href="#DejaVuSans-20" x="527.34375"/>
     <use xlink:href="#DejaVuSans-7c" x="559.130859"/>
     <use xlink:href="#DejaVuSans-20" x="592.822266"/>
     <use xlink:href="#DejaVuSans-70" x="624.609375"/>
     <use xlink:href="#DejaVuSans-79" x="688.085938"/>
     <use xlink:href="#DejaVuSans-74" x="747.265625"/>
     <use xlink:href="#DejaVuSans-68" x="786.474609"/>
     <use xlink:href="#DejaVuSans-6f" x="849.853516"/>
     <use xlink:href="#DejaVuSans-6e" x="911.035156"/>
     <use xlink:href="#DejaVuSans-33" x="974.414062"/>
     <use xlink:href="#DejaVuSans-20" x="1038.037109"/>
     <use xlink:href="#DejaVuSans-71" x="1069.824219"/>
     <use xlink:href="#DejaVuSans-75" x="1133.300781"/>
     <use xlink:href="#DejaVuSans-69" x="1196.679688"/>
     <use xlink:href="#DejaVuSans-63" x="1224.462891"/>
     <use xlink:href="#DejaVuSans-6b" x="1279.443359"/>
     <use xlink:href="#DejaVuSans-73" x="1337.353516"/>
     <use xlink:href="#DejaVuSans-6f" x="1389.453125"/>
     <use xlink:href="#DejaVuSans-72" x="1450.634766"/>
     <use xlink:href="#DejaVuSans-74" x="1491.748047"/>
     <use xlink:href="#DejaVuSans-2e" x="1530.957031"/>
     <use xlink:href="#DejaVuSans-70" x="1562.744141"/>
     <use xlink:href="#DejaVuSans-79" x="1626.220703"/>
    </g>
   </g>
  </g>
 </g>
 <defs>
  <clipPath id="p7fe971c350">
   <rect x="20.878125" y="22.370625" width="725.4" height="498.96"/>
  </clipPath>
 </defs>
</svg>
