<?xml version="1.0" encoding="utf-8" standalone="no"?>
<!DOCTYPE svg PUBLIC "-//W3C//DTD SVG 1.1//EN"
  "http://www.w3.org/Graphics/SVG/1.1/DTD/svg11.dtd">
<svg xmlns:xlink="http://www.w3.org/1999/xlink" width="460.8pt" height="345.6pt" viewBox="0 0 460.8 345.6" xmlns="http://www.w3.org/2000/svg" version="1.1">
 <metadata>
  <rdf:RDF xmlns:dc="http://purl.org/dc/elements/1.1/" xmlns:cc="http://creativecommons.org/ns#" xmlns:rdf="http://www.w3.org/1999/02/22-rdf-syntax-ns#">
   <cc:Work>
    <dc:type rdf:resource="http://purl.org/dc/dcmitype/StillImage"/>
    <dc:date>2024-01-14T13:49:56.110626</dc:date>
    <dc:format>image/svg+xml</dc:format>
    <dc:creator>
     <cc:Agent>
      <dc:title>Matplotlib v3.7.0, https://matplotlib.org/</dc:title>
     </cc:Agent>
    </dc:creator>
   </cc:Work>
  </rdf:RDF>
 </metadata>
 <defs>
  <style type="text/css">*{stroke-linejoin: round; stroke-linecap: butt}</style>
 </defs>
 <g id="figure_1">
  <g id="patch_1">
   <path d="M 0 345.6 
L 460.8 345.6 
L 460.8 0 
L 0 0 
z
" style="fill: #ffffff"/>
  </g>
  <g id="axes_1">
   <g id="patch_2">
    <path d="M 57.6 307.584 
L 414.72 307.584 
L 414.72 41.472 
L 57.6 41.472 
z
" style="fill: #ffffff"/>
   </g>
   <g id="PolyCollection_1">
    <path d="M 73.832727 139.802085 
L 73.832727 139.802085 
L 75.468708 136.815856 
L 77.075475 133.847472 
L 78.711456 130.899105 
L 80.347436 127.973406 
L 81.983417 125.073028 
L 83.619398 122.200625 
L 85.255379 119.358366 
L 86.89136 116.548903 
L 88.498127 113.774891 
L 90.134107 111.038258 
L 91.770088 108.342139 
L 93.406069 105.688223 
L 95.04205 103.079161 
L 96.67803 100.517366 
L 98.284797 98.005007 
L 99.920778 95.544015 
L 101.556759 93.137042 
L 103.19274 90.785775 
L 104.82872 88.492386 
L 106.464701 86.258803 
L 108.100682 84.087198 
L 109.707449 81.979257 
L 111.34343 79.93667 
L 112.979411 77.961124 
L 114.615391 76.054548 
L 116.251372 74.218149 
L 117.887353 72.453614 
L 119.49412 70.76239 
L 121.130101 69.145442 
L 122.766081 67.604217 
L 124.402062 66.139679 
L 126.038043 64.753035 
L 127.674024 63.445248 
L 129.310004 62.216802 
L 130.916771 61.068661 
L 132.552752 60.001306 
L 134.188733 59.015462 
L 135.824714 58.11137 
L 137.460695 57.289271 
L 139.096675 56.549406 
L 140.703442 55.891775 
L 142.339423 55.316619 
L 143.975404 54.823456 
L 145.611385 54.412044 
L 147.247365 54.081661 
L 148.883346 53.833271 
L 150.519327 53.664462 
L 152.126094 53.577646 
L 153.762075 53.568 
L 155.398055 53.635524 
L 157.034036 53.780217 
L 158.670017 54.00208 
L 160.305998 54.298701 
L 161.912765 54.667187 
L 163.548745 55.108502 
L 165.184726 55.620234 
L 166.820707 56.200936 
L 168.456688 56.84868 
L 170.092669 57.562018 
L 171.728649 58.33878 
L 173.335416 59.177278 
L 174.971397 60.075582 
L 176.607378 61.031282 
L 178.243359 62.042688 
L 179.879339 63.10739 
L 181.51532 64.223457 
L 183.122087 65.387997 
L 184.758068 66.599322 
L 186.394049 67.854777 
L 188.030029 69.152194 
L 189.66601 70.488678 
L 191.301991 71.8623 
L 192.908758 73.270407 
L 194.544739 74.710347 
L 196.180719 76.179949 
L 197.8167 77.676319 
L 199.452681 79.197287 
L 201.088662 80.7402 
L 202.724643 82.302647 
L 204.331409 83.882216 
L 205.96739 85.476495 
L 207.603371 87.082591 
L 209.239352 88.698815 
L 210.875333 90.322274 
L 212.511313 91.951039 
L 214.11808 93.582456 
L 215.754061 95.214355 
L 217.390042 96.844567 
L 219.026023 98.471161 
L 220.662003 100.091967 
L 222.297984 101.704816 
L 223.933965 103.307776 
L 225.540732 104.899162 
L 227.176713 106.476801 
L 228.812693 108.039248 
L 230.448674 109.584573 
L 232.084655 111.111328 
L 233.720636 112.618068 
L 235.327403 114.103345 
L 236.963383 115.565471 
L 238.599364 117.003723 
L 240.235345 118.416412 
L 241.871326 119.802815 
L 243.507307 121.161485 
L 245.143287 122.492182 
L 246.750054 123.793457 
L 248.386035 125.064829 
L 250.022016 126.305815 
L 251.657997 127.515693 
L 253.293977 128.69422 
L 254.929958 129.840673 
L 256.536725 130.955294 
L 258.172706 132.0376 
L 259.808687 133.087591 
L 261.444667 134.105509 
L 263.080648 135.091112 
L 264.716629 136.044641 
L 266.35261 136.966819 
L 267.959377 137.857648 
L 269.595357 138.717609 
L 271.231338 139.547425 
L 272.867319 140.34782 
L 274.5033 141.119277 
L 276.139281 141.862518 
L 277.746047 142.57875 
L 279.382028 143.268455 
L 281.018009 143.933079 
L 282.65399 144.573347 
L 284.289971 145.190464 
L 285.925951 145.785636 
L 287.561932 146.360069 
L 289.168699 146.915209 
L 290.80468 147.452021 
L 292.440661 147.971952 
L 294.076641 148.476691 
L 295.712622 148.967442 
L 297.348603 149.445413 
L 298.95537 149.912531 
L 300.591351 150.369762 
L 302.227331 150.819035 
L 303.863312 151.261796 
L 305.499293 151.699493 
L 307.135274 152.133332 
L 308.771255 152.565242 
L 310.378021 152.996669 
L 312.014002 153.429061 
L 313.649983 153.863623 
L 315.285964 154.302285 
L 316.921945 154.746011 
L 318.557925 155.19649 
L 320.164692 155.655168 
L 321.800673 156.123009 
L 323.436654 156.601703 
L 325.072635 157.092455 
L 326.708615 157.59647 
L 328.344596 158.114954 
L 329.980577 158.648873 
L 331.587344 159.199431 
L 333.223325 159.767593 
L 334.859305 160.354807 
L 336.495286 160.961313 
L 338.131267 161.588559 
L 339.767248 162.237026 
L 341.374015 162.907679 
L 343.009996 163.601243 
L 344.645976 164.318439 
L 346.281957 165.05951 
L 347.917938 165.82542 
L 349.553919 166.616651 
L 351.189899 167.433204 
L 352.796666 168.275802 
L 354.432647 169.144685 
L 356.068628 170.040095 
L 357.704609 170.962274 
L 359.340589 171.911221 
L 360.97657 172.887178 
L 362.583337 173.890144 
L 364.219318 174.920119 
L 365.855299 175.976862 
L 367.49128 177.060133 
L 369.12726 178.170172 
L 370.763241 179.306497 
L 372.399222 180.468867 
L 374.005989 181.656799 
L 375.64197 182.870052 
L 377.27795 184.107904 
L 378.913931 185.370353 
L 380.549912 186.656677 
L 382.185893 187.966151 
L 383.79266 189.298053 
L 385.42864 190.652142 
L 387.064621 192.027452 
L 388.700602 193.42326 
L 390.336583 194.838843 
L 391.972564 196.273477 
L 393.608544 197.726198 
L 395.215311 199.196041 
L 396.851292 200.682283 
L 398.487273 202.183958 
L 398.487273 202.183958 
L 398.487273 295.488 
L 396.851292 295.488 
L 395.215311 295.488 
L 393.608544 295.488 
L 391.972564 295.488 
L 390.336583 295.488 
L 388.700602 295.488 
L 387.064621 295.488 
L 385.42864 295.488 
L 383.79266 295.488 
L 382.185893 295.488 
L 380.549912 295.488 
L 378.913931 295.488 
L 377.27795 295.488 
L 375.64197 295.488 
L 374.005989 295.488 
L 372.399222 295.488 
L 370.763241 295.488 
L 369.12726 295.488 
L 367.49128 295.488 
L 365.855299 295.488 
L 364.219318 295.488 
L 362.583337 295.488 
L 360.97657 295.488 
L 359.340589 295.488 
L 357.704609 295.488 
L 356.068628 295.488 
L 354.432647 295.488 
L 352.796666 295.488 
L 351.189899 295.488 
L 349.553919 295.488 
L 347.917938 295.488 
L 346.281957 295.488 
L 344.645976 295.488 
L 343.009996 295.488 
L 341.374015 295.488 
L 339.767248 295.488 
L 338.131267 295.488 
L 336.495286 295.488 
L 334.859305 295.488 
L 333.223325 295.488 
L 331.587344 295.488 
L 329.980577 295.488 
L 328.344596 295.488 
L 326.708615 295.488 
L 325.072635 295.488 
L 323.436654 295.488 
L 321.800673 295.488 
L 320.164692 295.488 
L 318.557925 295.488 
L 316.921945 295.488 
L 315.285964 295.488 
L 313.649983 295.488 
L 312.014002 295.488 
L 310.378021 295.488 
L 308.771255 295.488 
L 307.135274 295.488 
L 305.499293 295.488 
L 303.863312 295.488 
L 302.227331 295.488 
L 300.591351 295.488 
L 298.95537 295.488 
L 297.348603 295.488 
L 295.712622 295.488 
L 294.076641 295.488 
L 292.440661 295.488 
L 290.80468 295.488 
L 289.168699 295.488 
L 287.561932 295.488 
L 285.925951 295.488 
L 284.289971 295.488 
L 282.65399 295.488 
L 281.018009 295.488 
L 279.382028 295.488 
L 277.746047 295.488 
L 276.139281 295.488 
L 274.5033 295.488 
L 272.867319 295.488 
L 271.231338 295.488 
L 269.595357 295.488 
L 267.959377 295.488 
L 266.35261 295.488 
L 264.716629 295.488 
L 263.080648 295.488 
L 261.444667 295.488 
L 259.808687 295.488 
L 258.172706 295.488 
L 256.536725 295.488 
L 254.929958 295.488 
L 253.293977 295.488 
L 251.657997 295.488 
L 250.022016 295.488 
L 248.386035 295.488 
L 246.750054 295.488 
L 245.143287 295.488 
L 243.507307 295.488 
L 241.871326 295.488 
L 240.235345 295.488 
L 238.599364 295.488 
L 236.963383 295.488 
L 235.327403 295.488 
L 233.720636 295.488 
L 232.084655 295.488 
L 230.448674 295.488 
L 228.812693 295.488 
L 227.176713 295.488 
L 225.540732 295.488 
L 223.933965 295.488 
L 222.297984 295.488 
L 220.662003 295.488 
L 219.026023 295.488 
L 217.390042 295.488 
L 215.754061 295.488 
L 214.11808 295.488 
L 212.511313 295.488 
L 210.875333 295.488 
L 209.239352 295.488 
L 207.603371 295.488 
L 205.96739 295.488 
L 204.331409 295.488 
L 202.724643 295.488 
L 201.088662 295.488 
L 199.452681 295.488 
L 197.8167 295.488 
L 196.180719 295.488 
L 194.544739 295.488 
L 192.908758 295.488 
L 191.301991 295.488 
L 189.66601 295.488 
L 188.030029 295.488 
L 186.394049 295.488 
L 184.758068 295.488 
L 183.122087 295.488 
L 181.51532 295.488 
L 179.879339 295.488 
L 178.243359 295.488 
L 176.607378 295.488 
L 174.971397 295.488 
L 173.335416 295.488 
L 171.728649 295.488 
L 170.092669 295.488 
L 168.456688 295.488 
L 166.820707 295.488 
L 165.184726 295.488 
L 163.548745 295.488 
L 161.912765 295.488 
L 160.305998 295.488 
L 158.670017 295.488 
L 157.034036 295.488 
L 155.398055 295.488 
L 153.762075 295.488 
L 152.126094 295.488 
L 150.519327 295.488 
L 148.883346 295.488 
L 147.247365 295.488 
L 145.611385 295.488 
L 143.975404 295.488 
L 142.339423 295.488 
L 140.703442 295.488 
L 139.096675 295.488 
L 137.460695 295.488 
L 135.824714 295.488 
L 134.188733 295.488 
L 132.552752 295.488 
L 130.916771 295.488 
L 129.310004 295.488 
L 127.674024 295.488 
L 126.038043 295.488 
L 124.402062 295.488 
L 122.766081 295.488 
L 121.130101 295.488 
L 119.49412 295.488 
L 117.887353 295.488 
L 116.251372 295.488 
L 114.615391 295.488 
L 112.979411 295.488 
L 111.34343 295.488 
L 109.707449 295.488 
L 108.100682 295.488 
L 106.464701 295.488 
L 104.82872 295.488 
L 103.19274 295.488 
L 101.556759 295.488 
L 99.920778 295.488 
L 98.284797 295.488 
L 96.67803 295.488 
L 95.04205 295.488 
L 93.406069 295.488 
L 91.770088 295.488 
L 90.134107 295.488 
L 88.498127 295.488 
L 86.89136 295.488 
L 85.255379 295.488 
L 83.619398 295.488 
L 81.983417 295.488 
L 80.347436 295.488 
L 78.711456 295.488 
L 77.075475 295.488 
L 75.468708 295.488 
L 73.832727 295.488 
z
" clip-path="url(#p62ce5eb821)" style="fill: #1f77b4; fill-opacity: 0.25"/>
   </g>
   <g id="matplotlib.axis_1">
    <g id="xtick_1">
     <g id="line2d_1">
      <defs>
       <path id="m25361e4b7e" d="M 0 0 
L 0 3.5 
" style="stroke: #000000; stroke-width: 0.8"/>
      </defs>
      <g>
       <use xlink:href="#m25361e4b7e" x="58.670691" y="307.584" style="stroke: #000000; stroke-width: 0.8"/>
      </g>
     </g>
     <g id="text_1">
      <!-- 0.0128 -->
      <g transform="translate(41.175379 322.182437) scale(0.1 -0.1)">
       <defs>
        <path id="DejaVuSans-30" d="M 2034 4250 
Q 1547 4250 1301 3770 
Q 1056 3291 1056 2328 
Q 1056 1369 1301 889 
Q 1547 409 2034 409 
Q 2525 409 2770 889 
Q 3016 1369 3016 2328 
Q 3016 3291 2770 3770 
Q 2525 4250 2034 4250 
z
M 2034 4750 
Q 2819 4750 3233 4129 
Q 3647 3509 3647 2328 
Q 3647 1150 3233 529 
Q 2819 -91 2034 -91 
Q 1250 -91 836 529 
Q 422 1150 422 2328 
Q 422 3509 836 4129 
Q 1250 4750 2034 4750 
z
" transform="scale(0.015625)"/>
        <path id="DejaVuSans-2e" d="M 684 794 
L 1344 794 
L 1344 0 
L 684 0 
L 684 794 
z
" transform="scale(0.015625)"/>
        <path id="DejaVuSans-31" d="M 794 531 
L 1825 531 
L 1825 4091 
L 703 3866 
L 703 4441 
L 1819 4666 
L 2450 4666 
L 2450 531 
L 3481 531 
L 3481 0 
L 794 0 
L 794 531 
z
" transform="scale(0.015625)"/>
        <path id="DejaVuSans-32" d="M 1228 531 
L 3431 531 
L 3431 0 
L 469 0 
L 469 531 
Q 828 903 1448 1529 
Q 2069 2156 2228 2338 
Q 2531 2678 2651 2914 
Q 2772 3150 2772 3378 
Q 2772 3750 2511 3984 
Q 2250 4219 1831 4219 
Q 1534 4219 1204 4116 
Q 875 4013 500 3803 
L 500 4441 
Q 881 4594 1212 4672 
Q 1544 4750 1819 4750 
Q 2544 4750 2975 4387 
Q 3406 4025 3406 3419 
Q 3406 3131 3298 2873 
Q 3191 2616 2906 2266 
Q 2828 2175 2409 1742 
Q 1991 1309 1228 531 
z
" transform="scale(0.015625)"/>
        <path id="DejaVuSans-38" d="M 2034 2216 
Q 1584 2216 1326 1975 
Q 1069 1734 1069 1313 
Q 1069 891 1326 650 
Q 1584 409 2034 409 
Q 2484 409 2743 651 
Q 3003 894 3003 1313 
Q 3003 1734 2745 1975 
Q 2488 2216 2034 2216 
z
M 1403 2484 
Q 997 2584 770 2862 
Q 544 3141 544 3541 
Q 544 4100 942 4425 
Q 1341 4750 2034 4750 
Q 2731 4750 3128 4425 
Q 3525 4100 3525 3541 
Q 3525 3141 3298 2862 
Q 3072 2584 2669 2484 
Q 3125 2378 3379 2068 
Q 3634 1759 3634 1313 
Q 3634 634 3220 271 
Q 2806 -91 2034 -91 
Q 1263 -91 848 271 
Q 434 634 434 1313 
Q 434 1759 690 2068 
Q 947 2378 1403 2484 
z
M 1172 3481 
Q 1172 3119 1398 2916 
Q 1625 2713 2034 2713 
Q 2441 2713 2670 2916 
Q 2900 3119 2900 3481 
Q 2900 3844 2670 4047 
Q 2441 4250 2034 4250 
Q 1625 4250 1398 4047 
Q 1172 3844 1172 3481 
z
" transform="scale(0.015625)"/>
       </defs>
       <use xlink:href="#DejaVuSans-30"/>
       <use xlink:href="#DejaVuSans-2e" x="63.623047"/>
       <use xlink:href="#DejaVuSans-30" x="95.410156"/>
       <use xlink:href="#DejaVuSans-31" x="159.033203"/>
       <use xlink:href="#DejaVuSans-32" x="222.65625"/>
       <use xlink:href="#DejaVuSans-38" x="286.279297"/>
      </g>
     </g>
    </g>
    <g id="xtick_2">
     <g id="line2d_2">
      <g>
       <use xlink:href="#m25361e4b7e" x="117.098576" y="307.584" style="stroke: #000000; stroke-width: 0.8"/>
      </g>
     </g>
     <g id="text_2">
      <!-- 0.0130 -->
      <g transform="translate(99.603264 322.182437) scale(0.1 -0.1)">
       <defs>
        <path id="DejaVuSans-33" d="M 2597 2516 
Q 3050 2419 3304 2112 
Q 3559 1806 3559 1356 
Q 3559 666 3084 287 
Q 2609 -91 1734 -91 
Q 1441 -91 1130 -33 
Q 819 25 488 141 
L 488 750 
Q 750 597 1062 519 
Q 1375 441 1716 441 
Q 2309 441 2620 675 
Q 2931 909 2931 1356 
Q 2931 1769 2642 2001 
Q 2353 2234 1838 2234 
L 1294 2234 
L 1294 2753 
L 1863 2753 
Q 2328 2753 2575 2939 
Q 2822 3125 2822 3475 
Q 2822 3834 2567 4026 
Q 2313 4219 1838 4219 
Q 1578 4219 1281 4162 
Q 984 4106 628 3988 
L 628 4550 
Q 988 4650 1302 4700 
Q 1616 4750 1894 4750 
Q 2613 4750 3031 4423 
Q 3450 4097 3450 3541 
Q 3450 3153 3228 2886 
Q 3006 2619 2597 2516 
z
" transform="scale(0.015625)"/>
       </defs>
       <use xlink:href="#DejaVuSans-30"/>
       <use xlink:href="#DejaVuSans-2e" x="63.623047"/>
       <use xlink:href="#DejaVuSans-30" x="95.410156"/>
       <use xlink:href="#DejaVuSans-31" x="159.033203"/>
       <use xlink:href="#DejaVuSans-33" x="222.65625"/>
       <use xlink:href="#DejaVuSans-30" x="286.279297"/>
      </g>
     </g>
    </g>
    <g id="xtick_3">
     <g id="line2d_3">
      <g>
       <use xlink:href="#m25361e4b7e" x="175.526462" y="307.584" style="stroke: #000000; stroke-width: 0.8"/>
      </g>
     </g>
     <g id="text_3">
      <!-- 0.0132 -->
      <g transform="translate(158.031149 322.182437) scale(0.1 -0.1)">
       <use xlink:href="#DejaVuSans-30"/>
       <use xlink:href="#DejaVuSans-2e" x="63.623047"/>
       <use xlink:href="#DejaVuSans-30" x="95.410156"/>
       <use xlink:href="#DejaVuSans-31" x="159.033203"/>
       <use xlink:href="#DejaVuSans-33" x="222.65625"/>
       <use xlink:href="#DejaVuSans-32" x="286.279297"/>
      </g>
     </g>
    </g>
    <g id="xtick_4">
     <g id="line2d_4">
      <g>
       <use xlink:href="#m25361e4b7e" x="233.954347" y="307.584" style="stroke: #000000; stroke-width: 0.8"/>
      </g>
     </g>
     <g id="text_4">
      <!-- 0.0134 -->
      <g transform="translate(216.459035 322.182437) scale(0.1 -0.1)">
       <defs>
        <path id="DejaVuSans-34" d="M 2419 4116 
L 825 1625 
L 2419 1625 
L 2419 4116 
z
M 2253 4666 
L 3047 4666 
L 3047 1625 
L 3713 1625 
L 3713 1100 
L 3047 1100 
L 3047 0 
L 2419 0 
L 2419 1100 
L 313 1100 
L 313 1709 
L 2253 4666 
z
" transform="scale(0.015625)"/>
       </defs>
       <use xlink:href="#DejaVuSans-30"/>
       <use xlink:href="#DejaVuSans-2e" x="63.623047"/>
       <use xlink:href="#DejaVuSans-30" x="95.410156"/>
       <use xlink:href="#DejaVuSans-31" x="159.033203"/>
       <use xlink:href="#DejaVuSans-33" x="222.65625"/>
       <use xlink:href="#DejaVuSans-34" x="286.279297"/>
      </g>
     </g>
    </g>
    <g id="xtick_5">
     <g id="line2d_5">
      <g>
       <use xlink:href="#m25361e4b7e" x="292.382233" y="307.584" style="stroke: #000000; stroke-width: 0.8"/>
      </g>
     </g>
     <g id="text_5">
      <!-- 0.0136 -->
      <g transform="translate(274.88692 322.182437) scale(0.1 -0.1)">
       <defs>
        <path id="DejaVuSans-36" d="M 2113 2584 
Q 1688 2584 1439 2293 
Q 1191 2003 1191 1497 
Q 1191 994 1439 701 
Q 1688 409 2113 409 
Q 2538 409 2786 701 
Q 3034 994 3034 1497 
Q 3034 2003 2786 2293 
Q 2538 2584 2113 2584 
z
M 3366 4563 
L 3366 3988 
Q 3128 4100 2886 4159 
Q 2644 4219 2406 4219 
Q 1781 4219 1451 3797 
Q 1122 3375 1075 2522 
Q 1259 2794 1537 2939 
Q 1816 3084 2150 3084 
Q 2853 3084 3261 2657 
Q 3669 2231 3669 1497 
Q 3669 778 3244 343 
Q 2819 -91 2113 -91 
Q 1303 -91 875 529 
Q 447 1150 447 2328 
Q 447 3434 972 4092 
Q 1497 4750 2381 4750 
Q 2619 4750 2861 4703 
Q 3103 4656 3366 4563 
z
" transform="scale(0.015625)"/>
       </defs>
       <use xlink:href="#DejaVuSans-30"/>
       <use xlink:href="#DejaVuSans-2e" x="63.623047"/>
       <use xlink:href="#DejaVuSans-30" x="95.410156"/>
       <use xlink:href="#DejaVuSans-31" x="159.033203"/>
       <use xlink:href="#DejaVuSans-33" x="222.65625"/>
       <use xlink:href="#DejaVuSans-36" x="286.279297"/>
      </g>
     </g>
    </g>
    <g id="xtick_6">
     <g id="line2d_6">
      <g>
       <use xlink:href="#m25361e4b7e" x="350.810118" y="307.584" style="stroke: #000000; stroke-width: 0.8"/>
      </g>
     </g>
     <g id="text_6">
      <!-- 0.0138 -->
      <g transform="translate(333.314806 322.182437) scale(0.1 -0.1)">
       <use xlink:href="#DejaVuSans-30"/>
       <use xlink:href="#DejaVuSans-2e" x="63.623047"/>
       <use xlink:href="#DejaVuSans-30" x="95.410156"/>
       <use xlink:href="#DejaVuSans-31" x="159.033203"/>
       <use xlink:href="#DejaVuSans-33" x="222.65625"/>
       <use xlink:href="#DejaVuSans-38" x="286.279297"/>
      </g>
     </g>
    </g>
    <g id="xtick_7">
     <g id="line2d_7">
      <g>
       <use xlink:href="#m25361e4b7e" x="409.238004" y="307.584" style="stroke: #000000; stroke-width: 0.8"/>
      </g>
     </g>
     <g id="text_7">
      <!-- 0.0140 -->
      <g transform="translate(391.742691 322.182437) scale(0.1 -0.1)">
       <use xlink:href="#DejaVuSans-30"/>
       <use xlink:href="#DejaVuSans-2e" x="63.623047"/>
       <use xlink:href="#DejaVuSans-30" x="95.410156"/>
       <use xlink:href="#DejaVuSans-31" x="159.033203"/>
       <use xlink:href="#DejaVuSans-34" x="222.65625"/>
       <use xlink:href="#DejaVuSans-30" x="286.279297"/>
      </g>
     </g>
    </g>
    <g id="text_8">
     <!-- t [s] -->
     <g transform="translate(226.104531 335.860562) scale(0.1 -0.1)">
      <defs>
       <path id="DejaVuSans-74" d="M 1172 4494 
L 1172 3500 
L 2356 3500 
L 2356 3053 
L 1172 3053 
L 1172 1153 
Q 1172 725 1289 603 
Q 1406 481 1766 481 
L 2356 481 
L 2356 0 
L 1766 0 
Q 1100 0 847 248 
Q 594 497 594 1153 
L 594 3053 
L 172 3053 
L 172 3500 
L 594 3500 
L 594 4494 
L 1172 4494 
z
" transform="scale(0.015625)"/>
       <path id="DejaVuSans-20" transform="scale(0.015625)"/>
       <path id="DejaVuSans-5b" d="M 550 4863 
L 1875 4863 
L 1875 4416 
L 1125 4416 
L 1125 -397 
L 1875 -397 
L 1875 -844 
L 550 -844 
L 550 4863 
z
" transform="scale(0.015625)"/>
       <path id="DejaVuSans-73" d="M 2834 3397 
L 2834 2853 
Q 2591 2978 2328 3040 
Q 2066 3103 1784 3103 
Q 1356 3103 1142 2972 
Q 928 2841 928 2578 
Q 928 2378 1081 2264 
Q 1234 2150 1697 2047 
L 1894 2003 
Q 2506 1872 2764 1633 
Q 3022 1394 3022 966 
Q 3022 478 2636 193 
Q 2250 -91 1575 -91 
Q 1294 -91 989 -36 
Q 684 19 347 128 
L 347 722 
Q 666 556 975 473 
Q 1284 391 1588 391 
Q 1994 391 2212 530 
Q 2431 669 2431 922 
Q 2431 1156 2273 1281 
Q 2116 1406 1581 1522 
L 1381 1569 
Q 847 1681 609 1914 
Q 372 2147 372 2553 
Q 372 3047 722 3315 
Q 1072 3584 1716 3584 
Q 2034 3584 2315 3537 
Q 2597 3491 2834 3397 
z
" transform="scale(0.015625)"/>
       <path id="DejaVuSans-5d" d="M 1947 4863 
L 1947 -844 
L 622 -844 
L 622 -397 
L 1369 -397 
L 1369 4416 
L 622 4416 
L 622 4863 
L 1947 4863 
z
" transform="scale(0.015625)"/>
      </defs>
      <use xlink:href="#DejaVuSans-74"/>
      <use xlink:href="#DejaVuSans-20" x="39.208984"/>
      <use xlink:href="#DejaVuSans-5b" x="70.996094"/>
      <use xlink:href="#DejaVuSans-73" x="110.009766"/>
      <use xlink:href="#DejaVuSans-5d" x="162.109375"/>
     </g>
    </g>
   </g>
   <g id="matplotlib.axis_2">
    <g id="ytick_1"/>
    <g id="ytick_2"/>
    <g id="ytick_3"/>
    <g id="ytick_4"/>
    <g id="ytick_5"/>
    <g id="ytick_6"/>
    <g id="text_9">
     <!-- probability density -->
     <g transform="translate(51.520312 221.125656) rotate(-90) scale(0.1 -0.1)">
      <defs>
       <path id="DejaVuSans-70" d="M 1159 525 
L 1159 -1331 
L 581 -1331 
L 581 3500 
L 1159 3500 
L 1159 2969 
Q 1341 3281 1617 3432 
Q 1894 3584 2278 3584 
Q 2916 3584 3314 3078 
Q 3713 2572 3713 1747 
Q 3713 922 3314 415 
Q 2916 -91 2278 -91 
Q 1894 -91 1617 61 
Q 1341 213 1159 525 
z
M 3116 1747 
Q 3116 2381 2855 2742 
Q 2594 3103 2138 3103 
Q 1681 3103 1420 2742 
Q 1159 2381 1159 1747 
Q 1159 1113 1420 752 
Q 1681 391 2138 391 
Q 2594 391 2855 752 
Q 3116 1113 3116 1747 
z
" transform="scale(0.015625)"/>
       <path id="DejaVuSans-72" d="M 2631 2963 
Q 2534 3019 2420 3045 
Q 2306 3072 2169 3072 
Q 1681 3072 1420 2755 
Q 1159 2438 1159 1844 
L 1159 0 
L 581 0 
L 581 3500 
L 1159 3500 
L 1159 2956 
Q 1341 3275 1631 3429 
Q 1922 3584 2338 3584 
Q 2397 3584 2469 3576 
Q 2541 3569 2628 3553 
L 2631 2963 
z
" transform="scale(0.015625)"/>
       <path id="DejaVuSans-6f" d="M 1959 3097 
Q 1497 3097 1228 2736 
Q 959 2375 959 1747 
Q 959 1119 1226 758 
Q 1494 397 1959 397 
Q 2419 397 2687 759 
Q 2956 1122 2956 1747 
Q 2956 2369 2687 2733 
Q 2419 3097 1959 3097 
z
M 1959 3584 
Q 2709 3584 3137 3096 
Q 3566 2609 3566 1747 
Q 3566 888 3137 398 
Q 2709 -91 1959 -91 
Q 1206 -91 779 398 
Q 353 888 353 1747 
Q 353 2609 779 3096 
Q 1206 3584 1959 3584 
z
" transform="scale(0.015625)"/>
       <path id="DejaVuSans-62" d="M 3116 1747 
Q 3116 2381 2855 2742 
Q 2594 3103 2138 3103 
Q 1681 3103 1420 2742 
Q 1159 2381 1159 1747 
Q 1159 1113 1420 752 
Q 1681 391 2138 391 
Q 2594 391 2855 752 
Q 3116 1113 3116 1747 
z
M 1159 2969 
Q 1341 3281 1617 3432 
Q 1894 3584 2278 3584 
Q 2916 3584 3314 3078 
Q 3713 2572 3713 1747 
Q 3713 922 3314 415 
Q 2916 -91 2278 -91 
Q 1894 -91 1617 61 
Q 1341 213 1159 525 
L 1159 0 
L 581 0 
L 581 4863 
L 1159 4863 
L 1159 2969 
z
" transform="scale(0.015625)"/>
       <path id="DejaVuSans-61" d="M 2194 1759 
Q 1497 1759 1228 1600 
Q 959 1441 959 1056 
Q 959 750 1161 570 
Q 1363 391 1709 391 
Q 2188 391 2477 730 
Q 2766 1069 2766 1631 
L 2766 1759 
L 2194 1759 
z
M 3341 1997 
L 3341 0 
L 2766 0 
L 2766 531 
Q 2569 213 2275 61 
Q 1981 -91 1556 -91 
Q 1019 -91 701 211 
Q 384 513 384 1019 
Q 384 1609 779 1909 
Q 1175 2209 1959 2209 
L 2766 2209 
L 2766 2266 
Q 2766 2663 2505 2880 
Q 2244 3097 1772 3097 
Q 1472 3097 1187 3025 
Q 903 2953 641 2809 
L 641 3341 
Q 956 3463 1253 3523 
Q 1550 3584 1831 3584 
Q 2591 3584 2966 3190 
Q 3341 2797 3341 1997 
z
" transform="scale(0.015625)"/>
       <path id="DejaVuSans-69" d="M 603 3500 
L 1178 3500 
L 1178 0 
L 603 0 
L 603 3500 
z
M 603 4863 
L 1178 4863 
L 1178 4134 
L 603 4134 
L 603 4863 
z
" transform="scale(0.015625)"/>
       <path id="DejaVuSans-6c" d="M 603 4863 
L 1178 4863 
L 1178 0 
L 603 0 
L 603 4863 
z
" transform="scale(0.015625)"/>
       <path id="DejaVuSans-79" d="M 2059 -325 
Q 1816 -950 1584 -1140 
Q 1353 -1331 966 -1331 
L 506 -1331 
L 506 -850 
L 844 -850 
Q 1081 -850 1212 -737 
Q 1344 -625 1503 -206 
L 1606 56 
L 191 3500 
L 800 3500 
L 1894 763 
L 2988 3500 
L 3597 3500 
L 2059 -325 
z
" transform="scale(0.015625)"/>
       <path id="DejaVuSans-64" d="M 2906 2969 
L 2906 4863 
L 3481 4863 
L 3481 0 
L 2906 0 
L 2906 525 
Q 2725 213 2448 61 
Q 2172 -91 1784 -91 
Q 1150 -91 751 415 
Q 353 922 353 1747 
Q 353 2572 751 3078 
Q 1150 3584 1784 3584 
Q 2172 3584 2448 3432 
Q 2725 3281 2906 2969 
z
M 947 1747 
Q 947 1113 1208 752 
Q 1469 391 1925 391 
Q 2381 391 2643 752 
Q 2906 1113 2906 1747 
Q 2906 2381 2643 2742 
Q 2381 3103 1925 3103 
Q 1469 3103 1208 2742 
Q 947 2381 947 1747 
z
" transform="scale(0.015625)"/>
       <path id="DejaVuSans-65" d="M 3597 1894 
L 3597 1613 
L 953 1613 
Q 991 1019 1311 708 
Q 1631 397 2203 397 
Q 2534 397 2845 478 
Q 3156 559 3463 722 
L 3463 178 
Q 3153 47 2828 -22 
Q 2503 -91 2169 -91 
Q 1331 -91 842 396 
Q 353 884 353 1716 
Q 353 2575 817 3079 
Q 1281 3584 2069 3584 
Q 2775 3584 3186 3129 
Q 3597 2675 3597 1894 
z
M 3022 2063 
Q 3016 2534 2758 2815 
Q 2500 3097 2075 3097 
Q 1594 3097 1305 2825 
Q 1016 2553 972 2059 
L 3022 2063 
z
" transform="scale(0.015625)"/>
       <path id="DejaVuSans-6e" d="M 3513 2113 
L 3513 0 
L 2938 0 
L 2938 2094 
Q 2938 2591 2744 2837 
Q 2550 3084 2163 3084 
Q 1697 3084 1428 2787 
Q 1159 2491 1159 1978 
L 1159 0 
L 581 0 
L 581 3500 
L 1159 3500 
L 1159 2956 
Q 1366 3272 1645 3428 
Q 1925 3584 2291 3584 
Q 2894 3584 3203 3211 
Q 3513 2838 3513 2113 
z
" transform="scale(0.015625)"/>
      </defs>
      <use xlink:href="#DejaVuSans-70"/>
      <use xlink:href="#DejaVuSans-72" x="63.476562"/>
      <use xlink:href="#DejaVuSans-6f" x="102.339844"/>
      <use xlink:href="#DejaVuSans-62" x="163.521484"/>
      <use xlink:href="#DejaVuSans-61" x="226.998047"/>
      <use xlink:href="#DejaVuSans-62" x="288.277344"/>
      <use xlink:href="#DejaVuSans-69" x="351.753906"/>
      <use xlink:href="#DejaVuSans-6c" x="379.537109"/>
      <use xlink:href="#DejaVuSans-69" x="407.320312"/>
      <use xlink:href="#DejaVuSans-74" x="435.103516"/>
      <use xlink:href="#DejaVuSans-79" x="474.3125"/>
      <use xlink:href="#DejaVuSans-20" x="533.492188"/>
      <use xlink:href="#DejaVuSans-64" x="565.279297"/>
      <use xlink:href="#DejaVuSans-65" x="628.755859"/>
      <use xlink:href="#DejaVuSans-6e" x="690.279297"/>
      <use xlink:href="#DejaVuSans-73" x="753.658203"/>
      <use xlink:href="#DejaVuSans-69" x="805.757812"/>
      <use xlink:href="#DejaVuSans-74" x="833.541016"/>
      <use xlink:href="#DejaVuSans-79" x="872.75"/>
     </g>
    </g>
   </g>
   <g id="LineCollection_1">
    <path d="M 212.511313 295.488 
L 212.511313 91.96599 
" clip-path="url(#p62ce5eb821)" style="fill: none; stroke: #1f77b4; stroke-width: 1.5"/>
   </g>
   <g id="patch_3">
    <path d="M 57.6 307.584 
L 57.6 41.472 
" style="fill: none; stroke: #000000; stroke-width: 0.8; stroke-linejoin: miter; stroke-linecap: square"/>
   </g>
   <g id="patch_4">
    <path d="M 414.72 307.584 
L 414.72 41.472 
" style="fill: none; stroke: #000000; stroke-width: 0.8; stroke-linejoin: miter; stroke-linecap: square"/>
   </g>
   <g id="patch_5">
    <path d="M 57.6 307.584 
L 414.72 307.584 
" style="fill: none; stroke: #000000; stroke-width: 0.8; stroke-linejoin: miter; stroke-linecap: square"/>
   </g>
   <g id="patch_6">
    <path d="M 57.6 41.472 
L 414.72 41.472 
" style="fill: none; stroke: #000000; stroke-width: 0.8; stroke-linejoin: miter; stroke-linecap: square"/>
   </g>
   <g id="text_10">
    <!-- echo 9100 | python3 quicksort.py -->
    <g transform="translate(135.035625 35.472) scale(0.12 -0.12)">
     <defs>
      <path id="DejaVuSans-63" d="M 3122 3366 
L 3122 2828 
Q 2878 2963 2633 3030 
Q 2388 3097 2138 3097 
Q 1578 3097 1268 2742 
Q 959 2388 959 1747 
Q 959 1106 1268 751 
Q 1578 397 2138 397 
Q 2388 397 2633 464 
Q 2878 531 3122 666 
L 3122 134 
Q 2881 22 2623 -34 
Q 2366 -91 2075 -91 
Q 1284 -91 818 406 
Q 353 903 353 1747 
Q 353 2603 823 3093 
Q 1294 3584 2113 3584 
Q 2378 3584 2631 3529 
Q 2884 3475 3122 3366 
z
" transform="scale(0.015625)"/>
      <path id="DejaVuSans-68" d="M 3513 2113 
L 3513 0 
L 2938 0 
L 2938 2094 
Q 2938 2591 2744 2837 
Q 2550 3084 2163 3084 
Q 1697 3084 1428 2787 
Q 1159 2491 1159 1978 
L 1159 0 
L 581 0 
L 581 4863 
L 1159 4863 
L 1159 2956 
Q 1366 3272 1645 3428 
Q 1925 3584 2291 3584 
Q 2894 3584 3203 3211 
Q 3513 2838 3513 2113 
z
" transform="scale(0.015625)"/>
      <path id="DejaVuSans-39" d="M 703 97 
L 703 672 
Q 941 559 1184 500 
Q 1428 441 1663 441 
Q 2288 441 2617 861 
Q 2947 1281 2994 2138 
Q 2813 1869 2534 1725 
Q 2256 1581 1919 1581 
Q 1219 1581 811 2004 
Q 403 2428 403 3163 
Q 403 3881 828 4315 
Q 1253 4750 1959 4750 
Q 2769 4750 3195 4129 
Q 3622 3509 3622 2328 
Q 3622 1225 3098 567 
Q 2575 -91 1691 -91 
Q 1453 -91 1209 -44 
Q 966 3 703 97 
z
M 1959 2075 
Q 2384 2075 2632 2365 
Q 2881 2656 2881 3163 
Q 2881 3666 2632 3958 
Q 2384 4250 1959 4250 
Q 1534 4250 1286 3958 
Q 1038 3666 1038 3163 
Q 1038 2656 1286 2365 
Q 1534 2075 1959 2075 
z
" transform="scale(0.015625)"/>
      <path id="DejaVuSans-7c" d="M 1344 4891 
L 1344 -1509 
L 813 -1509 
L 813 4891 
L 1344 4891 
z
" transform="scale(0.015625)"/>
      <path id="DejaVuSans-71" d="M 947 1747 
Q 947 1113 1208 752 
Q 1469 391 1925 391 
Q 2381 391 2643 752 
Q 2906 1113 2906 1747 
Q 2906 2381 2643 2742 
Q 2381 3103 1925 3103 
Q 1469 3103 1208 2742 
Q 947 2381 947 1747 
z
M 2906 525 
Q 2725 213 2448 61 
Q 2172 -91 1784 -91 
Q 1150 -91 751 415 
Q 353 922 353 1747 
Q 353 2572 751 3078 
Q 1150 3584 1784 3584 
Q 2172 3584 2448 3432 
Q 2725 3281 2906 2969 
L 2906 3500 
L 3481 3500 
L 3481 -1331 
L 2906 -1331 
L 2906 525 
z
" transform="scale(0.015625)"/>
      <path id="DejaVuSans-75" d="M 544 1381 
L 544 3500 
L 1119 3500 
L 1119 1403 
Q 1119 906 1312 657 
Q 1506 409 1894 409 
Q 2359 409 2629 706 
Q 2900 1003 2900 1516 
L 2900 3500 
L 3475 3500 
L 3475 0 
L 2900 0 
L 2900 538 
Q 2691 219 2414 64 
Q 2138 -91 1772 -91 
Q 1169 -91 856 284 
Q 544 659 544 1381 
z
M 1991 3584 
L 1991 3584 
z
" transform="scale(0.015625)"/>
      <path id="DejaVuSans-6b" d="M 581 4863 
L 1159 4863 
L 1159 1991 
L 2875 3500 
L 3609 3500 
L 1753 1863 
L 3688 0 
L 2938 0 
L 1159 1709 
L 1159 0 
L 581 0 
L 581 4863 
z
" transform="scale(0.015625)"/>
     </defs>
     <use xlink:href="#DejaVuSans-65"/>
     <use xlink:href="#DejaVuSans-63" x="61.523438"/>
     <use xlink:href="#DejaVuSans-68" x="116.503906"/>
     <use xlink:href="#DejaVuSans-6f" x="179.882812"/>
     <use xlink:href="#DejaVuSans-20" x="241.064453"/>
     <use xlink:href="#DejaVuSans-39" x="272.851562"/>
     <use xlink:href="#DejaVuSans-31" x="336.474609"/>
     <use xlink:href="#DejaVuSans-30" x="400.097656"/>
     <use xlink:href="#DejaVuSans-30" x="463.720703"/>
     <use xlink:href="#DejaVuSans-20" x="527.34375"/>
     <use xlink:href="#DejaVuSans-7c" x="559.130859"/>
     <use xlink:href="#DejaVuSans-20" x="592.822266"/>
     <use xlink:href="#DejaVuSans-70" x="624.609375"/>
     <use xlink:href="#DejaVuSans-79" x="688.085938"/>
     <use xlink:href="#DejaVuSans-74" x="747.265625"/>
     <use xlink:href="#DejaVuSans-68" x="786.474609"/>
     <use xlink:href="#DejaVuSans-6f" x="849.853516"/>
     <use xlink:href="#DejaVuSans-6e" x="911.035156"/>
     <use xlink:href="#DejaVuSans-33" x="974.414062"/>
     <use xlink:href="#DejaVuSans-20" x="1038.037109"/>
     <use xlink:href="#DejaVuSans-71" x="1069.824219"/>
     <use xlink:href="#DejaVuSans-75" x="1133.300781"/>
     <use xlink:href="#DejaVuSans-69" x="1196.679688"/>
     <use xlink:href="#DejaVuSans-63" x="1224.462891"/>
     <use xlink:href="#DejaVuSans-6b" x="1279.443359"/>
     <use xlink:href="#DejaVuSans-73" x="1337.353516"/>
     <use xlink:href="#DejaVuSans-6f" x="1389.453125"/>
     <use xlink:href="#DejaVuSans-72" x="1450.634766"/>
     <use xlink:href="#DejaVuSans-74" x="1491.748047"/>
     <use xlink:href="#DejaVuSans-2e" x="1530.957031"/>
     <use xlink:href="#DejaVuSans-70" x="1562.744141"/>
     <use xlink:href="#DejaVuSans-79" x="1626.220703"/>
    </g>
   </g>
  </g>
 </g>
 <defs>
  <clipPath id="p62ce5eb821">
   <rect x="57.6" y="41.472" width="357.12" height="266.112"/>
  </clipPath>
 </defs>
</svg>
