<?xml version="1.0" encoding="utf-8" standalone="no"?>
<!DOCTYPE svg PUBLIC "-//W3C//DTD SVG 1.1//EN"
  "http://www.w3.org/Graphics/SVG/1.1/DTD/svg11.dtd">
<svg xmlns:xlink="http://www.w3.org/1999/xlink" width="460.8pt" height="345.6pt" viewBox="0 0 460.8 345.6" xmlns="http://www.w3.org/2000/svg" version="1.1">
 <metadata>
  <rdf:RDF xmlns:dc="http://purl.org/dc/elements/1.1/" xmlns:cc="http://creativecommons.org/ns#" xmlns:rdf="http://www.w3.org/1999/02/22-rdf-syntax-ns#">
   <cc:Work>
    <dc:type rdf:resource="http://purl.org/dc/dcmitype/StillImage"/>
    <dc:date>2024-01-14T13:49:56.077762</dc:date>
    <dc:format>image/svg+xml</dc:format>
    <dc:creator>
     <cc:Agent>
      <dc:title>Matplotlib v3.7.0, https://matplotlib.org/</dc:title>
     </cc:Agent>
    </dc:creator>
   </cc:Work>
  </rdf:RDF>
 </metadata>
 <defs>
  <style type="text/css">*{stroke-linejoin: round; stroke-linecap: butt}</style>
 </defs>
 <g id="figure_1">
  <g id="patch_1">
   <path d="M 0 345.6 
L 460.8 345.6 
L 460.8 0 
L 0 0 
z
" style="fill: #ffffff"/>
  </g>
  <g id="axes_1">
   <g id="patch_2">
    <path d="M 57.6 307.584 
L 414.72 307.584 
L 414.72 41.472 
L 57.6 41.472 
z
" style="fill: #ffffff"/>
   </g>
   <g id="PolyCollection_1">
    <path d="M 73.832727 232.806573 
L 73.832727 232.806573 
L 75.460246 231.57717 
L 77.087764 230.3387 
L 78.715283 229.086423 
L 80.366388 227.815394 
L 81.993907 226.520461 
L 83.621425 225.196267 
L 85.248943 223.837246 
L 86.876462 222.437219 
L 88.50398 220.990826 
L 90.155086 219.492091 
L 91.782604 217.934834 
L 93.410123 216.313901 
L 95.037641 214.623317 
L 96.66516 212.85793 
L 98.292678 211.012589 
L 99.943784 209.082554 
L 101.571302 207.063909 
L 103.198821 204.952328 
L 104.826339 202.744925 
L 106.453857 200.438815 
L 108.081376 198.031938 
L 109.732482 195.522851 
L 111.36 192.910524 
L 112.987518 190.195369 
L 114.615037 187.377592 
L 116.242555 184.458841 
L 117.870074 181.441384 
L 119.521179 178.327898 
L 121.148698 175.122301 
L 122.776216 171.828712 
L 124.403735 168.452284 
L 126.031253 164.998992 
L 127.658771 161.475019 
L 129.309877 157.887371 
L 130.937396 154.243466 
L 132.564914 150.551547 
L 134.192432 146.819858 
L 135.819951 143.057463 
L 137.447469 139.273226 
L 139.098575 135.476625 
L 140.726093 131.677138 
L 142.353612 127.884452 
L 143.98113 124.108046 
L 145.608649 120.35781 
L 147.236167 116.643223 
L 148.887273 112.973354 
L 150.514791 109.357681 
L 152.14231 105.804858 
L 153.769828 102.323541 
L 155.397346 98.921766 
L 157.024865 95.607159 
L 158.675971 92.38693 
L 160.303489 89.267263 
L 161.931007 86.256606 
L 163.558526 83.359286 
L 165.186044 80.579426 
L 166.813563 77.923206 
L 168.464668 75.394749 
L 170.092187 72.996114 
L 171.719705 70.731424 
L 173.347224 68.602739 
L 174.974742 66.614181 
L 176.60226 64.763688 
L 178.253366 63.055382 
L 179.880885 61.489263 
L 181.508403 60.065332 
L 183.135921 58.785648 
L 184.76344 57.646091 
L 186.390958 56.64872 
L 188.042064 55.793537 
L 189.669582 55.07848 
L 191.297101 54.501489 
L 192.924619 54.064624 
L 194.552138 53.763765 
L 196.179656 53.59891 
L 197.830762 53.568 
L 199.45828 53.668973 
L 201.085799 53.901831 
L 202.713317 54.264511 
L 204.340835 54.757014 
L 205.968354 55.375219 
L 207.619459 56.121186 
L 209.246978 56.988733 
L 210.874496 57.979921 
L 212.502015 59.09269 
L 214.129533 60.322917 
L 215.757052 61.672664 
L 217.408157 63.137809 
L 219.035676 64.718353 
L 220.663194 66.410173 
L 222.290713 68.21121 
L 223.918231 70.121462 
L 225.545749 72.13681 
L 227.196855 74.255191 
L 228.824373 76.472486 
L 230.451892 78.786632 
L 232.07941 81.193509 
L 233.706929 83.688996 
L 235.334447 86.271031 
L 236.985553 88.935493 
L 238.613071 91.675995 
L 240.24059 94.489238 
L 241.868108 97.369866 
L 243.495627 100.312933 
L 245.123145 103.313081 
L 246.774251 106.364745 
L 248.401769 109.462569 
L 250.029287 112.600371 
L 251.656806 115.772585 
L 253.284324 118.973237 
L 254.911843 122.196145 
L 256.539361 125.435743 
L 258.190467 128.685646 
L 259.817985 131.940494 
L 261.445504 135.194105 
L 263.073022 138.441329 
L 264.700541 141.6766 
L 266.328059 144.894768 
L 267.979165 148.090886 
L 269.606683 151.260422 
L 271.234201 154.399048 
L 272.86172 157.502641 
L 274.489238 160.567495 
L 276.116757 163.590104 
L 277.767862 166.56779 
L 279.395381 169.497874 
L 281.022899 172.377678 
L 282.650418 175.205552 
L 284.277936 177.979849 
L 285.905455 180.699126 
L 287.55656 183.362352 
L 289.184079 185.968909 
L 290.811597 188.518385 
L 292.439115 191.010163 
L 294.066634 193.444447 
L 295.694152 195.821444 
L 297.345258 198.14136 
L 298.972776 200.404402 
L 300.600295 202.610981 
L 302.227813 204.761715 
L 303.855332 206.857223 
L 305.48285 208.897711 
L 307.133956 210.883796 
L 308.761474 212.815892 
L 310.388993 214.694204 
L 312.016511 216.518939 
L 313.644029 218.290301 
L 315.271548 220.00788 
L 316.922654 221.672087 
L 318.550172 223.282099 
L 320.17769 224.837708 
L 321.805209 226.338503 
L 323.432727 227.783453 
L 325.060246 229.172147 
L 326.711351 230.503554 
L 328.33887 231.77685 
L 329.966388 232.991004 
L 331.593907 234.144986 
L 333.221425 235.238178 
L 334.848943 236.269344 
L 336.500049 237.237658 
L 338.127568 238.14271 
L 339.755086 238.983675 
L 341.382604 239.76014 
L 343.010123 240.472106 
L 344.637641 241.11916 
L 346.288747 241.702127 
L 347.916265 242.221007 
L 349.543784 242.677036 
L 351.171302 243.071038 
L 352.798821 243.404663 
L 354.426339 243.679764 
L 356.077445 243.898402 
L 357.704963 244.063051 
L 359.332482 244.176594 
L 360.96 244.24233 
L 362.587518 244.263555 
L 364.215037 244.243979 
L 365.866143 244.188134 
L 367.493661 244.100143 
L 369.121179 243.984539 
L 370.748698 243.846473 
L 372.376216 243.690479 
L 374.003735 243.522122 
L 375.65484 243.346139 
L 377.282359 243.168509 
L 378.909877 242.993969 
L 380.537396 242.828084 
L 382.164914 242.676006 
L 383.792432 242.543092 
L 385.443538 242.434081 
L 387.071057 242.353715 
L 388.698575 242.306731 
L 390.326093 242.297458 
L 391.953612 242.329605 
L 393.58113 242.407293 
L 395.232236 242.533406 
L 396.859754 242.711037 
L 398.487273 242.942864 
L 398.487273 242.942864 
L 398.487273 295.488 
L 396.859754 295.488 
L 395.232236 295.488 
L 393.58113 295.488 
L 391.953612 295.488 
L 390.326093 295.488 
L 388.698575 295.488 
L 387.071057 295.488 
L 385.443538 295.488 
L 383.792432 295.488 
L 382.164914 295.488 
L 380.537396 295.488 
L 378.909877 295.488 
L 377.282359 295.488 
L 375.65484 295.488 
L 374.003735 295.488 
L 372.376216 295.488 
L 370.748698 295.488 
L 369.121179 295.488 
L 367.493661 295.488 
L 365.866143 295.488 
L 364.215037 295.488 
L 362.587518 295.488 
L 360.96 295.488 
L 359.332482 295.488 
L 357.704963 295.488 
L 356.077445 295.488 
L 354.426339 295.488 
L 352.798821 295.488 
L 351.171302 295.488 
L 349.543784 295.488 
L 347.916265 295.488 
L 346.288747 295.488 
L 344.637641 295.488 
L 343.010123 295.488 
L 341.382604 295.488 
L 339.755086 295.488 
L 338.127568 295.488 
L 336.500049 295.488 
L 334.848943 295.488 
L 333.221425 295.488 
L 331.593907 295.488 
L 329.966388 295.488 
L 328.33887 295.488 
L 326.711351 295.488 
L 325.060246 295.488 
L 323.432727 295.488 
L 321.805209 295.488 
L 320.17769 295.488 
L 318.550172 295.488 
L 316.922654 295.488 
L 315.271548 295.488 
L 313.644029 295.488 
L 312.016511 295.488 
L 310.388993 295.488 
L 308.761474 295.488 
L 307.133956 295.488 
L 305.48285 295.488 
L 303.855332 295.488 
L 302.227813 295.488 
L 300.600295 295.488 
L 298.972776 295.488 
L 297.345258 295.488 
L 295.694152 295.488 
L 294.066634 295.488 
L 292.439115 295.488 
L 290.811597 295.488 
L 289.184079 295.488 
L 287.55656 295.488 
L 285.905455 295.488 
L 284.277936 295.488 
L 282.650418 295.488 
L 281.022899 295.488 
L 279.395381 295.488 
L 277.767862 295.488 
L 276.116757 295.488 
L 274.489238 295.488 
L 272.86172 295.488 
L 271.234201 295.488 
L 269.606683 295.488 
L 267.979165 295.488 
L 266.328059 295.488 
L 264.700541 295.488 
L 263.073022 295.488 
L 261.445504 295.488 
L 259.817985 295.488 
L 258.190467 295.488 
L 256.539361 295.488 
L 254.911843 295.488 
L 253.284324 295.488 
L 251.656806 295.488 
L 250.029287 295.488 
L 248.401769 295.488 
L 246.774251 295.488 
L 245.123145 295.488 
L 243.495627 295.488 
L 241.868108 295.488 
L 240.24059 295.488 
L 238.613071 295.488 
L 236.985553 295.488 
L 235.334447 295.488 
L 233.706929 295.488 
L 232.07941 295.488 
L 230.451892 295.488 
L 228.824373 295.488 
L 227.196855 295.488 
L 225.545749 295.488 
L 223.918231 295.488 
L 222.290713 295.488 
L 220.663194 295.488 
L 219.035676 295.488 
L 217.408157 295.488 
L 215.757052 295.488 
L 214.129533 295.488 
L 212.502015 295.488 
L 210.874496 295.488 
L 209.246978 295.488 
L 207.619459 295.488 
L 205.968354 295.488 
L 204.340835 295.488 
L 202.713317 295.488 
L 201.085799 295.488 
L 199.45828 295.488 
L 197.830762 295.488 
L 196.179656 295.488 
L 194.552138 295.488 
L 192.924619 295.488 
L 191.297101 295.488 
L 189.669582 295.488 
L 188.042064 295.488 
L 186.390958 295.488 
L 184.76344 295.488 
L 183.135921 295.488 
L 181.508403 295.488 
L 179.880885 295.488 
L 178.253366 295.488 
L 176.60226 295.488 
L 174.974742 295.488 
L 173.347224 295.488 
L 171.719705 295.488 
L 170.092187 295.488 
L 168.464668 295.488 
L 166.813563 295.488 
L 165.186044 295.488 
L 163.558526 295.488 
L 161.931007 295.488 
L 160.303489 295.488 
L 158.675971 295.488 
L 157.024865 295.488 
L 155.397346 295.488 
L 153.769828 295.488 
L 152.14231 295.488 
L 150.514791 295.488 
L 148.887273 295.488 
L 147.236167 295.488 
L 145.608649 295.488 
L 143.98113 295.488 
L 142.353612 295.488 
L 140.726093 295.488 
L 139.098575 295.488 
L 137.447469 295.488 
L 135.819951 295.488 
L 134.192432 295.488 
L 132.564914 295.488 
L 130.937396 295.488 
L 129.309877 295.488 
L 127.658771 295.488 
L 126.031253 295.488 
L 124.403735 295.488 
L 122.776216 295.488 
L 121.148698 295.488 
L 119.521179 295.488 
L 117.870074 295.488 
L 116.242555 295.488 
L 114.615037 295.488 
L 112.987518 295.488 
L 111.36 295.488 
L 109.732482 295.488 
L 108.081376 295.488 
L 106.453857 295.488 
L 104.826339 295.488 
L 103.198821 295.488 
L 101.571302 295.488 
L 99.943784 295.488 
L 98.292678 295.488 
L 96.66516 295.488 
L 95.037641 295.488 
L 93.410123 295.488 
L 91.782604 295.488 
L 90.155086 295.488 
L 88.50398 295.488 
L 86.876462 295.488 
L 85.248943 295.488 
L 83.621425 295.488 
L 81.993907 295.488 
L 80.366388 295.488 
L 78.715283 295.488 
L 77.087764 295.488 
L 75.460246 295.488 
L 73.832727 295.488 
z
" clip-path="url(#pecb16e7e6b)" style="fill: #1f77b4; fill-opacity: 0.25"/>
   </g>
   <g id="matplotlib.axis_1">
    <g id="xtick_1">
     <g id="line2d_1">
      <defs>
       <path id="m9107127ae4" d="M 0 0 
L 0 3.5 
" style="stroke: #000000; stroke-width: 0.8"/>
      </defs>
      <g>
       <use xlink:href="#m9107127ae4" x="87.584079" y="307.584" style="stroke: #000000; stroke-width: 0.8"/>
      </g>
     </g>
     <g id="text_1">
      <!-- 0.000106 -->
      <g transform="translate(63.726266 322.182437) scale(0.1 -0.1)">
       <defs>
        <path id="DejaVuSans-30" d="M 2034 4250 
Q 1547 4250 1301 3770 
Q 1056 3291 1056 2328 
Q 1056 1369 1301 889 
Q 1547 409 2034 409 
Q 2525 409 2770 889 
Q 3016 1369 3016 2328 
Q 3016 3291 2770 3770 
Q 2525 4250 2034 4250 
z
M 2034 4750 
Q 2819 4750 3233 4129 
Q 3647 3509 3647 2328 
Q 3647 1150 3233 529 
Q 2819 -91 2034 -91 
Q 1250 -91 836 529 
Q 422 1150 422 2328 
Q 422 3509 836 4129 
Q 1250 4750 2034 4750 
z
" transform="scale(0.015625)"/>
        <path id="DejaVuSans-2e" d="M 684 794 
L 1344 794 
L 1344 0 
L 684 0 
L 684 794 
z
" transform="scale(0.015625)"/>
        <path id="DejaVuSans-31" d="M 794 531 
L 1825 531 
L 1825 4091 
L 703 3866 
L 703 4441 
L 1819 4666 
L 2450 4666 
L 2450 531 
L 3481 531 
L 3481 0 
L 794 0 
L 794 531 
z
" transform="scale(0.015625)"/>
        <path id="DejaVuSans-36" d="M 2113 2584 
Q 1688 2584 1439 2293 
Q 1191 2003 1191 1497 
Q 1191 994 1439 701 
Q 1688 409 2113 409 
Q 2538 409 2786 701 
Q 3034 994 3034 1497 
Q 3034 2003 2786 2293 
Q 2538 2584 2113 2584 
z
M 3366 4563 
L 3366 3988 
Q 3128 4100 2886 4159 
Q 2644 4219 2406 4219 
Q 1781 4219 1451 3797 
Q 1122 3375 1075 2522 
Q 1259 2794 1537 2939 
Q 1816 3084 2150 3084 
Q 2853 3084 3261 2657 
Q 3669 2231 3669 1497 
Q 3669 778 3244 343 
Q 2819 -91 2113 -91 
Q 1303 -91 875 529 
Q 447 1150 447 2328 
Q 447 3434 972 4092 
Q 1497 4750 2381 4750 
Q 2619 4750 2861 4703 
Q 3103 4656 3366 4563 
z
" transform="scale(0.015625)"/>
       </defs>
       <use xlink:href="#DejaVuSans-30"/>
       <use xlink:href="#DejaVuSans-2e" x="63.623047"/>
       <use xlink:href="#DejaVuSans-30" x="95.410156"/>
       <use xlink:href="#DejaVuSans-30" x="159.033203"/>
       <use xlink:href="#DejaVuSans-30" x="222.65625"/>
       <use xlink:href="#DejaVuSans-31" x="286.279297"/>
       <use xlink:href="#DejaVuSans-30" x="349.902344"/>
       <use xlink:href="#DejaVuSans-36" x="413.525391"/>
      </g>
     </g>
    </g>
    <g id="xtick_2">
     <g id="line2d_2">
      <g>
       <use xlink:href="#m9107127ae4" x="134.758526" y="307.584" style="stroke: #000000; stroke-width: 0.8"/>
      </g>
     </g>
     <g id="text_2">
      <!-- 0.000108 -->
      <g transform="translate(110.900713 322.182437) scale(0.1 -0.1)">
       <defs>
        <path id="DejaVuSans-38" d="M 2034 2216 
Q 1584 2216 1326 1975 
Q 1069 1734 1069 1313 
Q 1069 891 1326 650 
Q 1584 409 2034 409 
Q 2484 409 2743 651 
Q 3003 894 3003 1313 
Q 3003 1734 2745 1975 
Q 2488 2216 2034 2216 
z
M 1403 2484 
Q 997 2584 770 2862 
Q 544 3141 544 3541 
Q 544 4100 942 4425 
Q 1341 4750 2034 4750 
Q 2731 4750 3128 4425 
Q 3525 4100 3525 3541 
Q 3525 3141 3298 2862 
Q 3072 2584 2669 2484 
Q 3125 2378 3379 2068 
Q 3634 1759 3634 1313 
Q 3634 634 3220 271 
Q 2806 -91 2034 -91 
Q 1263 -91 848 271 
Q 434 634 434 1313 
Q 434 1759 690 2068 
Q 947 2378 1403 2484 
z
M 1172 3481 
Q 1172 3119 1398 2916 
Q 1625 2713 2034 2713 
Q 2441 2713 2670 2916 
Q 2900 3119 2900 3481 
Q 2900 3844 2670 4047 
Q 2441 4250 2034 4250 
Q 1625 4250 1398 4047 
Q 1172 3844 1172 3481 
z
" transform="scale(0.015625)"/>
       </defs>
       <use xlink:href="#DejaVuSans-30"/>
       <use xlink:href="#DejaVuSans-2e" x="63.623047"/>
       <use xlink:href="#DejaVuSans-30" x="95.410156"/>
       <use xlink:href="#DejaVuSans-30" x="159.033203"/>
       <use xlink:href="#DejaVuSans-30" x="222.65625"/>
       <use xlink:href="#DejaVuSans-31" x="286.279297"/>
       <use xlink:href="#DejaVuSans-30" x="349.902344"/>
       <use xlink:href="#DejaVuSans-38" x="413.525391"/>
      </g>
     </g>
    </g>
    <g id="xtick_3">
     <g id="line2d_3">
      <g>
       <use xlink:href="#m9107127ae4" x="181.932973" y="307.584" style="stroke: #000000; stroke-width: 0.8"/>
      </g>
     </g>
     <g id="text_3">
      <!-- 0.000110 -->
      <g transform="translate(158.07516 322.182437) scale(0.1 -0.1)">
       <use xlink:href="#DejaVuSans-30"/>
       <use xlink:href="#DejaVuSans-2e" x="63.623047"/>
       <use xlink:href="#DejaVuSans-30" x="95.410156"/>
       <use xlink:href="#DejaVuSans-30" x="159.033203"/>
       <use xlink:href="#DejaVuSans-30" x="222.65625"/>
       <use xlink:href="#DejaVuSans-31" x="286.279297"/>
       <use xlink:href="#DejaVuSans-31" x="349.902344"/>
       <use xlink:href="#DejaVuSans-30" x="413.525391"/>
      </g>
     </g>
    </g>
    <g id="xtick_4">
     <g id="line2d_4">
      <g>
       <use xlink:href="#m9107127ae4" x="229.10742" y="307.584" style="stroke: #000000; stroke-width: 0.8"/>
      </g>
     </g>
     <g id="text_4">
      <!-- 0.000112 -->
      <g transform="translate(205.249608 322.182437) scale(0.1 -0.1)">
       <defs>
        <path id="DejaVuSans-32" d="M 1228 531 
L 3431 531 
L 3431 0 
L 469 0 
L 469 531 
Q 828 903 1448 1529 
Q 2069 2156 2228 2338 
Q 2531 2678 2651 2914 
Q 2772 3150 2772 3378 
Q 2772 3750 2511 3984 
Q 2250 4219 1831 4219 
Q 1534 4219 1204 4116 
Q 875 4013 500 3803 
L 500 4441 
Q 881 4594 1212 4672 
Q 1544 4750 1819 4750 
Q 2544 4750 2975 4387 
Q 3406 4025 3406 3419 
Q 3406 3131 3298 2873 
Q 3191 2616 2906 2266 
Q 2828 2175 2409 1742 
Q 1991 1309 1228 531 
z
" transform="scale(0.015625)"/>
       </defs>
       <use xlink:href="#DejaVuSans-30"/>
       <use xlink:href="#DejaVuSans-2e" x="63.623047"/>
       <use xlink:href="#DejaVuSans-30" x="95.410156"/>
       <use xlink:href="#DejaVuSans-30" x="159.033203"/>
       <use xlink:href="#DejaVuSans-30" x="222.65625"/>
       <use xlink:href="#DejaVuSans-31" x="286.279297"/>
       <use xlink:href="#DejaVuSans-31" x="349.902344"/>
       <use xlink:href="#DejaVuSans-32" x="413.525391"/>
      </g>
     </g>
    </g>
    <g id="xtick_5">
     <g id="line2d_5">
      <g>
       <use xlink:href="#m9107127ae4" x="276.281867" y="307.584" style="stroke: #000000; stroke-width: 0.8"/>
      </g>
     </g>
     <g id="text_5">
      <!-- 0.000114 -->
      <g transform="translate(252.424055 322.182437) scale(0.1 -0.1)">
       <defs>
        <path id="DejaVuSans-34" d="M 2419 4116 
L 825 1625 
L 2419 1625 
L 2419 4116 
z
M 2253 4666 
L 3047 4666 
L 3047 1625 
L 3713 1625 
L 3713 1100 
L 3047 1100 
L 3047 0 
L 2419 0 
L 2419 1100 
L 313 1100 
L 313 1709 
L 2253 4666 
z
" transform="scale(0.015625)"/>
       </defs>
       <use xlink:href="#DejaVuSans-30"/>
       <use xlink:href="#DejaVuSans-2e" x="63.623047"/>
       <use xlink:href="#DejaVuSans-30" x="95.410156"/>
       <use xlink:href="#DejaVuSans-30" x="159.033203"/>
       <use xlink:href="#DejaVuSans-30" x="222.65625"/>
       <use xlink:href="#DejaVuSans-31" x="286.279297"/>
       <use xlink:href="#DejaVuSans-31" x="349.902344"/>
       <use xlink:href="#DejaVuSans-34" x="413.525391"/>
      </g>
     </g>
    </g>
    <g id="xtick_6">
     <g id="line2d_6">
      <g>
       <use xlink:href="#m9107127ae4" x="323.456314" y="307.584" style="stroke: #000000; stroke-width: 0.8"/>
      </g>
     </g>
     <g id="text_6">
      <!-- 0.000116 -->
      <g transform="translate(299.598502 322.182437) scale(0.1 -0.1)">
       <use xlink:href="#DejaVuSans-30"/>
       <use xlink:href="#DejaVuSans-2e" x="63.623047"/>
       <use xlink:href="#DejaVuSans-30" x="95.410156"/>
       <use xlink:href="#DejaVuSans-30" x="159.033203"/>
       <use xlink:href="#DejaVuSans-30" x="222.65625"/>
       <use xlink:href="#DejaVuSans-31" x="286.279297"/>
       <use xlink:href="#DejaVuSans-31" x="349.902344"/>
       <use xlink:href="#DejaVuSans-36" x="413.525391"/>
      </g>
     </g>
    </g>
    <g id="xtick_7">
     <g id="line2d_7">
      <g>
       <use xlink:href="#m9107127ae4" x="370.630762" y="307.584" style="stroke: #000000; stroke-width: 0.8"/>
      </g>
     </g>
     <g id="text_7">
      <!-- 0.000118 -->
      <g transform="translate(346.772949 322.182437) scale(0.1 -0.1)">
       <use xlink:href="#DejaVuSans-30"/>
       <use xlink:href="#DejaVuSans-2e" x="63.623047"/>
       <use xlink:href="#DejaVuSans-30" x="95.410156"/>
       <use xlink:href="#DejaVuSans-30" x="159.033203"/>
       <use xlink:href="#DejaVuSans-30" x="222.65625"/>
       <use xlink:href="#DejaVuSans-31" x="286.279297"/>
       <use xlink:href="#DejaVuSans-31" x="349.902344"/>
       <use xlink:href="#DejaVuSans-38" x="413.525391"/>
      </g>
     </g>
    </g>
    <g id="text_8">
     <!-- t [s] -->
     <g transform="translate(226.104531 335.860562) scale(0.1 -0.1)">
      <defs>
       <path id="DejaVuSans-74" d="M 1172 4494 
L 1172 3500 
L 2356 3500 
L 2356 3053 
L 1172 3053 
L 1172 1153 
Q 1172 725 1289 603 
Q 1406 481 1766 481 
L 2356 481 
L 2356 0 
L 1766 0 
Q 1100 0 847 248 
Q 594 497 594 1153 
L 594 3053 
L 172 3053 
L 172 3500 
L 594 3500 
L 594 4494 
L 1172 4494 
z
" transform="scale(0.015625)"/>
       <path id="DejaVuSans-20" transform="scale(0.015625)"/>
       <path id="DejaVuSans-5b" d="M 550 4863 
L 1875 4863 
L 1875 4416 
L 1125 4416 
L 1125 -397 
L 1875 -397 
L 1875 -844 
L 550 -844 
L 550 4863 
z
" transform="scale(0.015625)"/>
       <path id="DejaVuSans-73" d="M 2834 3397 
L 2834 2853 
Q 2591 2978 2328 3040 
Q 2066 3103 1784 3103 
Q 1356 3103 1142 2972 
Q 928 2841 928 2578 
Q 928 2378 1081 2264 
Q 1234 2150 1697 2047 
L 1894 2003 
Q 2506 1872 2764 1633 
Q 3022 1394 3022 966 
Q 3022 478 2636 193 
Q 2250 -91 1575 -91 
Q 1294 -91 989 -36 
Q 684 19 347 128 
L 347 722 
Q 666 556 975 473 
Q 1284 391 1588 391 
Q 1994 391 2212 530 
Q 2431 669 2431 922 
Q 2431 1156 2273 1281 
Q 2116 1406 1581 1522 
L 1381 1569 
Q 847 1681 609 1914 
Q 372 2147 372 2553 
Q 372 3047 722 3315 
Q 1072 3584 1716 3584 
Q 2034 3584 2315 3537 
Q 2597 3491 2834 3397 
z
" transform="scale(0.015625)"/>
       <path id="DejaVuSans-5d" d="M 1947 4863 
L 1947 -844 
L 622 -844 
L 622 -397 
L 1369 -397 
L 1369 4416 
L 622 4416 
L 622 4863 
L 1947 4863 
z
" transform="scale(0.015625)"/>
      </defs>
      <use xlink:href="#DejaVuSans-74"/>
      <use xlink:href="#DejaVuSans-20" x="39.208984"/>
      <use xlink:href="#DejaVuSans-5b" x="70.996094"/>
      <use xlink:href="#DejaVuSans-73" x="110.009766"/>
      <use xlink:href="#DejaVuSans-5d" x="162.109375"/>
     </g>
    </g>
   </g>
   <g id="matplotlib.axis_2">
    <g id="ytick_1"/>
    <g id="ytick_2"/>
    <g id="ytick_3"/>
    <g id="ytick_4"/>
    <g id="ytick_5"/>
    <g id="ytick_6"/>
    <g id="ytick_7"/>
    <g id="text_9">
     <!-- probability density -->
     <g transform="translate(51.520312 221.125656) rotate(-90) scale(0.1 -0.1)">
      <defs>
       <path id="DejaVuSans-70" d="M 1159 525 
L 1159 -1331 
L 581 -1331 
L 581 3500 
L 1159 3500 
L 1159 2969 
Q 1341 3281 1617 3432 
Q 1894 3584 2278 3584 
Q 2916 3584 3314 3078 
Q 3713 2572 3713 1747 
Q 3713 922 3314 415 
Q 2916 -91 2278 -91 
Q 1894 -91 1617 61 
Q 1341 213 1159 525 
z
M 3116 1747 
Q 3116 2381 2855 2742 
Q 2594 3103 2138 3103 
Q 1681 3103 1420 2742 
Q 1159 2381 1159 1747 
Q 1159 1113 1420 752 
Q 1681 391 2138 391 
Q 2594 391 2855 752 
Q 3116 1113 3116 1747 
z
" transform="scale(0.015625)"/>
       <path id="DejaVuSans-72" d="M 2631 2963 
Q 2534 3019 2420 3045 
Q 2306 3072 2169 3072 
Q 1681 3072 1420 2755 
Q 1159 2438 1159 1844 
L 1159 0 
L 581 0 
L 581 3500 
L 1159 3500 
L 1159 2956 
Q 1341 3275 1631 3429 
Q 1922 3584 2338 3584 
Q 2397 3584 2469 3576 
Q 2541 3569 2628 3553 
L 2631 2963 
z
" transform="scale(0.015625)"/>
       <path id="DejaVuSans-6f" d="M 1959 3097 
Q 1497 3097 1228 2736 
Q 959 2375 959 1747 
Q 959 1119 1226 758 
Q 1494 397 1959 397 
Q 2419 397 2687 759 
Q 2956 1122 2956 1747 
Q 2956 2369 2687 2733 
Q 2419 3097 1959 3097 
z
M 1959 3584 
Q 2709 3584 3137 3096 
Q 3566 2609 3566 1747 
Q 3566 888 3137 398 
Q 2709 -91 1959 -91 
Q 1206 -91 779 398 
Q 353 888 353 1747 
Q 353 2609 779 3096 
Q 1206 3584 1959 3584 
z
" transform="scale(0.015625)"/>
       <path id="DejaVuSans-62" d="M 3116 1747 
Q 3116 2381 2855 2742 
Q 2594 3103 2138 3103 
Q 1681 3103 1420 2742 
Q 1159 2381 1159 1747 
Q 1159 1113 1420 752 
Q 1681 391 2138 391 
Q 2594 391 2855 752 
Q 3116 1113 3116 1747 
z
M 1159 2969 
Q 1341 3281 1617 3432 
Q 1894 3584 2278 3584 
Q 2916 3584 3314 3078 
Q 3713 2572 3713 1747 
Q 3713 922 3314 415 
Q 2916 -91 2278 -91 
Q 1894 -91 1617 61 
Q 1341 213 1159 525 
L 1159 0 
L 581 0 
L 581 4863 
L 1159 4863 
L 1159 2969 
z
" transform="scale(0.015625)"/>
       <path id="DejaVuSans-61" d="M 2194 1759 
Q 1497 1759 1228 1600 
Q 959 1441 959 1056 
Q 959 750 1161 570 
Q 1363 391 1709 391 
Q 2188 391 2477 730 
Q 2766 1069 2766 1631 
L 2766 1759 
L 2194 1759 
z
M 3341 1997 
L 3341 0 
L 2766 0 
L 2766 531 
Q 2569 213 2275 61 
Q 1981 -91 1556 -91 
Q 1019 -91 701 211 
Q 384 513 384 1019 
Q 384 1609 779 1909 
Q 1175 2209 1959 2209 
L 2766 2209 
L 2766 2266 
Q 2766 2663 2505 2880 
Q 2244 3097 1772 3097 
Q 1472 3097 1187 3025 
Q 903 2953 641 2809 
L 641 3341 
Q 956 3463 1253 3523 
Q 1550 3584 1831 3584 
Q 2591 3584 2966 3190 
Q 3341 2797 3341 1997 
z
" transform="scale(0.015625)"/>
       <path id="DejaVuSans-69" d="M 603 3500 
L 1178 3500 
L 1178 0 
L 603 0 
L 603 3500 
z
M 603 4863 
L 1178 4863 
L 1178 4134 
L 603 4134 
L 603 4863 
z
" transform="scale(0.015625)"/>
       <path id="DejaVuSans-6c" d="M 603 4863 
L 1178 4863 
L 1178 0 
L 603 0 
L 603 4863 
z
" transform="scale(0.015625)"/>
       <path id="DejaVuSans-79" d="M 2059 -325 
Q 1816 -950 1584 -1140 
Q 1353 -1331 966 -1331 
L 506 -1331 
L 506 -850 
L 844 -850 
Q 1081 -850 1212 -737 
Q 1344 -625 1503 -206 
L 1606 56 
L 191 3500 
L 800 3500 
L 1894 763 
L 2988 3500 
L 3597 3500 
L 2059 -325 
z
" transform="scale(0.015625)"/>
       <path id="DejaVuSans-64" d="M 2906 2969 
L 2906 4863 
L 3481 4863 
L 3481 0 
L 2906 0 
L 2906 525 
Q 2725 213 2448 61 
Q 2172 -91 1784 -91 
Q 1150 -91 751 415 
Q 353 922 353 1747 
Q 353 2572 751 3078 
Q 1150 3584 1784 3584 
Q 2172 3584 2448 3432 
Q 2725 3281 2906 2969 
z
M 947 1747 
Q 947 1113 1208 752 
Q 1469 391 1925 391 
Q 2381 391 2643 752 
Q 2906 1113 2906 1747 
Q 2906 2381 2643 2742 
Q 2381 3103 1925 3103 
Q 1469 3103 1208 2742 
Q 947 2381 947 1747 
z
" transform="scale(0.015625)"/>
       <path id="DejaVuSans-65" d="M 3597 1894 
L 3597 1613 
L 953 1613 
Q 991 1019 1311 708 
Q 1631 397 2203 397 
Q 2534 397 2845 478 
Q 3156 559 3463 722 
L 3463 178 
Q 3153 47 2828 -22 
Q 2503 -91 2169 -91 
Q 1331 -91 842 396 
Q 353 884 353 1716 
Q 353 2575 817 3079 
Q 1281 3584 2069 3584 
Q 2775 3584 3186 3129 
Q 3597 2675 3597 1894 
z
M 3022 2063 
Q 3016 2534 2758 2815 
Q 2500 3097 2075 3097 
Q 1594 3097 1305 2825 
Q 1016 2553 972 2059 
L 3022 2063 
z
" transform="scale(0.015625)"/>
       <path id="DejaVuSans-6e" d="M 3513 2113 
L 3513 0 
L 2938 0 
L 2938 2094 
Q 2938 2591 2744 2837 
Q 2550 3084 2163 3084 
Q 1697 3084 1428 2787 
Q 1159 2491 1159 1978 
L 1159 0 
L 581 0 
L 581 3500 
L 1159 3500 
L 1159 2956 
Q 1366 3272 1645 3428 
Q 1925 3584 2291 3584 
Q 2894 3584 3203 3211 
Q 3513 2838 3513 2113 
z
" transform="scale(0.015625)"/>
      </defs>
      <use xlink:href="#DejaVuSans-70"/>
      <use xlink:href="#DejaVuSans-72" x="63.476562"/>
      <use xlink:href="#DejaVuSans-6f" x="102.339844"/>
      <use xlink:href="#DejaVuSans-62" x="163.521484"/>
      <use xlink:href="#DejaVuSans-61" x="226.998047"/>
      <use xlink:href="#DejaVuSans-62" x="288.277344"/>
      <use xlink:href="#DejaVuSans-69" x="351.753906"/>
      <use xlink:href="#DejaVuSans-6c" x="379.537109"/>
      <use xlink:href="#DejaVuSans-69" x="407.320312"/>
      <use xlink:href="#DejaVuSans-74" x="435.103516"/>
      <use xlink:href="#DejaVuSans-79" x="474.3125"/>
      <use xlink:href="#DejaVuSans-20" x="533.492188"/>
      <use xlink:href="#DejaVuSans-64" x="565.279297"/>
      <use xlink:href="#DejaVuSans-65" x="628.755859"/>
      <use xlink:href="#DejaVuSans-6e" x="690.279297"/>
      <use xlink:href="#DejaVuSans-73" x="753.658203"/>
      <use xlink:href="#DejaVuSans-69" x="805.757812"/>
      <use xlink:href="#DejaVuSans-74" x="833.541016"/>
      <use xlink:href="#DejaVuSans-79" x="872.75"/>
     </g>
    </g>
   </g>
   <g id="LineCollection_1">
    <path d="M 217.219459 295.488 
L 217.219459 62.972955 
" clip-path="url(#pecb16e7e6b)" style="fill: none; stroke: #1f77b4; stroke-width: 1.5"/>
   </g>
   <g id="patch_3">
    <path d="M 57.6 307.584 
L 57.6 41.472 
" style="fill: none; stroke: #000000; stroke-width: 0.8; stroke-linejoin: miter; stroke-linecap: square"/>
   </g>
   <g id="patch_4">
    <path d="M 414.72 307.584 
L 414.72 41.472 
" style="fill: none; stroke: #000000; stroke-width: 0.8; stroke-linejoin: miter; stroke-linecap: square"/>
   </g>
   <g id="patch_5">
    <path d="M 57.6 307.584 
L 414.72 307.584 
" style="fill: none; stroke: #000000; stroke-width: 0.8; stroke-linejoin: miter; stroke-linecap: square"/>
   </g>
   <g id="patch_6">
    <path d="M 57.6 41.472 
L 414.72 41.472 
" style="fill: none; stroke: #000000; stroke-width: 0.8; stroke-linejoin: miter; stroke-linecap: square"/>
   </g>
   <g id="text_10">
    <!-- echo 100 | python3 quicksort.py -->
    <g transform="translate(138.853125 35.472) scale(0.12 -0.12)">
     <defs>
      <path id="DejaVuSans-63" d="M 3122 3366 
L 3122 2828 
Q 2878 2963 2633 3030 
Q 2388 3097 2138 3097 
Q 1578 3097 1268 2742 
Q 959 2388 959 1747 
Q 959 1106 1268 751 
Q 1578 397 2138 397 
Q 2388 397 2633 464 
Q 2878 531 3122 666 
L 3122 134 
Q 2881 22 2623 -34 
Q 2366 -91 2075 -91 
Q 1284 -91 818 406 
Q 353 903 353 1747 
Q 353 2603 823 3093 
Q 1294 3584 2113 3584 
Q 2378 3584 2631 3529 
Q 2884 3475 3122 3366 
z
" transform="scale(0.015625)"/>
      <path id="DejaVuSans-68" d="M 3513 2113 
L 3513 0 
L 2938 0 
L 2938 2094 
Q 2938 2591 2744 2837 
Q 2550 3084 2163 3084 
Q 1697 3084 1428 2787 
Q 1159 2491 1159 1978 
L 1159 0 
L 581 0 
L 581 4863 
L 1159 4863 
L 1159 2956 
Q 1366 3272 1645 3428 
Q 1925 3584 2291 3584 
Q 2894 3584 3203 3211 
Q 3513 2838 3513 2113 
z
" transform="scale(0.015625)"/>
      <path id="DejaVuSans-7c" d="M 1344 4891 
L 1344 -1509 
L 813 -1509 
L 813 4891 
L 1344 4891 
z
" transform="scale(0.015625)"/>
      <path id="DejaVuSans-33" d="M 2597 2516 
Q 3050 2419 3304 2112 
Q 3559 1806 3559 1356 
Q 3559 666 3084 287 
Q 2609 -91 1734 -91 
Q 1441 -91 1130 -33 
Q 819 25 488 141 
L 488 750 
Q 750 597 1062 519 
Q 1375 441 1716 441 
Q 2309 441 2620 675 
Q 2931 909 2931 1356 
Q 2931 1769 2642 2001 
Q 2353 2234 1838 2234 
L 1294 2234 
L 1294 2753 
L 1863 2753 
Q 2328 2753 2575 2939 
Q 2822 3125 2822 3475 
Q 2822 3834 2567 4026 
Q 2313 4219 1838 4219 
Q 1578 4219 1281 4162 
Q 984 4106 628 3988 
L 628 4550 
Q 988 4650 1302 4700 
Q 1616 4750 1894 4750 
Q 2613 4750 3031 4423 
Q 3450 4097 3450 3541 
Q 3450 3153 3228 2886 
Q 3006 2619 2597 2516 
z
" transform="scale(0.015625)"/>
      <path id="DejaVuSans-71" d="M 947 1747 
Q 947 1113 1208 752 
Q 1469 391 1925 391 
Q 2381 391 2643 752 
Q 2906 1113 2906 1747 
Q 2906 2381 2643 2742 
Q 2381 3103 1925 3103 
Q 1469 3103 1208 2742 
Q 947 2381 947 1747 
z
M 2906 525 
Q 2725 213 2448 61 
Q 2172 -91 1784 -91 
Q 1150 -91 751 415 
Q 353 922 353 1747 
Q 353 2572 751 3078 
Q 1150 3584 1784 3584 
Q 2172 3584 2448 3432 
Q 2725 3281 2906 2969 
L 2906 3500 
L 3481 3500 
L 3481 -1331 
L 2906 -1331 
L 2906 525 
z
" transform="scale(0.015625)"/>
      <path id="DejaVuSans-75" d="M 544 1381 
L 544 3500 
L 1119 3500 
L 1119 1403 
Q 1119 906 1312 657 
Q 1506 409 1894 409 
Q 2359 409 2629 706 
Q 2900 1003 2900 1516 
L 2900 3500 
L 3475 3500 
L 3475 0 
L 2900 0 
L 2900 538 
Q 2691 219 2414 64 
Q 2138 -91 1772 -91 
Q 1169 -91 856 284 
Q 544 659 544 1381 
z
M 1991 3584 
L 1991 3584 
z
" transform="scale(0.015625)"/>
      <path id="DejaVuSans-6b" d="M 581 4863 
L 1159 4863 
L 1159 1991 
L 2875 3500 
L 3609 3500 
L 1753 1863 
L 3688 0 
L 2938 0 
L 1159 1709 
L 1159 0 
L 581 0 
L 581 4863 
z
" transform="scale(0.015625)"/>
     </defs>
     <use xlink:href="#DejaVuSans-65"/>
     <use xlink:href="#DejaVuSans-63" x="61.523438"/>
     <use xlink:href="#DejaVuSans-68" x="116.503906"/>
     <use xlink:href="#DejaVuSans-6f" x="179.882812"/>
     <use xlink:href="#DejaVuSans-20" x="241.064453"/>
     <use xlink:href="#DejaVuSans-31" x="272.851562"/>
     <use xlink:href="#DejaVuSans-30" x="336.474609"/>
     <use xlink:href="#DejaVuSans-30" x="400.097656"/>
     <use xlink:href="#DejaVuSans-20" x="463.720703"/>
     <use xlink:href="#DejaVuSans-7c" x="495.507812"/>
     <use xlink:href="#DejaVuSans-20" x="529.199219"/>
     <use xlink:href="#DejaVuSans-70" x="560.986328"/>
     <use xlink:href="#DejaVuSans-79" x="624.462891"/>
     <use xlink:href="#DejaVuSans-74" x="683.642578"/>
     <use xlink:href="#DejaVuSans-68" x="722.851562"/>
     <use xlink:href="#DejaVuSans-6f" x="786.230469"/>
     <use xlink:href="#DejaVuSans-6e" x="847.412109"/>
     <use xlink:href="#DejaVuSans-33" x="910.791016"/>
     <use xlink:href="#DejaVuSans-20" x="974.414062"/>
     <use xlink:href="#DejaVuSans-71" x="1006.201172"/>
     <use xlink:href="#DejaVuSans-75" x="1069.677734"/>
     <use xlink:href="#DejaVuSans-69" x="1133.056641"/>
     <use xlink:href="#DejaVuSans-63" x="1160.839844"/>
     <use xlink:href="#DejaVuSans-6b" x="1215.820312"/>
     <use xlink:href="#DejaVuSans-73" x="1273.730469"/>
     <use xlink:href="#DejaVuSans-6f" x="1325.830078"/>
     <use xlink:href="#DejaVuSans-72" x="1387.011719"/>
     <use xlink:href="#DejaVuSans-74" x="1428.125"/>
     <use xlink:href="#DejaVuSans-2e" x="1467.333984"/>
     <use xlink:href="#DejaVuSans-70" x="1499.121094"/>
     <use xlink:href="#DejaVuSans-79" x="1562.597656"/>
    </g>
   </g>
  </g>
 </g>
 <defs>
  <clipPath id="pecb16e7e6b">
   <rect x="57.6" y="41.472" width="357.12" height="266.112"/>
  </clipPath>
 </defs>
</svg>
