<?xml version="1.0" encoding="utf-8" standalone="no"?>
<!DOCTYPE svg PUBLIC "-//W3C//DTD SVG 1.1//EN"
  "http://www.w3.org/Graphics/SVG/1.1/DTD/svg11.dtd">
<svg xmlns:xlink="http://www.w3.org/1999/xlink" width="757.910147pt" height="558.886875pt" viewBox="0 0 757.910147 558.886875" xmlns="http://www.w3.org/2000/svg" version="1.1">
 <metadata>
  <rdf:RDF xmlns:dc="http://purl.org/dc/elements/1.1/" xmlns:cc="http://creativecommons.org/ns#" xmlns:rdf="http://www.w3.org/1999/02/22-rdf-syntax-ns#">
   <cc:Work>
    <dc:type rdf:resource="http://purl.org/dc/dcmitype/StillImage"/>
    <dc:date>2024-01-14T13:49:56.370831</dc:date>
    <dc:format>image/svg+xml</dc:format>
    <dc:creator>
     <cc:Agent>
      <dc:title>Matplotlib v3.7.0, https://matplotlib.org/</dc:title>
     </cc:Agent>
    </dc:creator>
   </cc:Work>
  </rdf:RDF>
 </metadata>
 <defs>
  <style type="text/css">*{stroke-linejoin: round; stroke-linecap: butt}</style>
 </defs>
 <g id="figure_1">
  <g id="patch_1">
   <path d="M 0 558.886875 
L 757.910147 558.886875 
L 757.910147 0 
L 0 0 
z
" style="fill: #ffffff"/>
  </g>
  <g id="axes_1">
   <g id="patch_2">
    <path d="M 22.366055 521.330625 
L 747.766055 521.330625 
L 747.766055 22.370625 
L 22.366055 22.370625 
z
" style="fill: #ffffff"/>
   </g>
   <g id="PolyCollection_1">
    <path d="M 55.338782 206.739534 
L 55.338782 206.739534 
L 58.645206 201.140355 
L 61.892587 195.574636 
L 65.199012 190.046447 
L 68.505436 184.560761 
L 71.811861 179.122553 
L 75.118285 173.736796 
L 78.42471 168.40756 
L 81.731134 163.139819 
L 84.978515 157.938546 
L 88.28494 152.807359 
L 91.591364 147.752136 
L 94.897789 142.776043 
L 98.204213 137.884052 
L 101.510637 133.080686 
L 104.758019 128.370014 
L 108.064443 123.755653 
L 111.370867 119.242578 
L 114.677292 114.833953 
L 117.983716 110.533849 
L 121.290141 106.345881 
L 124.596565 102.274121 
L 127.843946 98.321732 
L 131.150371 94.491881 
L 134.456795 90.787732 
L 137.76322 87.212903 
L 141.069644 83.769654 
L 144.376068 80.46115 
L 147.62345 77.290106 
L 150.929874 74.258329 
L 154.236299 71.368532 
L 157.542723 68.622524 
L 160.849147 66.022566 
L 164.155572 63.570466 
L 167.461996 61.267129 
L 170.709377 59.114364 
L 174.015802 57.113074 
L 177.322226 55.264617 
L 180.628651 53.569444 
L 183.935075 52.028008 
L 187.2415 50.640761 
L 190.488881 49.407703 
L 193.795305 48.329285 
L 197.10173 47.404604 
L 200.408154 46.633208 
L 203.714578 46.01374 
L 207.021003 45.548008 
L 210.327427 45.231492 
L 213.574809 45.068712 
L 216.881233 45.050625 
L 220.187657 45.177232 
L 223.494082 45.448532 
L 226.800506 45.864525 
L 230.106931 46.42069 
L 233.354312 47.111601 
L 236.660736 47.939065 
L 239.967161 48.898563 
L 243.273585 49.98738 
L 246.58001 51.2019 
L 249.886434 52.539409 
L 253.192858 53.995837 
L 256.44024 55.568021 
L 259.746664 57.252342 
L 263.053088 59.044278 
L 266.359513 60.940665 
L 269.665937 62.93698 
L 272.972362 65.029608 
L 276.219743 67.21312 
L 279.526167 69.484353 
L 282.832592 71.838333 
L 286.139016 74.270989 
L 289.445441 76.776897 
L 292.751865 79.352438 
L 295.999246 81.992639 
L 299.305671 84.692526 
L 302.612095 87.448029 
L 305.91852 90.253723 
L 309.224944 93.105538 
L 312.531368 95.9985 
L 315.837793 98.928088 
L 319.085174 101.889779 
L 322.391598 104.879053 
L 325.698023 107.890483 
L 329.004447 110.920903 
L 332.310872 113.964889 
L 335.617296 117.018823 
L 338.864677 120.07773 
L 342.171102 123.137541 
L 345.477526 126.194188 
L 348.783951 129.244052 
L 352.090375 132.283064 
L 355.3968 135.307154 
L 358.703224 138.312706 
L 361.950605 141.296553 
L 365.25703 144.254628 
L 368.563454 147.184215 
L 371.869878 150.081699 
L 375.176303 152.944366 
L 378.482727 155.769503 
L 381.730108 158.554397 
L 385.036533 161.295884 
L 388.342957 163.992605 
L 391.649382 166.641397 
L 394.955806 169.240903 
L 398.262231 171.78841 
L 401.568655 174.283466 
L 404.816036 176.723357 
L 408.122461 179.107179 
L 411.428885 181.434029 
L 414.73531 183.702549 
L 418.041734 185.912287 
L 421.348158 188.061887 
L 424.59554 190.151801 
L 427.901964 192.181125 
L 431.208388 194.149859 
L 434.514813 196.058454 
L 437.821237 197.906459 
L 441.127662 199.694326 
L 444.434086 201.423411 
L 447.681467 203.093715 
L 450.987892 204.706141 
L 454.294316 206.262046 
L 457.600741 207.762787 
L 460.907165 209.209269 
L 464.21359 210.602846 
L 467.460971 211.945781 
L 470.767395 213.238978 
L 474.07382 214.485149 
L 477.380244 215.685651 
L 480.686668 216.842746 
L 483.993093 217.958693 
L 487.299517 219.035754 
L 490.546898 220.076641 
L 493.853323 221.083164 
L 497.159747 222.058036 
L 500.466172 223.00442 
L 503.772596 223.924579 
L 507.079021 224.820774 
L 510.326402 225.69662 
L 513.632826 226.553928 
L 516.939251 227.396315 
L 520.245675 228.226493 
L 523.5521 229.047175 
L 526.858524 229.860623 
L 530.164948 230.670453 
L 533.41233 231.479379 
L 536.718754 232.290114 
L 540.025178 233.104918 
L 543.331603 233.92741 
L 546.638027 234.759396 
L 549.944452 235.604043 
L 553.191833 236.464064 
L 556.498257 237.341268 
L 559.804682 238.238818 
L 563.111106 239.158978 
L 566.417531 240.104006 
L 569.723955 241.076164 
L 573.03038 242.077261 
L 576.277761 243.109557 
L 579.584185 244.174862 
L 582.89061 245.275888 
L 586.197034 246.413087 
L 589.503458 247.589172 
L 592.809883 248.805048 
L 596.057264 250.062524 
L 599.363688 251.362955 
L 602.670113 252.707698 
L 605.976537 254.097207 
L 609.282962 255.533288 
L 612.589386 257.016846 
L 615.895811 258.547883 
L 619.143192 260.127753 
L 622.449616 261.756909 
L 625.756041 263.435804 
L 629.062465 265.164889 
L 632.36889 266.944165 
L 635.675314 268.774083 
L 638.922695 270.654644 
L 642.22912 272.585848 
L 645.535544 274.567242 
L 648.841968 276.598375 
L 652.148393 278.679698 
L 655.454817 280.810307 
L 658.761242 282.98975 
L 662.008623 285.217123 
L 665.315047 287.491973 
L 668.621472 289.812944 
L 671.927896 292.180037 
L 675.234321 294.591894 
L 678.540745 297.047158 
L 681.788126 299.544475 
L 685.094551 302.08339 
L 688.400975 304.662097 
L 691.7074 307.279237 
L 695.013824 309.933455 
L 698.320248 312.623395 
L 701.626673 315.347246 
L 704.874054 318.103202 
L 708.180478 320.889905 
L 711.486903 323.705546 
L 711.486903 323.705546 
L 711.486903 498.650625 
L 708.180478 498.650625 
L 704.874054 498.650625 
L 701.626673 498.650625 
L 698.320248 498.650625 
L 695.013824 498.650625 
L 691.7074 498.650625 
L 688.400975 498.650625 
L 685.094551 498.650625 
L 681.788126 498.650625 
L 678.540745 498.650625 
L 675.234321 498.650625 
L 671.927896 498.650625 
L 668.621472 498.650625 
L 665.315047 498.650625 
L 662.008623 498.650625 
L 658.761242 498.650625 
L 655.454817 498.650625 
L 652.148393 498.650625 
L 648.841968 498.650625 
L 645.535544 498.650625 
L 642.22912 498.650625 
L 638.922695 498.650625 
L 635.675314 498.650625 
L 632.36889 498.650625 
L 629.062465 498.650625 
L 625.756041 498.650625 
L 622.449616 498.650625 
L 619.143192 498.650625 
L 615.895811 498.650625 
L 612.589386 498.650625 
L 609.282962 498.650625 
L 605.976537 498.650625 
L 602.670113 498.650625 
L 599.363688 498.650625 
L 596.057264 498.650625 
L 592.809883 498.650625 
L 589.503458 498.650625 
L 586.197034 498.650625 
L 582.89061 498.650625 
L 579.584185 498.650625 
L 576.277761 498.650625 
L 573.03038 498.650625 
L 569.723955 498.650625 
L 566.417531 498.650625 
L 563.111106 498.650625 
L 559.804682 498.650625 
L 556.498257 498.650625 
L 553.191833 498.650625 
L 549.944452 498.650625 
L 546.638027 498.650625 
L 543.331603 498.650625 
L 540.025178 498.650625 
L 536.718754 498.650625 
L 533.41233 498.650625 
L 530.164948 498.650625 
L 526.858524 498.650625 
L 523.5521 498.650625 
L 520.245675 498.650625 
L 516.939251 498.650625 
L 513.632826 498.650625 
L 510.326402 498.650625 
L 507.079021 498.650625 
L 503.772596 498.650625 
L 500.466172 498.650625 
L 497.159747 498.650625 
L 493.853323 498.650625 
L 490.546898 498.650625 
L 487.299517 498.650625 
L 483.993093 498.650625 
L 480.686668 498.650625 
L 477.380244 498.650625 
L 474.07382 498.650625 
L 470.767395 498.650625 
L 467.460971 498.650625 
L 464.21359 498.650625 
L 460.907165 498.650625 
L 457.600741 498.650625 
L 454.294316 498.650625 
L 450.987892 498.650625 
L 447.681467 498.650625 
L 444.434086 498.650625 
L 441.127662 498.650625 
L 437.821237 498.650625 
L 434.514813 498.650625 
L 431.208388 498.650625 
L 427.901964 498.650625 
L 424.59554 498.650625 
L 421.348158 498.650625 
L 418.041734 498.650625 
L 414.73531 498.650625 
L 411.428885 498.650625 
L 408.122461 498.650625 
L 404.816036 498.650625 
L 401.568655 498.650625 
L 398.262231 498.650625 
L 394.955806 498.650625 
L 391.649382 498.650625 
L 388.342957 498.650625 
L 385.036533 498.650625 
L 381.730108 498.650625 
L 378.482727 498.650625 
L 375.176303 498.650625 
L 371.869878 498.650625 
L 368.563454 498.650625 
L 365.25703 498.650625 
L 361.950605 498.650625 
L 358.703224 498.650625 
L 355.3968 498.650625 
L 352.090375 498.650625 
L 348.783951 498.650625 
L 345.477526 498.650625 
L 342.171102 498.650625 
L 338.864677 498.650625 
L 335.617296 498.650625 
L 332.310872 498.650625 
L 329.004447 498.650625 
L 325.698023 498.650625 
L 322.391598 498.650625 
L 319.085174 498.650625 
L 315.837793 498.650625 
L 312.531368 498.650625 
L 309.224944 498.650625 
L 305.91852 498.650625 
L 302.612095 498.650625 
L 299.305671 498.650625 
L 295.999246 498.650625 
L 292.751865 498.650625 
L 289.445441 498.650625 
L 286.139016 498.650625 
L 282.832592 498.650625 
L 279.526167 498.650625 
L 276.219743 498.650625 
L 272.972362 498.650625 
L 269.665937 498.650625 
L 266.359513 498.650625 
L 263.053088 498.650625 
L 259.746664 498.650625 
L 256.44024 498.650625 
L 253.192858 498.650625 
L 249.886434 498.650625 
L 246.58001 498.650625 
L 243.273585 498.650625 
L 239.967161 498.650625 
L 236.660736 498.650625 
L 233.354312 498.650625 
L 230.106931 498.650625 
L 226.800506 498.650625 
L 223.494082 498.650625 
L 220.187657 498.650625 
L 216.881233 498.650625 
L 213.574809 498.650625 
L 210.327427 498.650625 
L 207.021003 498.650625 
L 203.714578 498.650625 
L 200.408154 498.650625 
L 197.10173 498.650625 
L 193.795305 498.650625 
L 190.488881 498.650625 
L 187.2415 498.650625 
L 183.935075 498.650625 
L 180.628651 498.650625 
L 177.322226 498.650625 
L 174.015802 498.650625 
L 170.709377 498.650625 
L 167.461996 498.650625 
L 164.155572 498.650625 
L 160.849147 498.650625 
L 157.542723 498.650625 
L 154.236299 498.650625 
L 150.929874 498.650625 
L 147.62345 498.650625 
L 144.376068 498.650625 
L 141.069644 498.650625 
L 137.76322 498.650625 
L 134.456795 498.650625 
L 131.150371 498.650625 
L 127.843946 498.650625 
L 124.596565 498.650625 
L 121.290141 498.650625 
L 117.983716 498.650625 
L 114.677292 498.650625 
L 111.370867 498.650625 
L 108.064443 498.650625 
L 104.758019 498.650625 
L 101.510637 498.650625 
L 98.204213 498.650625 
L 94.897789 498.650625 
L 91.591364 498.650625 
L 88.28494 498.650625 
L 84.978515 498.650625 
L 81.731134 498.650625 
L 78.42471 498.650625 
L 75.118285 498.650625 
L 71.811861 498.650625 
L 68.505436 498.650625 
L 65.199012 498.650625 
L 61.892587 498.650625 
L 58.645206 498.650625 
L 55.338782 498.650625 
z
" clip-path="url(#p30b6226dcc)" style="fill: #1f77b4; fill-opacity: 0.25"/>
   </g>
   <g id="matplotlib.axis_1">
    <g id="xtick_1">
     <g id="line2d_1">
      <defs>
       <path id="m6d6d675bcb" d="M 0 0 
L 0 3.5 
" style="stroke: #000000; stroke-width: 0.8"/>
      </defs>
      <g>
       <use xlink:href="#m6d6d675bcb" x="24.695312" y="521.330625" style="stroke: #000000; stroke-width: 0.8"/>
      </g>
     </g>
     <g id="text_1">
      <!-- 0.0128 -->
      <g transform="translate(7.2 535.929062) scale(0.1 -0.1)">
       <defs>
        <path id="DejaVuSans-30" d="M 2034 4250 
Q 1547 4250 1301 3770 
Q 1056 3291 1056 2328 
Q 1056 1369 1301 889 
Q 1547 409 2034 409 
Q 2525 409 2770 889 
Q 3016 1369 3016 2328 
Q 3016 3291 2770 3770 
Q 2525 4250 2034 4250 
z
M 2034 4750 
Q 2819 4750 3233 4129 
Q 3647 3509 3647 2328 
Q 3647 1150 3233 529 
Q 2819 -91 2034 -91 
Q 1250 -91 836 529 
Q 422 1150 422 2328 
Q 422 3509 836 4129 
Q 1250 4750 2034 4750 
z
" transform="scale(0.015625)"/>
        <path id="DejaVuSans-2e" d="M 684 794 
L 1344 794 
L 1344 0 
L 684 0 
L 684 794 
z
" transform="scale(0.015625)"/>
        <path id="DejaVuSans-31" d="M 794 531 
L 1825 531 
L 1825 4091 
L 703 3866 
L 703 4441 
L 1819 4666 
L 2450 4666 
L 2450 531 
L 3481 531 
L 3481 0 
L 794 0 
L 794 531 
z
" transform="scale(0.015625)"/>
        <path id="DejaVuSans-32" d="M 1228 531 
L 3431 531 
L 3431 0 
L 469 0 
L 469 531 
Q 828 903 1448 1529 
Q 2069 2156 2228 2338 
Q 2531 2678 2651 2914 
Q 2772 3150 2772 3378 
Q 2772 3750 2511 3984 
Q 2250 4219 1831 4219 
Q 1534 4219 1204 4116 
Q 875 4013 500 3803 
L 500 4441 
Q 881 4594 1212 4672 
Q 1544 4750 1819 4750 
Q 2544 4750 2975 4387 
Q 3406 4025 3406 3419 
Q 3406 3131 3298 2873 
Q 3191 2616 2906 2266 
Q 2828 2175 2409 1742 
Q 1991 1309 1228 531 
z
" transform="scale(0.015625)"/>
        <path id="DejaVuSans-38" d="M 2034 2216 
Q 1584 2216 1326 1975 
Q 1069 1734 1069 1313 
Q 1069 891 1326 650 
Q 1584 409 2034 409 
Q 2484 409 2743 651 
Q 3003 894 3003 1313 
Q 3003 1734 2745 1975 
Q 2488 2216 2034 2216 
z
M 1403 2484 
Q 997 2584 770 2862 
Q 544 3141 544 3541 
Q 544 4100 942 4425 
Q 1341 4750 2034 4750 
Q 2731 4750 3128 4425 
Q 3525 4100 3525 3541 
Q 3525 3141 3298 2862 
Q 3072 2584 2669 2484 
Q 3125 2378 3379 2068 
Q 3634 1759 3634 1313 
Q 3634 634 3220 271 
Q 2806 -91 2034 -91 
Q 1263 -91 848 271 
Q 434 634 434 1313 
Q 434 1759 690 2068 
Q 947 2378 1403 2484 
z
M 1172 3481 
Q 1172 3119 1398 2916 
Q 1625 2713 2034 2713 
Q 2441 2713 2670 2916 
Q 2900 3119 2900 3481 
Q 2900 3844 2670 4047 
Q 2441 4250 2034 4250 
Q 1625 4250 1398 4047 
Q 1172 3844 1172 3481 
z
" transform="scale(0.015625)"/>
       </defs>
       <use xlink:href="#DejaVuSans-30"/>
       <use xlink:href="#DejaVuSans-2e" x="63.623047"/>
       <use xlink:href="#DejaVuSans-30" x="95.410156"/>
       <use xlink:href="#DejaVuSans-31" x="159.033203"/>
       <use xlink:href="#DejaVuSans-32" x="222.65625"/>
       <use xlink:href="#DejaVuSans-38" x="286.279297"/>
      </g>
     </g>
    </g>
    <g id="xtick_2">
     <g id="line2d_2">
      <g>
       <use xlink:href="#m6d6d675bcb" x="142.7819" y="521.330625" style="stroke: #000000; stroke-width: 0.8"/>
      </g>
     </g>
     <g id="text_2">
      <!-- 0.0130 -->
      <g transform="translate(125.286587 535.929062) scale(0.1 -0.1)">
       <defs>
        <path id="DejaVuSans-33" d="M 2597 2516 
Q 3050 2419 3304 2112 
Q 3559 1806 3559 1356 
Q 3559 666 3084 287 
Q 2609 -91 1734 -91 
Q 1441 -91 1130 -33 
Q 819 25 488 141 
L 488 750 
Q 750 597 1062 519 
Q 1375 441 1716 441 
Q 2309 441 2620 675 
Q 2931 909 2931 1356 
Q 2931 1769 2642 2001 
Q 2353 2234 1838 2234 
L 1294 2234 
L 1294 2753 
L 1863 2753 
Q 2328 2753 2575 2939 
Q 2822 3125 2822 3475 
Q 2822 3834 2567 4026 
Q 2313 4219 1838 4219 
Q 1578 4219 1281 4162 
Q 984 4106 628 3988 
L 628 4550 
Q 988 4650 1302 4700 
Q 1616 4750 1894 4750 
Q 2613 4750 3031 4423 
Q 3450 4097 3450 3541 
Q 3450 3153 3228 2886 
Q 3006 2619 2597 2516 
z
" transform="scale(0.015625)"/>
       </defs>
       <use xlink:href="#DejaVuSans-30"/>
       <use xlink:href="#DejaVuSans-2e" x="63.623047"/>
       <use xlink:href="#DejaVuSans-30" x="95.410156"/>
       <use xlink:href="#DejaVuSans-31" x="159.033203"/>
       <use xlink:href="#DejaVuSans-33" x="222.65625"/>
       <use xlink:href="#DejaVuSans-30" x="286.279297"/>
      </g>
     </g>
    </g>
    <g id="xtick_3">
     <g id="line2d_3">
      <g>
       <use xlink:href="#m6d6d675bcb" x="260.868487" y="521.330625" style="stroke: #000000; stroke-width: 0.8"/>
      </g>
     </g>
     <g id="text_3">
      <!-- 0.0132 -->
      <g transform="translate(243.373174 535.929062) scale(0.1 -0.1)">
       <use xlink:href="#DejaVuSans-30"/>
       <use xlink:href="#DejaVuSans-2e" x="63.623047"/>
       <use xlink:href="#DejaVuSans-30" x="95.410156"/>
       <use xlink:href="#DejaVuSans-31" x="159.033203"/>
       <use xlink:href="#DejaVuSans-33" x="222.65625"/>
       <use xlink:href="#DejaVuSans-32" x="286.279297"/>
      </g>
     </g>
    </g>
    <g id="xtick_4">
     <g id="line2d_4">
      <g>
       <use xlink:href="#m6d6d675bcb" x="378.955074" y="521.330625" style="stroke: #000000; stroke-width: 0.8"/>
      </g>
     </g>
     <g id="text_4">
      <!-- 0.0134 -->
      <g transform="translate(361.459761 535.929062) scale(0.1 -0.1)">
       <defs>
        <path id="DejaVuSans-34" d="M 2419 4116 
L 825 1625 
L 2419 1625 
L 2419 4116 
z
M 2253 4666 
L 3047 4666 
L 3047 1625 
L 3713 1625 
L 3713 1100 
L 3047 1100 
L 3047 0 
L 2419 0 
L 2419 1100 
L 313 1100 
L 313 1709 
L 2253 4666 
z
" transform="scale(0.015625)"/>
       </defs>
       <use xlink:href="#DejaVuSans-30"/>
       <use xlink:href="#DejaVuSans-2e" x="63.623047"/>
       <use xlink:href="#DejaVuSans-30" x="95.410156"/>
       <use xlink:href="#DejaVuSans-31" x="159.033203"/>
       <use xlink:href="#DejaVuSans-33" x="222.65625"/>
       <use xlink:href="#DejaVuSans-34" x="286.279297"/>
      </g>
     </g>
    </g>
    <g id="xtick_5">
     <g id="line2d_5">
      <g>
       <use xlink:href="#m6d6d675bcb" x="497.041661" y="521.330625" style="stroke: #000000; stroke-width: 0.8"/>
      </g>
     </g>
     <g id="text_5">
      <!-- 0.0136 -->
      <g transform="translate(479.546348 535.929062) scale(0.1 -0.1)">
       <defs>
        <path id="DejaVuSans-36" d="M 2113 2584 
Q 1688 2584 1439 2293 
Q 1191 2003 1191 1497 
Q 1191 994 1439 701 
Q 1688 409 2113 409 
Q 2538 409 2786 701 
Q 3034 994 3034 1497 
Q 3034 2003 2786 2293 
Q 2538 2584 2113 2584 
z
M 3366 4563 
L 3366 3988 
Q 3128 4100 2886 4159 
Q 2644 4219 2406 4219 
Q 1781 4219 1451 3797 
Q 1122 3375 1075 2522 
Q 1259 2794 1537 2939 
Q 1816 3084 2150 3084 
Q 2853 3084 3261 2657 
Q 3669 2231 3669 1497 
Q 3669 778 3244 343 
Q 2819 -91 2113 -91 
Q 1303 -91 875 529 
Q 447 1150 447 2328 
Q 447 3434 972 4092 
Q 1497 4750 2381 4750 
Q 2619 4750 2861 4703 
Q 3103 4656 3366 4563 
z
" transform="scale(0.015625)"/>
       </defs>
       <use xlink:href="#DejaVuSans-30"/>
       <use xlink:href="#DejaVuSans-2e" x="63.623047"/>
       <use xlink:href="#DejaVuSans-30" x="95.410156"/>
       <use xlink:href="#DejaVuSans-31" x="159.033203"/>
       <use xlink:href="#DejaVuSans-33" x="222.65625"/>
       <use xlink:href="#DejaVuSans-36" x="286.279297"/>
      </g>
     </g>
    </g>
    <g id="xtick_6">
     <g id="line2d_6">
      <g>
       <use xlink:href="#m6d6d675bcb" x="615.128248" y="521.330625" style="stroke: #000000; stroke-width: 0.8"/>
      </g>
     </g>
     <g id="text_6">
      <!-- 0.0138 -->
      <g transform="translate(597.632935 535.929062) scale(0.1 -0.1)">
       <use xlink:href="#DejaVuSans-30"/>
       <use xlink:href="#DejaVuSans-2e" x="63.623047"/>
       <use xlink:href="#DejaVuSans-30" x="95.410156"/>
       <use xlink:href="#DejaVuSans-31" x="159.033203"/>
       <use xlink:href="#DejaVuSans-33" x="222.65625"/>
       <use xlink:href="#DejaVuSans-38" x="286.279297"/>
      </g>
     </g>
    </g>
    <g id="xtick_7">
     <g id="line2d_7">
      <g>
       <use xlink:href="#m6d6d675bcb" x="733.214835" y="521.330625" style="stroke: #000000; stroke-width: 0.8"/>
      </g>
     </g>
     <g id="text_7">
      <!-- 0.0140 -->
      <g transform="translate(715.719522 535.929062) scale(0.1 -0.1)">
       <use xlink:href="#DejaVuSans-30"/>
       <use xlink:href="#DejaVuSans-2e" x="63.623047"/>
       <use xlink:href="#DejaVuSans-30" x="95.410156"/>
       <use xlink:href="#DejaVuSans-31" x="159.033203"/>
       <use xlink:href="#DejaVuSans-34" x="222.65625"/>
       <use xlink:href="#DejaVuSans-30" x="286.279297"/>
      </g>
     </g>
    </g>
    <g id="text_8">
     <!-- t [s] -->
     <g transform="translate(375.010586 549.607188) scale(0.1 -0.1)">
      <defs>
       <path id="DejaVuSans-74" d="M 1172 4494 
L 1172 3500 
L 2356 3500 
L 2356 3053 
L 1172 3053 
L 1172 1153 
Q 1172 725 1289 603 
Q 1406 481 1766 481 
L 2356 481 
L 2356 0 
L 1766 0 
Q 1100 0 847 248 
Q 594 497 594 1153 
L 594 3053 
L 172 3053 
L 172 3500 
L 594 3500 
L 594 4494 
L 1172 4494 
z
" transform="scale(0.015625)"/>
       <path id="DejaVuSans-20" transform="scale(0.015625)"/>
       <path id="DejaVuSans-5b" d="M 550 4863 
L 1875 4863 
L 1875 4416 
L 1125 4416 
L 1125 -397 
L 1875 -397 
L 1875 -844 
L 550 -844 
L 550 4863 
z
" transform="scale(0.015625)"/>
       <path id="DejaVuSans-73" d="M 2834 3397 
L 2834 2853 
Q 2591 2978 2328 3040 
Q 2066 3103 1784 3103 
Q 1356 3103 1142 2972 
Q 928 2841 928 2578 
Q 928 2378 1081 2264 
Q 1234 2150 1697 2047 
L 1894 2003 
Q 2506 1872 2764 1633 
Q 3022 1394 3022 966 
Q 3022 478 2636 193 
Q 2250 -91 1575 -91 
Q 1294 -91 989 -36 
Q 684 19 347 128 
L 347 722 
Q 666 556 975 473 
Q 1284 391 1588 391 
Q 1994 391 2212 530 
Q 2431 669 2431 922 
Q 2431 1156 2273 1281 
Q 2116 1406 1581 1522 
L 1381 1569 
Q 847 1681 609 1914 
Q 372 2147 372 2553 
Q 372 3047 722 3315 
Q 1072 3584 1716 3584 
Q 2034 3584 2315 3537 
Q 2597 3491 2834 3397 
z
" transform="scale(0.015625)"/>
       <path id="DejaVuSans-5d" d="M 1947 4863 
L 1947 -844 
L 622 -844 
L 622 -397 
L 1369 -397 
L 1369 4416 
L 622 4416 
L 622 4863 
L 1947 4863 
z
" transform="scale(0.015625)"/>
      </defs>
      <use xlink:href="#DejaVuSans-74"/>
      <use xlink:href="#DejaVuSans-20" x="39.208984"/>
      <use xlink:href="#DejaVuSans-5b" x="70.996094"/>
      <use xlink:href="#DejaVuSans-73" x="110.009766"/>
      <use xlink:href="#DejaVuSans-5d" x="162.109375"/>
     </g>
    </g>
   </g>
   <g id="matplotlib.axis_2">
    <g id="ytick_1"/>
    <g id="ytick_2"/>
    <g id="ytick_3"/>
    <g id="ytick_4"/>
    <g id="ytick_5"/>
    <g id="ytick_6"/>
    <g id="text_9">
     <!-- runs -->
     <g transform="translate(16.286367 282.848281) rotate(-90) scale(0.1 -0.1)">
      <defs>
       <path id="DejaVuSans-72" d="M 2631 2963 
Q 2534 3019 2420 3045 
Q 2306 3072 2169 3072 
Q 1681 3072 1420 2755 
Q 1159 2438 1159 1844 
L 1159 0 
L 581 0 
L 581 3500 
L 1159 3500 
L 1159 2956 
Q 1341 3275 1631 3429 
Q 1922 3584 2338 3584 
Q 2397 3584 2469 3576 
Q 2541 3569 2628 3553 
L 2631 2963 
z
" transform="scale(0.015625)"/>
       <path id="DejaVuSans-75" d="M 544 1381 
L 544 3500 
L 1119 3500 
L 1119 1403 
Q 1119 906 1312 657 
Q 1506 409 1894 409 
Q 2359 409 2629 706 
Q 2900 1003 2900 1516 
L 2900 3500 
L 3475 3500 
L 3475 0 
L 2900 0 
L 2900 538 
Q 2691 219 2414 64 
Q 2138 -91 1772 -91 
Q 1169 -91 856 284 
Q 544 659 544 1381 
z
M 1991 3584 
L 1991 3584 
z
" transform="scale(0.015625)"/>
       <path id="DejaVuSans-6e" d="M 3513 2113 
L 3513 0 
L 2938 0 
L 2938 2094 
Q 2938 2591 2744 2837 
Q 2550 3084 2163 3084 
Q 1697 3084 1428 2787 
Q 1159 2491 1159 1978 
L 1159 0 
L 581 0 
L 581 3500 
L 1159 3500 
L 1159 2956 
Q 1366 3272 1645 3428 
Q 1925 3584 2291 3584 
Q 2894 3584 3203 3211 
Q 3513 2838 3513 2113 
z
" transform="scale(0.015625)"/>
      </defs>
      <use xlink:href="#DejaVuSans-72"/>
      <use xlink:href="#DejaVuSans-75" x="41.113281"/>
      <use xlink:href="#DejaVuSans-6e" x="104.492188"/>
      <use xlink:href="#DejaVuSans-73" x="167.871094"/>
     </g>
    </g>
   </g>
   <g id="line2d_8">
    <defs>
     <path id="m244c69dd98" d="M 0 1 
C 0.265203 1 0.51958 0.894634 0.707107 0.707107 
C 0.894634 0.51958 1 0.265203 1 0 
C 1 -0.265203 0.894634 -0.51958 0.707107 -0.707107 
C 0.51958 -0.894634 0.265203 -1 0 -1 
C -0.265203 -1 -0.51958 -0.894634 -0.707107 -0.707107 
C -0.894634 -0.51958 -1 -0.265203 -1 0 
C -1 0.265203 -0.894634 0.51958 -0.707107 0.707107 
C -0.51958 0.894634 -0.265203 1 0 1 
z
" style="stroke: #1f77b4"/>
    </defs>
    <g clip-path="url(#p30b6226dcc)">
     <use xlink:href="#m244c69dd98" x="524.496792" y="453.290625" style="fill: #1f77b4; stroke: #1f77b4"/>
     <use xlink:href="#m244c69dd98" x="327.056019" y="407.930173" style="fill: #1f77b4; stroke: #1f77b4"/>
     <use xlink:href="#m244c69dd98" x="55.338782" y="362.570173" style="fill: #1f77b4; stroke: #1f77b4"/>
     <use xlink:href="#m244c69dd98" x="392.121728" y="317.209721" style="fill: #1f77b4; stroke: #1f77b4"/>
     <use xlink:href="#m244c69dd98" x="191.1974" y="271.849721" style="fill: #1f77b4; stroke: #1f77b4"/>
     <use xlink:href="#m244c69dd98" x="105.348451" y="226.489721" style="fill: #1f77b4; stroke: #1f77b4"/>
     <use xlink:href="#m244c69dd98" x="596.234394" y="181.129269" style="fill: #1f77b4; stroke: #1f77b4"/>
     <use xlink:href="#m244c69dd98" x="714.793327" y="135.769269" style="fill: #1f77b4; stroke: #1f77b4"/>
     <use xlink:href="#m244c69dd98" x="216.054627" y="90.408816" style="fill: #1f77b4; stroke: #1f77b4"/>
     <use xlink:href="#m244c69dd98" x="233.590485" y="45.050625" style="fill: #1f77b4; stroke: #1f77b4"/>
    </g>
   </g>
   <g id="line2d_9">
    <path d="M 335.853469 521.330625 
L 335.853469 22.370625 
" clip-path="url(#p30b6226dcc)" style="fill: none; stroke: #1f77b4; stroke-width: 1.5; stroke-linecap: square"/>
   </g>
   <g id="patch_3">
    <path d="M 22.366055 521.330625 
L 22.366055 22.370625 
" style="fill: none; stroke: #000000; stroke-width: 0.8; stroke-linejoin: miter; stroke-linecap: square"/>
   </g>
   <g id="patch_4">
    <path d="M 747.766055 521.330625 
L 747.766055 22.370625 
" style="fill: none; stroke: #000000; stroke-width: 0.8; stroke-linejoin: miter; stroke-linecap: square"/>
   </g>
   <g id="patch_5">
    <path d="M 22.366055 521.330625 
L 747.766055 521.330625 
" style="fill: none; stroke: #000000; stroke-width: 0.8; stroke-linejoin: miter; stroke-linecap: square"/>
   </g>
   <g id="patch_6">
    <path d="M 22.366055 22.370625 
L 747.766055 22.370625 
" style="fill: none; stroke: #000000; stroke-width: 0.8; stroke-linejoin: miter; stroke-linecap: square"/>
   </g>
   <g id="text_10">
    <!-- echo 9100 | python3 quicksort.py -->
    <g transform="translate(283.94168 16.370625) scale(0.12 -0.12)">
     <defs>
      <path id="DejaVuSans-65" d="M 3597 1894 
L 3597 1613 
L 953 1613 
Q 991 1019 1311 708 
Q 1631 397 2203 397 
Q 2534 397 2845 478 
Q 3156 559 3463 722 
L 3463 178 
Q 3153 47 2828 -22 
Q 2503 -91 2169 -91 
Q 1331 -91 842 396 
Q 353 884 353 1716 
Q 353 2575 817 3079 
Q 1281 3584 2069 3584 
Q 2775 3584 3186 3129 
Q 3597 2675 3597 1894 
z
M 3022 2063 
Q 3016 2534 2758 2815 
Q 2500 3097 2075 3097 
Q 1594 3097 1305 2825 
Q 1016 2553 972 2059 
L 3022 2063 
z
" transform="scale(0.015625)"/>
      <path id="DejaVuSans-63" d="M 3122 3366 
L 3122 2828 
Q 2878 2963 2633 3030 
Q 2388 3097 2138 3097 
Q 1578 3097 1268 2742 
Q 959 2388 959 1747 
Q 959 1106 1268 751 
Q 1578 397 2138 397 
Q 2388 397 2633 464 
Q 2878 531 3122 666 
L 3122 134 
Q 2881 22 2623 -34 
Q 2366 -91 2075 -91 
Q 1284 -91 818 406 
Q 353 903 353 1747 
Q 353 2603 823 3093 
Q 1294 3584 2113 3584 
Q 2378 3584 2631 3529 
Q 2884 3475 3122 3366 
z
" transform="scale(0.015625)"/>
      <path id="DejaVuSans-68" d="M 3513 2113 
L 3513 0 
L 2938 0 
L 2938 2094 
Q 2938 2591 2744 2837 
Q 2550 3084 2163 3084 
Q 1697 3084 1428 2787 
Q 1159 2491 1159 1978 
L 1159 0 
L 581 0 
L 581 4863 
L 1159 4863 
L 1159 2956 
Q 1366 3272 1645 3428 
Q 1925 3584 2291 3584 
Q 2894 3584 3203 3211 
Q 3513 2838 3513 2113 
z
" transform="scale(0.015625)"/>
      <path id="DejaVuSans-6f" d="M 1959 3097 
Q 1497 3097 1228 2736 
Q 959 2375 959 1747 
Q 959 1119 1226 758 
Q 1494 397 1959 397 
Q 2419 397 2687 759 
Q 2956 1122 2956 1747 
Q 2956 2369 2687 2733 
Q 2419 3097 1959 3097 
z
M 1959 3584 
Q 2709 3584 3137 3096 
Q 3566 2609 3566 1747 
Q 3566 888 3137 398 
Q 2709 -91 1959 -91 
Q 1206 -91 779 398 
Q 353 888 353 1747 
Q 353 2609 779 3096 
Q 1206 3584 1959 3584 
z
" transform="scale(0.015625)"/>
      <path id="DejaVuSans-39" d="M 703 97 
L 703 672 
Q 941 559 1184 500 
Q 1428 441 1663 441 
Q 2288 441 2617 861 
Q 2947 1281 2994 2138 
Q 2813 1869 2534 1725 
Q 2256 1581 1919 1581 
Q 1219 1581 811 2004 
Q 403 2428 403 3163 
Q 403 3881 828 4315 
Q 1253 4750 1959 4750 
Q 2769 4750 3195 4129 
Q 3622 3509 3622 2328 
Q 3622 1225 3098 567 
Q 2575 -91 1691 -91 
Q 1453 -91 1209 -44 
Q 966 3 703 97 
z
M 1959 2075 
Q 2384 2075 2632 2365 
Q 2881 2656 2881 3163 
Q 2881 3666 2632 3958 
Q 2384 4250 1959 4250 
Q 1534 4250 1286 3958 
Q 1038 3666 1038 3163 
Q 1038 2656 1286 2365 
Q 1534 2075 1959 2075 
z
" transform="scale(0.015625)"/>
      <path id="DejaVuSans-7c" d="M 1344 4891 
L 1344 -1509 
L 813 -1509 
L 813 4891 
L 1344 4891 
z
" transform="scale(0.015625)"/>
      <path id="DejaVuSans-70" d="M 1159 525 
L 1159 -1331 
L 581 -1331 
L 581 3500 
L 1159 3500 
L 1159 2969 
Q 1341 3281 1617 3432 
Q 1894 3584 2278 3584 
Q 2916 3584 3314 3078 
Q 3713 2572 3713 1747 
Q 3713 922 3314 415 
Q 2916 -91 2278 -91 
Q 1894 -91 1617 61 
Q 1341 213 1159 525 
z
M 3116 1747 
Q 3116 2381 2855 2742 
Q 2594 3103 2138 3103 
Q 1681 3103 1420 2742 
Q 1159 2381 1159 1747 
Q 1159 1113 1420 752 
Q 1681 391 2138 391 
Q 2594 391 2855 752 
Q 3116 1113 3116 1747 
z
" transform="scale(0.015625)"/>
      <path id="DejaVuSans-79" d="M 2059 -325 
Q 1816 -950 1584 -1140 
Q 1353 -1331 966 -1331 
L 506 -1331 
L 506 -850 
L 844 -850 
Q 1081 -850 1212 -737 
Q 1344 -625 1503 -206 
L 1606 56 
L 191 3500 
L 800 3500 
L 1894 763 
L 2988 3500 
L 3597 3500 
L 2059 -325 
z
" transform="scale(0.015625)"/>
      <path id="DejaVuSans-71" d="M 947 1747 
Q 947 1113 1208 752 
Q 1469 391 1925 391 
Q 2381 391 2643 752 
Q 2906 1113 2906 1747 
Q 2906 2381 2643 2742 
Q 2381 3103 1925 3103 
Q 1469 3103 1208 2742 
Q 947 2381 947 1747 
z
M 2906 525 
Q 2725 213 2448 61 
Q 2172 -91 1784 -91 
Q 1150 -91 751 415 
Q 353 922 353 1747 
Q 353 2572 751 3078 
Q 1150 3584 1784 3584 
Q 2172 3584 2448 3432 
Q 2725 3281 2906 2969 
L 2906 3500 
L 3481 3500 
L 3481 -1331 
L 2906 -1331 
L 2906 525 
z
" transform="scale(0.015625)"/>
      <path id="DejaVuSans-69" d="M 603 3500 
L 1178 3500 
L 1178 0 
L 603 0 
L 603 3500 
z
M 603 4863 
L 1178 4863 
L 1178 4134 
L 603 4134 
L 603 4863 
z
" transform="scale(0.015625)"/>
      <path id="DejaVuSans-6b" d="M 581 4863 
L 1159 4863 
L 1159 1991 
L 2875 3500 
L 3609 3500 
L 1753 1863 
L 3688 0 
L 2938 0 
L 1159 1709 
L 1159 0 
L 581 0 
L 581 4863 
z
" transform="scale(0.015625)"/>
     </defs>
     <use xlink:href="#DejaVuSans-65"/>
     <use xlink:href="#DejaVuSans-63" x="61.523438"/>
     <use xlink:href="#DejaVuSans-68" x="116.503906"/>
     <use xlink:href="#DejaVuSans-6f" x="179.882812"/>
     <use xlink:href="#DejaVuSans-20" x="241.064453"/>
     <use xlink:href="#DejaVuSans-39" x="272.851562"/>
     <use xlink:href="#DejaVuSans-31" x="336.474609"/>
     <use xlink:href="#DejaVuSans-30" x="400.097656"/>
     <use xlink:href="#DejaVuSans-30" x="463.720703"/>
     <use xlink:href="#DejaVuSans-20" x="527.34375"/>
     <use xlink:href="#DejaVuSans-7c" x="559.130859"/>
     <use xlink:href="#DejaVuSans-20" x="592.822266"/>
     <use xlink:href="#DejaVuSans-70" x="624.609375"/>
     <use xlink:href="#DejaVuSans-79" x="688.085938"/>
     <use xlink:href="#DejaVuSans-74" x="747.265625"/>
     <use xlink:href="#DejaVuSans-68" x="786.474609"/>
     <use xlink:href="#DejaVuSans-6f" x="849.853516"/>
     <use xlink:href="#DejaVuSans-6e" x="911.035156"/>
     <use xlink:href="#DejaVuSans-33" x="974.414062"/>
     <use xlink:href="#DejaVuSans-20" x="1038.037109"/>
     <use xlink:href="#DejaVuSans-71" x="1069.824219"/>
     <use xlink:href="#DejaVuSans-75" x="1133.300781"/>
     <use xlink:href="#DejaVuSans-69" x="1196.679688"/>
     <use xlink:href="#DejaVuSans-63" x="1224.462891"/>
     <use xlink:href="#DejaVuSans-6b" x="1279.443359"/>
     <use xlink:href="#DejaVuSans-73" x="1337.353516"/>
     <use xlink:href="#DejaVuSans-6f" x="1389.453125"/>
     <use xlink:href="#DejaVuSans-72" x="1450.634766"/>
     <use xlink:href="#DejaVuSans-74" x="1491.748047"/>
     <use xlink:href="#DejaVuSans-2e" x="1530.957031"/>
     <use xlink:href="#DejaVuSans-70" x="1562.744141"/>
     <use xlink:href="#DejaVuSans-79" x="1626.220703"/>
    </g>
   </g>
  </g>
 </g>
 <defs>
  <clipPath id="p30b6226dcc">
   <rect x="22.366055" y="22.370625" width="725.4" height="498.96"/>
  </clipPath>
 </defs>
</svg>
