<?xml version="1.0" encoding="utf-8" standalone="no"?>
<!DOCTYPE svg PUBLIC "-//W3C//DTD SVG 1.1//EN"
  "http://www.w3.org/Graphics/SVG/1.1/DTD/svg11.dtd">
<svg xmlns:xlink="http://www.w3.org/1999/xlink" width="753.478125pt" height="558.886875pt" viewBox="0 0 753.478125 558.886875" xmlns="http://www.w3.org/2000/svg" version="1.1">
 <metadata>
  <rdf:RDF xmlns:dc="http://purl.org/dc/elements/1.1/" xmlns:cc="http://creativecommons.org/ns#" xmlns:rdf="http://www.w3.org/1999/02/22-rdf-syntax-ns#">
   <cc:Work>
    <dc:type rdf:resource="http://purl.org/dc/dcmitype/StillImage"/>
    <dc:date>2024-01-14T13:49:56.242411</dc:date>
    <dc:format>image/svg+xml</dc:format>
    <dc:creator>
     <cc:Agent>
      <dc:title>Matplotlib v3.7.0, https://matplotlib.org/</dc:title>
     </cc:Agent>
    </dc:creator>
   </cc:Work>
  </rdf:RDF>
 </metadata>
 <defs>
  <style type="text/css">*{stroke-linejoin: round; stroke-linecap: butt}</style>
 </defs>
 <g id="figure_1">
  <g id="patch_1">
   <path d="M 0 558.886875 
L 753.478125 558.886875 
L 753.478125 0 
L 0 0 
z
" style="fill: #ffffff"/>
  </g>
  <g id="axes_1">
   <g id="patch_2">
    <path d="M 20.878125 521.330625 
L 746.278125 521.330625 
L 746.278125 22.370625 
L 20.878125 22.370625 
z
" style="fill: #ffffff"/>
   </g>
   <g id="PolyCollection_1">
    <path d="M 53.850852 381.122949 
L 53.850852 381.122949 
L 57.140259 378.817818 
L 60.429666 376.495687 
L 63.719073 374.147668 
L 67.056152 371.764489 
L 70.345559 369.336489 
L 73.634965 366.853625 
L 76.924372 364.305462 
L 80.213779 361.68041 
L 83.503186 358.968423 
L 86.840265 356.158296 
L 90.129672 353.238438 
L 93.419078 350.199189 
L 96.708485 347.029344 
L 99.997892 343.719244 
L 103.287299 340.25923 
L 106.624378 336.640414 
L 109.913785 332.855455 
L 113.203192 328.89624 
L 116.492598 324.757359 
L 119.782005 320.433404 
L 123.071412 315.920509 
L 126.408491 311.215971 
L 129.697898 306.317857 
L 132.987305 301.226941 
L 136.276711 295.943609 
L 139.566118 290.470952 
L 142.855525 284.813219 
L 146.192604 278.975435 
L 149.482011 272.964939 
L 152.771418 266.78946 
L 156.060824 260.458657 
L 159.350231 253.983735 
L 162.639638 247.376286 
L 165.976717 240.649445 
L 169.266124 233.817124 
L 172.555531 226.894776 
L 175.844938 219.897858 
L 179.134344 212.843369 
L 182.423751 205.747924 
L 185.76083 198.629297 
L 189.050237 191.50526 
L 192.339644 184.393973 
L 195.629051 177.313211 
L 198.918457 170.281518 
L 202.207864 163.316669 
L 205.544943 156.435664 
L 208.83435 149.656276 
L 212.123757 142.994734 
L 215.413164 136.467264 
L 218.70257 130.088937 
L 221.991977 123.874048 
L 225.329057 117.836119 
L 228.618463 111.986743 
L 231.90787 106.341761 
L 235.197277 100.909287 
L 238.486684 95.697048 
L 241.77609 90.716636 
L 245.11317 85.975779 
L 248.402576 81.478339 
L 251.691983 77.232045 
L 254.98139 73.240761 
L 258.270797 69.512214 
L 261.560203 66.04254 
L 264.897283 62.839466 
L 268.186689 59.902994 
L 271.476096 57.233122 
L 274.765503 54.833715 
L 278.05491 52.697045 
L 281.344317 50.826976 
L 284.681396 49.223507 
L 287.970803 47.882775 
L 291.260209 46.800917 
L 294.549616 45.981796 
L 297.839023 45.417684 
L 301.12843 45.108582 
L 304.465509 45.050625 
L 307.754916 45.23995 
L 311.044322 45.676557 
L 314.333729 46.356583 
L 317.623136 47.280026 
L 320.912543 48.43916 
L 324.249622 49.837848 
L 327.539029 51.464499 
L 330.828436 53.322977 
L 334.117842 55.409418 
L 337.407249 57.716095 
L 340.696656 60.24687 
L 344.033735 62.994018 
L 347.323142 65.957537 
L 350.612549 69.1297 
L 353.901955 72.506643 
L 357.191362 76.088367 
L 360.480769 79.867143 
L 363.817848 83.839109 
L 367.107255 87.996535 
L 370.396662 92.33556 
L 373.686068 96.848455 
L 376.975475 101.527492 
L 380.264882 106.368808 
L 383.601961 111.364675 
L 386.891368 116.503115 
L 390.180775 121.777947 
L 393.470182 127.179125 
L 396.759588 132.697375 
L 400.048995 138.322651 
L 403.386074 144.044523 
L 406.675481 149.852943 
L 409.964888 155.73632 
L 413.254295 161.684222 
L 416.543701 167.685445 
L 419.833108 173.728396 
L 423.122515 179.802644 
L 426.459594 185.896211 
L 429.749001 191.999051 
L 433.038408 198.099572 
L 436.327814 204.188116 
L 439.617221 210.25425 
L 442.906628 216.288315 
L 446.243707 222.281037 
L 449.533114 228.223917 
L 452.822521 234.108839 
L 456.111928 239.928078 
L 459.401334 245.674677 
L 462.690741 251.342069 
L 466.02782 256.925231 
L 469.317227 262.419139 
L 472.606634 267.818771 
L 475.896041 273.121036 
L 479.185447 278.322842 
L 482.474854 283.421486 
L 485.811933 288.415035 
L 489.10134 293.302329 
L 492.390747 298.082598 
L 495.680154 302.75468 
L 498.969561 307.318963 
L 502.258967 311.775833 
L 505.596047 316.125676 
L 508.885453 320.368878 
L 512.17486 324.506214 
L 515.464267 328.53884 
L 518.753674 332.467918 
L 522.04308 336.293833 
L 525.38016 340.017743 
L 528.669566 343.640423 
L 531.958973 347.162258 
L 535.24838 350.583635 
L 538.537787 353.90494 
L 541.827193 357.1254 
L 545.164273 360.245789 
L 548.45368 363.26456 
L 551.743086 366.181327 
L 555.032493 368.995318 
L 558.3219 371.7046 
L 561.611307 374.308401 
L 564.948386 376.804789 
L 568.237793 379.192219 
L 571.527199 381.468758 
L 574.816606 383.632474 
L 578.106013 385.682209 
L 581.39542 387.615645 
L 584.732499 389.431235 
L 588.021906 391.128207 
L 591.311312 392.705015 
L 594.600719 394.160887 
L 597.890126 395.495823 
L 601.179533 396.70905 
L 604.516612 397.802113 
L 607.806019 398.775013 
L 611.095426 399.630067 
L 614.384832 400.368822 
L 617.674239 400.994368 
L 620.963646 401.510182 
L 624.300725 401.920129 
L 627.590132 402.228845 
L 630.879539 402.44174 
L 634.168945 402.564994 
L 637.458352 402.604791 
L 640.747759 402.568085 
L 644.084838 402.463377 
L 647.374245 402.298393 
L 650.663652 402.081635 
L 653.953058 401.822762 
L 657.242465 401.530274 
L 660.531872 401.214603 
L 663.868951 400.884636 
L 667.158358 400.551579 
L 670.447765 400.224317 
L 673.737172 399.913282 
L 677.026578 399.628135 
L 680.315985 399.378922 
L 683.653064 399.174528 
L 686.942471 399.02384 
L 690.231878 398.935746 
L 693.521285 398.918359 
L 696.810691 398.978634 
L 700.100098 399.124298 
L 703.437177 399.360762 
L 706.726584 399.69382 
L 710.015991 400.128495 
L 710.015991 400.128495 
L 710.015991 498.650625 
L 706.726584 498.650625 
L 703.437177 498.650625 
L 700.100098 498.650625 
L 696.810691 498.650625 
L 693.521285 498.650625 
L 690.231878 498.650625 
L 686.942471 498.650625 
L 683.653064 498.650625 
L 680.315985 498.650625 
L 677.026578 498.650625 
L 673.737172 498.650625 
L 670.447765 498.650625 
L 667.158358 498.650625 
L 663.868951 498.650625 
L 660.531872 498.650625 
L 657.242465 498.650625 
L 653.953058 498.650625 
L 650.663652 498.650625 
L 647.374245 498.650625 
L 644.084838 498.650625 
L 640.747759 498.650625 
L 637.458352 498.650625 
L 634.168945 498.650625 
L 630.879539 498.650625 
L 627.590132 498.650625 
L 624.300725 498.650625 
L 620.963646 498.650625 
L 617.674239 498.650625 
L 614.384832 498.650625 
L 611.095426 498.650625 
L 607.806019 498.650625 
L 604.516612 498.650625 
L 601.179533 498.650625 
L 597.890126 498.650625 
L 594.600719 498.650625 
L 591.311312 498.650625 
L 588.021906 498.650625 
L 584.732499 498.650625 
L 581.39542 498.650625 
L 578.106013 498.650625 
L 574.816606 498.650625 
L 571.527199 498.650625 
L 568.237793 498.650625 
L 564.948386 498.650625 
L 561.611307 498.650625 
L 558.3219 498.650625 
L 555.032493 498.650625 
L 551.743086 498.650625 
L 548.45368 498.650625 
L 545.164273 498.650625 
L 541.827193 498.650625 
L 538.537787 498.650625 
L 535.24838 498.650625 
L 531.958973 498.650625 
L 528.669566 498.650625 
L 525.38016 498.650625 
L 522.04308 498.650625 
L 518.753674 498.650625 
L 515.464267 498.650625 
L 512.17486 498.650625 
L 508.885453 498.650625 
L 505.596047 498.650625 
L 502.258967 498.650625 
L 498.969561 498.650625 
L 495.680154 498.650625 
L 492.390747 498.650625 
L 489.10134 498.650625 
L 485.811933 498.650625 
L 482.474854 498.650625 
L 479.185447 498.650625 
L 475.896041 498.650625 
L 472.606634 498.650625 
L 469.317227 498.650625 
L 466.02782 498.650625 
L 462.690741 498.650625 
L 459.401334 498.650625 
L 456.111928 498.650625 
L 452.822521 498.650625 
L 449.533114 498.650625 
L 446.243707 498.650625 
L 442.906628 498.650625 
L 439.617221 498.650625 
L 436.327814 498.650625 
L 433.038408 498.650625 
L 429.749001 498.650625 
L 426.459594 498.650625 
L 423.122515 498.650625 
L 419.833108 498.650625 
L 416.543701 498.650625 
L 413.254295 498.650625 
L 409.964888 498.650625 
L 406.675481 498.650625 
L 403.386074 498.650625 
L 400.048995 498.650625 
L 396.759588 498.650625 
L 393.470182 498.650625 
L 390.180775 498.650625 
L 386.891368 498.650625 
L 383.601961 498.650625 
L 380.264882 498.650625 
L 376.975475 498.650625 
L 373.686068 498.650625 
L 370.396662 498.650625 
L 367.107255 498.650625 
L 363.817848 498.650625 
L 360.480769 498.650625 
L 357.191362 498.650625 
L 353.901955 498.650625 
L 350.612549 498.650625 
L 347.323142 498.650625 
L 344.033735 498.650625 
L 340.696656 498.650625 
L 337.407249 498.650625 
L 334.117842 498.650625 
L 330.828436 498.650625 
L 327.539029 498.650625 
L 324.249622 498.650625 
L 320.912543 498.650625 
L 317.623136 498.650625 
L 314.333729 498.650625 
L 311.044322 498.650625 
L 307.754916 498.650625 
L 304.465509 498.650625 
L 301.12843 498.650625 
L 297.839023 498.650625 
L 294.549616 498.650625 
L 291.260209 498.650625 
L 287.970803 498.650625 
L 284.681396 498.650625 
L 281.344317 498.650625 
L 278.05491 498.650625 
L 274.765503 498.650625 
L 271.476096 498.650625 
L 268.186689 498.650625 
L 264.897283 498.650625 
L 261.560203 498.650625 
L 258.270797 498.650625 
L 254.98139 498.650625 
L 251.691983 498.650625 
L 248.402576 498.650625 
L 245.11317 498.650625 
L 241.77609 498.650625 
L 238.486684 498.650625 
L 235.197277 498.650625 
L 231.90787 498.650625 
L 228.618463 498.650625 
L 225.329057 498.650625 
L 221.991977 498.650625 
L 218.70257 498.650625 
L 215.413164 498.650625 
L 212.123757 498.650625 
L 208.83435 498.650625 
L 205.544943 498.650625 
L 202.207864 498.650625 
L 198.918457 498.650625 
L 195.629051 498.650625 
L 192.339644 498.650625 
L 189.050237 498.650625 
L 185.76083 498.650625 
L 182.423751 498.650625 
L 179.134344 498.650625 
L 175.844938 498.650625 
L 172.555531 498.650625 
L 169.266124 498.650625 
L 165.976717 498.650625 
L 162.639638 498.650625 
L 159.350231 498.650625 
L 156.060824 498.650625 
L 152.771418 498.650625 
L 149.482011 498.650625 
L 146.192604 498.650625 
L 142.855525 498.650625 
L 139.566118 498.650625 
L 136.276711 498.650625 
L 132.987305 498.650625 
L 129.697898 498.650625 
L 126.408491 498.650625 
L 123.071412 498.650625 
L 119.782005 498.650625 
L 116.492598 498.650625 
L 113.203192 498.650625 
L 109.913785 498.650625 
L 106.624378 498.650625 
L 103.287299 498.650625 
L 99.997892 498.650625 
L 96.708485 498.650625 
L 93.419078 498.650625 
L 90.129672 498.650625 
L 86.840265 498.650625 
L 83.503186 498.650625 
L 80.213779 498.650625 
L 76.924372 498.650625 
L 73.634965 498.650625 
L 70.345559 498.650625 
L 67.056152 498.650625 
L 63.719073 498.650625 
L 60.429666 498.650625 
L 57.140259 498.650625 
L 53.850852 498.650625 
z
" clip-path="url(#pdad1993fb1)" style="fill: #1f77b4; fill-opacity: 0.25"/>
   </g>
   <g id="matplotlib.axis_1">
    <g id="xtick_1">
     <g id="line2d_1">
      <defs>
       <path id="m37188e6f3c" d="M 0 0 
L 0 3.5 
" style="stroke: #000000; stroke-width: 0.8"/>
      </defs>
      <g>
       <use xlink:href="#m37188e6f3c" x="81.643956" y="521.330625" style="stroke: #000000; stroke-width: 0.8"/>
      </g>
     </g>
     <g id="text_1">
      <!-- 0.000106 -->
      <g transform="translate(57.786143 535.929062) scale(0.1 -0.1)">
       <defs>
        <path id="DejaVuSans-30" d="M 2034 4250 
Q 1547 4250 1301 3770 
Q 1056 3291 1056 2328 
Q 1056 1369 1301 889 
Q 1547 409 2034 409 
Q 2525 409 2770 889 
Q 3016 1369 3016 2328 
Q 3016 3291 2770 3770 
Q 2525 4250 2034 4250 
z
M 2034 4750 
Q 2819 4750 3233 4129 
Q 3647 3509 3647 2328 
Q 3647 1150 3233 529 
Q 2819 -91 2034 -91 
Q 1250 -91 836 529 
Q 422 1150 422 2328 
Q 422 3509 836 4129 
Q 1250 4750 2034 4750 
z
" transform="scale(0.015625)"/>
        <path id="DejaVuSans-2e" d="M 684 794 
L 1344 794 
L 1344 0 
L 684 0 
L 684 794 
z
" transform="scale(0.015625)"/>
        <path id="DejaVuSans-31" d="M 794 531 
L 1825 531 
L 1825 4091 
L 703 3866 
L 703 4441 
L 1819 4666 
L 2450 4666 
L 2450 531 
L 3481 531 
L 3481 0 
L 794 0 
L 794 531 
z
" transform="scale(0.015625)"/>
        <path id="DejaVuSans-36" d="M 2113 2584 
Q 1688 2584 1439 2293 
Q 1191 2003 1191 1497 
Q 1191 994 1439 701 
Q 1688 409 2113 409 
Q 2538 409 2786 701 
Q 3034 994 3034 1497 
Q 3034 2003 2786 2293 
Q 2538 2584 2113 2584 
z
M 3366 4563 
L 3366 3988 
Q 3128 4100 2886 4159 
Q 2644 4219 2406 4219 
Q 1781 4219 1451 3797 
Q 1122 3375 1075 2522 
Q 1259 2794 1537 2939 
Q 1816 3084 2150 3084 
Q 2853 3084 3261 2657 
Q 3669 2231 3669 1497 
Q 3669 778 3244 343 
Q 2819 -91 2113 -91 
Q 1303 -91 875 529 
Q 447 1150 447 2328 
Q 447 3434 972 4092 
Q 1497 4750 2381 4750 
Q 2619 4750 2861 4703 
Q 3103 4656 3366 4563 
z
" transform="scale(0.015625)"/>
       </defs>
       <use xlink:href="#DejaVuSans-30"/>
       <use xlink:href="#DejaVuSans-2e" x="63.623047"/>
       <use xlink:href="#DejaVuSans-30" x="95.410156"/>
       <use xlink:href="#DejaVuSans-30" x="159.033203"/>
       <use xlink:href="#DejaVuSans-30" x="222.65625"/>
       <use xlink:href="#DejaVuSans-31" x="286.279297"/>
       <use xlink:href="#DejaVuSans-30" x="349.902344"/>
       <use xlink:href="#DejaVuSans-36" x="413.525391"/>
      </g>
     </g>
    </g>
    <g id="xtick_2">
     <g id="line2d_2">
      <g>
       <use xlink:href="#m37188e6f3c" x="176.989079" y="521.330625" style="stroke: #000000; stroke-width: 0.8"/>
      </g>
     </g>
     <g id="text_2">
      <!-- 0.000108 -->
      <g transform="translate(153.131267 535.929062) scale(0.1 -0.1)">
       <defs>
        <path id="DejaVuSans-38" d="M 2034 2216 
Q 1584 2216 1326 1975 
Q 1069 1734 1069 1313 
Q 1069 891 1326 650 
Q 1584 409 2034 409 
Q 2484 409 2743 651 
Q 3003 894 3003 1313 
Q 3003 1734 2745 1975 
Q 2488 2216 2034 2216 
z
M 1403 2484 
Q 997 2584 770 2862 
Q 544 3141 544 3541 
Q 544 4100 942 4425 
Q 1341 4750 2034 4750 
Q 2731 4750 3128 4425 
Q 3525 4100 3525 3541 
Q 3525 3141 3298 2862 
Q 3072 2584 2669 2484 
Q 3125 2378 3379 2068 
Q 3634 1759 3634 1313 
Q 3634 634 3220 271 
Q 2806 -91 2034 -91 
Q 1263 -91 848 271 
Q 434 634 434 1313 
Q 434 1759 690 2068 
Q 947 2378 1403 2484 
z
M 1172 3481 
Q 1172 3119 1398 2916 
Q 1625 2713 2034 2713 
Q 2441 2713 2670 2916 
Q 2900 3119 2900 3481 
Q 2900 3844 2670 4047 
Q 2441 4250 2034 4250 
Q 1625 4250 1398 4047 
Q 1172 3844 1172 3481 
z
" transform="scale(0.015625)"/>
       </defs>
       <use xlink:href="#DejaVuSans-30"/>
       <use xlink:href="#DejaVuSans-2e" x="63.623047"/>
       <use xlink:href="#DejaVuSans-30" x="95.410156"/>
       <use xlink:href="#DejaVuSans-30" x="159.033203"/>
       <use xlink:href="#DejaVuSans-30" x="222.65625"/>
       <use xlink:href="#DejaVuSans-31" x="286.279297"/>
       <use xlink:href="#DejaVuSans-30" x="349.902344"/>
       <use xlink:href="#DejaVuSans-38" x="413.525391"/>
      </g>
     </g>
    </g>
    <g id="xtick_3">
     <g id="line2d_3">
      <g>
       <use xlink:href="#m37188e6f3c" x="272.334202" y="521.330625" style="stroke: #000000; stroke-width: 0.8"/>
      </g>
     </g>
     <g id="text_3">
      <!-- 0.000110 -->
      <g transform="translate(248.47639 535.929062) scale(0.1 -0.1)">
       <use xlink:href="#DejaVuSans-30"/>
       <use xlink:href="#DejaVuSans-2e" x="63.623047"/>
       <use xlink:href="#DejaVuSans-30" x="95.410156"/>
       <use xlink:href="#DejaVuSans-30" x="159.033203"/>
       <use xlink:href="#DejaVuSans-30" x="222.65625"/>
       <use xlink:href="#DejaVuSans-31" x="286.279297"/>
       <use xlink:href="#DejaVuSans-31" x="349.902344"/>
       <use xlink:href="#DejaVuSans-30" x="413.525391"/>
      </g>
     </g>
    </g>
    <g id="xtick_4">
     <g id="line2d_4">
      <g>
       <use xlink:href="#m37188e6f3c" x="367.679326" y="521.330625" style="stroke: #000000; stroke-width: 0.8"/>
      </g>
     </g>
     <g id="text_4">
      <!-- 0.000112 -->
      <g transform="translate(343.821513 535.929062) scale(0.1 -0.1)">
       <defs>
        <path id="DejaVuSans-32" d="M 1228 531 
L 3431 531 
L 3431 0 
L 469 0 
L 469 531 
Q 828 903 1448 1529 
Q 2069 2156 2228 2338 
Q 2531 2678 2651 2914 
Q 2772 3150 2772 3378 
Q 2772 3750 2511 3984 
Q 2250 4219 1831 4219 
Q 1534 4219 1204 4116 
Q 875 4013 500 3803 
L 500 4441 
Q 881 4594 1212 4672 
Q 1544 4750 1819 4750 
Q 2544 4750 2975 4387 
Q 3406 4025 3406 3419 
Q 3406 3131 3298 2873 
Q 3191 2616 2906 2266 
Q 2828 2175 2409 1742 
Q 1991 1309 1228 531 
z
" transform="scale(0.015625)"/>
       </defs>
       <use xlink:href="#DejaVuSans-30"/>
       <use xlink:href="#DejaVuSans-2e" x="63.623047"/>
       <use xlink:href="#DejaVuSans-30" x="95.410156"/>
       <use xlink:href="#DejaVuSans-30" x="159.033203"/>
       <use xlink:href="#DejaVuSans-30" x="222.65625"/>
       <use xlink:href="#DejaVuSans-31" x="286.279297"/>
       <use xlink:href="#DejaVuSans-31" x="349.902344"/>
       <use xlink:href="#DejaVuSans-32" x="413.525391"/>
      </g>
     </g>
    </g>
    <g id="xtick_5">
     <g id="line2d_5">
      <g>
       <use xlink:href="#m37188e6f3c" x="463.024449" y="521.330625" style="stroke: #000000; stroke-width: 0.8"/>
      </g>
     </g>
     <g id="text_5">
      <!-- 0.000114 -->
      <g transform="translate(439.166637 535.929062) scale(0.1 -0.1)">
       <defs>
        <path id="DejaVuSans-34" d="M 2419 4116 
L 825 1625 
L 2419 1625 
L 2419 4116 
z
M 2253 4666 
L 3047 4666 
L 3047 1625 
L 3713 1625 
L 3713 1100 
L 3047 1100 
L 3047 0 
L 2419 0 
L 2419 1100 
L 313 1100 
L 313 1709 
L 2253 4666 
z
" transform="scale(0.015625)"/>
       </defs>
       <use xlink:href="#DejaVuSans-30"/>
       <use xlink:href="#DejaVuSans-2e" x="63.623047"/>
       <use xlink:href="#DejaVuSans-30" x="95.410156"/>
       <use xlink:href="#DejaVuSans-30" x="159.033203"/>
       <use xlink:href="#DejaVuSans-30" x="222.65625"/>
       <use xlink:href="#DejaVuSans-31" x="286.279297"/>
       <use xlink:href="#DejaVuSans-31" x="349.902344"/>
       <use xlink:href="#DejaVuSans-34" x="413.525391"/>
      </g>
     </g>
    </g>
    <g id="xtick_6">
     <g id="line2d_6">
      <g>
       <use xlink:href="#m37188e6f3c" x="558.369572" y="521.330625" style="stroke: #000000; stroke-width: 0.8"/>
      </g>
     </g>
     <g id="text_6">
      <!-- 0.000116 -->
      <g transform="translate(534.51176 535.929062) scale(0.1 -0.1)">
       <use xlink:href="#DejaVuSans-30"/>
       <use xlink:href="#DejaVuSans-2e" x="63.623047"/>
       <use xlink:href="#DejaVuSans-30" x="95.410156"/>
       <use xlink:href="#DejaVuSans-30" x="159.033203"/>
       <use xlink:href="#DejaVuSans-30" x="222.65625"/>
       <use xlink:href="#DejaVuSans-31" x="286.279297"/>
       <use xlink:href="#DejaVuSans-31" x="349.902344"/>
       <use xlink:href="#DejaVuSans-36" x="413.525391"/>
      </g>
     </g>
    </g>
    <g id="xtick_7">
     <g id="line2d_7">
      <g>
       <use xlink:href="#m37188e6f3c" x="653.714696" y="521.330625" style="stroke: #000000; stroke-width: 0.8"/>
      </g>
     </g>
     <g id="text_7">
      <!-- 0.000118 -->
      <g transform="translate(629.856883 535.929062) scale(0.1 -0.1)">
       <use xlink:href="#DejaVuSans-30"/>
       <use xlink:href="#DejaVuSans-2e" x="63.623047"/>
       <use xlink:href="#DejaVuSans-30" x="95.410156"/>
       <use xlink:href="#DejaVuSans-30" x="159.033203"/>
       <use xlink:href="#DejaVuSans-30" x="222.65625"/>
       <use xlink:href="#DejaVuSans-31" x="286.279297"/>
       <use xlink:href="#DejaVuSans-31" x="349.902344"/>
       <use xlink:href="#DejaVuSans-38" x="413.525391"/>
      </g>
     </g>
    </g>
    <g id="text_8">
     <!-- t [s] -->
     <g transform="translate(373.522656 549.607188) scale(0.1 -0.1)">
      <defs>
       <path id="DejaVuSans-74" d="M 1172 4494 
L 1172 3500 
L 2356 3500 
L 2356 3053 
L 1172 3053 
L 1172 1153 
Q 1172 725 1289 603 
Q 1406 481 1766 481 
L 2356 481 
L 2356 0 
L 1766 0 
Q 1100 0 847 248 
Q 594 497 594 1153 
L 594 3053 
L 172 3053 
L 172 3500 
L 594 3500 
L 594 4494 
L 1172 4494 
z
" transform="scale(0.015625)"/>
       <path id="DejaVuSans-20" transform="scale(0.015625)"/>
       <path id="DejaVuSans-5b" d="M 550 4863 
L 1875 4863 
L 1875 4416 
L 1125 4416 
L 1125 -397 
L 1875 -397 
L 1875 -844 
L 550 -844 
L 550 4863 
z
" transform="scale(0.015625)"/>
       <path id="DejaVuSans-73" d="M 2834 3397 
L 2834 2853 
Q 2591 2978 2328 3040 
Q 2066 3103 1784 3103 
Q 1356 3103 1142 2972 
Q 928 2841 928 2578 
Q 928 2378 1081 2264 
Q 1234 2150 1697 2047 
L 1894 2003 
Q 2506 1872 2764 1633 
Q 3022 1394 3022 966 
Q 3022 478 2636 193 
Q 2250 -91 1575 -91 
Q 1294 -91 989 -36 
Q 684 19 347 128 
L 347 722 
Q 666 556 975 473 
Q 1284 391 1588 391 
Q 1994 391 2212 530 
Q 2431 669 2431 922 
Q 2431 1156 2273 1281 
Q 2116 1406 1581 1522 
L 1381 1569 
Q 847 1681 609 1914 
Q 372 2147 372 2553 
Q 372 3047 722 3315 
Q 1072 3584 1716 3584 
Q 2034 3584 2315 3537 
Q 2597 3491 2834 3397 
z
" transform="scale(0.015625)"/>
       <path id="DejaVuSans-5d" d="M 1947 4863 
L 1947 -844 
L 622 -844 
L 622 -397 
L 1369 -397 
L 1369 4416 
L 622 4416 
L 622 4863 
L 1947 4863 
z
" transform="scale(0.015625)"/>
      </defs>
      <use xlink:href="#DejaVuSans-74"/>
      <use xlink:href="#DejaVuSans-20" x="39.208984"/>
      <use xlink:href="#DejaVuSans-5b" x="70.996094"/>
      <use xlink:href="#DejaVuSans-73" x="110.009766"/>
      <use xlink:href="#DejaVuSans-5d" x="162.109375"/>
     </g>
    </g>
   </g>
   <g id="matplotlib.axis_2">
    <g id="ytick_1"/>
    <g id="ytick_2"/>
    <g id="ytick_3"/>
    <g id="ytick_4"/>
    <g id="ytick_5"/>
    <g id="ytick_6"/>
    <g id="ytick_7"/>
    <g id="text_9">
     <!-- runs -->
     <g transform="translate(14.798438 282.848281) rotate(-90) scale(0.1 -0.1)">
      <defs>
       <path id="DejaVuSans-72" d="M 2631 2963 
Q 2534 3019 2420 3045 
Q 2306 3072 2169 3072 
Q 1681 3072 1420 2755 
Q 1159 2438 1159 1844 
L 1159 0 
L 581 0 
L 581 3500 
L 1159 3500 
L 1159 2956 
Q 1341 3275 1631 3429 
Q 1922 3584 2338 3584 
Q 2397 3584 2469 3576 
Q 2541 3569 2628 3553 
L 2631 2963 
z
" transform="scale(0.015625)"/>
       <path id="DejaVuSans-75" d="M 544 1381 
L 544 3500 
L 1119 3500 
L 1119 1403 
Q 1119 906 1312 657 
Q 1506 409 1894 409 
Q 2359 409 2629 706 
Q 2900 1003 2900 1516 
L 2900 3500 
L 3475 3500 
L 3475 0 
L 2900 0 
L 2900 538 
Q 2691 219 2414 64 
Q 2138 -91 1772 -91 
Q 1169 -91 856 284 
Q 544 659 544 1381 
z
M 1991 3584 
L 1991 3584 
z
" transform="scale(0.015625)"/>
       <path id="DejaVuSans-6e" d="M 3513 2113 
L 3513 0 
L 2938 0 
L 2938 2094 
Q 2938 2591 2744 2837 
Q 2550 3084 2163 3084 
Q 1697 3084 1428 2787 
Q 1159 2491 1159 1978 
L 1159 0 
L 581 0 
L 581 3500 
L 1159 3500 
L 1159 2956 
Q 1366 3272 1645 3428 
Q 1925 3584 2291 3584 
Q 2894 3584 3203 3211 
Q 3513 2838 3513 2113 
z
" transform="scale(0.015625)"/>
      </defs>
      <use xlink:href="#DejaVuSans-72"/>
      <use xlink:href="#DejaVuSans-75" x="41.113281"/>
      <use xlink:href="#DejaVuSans-6e" x="104.492188"/>
      <use xlink:href="#DejaVuSans-73" x="167.871094"/>
     </g>
    </g>
   </g>
   <g id="line2d_8">
    <defs>
     <path id="m5aaec794b8" d="M 0 1 
C 0.265203 1 0.51958 0.894634 0.707107 0.707107 
C 0.894634 0.51958 1 0.265203 1 0 
C 1 -0.265203 0.894634 -0.51958 0.707107 -0.707107 
C 0.51958 -0.894634 0.265203 -1 0 -1 
C -0.265203 -1 -0.51958 -0.894634 -0.707107 -0.707107 
C -0.894634 -0.51958 -1 -0.265203 -1 0 
C -1 0.265203 -0.894634 0.51958 -0.707107 0.707107 
C -0.51958 0.894634 -0.265203 1 0 1 
z
" style="stroke: #ffa500"/>
    </defs>
    <g clip-path="url(#pdad1993fb1)">
     <use xlink:href="#m5aaec794b8" x="713.305398" y="362.570239" style="fill: #ffa500; stroke: #ffa500"/>
    </g>
   </g>
   <g id="line2d_9">
    <defs>
     <path id="m6e49c777b0" d="M 0 1 
C 0.265203 1 0.51958 0.894634 0.707107 0.707107 
C 0.894634 0.51958 1 0.265203 1 0 
C 1 -0.265203 0.894634 -0.51958 0.707107 -0.707107 
C 0.51958 -0.894634 0.265203 -1 0 -1 
C -0.265203 -1 -0.51958 -0.894634 -0.707107 -0.707107 
C -0.894634 -0.51958 -1 -0.265203 -1 0 
C -1 0.265203 -0.894634 0.51958 -0.707107 0.707107 
C -0.51958 0.894634 -0.265203 1 0 1 
z
" style="stroke: #1f77b4"/>
    </defs>
    <g clip-path="url(#pdad1993fb1)">
     <use xlink:href="#m6e49c777b0" x="409.392817" y="453.290625" style="fill: #1f77b4; stroke: #1f77b4"/>
     <use xlink:href="#m6e49c777b0" x="308.088624" y="407.930239" style="fill: #1f77b4; stroke: #1f77b4"/>
     <use xlink:href="#m6e49c777b0" x="526.571974" y="317.209852" style="fill: #1f77b4; stroke: #1f77b4"/>
     <use xlink:href="#m6e49c777b0" x="343.843045" y="271.849852" style="fill: #1f77b4; stroke: #1f77b4"/>
     <use xlink:href="#m6e49c777b0" x="220.657146" y="226.489852" style="fill: #1f77b4; stroke: #1f77b4"/>
     <use xlink:href="#m6e49c777b0" x="383.554289" y="181.129466" style="fill: #1f77b4; stroke: #1f77b4"/>
     <use xlink:href="#m6e49c777b0" x="218.70257" y="135.769466" style="fill: #1f77b4; stroke: #1f77b4"/>
     <use xlink:href="#m6e49c777b0" x="258.413814" y="90.407534" style="fill: #1f77b4; stroke: #1f77b4"/>
     <use xlink:href="#m6e49c777b0" x="53.850852" y="45.050625" style="fill: #1f77b4; stroke: #1f77b4"/>
    </g>
   </g>
   <g id="line2d_10">
    <path d="M 320.006764 521.330625 
L 320.006764 22.370625 
" clip-path="url(#pdad1993fb1)" style="fill: none; stroke: #1f77b4; stroke-width: 1.5; stroke-linecap: square"/>
   </g>
   <g id="line2d_11">
    <path d="M 692.520161 521.330625 
L 692.520161 22.370625 
" clip-path="url(#pdad1993fb1)" style="fill: none; stroke: #ffa500; stroke-width: 1.5; stroke-linecap: square"/>
   </g>
   <g id="patch_3">
    <path d="M 20.878125 521.330625 
L 20.878125 22.370625 
" style="fill: none; stroke: #000000; stroke-width: 0.8; stroke-linejoin: miter; stroke-linecap: square"/>
   </g>
   <g id="patch_4">
    <path d="M 746.278125 521.330625 
L 746.278125 22.370625 
" style="fill: none; stroke: #000000; stroke-width: 0.8; stroke-linejoin: miter; stroke-linecap: square"/>
   </g>
   <g id="patch_5">
    <path d="M 20.878125 521.330625 
L 746.278125 521.330625 
" style="fill: none; stroke: #000000; stroke-width: 0.8; stroke-linejoin: miter; stroke-linecap: square"/>
   </g>
   <g id="patch_6">
    <path d="M 20.878125 22.370625 
L 746.278125 22.370625 
" style="fill: none; stroke: #000000; stroke-width: 0.8; stroke-linejoin: miter; stroke-linecap: square"/>
   </g>
   <g id="text_10">
    <!-- echo 100 | python3 quicksort.py -->
    <g transform="translate(286.27125 16.370625) scale(0.12 -0.12)">
     <defs>
      <path id="DejaVuSans-65" d="M 3597 1894 
L 3597 1613 
L 953 1613 
Q 991 1019 1311 708 
Q 1631 397 2203 397 
Q 2534 397 2845 478 
Q 3156 559 3463 722 
L 3463 178 
Q 3153 47 2828 -22 
Q 2503 -91 2169 -91 
Q 1331 -91 842 396 
Q 353 884 353 1716 
Q 353 2575 817 3079 
Q 1281 3584 2069 3584 
Q 2775 3584 3186 3129 
Q 3597 2675 3597 1894 
z
M 3022 2063 
Q 3016 2534 2758 2815 
Q 2500 3097 2075 3097 
Q 1594 3097 1305 2825 
Q 1016 2553 972 2059 
L 3022 2063 
z
" transform="scale(0.015625)"/>
      <path id="DejaVuSans-63" d="M 3122 3366 
L 3122 2828 
Q 2878 2963 2633 3030 
Q 2388 3097 2138 3097 
Q 1578 3097 1268 2742 
Q 959 2388 959 1747 
Q 959 1106 1268 751 
Q 1578 397 2138 397 
Q 2388 397 2633 464 
Q 2878 531 3122 666 
L 3122 134 
Q 2881 22 2623 -34 
Q 2366 -91 2075 -91 
Q 1284 -91 818 406 
Q 353 903 353 1747 
Q 353 2603 823 3093 
Q 1294 3584 2113 3584 
Q 2378 3584 2631 3529 
Q 2884 3475 3122 3366 
z
" transform="scale(0.015625)"/>
      <path id="DejaVuSans-68" d="M 3513 2113 
L 3513 0 
L 2938 0 
L 2938 2094 
Q 2938 2591 2744 2837 
Q 2550 3084 2163 3084 
Q 1697 3084 1428 2787 
Q 1159 2491 1159 1978 
L 1159 0 
L 581 0 
L 581 4863 
L 1159 4863 
L 1159 2956 
Q 1366 3272 1645 3428 
Q 1925 3584 2291 3584 
Q 2894 3584 3203 3211 
Q 3513 2838 3513 2113 
z
" transform="scale(0.015625)"/>
      <path id="DejaVuSans-6f" d="M 1959 3097 
Q 1497 3097 1228 2736 
Q 959 2375 959 1747 
Q 959 1119 1226 758 
Q 1494 397 1959 397 
Q 2419 397 2687 759 
Q 2956 1122 2956 1747 
Q 2956 2369 2687 2733 
Q 2419 3097 1959 3097 
z
M 1959 3584 
Q 2709 3584 3137 3096 
Q 3566 2609 3566 1747 
Q 3566 888 3137 398 
Q 2709 -91 1959 -91 
Q 1206 -91 779 398 
Q 353 888 353 1747 
Q 353 2609 779 3096 
Q 1206 3584 1959 3584 
z
" transform="scale(0.015625)"/>
      <path id="DejaVuSans-7c" d="M 1344 4891 
L 1344 -1509 
L 813 -1509 
L 813 4891 
L 1344 4891 
z
" transform="scale(0.015625)"/>
      <path id="DejaVuSans-70" d="M 1159 525 
L 1159 -1331 
L 581 -1331 
L 581 3500 
L 1159 3500 
L 1159 2969 
Q 1341 3281 1617 3432 
Q 1894 3584 2278 3584 
Q 2916 3584 3314 3078 
Q 3713 2572 3713 1747 
Q 3713 922 3314 415 
Q 2916 -91 2278 -91 
Q 1894 -91 1617 61 
Q 1341 213 1159 525 
z
M 3116 1747 
Q 3116 2381 2855 2742 
Q 2594 3103 2138 3103 
Q 1681 3103 1420 2742 
Q 1159 2381 1159 1747 
Q 1159 1113 1420 752 
Q 1681 391 2138 391 
Q 2594 391 2855 752 
Q 3116 1113 3116 1747 
z
" transform="scale(0.015625)"/>
      <path id="DejaVuSans-79" d="M 2059 -325 
Q 1816 -950 1584 -1140 
Q 1353 -1331 966 -1331 
L 506 -1331 
L 506 -850 
L 844 -850 
Q 1081 -850 1212 -737 
Q 1344 -625 1503 -206 
L 1606 56 
L 191 3500 
L 800 3500 
L 1894 763 
L 2988 3500 
L 3597 3500 
L 2059 -325 
z
" transform="scale(0.015625)"/>
      <path id="DejaVuSans-33" d="M 2597 2516 
Q 3050 2419 3304 2112 
Q 3559 1806 3559 1356 
Q 3559 666 3084 287 
Q 2609 -91 1734 -91 
Q 1441 -91 1130 -33 
Q 819 25 488 141 
L 488 750 
Q 750 597 1062 519 
Q 1375 441 1716 441 
Q 2309 441 2620 675 
Q 2931 909 2931 1356 
Q 2931 1769 2642 2001 
Q 2353 2234 1838 2234 
L 1294 2234 
L 1294 2753 
L 1863 2753 
Q 2328 2753 2575 2939 
Q 2822 3125 2822 3475 
Q 2822 3834 2567 4026 
Q 2313 4219 1838 4219 
Q 1578 4219 1281 4162 
Q 984 4106 628 3988 
L 628 4550 
Q 988 4650 1302 4700 
Q 1616 4750 1894 4750 
Q 2613 4750 3031 4423 
Q 3450 4097 3450 3541 
Q 3450 3153 3228 2886 
Q 3006 2619 2597 2516 
z
" transform="scale(0.015625)"/>
      <path id="DejaVuSans-71" d="M 947 1747 
Q 947 1113 1208 752 
Q 1469 391 1925 391 
Q 2381 391 2643 752 
Q 2906 1113 2906 1747 
Q 2906 2381 2643 2742 
Q 2381 3103 1925 3103 
Q 1469 3103 1208 2742 
Q 947 2381 947 1747 
z
M 2906 525 
Q 2725 213 2448 61 
Q 2172 -91 1784 -91 
Q 1150 -91 751 415 
Q 353 922 353 1747 
Q 353 2572 751 3078 
Q 1150 3584 1784 3584 
Q 2172 3584 2448 3432 
Q 2725 3281 2906 2969 
L 2906 3500 
L 3481 3500 
L 3481 -1331 
L 2906 -1331 
L 2906 525 
z
" transform="scale(0.015625)"/>
      <path id="DejaVuSans-69" d="M 603 3500 
L 1178 3500 
L 1178 0 
L 603 0 
L 603 3500 
z
M 603 4863 
L 1178 4863 
L 1178 4134 
L 603 4134 
L 603 4863 
z
" transform="scale(0.015625)"/>
      <path id="DejaVuSans-6b" d="M 581 4863 
L 1159 4863 
L 1159 1991 
L 2875 3500 
L 3609 3500 
L 1753 1863 
L 3688 0 
L 2938 0 
L 1159 1709 
L 1159 0 
L 581 0 
L 581 4863 
z
" transform="scale(0.015625)"/>
     </defs>
     <use xlink:href="#DejaVuSans-65"/>
     <use xlink:href="#DejaVuSans-63" x="61.523438"/>
     <use xlink:href="#DejaVuSans-68" x="116.503906"/>
     <use xlink:href="#DejaVuSans-6f" x="179.882812"/>
     <use xlink:href="#DejaVuSans-20" x="241.064453"/>
     <use xlink:href="#DejaVuSans-31" x="272.851562"/>
     <use xlink:href="#DejaVuSans-30" x="336.474609"/>
     <use xlink:href="#DejaVuSans-30" x="400.097656"/>
     <use xlink:href="#DejaVuSans-20" x="463.720703"/>
     <use xlink:href="#DejaVuSans-7c" x="495.507812"/>
     <use xlink:href="#DejaVuSans-20" x="529.199219"/>
     <use xlink:href="#DejaVuSans-70" x="560.986328"/>
     <use xlink:href="#DejaVuSans-79" x="624.462891"/>
     <use xlink:href="#DejaVuSans-74" x="683.642578"/>
     <use xlink:href="#DejaVuSans-68" x="722.851562"/>
     <use xlink:href="#DejaVuSans-6f" x="786.230469"/>
     <use xlink:href="#DejaVuSans-6e" x="847.412109"/>
     <use xlink:href="#DejaVuSans-33" x="910.791016"/>
     <use xlink:href="#DejaVuSans-20" x="974.414062"/>
     <use xlink:href="#DejaVuSans-71" x="1006.201172"/>
     <use xlink:href="#DejaVuSans-75" x="1069.677734"/>
     <use xlink:href="#DejaVuSans-69" x="1133.056641"/>
     <use xlink:href="#DejaVuSans-63" x="1160.839844"/>
     <use xlink:href="#DejaVuSans-6b" x="1215.820312"/>
     <use xlink:href="#DejaVuSans-73" x="1273.730469"/>
     <use xlink:href="#DejaVuSans-6f" x="1325.830078"/>
     <use xlink:href="#DejaVuSans-72" x="1387.011719"/>
     <use xlink:href="#DejaVuSans-74" x="1428.125"/>
     <use xlink:href="#DejaVuSans-2e" x="1467.333984"/>
     <use xlink:href="#DejaVuSans-70" x="1499.121094"/>
     <use xlink:href="#DejaVuSans-79" x="1562.597656"/>
    </g>
   </g>
  </g>
 </g>
 <defs>
  <clipPath id="pdad1993fb1">
   <rect x="20.878125" y="22.370625" width="725.4" height="498.96"/>
  </clipPath>
 </defs>
</svg>
