<?xml version="1.0" encoding="utf-8" standalone="no"?>
<!DOCTYPE svg PUBLIC "-//W3C//DTD SVG 1.1//EN"
  "http://www.w3.org/Graphics/SVG/1.1/DTD/svg11.dtd">
<svg xmlns:xlink="http://www.w3.org/1999/xlink" width="753.478125pt" height="558.886875pt" viewBox="0 0 753.478125 558.886875" xmlns="http://www.w3.org/2000/svg" version="1.1">
 <metadata>
  <rdf:RDF xmlns:dc="http://purl.org/dc/elements/1.1/" xmlns:cc="http://creativecommons.org/ns#" xmlns:rdf="http://www.w3.org/1999/02/22-rdf-syntax-ns#">
   <cc:Work>
    <dc:type rdf:resource="http://purl.org/dc/dcmitype/StillImage"/>
    <dc:date>2024-01-14T13:49:56.407879</dc:date>
    <dc:format>image/svg+xml</dc:format>
    <dc:creator>
     <cc:Agent>
      <dc:title>Matplotlib v3.7.0, https://matplotlib.org/</dc:title>
     </cc:Agent>
    </dc:creator>
   </cc:Work>
  </rdf:RDF>
 </metadata>
 <defs>
  <style type="text/css">*{stroke-linejoin: round; stroke-linecap: butt}</style>
 </defs>
 <g id="figure_1">
  <g id="patch_1">
   <path d="M 0 558.886875 
L 753.478125 558.886875 
L 753.478125 0 
L 0 0 
z
" style="fill: #ffffff"/>
  </g>
  <g id="axes_1">
   <g id="patch_2">
    <path d="M 20.878125 521.330625 
L 746.278125 521.330625 
L 746.278125 22.370625 
L 20.878125 22.370625 
z
" style="fill: #ffffff"/>
   </g>
   <g id="PolyCollection_1">
    <path d="M 53.850852 180.659183 
L 53.850852 180.659183 
L 57.140849 177.236182 
L 60.46248 173.934784 
L 63.752477 170.757 
L 67.042474 167.70685 
L 70.332471 164.788354 
L 73.654102 162.004527 
L 76.944099 159.357379 
L 80.234096 156.849924 
L 83.524092 154.484174 
L 86.814089 152.262137 
L 90.135721 150.186829 
L 93.425717 148.259255 
L 96.715714 146.48042 
L 100.005711 144.850323 
L 103.327342 143.370975 
L 106.617339 142.043381 
L 109.907336 140.866536 
L 113.197333 139.840439 
L 116.518964 138.964087 
L 119.808961 138.237478 
L 123.098957 137.660612 
L 126.388954 137.230476 
L 129.678951 136.945058 
L 133.000582 136.804359 
L 136.290579 136.805364 
L 139.580576 136.945058 
L 142.870573 137.220426 
L 146.192204 137.629458 
L 149.482201 138.168133 
L 152.772198 138.834443 
L 156.062194 139.622356 
L 159.383826 140.528859 
L 162.673822 141.548925 
L 165.963819 142.679541 
L 169.253816 143.914676 
L 172.543813 145.25031 
L 175.865444 146.680413 
L 179.155441 148.199961 
L 182.445438 149.803927 
L 185.735434 151.486284 
L 189.057066 153.240999 
L 192.347063 155.063049 
L 195.637059 156.945399 
L 198.927056 158.883023 
L 202.248687 160.868886 
L 205.538684 162.89696 
L 208.828681 164.960208 
L 212.118678 167.053605 
L 215.408675 169.170118 
L 218.730306 171.30271 
L 222.020303 173.446358 
L 225.310299 175.59302 
L 228.600296 177.737672 
L 231.921928 179.872275 
L 235.211924 181.992807 
L 238.501921 184.09123 
L 241.791918 186.162518 
L 245.081915 188.199636 
L 248.403546 190.19756 
L 251.693543 192.150259 
L 254.98354 194.051703 
L 258.273536 195.895863 
L 261.595168 197.679723 
L 264.885165 199.395244 
L 268.175161 201.039411 
L 271.465158 202.606193 
L 274.786789 204.09157 
L 278.076786 205.490519 
L 281.366783 206.799018 
L 284.65678 208.014053 
L 287.946776 209.131604 
L 291.268408 210.146646 
L 294.558405 211.057168 
L 297.848401 211.860156 
L 301.138398 212.552596 
L 304.46003 213.131471 
L 307.750026 213.595777 
L 311.040023 213.941494 
L 314.33002 214.168622 
L 317.651651 214.275152 
L 320.941648 214.259072 
L 324.231645 214.121388 
L 327.521642 213.85808 
L 330.811638 213.472163 
L 334.13327 212.960622 
L 337.423266 212.325468 
L 340.713263 211.565694 
L 344.00326 210.683311 
L 347.324891 209.677314 
L 350.614888 208.549714 
L 353.904885 207.302519 
L 357.194882 205.934725 
L 360.484878 204.451357 
L 363.80651 202.851411 
L 367.096507 201.138905 
L 370.386503 199.31585 
L 373.6765 197.383251 
L 376.998131 195.346132 
L 380.288128 193.206505 
L 383.578125 190.967384 
L 386.868122 188.631783 
L 390.189753 186.204728 
L 393.47975 183.687223 
L 396.769747 181.0853 
L 400.059743 178.401972 
L 403.34974 175.64126 
L 406.671372 172.807183 
L 409.961368 169.904767 
L 413.251365 166.937026 
L 416.541362 163.910996 
L 419.862993 160.828687 
L 423.15299 157.696127 
L 426.442987 154.518344 
L 429.732984 151.299355 
L 433.054615 148.045192 
L 436.344612 144.759874 
L 439.634608 141.448426 
L 442.924605 138.116879 
L 446.214602 134.769251 
L 449.536233 131.411574 
L 452.82623 128.048872 
L 456.116227 124.686169 
L 459.406224 121.328492 
L 462.727855 117.981869 
L 466.017852 114.651327 
L 469.307849 111.340884 
L 472.597845 108.057576 
L 475.919477 104.805423 
L 479.209474 101.589449 
L 482.49947 98.415686 
L 485.789467 95.288151 
L 489.079464 92.212877 
L 492.401095 89.194887 
L 495.691092 86.239206 
L 498.981089 83.34885 
L 502.271085 80.530853 
L 505.592717 77.789235 
L 508.882714 75.128017 
L 512.17271 72.553229 
L 515.462707 70.066879 
L 518.752704 67.676004 
L 522.074335 65.383618 
L 525.364332 63.193741 
L 528.654329 61.111398 
L 531.944326 59.139604 
L 535.265957 57.282379 
L 538.555954 55.543744 
L 541.845951 53.926712 
L 545.135947 52.434299 
L 548.457579 51.07153 
L 551.747575 49.839411 
L 555.037572 48.742965 
L 558.327569 47.783197 
L 561.617566 46.964129 
L 564.939197 46.28777 
L 568.229194 45.756129 
L 571.519191 45.371217 
L 574.809187 45.135044 
L 578.130819 45.050625 
L 581.420816 45.117959 
L 584.710812 45.339058 
L 588.000809 45.714925 
L 591.32244 46.24757 
L 594.612437 46.935989 
L 597.902434 47.782193 
L 601.192431 48.786179 
L 604.482428 49.948955 
L 607.804059 51.268509 
L 611.094056 52.746852 
L 614.384052 54.382978 
L 617.674049 56.174878 
L 620.995681 58.123557 
L 624.285677 60.227005 
L 627.575674 62.484216 
L 630.865671 64.894187 
L 634.187302 67.454906 
L 637.477299 70.164363 
L 640.767296 73.02055 
L 644.057293 76.02246 
L 647.347289 79.166074 
L 650.668921 82.449382 
L 653.958917 85.870374 
L 657.248914 89.42503 
L 660.538911 93.111339 
L 663.860542 96.925283 
L 667.150539 100.863845 
L 670.440536 104.923007 
L 673.730533 109.099753 
L 677.020529 113.389057 
L 680.342161 117.787906 
L 683.632158 122.292279 
L 686.922154 126.898156 
L 690.212151 131.599507 
L 693.533783 136.394323 
L 696.823779 141.276573 
L 700.113776 146.241232 
L 703.403773 151.28428 
L 706.725404 156.401698 
L 710.015401 161.587455 
L 710.015401 161.587455 
L 710.015401 498.650625 
L 706.725404 498.650625 
L 703.403773 498.650625 
L 700.113776 498.650625 
L 696.823779 498.650625 
L 693.533783 498.650625 
L 690.212151 498.650625 
L 686.922154 498.650625 
L 683.632158 498.650625 
L 680.342161 498.650625 
L 677.020529 498.650625 
L 673.730533 498.650625 
L 670.440536 498.650625 
L 667.150539 498.650625 
L 663.860542 498.650625 
L 660.538911 498.650625 
L 657.248914 498.650625 
L 653.958917 498.650625 
L 650.668921 498.650625 
L 647.347289 498.650625 
L 644.057293 498.650625 
L 640.767296 498.650625 
L 637.477299 498.650625 
L 634.187302 498.650625 
L 630.865671 498.650625 
L 627.575674 498.650625 
L 624.285677 498.650625 
L 620.995681 498.650625 
L 617.674049 498.650625 
L 614.384052 498.650625 
L 611.094056 498.650625 
L 607.804059 498.650625 
L 604.482428 498.650625 
L 601.192431 498.650625 
L 597.902434 498.650625 
L 594.612437 498.650625 
L 591.32244 498.650625 
L 588.000809 498.650625 
L 584.710812 498.650625 
L 581.420816 498.650625 
L 578.130819 498.650625 
L 574.809187 498.650625 
L 571.519191 498.650625 
L 568.229194 498.650625 
L 564.939197 498.650625 
L 561.617566 498.650625 
L 558.327569 498.650625 
L 555.037572 498.650625 
L 551.747575 498.650625 
L 548.457579 498.650625 
L 545.135947 498.650625 
L 541.845951 498.650625 
L 538.555954 498.650625 
L 535.265957 498.650625 
L 531.944326 498.650625 
L 528.654329 498.650625 
L 525.364332 498.650625 
L 522.074335 498.650625 
L 518.752704 498.650625 
L 515.462707 498.650625 
L 512.17271 498.650625 
L 508.882714 498.650625 
L 505.592717 498.650625 
L 502.271085 498.650625 
L 498.981089 498.650625 
L 495.691092 498.650625 
L 492.401095 498.650625 
L 489.079464 498.650625 
L 485.789467 498.650625 
L 482.49947 498.650625 
L 479.209474 498.650625 
L 475.919477 498.650625 
L 472.597845 498.650625 
L 469.307849 498.650625 
L 466.017852 498.650625 
L 462.727855 498.650625 
L 459.406224 498.650625 
L 456.116227 498.650625 
L 452.82623 498.650625 
L 449.536233 498.650625 
L 446.214602 498.650625 
L 442.924605 498.650625 
L 439.634608 498.650625 
L 436.344612 498.650625 
L 433.054615 498.650625 
L 429.732984 498.650625 
L 426.442987 498.650625 
L 423.15299 498.650625 
L 419.862993 498.650625 
L 416.541362 498.650625 
L 413.251365 498.650625 
L 409.961368 498.650625 
L 406.671372 498.650625 
L 403.34974 498.650625 
L 400.059743 498.650625 
L 396.769747 498.650625 
L 393.47975 498.650625 
L 390.189753 498.650625 
L 386.868122 498.650625 
L 383.578125 498.650625 
L 380.288128 498.650625 
L 376.998131 498.650625 
L 373.6765 498.650625 
L 370.386503 498.650625 
L 367.096507 498.650625 
L 363.80651 498.650625 
L 360.484878 498.650625 
L 357.194882 498.650625 
L 353.904885 498.650625 
L 350.614888 498.650625 
L 347.324891 498.650625 
L 344.00326 498.650625 
L 340.713263 498.650625 
L 337.423266 498.650625 
L 334.13327 498.650625 
L 330.811638 498.650625 
L 327.521642 498.650625 
L 324.231645 498.650625 
L 320.941648 498.650625 
L 317.651651 498.650625 
L 314.33002 498.650625 
L 311.040023 498.650625 
L 307.750026 498.650625 
L 304.46003 498.650625 
L 301.138398 498.650625 
L 297.848401 498.650625 
L 294.558405 498.650625 
L 291.268408 498.650625 
L 287.946776 498.650625 
L 284.65678 498.650625 
L 281.366783 498.650625 
L 278.076786 498.650625 
L 274.786789 498.650625 
L 271.465158 498.650625 
L 268.175161 498.650625 
L 264.885165 498.650625 
L 261.595168 498.650625 
L 258.273536 498.650625 
L 254.98354 498.650625 
L 251.693543 498.650625 
L 248.403546 498.650625 
L 245.081915 498.650625 
L 241.791918 498.650625 
L 238.501921 498.650625 
L 235.211924 498.650625 
L 231.921928 498.650625 
L 228.600296 498.650625 
L 225.310299 498.650625 
L 222.020303 498.650625 
L 218.730306 498.650625 
L 215.408675 498.650625 
L 212.118678 498.650625 
L 208.828681 498.650625 
L 205.538684 498.650625 
L 202.248687 498.650625 
L 198.927056 498.650625 
L 195.637059 498.650625 
L 192.347063 498.650625 
L 189.057066 498.650625 
L 185.735434 498.650625 
L 182.445438 498.650625 
L 179.155441 498.650625 
L 175.865444 498.650625 
L 172.543813 498.650625 
L 169.253816 498.650625 
L 165.963819 498.650625 
L 162.673822 498.650625 
L 159.383826 498.650625 
L 156.062194 498.650625 
L 152.772198 498.650625 
L 149.482201 498.650625 
L 146.192204 498.650625 
L 142.870573 498.650625 
L 139.580576 498.650625 
L 136.290579 498.650625 
L 133.000582 498.650625 
L 129.678951 498.650625 
L 126.388954 498.650625 
L 123.098957 498.650625 
L 119.808961 498.650625 
L 116.518964 498.650625 
L 113.197333 498.650625 
L 109.907336 498.650625 
L 106.617339 498.650625 
L 103.327342 498.650625 
L 100.005711 498.650625 
L 96.715714 498.650625 
L 93.425717 498.650625 
L 90.135721 498.650625 
L 86.814089 498.650625 
L 83.524092 498.650625 
L 80.234096 498.650625 
L 76.944099 498.650625 
L 73.654102 498.650625 
L 70.332471 498.650625 
L 67.042474 498.650625 
L 63.752477 498.650625 
L 60.46248 498.650625 
L 57.140849 498.650625 
L 53.850852 498.650625 
z
" clip-path="url(#pe08cc63d76)" style="fill: #1f77b4; fill-opacity: 0.25"/>
   </g>
   <g id="matplotlib.axis_1">
    <g id="xtick_1">
     <g id="line2d_1">
      <defs>
       <path id="m541f8fc0d3" d="M 0 0 
L 0 3.5 
" style="stroke: #000000; stroke-width: 0.8"/>
      </defs>
      <g>
       <use xlink:href="#m541f8fc0d3" x="158.118442" y="521.330625" style="stroke: #000000; stroke-width: 0.8"/>
      </g>
     </g>
     <g id="text_1">
      <!-- 0.00265 -->
      <g transform="translate(137.44188 535.929062) scale(0.1 -0.1)">
       <defs>
        <path id="DejaVuSans-30" d="M 2034 4250 
Q 1547 4250 1301 3770 
Q 1056 3291 1056 2328 
Q 1056 1369 1301 889 
Q 1547 409 2034 409 
Q 2525 409 2770 889 
Q 3016 1369 3016 2328 
Q 3016 3291 2770 3770 
Q 2525 4250 2034 4250 
z
M 2034 4750 
Q 2819 4750 3233 4129 
Q 3647 3509 3647 2328 
Q 3647 1150 3233 529 
Q 2819 -91 2034 -91 
Q 1250 -91 836 529 
Q 422 1150 422 2328 
Q 422 3509 836 4129 
Q 1250 4750 2034 4750 
z
" transform="scale(0.015625)"/>
        <path id="DejaVuSans-2e" d="M 684 794 
L 1344 794 
L 1344 0 
L 684 0 
L 684 794 
z
" transform="scale(0.015625)"/>
        <path id="DejaVuSans-32" d="M 1228 531 
L 3431 531 
L 3431 0 
L 469 0 
L 469 531 
Q 828 903 1448 1529 
Q 2069 2156 2228 2338 
Q 2531 2678 2651 2914 
Q 2772 3150 2772 3378 
Q 2772 3750 2511 3984 
Q 2250 4219 1831 4219 
Q 1534 4219 1204 4116 
Q 875 4013 500 3803 
L 500 4441 
Q 881 4594 1212 4672 
Q 1544 4750 1819 4750 
Q 2544 4750 2975 4387 
Q 3406 4025 3406 3419 
Q 3406 3131 3298 2873 
Q 3191 2616 2906 2266 
Q 2828 2175 2409 1742 
Q 1991 1309 1228 531 
z
" transform="scale(0.015625)"/>
        <path id="DejaVuSans-36" d="M 2113 2584 
Q 1688 2584 1439 2293 
Q 1191 2003 1191 1497 
Q 1191 994 1439 701 
Q 1688 409 2113 409 
Q 2538 409 2786 701 
Q 3034 994 3034 1497 
Q 3034 2003 2786 2293 
Q 2538 2584 2113 2584 
z
M 3366 4563 
L 3366 3988 
Q 3128 4100 2886 4159 
Q 2644 4219 2406 4219 
Q 1781 4219 1451 3797 
Q 1122 3375 1075 2522 
Q 1259 2794 1537 2939 
Q 1816 3084 2150 3084 
Q 2853 3084 3261 2657 
Q 3669 2231 3669 1497 
Q 3669 778 3244 343 
Q 2819 -91 2113 -91 
Q 1303 -91 875 529 
Q 447 1150 447 2328 
Q 447 3434 972 4092 
Q 1497 4750 2381 4750 
Q 2619 4750 2861 4703 
Q 3103 4656 3366 4563 
z
" transform="scale(0.015625)"/>
        <path id="DejaVuSans-35" d="M 691 4666 
L 3169 4666 
L 3169 4134 
L 1269 4134 
L 1269 2991 
Q 1406 3038 1543 3061 
Q 1681 3084 1819 3084 
Q 2600 3084 3056 2656 
Q 3513 2228 3513 1497 
Q 3513 744 3044 326 
Q 2575 -91 1722 -91 
Q 1428 -91 1123 -41 
Q 819 9 494 109 
L 494 744 
Q 775 591 1075 516 
Q 1375 441 1709 441 
Q 2250 441 2565 725 
Q 2881 1009 2881 1497 
Q 2881 1984 2565 2268 
Q 2250 2553 1709 2553 
Q 1456 2553 1204 2497 
Q 953 2441 691 2322 
L 691 4666 
z
" transform="scale(0.015625)"/>
       </defs>
       <use xlink:href="#DejaVuSans-30"/>
       <use xlink:href="#DejaVuSans-2e" x="63.623047"/>
       <use xlink:href="#DejaVuSans-30" x="95.410156"/>
       <use xlink:href="#DejaVuSans-30" x="159.033203"/>
       <use xlink:href="#DejaVuSans-32" x="222.65625"/>
       <use xlink:href="#DejaVuSans-36" x="286.279297"/>
       <use xlink:href="#DejaVuSans-35" x="349.902344"/>
      </g>
     </g>
    </g>
    <g id="xtick_2">
     <g id="line2d_2">
      <g>
       <use xlink:href="#m541f8fc0d3" x="316.291364" y="521.330625" style="stroke: #000000; stroke-width: 0.8"/>
      </g>
     </g>
     <g id="text_2">
      <!-- 0.00270 -->
      <g transform="translate(295.614802 535.929062) scale(0.1 -0.1)">
       <defs>
        <path id="DejaVuSans-37" d="M 525 4666 
L 3525 4666 
L 3525 4397 
L 1831 0 
L 1172 0 
L 2766 4134 
L 525 4134 
L 525 4666 
z
" transform="scale(0.015625)"/>
       </defs>
       <use xlink:href="#DejaVuSans-30"/>
       <use xlink:href="#DejaVuSans-2e" x="63.623047"/>
       <use xlink:href="#DejaVuSans-30" x="95.410156"/>
       <use xlink:href="#DejaVuSans-30" x="159.033203"/>
       <use xlink:href="#DejaVuSans-32" x="222.65625"/>
       <use xlink:href="#DejaVuSans-37" x="286.279297"/>
       <use xlink:href="#DejaVuSans-30" x="349.902344"/>
      </g>
     </g>
    </g>
    <g id="xtick_3">
     <g id="line2d_3">
      <g>
       <use xlink:href="#m541f8fc0d3" x="474.464286" y="521.330625" style="stroke: #000000; stroke-width: 0.8"/>
      </g>
     </g>
     <g id="text_3">
      <!-- 0.00275 -->
      <g transform="translate(453.787723 535.929062) scale(0.1 -0.1)">
       <use xlink:href="#DejaVuSans-30"/>
       <use xlink:href="#DejaVuSans-2e" x="63.623047"/>
       <use xlink:href="#DejaVuSans-30" x="95.410156"/>
       <use xlink:href="#DejaVuSans-30" x="159.033203"/>
       <use xlink:href="#DejaVuSans-32" x="222.65625"/>
       <use xlink:href="#DejaVuSans-37" x="286.279297"/>
       <use xlink:href="#DejaVuSans-35" x="349.902344"/>
      </g>
     </g>
    </g>
    <g id="xtick_4">
     <g id="line2d_4">
      <g>
       <use xlink:href="#m541f8fc0d3" x="632.637208" y="521.330625" style="stroke: #000000; stroke-width: 0.8"/>
      </g>
     </g>
     <g id="text_4">
      <!-- 0.00280 -->
      <g transform="translate(611.960645 535.929062) scale(0.1 -0.1)">
       <defs>
        <path id="DejaVuSans-38" d="M 2034 2216 
Q 1584 2216 1326 1975 
Q 1069 1734 1069 1313 
Q 1069 891 1326 650 
Q 1584 409 2034 409 
Q 2484 409 2743 651 
Q 3003 894 3003 1313 
Q 3003 1734 2745 1975 
Q 2488 2216 2034 2216 
z
M 1403 2484 
Q 997 2584 770 2862 
Q 544 3141 544 3541 
Q 544 4100 942 4425 
Q 1341 4750 2034 4750 
Q 2731 4750 3128 4425 
Q 3525 4100 3525 3541 
Q 3525 3141 3298 2862 
Q 3072 2584 2669 2484 
Q 3125 2378 3379 2068 
Q 3634 1759 3634 1313 
Q 3634 634 3220 271 
Q 2806 -91 2034 -91 
Q 1263 -91 848 271 
Q 434 634 434 1313 
Q 434 1759 690 2068 
Q 947 2378 1403 2484 
z
M 1172 3481 
Q 1172 3119 1398 2916 
Q 1625 2713 2034 2713 
Q 2441 2713 2670 2916 
Q 2900 3119 2900 3481 
Q 2900 3844 2670 4047 
Q 2441 4250 2034 4250 
Q 1625 4250 1398 4047 
Q 1172 3844 1172 3481 
z
" transform="scale(0.015625)"/>
       </defs>
       <use xlink:href="#DejaVuSans-30"/>
       <use xlink:href="#DejaVuSans-2e" x="63.623047"/>
       <use xlink:href="#DejaVuSans-30" x="95.410156"/>
       <use xlink:href="#DejaVuSans-30" x="159.033203"/>
       <use xlink:href="#DejaVuSans-32" x="222.65625"/>
       <use xlink:href="#DejaVuSans-38" x="286.279297"/>
       <use xlink:href="#DejaVuSans-30" x="349.902344"/>
      </g>
     </g>
    </g>
    <g id="text_5">
     <!-- t [s] -->
     <g transform="translate(373.522656 549.607188) scale(0.1 -0.1)">
      <defs>
       <path id="DejaVuSans-74" d="M 1172 4494 
L 1172 3500 
L 2356 3500 
L 2356 3053 
L 1172 3053 
L 1172 1153 
Q 1172 725 1289 603 
Q 1406 481 1766 481 
L 2356 481 
L 2356 0 
L 1766 0 
Q 1100 0 847 248 
Q 594 497 594 1153 
L 594 3053 
L 172 3053 
L 172 3500 
L 594 3500 
L 594 4494 
L 1172 4494 
z
" transform="scale(0.015625)"/>
       <path id="DejaVuSans-20" transform="scale(0.015625)"/>
       <path id="DejaVuSans-5b" d="M 550 4863 
L 1875 4863 
L 1875 4416 
L 1125 4416 
L 1125 -397 
L 1875 -397 
L 1875 -844 
L 550 -844 
L 550 4863 
z
" transform="scale(0.015625)"/>
       <path id="DejaVuSans-73" d="M 2834 3397 
L 2834 2853 
Q 2591 2978 2328 3040 
Q 2066 3103 1784 3103 
Q 1356 3103 1142 2972 
Q 928 2841 928 2578 
Q 928 2378 1081 2264 
Q 1234 2150 1697 2047 
L 1894 2003 
Q 2506 1872 2764 1633 
Q 3022 1394 3022 966 
Q 3022 478 2636 193 
Q 2250 -91 1575 -91 
Q 1294 -91 989 -36 
Q 684 19 347 128 
L 347 722 
Q 666 556 975 473 
Q 1284 391 1588 391 
Q 1994 391 2212 530 
Q 2431 669 2431 922 
Q 2431 1156 2273 1281 
Q 2116 1406 1581 1522 
L 1381 1569 
Q 847 1681 609 1914 
Q 372 2147 372 2553 
Q 372 3047 722 3315 
Q 1072 3584 1716 3584 
Q 2034 3584 2315 3537 
Q 2597 3491 2834 3397 
z
" transform="scale(0.015625)"/>
       <path id="DejaVuSans-5d" d="M 1947 4863 
L 1947 -844 
L 622 -844 
L 622 -397 
L 1369 -397 
L 1369 4416 
L 622 4416 
L 622 4863 
L 1947 4863 
z
" transform="scale(0.015625)"/>
      </defs>
      <use xlink:href="#DejaVuSans-74"/>
      <use xlink:href="#DejaVuSans-20" x="39.208984"/>
      <use xlink:href="#DejaVuSans-5b" x="70.996094"/>
      <use xlink:href="#DejaVuSans-73" x="110.009766"/>
      <use xlink:href="#DejaVuSans-5d" x="162.109375"/>
     </g>
    </g>
   </g>
   <g id="matplotlib.axis_2">
    <g id="ytick_1"/>
    <g id="ytick_2"/>
    <g id="ytick_3"/>
    <g id="ytick_4"/>
    <g id="ytick_5"/>
    <g id="text_6">
     <!-- runs -->
     <g transform="translate(14.798438 282.848281) rotate(-90) scale(0.1 -0.1)">
      <defs>
       <path id="DejaVuSans-72" d="M 2631 2963 
Q 2534 3019 2420 3045 
Q 2306 3072 2169 3072 
Q 1681 3072 1420 2755 
Q 1159 2438 1159 1844 
L 1159 0 
L 581 0 
L 581 3500 
L 1159 3500 
L 1159 2956 
Q 1341 3275 1631 3429 
Q 1922 3584 2338 3584 
Q 2397 3584 2469 3576 
Q 2541 3569 2628 3553 
L 2631 2963 
z
" transform="scale(0.015625)"/>
       <path id="DejaVuSans-75" d="M 544 1381 
L 544 3500 
L 1119 3500 
L 1119 1403 
Q 1119 906 1312 657 
Q 1506 409 1894 409 
Q 2359 409 2629 706 
Q 2900 1003 2900 1516 
L 2900 3500 
L 3475 3500 
L 3475 0 
L 2900 0 
L 2900 538 
Q 2691 219 2414 64 
Q 2138 -91 1772 -91 
Q 1169 -91 856 284 
Q 544 659 544 1381 
z
M 1991 3584 
L 1991 3584 
z
" transform="scale(0.015625)"/>
       <path id="DejaVuSans-6e" d="M 3513 2113 
L 3513 0 
L 2938 0 
L 2938 2094 
Q 2938 2591 2744 2837 
Q 2550 3084 2163 3084 
Q 1697 3084 1428 2787 
Q 1159 2491 1159 1978 
L 1159 0 
L 581 0 
L 581 3500 
L 1159 3500 
L 1159 2956 
Q 1366 3272 1645 3428 
Q 1925 3584 2291 3584 
Q 2894 3584 3203 3211 
Q 3513 2838 3513 2113 
z
" transform="scale(0.015625)"/>
      </defs>
      <use xlink:href="#DejaVuSans-72"/>
      <use xlink:href="#DejaVuSans-75" x="41.113281"/>
      <use xlink:href="#DejaVuSans-6e" x="104.492188"/>
      <use xlink:href="#DejaVuSans-73" x="167.871094"/>
     </g>
    </g>
   </g>
   <g id="line2d_5">
    <defs>
     <path id="mc89e14bdab" d="M 0 1 
C 0.265203 1 0.51958 0.894634 0.707107 0.707107 
C 0.894634 0.51958 1 0.265203 1 0 
C 1 -0.265203 0.894634 -0.51958 0.707107 -0.707107 
C 0.51958 -0.894634 0.265203 -1 0 -1 
C -0.265203 -1 -0.51958 -0.894634 -0.707107 -0.707107 
C -0.894634 -0.51958 -1 -0.265203 -1 0 
C -1 0.265203 -0.894634 0.51958 -0.707107 0.707107 
C -0.51958 0.894634 -0.265203 1 0 1 
z
" style="stroke: #1f77b4"/>
    </defs>
    <g clip-path="url(#pe08cc63d76)">
     <use xlink:href="#mc89e14bdab" x="713.305398" y="453.290625" style="fill: #1f77b4; stroke: #1f77b4"/>
     <use xlink:href="#mc89e14bdab" x="484.492449" y="407.930625" style="fill: #1f77b4; stroke: #1f77b4"/>
     <use xlink:href="#mc89e14bdab" x="197.788211" y="362.570725" style="fill: #1f77b4; stroke: #1f77b4"/>
     <use xlink:href="#mc89e14bdab" x="420.812031" y="317.210424" style="fill: #1f77b4; stroke: #1f77b4"/>
     <use xlink:href="#mc89e14bdab" x="53.850852" y="271.850123" style="fill: #1f77b4; stroke: #1f77b4"/>
     <use xlink:href="#mc89e14bdab" x="139.928556" y="226.490826" style="fill: #1f77b4; stroke: #1f77b4"/>
     <use xlink:href="#mc89e14bdab" x="576.074571" y="181.130525" style="fill: #1f77b4; stroke: #1f77b4"/>
     <use xlink:href="#mc89e14bdab" x="635.674128" y="135.770223" style="fill: #1f77b4; stroke: #1f77b4"/>
     <use xlink:href="#mc89e14bdab" x="93.931871" y="90.410926" style="fill: #1f77b4; stroke: #1f77b4"/>
     <use xlink:href="#mc89e14bdab" x="610.113384" y="45.050625" style="fill: #1f77b4; stroke: #1f77b4"/>
    </g>
   </g>
   <g id="line2d_6">
    <path d="M 392.214367 521.330625 
L 392.214367 22.370625 
" clip-path="url(#pe08cc63d76)" style="fill: none; stroke: #1f77b4; stroke-width: 1.5; stroke-linecap: square"/>
   </g>
   <g id="patch_3">
    <path d="M 20.878125 521.330625 
L 20.878125 22.370625 
" style="fill: none; stroke: #000000; stroke-width: 0.8; stroke-linejoin: miter; stroke-linecap: square"/>
   </g>
   <g id="patch_4">
    <path d="M 746.278125 521.330625 
L 746.278125 22.370625 
" style="fill: none; stroke: #000000; stroke-width: 0.8; stroke-linejoin: miter; stroke-linecap: square"/>
   </g>
   <g id="patch_5">
    <path d="M 20.878125 521.330625 
L 746.278125 521.330625 
" style="fill: none; stroke: #000000; stroke-width: 0.8; stroke-linejoin: miter; stroke-linecap: square"/>
   </g>
   <g id="patch_6">
    <path d="M 20.878125 22.370625 
L 746.278125 22.370625 
" style="fill: none; stroke: #000000; stroke-width: 0.8; stroke-linejoin: miter; stroke-linecap: square"/>
   </g>
   <g id="text_7">
    <!-- echo 2100 | python3 quicksort.py -->
    <g transform="translate(282.45375 16.370625) scale(0.12 -0.12)">
     <defs>
      <path id="DejaVuSans-65" d="M 3597 1894 
L 3597 1613 
L 953 1613 
Q 991 1019 1311 708 
Q 1631 397 2203 397 
Q 2534 397 2845 478 
Q 3156 559 3463 722 
L 3463 178 
Q 3153 47 2828 -22 
Q 2503 -91 2169 -91 
Q 1331 -91 842 396 
Q 353 884 353 1716 
Q 353 2575 817 3079 
Q 1281 3584 2069 3584 
Q 2775 3584 3186 3129 
Q 3597 2675 3597 1894 
z
M 3022 2063 
Q 3016 2534 2758 2815 
Q 2500 3097 2075 3097 
Q 1594 3097 1305 2825 
Q 1016 2553 972 2059 
L 3022 2063 
z
" transform="scale(0.015625)"/>
      <path id="DejaVuSans-63" d="M 3122 3366 
L 3122 2828 
Q 2878 2963 2633 3030 
Q 2388 3097 2138 3097 
Q 1578 3097 1268 2742 
Q 959 2388 959 1747 
Q 959 1106 1268 751 
Q 1578 397 2138 397 
Q 2388 397 2633 464 
Q 2878 531 3122 666 
L 3122 134 
Q 2881 22 2623 -34 
Q 2366 -91 2075 -91 
Q 1284 -91 818 406 
Q 353 903 353 1747 
Q 353 2603 823 3093 
Q 1294 3584 2113 3584 
Q 2378 3584 2631 3529 
Q 2884 3475 3122 3366 
z
" transform="scale(0.015625)"/>
      <path id="DejaVuSans-68" d="M 3513 2113 
L 3513 0 
L 2938 0 
L 2938 2094 
Q 2938 2591 2744 2837 
Q 2550 3084 2163 3084 
Q 1697 3084 1428 2787 
Q 1159 2491 1159 1978 
L 1159 0 
L 581 0 
L 581 4863 
L 1159 4863 
L 1159 2956 
Q 1366 3272 1645 3428 
Q 1925 3584 2291 3584 
Q 2894 3584 3203 3211 
Q 3513 2838 3513 2113 
z
" transform="scale(0.015625)"/>
      <path id="DejaVuSans-6f" d="M 1959 3097 
Q 1497 3097 1228 2736 
Q 959 2375 959 1747 
Q 959 1119 1226 758 
Q 1494 397 1959 397 
Q 2419 397 2687 759 
Q 2956 1122 2956 1747 
Q 2956 2369 2687 2733 
Q 2419 3097 1959 3097 
z
M 1959 3584 
Q 2709 3584 3137 3096 
Q 3566 2609 3566 1747 
Q 3566 888 3137 398 
Q 2709 -91 1959 -91 
Q 1206 -91 779 398 
Q 353 888 353 1747 
Q 353 2609 779 3096 
Q 1206 3584 1959 3584 
z
" transform="scale(0.015625)"/>
      <path id="DejaVuSans-31" d="M 794 531 
L 1825 531 
L 1825 4091 
L 703 3866 
L 703 4441 
L 1819 4666 
L 2450 4666 
L 2450 531 
L 3481 531 
L 3481 0 
L 794 0 
L 794 531 
z
" transform="scale(0.015625)"/>
      <path id="DejaVuSans-7c" d="M 1344 4891 
L 1344 -1509 
L 813 -1509 
L 813 4891 
L 1344 4891 
z
" transform="scale(0.015625)"/>
      <path id="DejaVuSans-70" d="M 1159 525 
L 1159 -1331 
L 581 -1331 
L 581 3500 
L 1159 3500 
L 1159 2969 
Q 1341 3281 1617 3432 
Q 1894 3584 2278 3584 
Q 2916 3584 3314 3078 
Q 3713 2572 3713 1747 
Q 3713 922 3314 415 
Q 2916 -91 2278 -91 
Q 1894 -91 1617 61 
Q 1341 213 1159 525 
z
M 3116 1747 
Q 3116 2381 2855 2742 
Q 2594 3103 2138 3103 
Q 1681 3103 1420 2742 
Q 1159 2381 1159 1747 
Q 1159 1113 1420 752 
Q 1681 391 2138 391 
Q 2594 391 2855 752 
Q 3116 1113 3116 1747 
z
" transform="scale(0.015625)"/>
      <path id="DejaVuSans-79" d="M 2059 -325 
Q 1816 -950 1584 -1140 
Q 1353 -1331 966 -1331 
L 506 -1331 
L 506 -850 
L 844 -850 
Q 1081 -850 1212 -737 
Q 1344 -625 1503 -206 
L 1606 56 
L 191 3500 
L 800 3500 
L 1894 763 
L 2988 3500 
L 3597 3500 
L 2059 -325 
z
" transform="scale(0.015625)"/>
      <path id="DejaVuSans-33" d="M 2597 2516 
Q 3050 2419 3304 2112 
Q 3559 1806 3559 1356 
Q 3559 666 3084 287 
Q 2609 -91 1734 -91 
Q 1441 -91 1130 -33 
Q 819 25 488 141 
L 488 750 
Q 750 597 1062 519 
Q 1375 441 1716 441 
Q 2309 441 2620 675 
Q 2931 909 2931 1356 
Q 2931 1769 2642 2001 
Q 2353 2234 1838 2234 
L 1294 2234 
L 1294 2753 
L 1863 2753 
Q 2328 2753 2575 2939 
Q 2822 3125 2822 3475 
Q 2822 3834 2567 4026 
Q 2313 4219 1838 4219 
Q 1578 4219 1281 4162 
Q 984 4106 628 3988 
L 628 4550 
Q 988 4650 1302 4700 
Q 1616 4750 1894 4750 
Q 2613 4750 3031 4423 
Q 3450 4097 3450 3541 
Q 3450 3153 3228 2886 
Q 3006 2619 2597 2516 
z
" transform="scale(0.015625)"/>
      <path id="DejaVuSans-71" d="M 947 1747 
Q 947 1113 1208 752 
Q 1469 391 1925 391 
Q 2381 391 2643 752 
Q 2906 1113 2906 1747 
Q 2906 2381 2643 2742 
Q 2381 3103 1925 3103 
Q 1469 3103 1208 2742 
Q 947 2381 947 1747 
z
M 2906 525 
Q 2725 213 2448 61 
Q 2172 -91 1784 -91 
Q 1150 -91 751 415 
Q 353 922 353 1747 
Q 353 2572 751 3078 
Q 1150 3584 1784 3584 
Q 2172 3584 2448 3432 
Q 2725 3281 2906 2969 
L 2906 3500 
L 3481 3500 
L 3481 -1331 
L 2906 -1331 
L 2906 525 
z
" transform="scale(0.015625)"/>
      <path id="DejaVuSans-69" d="M 603 3500 
L 1178 3500 
L 1178 0 
L 603 0 
L 603 3500 
z
M 603 4863 
L 1178 4863 
L 1178 4134 
L 603 4134 
L 603 4863 
z
" transform="scale(0.015625)"/>
      <path id="DejaVuSans-6b" d="M 581 4863 
L 1159 4863 
L 1159 1991 
L 2875 3500 
L 3609 3500 
L 1753 1863 
L 3688 0 
L 2938 0 
L 1159 1709 
L 1159 0 
L 581 0 
L 581 4863 
z
" transform="scale(0.015625)"/>
     </defs>
     <use xlink:href="#DejaVuSans-65"/>
     <use xlink:href="#DejaVuSans-63" x="61.523438"/>
     <use xlink:href="#DejaVuSans-68" x="116.503906"/>
     <use xlink:href="#DejaVuSans-6f" x="179.882812"/>
     <use xlink:href="#DejaVuSans-20" x="241.064453"/>
     <use xlink:href="#DejaVuSans-32" x="272.851562"/>
     <use xlink:href="#DejaVuSans-31" x="336.474609"/>
     <use xlink:href="#DejaVuSans-30" x="400.097656"/>
     <use xlink:href="#DejaVuSans-30" x="463.720703"/>
     <use xlink:href="#DejaVuSans-20" x="527.34375"/>
     <use xlink:href="#DejaVuSans-7c" x="559.130859"/>
     <use xlink:href="#DejaVuSans-20" x="592.822266"/>
     <use xlink:href="#DejaVuSans-70" x="624.609375"/>
     <use xlink:href="#DejaVuSans-79" x="688.085938"/>
     <use xlink:href="#DejaVuSans-74" x="747.265625"/>
     <use xlink:href="#DejaVuSans-68" x="786.474609"/>
     <use xlink:href="#DejaVuSans-6f" x="849.853516"/>
     <use xlink:href="#DejaVuSans-6e" x="911.035156"/>
     <use xlink:href="#DejaVuSans-33" x="974.414062"/>
     <use xlink:href="#DejaVuSans-20" x="1038.037109"/>
     <use xlink:href="#DejaVuSans-71" x="1069.824219"/>
     <use xlink:href="#DejaVuSans-75" x="1133.300781"/>
     <use xlink:href="#DejaVuSans-69" x="1196.679688"/>
     <use xlink:href="#DejaVuSans-63" x="1224.462891"/>
     <use xlink:href="#DejaVuSans-6b" x="1279.443359"/>
     <use xlink:href="#DejaVuSans-73" x="1337.353516"/>
     <use xlink:href="#DejaVuSans-6f" x="1389.453125"/>
     <use xlink:href="#DejaVuSans-72" x="1450.634766"/>
     <use xlink:href="#DejaVuSans-74" x="1491.748047"/>
     <use xlink:href="#DejaVuSans-2e" x="1530.957031"/>
     <use xlink:href="#DejaVuSans-70" x="1562.744141"/>
     <use xlink:href="#DejaVuSans-79" x="1626.220703"/>
    </g>
   </g>
  </g>
 </g>
 <defs>
  <clipPath id="pe08cc63d76">
   <rect x="20.878125" y="22.370625" width="725.4" height="498.96"/>
  </clipPath>
 </defs>
</svg>
