<?xml version="1.0" encoding="utf-8" standalone="no"?>
<!DOCTYPE svg PUBLIC "-//W3C//DTD SVG 1.1//EN"
  "http://www.w3.org/Graphics/SVG/1.1/DTD/svg11.dtd">
<svg xmlns:xlink="http://www.w3.org/1999/xlink" width="753.478125pt" height="558.886875pt" viewBox="0 0 753.478125 558.886875" xmlns="http://www.w3.org/2000/svg" version="1.1">
 <metadata>
  <rdf:RDF xmlns:dc="http://purl.org/dc/elements/1.1/" xmlns:cc="http://creativecommons.org/ns#" xmlns:rdf="http://www.w3.org/1999/02/22-rdf-syntax-ns#">
   <cc:Work>
    <dc:type rdf:resource="http://purl.org/dc/dcmitype/StillImage"/>
    <dc:date>2024-01-14T13:49:56.369771</dc:date>
    <dc:format>image/svg+xml</dc:format>
    <dc:creator>
     <cc:Agent>
      <dc:title>Matplotlib v3.7.0, https://matplotlib.org/</dc:title>
     </cc:Agent>
    </dc:creator>
   </cc:Work>
  </rdf:RDF>
 </metadata>
 <defs>
  <style type="text/css">*{stroke-linejoin: round; stroke-linecap: butt}</style>
 </defs>
 <g id="figure_1">
  <g id="patch_1">
   <path d="M 0 558.886875 
L 753.478125 558.886875 
L 753.478125 0 
L 0 0 
z
" style="fill: #ffffff"/>
  </g>
  <g id="axes_1">
   <g id="patch_2">
    <path d="M 20.878125 521.330625 
L 746.278125 521.330625 
L 746.278125 22.370625 
L 20.878125 22.370625 
z
" style="fill: #ffffff"/>
   </g>
   <g id="PolyCollection_1">
    <path d="M 53.850852 306.757023 
L 53.850852 306.757023 
L 57.153495 301.040342 
L 60.442713 295.241305 
L 63.745356 289.361332 
L 67.034573 283.400421 
L 70.337216 277.364254 
L 73.639859 271.25283 
L 76.929076 265.071829 
L 80.231719 258.822671 
L 83.520937 252.509615 
L 86.82358 246.136922 
L 90.112797 239.710271 
L 93.41544 233.235342 
L 96.718083 226.714976 
L 100.0073 220.15911 
L 103.309943 213.572006 
L 106.599161 206.962183 
L 109.901804 200.336741 
L 113.204446 193.704198 
L 116.493664 187.073076 
L 119.796307 180.453313 
L 123.085524 173.85343 
L 126.388167 167.286205 
L 129.677385 160.760158 
L 132.980028 154.288069 
L 136.28267 147.879878 
L 139.639015 141.548363 
L 142.861105 135.307724 
L 146.21745 129.167902 
L 149.43954 123.143094 
L 152.795885 117.246081 
L 156.017975 111.489642 
L 159.37432 105.887977 
L 162.59641 100.455284 
L 165.952755 95.202924 
L 169.309099 90.145096 
L 172.53119 85.295999 
L 175.887534 80.666993 
L 179.109625 76.272277 
L 182.465969 72.121791 
L 185.68806 68.229734 
L 189.044404 64.606046 
L 192.266495 61.262086 
L 195.622839 58.207794 
L 198.979184 55.453109 
L 202.201274 53.005132 
L 205.557619 50.875221 
L 208.779709 49.066217 
L 212.136054 47.586639 
L 215.358144 46.442167 
L 218.714489 45.63564 
L 221.936579 45.17132 
L 225.292924 45.050625 
L 228.649268 45.274976 
L 231.871359 45.845792 
L 235.227703 46.758813 
L 238.449794 48.014041 
L 241.806138 49.608634 
L 245.028229 51.538333 
L 248.384573 53.796039 
L 251.740917 56.376071 
L 254.963008 59.271329 
L 258.319352 62.473295 
L 261.541443 65.973449 
L 264.897787 69.76185 
L 268.119878 73.82572 
L 271.476222 78.153698 
L 274.698313 82.734427 
L 278.054657 87.555125 
L 281.411002 92.600173 
L 284.633092 97.856793 
L 287.989437 103.310785 
L 291.211527 108.946529 
L 294.567872 114.748406 
L 297.789962 120.700796 
L 301.146307 126.789501 
L 304.368397 132.998901 
L 307.724742 139.311957 
L 311.081086 145.714468 
L 314.303177 152.190817 
L 317.659521 158.726803 
L 320.881612 165.305388 
L 324.237956 171.915211 
L 327.460047 178.540653 
L 330.816391 185.167516 
L 334.038482 191.785859 
L 337.394826 198.380062 
L 340.751171 204.940188 
L 343.973261 211.454875 
L 347.329606 217.914184 
L 350.551696 224.308176 
L 353.908041 230.626912 
L 357.130131 236.861871 
L 360.486476 243.008793 
L 363.708566 249.05632 
L 367.064911 255.003031 
L 370.421255 260.838986 
L 373.643346 266.562766 
L 376.99969 272.168692 
L 380.221781 277.655342 
L 383.578125 283.017037 
L 386.800216 288.253778 
L 390.15656 293.362724 
L 393.512904 298.342455 
L 396.734995 303.194392 
L 400.091339 307.917114 
L 403.31343 312.510622 
L 406.669774 316.976335 
L 409.891865 321.312833 
L 413.248209 325.524377 
L 416.4703 329.609546 
L 419.826644 333.56976 
L 423.182989 337.409279 
L 426.405079 341.126683 
L 429.761424 344.726232 
L 432.983514 348.207927 
L 436.339859 351.573186 
L 439.561949 354.824849 
L 442.918294 357.964054 
L 446.140384 360.991367 
L 449.496729 363.908209 
L 452.853073 366.715715 
L 456.075164 369.41488 
L 459.431508 372.00613 
L 462.653599 374.48989 
L 466.009943 376.866302 
L 469.232034 379.135651 
L 472.588378 381.297511 
L 475.810469 383.351455 
L 479.166813 385.297057 
L 482.523158 387.133324 
L 485.745248 388.859546 
L 489.101593 390.474444 
L 492.323683 391.977025 
L 495.680028 393.365727 
L 498.902118 394.639556 
L 502.258463 395.796949 
L 505.480553 396.836346 
L 508.836898 397.756609 
L 512.193242 398.556462 
L 515.415333 399.234341 
L 518.771677 399.789538 
L 521.993768 400.220916 
L 525.350112 400.527765 
L 528.572203 400.709375 
L 531.928547 400.765747 
L 535.284891 400.69688 
L 538.506982 400.502916 
L 541.863326 400.184565 
L 545.085417 399.742964 
L 548.441761 399.17939 
L 551.663852 398.49583 
L 555.020196 397.694416 
L 558.242287 396.777986 
L 561.598631 395.749523 
L 564.954976 394.612719 
L 568.177066 393.371691 
L 571.533411 392.030841 
L 574.755501 390.595423 
L 578.111846 389.070549 
L 581.333936 387.462466 
L 584.690281 385.777281 
L 587.912371 384.021808 
L 591.268716 382.203149 
L 594.62506 380.329111 
L 597.847151 378.407222 
L 601.203495 376.445858 
L 604.425586 374.453539 
L 607.78193 372.438928 
L 611.004021 370.410969 
L 614.360365 368.379034 
L 617.582456 366.352069 
L 620.9388 364.339729 
L 624.295145 362.351244 
L 627.517235 360.396128 
L 630.87358 358.483752 
L 634.09567 356.623914 
L 637.452015 354.824849 
L 640.674105 353.095362 
L 644.03045 351.446811 
L 647.386794 349.884876 
L 650.608885 348.418078 
L 653.965229 347.054935 
L 657.18732 345.803967 
L 660.543664 344.670855 
L 663.765755 343.662697 
L 667.122099 342.785174 
L 670.34419 342.045385 
L 673.700534 341.44617 
L 677.056878 340.993209 
L 680.278969 340.689342 
L 683.635313 340.538828 
L 686.857404 340.544508 
L 690.213748 340.707801 
L 693.435839 341.030127 
L 696.792183 341.512907 
L 700.014274 342.15472 
L 703.370618 342.956987 
L 706.726963 343.916866 
L 709.949053 345.03294 
L 709.949053 345.03294 
L 709.949053 498.650625 
L 706.726963 498.650625 
L 703.370618 498.650625 
L 700.014274 498.650625 
L 696.792183 498.650625 
L 693.435839 498.650625 
L 690.213748 498.650625 
L 686.857404 498.650625 
L 683.635313 498.650625 
L 680.278969 498.650625 
L 677.056878 498.650625 
L 673.700534 498.650625 
L 670.34419 498.650625 
L 667.122099 498.650625 
L 663.765755 498.650625 
L 660.543664 498.650625 
L 657.18732 498.650625 
L 653.965229 498.650625 
L 650.608885 498.650625 
L 647.386794 498.650625 
L 644.03045 498.650625 
L 640.674105 498.650625 
L 637.452015 498.650625 
L 634.09567 498.650625 
L 630.87358 498.650625 
L 627.517235 498.650625 
L 624.295145 498.650625 
L 620.9388 498.650625 
L 617.582456 498.650625 
L 614.360365 498.650625 
L 611.004021 498.650625 
L 607.78193 498.650625 
L 604.425586 498.650625 
L 601.203495 498.650625 
L 597.847151 498.650625 
L 594.62506 498.650625 
L 591.268716 498.650625 
L 587.912371 498.650625 
L 584.690281 498.650625 
L 581.333936 498.650625 
L 578.111846 498.650625 
L 574.755501 498.650625 
L 571.533411 498.650625 
L 568.177066 498.650625 
L 564.954976 498.650625 
L 561.598631 498.650625 
L 558.242287 498.650625 
L 555.020196 498.650625 
L 551.663852 498.650625 
L 548.441761 498.650625 
L 545.085417 498.650625 
L 541.863326 498.650625 
L 538.506982 498.650625 
L 535.284891 498.650625 
L 531.928547 498.650625 
L 528.572203 498.650625 
L 525.350112 498.650625 
L 521.993768 498.650625 
L 518.771677 498.650625 
L 515.415333 498.650625 
L 512.193242 498.650625 
L 508.836898 498.650625 
L 505.480553 498.650625 
L 502.258463 498.650625 
L 498.902118 498.650625 
L 495.680028 498.650625 
L 492.323683 498.650625 
L 489.101593 498.650625 
L 485.745248 498.650625 
L 482.523158 498.650625 
L 479.166813 498.650625 
L 475.810469 498.650625 
L 472.588378 498.650625 
L 469.232034 498.650625 
L 466.009943 498.650625 
L 462.653599 498.650625 
L 459.431508 498.650625 
L 456.075164 498.650625 
L 452.853073 498.650625 
L 449.496729 498.650625 
L 446.140384 498.650625 
L 442.918294 498.650625 
L 439.561949 498.650625 
L 436.339859 498.650625 
L 432.983514 498.650625 
L 429.761424 498.650625 
L 426.405079 498.650625 
L 423.182989 498.650625 
L 419.826644 498.650625 
L 416.4703 498.650625 
L 413.248209 498.650625 
L 409.891865 498.650625 
L 406.669774 498.650625 
L 403.31343 498.650625 
L 400.091339 498.650625 
L 396.734995 498.650625 
L 393.512904 498.650625 
L 390.15656 498.650625 
L 386.800216 498.650625 
L 383.578125 498.650625 
L 380.221781 498.650625 
L 376.99969 498.650625 
L 373.643346 498.650625 
L 370.421255 498.650625 
L 367.064911 498.650625 
L 363.708566 498.650625 
L 360.486476 498.650625 
L 357.130131 498.650625 
L 353.908041 498.650625 
L 350.551696 498.650625 
L 347.329606 498.650625 
L 343.973261 498.650625 
L 340.751171 498.650625 
L 337.394826 498.650625 
L 334.038482 498.650625 
L 330.816391 498.650625 
L 327.460047 498.650625 
L 324.237956 498.650625 
L 320.881612 498.650625 
L 317.659521 498.650625 
L 314.303177 498.650625 
L 311.081086 498.650625 
L 307.724742 498.650625 
L 304.368397 498.650625 
L 301.146307 498.650625 
L 297.789962 498.650625 
L 294.567872 498.650625 
L 291.211527 498.650625 
L 287.989437 498.650625 
L 284.633092 498.650625 
L 281.411002 498.650625 
L 278.054657 498.650625 
L 274.698313 498.650625 
L 271.476222 498.650625 
L 268.119878 498.650625 
L 264.897787 498.650625 
L 261.541443 498.650625 
L 258.319352 498.650625 
L 254.963008 498.650625 
L 251.740917 498.650625 
L 248.384573 498.650625 
L 245.028229 498.650625 
L 241.806138 498.650625 
L 238.449794 498.650625 
L 235.227703 498.650625 
L 231.871359 498.650625 
L 228.649268 498.650625 
L 225.292924 498.650625 
L 221.936579 498.650625 
L 218.714489 498.650625 
L 215.358144 498.650625 
L 212.136054 498.650625 
L 208.779709 498.650625 
L 205.557619 498.650625 
L 202.201274 498.650625 
L 198.979184 498.650625 
L 195.622839 498.650625 
L 192.266495 498.650625 
L 189.044404 498.650625 
L 185.68806 498.650625 
L 182.465969 498.650625 
L 179.109625 498.650625 
L 175.887534 498.650625 
L 172.53119 498.650625 
L 169.309099 498.650625 
L 165.952755 498.650625 
L 162.59641 498.650625 
L 159.37432 498.650625 
L 156.017975 498.650625 
L 152.795885 498.650625 
L 149.43954 498.650625 
L 146.21745 498.650625 
L 142.861105 498.650625 
L 139.639015 498.650625 
L 136.28267 498.650625 
L 132.980028 498.650625 
L 129.677385 498.650625 
L 126.388167 498.650625 
L 123.085524 498.650625 
L 119.796307 498.650625 
L 116.493664 498.650625 
L 113.204446 498.650625 
L 109.901804 498.650625 
L 106.599161 498.650625 
L 103.309943 498.650625 
L 100.0073 498.650625 
L 96.718083 498.650625 
L 93.41544 498.650625 
L 90.112797 498.650625 
L 86.82358 498.650625 
L 83.520937 498.650625 
L 80.231719 498.650625 
L 76.929076 498.650625 
L 73.639859 498.650625 
L 70.337216 498.650625 
L 67.034573 498.650625 
L 63.745356 498.650625 
L 60.442713 498.650625 
L 57.153495 498.650625 
L 53.850852 498.650625 
z
" clip-path="url(#p06a9e74060)" style="fill: #1f77b4; fill-opacity: 0.25"/>
   </g>
   <g id="matplotlib.axis_1">
    <g id="xtick_1">
     <g id="line2d_1">
      <defs>
       <path id="mf56b28fbf9" d="M 0 0 
L 0 3.5 
" style="stroke: #000000; stroke-width: 0.8"/>
      </defs>
      <g>
       <use xlink:href="#mf56b28fbf9" x="134.403118" y="521.330625" style="stroke: #000000; stroke-width: 0.8"/>
      </g>
     </g>
     <g id="text_1">
      <!-- 0.0100 -->
      <g transform="translate(116.907805 535.929062) scale(0.1 -0.1)">
       <defs>
        <path id="DejaVuSans-30" d="M 2034 4250 
Q 1547 4250 1301 3770 
Q 1056 3291 1056 2328 
Q 1056 1369 1301 889 
Q 1547 409 2034 409 
Q 2525 409 2770 889 
Q 3016 1369 3016 2328 
Q 3016 3291 2770 3770 
Q 2525 4250 2034 4250 
z
M 2034 4750 
Q 2819 4750 3233 4129 
Q 3647 3509 3647 2328 
Q 3647 1150 3233 529 
Q 2819 -91 2034 -91 
Q 1250 -91 836 529 
Q 422 1150 422 2328 
Q 422 3509 836 4129 
Q 1250 4750 2034 4750 
z
" transform="scale(0.015625)"/>
        <path id="DejaVuSans-2e" d="M 684 794 
L 1344 794 
L 1344 0 
L 684 0 
L 684 794 
z
" transform="scale(0.015625)"/>
        <path id="DejaVuSans-31" d="M 794 531 
L 1825 531 
L 1825 4091 
L 703 3866 
L 703 4441 
L 1819 4666 
L 2450 4666 
L 2450 531 
L 3481 531 
L 3481 0 
L 794 0 
L 794 531 
z
" transform="scale(0.015625)"/>
       </defs>
       <use xlink:href="#DejaVuSans-30"/>
       <use xlink:href="#DejaVuSans-2e" x="63.623047"/>
       <use xlink:href="#DejaVuSans-30" x="95.410156"/>
       <use xlink:href="#DejaVuSans-31" x="159.033203"/>
       <use xlink:href="#DejaVuSans-30" x="222.65625"/>
       <use xlink:href="#DejaVuSans-30" x="286.279297"/>
      </g>
     </g>
    </g>
    <g id="xtick_2">
     <g id="line2d_2">
      <g>
       <use xlink:href="#mf56b28fbf9" x="268.656893" y="521.330625" style="stroke: #000000; stroke-width: 0.8"/>
      </g>
     </g>
     <g id="text_2">
      <!-- 0.0101 -->
      <g transform="translate(251.161581 535.929062) scale(0.1 -0.1)">
       <use xlink:href="#DejaVuSans-30"/>
       <use xlink:href="#DejaVuSans-2e" x="63.623047"/>
       <use xlink:href="#DejaVuSans-30" x="95.410156"/>
       <use xlink:href="#DejaVuSans-31" x="159.033203"/>
       <use xlink:href="#DejaVuSans-30" x="222.65625"/>
       <use xlink:href="#DejaVuSans-31" x="286.279297"/>
      </g>
     </g>
    </g>
    <g id="xtick_3">
     <g id="line2d_3">
      <g>
       <use xlink:href="#mf56b28fbf9" x="402.910669" y="521.330625" style="stroke: #000000; stroke-width: 0.8"/>
      </g>
     </g>
     <g id="text_3">
      <!-- 0.0102 -->
      <g transform="translate(385.415356 535.929062) scale(0.1 -0.1)">
       <defs>
        <path id="DejaVuSans-32" d="M 1228 531 
L 3431 531 
L 3431 0 
L 469 0 
L 469 531 
Q 828 903 1448 1529 
Q 2069 2156 2228 2338 
Q 2531 2678 2651 2914 
Q 2772 3150 2772 3378 
Q 2772 3750 2511 3984 
Q 2250 4219 1831 4219 
Q 1534 4219 1204 4116 
Q 875 4013 500 3803 
L 500 4441 
Q 881 4594 1212 4672 
Q 1544 4750 1819 4750 
Q 2544 4750 2975 4387 
Q 3406 4025 3406 3419 
Q 3406 3131 3298 2873 
Q 3191 2616 2906 2266 
Q 2828 2175 2409 1742 
Q 1991 1309 1228 531 
z
" transform="scale(0.015625)"/>
       </defs>
       <use xlink:href="#DejaVuSans-30"/>
       <use xlink:href="#DejaVuSans-2e" x="63.623047"/>
       <use xlink:href="#DejaVuSans-30" x="95.410156"/>
       <use xlink:href="#DejaVuSans-31" x="159.033203"/>
       <use xlink:href="#DejaVuSans-30" x="222.65625"/>
       <use xlink:href="#DejaVuSans-32" x="286.279297"/>
      </g>
     </g>
    </g>
    <g id="xtick_4">
     <g id="line2d_4">
      <g>
       <use xlink:href="#mf56b28fbf9" x="537.164444" y="521.330625" style="stroke: #000000; stroke-width: 0.8"/>
      </g>
     </g>
     <g id="text_4">
      <!-- 0.0103 -->
      <g transform="translate(519.669132 535.929062) scale(0.1 -0.1)">
       <defs>
        <path id="DejaVuSans-33" d="M 2597 2516 
Q 3050 2419 3304 2112 
Q 3559 1806 3559 1356 
Q 3559 666 3084 287 
Q 2609 -91 1734 -91 
Q 1441 -91 1130 -33 
Q 819 25 488 141 
L 488 750 
Q 750 597 1062 519 
Q 1375 441 1716 441 
Q 2309 441 2620 675 
Q 2931 909 2931 1356 
Q 2931 1769 2642 2001 
Q 2353 2234 1838 2234 
L 1294 2234 
L 1294 2753 
L 1863 2753 
Q 2328 2753 2575 2939 
Q 2822 3125 2822 3475 
Q 2822 3834 2567 4026 
Q 2313 4219 1838 4219 
Q 1578 4219 1281 4162 
Q 984 4106 628 3988 
L 628 4550 
Q 988 4650 1302 4700 
Q 1616 4750 1894 4750 
Q 2613 4750 3031 4423 
Q 3450 4097 3450 3541 
Q 3450 3153 3228 2886 
Q 3006 2619 2597 2516 
z
" transform="scale(0.015625)"/>
       </defs>
       <use xlink:href="#DejaVuSans-30"/>
       <use xlink:href="#DejaVuSans-2e" x="63.623047"/>
       <use xlink:href="#DejaVuSans-30" x="95.410156"/>
       <use xlink:href="#DejaVuSans-31" x="159.033203"/>
       <use xlink:href="#DejaVuSans-30" x="222.65625"/>
       <use xlink:href="#DejaVuSans-33" x="286.279297"/>
      </g>
     </g>
    </g>
    <g id="xtick_5">
     <g id="line2d_5">
      <g>
       <use xlink:href="#mf56b28fbf9" x="671.41822" y="521.330625" style="stroke: #000000; stroke-width: 0.8"/>
      </g>
     </g>
     <g id="text_5">
      <!-- 0.0104 -->
      <g transform="translate(653.922907 535.929062) scale(0.1 -0.1)">
       <defs>
        <path id="DejaVuSans-34" d="M 2419 4116 
L 825 1625 
L 2419 1625 
L 2419 4116 
z
M 2253 4666 
L 3047 4666 
L 3047 1625 
L 3713 1625 
L 3713 1100 
L 3047 1100 
L 3047 0 
L 2419 0 
L 2419 1100 
L 313 1100 
L 313 1709 
L 2253 4666 
z
" transform="scale(0.015625)"/>
       </defs>
       <use xlink:href="#DejaVuSans-30"/>
       <use xlink:href="#DejaVuSans-2e" x="63.623047"/>
       <use xlink:href="#DejaVuSans-30" x="95.410156"/>
       <use xlink:href="#DejaVuSans-31" x="159.033203"/>
       <use xlink:href="#DejaVuSans-30" x="222.65625"/>
       <use xlink:href="#DejaVuSans-34" x="286.279297"/>
      </g>
     </g>
    </g>
    <g id="text_6">
     <!-- t [s] -->
     <g transform="translate(373.522656 549.607188) scale(0.1 -0.1)">
      <defs>
       <path id="DejaVuSans-74" d="M 1172 4494 
L 1172 3500 
L 2356 3500 
L 2356 3053 
L 1172 3053 
L 1172 1153 
Q 1172 725 1289 603 
Q 1406 481 1766 481 
L 2356 481 
L 2356 0 
L 1766 0 
Q 1100 0 847 248 
Q 594 497 594 1153 
L 594 3053 
L 172 3053 
L 172 3500 
L 594 3500 
L 594 4494 
L 1172 4494 
z
" transform="scale(0.015625)"/>
       <path id="DejaVuSans-20" transform="scale(0.015625)"/>
       <path id="DejaVuSans-5b" d="M 550 4863 
L 1875 4863 
L 1875 4416 
L 1125 4416 
L 1125 -397 
L 1875 -397 
L 1875 -844 
L 550 -844 
L 550 4863 
z
" transform="scale(0.015625)"/>
       <path id="DejaVuSans-73" d="M 2834 3397 
L 2834 2853 
Q 2591 2978 2328 3040 
Q 2066 3103 1784 3103 
Q 1356 3103 1142 2972 
Q 928 2841 928 2578 
Q 928 2378 1081 2264 
Q 1234 2150 1697 2047 
L 1894 2003 
Q 2506 1872 2764 1633 
Q 3022 1394 3022 966 
Q 3022 478 2636 193 
Q 2250 -91 1575 -91 
Q 1294 -91 989 -36 
Q 684 19 347 128 
L 347 722 
Q 666 556 975 473 
Q 1284 391 1588 391 
Q 1994 391 2212 530 
Q 2431 669 2431 922 
Q 2431 1156 2273 1281 
Q 2116 1406 1581 1522 
L 1381 1569 
Q 847 1681 609 1914 
Q 372 2147 372 2553 
Q 372 3047 722 3315 
Q 1072 3584 1716 3584 
Q 2034 3584 2315 3537 
Q 2597 3491 2834 3397 
z
" transform="scale(0.015625)"/>
       <path id="DejaVuSans-5d" d="M 1947 4863 
L 1947 -844 
L 622 -844 
L 622 -397 
L 1369 -397 
L 1369 4416 
L 622 4416 
L 622 4863 
L 1947 4863 
z
" transform="scale(0.015625)"/>
      </defs>
      <use xlink:href="#DejaVuSans-74"/>
      <use xlink:href="#DejaVuSans-20" x="39.208984"/>
      <use xlink:href="#DejaVuSans-5b" x="70.996094"/>
      <use xlink:href="#DejaVuSans-73" x="110.009766"/>
      <use xlink:href="#DejaVuSans-5d" x="162.109375"/>
     </g>
    </g>
   </g>
   <g id="matplotlib.axis_2">
    <g id="ytick_1"/>
    <g id="ytick_2"/>
    <g id="ytick_3"/>
    <g id="ytick_4"/>
    <g id="ytick_5"/>
    <g id="ytick_6"/>
    <g id="ytick_7"/>
    <g id="text_7">
     <!-- runs -->
     <g transform="translate(14.798438 282.848281) rotate(-90) scale(0.1 -0.1)">
      <defs>
       <path id="DejaVuSans-72" d="M 2631 2963 
Q 2534 3019 2420 3045 
Q 2306 3072 2169 3072 
Q 1681 3072 1420 2755 
Q 1159 2438 1159 1844 
L 1159 0 
L 581 0 
L 581 3500 
L 1159 3500 
L 1159 2956 
Q 1341 3275 1631 3429 
Q 1922 3584 2338 3584 
Q 2397 3584 2469 3576 
Q 2541 3569 2628 3553 
L 2631 2963 
z
" transform="scale(0.015625)"/>
       <path id="DejaVuSans-75" d="M 544 1381 
L 544 3500 
L 1119 3500 
L 1119 1403 
Q 1119 906 1312 657 
Q 1506 409 1894 409 
Q 2359 409 2629 706 
Q 2900 1003 2900 1516 
L 2900 3500 
L 3475 3500 
L 3475 0 
L 2900 0 
L 2900 538 
Q 2691 219 2414 64 
Q 2138 -91 1772 -91 
Q 1169 -91 856 284 
Q 544 659 544 1381 
z
M 1991 3584 
L 1991 3584 
z
" transform="scale(0.015625)"/>
       <path id="DejaVuSans-6e" d="M 3513 2113 
L 3513 0 
L 2938 0 
L 2938 2094 
Q 2938 2591 2744 2837 
Q 2550 3084 2163 3084 
Q 1697 3084 1428 2787 
Q 1159 2491 1159 1978 
L 1159 0 
L 581 0 
L 581 3500 
L 1159 3500 
L 1159 2956 
Q 1366 3272 1645 3428 
Q 1925 3584 2291 3584 
Q 2894 3584 3203 3211 
Q 3513 2838 3513 2113 
z
" transform="scale(0.015625)"/>
      </defs>
      <use xlink:href="#DejaVuSans-72"/>
      <use xlink:href="#DejaVuSans-75" x="41.113281"/>
      <use xlink:href="#DejaVuSans-6e" x="104.492188"/>
      <use xlink:href="#DejaVuSans-73" x="167.871094"/>
     </g>
    </g>
   </g>
   <g id="line2d_6">
    <defs>
     <path id="m0a2e6a69bf" d="M 0 1 
C 0.265203 1 0.51958 0.894634 0.707107 0.707107 
C 0.894634 0.51958 1 0.265203 1 0 
C 1 -0.265203 0.894634 -0.51958 0.707107 -0.707107 
C 0.51958 -0.894634 0.265203 -1 0 -1 
C -0.265203 -1 -0.51958 -0.894634 -0.707107 -0.707107 
C -0.894634 -0.51958 -1 -0.265203 -1 0 
C -1 0.265203 -0.894634 0.51958 -0.707107 0.707107 
C -0.51958 0.894634 -0.265203 1 0 1 
z
" style="stroke: #1f77b4"/>
    </defs>
    <g clip-path="url(#p06a9e74060)">
     <use xlink:href="#m0a2e6a69bf" x="247.847558" y="453.290625" style="fill: #1f77b4; stroke: #1f77b4"/>
     <use xlink:href="#m0a2e6a69bf" x="304.234144" y="407.930767" style="fill: #1f77b4; stroke: #1f77b4"/>
     <use xlink:href="#m0a2e6a69bf" x="713.305398" y="362.570767" style="fill: #1f77b4; stroke: #1f77b4"/>
     <use xlink:href="#m0a2e6a69bf" x="666.182323" y="317.210625" style="fill: #1f77b4; stroke: #1f77b4"/>
     <use xlink:href="#m0a2e6a69bf" x="53.850852" y="271.850625" style="fill: #1f77b4; stroke: #1f77b4"/>
     <use xlink:href="#m0a2e6a69bf" x="223.547625" y="226.490625" style="fill: #1f77b4; stroke: #1f77b4"/>
     <use xlink:href="#m0a2e6a69bf" x="214.14986" y="181.130625" style="fill: #1f77b4; stroke: #1f77b4"/>
     <use xlink:href="#m0a2e6a69bf" x="146.351704" y="135.770625" style="fill: #1f77b4; stroke: #1f77b4"/>
     <use xlink:href="#m0a2e6a69bf" x="437.81665" y="90.410625" style="fill: #1f77b4; stroke: #1f77b4"/>
     <use xlink:href="#m0a2e6a69bf" x="230.663075" y="45.050625" style="fill: #1f77b4; stroke: #1f77b4"/>
    </g>
   </g>
   <g id="line2d_7">
    <path d="M 323.700941 521.330625 
L 323.700941 22.370625 
" clip-path="url(#p06a9e74060)" style="fill: none; stroke: #1f77b4; stroke-width: 1.5; stroke-linecap: square"/>
   </g>
   <g id="patch_3">
    <path d="M 20.878125 521.330625 
L 20.878125 22.370625 
" style="fill: none; stroke: #000000; stroke-width: 0.8; stroke-linejoin: miter; stroke-linecap: square"/>
   </g>
   <g id="patch_4">
    <path d="M 746.278125 521.330625 
L 746.278125 22.370625 
" style="fill: none; stroke: #000000; stroke-width: 0.8; stroke-linejoin: miter; stroke-linecap: square"/>
   </g>
   <g id="patch_5">
    <path d="M 20.878125 521.330625 
L 746.278125 521.330625 
" style="fill: none; stroke: #000000; stroke-width: 0.8; stroke-linejoin: miter; stroke-linecap: square"/>
   </g>
   <g id="patch_6">
    <path d="M 20.878125 22.370625 
L 746.278125 22.370625 
" style="fill: none; stroke: #000000; stroke-width: 0.8; stroke-linejoin: miter; stroke-linecap: square"/>
   </g>
   <g id="text_8">
    <!-- echo 7100 | python3 quicksort.py -->
    <g transform="translate(282.45375 16.370625) scale(0.12 -0.12)">
     <defs>
      <path id="DejaVuSans-65" d="M 3597 1894 
L 3597 1613 
L 953 1613 
Q 991 1019 1311 708 
Q 1631 397 2203 397 
Q 2534 397 2845 478 
Q 3156 559 3463 722 
L 3463 178 
Q 3153 47 2828 -22 
Q 2503 -91 2169 -91 
Q 1331 -91 842 396 
Q 353 884 353 1716 
Q 353 2575 817 3079 
Q 1281 3584 2069 3584 
Q 2775 3584 3186 3129 
Q 3597 2675 3597 1894 
z
M 3022 2063 
Q 3016 2534 2758 2815 
Q 2500 3097 2075 3097 
Q 1594 3097 1305 2825 
Q 1016 2553 972 2059 
L 3022 2063 
z
" transform="scale(0.015625)"/>
      <path id="DejaVuSans-63" d="M 3122 3366 
L 3122 2828 
Q 2878 2963 2633 3030 
Q 2388 3097 2138 3097 
Q 1578 3097 1268 2742 
Q 959 2388 959 1747 
Q 959 1106 1268 751 
Q 1578 397 2138 397 
Q 2388 397 2633 464 
Q 2878 531 3122 666 
L 3122 134 
Q 2881 22 2623 -34 
Q 2366 -91 2075 -91 
Q 1284 -91 818 406 
Q 353 903 353 1747 
Q 353 2603 823 3093 
Q 1294 3584 2113 3584 
Q 2378 3584 2631 3529 
Q 2884 3475 3122 3366 
z
" transform="scale(0.015625)"/>
      <path id="DejaVuSans-68" d="M 3513 2113 
L 3513 0 
L 2938 0 
L 2938 2094 
Q 2938 2591 2744 2837 
Q 2550 3084 2163 3084 
Q 1697 3084 1428 2787 
Q 1159 2491 1159 1978 
L 1159 0 
L 581 0 
L 581 4863 
L 1159 4863 
L 1159 2956 
Q 1366 3272 1645 3428 
Q 1925 3584 2291 3584 
Q 2894 3584 3203 3211 
Q 3513 2838 3513 2113 
z
" transform="scale(0.015625)"/>
      <path id="DejaVuSans-6f" d="M 1959 3097 
Q 1497 3097 1228 2736 
Q 959 2375 959 1747 
Q 959 1119 1226 758 
Q 1494 397 1959 397 
Q 2419 397 2687 759 
Q 2956 1122 2956 1747 
Q 2956 2369 2687 2733 
Q 2419 3097 1959 3097 
z
M 1959 3584 
Q 2709 3584 3137 3096 
Q 3566 2609 3566 1747 
Q 3566 888 3137 398 
Q 2709 -91 1959 -91 
Q 1206 -91 779 398 
Q 353 888 353 1747 
Q 353 2609 779 3096 
Q 1206 3584 1959 3584 
z
" transform="scale(0.015625)"/>
      <path id="DejaVuSans-37" d="M 525 4666 
L 3525 4666 
L 3525 4397 
L 1831 0 
L 1172 0 
L 2766 4134 
L 525 4134 
L 525 4666 
z
" transform="scale(0.015625)"/>
      <path id="DejaVuSans-7c" d="M 1344 4891 
L 1344 -1509 
L 813 -1509 
L 813 4891 
L 1344 4891 
z
" transform="scale(0.015625)"/>
      <path id="DejaVuSans-70" d="M 1159 525 
L 1159 -1331 
L 581 -1331 
L 581 3500 
L 1159 3500 
L 1159 2969 
Q 1341 3281 1617 3432 
Q 1894 3584 2278 3584 
Q 2916 3584 3314 3078 
Q 3713 2572 3713 1747 
Q 3713 922 3314 415 
Q 2916 -91 2278 -91 
Q 1894 -91 1617 61 
Q 1341 213 1159 525 
z
M 3116 1747 
Q 3116 2381 2855 2742 
Q 2594 3103 2138 3103 
Q 1681 3103 1420 2742 
Q 1159 2381 1159 1747 
Q 1159 1113 1420 752 
Q 1681 391 2138 391 
Q 2594 391 2855 752 
Q 3116 1113 3116 1747 
z
" transform="scale(0.015625)"/>
      <path id="DejaVuSans-79" d="M 2059 -325 
Q 1816 -950 1584 -1140 
Q 1353 -1331 966 -1331 
L 506 -1331 
L 506 -850 
L 844 -850 
Q 1081 -850 1212 -737 
Q 1344 -625 1503 -206 
L 1606 56 
L 191 3500 
L 800 3500 
L 1894 763 
L 2988 3500 
L 3597 3500 
L 2059 -325 
z
" transform="scale(0.015625)"/>
      <path id="DejaVuSans-71" d="M 947 1747 
Q 947 1113 1208 752 
Q 1469 391 1925 391 
Q 2381 391 2643 752 
Q 2906 1113 2906 1747 
Q 2906 2381 2643 2742 
Q 2381 3103 1925 3103 
Q 1469 3103 1208 2742 
Q 947 2381 947 1747 
z
M 2906 525 
Q 2725 213 2448 61 
Q 2172 -91 1784 -91 
Q 1150 -91 751 415 
Q 353 922 353 1747 
Q 353 2572 751 3078 
Q 1150 3584 1784 3584 
Q 2172 3584 2448 3432 
Q 2725 3281 2906 2969 
L 2906 3500 
L 3481 3500 
L 3481 -1331 
L 2906 -1331 
L 2906 525 
z
" transform="scale(0.015625)"/>
      <path id="DejaVuSans-69" d="M 603 3500 
L 1178 3500 
L 1178 0 
L 603 0 
L 603 3500 
z
M 603 4863 
L 1178 4863 
L 1178 4134 
L 603 4134 
L 603 4863 
z
" transform="scale(0.015625)"/>
      <path id="DejaVuSans-6b" d="M 581 4863 
L 1159 4863 
L 1159 1991 
L 2875 3500 
L 3609 3500 
L 1753 1863 
L 3688 0 
L 2938 0 
L 1159 1709 
L 1159 0 
L 581 0 
L 581 4863 
z
" transform="scale(0.015625)"/>
     </defs>
     <use xlink:href="#DejaVuSans-65"/>
     <use xlink:href="#DejaVuSans-63" x="61.523438"/>
     <use xlink:href="#DejaVuSans-68" x="116.503906"/>
     <use xlink:href="#DejaVuSans-6f" x="179.882812"/>
     <use xlink:href="#DejaVuSans-20" x="241.064453"/>
     <use xlink:href="#DejaVuSans-37" x="272.851562"/>
     <use xlink:href="#DejaVuSans-31" x="336.474609"/>
     <use xlink:href="#DejaVuSans-30" x="400.097656"/>
     <use xlink:href="#DejaVuSans-30" x="463.720703"/>
     <use xlink:href="#DejaVuSans-20" x="527.34375"/>
     <use xlink:href="#DejaVuSans-7c" x="559.130859"/>
     <use xlink:href="#DejaVuSans-20" x="592.822266"/>
     <use xlink:href="#DejaVuSans-70" x="624.609375"/>
     <use xlink:href="#DejaVuSans-79" x="688.085938"/>
     <use xlink:href="#DejaVuSans-74" x="747.265625"/>
     <use xlink:href="#DejaVuSans-68" x="786.474609"/>
     <use xlink:href="#DejaVuSans-6f" x="849.853516"/>
     <use xlink:href="#DejaVuSans-6e" x="911.035156"/>
     <use xlink:href="#DejaVuSans-33" x="974.414062"/>
     <use xlink:href="#DejaVuSans-20" x="1038.037109"/>
     <use xlink:href="#DejaVuSans-71" x="1069.824219"/>
     <use xlink:href="#DejaVuSans-75" x="1133.300781"/>
     <use xlink:href="#DejaVuSans-69" x="1196.679688"/>
     <use xlink:href="#DejaVuSans-63" x="1224.462891"/>
     <use xlink:href="#DejaVuSans-6b" x="1279.443359"/>
     <use xlink:href="#DejaVuSans-73" x="1337.353516"/>
     <use xlink:href="#DejaVuSans-6f" x="1389.453125"/>
     <use xlink:href="#DejaVuSans-72" x="1450.634766"/>
     <use xlink:href="#DejaVuSans-74" x="1491.748047"/>
     <use xlink:href="#DejaVuSans-2e" x="1530.957031"/>
     <use xlink:href="#DejaVuSans-70" x="1562.744141"/>
     <use xlink:href="#DejaVuSans-79" x="1626.220703"/>
    </g>
   </g>
  </g>
 </g>
 <defs>
  <clipPath id="p06a9e74060">
   <rect x="20.878125" y="22.370625" width="725.4" height="498.96"/>
  </clipPath>
 </defs>
</svg>
