<?xml version="1.0" encoding="utf-8" standalone="no"?>
<!DOCTYPE svg PUBLIC "-//W3C//DTD SVG 1.1//EN"
  "http://www.w3.org/Graphics/SVG/1.1/DTD/svg11.dtd">
<svg xmlns:xlink="http://www.w3.org/1999/xlink" width="460.8pt" height="345.6pt" viewBox="0 0 460.8 345.6" xmlns="http://www.w3.org/2000/svg" version="1.1">
 <metadata>
  <rdf:RDF xmlns:dc="http://purl.org/dc/elements/1.1/" xmlns:cc="http://creativecommons.org/ns#" xmlns:rdf="http://www.w3.org/1999/02/22-rdf-syntax-ns#">
   <cc:Work>
    <dc:type rdf:resource="http://purl.org/dc/dcmitype/StillImage"/>
    <dc:date>2024-01-14T13:49:56.004072</dc:date>
    <dc:format>image/svg+xml</dc:format>
    <dc:creator>
     <cc:Agent>
      <dc:title>Matplotlib v3.7.0, https://matplotlib.org/</dc:title>
     </cc:Agent>
    </dc:creator>
   </cc:Work>
  </rdf:RDF>
 </metadata>
 <defs>
  <style type="text/css">*{stroke-linejoin: round; stroke-linecap: butt}</style>
 </defs>
 <g id="figure_1">
  <g id="patch_1">
   <path d="M 0 345.6 
L 460.8 345.6 
L 460.8 0 
L 0 0 
z
" style="fill: #ffffff"/>
  </g>
  <g id="axes_1">
   <g id="patch_2">
    <path d="M 57.6 307.584 
L 414.72 307.584 
L 414.72 41.472 
L 57.6 41.472 
z
" style="fill: #ffffff"/>
   </g>
   <g id="PolyCollection_1">
    <path d="M 85.276345 295.488 
L 79.476191 295.488 
L 79.331167 295.485562 
L 79.181557 295.483123 
L 79.027323 295.480685 
L 78.86846 295.478247 
L 78.704999 295.475809 
L 78.537011 295.47337 
L 78.364616 295.470932 
L 78.187988 295.468494 
L 78.007356 295.466055 
L 77.823009 295.463617 
L 77.635303 295.461179 
L 77.444655 295.458741 
L 77.251548 295.456302 
L 77.056533 295.453864 
L 76.860221 295.451426 
L 76.663283 295.448988 
L 76.466446 295.446549 
L 76.27049 295.444111 
L 76.076234 295.441673 
L 75.884537 295.439234 
L 75.696286 295.436796 
L 75.512386 295.434358 
L 75.333754 295.43192 
L 75.161307 295.429481 
L 74.995953 295.427043 
L 74.83858 295.424605 
L 74.69005 295.422166 
L 74.551184 295.419728 
L 74.42276 295.41729 
L 74.305499 295.414852 
L 74.20006 295.412413 
L 74.107034 295.409975 
L 74.026938 295.407537 
L 73.960208 295.405098 
L 73.907198 295.40266 
L 73.868177 295.400222 
L 73.843323 295.397784 
L 73.832727 295.395345 
L 73.836393 295.392907 
L 73.854233 295.390469 
L 73.886077 295.38803 
L 73.931669 295.385592 
L 73.990673 295.383154 
L 74.062678 295.380716 
L 74.1472 295.378277 
L 74.243688 295.375839 
L 74.351533 295.373401 
L 74.470068 295.370963 
L 74.598579 295.368524 
L 74.736309 295.366086 
L 74.882466 295.363648 
L 75.036231 295.361209 
L 75.19676 295.358771 
L 75.363197 295.356333 
L 75.534678 295.353895 
L 75.710335 295.351456 
L 75.889308 295.349018 
L 76.070746 295.34658 
L 76.253815 295.344141 
L 76.437705 295.341703 
L 76.621633 295.339265 
L 76.804846 295.336827 
L 76.986631 295.334388 
L 77.166312 295.33195 
L 77.34326 295.329512 
L 77.516889 295.327073 
L 77.686667 295.324635 
L 77.852108 295.322197 
L 78.012783 295.319759 
L 78.168316 295.31732 
L 78.318385 295.314882 
L 78.462726 295.312444 
L 78.60113 295.310005 
L 78.733442 295.307567 
L 78.859564 295.305129 
L 78.979453 295.302691 
L 79.093116 295.300252 
L 79.200614 295.297814 
L 79.302056 295.295376 
L 79.3976 295.292938 
L 79.487445 295.290499 
L 79.571835 295.288061 
L 79.65105 295.285623 
L 79.725404 295.283184 
L 79.795241 295.280746 
L 79.860932 295.278308 
L 79.922866 295.27587 
L 79.98145 295.273431 
L 80.037099 295.270993 
L 80.090233 295.268555 
L 80.141274 295.266116 
L 80.190635 295.263678 
L 80.238719 295.26124 
L 80.28591 295.258802 
L 80.332572 295.256363 
L 80.379043 295.253925 
L 80.425628 295.251487 
L 80.472601 295.249048 
L 80.520196 295.24661 
L 84.23234 295.24661 
L 84.23234 295.24661 
L 84.279935 295.249048 
L 84.326908 295.251487 
L 84.373493 295.253925 
L 84.419964 295.256363 
L 84.466626 295.258802 
L 84.513817 295.26124 
L 84.561901 295.263678 
L 84.611262 295.266116 
L 84.662303 295.268555 
L 84.715437 295.270993 
L 84.771086 295.273431 
L 84.82967 295.27587 
L 84.891604 295.278308 
L 84.957294 295.280746 
L 85.027132 295.283184 
L 85.101486 295.285623 
L 85.180701 295.288061 
L 85.265091 295.290499 
L 85.354936 295.292938 
L 85.45048 295.295376 
L 85.551922 295.297814 
L 85.65942 295.300252 
L 85.773083 295.302691 
L 85.892972 295.305129 
L 86.019094 295.307567 
L 86.151406 295.310005 
L 86.28981 295.312444 
L 86.434151 295.314882 
L 86.58422 295.31732 
L 86.739753 295.319759 
L 86.900428 295.322197 
L 87.065869 295.324635 
L 87.235647 295.327073 
L 87.409276 295.329512 
L 87.586224 295.33195 
L 87.765905 295.334388 
L 87.94769 295.336827 
L 88.130903 295.339265 
L 88.314831 295.341703 
L 88.498721 295.344141 
L 88.68179 295.34658 
L 88.863228 295.349018 
L 89.042201 295.351456 
L 89.217858 295.353895 
L 89.389339 295.356333 
L 89.555776 295.358771 
L 89.716305 295.361209 
L 89.87007 295.363648 
L 90.016227 295.366086 
L 90.153957 295.368524 
L 90.282468 295.370963 
L 90.401003 295.373401 
L 90.508848 295.375839 
L 90.605336 295.378277 
L 90.689858 295.380716 
L 90.761862 295.383154 
L 90.820867 295.385592 
L 90.866458 295.38803 
L 90.898302 295.390469 
L 90.916143 295.392907 
L 90.919809 295.395345 
L 90.909213 295.397784 
L 90.884359 295.400222 
L 90.845337 295.40266 
L 90.792328 295.405098 
L 90.725598 295.407537 
L 90.645502 295.409975 
L 90.552476 295.412413 
L 90.447037 295.414852 
L 90.329776 295.41729 
L 90.201351 295.419728 
L 90.062486 295.422166 
L 89.913956 295.424605 
L 89.756583 295.427043 
L 89.591229 295.429481 
L 89.418782 295.43192 
L 89.24015 295.434358 
L 89.05625 295.436796 
L 88.867999 295.439234 
L 88.676302 295.441673 
L 88.482046 295.444111 
L 88.286089 295.446549 
L 88.089253 295.448988 
L 87.892315 295.451426 
L 87.696003 295.453864 
L 87.500988 295.456302 
L 87.307881 295.458741 
L 87.117233 295.461179 
L 86.929526 295.463617 
L 86.74518 295.466055 
L 86.564548 295.468494 
L 86.38792 295.470932 
L 86.215525 295.47337 
L 86.047537 295.475809 
L 85.884075 295.478247 
L 85.725213 295.480685 
L 85.570979 295.483123 
L 85.421368 295.485562 
L 85.276345 295.488 
z
" clip-path="url(#p19bfffba46)" style="fill: #1f77b4; fill-opacity: 0.3"/>
   </g>
   <g id="PolyCollection_2">
    <path d="M 121.773852 274.563659 
L 111.327009 274.563659 
L 111.106073 274.536903 
L 110.887366 274.510148 
L 110.67175 274.483393 
L 110.460082 274.456637 
L 110.2532 274.429882 
L 110.051919 274.403127 
L 109.857019 274.376371 
L 109.669245 274.349616 
L 109.489292 274.32286 
L 109.317806 274.296105 
L 109.155373 274.26935 
L 109.00252 274.242594 
L 108.859706 274.215839 
L 108.727326 274.189084 
L 108.605704 274.162328 
L 108.495099 274.135573 
L 108.395699 274.108818 
L 108.307629 274.082062 
L 108.230952 274.055307 
L 108.165672 274.028552 
L 108.111738 274.001796 
L 108.069052 273.975041 
L 108.037472 273.948286 
L 108.016821 273.92153 
L 108.00689 273.894775 
L 108.007444 273.86802 
L 108.018232 273.841264 
L 108.038987 273.814509 
L 108.069437 273.787754 
L 108.109304 273.760998 
L 108.158313 273.734243 
L 108.216188 273.707488 
L 108.282665 273.680732 
L 108.357481 273.653977 
L 108.440383 273.627222 
L 108.531127 273.600466 
L 108.629471 273.573711 
L 108.735181 273.546956 
L 108.848023 273.5202 
L 108.96776 273.493445 
L 109.094153 273.46669 
L 109.226953 273.439934 
L 109.365899 273.413179 
L 109.510716 273.386423 
L 109.661106 273.359668 
L 109.816751 273.332913 
L 109.977306 273.306157 
L 110.142398 273.279402 
L 110.311624 273.252647 
L 110.484549 273.225891 
L 110.660708 273.199136 
L 110.839605 273.172381 
L 111.020713 273.145625 
L 111.203477 273.11887 
L 111.387318 273.092115 
L 111.571635 273.065359 
L 111.755808 273.038604 
L 111.939206 273.011849 
L 112.121189 272.985093 
L 112.301118 272.958338 
L 112.478356 272.931583 
L 112.652276 272.904827 
L 112.822271 272.878072 
L 112.987754 272.851317 
L 113.14817 272.824561 
L 113.302999 272.797806 
L 113.451763 272.771051 
L 113.594031 272.744295 
L 113.729424 272.71754 
L 113.857618 272.690785 
L 113.97835 272.664029 
L 114.09142 272.637274 
L 114.196692 272.610519 
L 114.294099 272.583763 
L 114.383638 272.557008 
L 114.465373 272.530253 
L 114.539437 272.503497 
L 114.606022 272.476742 
L 114.665384 272.449986 
L 114.717838 272.423231 
L 114.763747 272.396476 
L 114.803528 272.36972 
L 114.837638 272.342965 
L 114.866571 272.31621 
L 114.890852 272.289454 
L 114.91103 272.262699 
L 114.92767 272.235944 
L 114.941347 272.209188 
L 114.952638 272.182433 
L 114.962116 272.155678 
L 114.97034 272.128922 
L 114.977854 272.102167 
L 114.985174 272.075412 
L 114.992788 272.048656 
L 115.001148 272.021901 
L 115.010664 271.995146 
L 115.021704 271.96839 
L 115.034587 271.941635 
L 115.049585 271.91488 
L 118.051276 271.91488 
L 118.051276 271.91488 
L 118.066274 271.941635 
L 118.079158 271.96839 
L 118.090198 271.995146 
L 118.099714 272.021901 
L 118.108073 272.048656 
L 118.115687 272.075412 
L 118.123008 272.102167 
L 118.130521 272.128922 
L 118.138746 272.155678 
L 118.148223 272.182433 
L 118.159514 272.209188 
L 118.173191 272.235944 
L 118.189831 272.262699 
L 118.210009 272.289454 
L 118.234291 272.31621 
L 118.263223 272.342965 
L 118.297333 272.36972 
L 118.337114 272.396476 
L 118.383024 272.423231 
L 118.435477 272.449986 
L 118.494839 272.476742 
L 118.561425 272.503497 
L 118.635488 272.530253 
L 118.717224 272.557008 
L 118.806762 272.583763 
L 118.904169 272.610519 
L 119.009441 272.637274 
L 119.122512 272.664029 
L 119.243244 272.690785 
L 119.371437 272.71754 
L 119.50683 272.744295 
L 119.649098 272.771051 
L 119.797862 272.797806 
L 119.952691 272.824561 
L 120.113107 272.851317 
L 120.27859 272.878072 
L 120.448585 272.904827 
L 120.622505 272.931583 
L 120.799743 272.958338 
L 120.979672 272.985093 
L 121.161656 273.011849 
L 121.345054 273.038604 
L 121.529226 273.065359 
L 121.713543 273.092115 
L 121.897384 273.11887 
L 122.080148 273.145625 
L 122.261256 273.172381 
L 122.440153 273.199136 
L 122.616312 273.225891 
L 122.789238 273.252647 
L 122.958463 273.279402 
L 123.123555 273.306157 
L 123.28411 273.332913 
L 123.439755 273.359668 
L 123.590145 273.386423 
L 123.734962 273.413179 
L 123.873908 273.439934 
L 124.006709 273.46669 
L 124.133101 273.493445 
L 124.252839 273.5202 
L 124.36568 273.546956 
L 124.47139 273.573711 
L 124.569734 273.600466 
L 124.660478 273.627222 
L 124.743381 273.653977 
L 124.818197 273.680732 
L 124.884673 273.707488 
L 124.942549 273.734243 
L 124.991557 273.760998 
L 125.031424 273.787754 
L 125.061874 273.814509 
L 125.082629 273.841264 
L 125.093417 273.86802 
L 125.093971 273.894775 
L 125.08404 273.92153 
L 125.063389 273.948286 
L 125.03181 273.975041 
L 124.989124 274.001796 
L 124.93519 274.028552 
L 124.869909 274.055307 
L 124.793232 274.082062 
L 124.705163 274.108818 
L 124.605763 274.135573 
L 124.495157 274.162328 
L 124.373536 274.189084 
L 124.241155 274.215839 
L 124.098341 274.242594 
L 123.945488 274.26935 
L 123.783055 274.296105 
L 123.611569 274.32286 
L 123.431616 274.349616 
L 123.243842 274.376371 
L 123.048943 274.403127 
L 122.847661 274.429882 
L 122.640779 274.456637 
L 122.429111 274.483393 
L 122.213496 274.510148 
L 121.994788 274.536903 
L 121.773852 274.563659 
z
" clip-path="url(#p19bfffba46)" style="fill: #1f77b4; fill-opacity: 0.3"/>
   </g>
   <g id="PolyCollection_3">
    <path d="M 156.675787 251.65946 
L 144.7734 251.65946 
L 144.666536 251.622716 
L 144.566205 251.585971 
L 144.472657 251.549227 
L 144.386098 251.512483 
L 144.306694 251.475738 
L 144.234564 251.438994 
L 144.169781 251.40225 
L 144.11237 251.365506 
L 144.062308 251.328761 
L 144.019523 251.292017 
L 143.983894 251.255273 
L 143.955254 251.218528 
L 143.933385 251.181784 
L 143.918028 251.14504 
L 143.908876 251.108295 
L 143.905583 251.071551 
L 143.907763 251.034807 
L 143.914995 250.998062 
L 143.926823 250.961318 
L 143.942763 250.924574 
L 143.962307 250.88783 
L 143.984923 250.851085 
L 144.010065 250.814341 
L 144.037171 250.777597 
L 144.065674 250.740852 
L 144.095002 250.704108 
L 144.124583 250.667364 
L 144.153854 250.630619 
L 144.182258 250.593875 
L 144.209256 250.557131 
L 144.234327 250.520386 
L 144.256972 250.483642 
L 144.276719 250.446898 
L 144.293128 250.410153 
L 144.305791 250.373409 
L 144.314339 250.336665 
L 144.318439 250.299921 
L 144.317805 250.263176 
L 144.312191 250.226432 
L 144.3014 250.189688 
L 144.285278 250.152943 
L 144.263724 250.116199 
L 144.236682 250.079455 
L 144.204146 250.04271 
L 144.166159 250.005966 
L 144.122812 249.969222 
L 144.074243 249.932477 
L 144.020636 249.895733 
L 143.962222 249.858989 
L 143.89927 249.822245 
L 143.832095 249.7855 
L 143.761048 249.748756 
L 143.686516 249.712012 
L 143.608919 249.675267 
L 143.528709 249.638523 
L 143.446364 249.601779 
L 143.362387 249.565034 
L 143.2773 249.52829 
L 143.191644 249.491546 
L 143.105974 249.454801 
L 143.020854 249.418057 
L 142.936856 249.381313 
L 142.854555 249.344569 
L 142.774526 249.307824 
L 142.697339 249.27108 
L 142.623557 249.234336 
L 142.553734 249.197591 
L 142.488409 249.160847 
L 142.428103 249.124103 
L 142.373318 249.087358 
L 142.324533 249.050614 
L 142.282201 249.01387 
L 142.246746 248.977125 
L 142.218561 248.940381 
L 142.198007 248.903637 
L 142.185408 248.866892 
L 142.181053 248.830148 
L 142.185191 248.793404 
L 142.198031 248.75666 
L 142.219743 248.719915 
L 142.250452 248.683171 
L 142.290244 248.646427 
L 142.339158 248.609682 
L 142.397195 248.572938 
L 142.464308 248.536194 
L 142.540412 248.499449 
L 142.625379 248.462705 
L 142.719039 248.425961 
L 142.821185 248.389216 
L 142.93157 248.352472 
L 143.049914 248.315728 
L 143.175899 248.278984 
L 143.309176 248.242239 
L 143.449369 248.205495 
L 143.596071 248.168751 
L 143.748851 248.132006 
L 143.907259 248.095262 
L 144.070822 248.058518 
L 144.239054 248.021773 
L 157.210132 248.021773 
L 157.210132 248.021773 
L 157.378364 248.058518 
L 157.541928 248.095262 
L 157.700335 248.132006 
L 157.853116 248.168751 
L 157.999818 248.205495 
L 158.14001 248.242239 
L 158.273288 248.278984 
L 158.399273 248.315728 
L 158.517616 248.352472 
L 158.628002 248.389216 
L 158.730148 248.425961 
L 158.823808 248.462705 
L 158.908775 248.499449 
L 158.984879 248.536194 
L 159.051992 248.572938 
L 159.110028 248.609682 
L 159.158943 248.646427 
L 159.198734 248.683171 
L 159.229444 248.719915 
L 159.251156 248.75666 
L 159.263996 248.793404 
L 159.268134 248.830148 
L 159.263779 248.866892 
L 159.25118 248.903637 
L 159.230625 248.940381 
L 159.202441 248.977125 
L 159.166985 249.01387 
L 159.124653 249.050614 
L 159.075868 249.087358 
L 159.021084 249.124103 
L 158.960778 249.160847 
L 158.895453 249.197591 
L 158.82563 249.234336 
L 158.751848 249.27108 
L 158.674661 249.307824 
L 158.594631 249.344569 
L 158.51233 249.381313 
L 158.428332 249.418057 
L 158.343213 249.454801 
L 158.257542 249.491546 
L 158.171887 249.52829 
L 158.0868 249.565034 
L 158.002822 249.601779 
L 157.920477 249.638523 
L 157.840267 249.675267 
L 157.762671 249.712012 
L 157.688138 249.748756 
L 157.617091 249.7855 
L 157.549916 249.822245 
L 157.486965 249.858989 
L 157.42855 249.895733 
L 157.374944 249.932477 
L 157.326375 249.969222 
L 157.283028 250.005966 
L 157.245041 250.04271 
L 157.212505 250.079455 
L 157.185463 250.116199 
L 157.163908 250.152943 
L 157.147787 250.189688 
L 157.136995 250.226432 
L 157.131382 250.263176 
L 157.130747 250.299921 
L 157.134848 250.336665 
L 157.143395 250.373409 
L 157.156058 250.410153 
L 157.172467 250.446898 
L 157.192215 250.483642 
L 157.214859 250.520386 
L 157.23993 250.557131 
L 157.266928 250.593875 
L 157.295333 250.630619 
L 157.324603 250.667364 
L 157.354185 250.704108 
L 157.383512 250.740852 
L 157.412015 250.777597 
L 157.439122 250.814341 
L 157.464263 250.851085 
L 157.48688 250.88783 
L 157.506423 250.924574 
L 157.522364 250.961318 
L 157.534192 250.998062 
L 157.541423 251.034807 
L 157.543603 251.071551 
L 157.540311 251.108295 
L 157.531159 251.14504 
L 157.515801 251.181784 
L 157.493933 251.218528 
L 157.465292 251.255273 
L 157.429664 251.292017 
L 157.386879 251.328761 
L 157.336817 251.365506 
L 157.279406 251.40225 
L 157.214623 251.438994 
L 157.142492 251.475738 
L 157.063088 251.512483 
L 156.97653 251.549227 
L 156.882981 251.585971 
L 156.782651 251.622716 
L 156.675787 251.65946 
z
" clip-path="url(#p19bfffba46)" style="fill: #1f77b4; fill-opacity: 0.3"/>
   </g>
   <g id="PolyCollection_4">
    <path d="M 189.08851 227.018958 
L 180.709002 227.018958 
L 180.480584 226.975692 
L 180.248609 226.932426 
L 180.013899 226.88916 
L 179.777351 226.845893 
L 179.539938 226.802627 
L 179.302701 226.759361 
L 179.066745 226.716095 
L 178.833228 226.672829 
L 178.603349 226.629563 
L 178.378343 226.586297 
L 178.159463 226.543031 
L 177.947969 226.499764 
L 177.745112 226.456498 
L 177.552117 226.413232 
L 177.370173 226.369966 
L 177.200412 226.3267 
L 177.043897 226.283434 
L 176.901604 226.240168 
L 176.774413 226.196901 
L 176.663092 226.153635 
L 176.568288 226.110369 
L 176.490517 226.067103 
L 176.430158 226.023837 
L 176.38745 225.980571 
L 176.362486 225.937305 
L 176.355215 225.894039 
L 176.365448 225.850772 
L 176.392858 225.807506 
L 176.436988 225.76424 
L 176.497264 225.720974 
L 176.573002 225.677708 
L 176.663422 225.634442 
L 176.767661 225.591176 
L 176.884791 225.547909 
L 177.013828 225.504643 
L 177.153751 225.461377 
L 177.303517 225.418111 
L 177.462074 225.374845 
L 177.628377 225.331579 
L 177.801394 225.288313 
L 177.980125 225.245047 
L 178.163607 225.20178 
L 178.35092 225.158514 
L 178.541197 225.115248 
L 178.733627 225.071982 
L 178.927454 225.028716 
L 179.121981 224.98545 
L 179.316571 224.942184 
L 179.510638 224.898917 
L 179.70365 224.855651 
L 179.895124 224.812385 
L 180.084618 224.769119 
L 180.271728 224.725853 
L 180.456082 224.682587 
L 180.637334 224.639321 
L 180.815161 224.596055 
L 180.989255 224.552788 
L 181.159322 224.509522 
L 181.325076 224.466256 
L 181.48624 224.42299 
L 181.642542 224.379724 
L 181.793714 224.336458 
L 181.939496 224.293192 
L 182.079632 224.249925 
L 182.213879 224.206659 
L 182.342002 224.163393 
L 182.463786 224.120127 
L 182.579032 224.076861 
L 182.687567 224.033595 
L 182.789247 223.990329 
L 182.883957 223.947063 
L 182.971624 223.903796 
L 183.052211 223.86053 
L 183.125729 223.817264 
L 183.192234 223.773998 
L 183.251832 223.730732 
L 183.304677 223.687466 
L 183.350978 223.6442 
L 183.39099 223.600933 
L 183.425021 223.557667 
L 183.453422 223.514401 
L 183.47659 223.471135 
L 183.494961 223.427869 
L 183.509006 223.384603 
L 183.519224 223.341337 
L 183.526138 223.298071 
L 183.530288 223.254804 
L 183.532225 223.211538 
L 183.532501 223.168272 
L 183.531664 223.125006 
L 183.530251 223.08174 
L 183.528782 223.038474 
L 183.52775 222.995208 
L 183.527617 222.951941 
L 183.528812 222.908675 
L 183.531719 222.865409 
L 183.536677 222.822143 
L 183.543978 222.778877 
L 183.553861 222.735611 
L 186.243651 222.735611 
L 186.243651 222.735611 
L 186.253534 222.778877 
L 186.260835 222.822143 
L 186.265793 222.865409 
L 186.2687 222.908675 
L 186.269895 222.951941 
L 186.269762 222.995208 
L 186.26873 223.038474 
L 186.26726 223.08174 
L 186.265848 223.125006 
L 186.265011 223.168272 
L 186.265287 223.211538 
L 186.267223 223.254804 
L 186.271374 223.298071 
L 186.278288 223.341337 
L 186.288506 223.384603 
L 186.302551 223.427869 
L 186.320922 223.471135 
L 186.34409 223.514401 
L 186.372491 223.557667 
L 186.406522 223.600933 
L 186.446534 223.6442 
L 186.492835 223.687466 
L 186.54568 223.730732 
L 186.605278 223.773998 
L 186.671783 223.817264 
L 186.745301 223.86053 
L 186.825888 223.903796 
L 186.913555 223.947063 
L 187.008265 223.990329 
L 187.109945 224.033595 
L 187.21848 224.076861 
L 187.333726 224.120127 
L 187.45551 224.163393 
L 187.583633 224.206659 
L 187.71788 224.249925 
L 187.858016 224.293192 
L 188.003798 224.336458 
L 188.15497 224.379724 
L 188.311272 224.42299 
L 188.472436 224.466256 
L 188.63819 224.509522 
L 188.808257 224.552788 
L 188.982351 224.596055 
L 189.160178 224.639321 
L 189.34143 224.682587 
L 189.525784 224.725853 
L 189.712894 224.769119 
L 189.902388 224.812385 
L 190.093862 224.855651 
L 190.286874 224.898917 
L 190.480941 224.942184 
L 190.675531 224.98545 
L 190.870058 225.028716 
L 191.063885 225.071982 
L 191.256315 225.115248 
L 191.446592 225.158514 
L 191.633905 225.20178 
L 191.817387 225.245047 
L 191.996118 225.288313 
L 192.169135 225.331579 
L 192.335438 225.374845 
L 192.493995 225.418111 
L 192.643761 225.461377 
L 192.783684 225.504643 
L 192.912721 225.547909 
L 193.029851 225.591176 
L 193.13409 225.634442 
L 193.22451 225.677708 
L 193.300248 225.720974 
L 193.360524 225.76424 
L 193.404654 225.807506 
L 193.432064 225.850772 
L 193.442297 225.894039 
L 193.435026 225.937305 
L 193.410062 225.980571 
L 193.367354 226.023837 
L 193.306995 226.067103 
L 193.229224 226.110369 
L 193.13442 226.153635 
L 193.023099 226.196901 
L 192.895908 226.240168 
L 192.753615 226.283434 
L 192.5971 226.3267 
L 192.427339 226.369966 
L 192.245395 226.413232 
L 192.0524 226.456498 
L 191.849543 226.499764 
L 191.638048 226.543031 
L 191.419169 226.586297 
L 191.194163 226.629563 
L 190.964284 226.672829 
L 190.730767 226.716095 
L 190.494811 226.759361 
L 190.257574 226.802627 
L 190.020161 226.845893 
L 189.783613 226.88916 
L 189.548903 226.932426 
L 189.316928 226.975692 
L 189.08851 227.018958 
z
" clip-path="url(#p19bfffba46)" style="fill: #1f77b4; fill-opacity: 0.3"/>
   </g>
   <g id="PolyCollection_5">
    <path d="M 222.729944 202.897427 
L 215.415893 202.897427 
L 215.241748 202.837145 
L 215.063942 202.776862 
L 214.882755 202.716579 
L 214.698509 202.656296 
L 214.511571 202.596013 
L 214.322353 202.535731 
L 214.131313 202.475448 
L 213.938954 202.415165 
L 213.745822 202.354882 
L 213.552503 202.294599 
L 213.359623 202.234317 
L 213.167839 202.174034 
L 212.977836 202.113751 
L 212.790325 202.053468 
L 212.606028 201.993185 
L 212.425679 201.932903 
L 212.250012 201.87262 
L 212.079752 201.812337 
L 211.915611 201.752054 
L 211.758275 201.691771 
L 211.608398 201.631489 
L 211.466596 201.571206 
L 211.333435 201.510923 
L 211.209429 201.45064 
L 211.09503 201.390357 
L 210.990627 201.330075 
L 210.896538 201.269792 
L 210.81301 201.209509 
L 210.740215 201.149226 
L 210.678254 201.088943 
L 210.62715 201.02866 
L 210.586858 200.968378 
L 210.557263 200.908095 
L 210.538183 200.847812 
L 210.529378 200.787529 
L 210.530552 200.727246 
L 210.541362 200.666964 
L 210.561421 200.606681 
L 210.590306 200.546398 
L 210.627569 200.486115 
L 210.672737 200.425832 
L 210.725324 200.36555 
L 210.784835 200.305267 
L 210.850773 200.244984 
L 210.922643 200.184701 
L 210.999957 200.124418 
L 211.082242 200.064136 
L 211.169035 200.003853 
L 211.259895 199.94357 
L 211.354398 199.883287 
L 211.452141 199.823004 
L 211.552743 199.762722 
L 211.655845 199.702439 
L 211.761107 199.642156 
L 211.868212 199.581873 
L 211.97686 199.52159 
L 212.086771 199.461308 
L 212.197681 199.401025 
L 212.309342 199.340742 
L 212.421519 199.280459 
L 212.533993 199.220176 
L 212.646555 199.159893 
L 212.75901 199.099611 
L 212.871171 199.039328 
L 212.982867 198.979045 
L 213.093935 198.918762 
L 213.204225 198.858479 
L 213.3136 198.798197 
L 213.421936 198.737914 
L 213.529123 198.677631 
L 213.635068 198.617348 
L 213.739692 198.557065 
L 213.842935 198.496783 
L 213.944754 198.4365 
L 214.045126 198.376217 
L 214.144046 198.315934 
L 214.241528 198.255651 
L 214.337608 198.195369 
L 214.432338 198.135086 
L 214.52579 198.074803 
L 214.618051 198.01452 
L 214.709226 197.954237 
L 214.79943 197.893955 
L 214.888794 197.833672 
L 214.977454 197.773389 
L 215.065554 197.713106 
L 215.153243 197.652823 
L 215.240669 197.592541 
L 215.327978 197.532258 
L 215.415312 197.471975 
L 215.502802 197.411692 
L 215.590572 197.351409 
L 215.678728 197.291126 
L 215.767364 197.230844 
L 215.856554 197.170561 
L 215.94635 197.110278 
L 216.036787 197.049995 
L 216.127873 196.989712 
L 216.219596 196.92943 
L 221.926241 196.92943 
L 221.926241 196.92943 
L 222.017964 196.989712 
L 222.10905 197.049995 
L 222.199487 197.110278 
L 222.289283 197.170561 
L 222.378473 197.230844 
L 222.467109 197.291126 
L 222.555266 197.351409 
L 222.643035 197.411692 
L 222.730526 197.471975 
L 222.817859 197.532258 
L 222.905168 197.592541 
L 222.992594 197.652823 
L 223.080283 197.713106 
L 223.168384 197.773389 
L 223.257044 197.833672 
L 223.346407 197.893955 
L 223.436612 197.954237 
L 223.527786 198.01452 
L 223.620047 198.074803 
L 223.713499 198.135086 
L 223.808229 198.195369 
L 223.904309 198.255651 
L 224.001792 198.315934 
L 224.100711 198.376217 
L 224.201083 198.4365 
L 224.302902 198.496783 
L 224.406145 198.557065 
L 224.510769 198.617348 
L 224.616714 198.677631 
L 224.723902 198.737914 
L 224.832238 198.798197 
L 224.941613 198.858479 
L 225.051903 198.918762 
L 225.16297 198.979045 
L 225.274666 199.039328 
L 225.386828 199.099611 
L 225.499282 199.159893 
L 225.611844 199.220176 
L 225.724318 199.280459 
L 225.836496 199.340742 
L 225.948156 199.401025 
L 226.059066 199.461308 
L 226.168977 199.52159 
L 226.277625 199.581873 
L 226.38473 199.642156 
L 226.489992 199.702439 
L 226.593094 199.762722 
L 226.693696 199.823004 
L 226.791439 199.883287 
L 226.885942 199.94357 
L 226.976802 200.003853 
L 227.063595 200.064136 
L 227.14588 200.124418 
L 227.223195 200.184701 
L 227.295064 200.244984 
L 227.361002 200.305267 
L 227.420513 200.36555 
L 227.4731 200.425832 
L 227.518268 200.486115 
L 227.555531 200.546398 
L 227.584417 200.606681 
L 227.604475 200.666964 
L 227.615285 200.727246 
L 227.616459 200.787529 
L 227.607654 200.847812 
L 227.588574 200.908095 
L 227.558979 200.968378 
L 227.518687 201.02866 
L 227.467584 201.088943 
L 227.405622 201.149226 
L 227.332828 201.209509 
L 227.249299 201.269792 
L 227.15521 201.330075 
L 227.050807 201.390357 
L 226.936408 201.45064 
L 226.812402 201.510923 
L 226.679241 201.571206 
L 226.537439 201.631489 
L 226.387563 201.691771 
L 226.230226 201.752054 
L 226.066085 201.812337 
L 225.895826 201.87262 
L 225.720158 201.932903 
L 225.539809 201.993185 
L 225.355513 202.053468 
L 225.168001 202.113751 
L 224.977999 202.174034 
L 224.786214 202.234317 
L 224.593334 202.294599 
L 224.400015 202.354882 
L 224.206883 202.415165 
L 224.014524 202.475448 
L 223.823484 202.535731 
L 223.634267 202.596013 
L 223.447328 202.656296 
L 223.263082 202.716579 
L 223.081895 202.776862 
L 222.904089 202.837145 
L 222.729944 202.897427 
z
" clip-path="url(#p19bfffba46)" style="fill: #1f77b4; fill-opacity: 0.3"/>
   </g>
   <g id="PolyCollection_6">
    <path d="M 257.789529 177.659253 
L 248.704634 177.659253 
L 248.530089 177.549263 
L 248.354849 177.439274 
L 248.179297 177.329284 
L 248.003829 177.219294 
L 247.828865 177.109305 
L 247.654837 176.999315 
L 247.482197 176.889325 
L 247.311406 176.779336 
L 247.14294 176.669346 
L 246.977281 176.559356 
L 246.814919 176.449367 
L 246.656344 176.339377 
L 246.502045 176.229387 
L 246.352505 176.119398 
L 246.208196 176.009408 
L 246.069574 175.899418 
L 245.937074 175.789429 
L 245.811107 175.679439 
L 245.69205 175.569449 
L 245.580245 175.45946 
L 245.475991 175.34947 
L 245.379541 175.23948 
L 245.291096 175.12949 
L 245.210801 175.019501 
L 245.138742 174.909511 
L 245.074941 174.799521 
L 245.019355 174.689532 
L 244.971875 174.579542 
L 244.932324 174.469552 
L 244.900458 174.359563 
L 244.875965 174.249573 
L 244.85847 174.139583 
L 244.847537 174.029594 
L 244.842673 173.919604 
L 244.843333 173.809614 
L 244.848926 173.699625 
L 244.858823 173.589635 
L 244.872363 173.479645 
L 244.888861 173.369656 
L 244.907622 173.259666 
L 244.927941 173.149676 
L 244.949124 173.039687 
L 244.970486 172.929697 
L 244.991371 172.819707 
L 245.011155 172.709717 
L 245.029257 172.599728 
L 245.045149 172.489738 
L 245.058363 172.379748 
L 245.068499 172.269759 
L 245.075228 172.159769 
L 245.078302 172.049779 
L 245.077558 171.93979 
L 245.072914 171.8298 
L 245.064382 171.71981 
L 245.052058 171.609821 
L 245.036128 171.499831 
L 245.016863 171.389841 
L 244.994614 171.279852 
L 244.969812 171.169862 
L 244.942958 171.059872 
L 244.914621 170.949883 
L 244.885423 170.839893 
L 244.856038 170.729903 
L 244.827178 170.619914 
L 244.799586 170.509924 
L 244.774026 170.399934 
L 244.751271 170.289944 
L 244.732093 170.179955 
L 244.717255 170.069965 
L 244.7075 169.959975 
L 244.703541 169.849986 
L 244.706053 169.739996 
L 244.715665 169.630006 
L 244.732952 169.520017 
L 244.758428 169.410027 
L 244.792542 169.300037 
L 244.835673 169.190048 
L 244.888125 169.080058 
L 244.950125 168.970068 
L 245.021823 168.860079 
L 245.103291 168.750089 
L 245.194522 168.640099 
L 245.295432 168.53011 
L 245.405864 168.42012 
L 245.52559 168.31013 
L 245.654314 168.20014 
L 245.791678 168.090151 
L 245.937267 167.980161 
L 246.090613 167.870171 
L 246.251203 167.760182 
L 246.418483 167.650192 
L 246.591866 167.540202 
L 246.770737 167.430213 
L 246.954459 167.320223 
L 247.142383 167.210233 
L 247.333847 167.100244 
L 247.528188 166.990254 
L 247.724745 166.880264 
L 247.922863 166.770275 
L 258.571299 166.770275 
L 258.571299 166.770275 
L 258.769418 166.880264 
L 258.965975 166.990254 
L 259.160316 167.100244 
L 259.35178 167.210233 
L 259.539703 167.320223 
L 259.723426 167.430213 
L 259.902296 167.540202 
L 260.075679 167.650192 
L 260.242959 167.760182 
L 260.403549 167.870171 
L 260.556896 167.980161 
L 260.702485 168.090151 
L 260.839849 168.20014 
L 260.968573 168.31013 
L 261.088299 168.42012 
L 261.198731 168.53011 
L 261.299641 168.640099 
L 261.390871 168.750089 
L 261.472339 168.860079 
L 261.544038 168.970068 
L 261.606038 169.080058 
L 261.65849 169.190048 
L 261.70162 169.300037 
L 261.735735 169.410027 
L 261.761211 169.520017 
L 261.778498 169.630006 
L 261.78811 169.739996 
L 261.790622 169.849986 
L 261.786663 169.959975 
L 261.776908 170.069965 
L 261.76207 170.179955 
L 261.742892 170.289944 
L 261.720136 170.399934 
L 261.694576 170.509924 
L 261.666985 170.619914 
L 261.638125 170.729903 
L 261.60874 170.839893 
L 261.579542 170.949883 
L 261.551204 171.059872 
L 261.524351 171.169862 
L 261.499549 171.279852 
L 261.4773 171.389841 
L 261.458034 171.499831 
L 261.442104 171.609821 
L 261.429781 171.71981 
L 261.421248 171.8298 
L 261.416605 171.93979 
L 261.41586 172.049779 
L 261.418935 172.159769 
L 261.425664 172.269759 
L 261.435799 172.379748 
L 261.449014 172.489738 
L 261.464906 172.599728 
L 261.483008 172.709717 
L 261.502792 172.819707 
L 261.523677 172.929697 
L 261.545039 173.039687 
L 261.566221 173.149676 
L 261.586541 173.259666 
L 261.605301 173.369656 
L 261.6218 173.479645 
L 261.63534 173.589635 
L 261.645236 173.699625 
L 261.65083 173.809614 
L 261.65149 173.919604 
L 261.646626 174.029594 
L 261.635693 174.139583 
L 261.618198 174.249573 
L 261.593705 174.359563 
L 261.561838 174.469552 
L 261.522288 174.579542 
L 261.474808 174.689532 
L 261.419222 174.799521 
L 261.355421 174.909511 
L 261.283361 175.019501 
L 261.203066 175.12949 
L 261.114621 175.23948 
L 261.018172 175.34947 
L 260.913918 175.45946 
L 260.802113 175.569449 
L 260.683056 175.679439 
L 260.557088 175.789429 
L 260.424589 175.899418 
L 260.285967 176.009408 
L 260.141657 176.119398 
L 259.992117 176.229387 
L 259.837819 176.339377 
L 259.679244 176.449367 
L 259.516881 176.559356 
L 259.351223 176.669346 
L 259.182757 176.779336 
L 259.011966 176.889325 
L 258.839325 176.999315 
L 258.665298 177.109305 
L 258.490333 177.219294 
L 258.314866 177.329284 
L 258.139313 177.439274 
L 257.964074 177.549263 
L 257.789529 177.659253 
z
" clip-path="url(#p19bfffba46)" style="fill: #1f77b4; fill-opacity: 0.3"/>
   </g>
   <g id="PolyCollection_7">
    <path d="M 290.733739 150.886152 
L 284.108749 150.886152 
L 283.985696 150.772073 
L 283.862561 150.657994 
L 283.739322 150.543915 
L 283.615919 150.429836 
L 283.492258 150.315756 
L 283.368214 150.201677 
L 283.243636 150.087598 
L 283.118348 149.973519 
L 282.992157 149.85944 
L 282.864862 149.745361 
L 282.736254 149.631282 
L 282.606131 149.517203 
L 282.474302 149.403124 
L 282.340599 149.289045 
L 282.204881 149.174966 
L 282.067045 149.060887 
L 281.927034 148.946808 
L 281.784846 148.832729 
L 281.640539 148.71865 
L 281.494238 148.604571 
L 281.346141 148.490492 
L 281.196522 148.376413 
L 281.045733 148.262334 
L 280.894207 148.148255 
L 280.74246 148.034176 
L 280.591081 147.920097 
L 280.440739 147.806018 
L 280.292167 147.691938 
L 280.146166 147.577859 
L 280.003589 147.46378 
L 279.865336 147.349701 
L 279.732338 147.235622 
L 279.605553 147.121543 
L 279.485947 147.007464 
L 279.374483 146.893385 
L 279.272106 146.779306 
L 279.179733 146.665227 
L 279.098234 146.551148 
L 279.028425 146.437069 
L 278.971048 146.32299 
L 278.926768 146.208911 
L 278.896155 146.094832 
L 278.87968 145.980753 
L 278.877703 145.866674 
L 278.890472 145.752595 
L 278.918114 145.638516 
L 278.960635 145.524437 
L 279.017918 145.410358 
L 279.089727 145.296279 
L 279.175706 145.1822 
L 279.275386 145.068121 
L 279.388189 144.954041 
L 279.513437 144.839962 
L 279.650363 144.725883 
L 279.798116 144.611804 
L 279.955774 144.497725 
L 280.122357 144.383646 
L 280.296835 144.269567 
L 280.478144 144.155488 
L 280.665197 144.041409 
L 280.856892 143.92733 
L 281.052132 143.813251 
L 281.249829 143.699172 
L 281.448915 143.585093 
L 281.648359 143.471014 
L 281.847169 143.356935 
L 282.044402 143.242856 
L 282.239173 143.128777 
L 282.430662 143.014698 
L 282.618117 142.900619 
L 282.800861 142.78654 
L 282.978293 142.672461 
L 283.149894 142.558382 
L 283.315224 142.444303 
L 283.473928 142.330224 
L 283.625731 142.216144 
L 283.770441 142.102065 
L 283.907945 141.987986 
L 284.038205 141.873907 
L 284.161259 141.759828 
L 284.277213 141.645749 
L 284.386238 141.53167 
L 284.488566 141.417591 
L 284.584482 141.303512 
L 284.674319 141.189433 
L 284.758452 141.075354 
L 284.837292 140.961275 
L 284.911276 140.847196 
L 284.980862 140.733117 
L 285.046524 140.619038 
L 285.10874 140.504959 
L 285.167989 140.39088 
L 285.224742 140.276801 
L 285.279457 140.162722 
L 285.332572 140.048643 
L 285.384501 139.934564 
L 285.435625 139.820485 
L 285.486296 139.706406 
L 285.536822 139.592327 
L 289.305666 139.592327 
L 289.305666 139.592327 
L 289.356192 139.706406 
L 289.406863 139.820485 
L 289.457987 139.934564 
L 289.509916 140.048643 
L 289.563031 140.162722 
L 289.617746 140.276801 
L 289.674499 140.39088 
L 289.733748 140.504959 
L 289.795964 140.619038 
L 289.861626 140.733117 
L 289.931212 140.847196 
L 290.005196 140.961275 
L 290.084036 141.075354 
L 290.168169 141.189433 
L 290.258006 141.303512 
L 290.353922 141.417591 
L 290.45625 141.53167 
L 290.565275 141.645749 
L 290.681229 141.759828 
L 290.804283 141.873907 
L 290.934543 141.987986 
L 291.072047 142.102065 
L 291.216757 142.216144 
L 291.36856 142.330224 
L 291.527264 142.444303 
L 291.692594 142.558382 
L 291.864195 142.672461 
L 292.041627 142.78654 
L 292.224371 142.900619 
L 292.411826 143.014698 
L 292.603315 143.128777 
L 292.798086 143.242856 
L 292.995319 143.356935 
L 293.194129 143.471014 
L 293.393573 143.585093 
L 293.592659 143.699172 
L 293.790356 143.813251 
L 293.985596 143.92733 
L 294.177291 144.041409 
L 294.364344 144.155488 
L 294.545653 144.269567 
L 294.720131 144.383646 
L 294.886714 144.497725 
L 295.044372 144.611804 
L 295.192125 144.725883 
L 295.329051 144.839962 
L 295.454299 144.954041 
L 295.567102 145.068121 
L 295.666782 145.1822 
L 295.752761 145.296279 
L 295.82457 145.410358 
L 295.881853 145.524437 
L 295.924374 145.638516 
L 295.952016 145.752595 
L 295.964785 145.866674 
L 295.962808 145.980753 
L 295.946333 146.094832 
L 295.91572 146.208911 
L 295.87144 146.32299 
L 295.814063 146.437069 
L 295.744254 146.551148 
L 295.662755 146.665227 
L 295.570382 146.779306 
L 295.468005 146.893385 
L 295.356541 147.007464 
L 295.236935 147.121543 
L 295.11015 147.235622 
L 294.977153 147.349701 
L 294.838899 147.46378 
L 294.696322 147.577859 
L 294.550321 147.691938 
L 294.401749 147.806018 
L 294.251407 147.920097 
L 294.100028 148.034176 
L 293.948281 148.148255 
L 293.796756 148.262334 
L 293.645966 148.376413 
L 293.496347 148.490492 
L 293.34825 148.604571 
L 293.201949 148.71865 
L 293.057642 148.832729 
L 292.915454 148.946808 
L 292.775443 149.060887 
L 292.637607 149.174966 
L 292.501889 149.289045 
L 292.368186 149.403124 
L 292.236357 149.517203 
L 292.106235 149.631282 
L 291.977626 149.745361 
L 291.850331 149.85944 
L 291.72414 149.973519 
L 291.598852 150.087598 
L 291.474274 150.201677 
L 291.35023 150.315756 
L 291.226569 150.429836 
L 291.103166 150.543915 
L 290.979927 150.657994 
L 290.856792 150.772073 
L 290.733739 150.886152 
z
" clip-path="url(#p19bfffba46)" style="fill: #1f77b4; fill-opacity: 0.3"/>
   </g>
   <g id="PolyCollection_8">
    <path d="M 326.59723 123.871713 
L 316.593583 123.871713 
L 316.387865 123.785131 
L 316.182028 123.698549 
L 315.976735 123.611968 
L 315.772681 123.525386 
L 315.570585 123.438805 
L 315.371184 123.352223 
L 315.175237 123.265641 
L 314.983509 123.17906 
L 314.796776 123.092478 
L 314.615814 123.005897 
L 314.441395 122.919315 
L 314.27428 122.832733 
L 314.115215 122.746152 
L 313.964922 122.65957 
L 313.824095 122.572988 
L 313.693394 122.486407 
L 313.573435 122.399825 
L 313.46479 122.313244 
L 313.367976 122.226662 
L 313.283455 122.14008 
L 313.211624 122.053499 
L 313.152813 121.966917 
L 313.107283 121.880335 
L 313.075221 121.793754 
L 313.056738 121.707172 
L 313.051866 121.620591 
L 313.060561 121.534009 
L 313.082699 121.447427 
L 313.118079 121.360846 
L 313.166423 121.274264 
L 313.22738 121.187682 
L 313.300527 121.101101 
L 313.385374 121.014519 
L 313.481368 120.927938 
L 313.587898 120.841356 
L 313.7043 120.754774 
L 313.829862 120.668193 
L 313.963833 120.581611 
L 314.105426 120.495029 
L 314.253826 120.408448 
L 314.408198 120.321866 
L 314.567692 120.235285 
L 314.73145 120.148703 
L 314.898611 120.062121 
L 315.068321 119.97554 
L 315.239737 119.888958 
L 315.41203 119.802377 
L 315.584397 119.715795 
L 315.756059 119.629213 
L 315.926268 119.542632 
L 316.094313 119.45605 
L 316.259523 119.369468 
L 316.421267 119.282887 
L 316.57896 119.196305 
L 316.732065 119.109724 
L 316.880094 119.023142 
L 317.022609 118.93656 
L 317.159225 118.849979 
L 317.289608 118.763397 
L 317.413478 118.676815 
L 317.530608 118.590234 
L 317.640825 118.503652 
L 317.744005 118.417071 
L 317.840079 118.330489 
L 317.929027 118.243907 
L 318.01088 118.157326 
L 318.085716 118.070744 
L 318.15366 117.984162 
L 318.214884 117.897581 
L 318.269598 117.810999 
L 318.318059 117.724418 
L 318.360557 117.637836 
L 318.397421 117.551254 
L 318.429013 117.464673 
L 318.455724 117.378091 
L 318.477972 117.291509 
L 318.496199 117.204928 
L 318.510867 117.118346 
L 318.522454 117.031765 
L 318.531451 116.945183 
L 318.538356 116.858601 
L 318.543674 116.77202 
L 318.547906 116.685438 
L 318.551553 116.598857 
L 318.555105 116.512275 
L 318.55904 116.425693 
L 318.56382 116.339112 
L 318.569885 116.25253 
L 318.577652 116.165948 
L 318.58751 116.079367 
L 318.599815 115.992785 
L 318.614892 115.906204 
L 318.633026 115.819622 
L 318.654466 115.73304 
L 318.679418 115.646459 
L 318.708047 115.559877 
L 318.740476 115.473295 
L 318.776783 115.386714 
L 318.817005 115.300132 
L 324.373809 115.300132 
L 324.373809 115.300132 
L 324.414031 115.386714 
L 324.450338 115.473295 
L 324.482766 115.559877 
L 324.511396 115.646459 
L 324.536347 115.73304 
L 324.557787 115.819622 
L 324.575922 115.906204 
L 324.590998 115.992785 
L 324.603304 116.079367 
L 324.613161 116.165948 
L 324.620929 116.25253 
L 324.626994 116.339112 
L 324.631773 116.425693 
L 324.635708 116.512275 
L 324.63926 116.598857 
L 324.642907 116.685438 
L 324.64714 116.77202 
L 324.652457 116.858601 
L 324.659363 116.945183 
L 324.668359 117.031765 
L 324.679947 117.118346 
L 324.694615 117.204928 
L 324.712842 117.291509 
L 324.73509 117.378091 
L 324.7618 117.464673 
L 324.793392 117.551254 
L 324.830257 117.637836 
L 324.872755 117.724418 
L 324.921215 117.810999 
L 324.97593 117.897581 
L 325.037153 117.984162 
L 325.105097 118.070744 
L 325.179934 118.157326 
L 325.261786 118.243907 
L 325.350735 118.330489 
L 325.446809 118.417071 
L 325.549989 118.503652 
L 325.660205 118.590234 
L 325.777335 118.676815 
L 325.901206 118.763397 
L 326.031589 118.849979 
L 326.168204 118.93656 
L 326.31072 119.023142 
L 326.458748 119.109724 
L 326.611854 119.196305 
L 326.769547 119.282887 
L 326.931291 119.369468 
L 327.0965 119.45605 
L 327.264546 119.542632 
L 327.434755 119.629213 
L 327.606416 119.715795 
L 327.778783 119.802377 
L 327.951077 119.888958 
L 328.122492 119.97554 
L 328.292203 120.062121 
L 328.459364 120.148703 
L 328.623121 120.235285 
L 328.782615 120.321866 
L 328.936987 120.408448 
L 329.085388 120.495029 
L 329.226981 120.581611 
L 329.360951 120.668193 
L 329.486514 120.754774 
L 329.602915 120.841356 
L 329.709445 120.927938 
L 329.805439 121.014519 
L 329.890286 121.101101 
L 329.963433 121.187682 
L 330.02439 121.274264 
L 330.072734 121.360846 
L 330.108114 121.447427 
L 330.130252 121.534009 
L 330.138947 121.620591 
L 330.134076 121.707172 
L 330.115592 121.793754 
L 330.08353 121.880335 
L 330.038 121.966917 
L 329.97919 122.053499 
L 329.907358 122.14008 
L 329.822837 122.226662 
L 329.726024 122.313244 
L 329.617378 122.399825 
L 329.49742 122.486407 
L 329.366718 122.572988 
L 329.225891 122.65957 
L 329.075598 122.746152 
L 328.916533 122.832733 
L 328.749418 122.919315 
L 328.574999 123.005897 
L 328.394037 123.092478 
L 328.207304 123.17906 
L 328.015577 123.265641 
L 327.819629 123.352223 
L 327.620229 123.438805 
L 327.418132 123.525386 
L 327.214078 123.611968 
L 327.008786 123.698549 
L 326.802948 123.785131 
L 326.59723 123.871713 
z
" clip-path="url(#p19bfffba46)" style="fill: #1f77b4; fill-opacity: 0.3"/>
   </g>
   <g id="PolyCollection_9">
    <path d="M 362.698019 98.69095 
L 348.84112 98.69095 
L 348.68609 98.522916 
L 348.538138 98.354882 
L 348.397575 98.186848 
L 348.264663 98.018814 
L 348.139615 97.85078 
L 348.022599 97.682746 
L 347.913736 97.514712 
L 347.813103 97.346679 
L 347.720735 97.178645 
L 347.636625 97.010611 
L 347.560732 96.842577 
L 347.492983 96.674543 
L 347.433272 96.506509 
L 347.381472 96.338475 
L 347.337431 96.170441 
L 347.300982 96.002407 
L 347.271945 95.834373 
L 347.250128 95.666339 
L 347.235336 95.498305 
L 347.227369 95.330272 
L 347.226029 95.162238 
L 347.231119 94.994204 
L 347.242449 94.82617 
L 347.259833 94.658136 
L 347.283093 94.490102 
L 347.31206 94.322068 
L 347.346571 94.154034 
L 347.386474 93.986 
L 347.431619 93.817966 
L 347.481866 93.649932 
L 347.537078 93.481898 
L 347.59712 93.313865 
L 347.661858 93.145831 
L 347.731156 92.977797 
L 347.804876 92.809763 
L 347.882874 92.641729 
L 347.964996 92.473695 
L 348.051082 92.305661 
L 348.140958 92.137627 
L 348.23444 91.969593 
L 348.331327 91.801559 
L 348.431408 91.633525 
L 348.534452 91.465491 
L 348.640217 91.297458 
L 348.748445 91.129424 
L 348.858863 90.96139 
L 348.971189 90.793356 
L 349.085125 90.625322 
L 349.200367 90.457288 
L 349.316603 90.289254 
L 349.433515 90.12122 
L 349.550785 89.953186 
L 349.668092 89.785152 
L 349.785121 89.617118 
L 349.901562 89.449084 
L 350.017115 89.281051 
L 350.13149 89.113017 
L 350.244414 88.944983 
L 350.355628 88.776949 
L 350.464896 88.608915 
L 350.572001 88.440881 
L 350.676751 88.272847 
L 350.778979 88.104813 
L 350.878544 87.936779 
L 350.975333 87.768745 
L 351.06926 87.600711 
L 351.16027 87.432677 
L 351.248332 87.264644 
L 351.333448 87.09661 
L 351.415643 86.928576 
L 351.49497 86.760542 
L 351.571507 86.592508 
L 351.645356 86.424474 
L 351.71664 86.25644 
L 351.785502 86.088406 
L 351.852102 85.920372 
L 351.916617 85.752338 
L 351.979234 85.584304 
L 352.040155 85.41627 
L 352.099586 85.248237 
L 352.157741 85.080203 
L 352.214836 84.912169 
L 352.271088 84.744135 
L 352.326712 84.576101 
L 352.381919 84.408067 
L 352.436914 84.240033 
L 352.491892 84.071999 
L 352.547041 83.903965 
L 352.602532 83.735931 
L 352.658526 83.567897 
L 352.715168 83.399863 
L 352.772586 83.23183 
L 352.830889 83.063796 
L 352.890171 82.895762 
L 352.950504 82.727728 
L 353.011942 82.559694 
L 353.074519 82.39166 
L 353.138251 82.223626 
L 353.203131 82.055592 
L 358.336008 82.055592 
L 358.336008 82.055592 
L 358.400888 82.223626 
L 358.464619 82.39166 
L 358.527197 82.559694 
L 358.588635 82.727728 
L 358.648968 82.895762 
L 358.70825 83.063796 
L 358.766553 83.23183 
L 358.82397 83.399863 
L 358.880612 83.567897 
L 358.936607 83.735931 
L 358.992098 83.903965 
L 359.047246 84.071999 
L 359.102225 84.240033 
L 359.15722 84.408067 
L 359.212427 84.576101 
L 359.268051 84.744135 
L 359.324303 84.912169 
L 359.381398 85.080203 
L 359.439553 85.248237 
L 359.498984 85.41627 
L 359.559904 85.584304 
L 359.622522 85.752338 
L 359.687036 85.920372 
L 359.753637 86.088406 
L 359.822498 86.25644 
L 359.893782 86.424474 
L 359.967632 86.592508 
L 360.044169 86.760542 
L 360.123496 86.928576 
L 360.205691 87.09661 
L 360.290806 87.264644 
L 360.378869 87.432677 
L 360.469878 87.600711 
L 360.563806 87.768745 
L 360.660595 87.936779 
L 360.76016 88.104813 
L 360.862387 88.272847 
L 360.967138 88.440881 
L 361.074243 88.608915 
L 361.18351 88.776949 
L 361.294725 88.944983 
L 361.407648 89.113017 
L 361.522024 89.281051 
L 361.637576 89.449084 
L 361.754018 89.617118 
L 361.871047 89.785152 
L 361.988354 89.953186 
L 362.105623 90.12122 
L 362.222536 90.289254 
L 362.338772 90.457288 
L 362.454014 90.625322 
L 362.56795 90.793356 
L 362.680275 90.96139 
L 362.790694 91.129424 
L 362.898922 91.297458 
L 363.004687 91.465491 
L 363.107731 91.633525 
L 363.207811 91.801559 
L 363.304699 91.969593 
L 363.398181 92.137627 
L 363.488057 92.305661 
L 363.574143 92.473695 
L 363.656265 92.641729 
L 363.734262 92.809763 
L 363.807983 92.977797 
L 363.877281 93.145831 
L 363.942019 93.313865 
L 364.002061 93.481898 
L 364.057273 93.649932 
L 364.10752 93.817966 
L 364.152665 93.986 
L 364.192567 94.154034 
L 364.227079 94.322068 
L 364.256046 94.490102 
L 364.279306 94.658136 
L 364.29669 94.82617 
L 364.30802 94.994204 
L 364.31311 95.162238 
L 364.31177 95.330272 
L 364.303803 95.498305 
L 364.289011 95.666339 
L 364.267194 95.834373 
L 364.238157 96.002407 
L 364.201708 96.170441 
L 364.157667 96.338475 
L 364.105866 96.506509 
L 364.046156 96.674543 
L 363.978406 96.842577 
L 363.902514 97.010611 
L 363.818404 97.178645 
L 363.726035 97.346679 
L 363.625402 97.514712 
L 363.51654 97.682746 
L 363.399524 97.85078 
L 363.274476 98.018814 
L 363.141563 98.186848 
L 363.001001 98.354882 
L 362.853049 98.522916 
L 362.698019 98.69095 
z
" clip-path="url(#p19bfffba46)" style="fill: #1f77b4; fill-opacity: 0.3"/>
   </g>
   <g id="PolyCollection_10">
    <path d="M 395.688518 73.058225 
L 384.198946 73.058225 
L 384.010497 72.861354 
L 383.824986 72.664483 
L 383.64297 72.467612 
L 383.465001 72.270741 
L 383.291618 72.07387 
L 383.123347 71.876999 
L 382.960697 71.680128 
L 382.804159 71.483257 
L 382.654196 71.286386 
L 382.511249 71.089515 
L 382.375728 70.892644 
L 382.248013 70.695773 
L 382.128447 70.498902 
L 382.01734 70.302031 
L 381.914962 70.10516 
L 381.821543 69.908289 
L 381.737273 69.711418 
L 381.662298 69.514547 
L 381.59672 69.317676 
L 381.540599 69.120805 
L 381.49395 68.923935 
L 381.456741 68.727064 
L 381.428899 68.530193 
L 381.410307 68.333322 
L 381.400804 68.136451 
L 381.400191 67.93958 
L 381.408228 67.742709 
L 381.424635 67.545838 
L 381.449102 67.348967 
L 381.481281 67.152096 
L 381.520797 66.955225 
L 381.567247 66.758354 
L 381.620203 66.561483 
L 381.679217 66.364612 
L 381.743823 66.167741 
L 381.813541 65.97087 
L 381.887883 65.773999 
L 381.966349 65.577128 
L 382.048443 65.380257 
L 382.133663 65.183386 
L 382.221515 64.986515 
L 382.311513 64.789644 
L 382.403181 64.592773 
L 382.496056 64.395903 
L 382.589697 64.199032 
L 382.68368 64.002161 
L 382.777604 63.80529 
L 382.871097 63.608419 
L 382.963813 63.411548 
L 383.055434 63.214677 
L 383.145677 63.017806 
L 383.234291 62.820935 
L 383.321058 62.624064 
L 383.405795 62.427193 
L 383.488354 62.230322 
L 383.568625 62.033451 
L 383.646528 61.83658 
L 383.722022 61.639709 
L 383.795097 61.442838 
L 383.865777 61.245967 
L 383.934117 61.049096 
L 384.000202 60.852225 
L 384.064142 60.655354 
L 384.126078 60.458483 
L 384.186168 60.261612 
L 384.244597 60.064742 
L 384.301564 59.867871 
L 384.357287 59.671 
L 384.411994 59.474129 
L 384.465926 59.277258 
L 384.51933 59.080387 
L 384.572458 58.883516 
L 384.625565 58.686645 
L 384.678902 58.489774 
L 384.732721 58.292903 
L 384.787265 58.096032 
L 384.842769 57.899161 
L 384.899459 57.70229 
L 384.957546 57.505419 
L 385.017229 57.308548 
L 385.078688 57.111677 
L 385.142087 56.914806 
L 385.207571 56.717935 
L 385.275263 56.521064 
L 385.345267 56.324193 
L 385.417663 56.127322 
L 385.492511 55.930451 
L 385.569846 55.733581 
L 385.649681 55.53671 
L 385.732007 55.339839 
L 385.816793 55.142968 
L 385.903984 54.946097 
L 385.993506 54.749226 
L 386.085265 54.552355 
L 386.179144 54.355484 
L 386.275012 54.158613 
L 386.372719 53.961742 
L 386.472098 53.764871 
L 386.57297 53.568 
L 393.314494 53.568 
L 393.314494 53.568 
L 393.415366 53.764871 
L 393.514745 53.961742 
L 393.612452 54.158613 
L 393.70832 54.355484 
L 393.802199 54.552355 
L 393.893958 54.749226 
L 393.98348 54.946097 
L 394.070672 55.142968 
L 394.155457 55.339839 
L 394.237783 55.53671 
L 394.317619 55.733581 
L 394.394953 55.930451 
L 394.469801 56.127322 
L 394.542197 56.324193 
L 394.612201 56.521064 
L 394.679893 56.717935 
L 394.745377 56.914806 
L 394.808776 57.111677 
L 394.870235 57.308548 
L 394.929918 57.505419 
L 394.988005 57.70229 
L 395.044695 57.899161 
L 395.100199 58.096032 
L 395.154743 58.292903 
L 395.208562 58.489774 
L 395.261899 58.686645 
L 395.315006 58.883516 
L 395.368134 59.080387 
L 395.421538 59.277258 
L 395.47547 59.474129 
L 395.530177 59.671 
L 395.5859 59.867871 
L 395.642867 60.064742 
L 395.701296 60.261612 
L 395.761387 60.458483 
L 395.823322 60.655354 
L 395.887263 60.852225 
L 395.953347 61.049096 
L 396.021687 61.245967 
L 396.092367 61.442838 
L 396.165442 61.639709 
L 396.240936 61.83658 
L 396.31884 62.033451 
L 396.39911 62.230322 
L 396.481669 62.427193 
L 396.566406 62.624064 
L 396.653173 62.820935 
L 396.741787 63.017806 
L 396.83203 63.214677 
L 396.923652 63.411548 
L 397.016367 63.608419 
L 397.10986 63.80529 
L 397.203784 64.002161 
L 397.297767 64.199032 
L 397.391408 64.395903 
L 397.484284 64.592773 
L 397.575951 64.789644 
L 397.665949 64.986515 
L 397.753801 65.183386 
L 397.839022 65.380257 
L 397.921115 65.577128 
L 397.999582 65.773999 
L 398.073923 65.97087 
L 398.143641 66.167741 
L 398.208248 66.364612 
L 398.267261 66.561483 
L 398.320217 66.758354 
L 398.366667 66.955225 
L 398.406183 67.152096 
L 398.438362 67.348967 
L 398.462829 67.545838 
L 398.479237 67.742709 
L 398.487273 67.93958 
L 398.48666 68.136451 
L 398.477157 68.333322 
L 398.458565 68.530193 
L 398.430723 68.727064 
L 398.393514 68.923935 
L 398.346865 69.120805 
L 398.290744 69.317676 
L 398.225166 69.514547 
L 398.150191 69.711418 
L 398.065921 69.908289 
L 397.972502 70.10516 
L 397.870124 70.302031 
L 397.759017 70.498902 
L 397.639451 70.695773 
L 397.511736 70.892644 
L 397.376215 71.089515 
L 397.233268 71.286386 
L 397.083305 71.483257 
L 396.926767 71.680128 
L 396.764117 71.876999 
L 396.595847 72.07387 
L 396.422463 72.270741 
L 396.244494 72.467612 
L 396.062478 72.664483 
L 395.876967 72.861354 
L 395.688518 73.058225 
z
" clip-path="url(#p19bfffba46)" style="fill: #1f77b4; fill-opacity: 0.3"/>
   </g>
   <g id="matplotlib.axis_1">
    <g id="xtick_1">
     <g id="line2d_1">
      <defs>
       <path id="m8a5ef80f95" d="M 0 0 
L 0 3.5 
" style="stroke: #000000; stroke-width: 0.8"/>
      </defs>
      <g>
       <use xlink:href="#m8a5ef80f95" x="82.376268" y="307.584" style="stroke: #000000; stroke-width: 0.8"/>
      </g>
     </g>
     <g id="text_1">
      <!-- echo 100 | python3 quicksort.py -->
      <g transform="translate(1.287205 322.226187) scale(0.1 -0.1)">
       <defs>
        <path id="DejaVuSans-65" d="M 3597 1894 
L 3597 1613 
L 953 1613 
Q 991 1019 1311 708 
Q 1631 397 2203 397 
Q 2534 397 2845 478 
Q 3156 559 3463 722 
L 3463 178 
Q 3153 47 2828 -22 
Q 2503 -91 2169 -91 
Q 1331 -91 842 396 
Q 353 884 353 1716 
Q 353 2575 817 3079 
Q 1281 3584 2069 3584 
Q 2775 3584 3186 3129 
Q 3597 2675 3597 1894 
z
M 3022 2063 
Q 3016 2534 2758 2815 
Q 2500 3097 2075 3097 
Q 1594 3097 1305 2825 
Q 1016 2553 972 2059 
L 3022 2063 
z
" transform="scale(0.015625)"/>
        <path id="DejaVuSans-63" d="M 3122 3366 
L 3122 2828 
Q 2878 2963 2633 3030 
Q 2388 3097 2138 3097 
Q 1578 3097 1268 2742 
Q 959 2388 959 1747 
Q 959 1106 1268 751 
Q 1578 397 2138 397 
Q 2388 397 2633 464 
Q 2878 531 3122 666 
L 3122 134 
Q 2881 22 2623 -34 
Q 2366 -91 2075 -91 
Q 1284 -91 818 406 
Q 353 903 353 1747 
Q 353 2603 823 3093 
Q 1294 3584 2113 3584 
Q 2378 3584 2631 3529 
Q 2884 3475 3122 3366 
z
" transform="scale(0.015625)"/>
        <path id="DejaVuSans-68" d="M 3513 2113 
L 3513 0 
L 2938 0 
L 2938 2094 
Q 2938 2591 2744 2837 
Q 2550 3084 2163 3084 
Q 1697 3084 1428 2787 
Q 1159 2491 1159 1978 
L 1159 0 
L 581 0 
L 581 4863 
L 1159 4863 
L 1159 2956 
Q 1366 3272 1645 3428 
Q 1925 3584 2291 3584 
Q 2894 3584 3203 3211 
Q 3513 2838 3513 2113 
z
" transform="scale(0.015625)"/>
        <path id="DejaVuSans-6f" d="M 1959 3097 
Q 1497 3097 1228 2736 
Q 959 2375 959 1747 
Q 959 1119 1226 758 
Q 1494 397 1959 397 
Q 2419 397 2687 759 
Q 2956 1122 2956 1747 
Q 2956 2369 2687 2733 
Q 2419 3097 1959 3097 
z
M 1959 3584 
Q 2709 3584 3137 3096 
Q 3566 2609 3566 1747 
Q 3566 888 3137 398 
Q 2709 -91 1959 -91 
Q 1206 -91 779 398 
Q 353 888 353 1747 
Q 353 2609 779 3096 
Q 1206 3584 1959 3584 
z
" transform="scale(0.015625)"/>
        <path id="DejaVuSans-20" transform="scale(0.015625)"/>
        <path id="DejaVuSans-31" d="M 794 531 
L 1825 531 
L 1825 4091 
L 703 3866 
L 703 4441 
L 1819 4666 
L 2450 4666 
L 2450 531 
L 3481 531 
L 3481 0 
L 794 0 
L 794 531 
z
" transform="scale(0.015625)"/>
        <path id="DejaVuSans-30" d="M 2034 4250 
Q 1547 4250 1301 3770 
Q 1056 3291 1056 2328 
Q 1056 1369 1301 889 
Q 1547 409 2034 409 
Q 2525 409 2770 889 
Q 3016 1369 3016 2328 
Q 3016 3291 2770 3770 
Q 2525 4250 2034 4250 
z
M 2034 4750 
Q 2819 4750 3233 4129 
Q 3647 3509 3647 2328 
Q 3647 1150 3233 529 
Q 2819 -91 2034 -91 
Q 1250 -91 836 529 
Q 422 1150 422 2328 
Q 422 3509 836 4129 
Q 1250 4750 2034 4750 
z
" transform="scale(0.015625)"/>
        <path id="DejaVuSans-7c" d="M 1344 4891 
L 1344 -1509 
L 813 -1509 
L 813 4891 
L 1344 4891 
z
" transform="scale(0.015625)"/>
        <path id="DejaVuSans-70" d="M 1159 525 
L 1159 -1331 
L 581 -1331 
L 581 3500 
L 1159 3500 
L 1159 2969 
Q 1341 3281 1617 3432 
Q 1894 3584 2278 3584 
Q 2916 3584 3314 3078 
Q 3713 2572 3713 1747 
Q 3713 922 3314 415 
Q 2916 -91 2278 -91 
Q 1894 -91 1617 61 
Q 1341 213 1159 525 
z
M 3116 1747 
Q 3116 2381 2855 2742 
Q 2594 3103 2138 3103 
Q 1681 3103 1420 2742 
Q 1159 2381 1159 1747 
Q 1159 1113 1420 752 
Q 1681 391 2138 391 
Q 2594 391 2855 752 
Q 3116 1113 3116 1747 
z
" transform="scale(0.015625)"/>
        <path id="DejaVuSans-79" d="M 2059 -325 
Q 1816 -950 1584 -1140 
Q 1353 -1331 966 -1331 
L 506 -1331 
L 506 -850 
L 844 -850 
Q 1081 -850 1212 -737 
Q 1344 -625 1503 -206 
L 1606 56 
L 191 3500 
L 800 3500 
L 1894 763 
L 2988 3500 
L 3597 3500 
L 2059 -325 
z
" transform="scale(0.015625)"/>
        <path id="DejaVuSans-74" d="M 1172 4494 
L 1172 3500 
L 2356 3500 
L 2356 3053 
L 1172 3053 
L 1172 1153 
Q 1172 725 1289 603 
Q 1406 481 1766 481 
L 2356 481 
L 2356 0 
L 1766 0 
Q 1100 0 847 248 
Q 594 497 594 1153 
L 594 3053 
L 172 3053 
L 172 3500 
L 594 3500 
L 594 4494 
L 1172 4494 
z
" transform="scale(0.015625)"/>
        <path id="DejaVuSans-6e" d="M 3513 2113 
L 3513 0 
L 2938 0 
L 2938 2094 
Q 2938 2591 2744 2837 
Q 2550 3084 2163 3084 
Q 1697 3084 1428 2787 
Q 1159 2491 1159 1978 
L 1159 0 
L 581 0 
L 581 3500 
L 1159 3500 
L 1159 2956 
Q 1366 3272 1645 3428 
Q 1925 3584 2291 3584 
Q 2894 3584 3203 3211 
Q 3513 2838 3513 2113 
z
" transform="scale(0.015625)"/>
        <path id="DejaVuSans-33" d="M 2597 2516 
Q 3050 2419 3304 2112 
Q 3559 1806 3559 1356 
Q 3559 666 3084 287 
Q 2609 -91 1734 -91 
Q 1441 -91 1130 -33 
Q 819 25 488 141 
L 488 750 
Q 750 597 1062 519 
Q 1375 441 1716 441 
Q 2309 441 2620 675 
Q 2931 909 2931 1356 
Q 2931 1769 2642 2001 
Q 2353 2234 1838 2234 
L 1294 2234 
L 1294 2753 
L 1863 2753 
Q 2328 2753 2575 2939 
Q 2822 3125 2822 3475 
Q 2822 3834 2567 4026 
Q 2313 4219 1838 4219 
Q 1578 4219 1281 4162 
Q 984 4106 628 3988 
L 628 4550 
Q 988 4650 1302 4700 
Q 1616 4750 1894 4750 
Q 2613 4750 3031 4423 
Q 3450 4097 3450 3541 
Q 3450 3153 3228 2886 
Q 3006 2619 2597 2516 
z
" transform="scale(0.015625)"/>
        <path id="DejaVuSans-71" d="M 947 1747 
Q 947 1113 1208 752 
Q 1469 391 1925 391 
Q 2381 391 2643 752 
Q 2906 1113 2906 1747 
Q 2906 2381 2643 2742 
Q 2381 3103 1925 3103 
Q 1469 3103 1208 2742 
Q 947 2381 947 1747 
z
M 2906 525 
Q 2725 213 2448 61 
Q 2172 -91 1784 -91 
Q 1150 -91 751 415 
Q 353 922 353 1747 
Q 353 2572 751 3078 
Q 1150 3584 1784 3584 
Q 2172 3584 2448 3432 
Q 2725 3281 2906 2969 
L 2906 3500 
L 3481 3500 
L 3481 -1331 
L 2906 -1331 
L 2906 525 
z
" transform="scale(0.015625)"/>
        <path id="DejaVuSans-75" d="M 544 1381 
L 544 3500 
L 1119 3500 
L 1119 1403 
Q 1119 906 1312 657 
Q 1506 409 1894 409 
Q 2359 409 2629 706 
Q 2900 1003 2900 1516 
L 2900 3500 
L 3475 3500 
L 3475 0 
L 2900 0 
L 2900 538 
Q 2691 219 2414 64 
Q 2138 -91 1772 -91 
Q 1169 -91 856 284 
Q 544 659 544 1381 
z
M 1991 3584 
L 1991 3584 
z
" transform="scale(0.015625)"/>
        <path id="DejaVuSans-69" d="M 603 3500 
L 1178 3500 
L 1178 0 
L 603 0 
L 603 3500 
z
M 603 4863 
L 1178 4863 
L 1178 4134 
L 603 4134 
L 603 4863 
z
" transform="scale(0.015625)"/>
        <path id="DejaVuSans-6b" d="M 581 4863 
L 1159 4863 
L 1159 1991 
L 2875 3500 
L 3609 3500 
L 1753 1863 
L 3688 0 
L 2938 0 
L 1159 1709 
L 1159 0 
L 581 0 
L 581 4863 
z
" transform="scale(0.015625)"/>
        <path id="DejaVuSans-73" d="M 2834 3397 
L 2834 2853 
Q 2591 2978 2328 3040 
Q 2066 3103 1784 3103 
Q 1356 3103 1142 2972 
Q 928 2841 928 2578 
Q 928 2378 1081 2264 
Q 1234 2150 1697 2047 
L 1894 2003 
Q 2506 1872 2764 1633 
Q 3022 1394 3022 966 
Q 3022 478 2636 193 
Q 2250 -91 1575 -91 
Q 1294 -91 989 -36 
Q 684 19 347 128 
L 347 722 
Q 666 556 975 473 
Q 1284 391 1588 391 
Q 1994 391 2212 530 
Q 2431 669 2431 922 
Q 2431 1156 2273 1281 
Q 2116 1406 1581 1522 
L 1381 1569 
Q 847 1681 609 1914 
Q 372 2147 372 2553 
Q 372 3047 722 3315 
Q 1072 3584 1716 3584 
Q 2034 3584 2315 3537 
Q 2597 3491 2834 3397 
z
" transform="scale(0.015625)"/>
        <path id="DejaVuSans-72" d="M 2631 2963 
Q 2534 3019 2420 3045 
Q 2306 3072 2169 3072 
Q 1681 3072 1420 2755 
Q 1159 2438 1159 1844 
L 1159 0 
L 581 0 
L 581 3500 
L 1159 3500 
L 1159 2956 
Q 1341 3275 1631 3429 
Q 1922 3584 2338 3584 
Q 2397 3584 2469 3576 
Q 2541 3569 2628 3553 
L 2631 2963 
z
" transform="scale(0.015625)"/>
        <path id="DejaVuSans-2e" d="M 684 794 
L 1344 794 
L 1344 0 
L 684 0 
L 684 794 
z
" transform="scale(0.015625)"/>
       </defs>
       <use xlink:href="#DejaVuSans-65"/>
       <use xlink:href="#DejaVuSans-63" x="61.523438"/>
       <use xlink:href="#DejaVuSans-68" x="116.503906"/>
       <use xlink:href="#DejaVuSans-6f" x="179.882812"/>
       <use xlink:href="#DejaVuSans-20" x="241.064453"/>
       <use xlink:href="#DejaVuSans-31" x="272.851562"/>
       <use xlink:href="#DejaVuSans-30" x="336.474609"/>
       <use xlink:href="#DejaVuSans-30" x="400.097656"/>
       <use xlink:href="#DejaVuSans-20" x="463.720703"/>
       <use xlink:href="#DejaVuSans-7c" x="495.507812"/>
       <use xlink:href="#DejaVuSans-20" x="529.199219"/>
       <use xlink:href="#DejaVuSans-70" x="560.986328"/>
       <use xlink:href="#DejaVuSans-79" x="624.462891"/>
       <use xlink:href="#DejaVuSans-74" x="683.642578"/>
       <use xlink:href="#DejaVuSans-68" x="722.851562"/>
       <use xlink:href="#DejaVuSans-6f" x="786.230469"/>
       <use xlink:href="#DejaVuSans-6e" x="847.412109"/>
       <use xlink:href="#DejaVuSans-33" x="910.791016"/>
       <use xlink:href="#DejaVuSans-20" x="974.414062"/>
       <use xlink:href="#DejaVuSans-71" x="1006.201172"/>
       <use xlink:href="#DejaVuSans-75" x="1069.677734"/>
       <use xlink:href="#DejaVuSans-69" x="1133.056641"/>
       <use xlink:href="#DejaVuSans-63" x="1160.839844"/>
       <use xlink:href="#DejaVuSans-6b" x="1215.820312"/>
       <use xlink:href="#DejaVuSans-73" x="1273.730469"/>
       <use xlink:href="#DejaVuSans-6f" x="1325.830078"/>
       <use xlink:href="#DejaVuSans-72" x="1387.011719"/>
       <use xlink:href="#DejaVuSans-74" x="1428.125"/>
       <use xlink:href="#DejaVuSans-2e" x="1467.333984"/>
       <use xlink:href="#DejaVuSans-70" x="1499.121094"/>
       <use xlink:href="#DejaVuSans-79" x="1562.597656"/>
      </g>
     </g>
    </g>
    <g id="xtick_2">
     <g id="line2d_2">
      <g>
       <use xlink:href="#m8a5ef80f95" x="116.550431" y="307.584" style="stroke: #000000; stroke-width: 0.8"/>
      </g>
     </g>
     <g id="text_2">
      <!-- echo 1100 | python3 quicksort.py -->
      <g transform="translate(32.280118 322.226187) scale(0.1 -0.1)">
       <use xlink:href="#DejaVuSans-65"/>
       <use xlink:href="#DejaVuSans-63" x="61.523438"/>
       <use xlink:href="#DejaVuSans-68" x="116.503906"/>
       <use xlink:href="#DejaVuSans-6f" x="179.882812"/>
       <use xlink:href="#DejaVuSans-20" x="241.064453"/>
       <use xlink:href="#DejaVuSans-31" x="272.851562"/>
       <use xlink:href="#DejaVuSans-31" x="336.474609"/>
       <use xlink:href="#DejaVuSans-30" x="400.097656"/>
       <use xlink:href="#DejaVuSans-30" x="463.720703"/>
       <use xlink:href="#DejaVuSans-20" x="527.34375"/>
       <use xlink:href="#DejaVuSans-7c" x="559.130859"/>
       <use xlink:href="#DejaVuSans-20" x="592.822266"/>
       <use xlink:href="#DejaVuSans-70" x="624.609375"/>
       <use xlink:href="#DejaVuSans-79" x="688.085938"/>
       <use xlink:href="#DejaVuSans-74" x="747.265625"/>
       <use xlink:href="#DejaVuSans-68" x="786.474609"/>
       <use xlink:href="#DejaVuSans-6f" x="849.853516"/>
       <use xlink:href="#DejaVuSans-6e" x="911.035156"/>
       <use xlink:href="#DejaVuSans-33" x="974.414062"/>
       <use xlink:href="#DejaVuSans-20" x="1038.037109"/>
       <use xlink:href="#DejaVuSans-71" x="1069.824219"/>
       <use xlink:href="#DejaVuSans-75" x="1133.300781"/>
       <use xlink:href="#DejaVuSans-69" x="1196.679688"/>
       <use xlink:href="#DejaVuSans-63" x="1224.462891"/>
       <use xlink:href="#DejaVuSans-6b" x="1279.443359"/>
       <use xlink:href="#DejaVuSans-73" x="1337.353516"/>
       <use xlink:href="#DejaVuSans-6f" x="1389.453125"/>
       <use xlink:href="#DejaVuSans-72" x="1450.634766"/>
       <use xlink:href="#DejaVuSans-74" x="1491.748047"/>
       <use xlink:href="#DejaVuSans-2e" x="1530.957031"/>
       <use xlink:href="#DejaVuSans-70" x="1562.744141"/>
       <use xlink:href="#DejaVuSans-79" x="1626.220703"/>
      </g>
     </g>
    </g>
    <g id="xtick_3">
     <g id="line2d_3">
      <g>
       <use xlink:href="#m8a5ef80f95" x="150.724593" y="307.584" style="stroke: #000000; stroke-width: 0.8"/>
      </g>
     </g>
     <g id="text_3">
      <!-- echo 2100 | python3 quicksort.py -->
      <g transform="translate(66.454281 322.226187) scale(0.1 -0.1)">
       <defs>
        <path id="DejaVuSans-32" d="M 1228 531 
L 3431 531 
L 3431 0 
L 469 0 
L 469 531 
Q 828 903 1448 1529 
Q 2069 2156 2228 2338 
Q 2531 2678 2651 2914 
Q 2772 3150 2772 3378 
Q 2772 3750 2511 3984 
Q 2250 4219 1831 4219 
Q 1534 4219 1204 4116 
Q 875 4013 500 3803 
L 500 4441 
Q 881 4594 1212 4672 
Q 1544 4750 1819 4750 
Q 2544 4750 2975 4387 
Q 3406 4025 3406 3419 
Q 3406 3131 3298 2873 
Q 3191 2616 2906 2266 
Q 2828 2175 2409 1742 
Q 1991 1309 1228 531 
z
" transform="scale(0.015625)"/>
       </defs>
       <use xlink:href="#DejaVuSans-65"/>
       <use xlink:href="#DejaVuSans-63" x="61.523438"/>
       <use xlink:href="#DejaVuSans-68" x="116.503906"/>
       <use xlink:href="#DejaVuSans-6f" x="179.882812"/>
       <use xlink:href="#DejaVuSans-20" x="241.064453"/>
       <use xlink:href="#DejaVuSans-32" x="272.851562"/>
       <use xlink:href="#DejaVuSans-31" x="336.474609"/>
       <use xlink:href="#DejaVuSans-30" x="400.097656"/>
       <use xlink:href="#DejaVuSans-30" x="463.720703"/>
       <use xlink:href="#DejaVuSans-20" x="527.34375"/>
       <use xlink:href="#DejaVuSans-7c" x="559.130859"/>
       <use xlink:href="#DejaVuSans-20" x="592.822266"/>
       <use xlink:href="#DejaVuSans-70" x="624.609375"/>
       <use xlink:href="#DejaVuSans-79" x="688.085938"/>
       <use xlink:href="#DejaVuSans-74" x="747.265625"/>
       <use xlink:href="#DejaVuSans-68" x="786.474609"/>
       <use xlink:href="#DejaVuSans-6f" x="849.853516"/>
       <use xlink:href="#DejaVuSans-6e" x="911.035156"/>
       <use xlink:href="#DejaVuSans-33" x="974.414062"/>
       <use xlink:href="#DejaVuSans-20" x="1038.037109"/>
       <use xlink:href="#DejaVuSans-71" x="1069.824219"/>
       <use xlink:href="#DejaVuSans-75" x="1133.300781"/>
       <use xlink:href="#DejaVuSans-69" x="1196.679688"/>
       <use xlink:href="#DejaVuSans-63" x="1224.462891"/>
       <use xlink:href="#DejaVuSans-6b" x="1279.443359"/>
       <use xlink:href="#DejaVuSans-73" x="1337.353516"/>
       <use xlink:href="#DejaVuSans-6f" x="1389.453125"/>
       <use xlink:href="#DejaVuSans-72" x="1450.634766"/>
       <use xlink:href="#DejaVuSans-74" x="1491.748047"/>
       <use xlink:href="#DejaVuSans-2e" x="1530.957031"/>
       <use xlink:href="#DejaVuSans-70" x="1562.744141"/>
       <use xlink:href="#DejaVuSans-79" x="1626.220703"/>
      </g>
     </g>
    </g>
    <g id="xtick_4">
     <g id="line2d_4">
      <g>
       <use xlink:href="#m8a5ef80f95" x="184.898756" y="307.584" style="stroke: #000000; stroke-width: 0.8"/>
      </g>
     </g>
     <g id="text_4">
      <!-- echo 3100 | python3 quicksort.py -->
      <g transform="translate(100.628443 322.226187) scale(0.1 -0.1)">
       <use xlink:href="#DejaVuSans-65"/>
       <use xlink:href="#DejaVuSans-63" x="61.523438"/>
       <use xlink:href="#DejaVuSans-68" x="116.503906"/>
       <use xlink:href="#DejaVuSans-6f" x="179.882812"/>
       <use xlink:href="#DejaVuSans-20" x="241.064453"/>
       <use xlink:href="#DejaVuSans-33" x="272.851562"/>
       <use xlink:href="#DejaVuSans-31" x="336.474609"/>
       <use xlink:href="#DejaVuSans-30" x="400.097656"/>
       <use xlink:href="#DejaVuSans-30" x="463.720703"/>
       <use xlink:href="#DejaVuSans-20" x="527.34375"/>
       <use xlink:href="#DejaVuSans-7c" x="559.130859"/>
       <use xlink:href="#DejaVuSans-20" x="592.822266"/>
       <use xlink:href="#DejaVuSans-70" x="624.609375"/>
       <use xlink:href="#DejaVuSans-79" x="688.085938"/>
       <use xlink:href="#DejaVuSans-74" x="747.265625"/>
       <use xlink:href="#DejaVuSans-68" x="786.474609"/>
       <use xlink:href="#DejaVuSans-6f" x="849.853516"/>
       <use xlink:href="#DejaVuSans-6e" x="911.035156"/>
       <use xlink:href="#DejaVuSans-33" x="974.414062"/>
       <use xlink:href="#DejaVuSans-20" x="1038.037109"/>
       <use xlink:href="#DejaVuSans-71" x="1069.824219"/>
       <use xlink:href="#DejaVuSans-75" x="1133.300781"/>
       <use xlink:href="#DejaVuSans-69" x="1196.679688"/>
       <use xlink:href="#DejaVuSans-63" x="1224.462891"/>
       <use xlink:href="#DejaVuSans-6b" x="1279.443359"/>
       <use xlink:href="#DejaVuSans-73" x="1337.353516"/>
       <use xlink:href="#DejaVuSans-6f" x="1389.453125"/>
       <use xlink:href="#DejaVuSans-72" x="1450.634766"/>
       <use xlink:href="#DejaVuSans-74" x="1491.748047"/>
       <use xlink:href="#DejaVuSans-2e" x="1530.957031"/>
       <use xlink:href="#DejaVuSans-70" x="1562.744141"/>
       <use xlink:href="#DejaVuSans-79" x="1626.220703"/>
      </g>
     </g>
    </g>
    <g id="xtick_5">
     <g id="line2d_5">
      <g>
       <use xlink:href="#m8a5ef80f95" x="219.072919" y="307.584" style="stroke: #000000; stroke-width: 0.8"/>
      </g>
     </g>
     <g id="text_5">
      <!-- echo 4100 | python3 quicksort.py -->
      <g transform="translate(134.802606 322.226187) scale(0.1 -0.1)">
       <defs>
        <path id="DejaVuSans-34" d="M 2419 4116 
L 825 1625 
L 2419 1625 
L 2419 4116 
z
M 2253 4666 
L 3047 4666 
L 3047 1625 
L 3713 1625 
L 3713 1100 
L 3047 1100 
L 3047 0 
L 2419 0 
L 2419 1100 
L 313 1100 
L 313 1709 
L 2253 4666 
z
" transform="scale(0.015625)"/>
       </defs>
       <use xlink:href="#DejaVuSans-65"/>
       <use xlink:href="#DejaVuSans-63" x="61.523438"/>
       <use xlink:href="#DejaVuSans-68" x="116.503906"/>
       <use xlink:href="#DejaVuSans-6f" x="179.882812"/>
       <use xlink:href="#DejaVuSans-20" x="241.064453"/>
       <use xlink:href="#DejaVuSans-34" x="272.851562"/>
       <use xlink:href="#DejaVuSans-31" x="336.474609"/>
       <use xlink:href="#DejaVuSans-30" x="400.097656"/>
       <use xlink:href="#DejaVuSans-30" x="463.720703"/>
       <use xlink:href="#DejaVuSans-20" x="527.34375"/>
       <use xlink:href="#DejaVuSans-7c" x="559.130859"/>
       <use xlink:href="#DejaVuSans-20" x="592.822266"/>
       <use xlink:href="#DejaVuSans-70" x="624.609375"/>
       <use xlink:href="#DejaVuSans-79" x="688.085938"/>
       <use xlink:href="#DejaVuSans-74" x="747.265625"/>
       <use xlink:href="#DejaVuSans-68" x="786.474609"/>
       <use xlink:href="#DejaVuSans-6f" x="849.853516"/>
       <use xlink:href="#DejaVuSans-6e" x="911.035156"/>
       <use xlink:href="#DejaVuSans-33" x="974.414062"/>
       <use xlink:href="#DejaVuSans-20" x="1038.037109"/>
       <use xlink:href="#DejaVuSans-71" x="1069.824219"/>
       <use xlink:href="#DejaVuSans-75" x="1133.300781"/>
       <use xlink:href="#DejaVuSans-69" x="1196.679688"/>
       <use xlink:href="#DejaVuSans-63" x="1224.462891"/>
       <use xlink:href="#DejaVuSans-6b" x="1279.443359"/>
       <use xlink:href="#DejaVuSans-73" x="1337.353516"/>
       <use xlink:href="#DejaVuSans-6f" x="1389.453125"/>
       <use xlink:href="#DejaVuSans-72" x="1450.634766"/>
       <use xlink:href="#DejaVuSans-74" x="1491.748047"/>
       <use xlink:href="#DejaVuSans-2e" x="1530.957031"/>
       <use xlink:href="#DejaVuSans-70" x="1562.744141"/>
       <use xlink:href="#DejaVuSans-79" x="1626.220703"/>
      </g>
     </g>
    </g>
    <g id="xtick_6">
     <g id="line2d_6">
      <g>
       <use xlink:href="#m8a5ef80f95" x="253.247081" y="307.584" style="stroke: #000000; stroke-width: 0.8"/>
      </g>
     </g>
     <g id="text_6">
      <!-- echo 5100 | python3 quicksort.py -->
      <g transform="translate(168.976769 322.226187) scale(0.1 -0.1)">
       <defs>
        <path id="DejaVuSans-35" d="M 691 4666 
L 3169 4666 
L 3169 4134 
L 1269 4134 
L 1269 2991 
Q 1406 3038 1543 3061 
Q 1681 3084 1819 3084 
Q 2600 3084 3056 2656 
Q 3513 2228 3513 1497 
Q 3513 744 3044 326 
Q 2575 -91 1722 -91 
Q 1428 -91 1123 -41 
Q 819 9 494 109 
L 494 744 
Q 775 591 1075 516 
Q 1375 441 1709 441 
Q 2250 441 2565 725 
Q 2881 1009 2881 1497 
Q 2881 1984 2565 2268 
Q 2250 2553 1709 2553 
Q 1456 2553 1204 2497 
Q 953 2441 691 2322 
L 691 4666 
z
" transform="scale(0.015625)"/>
       </defs>
       <use xlink:href="#DejaVuSans-65"/>
       <use xlink:href="#DejaVuSans-63" x="61.523438"/>
       <use xlink:href="#DejaVuSans-68" x="116.503906"/>
       <use xlink:href="#DejaVuSans-6f" x="179.882812"/>
       <use xlink:href="#DejaVuSans-20" x="241.064453"/>
       <use xlink:href="#DejaVuSans-35" x="272.851562"/>
       <use xlink:href="#DejaVuSans-31" x="336.474609"/>
       <use xlink:href="#DejaVuSans-30" x="400.097656"/>
       <use xlink:href="#DejaVuSans-30" x="463.720703"/>
       <use xlink:href="#DejaVuSans-20" x="527.34375"/>
       <use xlink:href="#DejaVuSans-7c" x="559.130859"/>
       <use xlink:href="#DejaVuSans-20" x="592.822266"/>
       <use xlink:href="#DejaVuSans-70" x="624.609375"/>
       <use xlink:href="#DejaVuSans-79" x="688.085938"/>
       <use xlink:href="#DejaVuSans-74" x="747.265625"/>
       <use xlink:href="#DejaVuSans-68" x="786.474609"/>
       <use xlink:href="#DejaVuSans-6f" x="849.853516"/>
       <use xlink:href="#DejaVuSans-6e" x="911.035156"/>
       <use xlink:href="#DejaVuSans-33" x="974.414062"/>
       <use xlink:href="#DejaVuSans-20" x="1038.037109"/>
       <use xlink:href="#DejaVuSans-71" x="1069.824219"/>
       <use xlink:href="#DejaVuSans-75" x="1133.300781"/>
       <use xlink:href="#DejaVuSans-69" x="1196.679688"/>
       <use xlink:href="#DejaVuSans-63" x="1224.462891"/>
       <use xlink:href="#DejaVuSans-6b" x="1279.443359"/>
       <use xlink:href="#DejaVuSans-73" x="1337.353516"/>
       <use xlink:href="#DejaVuSans-6f" x="1389.453125"/>
       <use xlink:href="#DejaVuSans-72" x="1450.634766"/>
       <use xlink:href="#DejaVuSans-74" x="1491.748047"/>
       <use xlink:href="#DejaVuSans-2e" x="1530.957031"/>
       <use xlink:href="#DejaVuSans-70" x="1562.744141"/>
       <use xlink:href="#DejaVuSans-79" x="1626.220703"/>
      </g>
     </g>
    </g>
    <g id="xtick_7">
     <g id="line2d_7">
      <g>
       <use xlink:href="#m8a5ef80f95" x="287.421244" y="307.584" style="stroke: #000000; stroke-width: 0.8"/>
      </g>
     </g>
     <g id="text_7">
      <!-- echo 6100 | python3 quicksort.py -->
      <g transform="translate(203.150932 322.226187) scale(0.1 -0.1)">
       <defs>
        <path id="DejaVuSans-36" d="M 2113 2584 
Q 1688 2584 1439 2293 
Q 1191 2003 1191 1497 
Q 1191 994 1439 701 
Q 1688 409 2113 409 
Q 2538 409 2786 701 
Q 3034 994 3034 1497 
Q 3034 2003 2786 2293 
Q 2538 2584 2113 2584 
z
M 3366 4563 
L 3366 3988 
Q 3128 4100 2886 4159 
Q 2644 4219 2406 4219 
Q 1781 4219 1451 3797 
Q 1122 3375 1075 2522 
Q 1259 2794 1537 2939 
Q 1816 3084 2150 3084 
Q 2853 3084 3261 2657 
Q 3669 2231 3669 1497 
Q 3669 778 3244 343 
Q 2819 -91 2113 -91 
Q 1303 -91 875 529 
Q 447 1150 447 2328 
Q 447 3434 972 4092 
Q 1497 4750 2381 4750 
Q 2619 4750 2861 4703 
Q 3103 4656 3366 4563 
z
" transform="scale(0.015625)"/>
       </defs>
       <use xlink:href="#DejaVuSans-65"/>
       <use xlink:href="#DejaVuSans-63" x="61.523438"/>
       <use xlink:href="#DejaVuSans-68" x="116.503906"/>
       <use xlink:href="#DejaVuSans-6f" x="179.882812"/>
       <use xlink:href="#DejaVuSans-20" x="241.064453"/>
       <use xlink:href="#DejaVuSans-36" x="272.851562"/>
       <use xlink:href="#DejaVuSans-31" x="336.474609"/>
       <use xlink:href="#DejaVuSans-30" x="400.097656"/>
       <use xlink:href="#DejaVuSans-30" x="463.720703"/>
       <use xlink:href="#DejaVuSans-20" x="527.34375"/>
       <use xlink:href="#DejaVuSans-7c" x="559.130859"/>
       <use xlink:href="#DejaVuSans-20" x="592.822266"/>
       <use xlink:href="#DejaVuSans-70" x="624.609375"/>
       <use xlink:href="#DejaVuSans-79" x="688.085938"/>
       <use xlink:href="#DejaVuSans-74" x="747.265625"/>
       <use xlink:href="#DejaVuSans-68" x="786.474609"/>
       <use xlink:href="#DejaVuSans-6f" x="849.853516"/>
       <use xlink:href="#DejaVuSans-6e" x="911.035156"/>
       <use xlink:href="#DejaVuSans-33" x="974.414062"/>
       <use xlink:href="#DejaVuSans-20" x="1038.037109"/>
       <use xlink:href="#DejaVuSans-71" x="1069.824219"/>
       <use xlink:href="#DejaVuSans-75" x="1133.300781"/>
       <use xlink:href="#DejaVuSans-69" x="1196.679688"/>
       <use xlink:href="#DejaVuSans-63" x="1224.462891"/>
       <use xlink:href="#DejaVuSans-6b" x="1279.443359"/>
       <use xlink:href="#DejaVuSans-73" x="1337.353516"/>
       <use xlink:href="#DejaVuSans-6f" x="1389.453125"/>
       <use xlink:href="#DejaVuSans-72" x="1450.634766"/>
       <use xlink:href="#DejaVuSans-74" x="1491.748047"/>
       <use xlink:href="#DejaVuSans-2e" x="1530.957031"/>
       <use xlink:href="#DejaVuSans-70" x="1562.744141"/>
       <use xlink:href="#DejaVuSans-79" x="1626.220703"/>
      </g>
     </g>
    </g>
    <g id="xtick_8">
     <g id="line2d_8">
      <g>
       <use xlink:href="#m8a5ef80f95" x="321.595407" y="307.584" style="stroke: #000000; stroke-width: 0.8"/>
      </g>
     </g>
     <g id="text_8">
      <!-- echo 7100 | python3 quicksort.py -->
      <g transform="translate(237.325094 322.226187) scale(0.1 -0.1)">
       <defs>
        <path id="DejaVuSans-37" d="M 525 4666 
L 3525 4666 
L 3525 4397 
L 1831 0 
L 1172 0 
L 2766 4134 
L 525 4134 
L 525 4666 
z
" transform="scale(0.015625)"/>
       </defs>
       <use xlink:href="#DejaVuSans-65"/>
       <use xlink:href="#DejaVuSans-63" x="61.523438"/>
       <use xlink:href="#DejaVuSans-68" x="116.503906"/>
       <use xlink:href="#DejaVuSans-6f" x="179.882812"/>
       <use xlink:href="#DejaVuSans-20" x="241.064453"/>
       <use xlink:href="#DejaVuSans-37" x="272.851562"/>
       <use xlink:href="#DejaVuSans-31" x="336.474609"/>
       <use xlink:href="#DejaVuSans-30" x="400.097656"/>
       <use xlink:href="#DejaVuSans-30" x="463.720703"/>
       <use xlink:href="#DejaVuSans-20" x="527.34375"/>
       <use xlink:href="#DejaVuSans-7c" x="559.130859"/>
       <use xlink:href="#DejaVuSans-20" x="592.822266"/>
       <use xlink:href="#DejaVuSans-70" x="624.609375"/>
       <use xlink:href="#DejaVuSans-79" x="688.085938"/>
       <use xlink:href="#DejaVuSans-74" x="747.265625"/>
       <use xlink:href="#DejaVuSans-68" x="786.474609"/>
       <use xlink:href="#DejaVuSans-6f" x="849.853516"/>
       <use xlink:href="#DejaVuSans-6e" x="911.035156"/>
       <use xlink:href="#DejaVuSans-33" x="974.414062"/>
       <use xlink:href="#DejaVuSans-20" x="1038.037109"/>
       <use xlink:href="#DejaVuSans-71" x="1069.824219"/>
       <use xlink:href="#DejaVuSans-75" x="1133.300781"/>
       <use xlink:href="#DejaVuSans-69" x="1196.679688"/>
       <use xlink:href="#DejaVuSans-63" x="1224.462891"/>
       <use xlink:href="#DejaVuSans-6b" x="1279.443359"/>
       <use xlink:href="#DejaVuSans-73" x="1337.353516"/>
       <use xlink:href="#DejaVuSans-6f" x="1389.453125"/>
       <use xlink:href="#DejaVuSans-72" x="1450.634766"/>
       <use xlink:href="#DejaVuSans-74" x="1491.748047"/>
       <use xlink:href="#DejaVuSans-2e" x="1530.957031"/>
       <use xlink:href="#DejaVuSans-70" x="1562.744141"/>
       <use xlink:href="#DejaVuSans-79" x="1626.220703"/>
      </g>
     </g>
    </g>
    <g id="xtick_9">
     <g id="line2d_9">
      <g>
       <use xlink:href="#m8a5ef80f95" x="355.769569" y="307.584" style="stroke: #000000; stroke-width: 0.8"/>
      </g>
     </g>
     <g id="text_9">
      <!-- echo 8100 | python3 quicksort.py -->
      <g transform="translate(271.499257 322.226187) scale(0.1 -0.1)">
       <defs>
        <path id="DejaVuSans-38" d="M 2034 2216 
Q 1584 2216 1326 1975 
Q 1069 1734 1069 1313 
Q 1069 891 1326 650 
Q 1584 409 2034 409 
Q 2484 409 2743 651 
Q 3003 894 3003 1313 
Q 3003 1734 2745 1975 
Q 2488 2216 2034 2216 
z
M 1403 2484 
Q 997 2584 770 2862 
Q 544 3141 544 3541 
Q 544 4100 942 4425 
Q 1341 4750 2034 4750 
Q 2731 4750 3128 4425 
Q 3525 4100 3525 3541 
Q 3525 3141 3298 2862 
Q 3072 2584 2669 2484 
Q 3125 2378 3379 2068 
Q 3634 1759 3634 1313 
Q 3634 634 3220 271 
Q 2806 -91 2034 -91 
Q 1263 -91 848 271 
Q 434 634 434 1313 
Q 434 1759 690 2068 
Q 947 2378 1403 2484 
z
M 1172 3481 
Q 1172 3119 1398 2916 
Q 1625 2713 2034 2713 
Q 2441 2713 2670 2916 
Q 2900 3119 2900 3481 
Q 2900 3844 2670 4047 
Q 2441 4250 2034 4250 
Q 1625 4250 1398 4047 
Q 1172 3844 1172 3481 
z
" transform="scale(0.015625)"/>
       </defs>
       <use xlink:href="#DejaVuSans-65"/>
       <use xlink:href="#DejaVuSans-63" x="61.523438"/>
       <use xlink:href="#DejaVuSans-68" x="116.503906"/>
       <use xlink:href="#DejaVuSans-6f" x="179.882812"/>
       <use xlink:href="#DejaVuSans-20" x="241.064453"/>
       <use xlink:href="#DejaVuSans-38" x="272.851562"/>
       <use xlink:href="#DejaVuSans-31" x="336.474609"/>
       <use xlink:href="#DejaVuSans-30" x="400.097656"/>
       <use xlink:href="#DejaVuSans-30" x="463.720703"/>
       <use xlink:href="#DejaVuSans-20" x="527.34375"/>
       <use xlink:href="#DejaVuSans-7c" x="559.130859"/>
       <use xlink:href="#DejaVuSans-20" x="592.822266"/>
       <use xlink:href="#DejaVuSans-70" x="624.609375"/>
       <use xlink:href="#DejaVuSans-79" x="688.085938"/>
       <use xlink:href="#DejaVuSans-74" x="747.265625"/>
       <use xlink:href="#DejaVuSans-68" x="786.474609"/>
       <use xlink:href="#DejaVuSans-6f" x="849.853516"/>
       <use xlink:href="#DejaVuSans-6e" x="911.035156"/>
       <use xlink:href="#DejaVuSans-33" x="974.414062"/>
       <use xlink:href="#DejaVuSans-20" x="1038.037109"/>
       <use xlink:href="#DejaVuSans-71" x="1069.824219"/>
       <use xlink:href="#DejaVuSans-75" x="1133.300781"/>
       <use xlink:href="#DejaVuSans-69" x="1196.679688"/>
       <use xlink:href="#DejaVuSans-63" x="1224.462891"/>
       <use xlink:href="#DejaVuSans-6b" x="1279.443359"/>
       <use xlink:href="#DejaVuSans-73" x="1337.353516"/>
       <use xlink:href="#DejaVuSans-6f" x="1389.453125"/>
       <use xlink:href="#DejaVuSans-72" x="1450.634766"/>
       <use xlink:href="#DejaVuSans-74" x="1491.748047"/>
       <use xlink:href="#DejaVuSans-2e" x="1530.957031"/>
       <use xlink:href="#DejaVuSans-70" x="1562.744141"/>
       <use xlink:href="#DejaVuSans-79" x="1626.220703"/>
      </g>
     </g>
    </g>
    <g id="xtick_10">
     <g id="line2d_10">
      <g>
       <use xlink:href="#m8a5ef80f95" x="389.943732" y="307.584" style="stroke: #000000; stroke-width: 0.8"/>
      </g>
     </g>
     <g id="text_10">
      <!-- echo 9100 | python3 quicksort.py -->
      <g transform="translate(305.67342 322.226187) scale(0.1 -0.1)">
       <defs>
        <path id="DejaVuSans-39" d="M 703 97 
L 703 672 
Q 941 559 1184 500 
Q 1428 441 1663 441 
Q 2288 441 2617 861 
Q 2947 1281 2994 2138 
Q 2813 1869 2534 1725 
Q 2256 1581 1919 1581 
Q 1219 1581 811 2004 
Q 403 2428 403 3163 
Q 403 3881 828 4315 
Q 1253 4750 1959 4750 
Q 2769 4750 3195 4129 
Q 3622 3509 3622 2328 
Q 3622 1225 3098 567 
Q 2575 -91 1691 -91 
Q 1453 -91 1209 -44 
Q 966 3 703 97 
z
M 1959 2075 
Q 2384 2075 2632 2365 
Q 2881 2656 2881 3163 
Q 2881 3666 2632 3958 
Q 2384 4250 1959 4250 
Q 1534 4250 1286 3958 
Q 1038 3666 1038 3163 
Q 1038 2656 1286 2365 
Q 1534 2075 1959 2075 
z
" transform="scale(0.015625)"/>
       </defs>
       <use xlink:href="#DejaVuSans-65"/>
       <use xlink:href="#DejaVuSans-63" x="61.523438"/>
       <use xlink:href="#DejaVuSans-68" x="116.503906"/>
       <use xlink:href="#DejaVuSans-6f" x="179.882812"/>
       <use xlink:href="#DejaVuSans-20" x="241.064453"/>
       <use xlink:href="#DejaVuSans-39" x="272.851562"/>
       <use xlink:href="#DejaVuSans-31" x="336.474609"/>
       <use xlink:href="#DejaVuSans-30" x="400.097656"/>
       <use xlink:href="#DejaVuSans-30" x="463.720703"/>
       <use xlink:href="#DejaVuSans-20" x="527.34375"/>
       <use xlink:href="#DejaVuSans-7c" x="559.130859"/>
       <use xlink:href="#DejaVuSans-20" x="592.822266"/>
       <use xlink:href="#DejaVuSans-70" x="624.609375"/>
       <use xlink:href="#DejaVuSans-79" x="688.085938"/>
       <use xlink:href="#DejaVuSans-74" x="747.265625"/>
       <use xlink:href="#DejaVuSans-68" x="786.474609"/>
       <use xlink:href="#DejaVuSans-6f" x="849.853516"/>
       <use xlink:href="#DejaVuSans-6e" x="911.035156"/>
       <use xlink:href="#DejaVuSans-33" x="974.414062"/>
       <use xlink:href="#DejaVuSans-20" x="1038.037109"/>
       <use xlink:href="#DejaVuSans-71" x="1069.824219"/>
       <use xlink:href="#DejaVuSans-75" x="1133.300781"/>
       <use xlink:href="#DejaVuSans-69" x="1196.679688"/>
       <use xlink:href="#DejaVuSans-63" x="1224.462891"/>
       <use xlink:href="#DejaVuSans-6b" x="1279.443359"/>
       <use xlink:href="#DejaVuSans-73" x="1337.353516"/>
       <use xlink:href="#DejaVuSans-6f" x="1389.453125"/>
       <use xlink:href="#DejaVuSans-72" x="1450.634766"/>
       <use xlink:href="#DejaVuSans-74" x="1491.748047"/>
       <use xlink:href="#DejaVuSans-2e" x="1530.957031"/>
       <use xlink:href="#DejaVuSans-70" x="1562.744141"/>
       <use xlink:href="#DejaVuSans-79" x="1626.220703"/>
      </g>
     </g>
    </g>
    <g id="text_11">
     <!-- command -->
     <g transform="translate(211.20375 336.182437) scale(0.1 -0.1)">
      <defs>
       <path id="DejaVuSans-6d" d="M 3328 2828 
Q 3544 3216 3844 3400 
Q 4144 3584 4550 3584 
Q 5097 3584 5394 3201 
Q 5691 2819 5691 2113 
L 5691 0 
L 5113 0 
L 5113 2094 
Q 5113 2597 4934 2840 
Q 4756 3084 4391 3084 
Q 3944 3084 3684 2787 
Q 3425 2491 3425 1978 
L 3425 0 
L 2847 0 
L 2847 2094 
Q 2847 2600 2669 2842 
Q 2491 3084 2119 3084 
Q 1678 3084 1418 2786 
Q 1159 2488 1159 1978 
L 1159 0 
L 581 0 
L 581 3500 
L 1159 3500 
L 1159 2956 
Q 1356 3278 1631 3431 
Q 1906 3584 2284 3584 
Q 2666 3584 2933 3390 
Q 3200 3197 3328 2828 
z
" transform="scale(0.015625)"/>
       <path id="DejaVuSans-61" d="M 2194 1759 
Q 1497 1759 1228 1600 
Q 959 1441 959 1056 
Q 959 750 1161 570 
Q 1363 391 1709 391 
Q 2188 391 2477 730 
Q 2766 1069 2766 1631 
L 2766 1759 
L 2194 1759 
z
M 3341 1997 
L 3341 0 
L 2766 0 
L 2766 531 
Q 2569 213 2275 61 
Q 1981 -91 1556 -91 
Q 1019 -91 701 211 
Q 384 513 384 1019 
Q 384 1609 779 1909 
Q 1175 2209 1959 2209 
L 2766 2209 
L 2766 2266 
Q 2766 2663 2505 2880 
Q 2244 3097 1772 3097 
Q 1472 3097 1187 3025 
Q 903 2953 641 2809 
L 641 3341 
Q 956 3463 1253 3523 
Q 1550 3584 1831 3584 
Q 2591 3584 2966 3190 
Q 3341 2797 3341 1997 
z
" transform="scale(0.015625)"/>
       <path id="DejaVuSans-64" d="M 2906 2969 
L 2906 4863 
L 3481 4863 
L 3481 0 
L 2906 0 
L 2906 525 
Q 2725 213 2448 61 
Q 2172 -91 1784 -91 
Q 1150 -91 751 415 
Q 353 922 353 1747 
Q 353 2572 751 3078 
Q 1150 3584 1784 3584 
Q 2172 3584 2448 3432 
Q 2725 3281 2906 2969 
z
M 947 1747 
Q 947 1113 1208 752 
Q 1469 391 1925 391 
Q 2381 391 2643 752 
Q 2906 1113 2906 1747 
Q 2906 2381 2643 2742 
Q 2381 3103 1925 3103 
Q 1469 3103 1208 2742 
Q 947 2381 947 1747 
z
" transform="scale(0.015625)"/>
      </defs>
      <use xlink:href="#DejaVuSans-63"/>
      <use xlink:href="#DejaVuSans-6f" x="54.980469"/>
      <use xlink:href="#DejaVuSans-6d" x="116.162109"/>
      <use xlink:href="#DejaVuSans-6d" x="213.574219"/>
      <use xlink:href="#DejaVuSans-61" x="310.986328"/>
      <use xlink:href="#DejaVuSans-6e" x="372.265625"/>
      <use xlink:href="#DejaVuSans-64" x="435.644531"/>
     </g>
    </g>
   </g>
   <g id="matplotlib.axis_2">
    <g id="ytick_1">
     <g id="line2d_11">
      <defs>
       <path id="m1e09a456f7" d="M 0 0 
L -3.5 0 
" style="stroke: #000000; stroke-width: 0.8"/>
      </defs>
      <g>
       <use xlink:href="#m1e09a456f7" x="57.6" y="297.327557" style="stroke: #000000; stroke-width: 0.8"/>
      </g>
     </g>
     <g id="text_12">
      <!-- 0.000 -->
      <g transform="translate(21.971875 301.126776) scale(0.1 -0.1)">
       <use xlink:href="#DejaVuSans-30"/>
       <use xlink:href="#DejaVuSans-2e" x="63.623047"/>
       <use xlink:href="#DejaVuSans-30" x="95.410156"/>
       <use xlink:href="#DejaVuSans-30" x="159.033203"/>
       <use xlink:href="#DejaVuSans-30" x="222.65625"/>
      </g>
     </g>
    </g>
    <g id="ytick_2">
     <g id="line2d_12">
      <g>
       <use xlink:href="#m1e09a456f7" x="57.6" y="262.426985" style="stroke: #000000; stroke-width: 0.8"/>
      </g>
     </g>
     <g id="text_13">
      <!-- 0.002 -->
      <g transform="translate(21.971875 266.226203) scale(0.1 -0.1)">
       <use xlink:href="#DejaVuSans-30"/>
       <use xlink:href="#DejaVuSans-2e" x="63.623047"/>
       <use xlink:href="#DejaVuSans-30" x="95.410156"/>
       <use xlink:href="#DejaVuSans-30" x="159.033203"/>
       <use xlink:href="#DejaVuSans-32" x="222.65625"/>
      </g>
     </g>
    </g>
    <g id="ytick_3">
     <g id="line2d_13">
      <g>
       <use xlink:href="#m1e09a456f7" x="57.6" y="227.526412" style="stroke: #000000; stroke-width: 0.8"/>
      </g>
     </g>
     <g id="text_14">
      <!-- 0.004 -->
      <g transform="translate(21.971875 231.325631) scale(0.1 -0.1)">
       <use xlink:href="#DejaVuSans-30"/>
       <use xlink:href="#DejaVuSans-2e" x="63.623047"/>
       <use xlink:href="#DejaVuSans-30" x="95.410156"/>
       <use xlink:href="#DejaVuSans-30" x="159.033203"/>
       <use xlink:href="#DejaVuSans-34" x="222.65625"/>
      </g>
     </g>
    </g>
    <g id="ytick_4">
     <g id="line2d_14">
      <g>
       <use xlink:href="#m1e09a456f7" x="57.6" y="192.62584" style="stroke: #000000; stroke-width: 0.8"/>
      </g>
     </g>
     <g id="text_15">
      <!-- 0.006 -->
      <g transform="translate(21.971875 196.425059) scale(0.1 -0.1)">
       <use xlink:href="#DejaVuSans-30"/>
       <use xlink:href="#DejaVuSans-2e" x="63.623047"/>
       <use xlink:href="#DejaVuSans-30" x="95.410156"/>
       <use xlink:href="#DejaVuSans-30" x="159.033203"/>
       <use xlink:href="#DejaVuSans-36" x="222.65625"/>
      </g>
     </g>
    </g>
    <g id="ytick_5">
     <g id="line2d_15">
      <g>
       <use xlink:href="#m1e09a456f7" x="57.6" y="157.725268" style="stroke: #000000; stroke-width: 0.8"/>
      </g>
     </g>
     <g id="text_16">
      <!-- 0.008 -->
      <g transform="translate(21.971875 161.524487) scale(0.1 -0.1)">
       <use xlink:href="#DejaVuSans-30"/>
       <use xlink:href="#DejaVuSans-2e" x="63.623047"/>
       <use xlink:href="#DejaVuSans-30" x="95.410156"/>
       <use xlink:href="#DejaVuSans-30" x="159.033203"/>
       <use xlink:href="#DejaVuSans-38" x="222.65625"/>
      </g>
     </g>
    </g>
    <g id="ytick_6">
     <g id="line2d_16">
      <g>
       <use xlink:href="#m1e09a456f7" x="57.6" y="122.824696" style="stroke: #000000; stroke-width: 0.8"/>
      </g>
     </g>
     <g id="text_17">
      <!-- 0.010 -->
      <g transform="translate(21.971875 126.623914) scale(0.1 -0.1)">
       <use xlink:href="#DejaVuSans-30"/>
       <use xlink:href="#DejaVuSans-2e" x="63.623047"/>
       <use xlink:href="#DejaVuSans-30" x="95.410156"/>
       <use xlink:href="#DejaVuSans-31" x="159.033203"/>
       <use xlink:href="#DejaVuSans-30" x="222.65625"/>
      </g>
     </g>
    </g>
    <g id="ytick_7">
     <g id="line2d_17">
      <g>
       <use xlink:href="#m1e09a456f7" x="57.6" y="87.924123" style="stroke: #000000; stroke-width: 0.8"/>
      </g>
     </g>
     <g id="text_18">
      <!-- 0.012 -->
      <g transform="translate(21.971875 91.723342) scale(0.1 -0.1)">
       <use xlink:href="#DejaVuSans-30"/>
       <use xlink:href="#DejaVuSans-2e" x="63.623047"/>
       <use xlink:href="#DejaVuSans-30" x="95.410156"/>
       <use xlink:href="#DejaVuSans-31" x="159.033203"/>
       <use xlink:href="#DejaVuSans-32" x="222.65625"/>
      </g>
     </g>
    </g>
    <g id="ytick_8">
     <g id="line2d_18">
      <g>
       <use xlink:href="#m1e09a456f7" x="57.6" y="53.023551" style="stroke: #000000; stroke-width: 0.8"/>
      </g>
     </g>
     <g id="text_19">
      <!-- 0.014 -->
      <g transform="translate(21.971875 56.82277) scale(0.1 -0.1)">
       <use xlink:href="#DejaVuSans-30"/>
       <use xlink:href="#DejaVuSans-2e" x="63.623047"/>
       <use xlink:href="#DejaVuSans-30" x="95.410156"/>
       <use xlink:href="#DejaVuSans-31" x="159.033203"/>
       <use xlink:href="#DejaVuSans-34" x="222.65625"/>
      </g>
     </g>
    </g>
    <g id="text_20">
     <!-- t [s] -->
     <g transform="translate(15.892188 184.583469) rotate(-90) scale(0.1 -0.1)">
      <defs>
       <path id="DejaVuSans-5b" d="M 550 4863 
L 1875 4863 
L 1875 4416 
L 1125 4416 
L 1125 -397 
L 1875 -397 
L 1875 -844 
L 550 -844 
L 550 4863 
z
" transform="scale(0.015625)"/>
       <path id="DejaVuSans-5d" d="M 1947 4863 
L 1947 -844 
L 622 -844 
L 622 -397 
L 1369 -397 
L 1369 4416 
L 622 4416 
L 622 4863 
L 1947 4863 
z
" transform="scale(0.015625)"/>
      </defs>
      <use xlink:href="#DejaVuSans-74"/>
      <use xlink:href="#DejaVuSans-20" x="39.208984"/>
      <use xlink:href="#DejaVuSans-5b" x="70.996094"/>
      <use xlink:href="#DejaVuSans-73" x="110.009766"/>
      <use xlink:href="#DejaVuSans-5d" x="162.109375"/>
     </g>
    </g>
   </g>
   <g id="LineCollection_1">
    <path d="M 78.104498 295.24661 
L 86.648038 295.24661 
" clip-path="url(#p19bfffba46)" style="fill: none; stroke: #1f77b4; stroke-width: 1.5"/>
    <path d="M 112.27866 271.91488 
L 120.822201 271.91488 
" clip-path="url(#p19bfffba46)" style="fill: none; stroke: #1f77b4; stroke-width: 1.5"/>
    <path d="M 146.452823 248.021773 
L 154.996364 248.021773 
" clip-path="url(#p19bfffba46)" style="fill: none; stroke: #1f77b4; stroke-width: 1.5"/>
    <path d="M 180.626986 222.735611 
L 189.170526 222.735611 
" clip-path="url(#p19bfffba46)" style="fill: none; stroke: #1f77b4; stroke-width: 1.5"/>
    <path d="M 214.801148 196.92943 
L 223.344689 196.92943 
" clip-path="url(#p19bfffba46)" style="fill: none; stroke: #1f77b4; stroke-width: 1.5"/>
    <path d="M 248.975311 166.770275 
L 257.518852 166.770275 
" clip-path="url(#p19bfffba46)" style="fill: none; stroke: #1f77b4; stroke-width: 1.5"/>
    <path d="M 283.149474 139.592327 
L 291.693014 139.592327 
" clip-path="url(#p19bfffba46)" style="fill: none; stroke: #1f77b4; stroke-width: 1.5"/>
    <path d="M 317.323636 115.300132 
L 325.867177 115.300132 
" clip-path="url(#p19bfffba46)" style="fill: none; stroke: #1f77b4; stroke-width: 1.5"/>
    <path d="M 351.497799 82.055592 
L 360.04134 82.055592 
" clip-path="url(#p19bfffba46)" style="fill: none; stroke: #1f77b4; stroke-width: 1.5"/>
    <path d="M 385.671962 53.568 
L 394.215502 53.568 
" clip-path="url(#p19bfffba46)" style="fill: none; stroke: #1f77b4; stroke-width: 1.5"/>
   </g>
   <g id="LineCollection_2">
    <path d="M 78.104498 295.488 
L 86.648038 295.488 
" clip-path="url(#p19bfffba46)" style="fill: none; stroke: #1f77b4; stroke-width: 1.5"/>
    <path d="M 112.27866 274.563659 
L 120.822201 274.563659 
" clip-path="url(#p19bfffba46)" style="fill: none; stroke: #1f77b4; stroke-width: 1.5"/>
    <path d="M 146.452823 251.65946 
L 154.996364 251.65946 
" clip-path="url(#p19bfffba46)" style="fill: none; stroke: #1f77b4; stroke-width: 1.5"/>
    <path d="M 180.626986 227.018958 
L 189.170526 227.018958 
" clip-path="url(#p19bfffba46)" style="fill: none; stroke: #1f77b4; stroke-width: 1.5"/>
    <path d="M 214.801148 202.897427 
L 223.344689 202.897427 
" clip-path="url(#p19bfffba46)" style="fill: none; stroke: #1f77b4; stroke-width: 1.5"/>
    <path d="M 248.975311 177.659253 
L 257.518852 177.659253 
" clip-path="url(#p19bfffba46)" style="fill: none; stroke: #1f77b4; stroke-width: 1.5"/>
    <path d="M 283.149474 150.886152 
L 291.693014 150.886152 
" clip-path="url(#p19bfffba46)" style="fill: none; stroke: #1f77b4; stroke-width: 1.5"/>
    <path d="M 317.323636 123.871713 
L 325.867177 123.871713 
" clip-path="url(#p19bfffba46)" style="fill: none; stroke: #1f77b4; stroke-width: 1.5"/>
    <path d="M 351.497799 98.69095 
L 360.04134 98.69095 
" clip-path="url(#p19bfffba46)" style="fill: none; stroke: #1f77b4; stroke-width: 1.5"/>
    <path d="M 385.671962 73.058225 
L 394.215502 73.058225 
" clip-path="url(#p19bfffba46)" style="fill: none; stroke: #1f77b4; stroke-width: 1.5"/>
   </g>
   <g id="LineCollection_3">
    <path d="M 82.376268 295.488 
L 82.376268 295.24661 
" clip-path="url(#p19bfffba46)" style="fill: none; stroke: #1f77b4; stroke-width: 1.5"/>
    <path d="M 116.550431 274.563659 
L 116.550431 271.91488 
" clip-path="url(#p19bfffba46)" style="fill: none; stroke: #1f77b4; stroke-width: 1.5"/>
    <path d="M 150.724593 251.65946 
L 150.724593 248.021773 
" clip-path="url(#p19bfffba46)" style="fill: none; stroke: #1f77b4; stroke-width: 1.5"/>
    <path d="M 184.898756 227.018958 
L 184.898756 222.735611 
" clip-path="url(#p19bfffba46)" style="fill: none; stroke: #1f77b4; stroke-width: 1.5"/>
    <path d="M 219.072919 202.897427 
L 219.072919 196.92943 
" clip-path="url(#p19bfffba46)" style="fill: none; stroke: #1f77b4; stroke-width: 1.5"/>
    <path d="M 253.247081 177.659253 
L 253.247081 166.770275 
" clip-path="url(#p19bfffba46)" style="fill: none; stroke: #1f77b4; stroke-width: 1.5"/>
    <path d="M 287.421244 150.886152 
L 287.421244 139.592327 
" clip-path="url(#p19bfffba46)" style="fill: none; stroke: #1f77b4; stroke-width: 1.5"/>
    <path d="M 321.595407 123.871713 
L 321.595407 115.300132 
" clip-path="url(#p19bfffba46)" style="fill: none; stroke: #1f77b4; stroke-width: 1.5"/>
    <path d="M 355.769569 98.69095 
L 355.769569 82.055592 
" clip-path="url(#p19bfffba46)" style="fill: none; stroke: #1f77b4; stroke-width: 1.5"/>
    <path d="M 389.943732 73.058225 
L 389.943732 53.568 
" clip-path="url(#p19bfffba46)" style="fill: none; stroke: #1f77b4; stroke-width: 1.5"/>
   </g>
   <g id="patch_3">
    <path d="M 57.6 307.584 
L 57.6 41.472 
" style="fill: none; stroke: #000000; stroke-width: 0.8; stroke-linejoin: miter; stroke-linecap: square"/>
   </g>
   <g id="patch_4">
    <path d="M 414.72 307.584 
L 414.72 41.472 
" style="fill: none; stroke: #000000; stroke-width: 0.8; stroke-linejoin: miter; stroke-linecap: square"/>
   </g>
   <g id="patch_5">
    <path d="M 57.6 307.584 
L 414.72 307.584 
" style="fill: none; stroke: #000000; stroke-width: 0.8; stroke-linejoin: miter; stroke-linecap: square"/>
   </g>
   <g id="patch_6">
    <path d="M 57.6 41.472 
L 414.72 41.472 
" style="fill: none; stroke: #000000; stroke-width: 0.8; stroke-linejoin: miter; stroke-linecap: square"/>
   </g>
  </g>
 </g>
 <defs>
  <clipPath id="p19bfffba46">
   <rect x="57.6" y="41.472" width="357.12" height="266.112"/>
  </clipPath>
 </defs>
</svg>
